<?xml version="1.0" encoding="UTF-8"?>
<svg id="Layer_1" data-name="Layer 1" xmlns="http://www.w3.org/2000/svg" viewBox="0 0 157.47 129.48">
  <defs>
    <style>
      .cls-1 {
        fill: #231f20;
      }
    </style>
  </defs>
  <path class="cls-1" d="M1,15.19C1,6.83,7.82,0,16.14,0s15.16,6.83,15.16,15.19-6.83,15.09-15.18,15.09S1,23.49,1,15.19ZM25.38,15.16c0-5.09-4.16-9.25-9.25-9.25S6.91,10.06,6.91,15.16s4.14,9.2,9.21,9.2,9.25-4.14,9.25-9.2ZM35.1.6h10.23c5.64,0,10.24,4.43,10.24,9.85s-4.61,9.81-10.24,9.81h-4.37v9.47h-5.85V.6ZM49.71,10.39c0-2.2-1.97-3.99-4.39-3.99h-4.37v8.06l4.37.02c2.42.02,4.39-1.82,4.39-4.08ZM64.71,6.36v5.69h10.04v5.84h-10.04v6.02h11.71v5.82h-17.56V.6h17.56v5.76h-11.71ZM104.13.52v29.74h-.27l-17.29-16.82v16.31h-5.85V.05h.29l17.25,16.78V.52h5.87ZM32.3,69.62h-8.85v-9.35l-6.09,8.86h-1.58l-.48-.65-5.67-8.22v9.36H.77v-32.85h2.59l13.18,18.18,13.16-18.18h2.59v32.85ZM26.44,66.62h2.85v-24.17l-12.75,17.62L3.77,42.45v24.17h2.85v-16l9.92,14.4,9.9-14.41v16.01ZM46.84,70.25c-7.14,0-12.74-5.67-12.74-12.9v-19.86h8.89v19.84c0,2.2,1.72,3.99,3.83,3.99,1.86,0,3.87-1.53,3.87-3.99v-19.84h8.89v19.86c0,7.23-5.59,12.9-12.74,12.9ZM37.1,40.5v16.86c0,5.64,4.19,9.9,9.74,9.9s9.74-4.26,9.74-9.9v-16.86h-2.89v16.84c0,3.86-3.08,6.99-6.87,6.99s-6.83-3.14-6.83-6.99v-16.84h-2.89ZM71.61,70.2c-5.23,0-9.34-2.27-11.56-6.39l-.63-1.17,7.07-4.97.84,1.35c.99,1.58,2.34,2.29,4.38,2.29s3.09-.69,3.09-1.17c0-1.15-3.57-2.93-5.49-3.88l-.22-.11c-3.43-1.71-7.7-3.83-7.7-9.4s4.67-9.86,11.11-9.86c4.89,0,8.53,2.24,9.99,6.14l.41,1.09-6.7,4.68-.78-1.55c-.7-1.4-2.07-1.61-2.83-1.61-1.43,0-2.31.74-2.31,1.26,0,.45,1.5,1.11,2.96,1.76.53.24,1.11.49,1.73.78,4.53,2.14,8.72,4.9,8.72,10.57,0,6.09-4.85,10.19-12.07,10.19ZM63.39,63.5c1.79,2.42,4.6,3.69,8.21,3.69,5.51,0,9.07-2.82,9.07-7.19,0-3.32-1.9-5.45-7-7.86-.59-.28-1.15-.53-1.67-.76-2.65-1.18-4.74-2.11-4.74-4.5s2.33-4.26,5.31-4.26c1.8,0,3.41.67,4.53,1.86l2.06-1.44c-1.62-2.72-4.81-3.16-6.68-3.16-4.7,0-8.11,2.89-8.11,6.86,0,3.71,2.93,5.17,6.03,6.71l.22.11c3.52,1.75,7.16,3.55,7.16,6.57,0,2.46-2.5,4.17-6.09,4.17-2.49,0-4.49-.82-5.97-2.44l-2.33,1.64ZM99.68,70.18c-9.23,0-16.73-7.45-16.73-16.6s7.61-16.68,16.62-16.68c4.15.06,7.93,1.71,11.25,4.92l.94.91-5.18,7.06-1.24-1.21c-1.81-1.78-3.83-2.71-5.83-2.71-4,0-7.64,3.69-7.64,7.75,0,4.4,4.02,7.7,7.62,7.7,1.96,0,3.88-.95,5.87-2.9l1.26-1.23,5.11,7.2-.9.9c-3.37,3.34-6.91,4.9-11.16,4.9ZM99.55,39.9c-7.36,0-13.6,6.26-13.6,13.68s6.29,13.6,13.73,13.6c3.07,0,5.62-.98,8.12-3.16l-1.63-2.3c-2.15,1.72-4.38,2.59-6.67,2.59-5.02,0-10.62-4.39-10.62-10.7,0-5.73,4.97-10.75,10.64-10.75,2.31,0,4.58.84,6.64,2.44l1.61-2.2c-2.52-2.11-5.22-3.16-8.22-3.2ZM132.13,69.62h-20.56v-32.12h8.85v23.31h11.71v8.82ZM114.57,66.62h14.56v-2.82h-11.71v-23.31h-2.85v26.12ZM152.98,69.62h-20.56v-32.12h20.56v8.76h-11.71v2.69h10.04v8.84h-10.04v3.02h11.71v8.82ZM135.42,66.62h14.56v-2.82h-11.71v-9.02h10.04v-2.84h-10.04v-8.69h11.71v-2.76h-14.56v26.12ZM5.48,82.5v4.02h6.87v3.99h-6.87v8H1.47v-20h12.01v3.99H5.48ZM27.74,94.51v3.98h-12.01v-19.92h4v15.94h8.01ZM33.99,82.5v3.89h6.87v3.99h-6.87v4.12h8.01v3.98h-12.01v-19.92h12.01v3.94h-8.01ZM49.52,88.14l-5.69-9.58h4.6l3.41,6.03,3.4-6.03h4.6l-5.7,9.57,6.07,10.36h-4.6l-3.78-6.69-3.77,6.69h-4.6l6.06-10.35ZM79.48,88.98c0,6.25-4.31,9.9-9.5,9.9-5.87,0-10.49-4.65-10.49-10.33s4.65-10.39,10.34-10.39c2.58.02,5.34,1.21,7.29,3.11l-2.22,3.32c-1.56-1.52-3.34-2.39-5.12-2.39-3.09,0-6.22,2.62-6.22,6.34,0,3.46,2.69,6.3,6.59,6.3,2.84,0,4.88-1.46,5.02-3.86h-5.15v-3.7h9.37c.06.58.1,1.14.1,1.68ZM92.43,98.49l-6.34-9.42v9.42h-4v-19.92s6.49,0,6.49,0c3.72,0,6.77,2.87,6.77,6.45,0,2.56-1.54,4.8-3.68,5.55l5.66,7.92h-4.89ZM86.07,87.53h2.57c1.36.02,2.57-1.08,2.57-2.5s-1.22-2.51-2.57-2.51h-2.57v5.01ZM99.22,78.56h4v19.92h-4v-19.92ZM122.85,88.55c0,6.18-3.93,9.94-10.37,9.94h-5.8v-19.91h5.8c6.44-.02,10.37,3.76,10.37,9.97ZM118.81,88.54c0-3.73-2.4-6.01-6.34-6.01h-1.79v11.96h1.83c3.92,0,6.3-2.25,6.3-5.96ZM18.75,108.93l-9.32,20.42h-.15L0,108.93h4.24l5.1,11.57,5.12-11.57h4.29ZM24.74,112.87v3.89h6.87v3.99h-6.87v4.12h8.01v3.98h-12.01v-19.92h12.01v3.94h-8.01ZM46.04,128.85l-6.34-9.42v9.42h-4v-19.92s6.49,0,6.49,0c3.72,0,6.77,2.87,6.77,6.45,0,2.56-1.54,4.8-3.68,5.55l5.66,7.92h-4.89ZM39.69,117.9h2.57c1.36.02,2.57-1.08,2.57-2.5s-1.22-2.51-2.57-2.51h-2.57v5.01ZM51.8,125.42l3.2-2.25c.88,1.41,2.15,2.05,3.87,2.05,1.88,0,3.14-.77,3.14-1.83,0-1.46-2.39-2.61-4.47-3.65-2.24-1.11-4.7-2.34-4.7-5.51,0-3.45,2.92-5.72,6.58-5.72,2.72,0,4.97,1.12,5.87,3.53l-2.95,2.06c-.59-1.19-1.74-1.67-2.85-1.67-1.5,0-2.61.87-2.61,1.89,0,1.19,1.51,1.59,3.79,2.67,3.3,1.56,5.38,3.24,5.38,6.3,0,3.63-2.97,5.94-7.23,5.94-3.26,0-5.67-1.36-7.01-3.83ZM68.45,108.93h4v19.92h-4v-19.92ZM75.05,118.91c0-5.72,4.66-10.39,10.36-10.39s10.37,4.67,10.37,10.39-4.67,10.32-10.38,10.32-10.34-4.65-10.34-10.32ZM91.72,118.89c0-3.49-2.84-6.33-6.33-6.33s-6.3,2.84-6.3,6.33,2.83,6.29,6.3,6.29,6.33-2.83,6.33-6.29ZM114.38,108.88v20.34h-.19l-11.83-11.51v11.16h-4v-20.32h.2l11.8,11.48v-11.16h4.02ZM130.65,108.68v20.17h-4v-15.03l-2.26.66v-4.18l5.09-1.62h1.17ZM133.68,126.94c0-1.4,1.16-2.56,2.56-2.56s2.56,1.17,2.56,2.56-1.16,2.55-2.56,2.55-2.56-1.14-2.56-2.55ZM140.96,118.89c0-6.04,3.32-10.32,8.27-10.32s8.24,4.28,8.24,10.32-3.31,10.31-8.24,10.31-8.27-4.28-8.27-10.31ZM153.45,118.89c0-3.68-1.66-6.29-4.25-6.29s-4.25,2.61-4.25,6.29,1.66,6.27,4.25,6.27,4.25-2.6,4.25-6.27Z"/>
</svg>