<?xml version="1.0" encoding="UTF-8"?>
<svg id="Layer_1" data-name="Layer 1" xmlns="http://www.w3.org/2000/svg" viewBox="0 0 28.35 28.35">
  <defs>
    <style>
      .cls-1 {
        fill: #4993d0;
      }

      .cls-2 {
        fill: #f7901e;
      }
    </style>
  </defs>
  <path class="cls-1" d="M24.89,22.99c-.12-.12-.26-.21-.41-.27,4.02-4.92,3.74-12.21-.84-16.8C18.75,1.03,10.79,1.03,5.91,5.92c-4.22,4.22-4.22,11.07,0,15.29s11.07,4.22,15.29,0c3.54-3.54,3.54-9.31,0-12.85s-9.31-3.54-12.85,0c-2.87,2.87-2.87,7.54,0,10.41s7.54,2.87,10.41,0c2.2-2.2,2.2-5.77,0-7.97s-5.77-2.2-7.97,0c-1.52,1.52-1.52,4,0,5.53s4,1.52,5.53,0c.85-.85.85-2.24,0-3.09s-2.24-.85-3.09,0l.65.65c.49-.49,1.3-.49,1.79,0s.49,1.3,0,1.8c-1.17,1.17-3.07,1.17-4.24,0s-1.17-3.07,0-4.24c1.84-1.84,4.84-1.84,6.68,0s1.84,4.84,0,6.68c-2.51,2.51-6.6,2.51-9.12,0s-2.51-6.6,0-9.12c3.19-3.19,8.37-3.19,11.56,0s3.19,8.37,0,11.56c-3.86,3.86-10.14,3.86-14,0-3.86-3.86-3.86-10.14,0-14,4.53-4.53,11.91-4.53,16.44,0s4.53,11.87.03,16.41c0,0-.02.01-.03.02-.52.52-.52,1.38,0,1.9s1.38.52,1.9,0,.52-1.38,0-1.9Z"/>
  <path class="cls-2" d="M22.42,7.14c-4.22-4.22-11.07-4.22-15.29,0-3.54,3.54-3.54,9.31,0,12.85s9.31,3.54,12.85,0c2.87-2.87,2.87-7.54,0-10.41s-7.54-2.87-10.41,0c-2.2,2.2-2.2,5.77,0,7.97s5.77,2.2,7.97,0c1.52-1.52,1.52-4,0-5.53s-4-1.52-5.53,0c-.85.85-.85,2.24,0,3.09s2.24.85,3.09,0l-.65-.65c-.49.49-1.3.49-1.79,0s-.49-1.3,0-1.8c1.17-1.17,3.07-1.17,4.24,0s1.17,3.07,0,4.24c-1.84,1.84-4.84,1.84-6.68,0s-1.84-4.84,0-6.68c2.51-2.51,6.6-2.51,9.12,0s2.51,6.6,0,9.12c-3.19,3.19-8.37,3.19-11.56,0s-3.19-8.37,0-11.56c3.86-3.86,10.14-3.86,14,0s3.86,10.14,0,14c-4.53,4.53-11.91,4.53-16.44,0s-4.53-11.9,0-16.44c0,0,0,0,0,0,.52-.52.52-1.38,0-1.9s-1.38-.52-1.9,0-.52,1.38,0,1.9c.12.12.27.21.42.28C-.18,10.54.09,17.84,4.69,22.43c4.89,4.89,12.84,4.89,17.73,0,4.22-4.22,4.22-11.07,0-15.29Z"/>
</svg>