<?xml version="1.0" encoding="UTF-8"?>
<svg id="Layer_1" data-name="Layer 1" xmlns="http://www.w3.org/2000/svg" viewBox="0 0 26.59 21.69">
  <defs>
    <style>
      .cls-1 {
        fill: #4993d0;
      }

      .cls-2 {
        fill: #f7901e;
      }
    </style>
  </defs>
  <path class="cls-1" d="M25.34,9.6c-.3,0-.57.12-.79.3-.48-5.54-5.14-9.9-10.8-9.9C7.78,0,2.91,4.87,2.91,10.85c0,5.45,4.43,9.88,9.88,9.88s9.88-4.43,9.88-9.88c0-4.92-4-8.92-8.92-8.92S4.84,5.93,4.84,10.85c0,4.39,3.57,7.96,7.96,7.96s7.96-3.57,7.96-7.96c0-3.86-3.14-6.99-6.99-6.99s-6.99,3.14-6.99,6.99c0,3.33,2.71,6.03,6.03,6.03s6.03-2.71,6.03-6.03c0-2.79-2.27-5.07-5.07-5.07s-5.07,2.27-5.07,5.07c0,2.26,1.84,4.11,4.11,4.11s4.11-1.84,4.11-4.11c0-1.73-1.41-3.14-3.14-3.14s-3.14,1.41-3.14,3.14c0,1.2.98,2.18,2.18,2.18s2.18-.98,2.18-2.18c0-.67-.55-1.22-1.22-1.22s-1.22.55-1.22,1.22h.51c0-.39.32-.71.71-.71s.71.32.71.71c0,.92-.75,1.67-1.67,1.67s-1.67-.75-1.67-1.67c0-1.45,1.18-2.63,2.63-2.63s2.63,1.18,2.63,2.63c0,1.98-1.61,3.6-3.6,3.6s-3.6-1.61-3.6-3.6c0-2.51,2.05-4.56,4.56-4.56s4.56,2.05,4.56,4.56c0,3.04-2.48,5.52-5.52,5.52s-5.52-2.48-5.52-5.52c0-3.58,2.91-6.48,6.48-6.48s6.49,2.91,6.49,6.48c0,4.11-3.34,7.45-7.45,7.45s-7.45-3.34-7.45-7.45c0-4.64,3.77-8.41,8.41-8.41s8.41,3.77,8.41,8.41c0,5.17-4.2,9.37-9.37,9.37S3.42,16.01,3.42,10.85C3.42,5.15,8.06.51,13.76.51s10.34,4.64,10.34,10.34h0c0,.69.56,1.24,1.24,1.24s1.24-.56,1.24-1.24-.56-1.24-1.24-1.24Z"/>
  <path class="cls-2" d="M13.76.96C8.31.96,3.88,5.4,3.88,10.85c0,4.92,4,8.92,8.92,8.92s8.92-4,8.92-8.92c0-4.39-3.57-7.96-7.96-7.96s-7.96,3.57-7.96,7.96c0,3.86,3.14,6.99,6.99,6.99s6.99-3.14,6.99-6.99c0-3.33-2.71-6.03-6.03-6.03s-6.03,2.71-6.03,6.03c0,2.79,2.27,5.07,5.07,5.07s5.07-2.27,5.07-5.07c0-2.26-1.84-4.11-4.11-4.11s-4.11,1.84-4.11,4.11c0,1.73,1.41,3.14,3.14,3.14s3.14-1.41,3.14-3.14c0-1.2-.98-2.18-2.18-2.18s-2.18.98-2.18,2.18c0,.67.55,1.22,1.22,1.22s1.22-.55,1.22-1.22h-.51c0,.39-.32.71-.71.71s-.71-.32-.71-.71c0-.92.75-1.67,1.67-1.67s1.67.75,1.67,1.67c0,1.45-1.18,2.63-2.63,2.63s-2.63-1.18-2.63-2.63c0-1.98,1.61-3.6,3.6-3.6s3.6,1.61,3.6,3.6c0,2.51-2.05,4.56-4.56,4.56s-4.56-2.05-4.56-4.56c0-3.04,2.48-5.52,5.52-5.52s5.52,2.48,5.52,5.52c0,3.58-2.91,6.48-6.48,6.48s-6.49-2.91-6.49-6.48c0-4.11,3.34-7.45,7.45-7.45s7.45,3.34,7.45,7.45c0,4.64-3.77,8.41-8.41,8.41s-8.41-3.77-8.41-8.41C4.39,5.68,8.59,1.47,13.76,1.47s9.37,4.2,9.37,9.37c0,5.7-4.64,10.34-10.34,10.34S2.52,16.59,2.47,10.94c0-.03.02-.06.02-.09,0-.69-.56-1.24-1.24-1.24s-1.24.56-1.24,1.24.56,1.24,1.24,1.24c.29,0,.55-.12.76-.28.49,5.53,5.14,9.89,10.8,9.89,5.98,0,10.85-4.87,10.85-10.85C23.64,5.4,19.21.96,13.76.96Z"/>
</svg>