%TF.GenerationSoftware,KiCad,Pcbnew,9.0.1*%
%TF.CreationDate,2025-06-14T18:41:54-05:00*%
%TF.ProjectId,OM-FlexGrid-Flex,4f4d2d46-6c65-4784-9772-69642d466c65,rev?*%
%TF.SameCoordinates,Original*%
%TF.FileFunction,Soldermask,Top*%
%TF.FilePolarity,Negative*%
%FSLAX46Y46*%
G04 Gerber Fmt 4.6, Leading zero omitted, Abs format (unit mm)*
G04 Created by KiCad (PCBNEW 9.0.1) date 2025-06-14 18:41:54*
%MOMM*%
%LPD*%
G01*
G04 APERTURE LIST*
G04 Aperture macros list*
%AMFreePoly0*
4,1,956,0.191342,0.461940,0.304381,0.396677,0.396677,0.304381,0.413006,0.276097,0.417001,0.274606,0.432925,0.267754,0.448552,0.260096,0.463850,0.251631,0.478785,0.242360,0.493325,0.232283,0.507437,0.221400,0.521088,0.209711,0.534245,0.197216,0.546740,0.184059,0.558429,0.170409,0.569312,0.156297,0.579389,0.141757,0.588660,0.126821,0.597124,0.111523,0.604783,0.095896,
0.611635,0.079972,0.617681,0.063785,0.622921,0.047367,0.627355,0.030752,0.630983,0.013971,0.633804,-0.002941,0.635820,-0.019952,0.637029,-0.037029,0.637432,-0.054138,0.637029,-0.071248,0.635820,-0.088325,0.633804,-0.105336,0.630983,-0.122248,0.627355,-0.139028,0.622921,-0.155644,0.617681,-0.172062,0.611635,-0.188249,0.604783,-0.204173,0.597124,-0.219800,0.588660,-0.235098,
0.579389,-0.250033,0.569312,-0.264573,0.558429,-0.278685,0.546740,-0.292336,0.534245,-0.305493,0.425391,-0.420254,0.323560,-0.539127,0.228752,-0.661839,0.140966,-0.788114,0.060204,-0.917678,-0.013536,-1.050255,-0.080253,-1.185572,-0.139947,-1.323353,-0.192618,-1.463324,-0.238267,-1.605210,-0.276892,-1.748736,-0.308495,-1.893628,-0.333075,-2.039611,-0.350632,-2.186411,-0.361166,-2.333752,
-0.364677,-2.481360,-0.361166,-2.628960,-0.350632,-2.776278,-0.333075,-2.923038,-0.308495,-3.068967,-0.276892,-3.213789,-0.238267,-3.357230,-0.192618,-3.499016,-0.139947,-3.638870,-0.080253,-3.776520,-0.013536,-3.911689,0.060204,-4.044103,0.140966,-4.173489,0.228751,-4.299570,0.323560,-4.422072,0.425391,-4.540721,0.534245,-4.655242,0.648773,-4.764096,0.767443,-4.865927,0.889980,-4.960735,
1.016107,-5.048521,1.145547,-5.129283,1.278025,-5.203023,1.413264,-5.269740,1.550989,-5.329434,1.690922,-5.382105,1.832789,-5.427753,1.976313,-5.466379,2.121217,-5.497982,2.267226,-5.522562,2.414064,-5.540119,2.561454,-5.550653,2.709119,-5.554164,2.856785,-5.550653,3.004175,-5.540119,3.151012,-5.522562,3.297021,-5.497982,3.441926,-5.466379,3.585450,-5.427753,3.727316,-5.382105,
3.867250,-5.329434,4.004975,-5.269740,4.140214,-5.203023,4.272692,-5.129283,4.402132,-5.048521,4.528259,-4.960735,4.650795,-4.865927,4.769466,-4.764096,4.883994,-4.655242,4.976748,-4.557659,5.063518,-4.456559,5.144304,-4.352177,5.219106,-4.244746,5.287923,-4.134501,5.350757,-4.021677,5.407606,-3.906508,5.458471,-3.789228,5.503352,-3.670073,5.542249,-3.549276,5.575161,-3.427073,
5.602090,-3.303697,5.623034,-3.179383,5.637995,-3.054366,5.646971,-2.928880,5.649963,-2.803159,5.646971,-2.677439,5.637995,-2.551952,5.623034,-2.426935,5.602090,-2.302621,5.575161,-2.179246,5.542249,-2.057042,5.503352,-1.936246,5.458471,-1.817090,5.407606,-1.699811,5.350756,-1.584642,5.287923,-1.471818,5.219106,-1.361573,5.144304,-1.254142,5.063518,-1.149759,4.976748,-1.048659,
4.883994,-0.951076,4.786411,-0.858322,4.685311,-0.771552,4.580929,-0.690766,4.473498,-0.615965,4.363253,-0.547147,4.250429,-0.484314,4.135260,-0.427465,4.017980,-0.376600,3.898825,-0.331719,3.778028,-0.292822,3.655825,-0.259909,3.532449,-0.232980,3.408135,-0.212036,3.283118,-0.197076,3.157632,-0.188099,3.031911,-0.185107,2.906191,-0.188099,2.780704,-0.197076,2.655687,-0.212036,
2.531373,-0.232980,2.407998,-0.259909,2.285794,-0.292822,2.164998,-0.331719,2.045842,-0.376600,1.928563,-0.427465,1.813394,-0.484314,1.700570,-0.547147,1.590325,-0.615965,1.482894,-0.690766,1.378511,-0.771552,1.277411,-0.858322,1.179828,-0.951076,1.103174,-1.031713,1.031465,-1.115243,0.964702,-1.201472,0.902884,-1.290208,0.846011,-1.381257,0.794084,-1.474428,0.747103,-1.569527,
0.705066,-1.666361,0.667976,-1.764737,0.635830,-1.864463,0.608630,-1.965347,0.586376,-2.067194,0.569067,-2.169813,0.556703,-2.273010,0.549285,-2.376592,0.546812,-2.480368,0.549285,-2.584143,0.556703,-2.687726,0.569067,-2.790923,0.586376,-2.893541,0.608630,-2.995389,0.635830,-3.096272,0.667976,-3.195998,0.705066,-3.294375,0.747103,-3.391209,0.794084,-3.486308,0.846011,-3.579478,
0.902884,-3.670528,0.964702,-3.759263,1.031465,-3.845493,1.103174,-3.929022,1.179828,-4.009660,1.260465,-4.086314,1.343995,-4.158023,1.430224,-4.224786,1.518960,-4.286604,1.610009,-4.343476,1.703180,-4.395404,1.798279,-4.442385,1.895113,-4.484421,1.993489,-4.521512,2.093215,-4.553657,2.194099,-4.580857,2.295946,-4.603112,2.398565,-4.620421,2.501762,-4.632784,2.605344,-4.640203,
2.709120,-4.642675,2.812895,-4.640203,2.916478,-4.632784,3.019675,-4.620421,3.122293,-4.603112,3.224141,-4.580857,3.325024,-4.553657,3.424750,-4.521512,3.523127,-4.484421,3.619961,-4.442385,3.715060,-4.395404,3.808230,-4.343476,3.899280,-4.286604,3.988015,-4.224786,4.074245,-4.158023,4.157774,-4.086314,4.238412,-4.009660,4.298733,-3.945960,4.355178,-3.879980,4.407744,-3.811870,
4.456429,-3.741785,4.501233,-3.669875,4.542155,-3.596295,4.579191,-3.521197,4.612342,-3.444733,4.641606,-3.367056,4.666980,-3.288318,4.688465,-3.208673,4.706057,-3.128272,4.719757,-3.047268,4.729562,-2.965815,4.735470,-2.884063,4.737482,-2.802168,4.735594,-2.720279,4.729806,-2.638552,4.720116,-2.557137,4.706522,-2.476187,4.689024,-2.395856,4.667620,-2.316296,4.642308,-2.237659,
4.613086,-2.160098,4.579954,-2.083766,4.542910,-2.008815,4.501953,-1.935398,4.457080,-1.863667,4.408291,-1.793775,4.355585,-1.725875,4.298959,-1.660119,4.238412,-1.596660,4.174712,-1.536346,4.108732,-1.479923,4.040622,-1.427391,3.970537,-1.378751,3.898627,-1.334001,3.825047,-1.293143,3.749949,-1.256177,3.673485,-1.223101,3.595808,-1.193917,3.517070,-1.168624,3.437425,-1.147222,
3.357024,-1.129711,3.276020,-1.116092,3.194567,-1.106364,3.112815,-1.100527,3.030920,-1.098582,2.949031,-1.100527,2.867304,-1.106364,2.785889,-1.116092,2.704939,-1.129711,2.624608,-1.147222,2.545048,-1.168624,2.466411,-1.193917,2.388850,-1.223101,2.312518,-1.256177,2.237567,-1.293143,2.164150,-1.334001,2.092419,-1.378751,2.022527,-1.427391,1.954627,-1.479923,1.888871,-1.536346,
1.825412,-1.596660,1.781197,-1.643181,1.739836,-1.691388,1.701326,-1.741168,1.665670,-1.792410,1.632865,-1.845001,1.602914,-1.898827,1.575815,-1.953778,1.551568,-2.009741,1.530174,-2.066602,1.511632,-2.124250,1.495944,-2.182573,1.483107,-2.241458,1.473123,-2.300792,1.465992,-2.360463,1.461713,-2.420360,1.460287,-2.480368,1.461713,-2.540377,1.465992,-2.600273,1.473123,-2.659944,
1.483107,-2.719279,1.495944,-2.778163,1.511632,-2.836486,1.530174,-2.894134,1.551568,-2.950996,1.575815,-3.006958,1.602914,-3.061909,1.632865,-3.115736,1.665670,-3.168326,1.701326,-3.219568,1.739836,-3.269348,1.781197,-3.317555,1.825412,-3.364076,1.871933,-3.408291,1.920140,-3.449653,1.969920,-3.488162,2.021162,-3.523819,2.073753,-3.556623,2.127579,-3.586575,2.182530,-3.613674,
2.238492,-3.637920,2.295354,-3.659314,2.353002,-3.677856,2.411325,-3.693545,2.470210,-3.706381,2.529544,-3.716365,2.589215,-3.723497,2.649112,-3.727775,2.709120,-3.729202,2.769129,-3.727775,2.829025,-3.723497,2.888696,-3.716365,2.948031,-3.706381,3.006915,-3.693545,3.065238,-3.677856,3.122886,-3.659314,3.179748,-3.637920,3.235710,-3.613674,3.290661,-3.586575,3.344488,-3.556623,
3.397078,-3.523819,3.448320,-3.488162,3.498100,-3.449653,3.546307,-3.408291,3.592828,-3.364076,3.620943,-3.334501,3.647244,-3.303864,3.671731,-3.272238,3.694404,-3.239691,3.715263,-3.206296,3.734308,-3.172123,3.751540,-3.137243,3.766957,-3.101726,3.780561,-3.065643,3.792351,-3.029065,3.802327,-2.992062,3.810490,-2.954706,3.816838,-2.917067,3.821373,-2.879216,3.824093,-2.841224,
3.825000,-2.803160,3.824093,-2.765097,3.821373,-2.727104,3.816838,-2.689253,3.810490,-2.651614,3.802327,-2.614258,3.792351,-2.577255,3.780561,-2.540677,3.766957,-2.504594,3.751540,-2.469077,3.734308,-2.434197,3.715263,-2.400024,3.694404,-2.366629,3.671731,-2.334082,3.647244,-2.302456,3.620943,-2.271819,3.592828,-2.242244,3.563253,-2.214129,3.532616,-2.187828,3.500990,-2.163341,
3.468443,-2.140668,3.435048,-2.119809,3.400875,-2.100764,3.365995,-2.083532,3.330478,-2.068115,3.294395,-2.054511,3.257817,-2.042721,3.220814,-2.032745,3.183458,-2.024582,3.145819,-2.018234,3.107968,-2.013699,3.069976,-2.010979,3.031912,-2.010072,2.993849,-2.010979,2.955856,-2.013699,2.918005,-2.018234,2.880366,-2.024582,2.843010,-2.032745,2.806007,-2.042721,2.769429,-2.054511,
2.733346,-2.068115,2.697829,-2.083532,2.662949,-2.100764,2.628776,-2.119809,2.595381,-2.140668,2.562834,-2.163341,2.531208,-2.187828,2.500571,-2.214129,2.470996,-2.242244,2.459221,-2.254881,2.448206,-2.267969,2.437951,-2.281476,2.428456,-2.295372,2.419720,-2.309627,2.411743,-2.324210,2.404527,-2.339090,2.398070,-2.354237,2.392373,-2.369620,2.387435,-2.385210,2.383257,-2.400974,
2.379838,-2.416884,2.377180,-2.432908,2.375281,-2.449016,2.374141,-2.465177,2.373761,-2.481361,2.374141,-2.497537,2.375281,-2.513675,2.377180,-2.529744,2.379838,-2.545713,2.383257,-2.561553,2.387435,-2.577233,2.392373,-2.592721,2.398070,-2.607989,2.404527,-2.623004,2.411743,-2.637737,2.419720,-2.652157,2.428456,-2.666233,2.437951,-2.679936,2.448206,-2.693233,2.459221,-2.706096,
2.470996,-2.718494,2.483393,-2.730268,2.496255,-2.741283,2.509551,-2.751538,2.523251,-2.761034,2.537322,-2.769770,2.551735,-2.777746,2.566457,-2.784962,2.581459,-2.791419,2.596709,-2.797117,2.612176,-2.802054,2.627828,-2.806232,2.643636,-2.809651,2.659568,-2.812310,2.675593,-2.814209,2.691680,-2.815348,2.707798,-2.815728,2.723915,-2.815348,2.740002,-2.814209,2.756027,-2.812310,
2.771959,-2.809651,2.787767,-2.806232,2.803420,-2.802054,2.818886,-2.797117,2.834136,-2.791419,2.849138,-2.784962,2.863860,-2.777746,2.878273,-2.769770,2.892344,-2.761034,2.906044,-2.751538,2.919340,-2.741283,2.932202,-2.730268,2.944600,-2.718494,3.116579,-2.890473,3.095085,-2.910898,3.072806,-2.930005,3.049795,-2.947795,3.026104,-2.964267,3.001784,-2.979421,2.976890,-2.993257,
2.951472,-3.005776,2.925583,-3.016977,2.899275,-3.026860,2.872601,-3.035425,2.845614,-3.042673,2.818364,-3.048603,2.790906,-3.053215,2.763290,-3.056509,2.735570,-3.058486,2.707797,-3.059145,2.680025,-3.058486,2.652305,-3.056509,2.624689,-3.053215,2.597231,-3.048603,2.569981,-3.042673,2.542994,-3.035425,2.516320,-3.026860,2.490012,-3.016977,2.464123,-3.005776,2.438705,-2.993257,
2.413811,-2.979421,2.389491,-2.964267,2.365800,-2.947795,2.342789,-2.930005,2.320510,-2.910898,2.299016,-2.890473,2.278591,-2.868979,2.259484,-2.846700,2.241694,-2.823689,2.225222,-2.799997,2.210068,-2.775678,2.196232,-2.750783,2.183713,-2.725365,2.172512,-2.699477,2.162629,-2.673169,2.154064,-2.646495,2.146816,-2.619508,2.140886,-2.592258,2.136274,-2.564800,2.132980,-2.537184,
2.131003,-2.509464,2.130344,-2.481691,2.131003,-2.453919,2.132980,-2.426199,2.136274,-2.398583,2.140886,-2.371125,2.146816,-2.343875,2.154064,-2.316888,2.162629,-2.290214,2.172512,-2.263906,2.183713,-2.238017,2.196232,-2.212599,2.210068,-2.187705,2.225222,-2.163385,2.241694,-2.139694,2.259484,-2.116683,2.278591,-2.094404,2.299016,-2.072910,2.337688,-2.036378,2.377741,-2.002188,
2.419081,-1.970342,2.461616,-1.940841,2.505254,-1.913687,2.549902,-1.888881,2.595468,-1.866424,2.641858,-1.846319,2.688982,-1.828567,2.736745,-1.813168,2.785055,-1.800125,2.833821,-1.789439,2.882949,-1.781111,2.932346,-1.775143,2.981922,-1.771537,3.031581,-1.770293,3.081233,-1.771413,3.130785,-1.774899,3.180144,-1.780752,3.229218,-1.788974,3.277914,-1.799565,3.326139,-1.812529,
3.373801,-1.827865,3.420808,-1.845575,3.467067,-1.865661,3.512485,-1.888125,3.556971,-1.912967,3.600430,-1.940190,3.642772,-1.969794,3.683903,-2.001781,3.723730,-2.036152,3.762162,-2.072910,3.798687,-2.111582,3.832855,-2.151635,3.864667,-2.192975,3.894123,-2.235510,3.921222,-2.279148,3.945965,-2.323796,3.968351,-2.369362,3.988381,-2.415752,4.006054,-2.462875,4.021371,-2.510639,
4.034331,-2.558949,4.044936,-2.607715,4.053183,-2.656843,4.059074,-2.706240,4.062609,-2.755815,4.063787,-2.805475,4.062609,-2.855127,4.059074,-2.904679,4.053183,-2.954038,4.044936,-3.003112,4.034331,-3.051807,4.021371,-3.100033,4.006054,-3.147695,3.988381,-3.194702,3.968351,-3.240961,3.945965,-3.286379,3.921222,-3.330864,3.894123,-3.374324,3.864667,-3.416666,3.832855,-3.457796,
3.798687,-3.497624,3.762162,-3.536056,3.706552,-3.588921,3.648951,-3.638375,3.589491,-3.684419,3.528306,-3.727052,3.465527,-3.766275,3.401289,-3.802086,3.335723,-3.834487,3.268962,-3.863478,3.201140,-3.889058,3.132388,-3.911227,3.062840,-3.929985,2.992628,-3.945333,2.921885,-3.957271,2.850744,-3.965797,2.779337,-3.970913,2.707798,-3.972619,2.636258,-3.970913,2.564852,-3.965797,
2.493711,-3.957271,2.422968,-3.945333,2.352756,-3.929985,2.283207,-3.911227,2.214456,-3.889058,2.146633,-3.863478,2.079873,-3.834487,2.014307,-3.802086,1.950068,-3.766274,1.887290,-3.727052,1.826104,-3.684419,1.766645,-3.638375,1.709043,-3.588921,1.653433,-3.536056,1.600568,-3.480446,1.551114,-3.422845,1.505070,-3.363385,1.462437,-3.302200,1.423215,-3.239421,1.387403,-3.175183,
1.355002,-3.109617,1.326011,-3.042856,1.300432,-2.975034,1.278262,-2.906282,1.259504,-2.836734,1.244156,-2.766522,1.232219,-2.695779,1.223692,-2.624638,1.218576,-2.553231,1.216871,-2.481692,1.218576,-2.410152,1.223692,-2.338746,1.232219,-2.267605,1.244156,-2.196862,1.259504,-2.126650,1.278262,-2.057101,1.300432,-1.988350,1.326011,-1.920527,1.355002,-1.853766,1.387403,-1.788201,
1.423215,-1.723962,1.462437,-1.661184,1.505070,-1.599998,1.551114,-1.540539,1.600568,-1.482937,1.653433,-1.427327,1.725989,-1.358362,1.801161,-1.293847,1.878774,-1.233781,1.958655,-1.178164,2.040629,-1.126997,2.124521,-1.080279,2.210157,-1.038010,2.297363,-1.000191,2.385964,-0.966820,2.475786,-0.937900,2.566655,-0.913428,2.658395,-0.893406,2.750833,-0.877834,2.843795,-0.866710,
2.937105,-0.860036,3.030590,-0.857812,3.124074,-0.860036,3.217384,-0.866710,3.310346,-0.877834,3.402784,-0.893406,3.494524,-0.913428,3.585393,-0.937900,3.675215,-0.966820,3.763816,-1.000191,3.851022,-1.038010,3.936658,-1.080279,4.020550,-1.126997,4.102524,-1.178164,4.182405,-1.233781,4.260018,-1.293847,4.335190,-1.358362,4.407746,-1.427327,4.476710,-1.499883,4.541226,-1.575055,
4.601292,-1.652668,4.656909,-1.732549,4.708076,-1.814523,4.754794,-1.898415,4.797063,-1.984051,4.834882,-2.071257,4.868252,-2.159858,4.897173,-2.249680,4.921644,-2.340548,4.941666,-2.432289,4.957239,-2.524727,4.968362,-2.617688,4.975036,-2.710999,4.977261,-2.804483,4.975036,-2.897968,4.968362,-2.991278,4.957239,-3.084239,4.941666,-3.176677,4.921644,-3.268418,4.897173,-3.359286,
4.868252,-3.449109,4.834882,-3.537710,4.797063,-3.624916,4.754794,-3.710552,4.708076,-3.794444,4.656909,-3.876418,4.601292,-3.956299,4.541226,-4.033912,4.476710,-4.109084,4.407746,-4.181640,4.318244,-4.266704,4.225502,-4.346281,4.129735,-4.420369,4.031159,-4.488969,3.929990,-4.552082,3.826444,-4.609706,3.720738,-4.661843,3.613086,-4.708491,3.503707,-4.749651,3.392814,-4.785323,
3.280626,-4.815508,3.167357,-4.840204,3.053223,-4.859412,2.938442,-4.873132,2.823228,-4.881364,2.707798,-4.884108,2.592368,-4.881364,2.477154,-4.873132,2.362373,-4.859412,2.248240,-4.840204,2.134970,-4.815508,2.022782,-4.785323,1.911889,-4.749651,1.802510,-4.708491,1.694858,-4.661843,1.589152,-4.609706,1.485606,-4.552082,1.384437,-4.488969,1.285861,-4.420369,1.190094,-4.346281,
1.097351,-4.266704,1.007850,-4.181640,0.922786,-4.092138,0.843209,-3.999396,0.769121,-3.903629,0.700520,-3.805053,0.637408,-3.703884,0.579783,-3.600338,0.527647,-3.494631,0.480999,-3.386980,0.439838,-3.277600,0.404166,-3.166708,0.373982,-3.054519,0.349286,-2.941250,0.330078,-2.827117,0.316357,-2.712335,0.308125,-2.597122,0.305381,-2.481692,0.308125,-2.366262,0.316357,-2.251048,
0.330078,-2.136267,0.349286,-2.022133,0.373982,-1.908864,0.404166,-1.796676,0.439838,-1.685783,0.480999,-1.576403,0.527647,-1.468752,0.579783,-1.363046,0.637408,-1.259500,0.700520,-1.158331,0.769121,-1.059755,0.843209,-0.963987,0.922786,-0.871245,1.007850,-0.781744,1.114522,-0.680339,1.225016,-0.585477,1.339078,-0.497157,1.456453,-0.415379,1.576886,-0.340143,1.700122,-0.271449,
1.825906,-0.209298,1.953984,-0.153689,2.084100,-0.104622,2.216000,-0.062098,2.349429,-0.026116,2.484132,0.003324,2.619855,0.026222,2.756342,0.042578,2.893338,0.052391,3.030590,0.055662,3.167841,0.052391,3.304838,0.042578,3.441325,0.026222,3.577047,0.003324,3.711751,-0.026116,3.845180,-0.062098,3.977080,-0.104622,4.107196,-0.153689,4.235273,-0.209298,4.361058,-0.271449,
4.484293,-0.340143,4.604726,-0.415379,4.722101,-0.497157,4.836163,-0.585477,4.946657,-0.680339,5.053329,-0.781744,5.154734,-0.888416,5.249596,-0.998910,5.337916,-1.112972,5.419694,-1.230347,5.494930,-1.350780,5.563624,-1.474016,5.625775,-1.599800,5.681384,-1.727877,5.730450,-1.857994,5.772975,-1.989894,5.808957,-2.123323,5.838397,-2.258026,5.861295,-2.393748,5.877651,-2.530235,
5.887464,-2.667232,5.890735,-2.804484,5.887464,-2.941735,5.877651,-3.078732,5.861295,-3.215219,5.838397,-3.350941,5.808957,-3.485644,5.772975,-3.619073,5.730450,-3.750973,5.681384,-3.881090,5.625775,-4.009167,5.563624,-4.134951,5.494930,-4.258187,5.419694,-4.378620,5.337916,-4.495995,5.249596,-4.610057,5.154734,-4.720551,5.053329,-4.827223,4.929712,-4.944728,4.801647,-5.054651,
4.669431,-5.156994,4.533361,-5.251755,4.393733,-5.338936,4.250843,-5.418536,4.104989,-5.490555,3.956466,-5.554993,3.805571,-5.611850,3.652601,-5.661126,3.497852,-5.702821,3.341620,-5.736935,3.184202,-5.763468,3.025895,-5.782421,2.866995,-5.793792,2.707798,-5.797582,2.548601,-5.793792,2.389701,-5.782421,2.231394,-5.763468,2.073976,-5.736935,1.917745,-5.702821,1.762995,-5.661126,
1.610025,-5.611850,1.459130,-5.554993,1.310607,-5.490555,1.164753,-5.418536,1.021863,-5.338936,0.882235,-5.251755,0.746165,-5.156994,0.613949,-5.054651,0.485884,-4.944728,0.362267,-4.827223,0.251521,-4.711310,0.147488,-4.591442,0.050165,-4.467866,-0.040448,-4.340829,-0.124352,-4.210577,-0.201548,-4.077356,-0.272037,-3.941414,-0.335820,-3.802996,-0.392898,-3.662350,-0.443272,-3.519722,
-0.486943,-3.375359,-0.523912,-3.229507,-0.554179,-3.082412,-0.577747,-2.934322,-0.594615,-2.785484,-0.604785,-2.636142,-0.608258,-2.486545,-0.605035,-2.336939,-0.595116,-2.187570,-0.578503,-2.038685,-0.555196,-1.890531,-0.525198,-1.743353,-0.488507,-1.597400,-0.445126,-1.452917,-0.395056,-1.310151,-0.338297,-1.169348,-0.274851,-1.030756,-0.204718,-0.894620,-0.127899,-0.761187,-0.044396,-0.630705,
0.045791,-0.503419,0.051812,-0.495722,-0.065263,-0.495722,-0.191342,-0.461940,-0.304381,-0.396677,-0.396677,-0.304381,-0.461940,-0.191342,-0.495722,-0.065263,-0.495722,0.065263,-0.461940,0.191342,-0.396677,0.304381,-0.304381,0.396677,-0.191342,0.461940,-0.065263,0.495722,0.065263,0.495722,0.191342,0.461940,0.191342,0.461940,$1*%
%AMFreePoly1*
4,1,994,-2.811140,5.707617,-2.652168,5.696245,-2.493784,5.677293,-2.336287,5.650760,-2.179973,5.616645,-2.025141,5.574950,-1.872089,5.525674,-1.721115,5.468817,-1.572517,5.404379,-1.426592,5.332360,-1.283639,5.252761,-1.143956,5.165580,-1.007841,5.070818,-0.875591,4.968476,-0.747505,4.858552,-0.623880,4.741048,-0.513607,4.625142,-0.410001,4.505297,-0.313061,4.381756,-0.222788,4.254767,
-0.139180,4.124575,-0.062239,3.991425,0.008035,3.855563,0.071644,3.717234,0.128586,3.576685,0.178862,3.434161,0.222472,3.289907,0.259415,3.144169,0.289693,2.997192,0.313304,2.849224,0.330248,2.700508,0.340527,2.551290,0.344139,2.401817,0.341085,2.252334,0.331365,2.103086,0.314978,1.954319,0.291925,1.806279,0.262206,1.659211,0.225821,1.513361,0.182769,1.368975,
0.133051,1.226298,0.076667,1.085575,0.013617,0.947054,-0.056100,0.810978,-0.132483,0.677594,-0.215532,0.547147,-0.305248,0.419883,-0.389755,0.311302,-0.304381,0.396677,-0.191342,0.461940,-0.065263,0.495722,0.065263,0.495722,0.191342,0.461940,0.304381,0.396677,0.396677,0.304381,0.461940,0.191342,0.495722,0.065263,0.495722,-0.065263,0.461940,-0.191342,0.396677,-0.304381,
0.304381,-0.396677,0.191342,-0.461940,0.065263,-0.495722,-0.065263,-0.495722,-0.191342,-0.461940,-0.304381,-0.396677,-0.331638,-0.369420,-0.365060,-0.335997,-0.378842,-0.343624,-0.394470,-0.351282,-0.410393,-0.358134,-0.426581,-0.364180,-0.442999,-0.369420,-0.459614,-0.373854,-0.476394,-0.377482,-0.493307,-0.380304,-0.510317,-0.382319,-0.527394,-0.383528,-0.544504,-0.383931,-0.561614,-0.383528,
-0.578690,-0.382319,-0.595701,-0.380304,-0.612613,-0.377482,-0.629394,-0.373854,-0.646009,-0.369420,-0.662427,-0.364180,-0.678615,-0.358134,-0.694538,-0.351282,-0.710166,-0.343624,-0.725463,-0.335159,-0.740399,-0.325888,-0.754939,-0.315811,-0.769051,-0.304928,-0.782702,-0.293239,-0.795858,-0.280744,-0.808354,-0.267587,-0.820043,-0.253937,-0.830926,-0.239825,-0.841003,-0.225284,-0.850273,-0.210349,
-0.858738,-0.195051,-0.866396,-0.179424,-0.873249,-0.163500,-0.879295,-0.147313,-0.884535,-0.130895,-0.888969,-0.114279,-0.892596,-0.097499,-0.895418,-0.080587,-0.897433,-0.063576,-0.898643,-0.046499,-0.899046,-0.029389,-0.898643,-0.012280,-0.897433,0.004797,-0.895418,0.021808,-0.892596,0.038720,-0.888969,0.055500,-0.884535,0.072116,-0.879295,0.088534,-0.873249,0.104721,-0.866396,0.120645,
-0.858738,0.136272,-0.850273,0.151570,-0.841003,0.166506,-0.830926,0.181046,-0.820043,0.195158,-0.808354,0.208808,-0.795858,0.221965,-0.795333,0.222460,-0.794757,0.222952,-0.794143,0.223436,-0.793502,0.223908,-0.792845,0.224365,-0.792184,0.224802,-0.791531,0.225216,-0.790897,0.225603,-0.789734,0.226280,-0.788788,0.226802,-0.787920,0.227257,-0.723090,0.296048,-0.401629,0.296048,
-0.401515,0.296000,-0.401083,0.296749,-0.401629,0.296048,-0.723090,0.296048,-0.679788,0.341995,-0.578633,0.460802,-0.484457,0.583407,-0.397262,0.709537,-0.317049,0.838921,-0.243820,0.971287,-0.177576,1.106362,-0.118318,1.243877,-0.066048,1.383557,-0.020768,1.525133,0.017522,1.668331,0.048819,1.812881,0.073123,1.958509,0.090431,2.104946,0.100743,2.251918,0.104056,2.399155,
0.100370,2.546383,0.089683,2.693332,0.071993,2.839730,0.047300,2.985305,0.015601,3.129785,-0.023105,3.272898,-0.068819,3.414372,-0.121543,3.553937,-0.181278,3.691319,-0.248025,3.826248,-0.321787,3.958451,-0.402564,4.087656,-0.490359,4.213593,-0.585171,4.335988,-0.687004,4.454571,-0.795858,4.569069,-0.910387,4.677922,-1.029057,4.779753,-1.151594,4.874562,-1.277720,4.962347,
-1.407161,5.043109,-1.539638,5.116849,-1.674878,5.183566,-1.812602,5.243260,-1.952536,5.295931,-2.094403,5.341580,-2.237927,5.380205,-2.382831,5.411808,-2.528840,5.436388,-2.675677,5.453945,-2.823067,5.464479,-2.970733,5.467991,-3.118399,5.464479,-3.265789,5.453945,-3.412626,5.436388,-3.558635,5.411808,-3.703540,5.380205,-3.847063,5.341580,-3.988930,5.295931,-4.128864,5.243260,
-4.266588,5.183566,-4.401828,5.116849,-4.534306,5.043109,-4.663746,4.962347,-4.789872,4.874562,-4.912409,4.779753,-5.031080,4.677922,-5.145608,4.569069,-5.238362,4.471486,-5.325132,4.370386,-5.405918,4.266003,-5.480719,4.158572,-5.549537,4.048327,-5.612370,3.935503,-5.669219,3.820334,-5.720084,3.703055,-5.764965,3.583899,-5.803862,3.463103,-5.836775,3.340899,-5.863704,3.217523,
-5.884648,3.093210,-5.899608,2.968192,-5.908585,2.842706,-5.911577,2.716986,-5.908585,2.591265,-5.899608,2.465779,-5.884648,2.340762,-5.863704,2.216448,-5.836775,2.093072,-5.803862,1.970868,-5.764965,1.850072,-5.720084,1.730917,-5.669219,1.613637,-5.612370,1.498468,-5.549537,1.385644,-5.480719,1.275399,-5.405918,1.167968,-5.325132,1.063585,-5.238362,0.962485,-5.145608,0.864902,
-5.048025,0.772148,-4.946925,0.685378,-4.842542,0.604593,-4.735111,0.529791,-4.624866,0.460973,-4.512042,0.398140,-4.396873,0.341291,-4.279594,0.290426,-4.160439,0.245545,-4.039642,0.206648,-3.917439,0.173735,-3.794063,0.146807,-3.669749,0.125862,-3.544732,0.110902,-3.419245,0.101926,-3.293525,0.098934,-3.167804,0.101926,-3.042318,0.110902,-2.917301,0.125862,-2.792987,0.146807,
-2.669611,0.173735,-2.547407,0.206648,-2.426611,0.245545,-2.307456,0.290426,-2.190176,0.341291,-2.075007,0.398140,-1.962183,0.460973,-1.851938,0.529791,-1.744507,0.604593,-1.640124,0.685378,-1.539024,0.772148,-1.441441,0.864902,-1.364787,0.945540,-1.293078,1.029069,-1.226315,1.115298,-1.164497,1.204034,-1.107624,1.295084,-1.055697,1.388254,-1.008716,1.483353,-0.966680,1.580187,
-0.929589,1.678563,-0.897444,1.778290,-0.870244,1.879173,-0.847989,1.981020,-0.830680,2.083639,-0.818317,2.186836,-0.810898,2.290418,-0.808426,2.394194,-0.810898,2.497969,-0.818317,2.601552,-0.830680,2.704749,-0.847989,2.807368,-0.870244,2.909215,-0.897444,3.010098,-0.929589,3.109825,-0.966680,3.208201,-1.008716,3.305035,-1.055697,3.400134,-1.107624,3.493304,-1.164497,3.584354,
-1.226315,3.673090,-1.293078,3.759319,-1.364787,3.842848,-1.441441,3.923486,-1.522079,4.000140,-1.605608,4.071849,-1.691837,4.138612,-1.780573,4.200430,-1.871623,4.257302,-1.964793,4.309229,-2.059892,4.356211,-2.156726,4.398247,-2.255103,4.435338,-2.354829,4.467483,-2.455712,4.494683,-2.557560,4.516938,-2.660178,4.534247,-2.763375,4.546610,-2.866958,4.554028,-2.970733,4.556501,
-3.074509,4.554028,-3.178091,4.546610,-3.281288,4.534247,-3.383907,4.516938,-3.485754,4.494683,-3.586637,4.467483,-3.686364,4.435338,-3.784740,4.398247,-3.881574,4.356211,-3.976673,4.309229,-4.069844,4.257302,-4.160893,4.200430,-4.249629,4.138612,-4.335858,4.071849,-4.419387,4.000140,-4.500025,3.923486,-4.560346,3.859786,-4.616791,3.793806,-4.669357,3.725696,-4.718042,3.655611,
-4.762847,3.583701,-4.803768,3.510121,-4.840805,3.435023,-4.873955,3.358559,-4.903219,3.280882,-4.928594,3.202144,-4.950078,3.122498,-4.967671,3.042098,-4.981370,2.961094,-4.991175,2.879640,-4.997084,2.797889,-4.999095,2.715993,-4.997207,2.634105,-4.991419,2.552378,-4.981729,2.470963,-4.968136,2.390013,-4.950637,2.309682,-4.929233,2.230122,-4.903921,2.151485,-4.874700,2.073924,
-4.841568,1.997592,-4.804524,1.922641,-4.763566,1.849223,-4.718694,1.777493,-4.669905,1.707601,-4.617198,1.639701,-4.560572,1.573945,-4.500025,1.510485,-4.436325,1.450171,-4.370345,1.393748,-4.302235,1.341217,-4.232150,1.292576,-4.160241,1.247827,-4.086661,1.206969,-4.011562,1.170002,-3.935098,1.136927,-3.857421,1.107743,-3.778683,1.082450,-3.699038,1.061048,-3.618637,1.043537,
-3.537633,1.029918,-3.456180,1.020190,-3.374429,1.014353,-3.292533,1.012408,-3.210644,1.014353,-3.128917,1.020190,-3.047502,1.029918,-2.966553,1.043537,-2.886221,1.061048,-2.806661,1.082450,-2.728024,1.107743,-2.650463,1.136927,-2.574131,1.170002,-2.499180,1.206969,-2.425763,1.247827,-2.354032,1.292576,-2.284140,1.341217,-2.216240,1.393748,-2.150484,1.450171,-2.087025,1.510485,
-2.042811,1.557007,-2.001449,1.605214,-1.962939,1.654994,-1.927283,1.706236,-1.894478,1.758826,-1.864527,1.812653,-1.837428,1.867604,-1.813181,1.923566,-1.791787,1.980428,-1.773246,2.038076,-1.757557,2.096399,-1.744720,2.155283,-1.734736,2.214617,-1.727605,2.274289,-1.723326,2.334185,-1.721900,2.394194,-1.723326,2.454202,-1.727605,2.514098,-1.734736,2.573770,-1.744720,2.633104,
-1.757557,2.691989,-1.773246,2.750311,-1.791787,2.807960,-1.813181,2.864821,-1.837428,2.920784,-1.864527,2.975734,-1.894478,3.029561,-1.927283,3.082152,-1.962939,3.133393,-2.001449,3.183174,-2.042811,3.231381,-2.087025,3.277902,-2.133546,3.322116,-2.181753,3.363478,-2.231534,3.401987,-2.282775,3.437644,-2.335366,3.470448,-2.389192,3.500400,-2.444143,3.527499,-2.500106,3.551746,
-2.556967,3.573140,-2.614615,3.591681,-2.672938,3.607370,-2.731823,3.620207,-2.791157,3.630191,-2.850828,3.637322,-2.910724,3.641601,-2.970733,3.643027,-3.030742,3.641601,-3.090638,3.637322,-3.150309,3.630191,-3.209643,3.620207,-3.268528,3.607370,-3.326851,3.591681,-3.384499,3.573140,-3.441361,3.551746,-3.497323,3.527499,-3.552274,3.500400,-3.606101,3.470448,-3.658691,3.437644,
-3.709933,3.401987,-3.759713,3.363478,-3.807920,3.322116,-3.854441,3.277902,-3.882556,3.248326,-3.908857,3.217690,-3.933344,3.186063,-3.956017,3.153517,-3.976876,3.120122,-3.995921,3.085949,-4.013153,3.051068,-4.028570,3.015551,-4.042174,2.979468,-4.053964,2.942890,-4.063940,2.905888,-4.072103,2.868532,-4.078451,2.830893,-4.082986,2.793041,-4.085706,2.755049,-4.086613,2.716985,
-4.085706,2.678922,-4.082986,2.640929,-4.078451,2.603078,-4.072103,2.565439,-4.063940,2.528083,-4.053964,2.491080,-4.042174,2.454502,-4.028570,2.418420,-4.013153,2.382902,-3.995921,2.348022,-3.976876,2.313849,-3.956017,2.280454,-3.933344,2.247908,-3.908857,2.216281,-3.882556,2.185644,-3.854441,2.156069,-3.824866,2.127954,-3.794229,2.101653,-3.762603,2.077167,-3.730056,2.054494,
-3.696661,2.033634,-3.662488,2.014589,-3.627607,1.997358,-3.592090,1.981940,-3.556008,1.968336,-3.519429,1.956546,-3.482427,1.946570,-3.445071,1.938408,-3.407432,1.932059,-3.369581,1.927525,-3.331588,1.924804,-3.293525,1.923897,-3.255461,1.924804,-3.217469,1.927525,-3.179617,1.932059,-3.141978,1.938408,-3.104622,1.946570,-3.067620,1.956546,-3.031042,1.968336,-2.994959,1.981940,
-2.959442,1.997358,-2.924561,2.014589,-2.890388,2.033634,-2.856993,2.054494,-2.824447,2.077167,-2.792820,2.101653,-2.762184,2.127954,-2.732608,2.156069,-2.720834,2.168706,-2.709819,2.181794,-2.699564,2.195301,-2.690068,2.209197,-2.681332,2.223452,-2.673356,2.238035,-2.666139,2.252915,-2.659682,2.268062,-2.653985,2.283445,-2.649047,2.299035,-2.644869,2.314800,-2.641451,2.330709,
-2.638792,2.346733,-2.636893,2.362841,-2.635754,2.379002,-2.635374,2.395186,-2.635754,2.411362,-2.636893,2.427500,-2.638792,2.443569,-2.641451,2.459539,-2.644869,2.475379,-2.649048,2.491058,-2.653985,2.506547,-2.659683,2.521814,-2.666139,2.536829,-2.673356,2.551562,-2.681332,2.565982,-2.690068,2.580058,-2.699564,2.593761,-2.709819,2.607059,-2.720834,2.619922,-2.732608,2.632319,
-2.745005,2.644093,-2.757868,2.655108,-2.771164,2.665363,-2.784863,2.674859,-2.798935,2.683595,-2.813347,2.691571,-2.828070,2.698788,-2.843072,2.705245,-2.858321,2.710942,-2.873788,2.715880,-2.889441,2.720058,-2.905249,2.723476,-2.921181,2.726135,-2.937205,2.728034,-2.953292,2.729173,-2.969410,2.729553,-2.985528,2.729173,-3.001615,2.728034,-3.017640,2.726135,-3.033572,2.723476,
-3.049380,2.720058,-3.065032,2.715880,-3.080499,2.710942,-3.095749,2.705245,-3.110750,2.698788,-3.125473,2.691571,-3.139886,2.683595,-3.153957,2.674859,-3.167657,2.665363,-3.180953,2.655108,-3.193815,2.644093,-3.206212,2.632319,-3.378191,2.804298,-3.356697,2.824723,-3.334419,2.843830,-3.311408,2.861620,-3.287716,2.878092,-3.263397,2.893246,-3.238502,2.907082,-3.213084,2.919601,
-3.187195,2.930802,-3.160888,2.940685,-3.134214,2.949250,-3.107226,2.956498,-3.079977,2.962428,-3.052518,2.967040,-3.024903,2.970334,-2.997182,2.972311,-2.969410,2.972970,-2.941637,2.972311,-2.913917,2.970334,-2.886302,2.967040,-2.858843,2.962428,-2.831594,2.956498,-2.804606,2.949250,-2.777932,2.940685,-2.751625,2.930802,-2.725736,2.919601,-2.700318,2.907082,-2.675423,2.893246,
-2.651104,2.878092,-2.627412,2.861620,-2.604401,2.843830,-2.582123,2.824723,-2.560629,2.804298,-2.540204,2.782804,-2.521096,2.760525,-2.503307,2.737514,-2.486835,2.713823,-2.471681,2.689504,-2.457844,2.664609,-2.445326,2.639191,-2.434125,2.613302,-2.424242,2.586994,-2.415676,2.560321,-2.408429,2.533333,-2.402499,2.506084,-2.397887,2.478625,-2.394592,2.451009,-2.392616,2.423289,
-2.391957,2.395517,-2.392616,2.367744,-2.394592,2.340024,-2.397887,2.312408,-2.402499,2.284950,-2.408429,2.257700,-2.415676,2.230713,-2.424242,2.204039,-2.434125,2.177731,-2.445326,2.151842,-2.457844,2.126424,-2.471681,2.101530,-2.486835,2.077210,-2.503307,2.053519,-2.521096,2.030508,-2.540204,2.008229,-2.560629,1.986735,-2.599301,1.950203,-2.639353,1.916013,-2.680693,1.884167,
-2.723229,1.854666,-2.766867,1.827512,-2.811515,1.802706,-2.857080,1.780250,-2.903471,1.760145,-2.950594,1.742392,-2.998357,1.726993,-3.046668,1.713950,-3.095433,1.703264,-3.144561,1.694937,-3.193959,1.688969,-3.243534,1.685362,-3.293194,1.684118,-3.342846,1.685239,-3.392398,1.688724,-3.441757,1.694578,-3.490831,1.702799,-3.539526,1.713391,-3.587752,1.726354,-3.635414,1.741690,
-3.682421,1.759400,-3.728680,1.779487,-3.774098,1.801950,-3.818583,1.826792,-3.862043,1.854015,-3.904384,1.883619,-3.945515,1.915606,-3.985343,1.949978,-4.023775,1.986735,-4.060300,2.025407,-4.094468,2.065460,-4.126280,2.106800,-4.155736,2.149335,-4.182835,2.192973,-4.207577,2.237621,-4.229964,2.283187,-4.249994,2.329577,-4.267667,2.376701,-4.282984,2.424464,-4.295944,2.472774,
-4.306548,2.521540,-4.314796,2.570668,-4.320687,2.620066,-4.324222,2.669641,-4.325400,2.719301,-4.324222,2.768953,-4.320687,2.818504,-4.314796,2.867863,-4.306548,2.916937,-4.295944,2.965633,-4.282984,3.013858,-4.267667,3.061521,-4.249994,3.108527,-4.229964,3.154786,-4.207577,3.200205,-4.182835,3.244690,-4.155736,3.288150,-4.126280,3.330491,-4.094468,3.371622,-4.060300,3.411450,
-4.023775,3.449881,-3.968165,3.502746,-3.910563,3.552201,-3.851104,3.598244,-3.789918,3.640877,-3.727140,3.680100,-3.662902,3.715912,-3.597336,3.748313,-3.530575,3.777303,-3.462752,3.802883,-3.394001,3.825052,-3.324452,3.843811,-3.254241,3.859159,-3.183498,3.871096,-3.112356,3.879622,-3.040950,3.884738,-2.969410,3.886444,-2.897871,3.884738,-2.826464,3.879622,-2.755323,3.871096,
-2.684580,3.859159,-2.614368,3.843811,-2.544820,3.825052,-2.476068,3.802883,-2.408246,3.777303,-2.341485,3.748313,-2.275919,3.715912,-2.211681,3.680100,-2.148902,3.640877,-2.087717,3.598244,-2.028257,3.552201,-1.970656,3.502746,-1.915046,3.449881,-1.862181,3.394271,-1.812727,3.336670,-1.766683,3.277210,-1.724050,3.216025,-1.684827,3.153247,-1.649016,3.089008,-1.616614,3.023442,
-1.587624,2.956682,-1.562044,2.888859,-1.539875,2.820107,-1.521116,2.750559,-1.505768,2.680347,-1.493831,2.609604,-1.485305,2.538463,-1.480189,2.467057,-1.478483,2.395517,-1.480189,2.323978,-1.485305,2.252571,-1.493831,2.181430,-1.505768,2.110687,-1.521116,2.040475,-1.539875,1.970927,-1.562044,1.902175,-1.587624,1.834353,-1.616614,1.767592,-1.649016,1.702026,-1.684827,1.637787,
-1.724050,1.575009,-1.766683,1.513824,-1.812727,1.454364,-1.862181,1.396763,-1.915046,1.341153,-1.987602,1.272188,-2.062773,1.207672,-2.140387,1.147606,-2.220268,1.091989,-2.302241,1.040822,-2.386133,0.994104,-2.471770,0.951835,-2.558976,0.914016,-2.647577,0.880645,-2.737399,0.851725,-2.828267,0.827253,-2.920008,0.807231,-3.012446,0.791659,-3.105407,0.780535,-3.198718,0.773861,
-3.292202,0.771637,-3.385687,0.773861,-3.478997,0.780535,-3.571958,0.791659,-3.664396,0.807231,-3.756137,0.827253,-3.847005,0.851725,-3.936827,0.880645,-4.025429,0.914016,-4.112635,0.951835,-4.198271,0.994104,-4.282163,1.040822,-4.364137,1.091989,-4.444017,1.147606,-4.521631,1.207672,-4.596803,1.272188,-4.669358,1.341153,-4.738323,1.413708,-4.802838,1.488880,-4.862905,1.566493,
-4.918521,1.646374,-4.969689,1.728348,-5.016407,1.812240,-5.058676,1.897876,-5.096495,1.985082,-5.129865,2.073683,-5.158786,2.163505,-5.183257,2.254374,-5.203279,2.346114,-5.218852,2.438552,-5.229975,2.531514,-5.236649,2.624824,-5.238874,2.718309,-5.236649,2.811793,-5.229975,2.905103,-5.218852,2.998065,-5.203279,3.090503,-5.183257,3.182243,-5.158786,3.273112,-5.129865,3.362934,
-5.096495,3.451535,-5.058676,3.538741,-5.016407,3.624377,-4.969689,3.708269,-4.918521,3.790243,-4.862905,3.870124,-4.802838,3.947737,-4.738323,4.022909,-4.669358,4.095465,-4.579857,4.180529,-4.487115,4.260106,-4.391348,4.334194,-4.292771,4.402795,-4.191602,4.465907,-4.088057,4.523532,-3.982350,4.575668,-3.874699,4.622316,-3.765319,4.663477,-3.654427,4.699149,-3.542238,4.729333,
-3.428969,4.754029,-3.314835,4.773237,-3.200054,4.786957,-3.084840,4.795189,-2.969410,4.797933,-2.853981,4.795189,-2.738767,4.786957,-2.623985,4.773237,-2.509852,4.754029,-2.396583,4.729333,-2.284394,4.699149,-2.173502,4.663477,-2.064122,4.622316,-1.956471,4.575668,-1.850764,4.523532,-1.747218,4.465907,-1.646049,4.402795,-1.547473,4.334194,-1.451706,4.260106,-1.358964,4.180529,
-1.269462,4.095465,-1.184398,4.005964,-1.104821,3.913221,-1.030733,3.817454,-0.962132,3.718878,-0.899020,3.617709,-0.841395,3.514163,-0.789259,3.408457,-0.742611,3.300805,-0.701451,3.191426,-0.665778,3.080533,-0.635594,2.968345,-0.610898,2.855075,-0.591690,2.740942,-0.577970,2.626161,-0.569738,2.510947,-0.566994,2.395517,-0.569738,2.280087,-0.577970,2.164873,-0.591690,2.050092,
-0.610898,1.935959,-0.635594,1.822689,-0.665778,1.710501,-0.701451,1.599608,-0.742611,1.490229,-0.789259,1.382577,-0.841395,1.276871,-0.899020,1.173325,-0.962132,1.072156,-1.030733,0.973580,-1.104821,0.877812,-1.184398,0.785070,-1.269462,0.695569,-1.376134,0.594164,-1.486629,0.499302,-1.600691,0.410982,-1.718066,0.329204,-1.838498,0.253968,-1.961734,0.185275,-2.087518,0.123123,
-2.215596,0.067514,-2.345712,0.018448,-2.477612,-0.024077,-2.611041,-0.060059,-2.745745,-0.089499,-2.881467,-0.112397,-3.017954,-0.128753,-3.154951,-0.138566,-3.292202,-0.141837,-3.429454,-0.138566,-3.566450,-0.128753,-3.702937,-0.112397,-3.838660,-0.089499,-3.973363,-0.060059,-4.106792,-0.024077,-4.238692,0.018448,-4.368808,0.067514,-4.496886,0.123123,-4.622670,0.185275,-4.745906,0.253968,
-4.866339,0.329204,-4.983713,0.410982,-5.097775,0.499302,-5.208270,0.594164,-5.314942,0.695569,-5.416346,0.802241,-5.511209,0.912735,-5.599529,1.026797,-5.681307,1.144172,-5.756543,1.264605,-5.825236,1.387840,-5.887387,1.513625,-5.942996,1.641702,-5.992063,1.771818,-6.034588,1.903719,-6.070570,2.037148,-6.100010,2.171851,-6.122908,2.307573,-6.139263,2.444060,-6.149077,2.581057,
-6.152348,2.718308,-6.149077,2.855560,-6.139263,2.992556,-6.122908,3.129043,-6.100010,3.264766,-6.070570,3.399469,-6.034588,3.532898,-5.992063,3.664798,-5.942996,3.794914,-5.887387,3.922992,-5.825236,4.048776,-5.756543,4.172012,-5.681307,4.292445,-5.599529,4.409819,-5.511209,4.523881,-5.416346,4.634376,-5.314942,4.741048,-5.191557,4.858552,-5.063695,4.968476,-4.931655,5.070818,
-4.795733,5.165580,-4.656228,5.252761,-4.513438,5.332360,-4.367661,5.404379,-4.219195,5.468817,-4.068337,5.525674,-3.915386,5.574950,-3.760639,5.616645,-3.604395,5.650760,-3.446951,5.677293,-3.288606,5.696245,-3.129657,5.707617,-2.970403,5.711407,-2.811140,5.707617,-2.811140,5.707617,$1*%
G04 Aperture macros list end*
%ADD10FreePoly0,0.000000*%
%ADD11FreePoly1,0.000000*%
%ADD12R,1.000000X1.000000*%
%ADD13C,1.000000*%
G04 APERTURE END LIST*
D10*
%TO.C,JP6*%
X118554129Y-86670739D03*
D11*
X124554129Y-91870739D03*
%TD*%
D10*
%TO.C,JP21*%
X118554129Y-100668435D03*
D11*
X124554129Y-105868435D03*
%TD*%
D10*
%TO.C,JP36*%
X118554129Y-114666130D03*
D11*
X124554129Y-119866130D03*
%TD*%
D10*
%TO.C,JP51*%
X118443865Y-128663826D03*
D11*
X124443865Y-133863826D03*
%TD*%
D10*
%TO.C,JP5*%
X102414393Y-86670739D03*
D11*
X108414393Y-91870739D03*
%TD*%
D10*
%TO.C,JP20*%
X102414393Y-100668435D03*
D11*
X108414393Y-105868435D03*
%TD*%
%TO.C,JP7*%
X140914393Y-91870739D03*
D10*
X134914393Y-86670739D03*
%TD*%
D11*
%TO.C,JP34*%
X92315682Y-119866130D03*
D10*
X86315682Y-114666130D03*
%TD*%
D11*
%TO.C,JP12*%
X221804129Y-91762731D03*
D10*
X215804129Y-86562731D03*
%TD*%
D11*
%TO.C,JP46*%
X43136189Y-133863826D03*
D10*
X37136189Y-128663826D03*
%TD*%
D11*
%TO.C,JP53*%
X157054129Y-133863826D03*
D10*
X151054129Y-128663826D03*
%TD*%
D11*
%TO.C,JP37*%
X140914393Y-119866130D03*
D10*
X134914393Y-114666130D03*
%TD*%
D11*
%TO.C,JP56*%
X205693865Y-133802304D03*
D10*
X199693865Y-128602304D03*
%TD*%
D11*
%TO.C,JP39*%
X173054129Y-119866130D03*
D10*
X167054129Y-114666130D03*
%TD*%
D11*
%TO.C,JP14*%
X254164393Y-91870739D03*
D10*
X248164393Y-86670739D03*
%TD*%
D11*
%TO.C,JP29*%
X254164393Y-105868435D03*
D10*
X248164393Y-100668435D03*
%TD*%
D11*
%TO.C,JP54*%
X172943865Y-133863826D03*
D10*
X166943865Y-128663826D03*
%TD*%
D11*
%TO.C,JP44*%
X254164393Y-119866130D03*
D10*
X248164393Y-114666130D03*
%TD*%
D11*
%TO.C,JP32*%
X59602863Y-119866130D03*
D10*
X53602863Y-114666130D03*
%TD*%
D11*
%TO.C,JP17*%
X59602863Y-105868435D03*
D10*
X53602863Y-100668435D03*
%TD*%
D11*
%TO.C,JP58*%
X238054129Y-133863826D03*
D10*
X232054129Y-128663826D03*
%TD*%
D11*
%TO.C,JP13*%
X238164393Y-91870739D03*
D10*
X232164393Y-86670739D03*
%TD*%
D11*
%TO.C,JP43*%
X238164393Y-119866130D03*
D10*
X232164393Y-114666130D03*
%TD*%
D11*
%TO.C,JP3*%
X75959273Y-91870739D03*
D10*
X69959273Y-86670739D03*
%TD*%
D11*
%TO.C,JP25*%
X189414393Y-105868435D03*
D10*
X183414393Y-100668435D03*
%TD*%
D11*
%TO.C,JP38*%
X157164393Y-119866130D03*
D10*
X151164393Y-114666130D03*
%TD*%
D11*
%TO.C,JP57*%
X221693865Y-133804609D03*
D10*
X215693865Y-128604609D03*
%TD*%
D11*
%TO.C,JP10*%
X189414393Y-91816244D03*
D10*
X183414393Y-86616244D03*
%TD*%
D11*
%TO.C,JP35*%
X108414393Y-119866130D03*
D10*
X102414393Y-114666130D03*
%TD*%
D11*
%TO.C,JP52*%
X140804129Y-133863826D03*
D10*
X134804129Y-128663826D03*
%TD*%
D11*
%TO.C,JP50*%
X108304129Y-133863826D03*
D10*
X102304129Y-128663826D03*
%TD*%
D11*
%TO.C,JP9*%
X173054129Y-91821948D03*
D10*
X167054129Y-86621948D03*
%TD*%
D11*
%TO.C,JP28*%
X238164393Y-105868435D03*
D10*
X232164393Y-100668435D03*
%TD*%
D11*
%TO.C,JP11*%
X205804129Y-91809217D03*
D10*
X199804129Y-86609217D03*
%TD*%
D11*
%TO.C,JP33*%
X75959273Y-119866130D03*
D10*
X69959273Y-114666130D03*
%TD*%
D11*
%TO.C,JP60*%
X270554129Y-133863826D03*
D10*
X264554129Y-128663826D03*
%TD*%
D11*
%TO.C,JP15*%
X270664393Y-91816244D03*
D10*
X264664393Y-86616244D03*
%TD*%
D11*
%TO.C,JP1*%
X43304129Y-91870739D03*
D10*
X37304129Y-86670739D03*
%TD*%
D11*
%TO.C,JP4*%
X92315682Y-91821948D03*
D10*
X86315682Y-86621948D03*
%TD*%
D11*
%TO.C,JP16*%
X43246453Y-105868435D03*
D10*
X37246453Y-100668435D03*
%TD*%
D11*
%TO.C,JP24*%
X173054129Y-105868435D03*
D10*
X167054129Y-100668435D03*
%TD*%
D11*
%TO.C,JP41*%
X205804129Y-119804608D03*
D10*
X199804129Y-114604608D03*
%TD*%
D11*
%TO.C,JP49*%
X92205418Y-133863826D03*
D10*
X86205418Y-128663826D03*
%TD*%
D11*
%TO.C,JP27*%
X221804129Y-105809218D03*
D10*
X215804129Y-100609218D03*
%TD*%
D11*
%TO.C,JP30*%
X270664393Y-105868435D03*
D10*
X264664393Y-100668435D03*
%TD*%
D11*
%TO.C,JP59*%
X254054129Y-133863826D03*
D10*
X248054129Y-128663826D03*
%TD*%
D11*
%TO.C,JP22*%
X140914393Y-105868435D03*
D10*
X134914393Y-100668435D03*
%TD*%
D11*
%TO.C,JP26*%
X205804129Y-105806913D03*
D10*
X199804129Y-100606913D03*
%TD*%
D11*
%TO.C,JP19*%
X92315682Y-105868435D03*
D10*
X86315682Y-100668435D03*
%TD*%
D11*
%TO.C,JP23*%
X157164393Y-105868435D03*
D10*
X151164393Y-100668435D03*
%TD*%
D11*
%TO.C,JP45*%
X270664393Y-119866130D03*
D10*
X264664393Y-114666130D03*
%TD*%
D11*
%TO.C,JP47*%
X59492599Y-133863826D03*
D10*
X53492599Y-128663826D03*
%TD*%
D11*
%TO.C,JP48*%
X75849009Y-133863826D03*
D10*
X69849009Y-128663826D03*
%TD*%
D11*
%TO.C,JP18*%
X75959273Y-105868435D03*
D10*
X69959273Y-100668435D03*
%TD*%
D11*
%TO.C,JP55*%
X189304129Y-133863826D03*
D10*
X183304129Y-128663826D03*
%TD*%
D11*
%TO.C,JP42*%
X221804129Y-119806913D03*
D10*
X215804129Y-114606913D03*
%TD*%
D11*
%TO.C,JP40*%
X189414393Y-119866130D03*
D10*
X183414393Y-114666130D03*
%TD*%
D11*
%TO.C,JP31*%
X43246453Y-119866130D03*
D10*
X37246453Y-114666130D03*
%TD*%
D11*
%TO.C,JP2*%
X59602863Y-91870739D03*
D10*
X53602863Y-86670739D03*
%TD*%
D11*
%TO.C,JP8*%
X157164393Y-91870739D03*
D10*
X151164393Y-86670739D03*
%TD*%
D12*
%TO.C,J1*%
X64340000Y-65250000D03*
D13*
X65610000Y-65250000D03*
X66880000Y-65250000D03*
X68150000Y-65250000D03*
X69420000Y-65250000D03*
X70690000Y-65250000D03*
X71960000Y-65250000D03*
X73230000Y-65250000D03*
X74500000Y-65250000D03*
X75770000Y-65250000D03*
X77040000Y-65250000D03*
X78310000Y-65250000D03*
X79580000Y-65250000D03*
X80850000Y-65250000D03*
X82120000Y-65250000D03*
X83390000Y-65250000D03*
X84660000Y-65250000D03*
X85930000Y-65250000D03*
X87200000Y-65250000D03*
%TD*%
M02*
