%TF.GenerationSoftware,KiCad,Pcbnew,9.0.1*%
%TF.CreationDate,2025-06-14T18:41:54-05:00*%
%TF.ProjectId,OM-FlexGrid-Flex,4f4d2d46-6c65-4784-9772-69642d466c65,rev?*%
%TF.SameCoordinates,Original*%
%TF.FileFunction,Copper,L2,Bot*%
%TF.FilePolarity,Positive*%
%FSLAX46Y46*%
G04 Gerber Fmt 4.6, Leading zero omitted, Abs format (unit mm)*
G04 Created by KiCad (PCBNEW 9.0.1) date 2025-06-14 18:41:54*
%MOMM*%
%LPD*%
G01*
G04 APERTURE LIST*
%TA.AperFunction,ComponentPad*%
%ADD10R,1.000000X1.000000*%
%TD*%
%TA.AperFunction,ComponentPad*%
%ADD11C,1.000000*%
%TD*%
%TA.AperFunction,ViaPad*%
%ADD12C,0.600000*%
%TD*%
%TA.AperFunction,Conductor*%
%ADD13C,1.000000*%
%TD*%
%TA.AperFunction,Conductor*%
%ADD14C,0.300000*%
%TD*%
G04 APERTURE END LIST*
D10*
%TO.P,J1,1,Pin_1*%
%TO.N,COL_0*%
X64340000Y-65250000D03*
D11*
%TO.P,J1,2,Pin_2*%
%TO.N,COL_1*%
X65610000Y-65250000D03*
%TO.P,J1,3,Pin_3*%
%TO.N,COL_2*%
X66880000Y-65250000D03*
%TO.P,J1,4,Pin_4*%
%TO.N,COL_3*%
X68150000Y-65250000D03*
%TO.P,J1,5,Pin_5*%
%TO.N,COL_4*%
X69420000Y-65250000D03*
%TO.P,J1,6,Pin_6*%
%TO.N,COL_5*%
X70690000Y-65250000D03*
%TO.P,J1,7,Pin_7*%
%TO.N,COL_6*%
X71960000Y-65250000D03*
%TO.P,J1,8,Pin_8*%
%TO.N,COL_7*%
X73230000Y-65250000D03*
%TO.P,J1,9,Pin_9*%
%TO.N,COL_8*%
X74500000Y-65250000D03*
%TO.P,J1,10,Pin_10*%
%TO.N,COL_9*%
X75770000Y-65250000D03*
%TO.P,J1,11,Pin_11*%
%TO.N,COL_10*%
X77040000Y-65250000D03*
%TO.P,J1,12,Pin_12*%
%TO.N,COL_11*%
X78310000Y-65250000D03*
%TO.P,J1,13,Pin_13*%
%TO.N,COL_12*%
X79580000Y-65250000D03*
%TO.P,J1,14,Pin_14*%
%TO.N,COL_13*%
X80850000Y-65250000D03*
%TO.P,J1,15,Pin_15*%
%TO.N,COL_14*%
X82120000Y-65250000D03*
%TO.P,J1,16,Pin_16*%
%TO.N,ROW_0*%
X83390000Y-65250000D03*
%TO.P,J1,17,Pin_17*%
%TO.N,ROW_1*%
X84660000Y-65250000D03*
%TO.P,J1,18,Pin_18*%
%TO.N,ROW_2*%
X85930000Y-65250000D03*
%TO.P,J1,19,Pin_19*%
%TO.N,ROW_3*%
X87200000Y-65250000D03*
%TD*%
D12*
%TO.N,COL_14*%
X264664393Y-114666130D03*
X264664393Y-100668435D03*
%TO.N,ROW_1*%
X75959273Y-105868435D03*
%TO.N,ROW_0*%
X75879261Y-91870739D03*
X92250000Y-91750000D03*
%TO.N,ROW_3*%
X270554129Y-133863826D03*
%TO.N,COL_14*%
X264554129Y-128663826D03*
%TO.N,ROW_2*%
X270664393Y-119866130D03*
%TO.N,ROW_1*%
X270664393Y-105868435D03*
%TO.N,ROW_0*%
X270740318Y-91740318D03*
X254164393Y-91870739D03*
X205804129Y-91809217D03*
X221804129Y-91762731D03*
X238164393Y-91870739D03*
%TO.N,ROW_1*%
X238164393Y-105868435D03*
%TO.N,COL_12*%
X232164393Y-100668435D03*
%TO.N,ROW_1*%
X254164393Y-105868435D03*
%TO.N,COL_13*%
X248164393Y-100668435D03*
%TO.N,ROW_2*%
X254164393Y-119866130D03*
%TO.N,COL_13*%
X248164393Y-114666130D03*
%TO.N,ROW_2*%
X238164393Y-119866130D03*
%TO.N,COL_12*%
X232164393Y-114666130D03*
%TO.N,ROW_3*%
X254054129Y-133863826D03*
%TO.N,COL_13*%
X248054129Y-128663826D03*
%TO.N,ROW_3*%
X238054129Y-133863826D03*
%TO.N,COL_12*%
X232054129Y-128663826D03*
%TO.N,ROW_3*%
X221693865Y-133804609D03*
%TO.N,COL_11*%
X215693865Y-128604609D03*
%TO.N,ROW_2*%
X221804129Y-119806913D03*
%TO.N,COL_11*%
X215804129Y-114606913D03*
%TO.N,ROW_1*%
X221804129Y-105809218D03*
%TO.N,COL_11*%
X215804129Y-100609218D03*
%TO.N,ROW_3*%
X205693865Y-133802304D03*
%TO.N,COL_10*%
X199693865Y-128602304D03*
%TO.N,ROW_2*%
X205804129Y-119804608D03*
%TO.N,COL_10*%
X199804129Y-114604608D03*
%TO.N,ROW_1*%
X205804129Y-105806913D03*
%TO.N,COL_10*%
X199804129Y-100606913D03*
%TO.N,ROW_0*%
X189414393Y-91816244D03*
%TO.N,COL_9*%
X183414393Y-100668435D03*
%TO.N,ROW_1*%
X189414393Y-105868435D03*
%TO.N,COL_9*%
X183414393Y-114666130D03*
%TO.N,ROW_2*%
X189414393Y-119866130D03*
%TO.N,ROW_3*%
X189304129Y-133863826D03*
%TO.N,COL_9*%
X183304129Y-128663826D03*
%TO.N,ROW_3*%
X172943865Y-133863826D03*
%TO.N,COL_8*%
X166943865Y-128663826D03*
%TO.N,ROW_2*%
X173054129Y-119866130D03*
%TO.N,COL_8*%
X167054129Y-114666130D03*
X167054129Y-100668435D03*
%TO.N,ROW_1*%
X173054129Y-105868435D03*
%TO.N,ROW_0*%
X173054129Y-91821948D03*
X157164393Y-91870739D03*
%TO.N,ROW_1*%
X157164393Y-105868435D03*
%TO.N,COL_7*%
X151164393Y-100668435D03*
%TO.N,ROW_2*%
X157164393Y-119866130D03*
%TO.N,COL_7*%
X151164393Y-114666130D03*
%TO.N,ROW_3*%
X157054129Y-133863826D03*
%TO.N,COL_7*%
X151054129Y-128663826D03*
%TO.N,ROW_3*%
X140804129Y-133863826D03*
%TO.N,COL_6*%
X134804129Y-128663826D03*
%TO.N,ROW_2*%
X140914393Y-119866130D03*
%TO.N,COL_6*%
X134914393Y-114666130D03*
X134914393Y-100668435D03*
%TO.N,ROW_1*%
X140914393Y-105868435D03*
%TO.N,ROW_0*%
X140914393Y-91870739D03*
X124554129Y-91870739D03*
%TO.N,ROW_1*%
X124554129Y-105868435D03*
%TO.N,COL_5*%
X118554129Y-100668435D03*
%TO.N,ROW_2*%
X124554129Y-119866130D03*
%TO.N,COL_5*%
X118554129Y-114666130D03*
%TO.N,ROW_3*%
X124443865Y-133863826D03*
%TO.N,COL_5*%
X118443865Y-128663826D03*
%TO.N,ROW_3*%
X108304129Y-133863826D03*
%TO.N,COL_4*%
X102304129Y-128663826D03*
%TO.N,ROW_2*%
X108414393Y-119866130D03*
%TO.N,COL_4*%
X102414393Y-114666130D03*
%TO.N,ROW_0*%
X108414393Y-91870739D03*
%TO.N,ROW_1*%
X108414393Y-105868435D03*
%TO.N,COL_4*%
X102414393Y-100668435D03*
%TO.N,ROW_1*%
X92315682Y-105868435D03*
%TO.N,COL_3*%
X86315682Y-100668435D03*
%TO.N,ROW_2*%
X92315682Y-119866130D03*
%TO.N,COL_3*%
X86315682Y-114666130D03*
%TO.N,ROW_3*%
X92205418Y-133863826D03*
%TO.N,COL_3*%
X86205418Y-128663826D03*
%TO.N,ROW_3*%
X75849009Y-133863826D03*
%TO.N,COL_2*%
X69849009Y-128663826D03*
%TO.N,ROW_2*%
X75959273Y-119866130D03*
%TO.N,COL_2*%
X69959273Y-114666130D03*
X69959273Y-100668435D03*
%TO.N,COL_1*%
X53602863Y-100668435D03*
X53602863Y-114666130D03*
X53492599Y-128663826D03*
%TO.N,ROW_3*%
X59492599Y-133863826D03*
%TO.N,ROW_2*%
X59602863Y-119866130D03*
%TO.N,ROW_1*%
X59602863Y-105868435D03*
%TO.N,ROW_0*%
X59602863Y-91870739D03*
X43304129Y-91870739D03*
%TO.N,ROW_1*%
X43246453Y-105868435D03*
%TO.N,ROW_2*%
X43246453Y-119866130D03*
%TO.N,ROW_3*%
X43136189Y-133863826D03*
%TO.N,COL_0*%
X37136189Y-128663826D03*
X37246453Y-114666130D03*
X37246453Y-100668435D03*
X37304129Y-86670739D03*
%TO.N,COL_1*%
X53602863Y-86670739D03*
%TO.N,COL_2*%
X69959273Y-86670739D03*
%TO.N,COL_3*%
X86315682Y-86621948D03*
%TO.N,COL_4*%
X102414393Y-86670739D03*
%TO.N,COL_5*%
X118554129Y-86670739D03*
%TO.N,COL_6*%
X134914393Y-86670739D03*
%TO.N,COL_7*%
X151164393Y-86670739D03*
%TO.N,COL_8*%
X167054129Y-86621948D03*
%TO.N,COL_9*%
X183414393Y-86616244D03*
%TO.N,COL_10*%
X199804129Y-86609217D03*
%TO.N,COL_11*%
X215804129Y-86562731D03*
%TO.N,COL_12*%
X232164393Y-86670739D03*
%TO.N,COL_13*%
X248164393Y-86670739D03*
%TO.N,COL_14*%
X264664393Y-86616244D03*
%TD*%
D13*
%TO.N,ROW_3*%
X43136189Y-133863826D02*
X270554129Y-133863826D01*
%TO.N,ROW_1*%
X43246453Y-105868435D02*
X270664393Y-105868435D01*
%TO.N,ROW_2*%
X43246453Y-119866130D02*
X270664393Y-119866130D01*
%TO.N,ROW_0*%
X92250000Y-91750000D02*
X270730636Y-91750000D01*
X270730636Y-91750000D02*
X270740318Y-91740318D01*
X76000000Y-91750000D02*
X92250000Y-91750000D01*
X75879261Y-91870739D02*
X76000000Y-91750000D01*
X59602863Y-91870739D02*
X75879261Y-91870739D01*
X43304129Y-91870739D02*
X59602863Y-91870739D01*
D14*
%TO.N,COL_0*%
X44474868Y-79500000D02*
X37304129Y-86670739D01*
X61750000Y-79500000D02*
X44474868Y-79500000D01*
X64340000Y-65250000D02*
X64340000Y-76910000D01*
X64340000Y-76910000D02*
X61750000Y-79500000D01*
%TO.N,COL_1*%
X57250000Y-86500000D02*
X53500000Y-86500000D01*
X65610000Y-78140000D02*
X57250000Y-86500000D01*
X65610000Y-65250000D02*
X65610000Y-78140000D01*
%TO.N,COL_2*%
X66880000Y-83591466D02*
X69959273Y-86670739D01*
X66880000Y-65250000D02*
X66880000Y-83591466D01*
%TO.N,COL_3*%
X86315682Y-85934318D02*
X86315682Y-86621948D01*
X87250000Y-85000000D02*
X86315682Y-85934318D01*
X68150000Y-65900000D02*
X87250000Y-85000000D01*
X68150000Y-65250000D02*
X68150000Y-65900000D01*
%TO.N,COL_4*%
X101750000Y-86006346D02*
X102414393Y-86670739D01*
X87998875Y-84750000D02*
X101750000Y-84750000D01*
X69420000Y-66171125D02*
X87998875Y-84750000D01*
X69420000Y-65250000D02*
X69420000Y-66171125D01*
X101750000Y-84750000D02*
X101750000Y-86006346D01*
%TO.N,COL_5*%
X70690000Y-66732605D02*
X87707395Y-83750000D01*
X115633390Y-83750000D02*
X118554129Y-86670739D01*
X70690000Y-65250000D02*
X70690000Y-66732605D01*
X87707395Y-83750000D02*
X115633390Y-83750000D01*
%TO.N,COL_6*%
X134914393Y-86164393D02*
X134914393Y-86670739D01*
X131758000Y-83008000D02*
X134914393Y-86164393D01*
X71960000Y-67294082D02*
X87419916Y-82754000D01*
X87419916Y-82754000D02*
X88631410Y-82754000D01*
X71960000Y-65250000D02*
X71960000Y-67294082D01*
X88631410Y-82754000D02*
X88885411Y-83008000D01*
X88885411Y-83008000D02*
X131758000Y-83008000D01*
%TO.N,COL_7*%
X89092931Y-82507000D02*
X147000654Y-82507000D01*
X88838930Y-82253000D02*
X89092931Y-82507000D01*
X147000654Y-82507000D02*
X151164393Y-86670739D01*
X87627437Y-82253000D02*
X88838930Y-82253000D01*
X73230000Y-67855562D02*
X87627437Y-82253000D01*
X73230000Y-65250000D02*
X73230000Y-67855562D01*
%TO.N,COL_8*%
X89300451Y-82006000D02*
X162438181Y-82006000D01*
X162438181Y-82006000D02*
X167054129Y-86621948D01*
X87834958Y-81752000D02*
X89046450Y-81752000D01*
X74500000Y-65250000D02*
X74500000Y-68417042D01*
X74500000Y-68417042D02*
X87834958Y-81752000D01*
X89046450Y-81752000D02*
X89300451Y-82006000D01*
%TO.N,COL_14*%
X264664393Y-82664393D02*
X264664393Y-86616244D01*
X261000000Y-79000000D02*
X264664393Y-82664393D01*
X90291577Y-78746000D02*
X90545577Y-79000000D01*
X89080080Y-78746000D02*
X90291577Y-78746000D01*
X90545577Y-79000000D02*
X261000000Y-79000000D01*
X82120000Y-71785920D02*
X89080080Y-78746000D01*
X82120000Y-65250000D02*
X82120000Y-71785920D01*
%TO.N,COL_13*%
X90084056Y-79247000D02*
X90338055Y-79501000D01*
X90338055Y-79501000D02*
X244251000Y-79501000D01*
X248164393Y-83414393D02*
X248164393Y-86670739D01*
X88872560Y-79247000D02*
X90084056Y-79247000D01*
X80850000Y-71224440D02*
X88872560Y-79247000D01*
X244251000Y-79501000D02*
X248164393Y-83414393D01*
X80850000Y-65250000D02*
X80850000Y-71224440D01*
%TO.N,COL_12*%
X232164393Y-82414393D02*
X232164393Y-86670739D01*
X90130533Y-80002000D02*
X232000000Y-80002000D01*
X232000000Y-82250000D02*
X232164393Y-82414393D01*
X89876534Y-79748000D02*
X90130533Y-80002000D01*
X88665040Y-79748000D02*
X89876534Y-79748000D01*
X79580000Y-70662960D02*
X88665040Y-79748000D01*
X232000000Y-80002000D02*
X232000000Y-82250000D01*
X79580000Y-65250000D02*
X79580000Y-70662960D01*
%TO.N,COL_11*%
X89923011Y-80503000D02*
X209744398Y-80503000D01*
X88457520Y-80249000D02*
X89669012Y-80249000D01*
X78310000Y-70101480D02*
X88457520Y-80249000D01*
X78310000Y-65250000D02*
X78310000Y-70101480D01*
X89669012Y-80249000D02*
X89923011Y-80503000D01*
X209744398Y-80503000D02*
X215804129Y-86562731D01*
%TO.N,COL_9*%
X89507971Y-81505000D02*
X178303149Y-81505000D01*
X89253971Y-81251000D02*
X89507971Y-81505000D01*
X88042479Y-81251000D02*
X89253971Y-81251000D01*
X178303149Y-81505000D02*
X183414393Y-86616244D01*
X75770000Y-68978520D02*
X88042479Y-81251000D01*
X75770000Y-65250000D02*
X75770000Y-68978520D01*
%TO.N,COL_10*%
X194544783Y-81004000D02*
X200000000Y-86459217D01*
X89461491Y-80750000D02*
X89715491Y-81004000D01*
X88250000Y-80750000D02*
X89461491Y-80750000D01*
X77040000Y-69540000D02*
X88250000Y-80750000D01*
X89715491Y-81004000D02*
X194544783Y-81004000D01*
X77040000Y-65250000D02*
X77040000Y-69540000D01*
%TD*%
M02*
