M48
; DRILL file {KiCad 9.0.1} date 2025-06-14T18:41:49-0500
; FORMAT={-:-/ absolute / metric / decimal}
; #@! TF.CreationDate,2025-06-14T18:41:49-05:00
; #@! TF.GenerationSoftware,Kicad,Pcbnew,9.0.1
; #@! TF.FileFunction,Plated,1,2,PTH
FMAT,2
METRIC
; #@! TA.AperFunction,Plated,PTH,ViaDrill
T1C0.300
; #@! TA.AperFunction,Plated,PTH,ComponentDrill
T2C0.650
%
G90
G05
T1
X37.136Y-128.664
X37.246Y-100.668
X37.246Y-114.666
X37.304Y-86.671
X43.136Y-133.864
X43.246Y-105.868
X43.246Y-119.866
X43.304Y-91.871
X53.493Y-128.664
X53.603Y-86.671
X53.603Y-100.668
X53.603Y-114.666
X59.493Y-133.864
X59.603Y-91.871
X59.603Y-105.868
X59.603Y-119.866
X69.849Y-128.664
X69.959Y-86.671
X69.959Y-100.668
X69.959Y-114.666
X75.849Y-133.864
X75.879Y-91.871
X75.959Y-105.868
X75.959Y-119.866
X86.205Y-128.664
X86.316Y-86.622
X86.316Y-100.668
X86.316Y-114.666
X92.205Y-133.864
X92.25Y-91.75
X92.316Y-105.868
X92.316Y-119.866
X102.304Y-128.664
X102.414Y-86.671
X102.414Y-100.668
X102.414Y-114.666
X108.304Y-133.864
X108.414Y-91.871
X108.414Y-105.868
X108.414Y-119.866
X118.444Y-128.664
X118.554Y-86.671
X118.554Y-100.668
X118.554Y-114.666
X124.444Y-133.864
X124.554Y-91.871
X124.554Y-105.868
X124.554Y-119.866
X134.804Y-128.664
X134.914Y-86.671
X134.914Y-100.668
X134.914Y-114.666
X140.804Y-133.864
X140.914Y-91.871
X140.914Y-105.868
X140.914Y-119.866
X151.054Y-128.664
X151.164Y-86.671
X151.164Y-100.668
X151.164Y-114.666
X157.054Y-133.864
X157.164Y-91.871
X157.164Y-105.868
X157.164Y-119.866
X166.944Y-128.664
X167.054Y-86.622
X167.054Y-100.668
X167.054Y-114.666
X172.944Y-133.864
X173.054Y-91.822
X173.054Y-105.868
X173.054Y-119.866
X183.304Y-128.664
X183.414Y-86.616
X183.414Y-100.668
X183.414Y-114.666
X189.304Y-133.864
X189.414Y-91.816
X189.414Y-105.868
X189.414Y-119.866
X199.694Y-128.602
X199.804Y-86.609
X199.804Y-100.607
X199.804Y-114.605
X205.694Y-133.802
X205.804Y-91.809
X205.804Y-105.807
X205.804Y-119.805
X215.694Y-128.605
X215.804Y-86.563
X215.804Y-100.609
X215.804Y-114.607
X221.694Y-133.805
X221.804Y-91.763
X221.804Y-105.809
X221.804Y-119.807
X232.054Y-128.664
X232.164Y-86.671
X232.164Y-100.668
X232.164Y-114.666
X238.054Y-133.864
X238.164Y-91.871
X238.164Y-105.868
X238.164Y-119.866
X248.054Y-128.664
X248.164Y-86.671
X248.164Y-100.668
X248.164Y-114.666
X254.054Y-133.864
X254.164Y-91.871
X254.164Y-105.868
X254.164Y-119.866
X264.554Y-128.664
X264.664Y-86.616
X264.664Y-100.668
X264.664Y-114.666
X270.554Y-133.864
X270.664Y-105.868
X270.664Y-119.866
X270.74Y-91.74
T2
X64.34Y-65.25
X65.61Y-65.25
X66.88Y-65.25
X68.15Y-65.25
X69.42Y-65.25
X70.69Y-65.25
X71.96Y-65.25
X73.23Y-65.25
X74.5Y-65.25
X75.77Y-65.25
X77.04Y-65.25
X78.31Y-65.25
X79.58Y-65.25
X80.85Y-65.25
X82.12Y-65.25
X83.39Y-65.25
X84.66Y-65.25
X85.93Y-65.25
X87.2Y-65.25
M30
