M48
; DRILL file {KiCad 9.0.1} date 2025-05-18T13:27:03-0500
; FORMAT={-:-/ absolute / metric / decimal}
; #@! TF.CreationDate,2025-05-18T13:27:03-05:00
; #@! TF.GenerationSoftware,Kicad,Pcbnew,9.0.1
; #@! TF.FileFunction,Plated,1,2,PTH
FMAT,2
METRIC
; #@! TA.AperFunction,Plated,PTH,ViaDrill
T1C0.300
; #@! TA.AperFunction,Plated,PTH,ComponentDrill
T2C1.000
%
G90
G05
T1
X35.432Y-80.657
X35.542Y-52.662
X35.542Y-66.659
X35.6Y-38.6
X41.432Y-85.857
X41.542Y-57.862
X41.542Y-71.859
X41.6Y-43.8
X51.788Y-80.657
X51.899Y-38.664
X51.899Y-52.662
X51.899Y-66.659
X57.788Y-85.857
X57.899Y-43.864
X57.899Y-57.862
X57.899Y-71.859
X68.145Y-80.657
X68.255Y-38.664
X68.255Y-52.662
X68.255Y-66.659
X74.145Y-85.857
X74.255Y-43.864
X74.255Y-57.862
X74.255Y-71.859
X84.501Y-80.657
X84.612Y-38.664
X84.612Y-52.662
X84.612Y-66.659
X90.501Y-85.857
X90.612Y-43.864
X90.612Y-57.862
X90.612Y-71.859
X100.858Y-80.657
X100.968Y-38.664
X100.968Y-52.662
X100.968Y-66.659
X106.858Y-85.857
X106.968Y-43.864
X106.968Y-57.862
X106.968Y-71.859
X117.214Y-80.657
X117.324Y-38.664
X117.324Y-52.662
X117.324Y-66.659
X123.214Y-85.857
X123.324Y-43.864
X123.324Y-57.862
X123.324Y-71.859
X133.571Y-80.657
X133.681Y-38.664
X133.681Y-52.662
X133.681Y-66.659
X139.571Y-85.857
X139.681Y-43.864
X139.681Y-57.862
X139.681Y-71.859
X149.927Y-80.657
X150.037Y-38.664
X150.037Y-52.662
X150.037Y-66.659
X155.927Y-85.857
X156.037Y-43.864
X156.037Y-57.862
X156.037Y-71.859
X166.283Y-80.657
X166.394Y-38.664
X166.394Y-52.662
X166.394Y-66.659
X172.283Y-85.857
X172.394Y-43.864
X172.394Y-57.862
X172.394Y-71.859
X182.64Y-80.657
X182.75Y-38.664
X182.75Y-52.662
X182.75Y-66.659
X188.64Y-85.857
X188.75Y-43.864
X188.75Y-57.862
X188.75Y-71.859
X198.996Y-80.657
X199.106Y-38.664
X199.106Y-52.662
X199.106Y-66.659
X204.996Y-85.857
X205.106Y-43.864
X205.106Y-57.862
X205.106Y-71.859
X215.353Y-80.657
X215.463Y-38.664
X215.463Y-52.662
X215.463Y-66.659
X221.353Y-85.857
X221.463Y-43.864
X221.463Y-57.862
X221.463Y-71.859
X231.709Y-80.657
X231.819Y-38.664
X231.819Y-52.662
X231.819Y-66.659
X237.709Y-85.857
X237.819Y-43.864
X237.819Y-57.862
X237.819Y-71.859
X248.065Y-80.657
X248.176Y-38.664
X248.176Y-52.662
X248.176Y-66.659
X254.065Y-85.857
X254.176Y-43.864
X254.176Y-57.862
X254.176Y-71.859
X264.422Y-80.657
X264.532Y-38.664
X264.532Y-52.662
X264.532Y-66.659
X270.422Y-85.857
X270.532Y-43.864
X270.532Y-57.862
X270.532Y-71.859
T2
X22.6Y-36.9
X22.6Y-39.44
X22.6Y-41.98
X22.6Y-44.52
X22.6Y-47.06
X22.6Y-49.6
X22.6Y-52.14
X22.6Y-54.68
X22.6Y-57.22
X22.6Y-59.76
X22.6Y-62.3
X22.6Y-64.84
X22.6Y-67.38
X22.6Y-69.92
X22.6Y-72.46
X22.6Y-75.0
X22.6Y-77.54
X22.6Y-80.08
X22.6Y-82.62
X22.6Y-85.16
X22.6Y-87.7
X26.2Y-36.92
X26.2Y-39.46
X26.2Y-42.0
X26.2Y-44.54
X26.2Y-47.08
X26.2Y-49.62
X26.2Y-52.16
X26.2Y-54.7
X26.2Y-57.24
X26.2Y-59.78
X26.2Y-62.32
X26.2Y-64.86
X26.2Y-67.4
X26.2Y-69.94
X26.2Y-72.48
X26.2Y-75.02
X26.2Y-77.56
X26.2Y-80.1
X26.2Y-82.64
X26.2Y-85.18
X26.2Y-87.72
M30
