%TF.GenerationSoftware,KiCad,Pcbnew,9.0.1*%
%TF.CreationDate,2025-05-18T13:27:05-05:00*%
%TF.ProjectId,OM-60-Flex,4f4d2d36-302d-4466-9c65-782e6b696361,rev?*%
%TF.SameCoordinates,Original*%
%TF.FileFunction,Copper,L2,Bot*%
%TF.FilePolarity,Positive*%
%FSLAX46Y46*%
G04 Gerber Fmt 4.6, Leading zero omitted, Abs format (unit mm)*
G04 Created by KiCad (PCBNEW 9.0.1) date 2025-05-18 13:27:05*
%MOMM*%
%LPD*%
G01*
G04 APERTURE LIST*
%TA.AperFunction,ComponentPad*%
%ADD10R,1.700000X1.700000*%
%TD*%
%TA.AperFunction,ComponentPad*%
%ADD11C,1.700000*%
%TD*%
%TA.AperFunction,ViaPad*%
%ADD12C,0.600000*%
%TD*%
%TA.AperFunction,Conductor*%
%ADD13C,0.200000*%
%TD*%
G04 APERTURE END LIST*
D10*
%TO.P,J3,1,Pin_1*%
%TO.N,GND*%
X22600000Y-36900000D03*
D11*
%TO.P,J3,2,Pin_2*%
%TO.N,+3.3V*%
X22600000Y-39440000D03*
%TO.P,J3,3,Pin_3*%
%TO.N,COL_0*%
X22600000Y-41980000D03*
%TO.P,J3,4,Pin_4*%
%TO.N,COL_1*%
X22600000Y-44520000D03*
%TO.P,J3,5,Pin_5*%
%TO.N,COL_2*%
X22600000Y-47060000D03*
%TO.P,J3,6,Pin_6*%
%TO.N,COL_3*%
X22600000Y-49600000D03*
%TO.P,J3,7,Pin_7*%
%TO.N,COL_4*%
X22600000Y-52140000D03*
%TO.P,J3,8,Pin_8*%
%TO.N,COL_5*%
X22600000Y-54680000D03*
%TO.P,J3,9,Pin_9*%
%TO.N,COL_6*%
X22600000Y-57220000D03*
%TO.P,J3,10,Pin_10*%
%TO.N,COL_7*%
X22600000Y-59760000D03*
%TO.P,J3,11,Pin_11*%
%TO.N,COL_8*%
X22600000Y-62300000D03*
%TO.P,J3,12,Pin_12*%
%TO.N,COL_9*%
X22600000Y-64840000D03*
%TO.P,J3,13,Pin_13*%
%TO.N,COL_10*%
X22600000Y-67380000D03*
%TO.P,J3,14,Pin_14*%
%TO.N,COL_11*%
X22600000Y-69920000D03*
%TO.P,J3,15,Pin_15*%
%TO.N,COL_12*%
X22600000Y-72460000D03*
%TO.P,J3,16,Pin_16*%
%TO.N,COL_13*%
X22600000Y-75000000D03*
%TO.P,J3,17,Pin_17*%
%TO.N,COL_14*%
X22600000Y-77540000D03*
%TO.P,J3,18,Pin_18*%
%TO.N,ROW_0*%
X22600000Y-80080000D03*
%TO.P,J3,19,Pin_19*%
%TO.N,ROW_1*%
X22600000Y-82620000D03*
%TO.P,J3,20,Pin_20*%
%TO.N,ROW_2*%
X22600000Y-85160000D03*
%TO.P,J3,21,Pin_21*%
%TO.N,ROW_3*%
X22600000Y-87700000D03*
%TD*%
D10*
%TO.P,J2,1,Pin_1*%
%TO.N,GND*%
X26200000Y-36920000D03*
D11*
%TO.P,J2,2,Pin_2*%
%TO.N,+3.3V*%
X26200000Y-39460000D03*
%TO.P,J2,3,Pin_3*%
%TO.N,COL_0*%
X26200000Y-42000000D03*
%TO.P,J2,4,Pin_4*%
%TO.N,COL_1*%
X26200000Y-44540000D03*
%TO.P,J2,5,Pin_5*%
%TO.N,COL_2*%
X26200000Y-47080000D03*
%TO.P,J2,6,Pin_6*%
%TO.N,COL_3*%
X26200000Y-49620000D03*
%TO.P,J2,7,Pin_7*%
%TO.N,COL_4*%
X26200000Y-52160000D03*
%TO.P,J2,8,Pin_8*%
%TO.N,COL_5*%
X26200000Y-54700000D03*
%TO.P,J2,9,Pin_9*%
%TO.N,COL_6*%
X26200000Y-57240000D03*
%TO.P,J2,10,Pin_10*%
%TO.N,COL_7*%
X26200000Y-59780000D03*
%TO.P,J2,11,Pin_11*%
%TO.N,COL_8*%
X26200000Y-62320000D03*
%TO.P,J2,12,Pin_12*%
%TO.N,COL_9*%
X26200000Y-64860000D03*
%TO.P,J2,13,Pin_13*%
%TO.N,COL_10*%
X26200000Y-67400000D03*
%TO.P,J2,14,Pin_14*%
%TO.N,COL_11*%
X26200000Y-69940000D03*
%TO.P,J2,15,Pin_15*%
%TO.N,COL_12*%
X26200000Y-72480000D03*
%TO.P,J2,16,Pin_16*%
%TO.N,COL_13*%
X26200000Y-75020000D03*
%TO.P,J2,17,Pin_17*%
%TO.N,COL_14*%
X26200000Y-77560000D03*
%TO.P,J2,18,Pin_18*%
%TO.N,ROW_0*%
X26200000Y-80100000D03*
%TO.P,J2,19,Pin_19*%
%TO.N,ROW_1*%
X26200000Y-82640000D03*
%TO.P,J2,20,Pin_20*%
%TO.N,ROW_2*%
X26200000Y-85180000D03*
%TO.P,J2,21,Pin_21*%
%TO.N,ROW_3*%
X26200000Y-87720000D03*
%TD*%
D12*
%TO.N,COL_10*%
X199106421Y-66659217D03*
%TO.N,COL_11*%
X215462831Y-38663826D03*
%TO.N,COL_10*%
X199106421Y-38663826D03*
X199106421Y-52661522D03*
%TO.N,COL_9*%
X182750012Y-52661522D03*
%TO.N,COL_7*%
X150037192Y-52661522D03*
%TO.N,COL_8*%
X166393602Y-52661522D03*
%TO.N,COL_9*%
X182750012Y-38663826D03*
%TO.N,COL_8*%
X166393602Y-38663826D03*
%TO.N,COL_5*%
X117214109Y-80656913D03*
%TO.N,COL_3*%
X84611553Y-38663826D03*
%TO.N,ROW_1*%
X106967963Y-57861522D03*
%TO.N,COL_4*%
X100857699Y-80656913D03*
%TO.N,COL_3*%
X84501289Y-80656913D03*
X84611553Y-52661522D03*
X84611553Y-66659217D03*
%TO.N,COL_4*%
X100967963Y-66659217D03*
%TO.N,COL_5*%
X117324373Y-66659217D03*
%TO.N,COL_4*%
X100967963Y-52661522D03*
X100967963Y-38663826D03*
%TO.N,COL_5*%
X117324373Y-52661522D03*
X117324373Y-38663826D03*
%TO.N,COL_7*%
X150037192Y-38663826D03*
%TO.N,COL_6*%
X133680782Y-38663826D03*
X133680782Y-52661522D03*
X133680782Y-66659217D03*
X133570518Y-80656913D03*
%TO.N,COL_7*%
X150037192Y-66659217D03*
X149926928Y-80656913D03*
%TO.N,COL_8*%
X166283338Y-80656913D03*
X166393602Y-66659217D03*
%TO.N,COL_9*%
X182750012Y-66659217D03*
X182639748Y-80656913D03*
%TO.N,COL_10*%
X198996157Y-80656913D03*
%TO.N,COL_14*%
X264421796Y-80656913D03*
%TO.N,COL_13*%
X248065386Y-80656913D03*
%TO.N,COL_12*%
X231708977Y-80656913D03*
%TO.N,COL_11*%
X215352567Y-80656913D03*
X215462831Y-52661522D03*
X215462831Y-66659217D03*
%TO.N,COL_12*%
X231819241Y-66659217D03*
%TO.N,COL_13*%
X248175650Y-66659217D03*
%TO.N,COL_14*%
X264532060Y-66659217D03*
X264532060Y-52661522D03*
%TO.N,COL_13*%
X248175650Y-52661522D03*
%TO.N,COL_12*%
X231819241Y-52661522D03*
X231819241Y-38663826D03*
%TO.N,COL_13*%
X248175650Y-38663826D03*
%TO.N,COL_14*%
X264532060Y-38663826D03*
%TO.N,COL_2*%
X68255144Y-38663826D03*
X68255144Y-52661522D03*
X68255144Y-66659217D03*
X68144880Y-80656913D03*
%TO.N,COL_1*%
X51788470Y-80656913D03*
%TO.N,COL_0*%
X35432060Y-80656913D03*
%TO.N,COL_1*%
X51898734Y-38663826D03*
X51898734Y-52661522D03*
X51898734Y-66659217D03*
%TO.N,COL_0*%
X35542324Y-66659217D03*
X35542324Y-52661522D03*
X35600000Y-38600000D03*
%TO.N,ROW_0*%
X254175650Y-43863826D03*
X270532060Y-43863826D03*
%TO.N,ROW_1*%
X254175650Y-57861522D03*
X270532060Y-57861522D03*
%TO.N,ROW_2*%
X254175650Y-71859217D03*
X270532060Y-71859217D03*
%TO.N,ROW_3*%
X270421796Y-85856913D03*
X254065386Y-85856913D03*
X237708977Y-85856913D03*
X221352567Y-85856913D03*
%TO.N,ROW_2*%
X237819241Y-71859217D03*
X221462831Y-71859217D03*
%TO.N,ROW_1*%
X221462831Y-57861522D03*
X237819241Y-57861522D03*
%TO.N,ROW_0*%
X237819241Y-43863826D03*
X221462831Y-43863826D03*
X205106421Y-43863826D03*
%TO.N,ROW_1*%
X205106421Y-57861522D03*
%TO.N,ROW_2*%
X205106421Y-71859217D03*
%TO.N,ROW_3*%
X204996157Y-85856913D03*
X188639748Y-85856913D03*
X172283338Y-85856913D03*
%TO.N,ROW_2*%
X188750012Y-71859217D03*
X172393602Y-71859217D03*
%TO.N,ROW_1*%
X188750012Y-57861522D03*
%TO.N,ROW_0*%
X188750012Y-43863826D03*
%TO.N,ROW_1*%
X172393602Y-57861522D03*
%TO.N,ROW_0*%
X172393602Y-43863826D03*
X156037192Y-43863826D03*
%TO.N,ROW_1*%
X156037192Y-57861522D03*
%TO.N,ROW_2*%
X156037192Y-71859217D03*
%TO.N,ROW_3*%
X155926928Y-85856913D03*
X139570518Y-85856913D03*
%TO.N,ROW_2*%
X139680782Y-71859217D03*
%TO.N,ROW_1*%
X139680782Y-57861522D03*
%TO.N,ROW_0*%
X139680782Y-43863826D03*
X123324373Y-43863826D03*
%TO.N,ROW_1*%
X123324373Y-57861522D03*
%TO.N,ROW_2*%
X123324373Y-71859217D03*
%TO.N,ROW_3*%
X123214109Y-85856913D03*
X106857699Y-85856913D03*
%TO.N,ROW_2*%
X106967963Y-71859217D03*
%TO.N,ROW_0*%
X106967963Y-43863826D03*
X90611553Y-43863826D03*
%TO.N,ROW_1*%
X90611553Y-57861522D03*
%TO.N,ROW_2*%
X90611553Y-71859217D03*
%TO.N,ROW_3*%
X90501289Y-85856913D03*
X74144880Y-85856913D03*
%TO.N,ROW_2*%
X74255144Y-71859217D03*
%TO.N,ROW_1*%
X74255144Y-57861522D03*
%TO.N,ROW_0*%
X74255144Y-43863826D03*
X57898734Y-43863826D03*
%TO.N,ROW_1*%
X57898734Y-57861522D03*
%TO.N,ROW_2*%
X57898734Y-71859217D03*
%TO.N,ROW_3*%
X57788470Y-85856913D03*
X41432060Y-85856913D03*
%TO.N,ROW_2*%
X41542324Y-71859217D03*
%TO.N,ROW_1*%
X41542324Y-57861522D03*
%TO.N,ROW_0*%
X41600000Y-43800000D03*
%TD*%
D13*
%TO.N,COL_5*%
X117214109Y-38774090D02*
X117324373Y-38663826D01*
X117214109Y-80656913D02*
X117214109Y-38774090D01*
%TO.N,COL_6*%
X133570518Y-38774090D02*
X133680782Y-38663826D01*
X133570518Y-80656913D02*
X133570518Y-38774090D01*
%TO.N,COL_7*%
X149926928Y-38774090D02*
X150037192Y-38663826D01*
X149926928Y-80656913D02*
X149926928Y-38774090D01*
%TO.N,COL_8*%
X166283338Y-38774090D02*
X166393602Y-38663826D01*
X166283338Y-80656913D02*
X166283338Y-38774090D01*
%TO.N,COL_9*%
X182639748Y-80656913D02*
X182639748Y-38774090D01*
X182639748Y-38774090D02*
X182750012Y-38663826D01*
%TO.N,COL_10*%
X198996157Y-38774090D02*
X199106421Y-38663826D01*
X198996157Y-80656913D02*
X198996157Y-38774090D01*
%TO.N,COL_11*%
X215352567Y-38774090D02*
X215462831Y-38663826D01*
X215352567Y-80656913D02*
X215352567Y-38774090D01*
%TO.N,COL_12*%
X231708977Y-38774090D02*
X231819241Y-38663826D01*
X231708977Y-80656913D02*
X231708977Y-38774090D01*
%TO.N,COL_13*%
X248065386Y-38774090D02*
X248175650Y-38663826D01*
X248065386Y-80656913D02*
X248065386Y-38774090D01*
%TO.N,COL_14*%
X264421796Y-38774090D02*
X264532060Y-38663826D01*
X264421796Y-80656913D02*
X264421796Y-38774090D01*
%TO.N,COL_4*%
X100967963Y-80546649D02*
X100857699Y-80656913D01*
X100967963Y-38663826D02*
X100967963Y-80546649D01*
%TO.N,COL_3*%
X84611553Y-38663826D02*
X84611553Y-80546649D01*
X84611553Y-80546649D02*
X84501289Y-80656913D01*
%TO.N,ROW_3*%
X28063087Y-85856913D02*
X41432060Y-85856913D01*
X26200000Y-87720000D02*
X28063087Y-85856913D01*
%TO.N,ROW_2*%
X40700000Y-71016893D02*
X41542324Y-71859217D01*
X40700000Y-50600000D02*
X40700000Y-71016893D01*
X40598000Y-50498000D02*
X40700000Y-50600000D01*
X40598000Y-38832200D02*
X40598000Y-50498000D01*
X38667800Y-36902000D02*
X40598000Y-38832200D01*
X30402000Y-77032200D02*
X30402000Y-36902000D01*
X30101000Y-79306100D02*
X30101000Y-77333200D01*
X30100000Y-79307100D02*
X30101000Y-79306100D01*
X30100000Y-81280000D02*
X30100000Y-79307100D01*
X30101000Y-77333200D02*
X30402000Y-77032200D01*
X26200000Y-85180000D02*
X30100000Y-81280000D01*
X30402000Y-36902000D02*
X38667800Y-36902000D01*
%TO.N,ROW_1*%
X41400000Y-57719198D02*
X41542324Y-57861522D01*
X41400000Y-44401000D02*
X41400000Y-57719198D01*
X41351057Y-44401000D02*
X41400000Y-44401000D01*
X40999000Y-44048943D02*
X41351057Y-44401000D01*
X38833900Y-36501000D02*
X41199000Y-38866100D01*
X30001000Y-76866100D02*
X30001000Y-36501000D01*
X30001000Y-36501000D02*
X38833900Y-36501000D01*
X29700000Y-79140000D02*
X29700000Y-77167100D01*
X29700000Y-77167100D02*
X30001000Y-76866100D01*
X41199000Y-43351057D02*
X40999000Y-43551057D01*
X26200000Y-82640000D02*
X29700000Y-79140000D01*
X41199000Y-38866100D02*
X41199000Y-43351057D01*
X40999000Y-43551057D02*
X40999000Y-44048943D01*
%TO.N,ROW_0*%
X39000000Y-36100000D02*
X41600000Y-38700000D01*
X41600000Y-38700000D02*
X41600000Y-43800000D01*
X29600000Y-36100000D02*
X39000000Y-36100000D01*
X29600000Y-76700000D02*
X29600000Y-36100000D01*
X26200000Y-80100000D02*
X29600000Y-76700000D01*
%TO.N,COL_0*%
X35432060Y-80656913D02*
X35432060Y-66769481D01*
X35432060Y-66769481D02*
X35542324Y-66659217D01*
%TO.N,COL_2*%
X68255144Y-80546649D02*
X68144880Y-80656913D01*
X68255144Y-38663826D02*
X68255144Y-80546649D01*
%TO.N,COL_1*%
X51898734Y-80546649D02*
X51788470Y-80656913D01*
X51898734Y-38663826D02*
X51898734Y-80546649D01*
%TO.N,COL_0*%
X35600000Y-66601541D02*
X35542324Y-66659217D01*
X35600000Y-38600000D02*
X35600000Y-66601541D01*
%TD*%
M02*
