M48
; DRILL file {KiCad 9.0.1} date 2025-06-21T12:16:10-0500
; FORMAT={-:-/ absolute / metric / decimal}
; #@! TF.CreationDate,2025-06-21T12:16:10-05:00
; #@! TF.GenerationSoftware,Kicad,Pcbnew,9.0.1
; #@! TF.FileFunction,Plated,1,2,PTH
FMAT,2
METRIC
; #@! TA.AperFunction,Plated,PTH,ViaDrill
T1C0.300
; #@! TA.AperFunction,Plated,PTH,ComponentDrill
T2C0.650
%
G90
G05
T1
X37.114Y-128.819
X37.19Y-100.693
X37.19Y-114.691
X37.3Y-86.695
X43.19Y-105.893
X43.19Y-119.891
X43.19Y-133.943
X43.3Y-91.895
X53.69Y-100.693
X53.69Y-114.691
X53.69Y-128.688
X53.8Y-86.695
X59.69Y-105.893
X59.69Y-119.891
X59.69Y-133.888
X59.8Y-91.895
X69.69Y-100.693
X69.69Y-114.691
X69.69Y-128.688
X69.8Y-86.695
X75.69Y-105.893
X75.69Y-119.891
X75.69Y-133.888
X75.8Y-91.895
X86.05Y-100.752
X86.05Y-114.75
X86.05Y-128.796
X86.16Y-86.755
X92.05Y-105.952
X92.05Y-119.95
X92.05Y-133.996
X92.16Y-91.955
X102.05Y-100.755
X102.05Y-114.752
X102.05Y-128.75
X102.16Y-86.757
X108.05Y-105.955
X108.05Y-119.952
X108.05Y-133.95
X108.16Y-91.957
X118.44Y-100.693
X118.44Y-114.691
X118.44Y-128.743
X118.55Y-86.695
X124.44Y-105.893
X124.44Y-119.891
X124.44Y-133.943
X124.55Y-91.895
X134.8Y-100.693
X134.8Y-114.691
X134.8Y-128.737
X134.91Y-86.695
X140.8Y-105.893
X140.8Y-119.891
X140.8Y-133.937
X140.91Y-91.895
X150.69Y-100.693
X150.69Y-114.691
X150.69Y-128.688
X150.8Y-86.695
X156.69Y-105.893
X156.69Y-119.891
X156.69Y-133.888
X156.8Y-91.895
X166.94Y-100.693
X166.94Y-114.691
X166.94Y-128.688
X167.05Y-86.695
X172.94Y-105.893
X172.94Y-119.891
X172.94Y-133.888
X173.05Y-91.895
X183.3Y-100.693
X183.3Y-114.691
X183.3Y-128.688
X183.41Y-86.695
X189.3Y-105.893
X189.3Y-119.891
X189.3Y-133.888
X189.41Y-91.895
X199.44Y-100.693
X199.44Y-114.691
X199.44Y-128.688
X199.55Y-86.695
X205.44Y-105.893
X205.44Y-119.891
X205.44Y-133.888
X205.55Y-91.895
X215.538Y-100.693
X215.538Y-114.691
X215.604Y-128.809
X215.649Y-86.695
X221.538Y-105.893
X221.538Y-119.891
X221.538Y-133.937
X221.649Y-91.895
X231.895Y-100.693
X231.895Y-114.691
X231.975Y-128.688
X232.005Y-86.695
X237.895Y-105.893
X237.895Y-119.891
X237.895Y-133.888
X238.005Y-91.895
X248.251Y-100.693
X248.251Y-114.691
X248.251Y-128.688
X248.362Y-86.695
X254.251Y-105.893
X254.251Y-119.891
X254.251Y-133.888
X254.362Y-91.895
X264.55Y-128.688
X264.608Y-100.693
X264.608Y-114.691
X264.718Y-86.695
X270.55Y-133.888
X270.608Y-105.893
X270.608Y-119.891
X270.718Y-91.895
T2
X64.39Y-65.25
X65.66Y-65.25
X66.93Y-65.25
X68.2Y-65.25
X69.47Y-65.25
X70.74Y-65.25
X72.01Y-65.25
X73.28Y-65.25
X74.55Y-65.25
X75.82Y-65.25
X77.09Y-65.25
X78.36Y-65.25
X79.63Y-65.25
X80.9Y-65.25
X82.17Y-65.25
X83.44Y-65.25
X84.71Y-65.25
X85.98Y-65.25
X87.25Y-65.25
M30
