%TF.GenerationSoftware,KiCad,Pcbnew,9.0.1*%
%TF.CreationDate,2025-06-21T12:16:08-05:00*%
%TF.ProjectId,OM-FlexGrid-Flex,4f4d2d46-6c65-4784-9772-69642d466c65,rev?*%
%TF.SameCoordinates,Original*%
%TF.FileFunction,Profile,NP*%
%FSLAX46Y46*%
G04 Gerber Fmt 4.6, Leading zero omitted, Abs format (unit mm)*
G04 Created by KiCad (PCBNEW 9.0.1) date 2025-06-21 12:16:08*
%MOMM*%
%LPD*%
G01*
G04 APERTURE LIST*
%TA.AperFunction,Profile*%
%ADD10C,0.003779*%
%TD*%
G04 APERTURE END LIST*
D10*
X88250000Y-74500000D02*
X88351998Y-75275999D01*
X88652001Y-76000000D01*
X89128998Y-76621000D01*
X89750000Y-77097999D01*
X90473999Y-77397999D01*
X91250000Y-77500000D01*
X153749993Y-77500000D01*
X278749993Y-77500000D01*
X280043984Y-77670000D01*
X281249977Y-78170000D01*
X282285988Y-78963998D01*
X283079994Y-79999999D01*
X283579994Y-81205998D01*
X283749977Y-82499999D01*
X283749977Y-137499987D01*
X283579994Y-138793994D01*
X283079994Y-139999987D01*
X282285988Y-141035998D01*
X281249977Y-141829989D01*
X280043984Y-142329989D01*
X278749993Y-142499987D01*
X153749993Y-142499987D01*
X88250000Y-142499987D01*
X88213997Y-142499987D01*
X28750008Y-142499987D01*
X27456009Y-142329989D01*
X26250008Y-141829989D01*
X25214012Y-141035998D01*
X24420006Y-139999987D01*
X23920006Y-138793994D01*
X23750008Y-137499987D01*
X23750008Y-103149996D01*
X23750008Y-82499999D01*
X23920006Y-81205998D01*
X24420006Y-79999999D01*
X25214012Y-78963998D01*
X26250008Y-78170000D01*
X27456009Y-77670000D01*
X28750008Y-77500000D01*
X60250004Y-77500000D01*
X61026005Y-77397999D01*
X61750004Y-77097999D01*
X62371006Y-76621000D01*
X62848004Y-76000000D01*
X63148007Y-75275999D01*
X63250004Y-74500000D01*
X63250004Y-72967542D01*
X63250004Y-63800002D01*
X88213997Y-63800002D01*
X88250000Y-63800002D01*
X88250000Y-74500000D01*
M02*
