%TF.GenerationSoftware,KiCad,Pcbnew,9.0.1*%
%TF.CreationDate,2025-05-18T16:35:05-05:00*%
%TF.ProjectId,OM-60-Rigid-PCB,4f4d2d36-302d-4526-9967-69642d504342,rev?*%
%TF.SameCoordinates,Original*%
%TF.FileFunction,Copper,L4,Bot*%
%TF.FilePolarity,Positive*%
%FSLAX46Y46*%
G04 Gerber Fmt 4.6, Leading zero omitted, Abs format (unit mm)*
G04 Created by KiCad (PCBNEW 9.0.1) date 2025-05-18 16:35:05*
%MOMM*%
%LPD*%
G01*
G04 APERTURE LIST*
G04 Aperture macros list*
%AMRoundRect*
0 Rectangle with rounded corners*
0 $1 Rounding radius*
0 $2 $3 $4 $5 $6 $7 $8 $9 X,Y pos of 4 corners*
0 Add a 4 corners polygon primitive as box body*
4,1,4,$2,$3,$4,$5,$6,$7,$8,$9,$2,$3,0*
0 Add four circle primitives for the rounded corners*
1,1,$1+$1,$2,$3*
1,1,$1+$1,$4,$5*
1,1,$1+$1,$6,$7*
1,1,$1+$1,$8,$9*
0 Add four rect primitives between the rounded corners*
20,1,$1+$1,$2,$3,$4,$5,0*
20,1,$1+$1,$4,$5,$6,$7,0*
20,1,$1+$1,$6,$7,$8,$9,0*
20,1,$1+$1,$8,$9,$2,$3,0*%
G04 Aperture macros list end*
%TA.AperFunction,ComponentPad*%
%ADD10R,1.700000X1.700000*%
%TD*%
%TA.AperFunction,ComponentPad*%
%ADD11C,1.700000*%
%TD*%
%TA.AperFunction,SMDPad,CuDef*%
%ADD12RoundRect,0.150000X-0.875000X-0.150000X0.875000X-0.150000X0.875000X0.150000X-0.875000X0.150000X0*%
%TD*%
%TA.AperFunction,ComponentPad*%
%ADD13R,1.350000X1.350000*%
%TD*%
%TA.AperFunction,ComponentPad*%
%ADD14C,1.350000*%
%TD*%
%TA.AperFunction,HeatsinkPad*%
%ADD15O,1.000000X2.100000*%
%TD*%
%TA.AperFunction,HeatsinkPad*%
%ADD16O,1.000000X1.600000*%
%TD*%
%TA.AperFunction,ViaPad*%
%ADD17C,0.600000*%
%TD*%
%TA.AperFunction,Conductor*%
%ADD18C,0.200000*%
%TD*%
G04 APERTURE END LIST*
D10*
%TO.P,J1,1,Pin_1*%
%TO.N,GND*%
X116300000Y-114000000D03*
D11*
%TO.P,J1,2,Pin_2*%
%TO.N,+3V3*%
X116300000Y-111460000D03*
%TO.P,J1,3,Pin_3*%
%TO.N,SPI_SCK*%
X116300000Y-108920000D03*
%TO.P,J1,4,Pin_4*%
%TO.N,SPI_MOSI*%
X116300000Y-106380000D03*
%TO.P,J1,5,Pin_5*%
%TO.N,SPI_MISO*%
X116300000Y-103840000D03*
%TO.P,J1,6,Pin_6*%
%TO.N,GP33*%
X116300000Y-101300000D03*
%TO.P,J1,7,Pin_7*%
%TO.N,CS*%
X116300000Y-98760000D03*
%TO.P,J1,8,Pin_8*%
%TO.N,Net-(J1-Pin_8)*%
X116300000Y-96220000D03*
%TD*%
D12*
%TO.P,U1,1,COM*%
%TO.N,+3V3*%
X137000000Y-92010000D03*
%TO.P,U1,2,I7*%
%TO.N,COL_7*%
X137000000Y-90740000D03*
%TO.P,U1,3,I6*%
%TO.N,COL_6*%
X137000000Y-89470000D03*
%TO.P,U1,4,I5*%
%TO.N,COL_5*%
X137000000Y-88200000D03*
%TO.P,U1,5,I4*%
%TO.N,COL_4*%
X137000000Y-86930000D03*
%TO.P,U1,6,I3*%
%TO.N,COL_3*%
X137000000Y-85660000D03*
%TO.P,U1,7,I2*%
%TO.N,COL_2*%
X137000000Y-84390000D03*
%TO.P,U1,8,I1*%
%TO.N,COL_1*%
X137000000Y-83120000D03*
%TO.P,U1,9,I0*%
%TO.N,COL_0*%
X137000000Y-81850000D03*
%TO.P,U1,10,S0*%
%TO.N,S0*%
X137000000Y-80580000D03*
%TO.P,U1,11,S1*%
%TO.N,S1*%
X137000000Y-79310000D03*
%TO.P,U1,12,GND*%
%TO.N,GND*%
X137000000Y-78040000D03*
%TO.P,U1,13,S3*%
%TO.N,S3*%
X146300000Y-78040000D03*
%TO.P,U1,14,S2*%
%TO.N,S2*%
X146300000Y-79310000D03*
%TO.P,U1,15,~{E}*%
%TO.N,GP16_E*%
X146300000Y-80580000D03*
%TO.P,U1,16,I15*%
%TO.N,unconnected-(U1-I15-Pad16)*%
X146300000Y-81850000D03*
%TO.P,U1,17,I14*%
%TO.N,COL_14*%
X146300000Y-83120000D03*
%TO.P,U1,18,I13*%
%TO.N,COL_13*%
X146300000Y-84390000D03*
%TO.P,U1,19,I12*%
%TO.N,COL_12*%
X146300000Y-85660000D03*
%TO.P,U1,20,I11*%
%TO.N,COL_11*%
X146300000Y-86930000D03*
%TO.P,U1,21,I10*%
%TO.N,COL_10*%
X146300000Y-88200000D03*
%TO.P,U1,22,I9*%
%TO.N,COL_9*%
X146300000Y-89470000D03*
%TO.P,U1,23,I8*%
%TO.N,COL_8*%
X146300000Y-90740000D03*
%TO.P,U1,24,VCC*%
%TO.N,+3V3*%
X146300000Y-92010000D03*
%TD*%
D10*
%TO.P,GYRO1,1,Pin_1*%
%TO.N,+3V3*%
X124180000Y-112800000D03*
D11*
%TO.P,GYRO1,2,Pin_2*%
%TO.N,GND*%
X126720000Y-112800000D03*
%TO.P,GYRO1,3,Pin_3*%
%TO.N,SCL*%
X129260000Y-112800000D03*
%TO.P,GYRO1,4,Pin_4*%
%TO.N,SDA*%
X131800000Y-112800000D03*
%TD*%
D13*
%TO.P,J5,1,Pin_1*%
%TO.N,Batt+*%
X154600000Y-93600000D03*
D14*
%TO.P,J5,2,Pin_2*%
%TO.N,MotorGND*%
X154600000Y-95600000D03*
%TD*%
D15*
%TO.P,J4,S1,SHIELD*%
%TO.N,GND*%
X147340000Y-65380000D03*
D16*
X147340000Y-61200000D03*
D15*
X138700000Y-65380000D03*
D16*
X138700000Y-61200000D03*
%TD*%
D10*
%TO.P,J3,1,Pin_1*%
%TO.N,GND*%
X158200000Y-61840000D03*
D11*
%TO.P,J3,2,Pin_2*%
%TO.N,+3V3*%
X158200000Y-64380000D03*
%TO.P,J3,3,Pin_3*%
%TO.N,COL_0*%
X158200000Y-66920000D03*
%TO.P,J3,4,Pin_4*%
%TO.N,COL_1*%
X158200000Y-69460000D03*
%TO.P,J3,5,Pin_5*%
%TO.N,COL_2*%
X158200000Y-72000000D03*
%TO.P,J3,6,Pin_6*%
%TO.N,COL_3*%
X158200000Y-74540000D03*
%TO.P,J3,7,Pin_7*%
%TO.N,COL_4*%
X158200000Y-77080000D03*
%TO.P,J3,8,Pin_8*%
%TO.N,COL_5*%
X158200000Y-79620000D03*
%TO.P,J3,9,Pin_9*%
%TO.N,COL_6*%
X158200000Y-82160000D03*
%TO.P,J3,10,Pin_10*%
%TO.N,COL_7*%
X158200000Y-84700000D03*
%TO.P,J3,11,Pin_11*%
%TO.N,COL_8*%
X158200000Y-87240000D03*
%TO.P,J3,12,Pin_12*%
%TO.N,COL_9*%
X158200000Y-89780000D03*
%TO.P,J3,13,Pin_13*%
%TO.N,COL_10*%
X158200000Y-92320000D03*
%TO.P,J3,14,Pin_14*%
%TO.N,COL_11*%
X158200000Y-94860000D03*
%TO.P,J3,15,Pin_15*%
%TO.N,COL_12*%
X158200000Y-97400000D03*
%TO.P,J3,16,Pin_16*%
%TO.N,COL_13*%
X158200000Y-99940000D03*
%TO.P,J3,17,Pin_17*%
%TO.N,COL_14*%
X158200000Y-102480000D03*
%TO.P,J3,18,Pin_18*%
%TO.N,ROW_0*%
X158200000Y-105020000D03*
%TO.P,J3,19,Pin_19*%
%TO.N,ROW_1*%
X158200000Y-107560000D03*
%TO.P,J3,20,Pin_20*%
%TO.N,ROW_2*%
X158200000Y-110100000D03*
%TO.P,J3,21,Pin_21*%
%TO.N,ROW_3*%
X158200000Y-112640000D03*
%TD*%
D10*
%TO.P,SCRN1,1,Pin_1*%
%TO.N,GND*%
X153300000Y-77760000D03*
D11*
%TO.P,SCRN1,2,Pin_2*%
%TO.N,+3V3*%
X153300000Y-80300000D03*
%TO.P,SCRN1,3,Pin_3*%
%TO.N,SCL*%
X153300000Y-82840000D03*
%TO.P,SCRN1,4,Pin_4*%
%TO.N,SDA*%
X153300000Y-85380000D03*
%TD*%
D17*
%TO.N,+3V3*%
X135100000Y-91400000D03*
%TO.N,GND*%
X149200000Y-61200000D03*
X153270000Y-70070000D03*
%TO.N,GP33*%
X142100000Y-68800000D03*
%TO.N,GND*%
X149600000Y-73600000D03*
%TO.N,SDA*%
X142500000Y-98400000D03*
X145224971Y-98624971D03*
%TO.N,SPI_MISO*%
X139500000Y-95700000D03*
X139900000Y-90300000D03*
%TO.N,GP33*%
X129100000Y-78500000D03*
X117850000Y-74550000D03*
%TO.N,SELECT*%
X116900000Y-69500000D03*
X137300000Y-66700000D03*
%TO.N,GND*%
X114024000Y-65700000D03*
%TO.N,SCL*%
X149400000Y-82840000D03*
%TO.N,SDA*%
X149600000Y-85500000D03*
%TO.N,GND*%
X134600000Y-78200000D03*
%TO.N,EN*%
X127600000Y-83200000D03*
X148100000Y-68300000D03*
%TO.N,GND*%
X129500000Y-60700000D03*
%TO.N,LDO_EN*%
X131000000Y-69200000D03*
X120100000Y-96900000D03*
%TO.N,GND*%
X127300000Y-102050000D03*
%TO.N,ADC_BAT*%
X139200000Y-91400000D03*
X134600000Y-95500000D03*
%TO.N,EN*%
X126100000Y-85400000D03*
%TO.N,+3V3*%
X125200000Y-92100000D03*
%TO.N,GND*%
X126977100Y-97600000D03*
%TO.N,+3V3*%
X133000000Y-101900000D03*
%TO.N,D+*%
X141000000Y-98600000D03*
%TO.N,D-*%
X139500000Y-97702000D03*
%TO.N,D+*%
X143200000Y-64600000D03*
%TO.N,D-*%
X142900000Y-68200000D03*
%TO.N,GND*%
X121600000Y-71500000D03*
X129300000Y-71800000D03*
X134342500Y-71842500D03*
%TO.N,Net-(MAX1-In)*%
X135100000Y-69400000D03*
X141000000Y-72700000D03*
%TO.N,VBAT*%
X124300000Y-74200000D03*
X139500000Y-74200000D03*
X148000000Y-114349000D03*
X133800000Y-100900000D03*
%TO.N,GND*%
X138000000Y-103300000D03*
X145787500Y-103512500D03*
%TO.N,VBUS*%
X133500000Y-99100000D03*
X146200000Y-108000000D03*
X126750000Y-71750000D03*
X134050000Y-64450000D03*
X145800000Y-67800000D03*
X142020000Y-63920000D03*
X144750000Y-63550000D03*
%TO.N,Batt+*%
X148950000Y-99250000D03*
%TO.N,GND*%
X131340000Y-83800000D03*
%TO.N,ROW_1*%
X125200000Y-80000000D03*
%TO.N,ROW_0*%
X124890000Y-78390000D03*
%TO.N,ROW_2*%
X145300000Y-97700000D03*
%TO.N,ROW_3*%
X127700000Y-95500000D03*
%TO.N,+3V3*%
X149700000Y-90600000D03*
%TO.N,GP16_E*%
X133700000Y-91700000D03*
%TO.N,S2*%
X131400000Y-90600000D03*
%TO.N,S3*%
X132600000Y-89700000D03*
%TO.N,S1*%
X127600000Y-90400000D03*
%TO.N,S0*%
X128600000Y-91600000D03*
%TO.N,GND*%
X142500000Y-71350000D03*
X153750000Y-112100000D03*
X153750000Y-108900000D03*
X153750000Y-105700000D03*
%TD*%
D18*
%TO.N,+3V3*%
X135710000Y-92010000D02*
X135100000Y-91400000D01*
X137000000Y-92010000D02*
X135710000Y-92010000D01*
%TO.N,SDA*%
X142500000Y-102100000D02*
X131800000Y-112800000D01*
X142500000Y-98400000D02*
X142500000Y-102100000D01*
%TO.N,SCL*%
X154940000Y-82840000D02*
X153300000Y-82840000D01*
X157049000Y-84949000D02*
X154940000Y-82840000D01*
X157049000Y-85176760D02*
X157049000Y-84949000D01*
X157723240Y-85851000D02*
X157049000Y-85176760D01*
X159951000Y-85851000D02*
X157723240Y-85851000D01*
X160000000Y-85900000D02*
X159951000Y-85851000D01*
X158676760Y-113791000D02*
X160000000Y-112467760D01*
X160000000Y-112467760D02*
X160000000Y-85900000D01*
X157049000Y-113116760D02*
X157723240Y-113791000D01*
X133111000Y-113116760D02*
X157049000Y-113116760D01*
X132276760Y-113951000D02*
X133111000Y-113116760D01*
X130411000Y-113951000D02*
X132276760Y-113951000D01*
X157723240Y-113791000D02*
X158676760Y-113791000D01*
X129260000Y-112800000D02*
X130411000Y-113951000D01*
%TO.N,SPI_MISO*%
X139900000Y-95300000D02*
X139500000Y-95700000D01*
X139900000Y-90300000D02*
X139900000Y-95300000D01*
%TO.N,GP33*%
X129100000Y-74550057D02*
X129100000Y-78500000D01*
X134851057Y-68799000D02*
X129100000Y-74550057D01*
X142649057Y-68799000D02*
X134851057Y-68799000D01*
X143148943Y-68801000D02*
X142651057Y-68801000D01*
X142951057Y-63999000D02*
X143448943Y-63999000D01*
X139552057Y-67398000D02*
X142951057Y-63999000D01*
X143448943Y-63999000D02*
X143801000Y-64351057D01*
X142651057Y-68801000D02*
X142649057Y-68799000D01*
X124852057Y-67398000D02*
X139552057Y-67398000D01*
X143801000Y-68148943D02*
X143148943Y-68801000D01*
X143801000Y-64351057D02*
X143801000Y-68148943D01*
X117850000Y-74400057D02*
X124852057Y-67398000D01*
X117850000Y-74550000D02*
X117850000Y-74400057D01*
%TO.N,SELECT*%
X119700000Y-66700000D02*
X116900000Y-69500000D01*
X137300000Y-66700000D02*
X119700000Y-66700000D01*
%TO.N,SCL*%
X149400000Y-82840000D02*
X149360000Y-82840000D01*
%TO.N,SDA*%
X149720000Y-85380000D02*
X149600000Y-85500000D01*
X153300000Y-85380000D02*
X149720000Y-85380000D01*
%TO.N,SCL*%
X149360000Y-82840000D02*
X149300000Y-82900000D01*
X153300000Y-82840000D02*
X149400000Y-82840000D01*
%TO.N,GND*%
X134760000Y-78040000D02*
X134600000Y-78200000D01*
X137000000Y-78040000D02*
X134760000Y-78040000D01*
%TO.N,EN*%
X127600000Y-82100000D02*
X127600000Y-83200000D01*
X130500000Y-79200000D02*
X127600000Y-82100000D01*
X134900000Y-74800000D02*
X130500000Y-79200000D01*
X141600000Y-74800000D02*
X134900000Y-74800000D01*
X148100000Y-68300000D02*
X141600000Y-74800000D01*
%TO.N,LDO_EN*%
X124749943Y-69200000D02*
X131000000Y-69200000D01*
X120100000Y-73849943D02*
X124749943Y-69200000D01*
X120100000Y-96900000D02*
X120100000Y-73849943D01*
%TO.N,ADC_BAT*%
X139200000Y-91476968D02*
X139200000Y-91400000D01*
X135176968Y-95500000D02*
X139200000Y-91476968D01*
X134600000Y-95500000D02*
X135176968Y-95500000D01*
%TO.N,D-*%
X124100000Y-92749943D02*
X124100000Y-78330057D01*
X139202000Y-98000000D02*
X129350057Y-98000000D01*
X134230057Y-68200000D02*
X142900000Y-68200000D01*
X139500000Y-97702000D02*
X139202000Y-98000000D01*
X129350057Y-98000000D02*
X124100000Y-92749943D01*
X124100000Y-78330057D02*
X134230057Y-68200000D01*
%TO.N,D+*%
X135750057Y-98600000D02*
X141000000Y-98600000D01*
X135649057Y-98499000D02*
X135750057Y-98600000D01*
X123699000Y-92916043D02*
X129281957Y-98499000D01*
X123699000Y-76551057D02*
X123699000Y-92916043D01*
X129350057Y-70900000D02*
X123699000Y-76551057D01*
X130600000Y-70900000D02*
X129350057Y-70900000D01*
X133701000Y-67799000D02*
X130600000Y-70900000D01*
X140001000Y-67799000D02*
X133701000Y-67799000D01*
X129281957Y-98499000D02*
X135649057Y-98499000D01*
X143200000Y-64600000D02*
X140001000Y-67799000D01*
%TO.N,Net-(MAX1-In)*%
X137700000Y-69400000D02*
X135100000Y-69400000D01*
X141000000Y-72700000D02*
X137700000Y-69400000D01*
%TO.N,ROW_1*%
X148400000Y-97760000D02*
X158200000Y-107560000D01*
X148400000Y-96701000D02*
X148400000Y-97760000D01*
X132283957Y-96701000D02*
X148400000Y-96701000D01*
X126000000Y-90417043D02*
X132283957Y-96701000D01*
X125200000Y-87800000D02*
X126000000Y-88600000D01*
X125200000Y-80000000D02*
X125200000Y-87800000D01*
X126000000Y-88600000D02*
X126000000Y-90417043D01*
%TO.N,ROW_0*%
X149480000Y-96300000D02*
X158200000Y-105020000D01*
X132450057Y-96300000D02*
X149480000Y-96300000D01*
X124890000Y-78390000D02*
X126700000Y-80200000D01*
X126700000Y-80200000D02*
X126700000Y-90549943D01*
X126700000Y-90549943D02*
X132450057Y-96300000D01*
%TO.N,ROW_3*%
X129302000Y-97102000D02*
X127700000Y-95500000D01*
X142802000Y-97102000D02*
X129302000Y-97102000D01*
X158200000Y-112500000D02*
X142802000Y-97102000D01*
X158200000Y-112640000D02*
X158200000Y-112500000D01*
%TO.N,ROW_2*%
X147000000Y-97700000D02*
X145300000Y-97700000D01*
X147600000Y-98300000D02*
X147000000Y-97700000D01*
X158200000Y-110100000D02*
X156409000Y-108309000D01*
X156409000Y-108309000D02*
X156409000Y-107109000D01*
X156409000Y-107109000D02*
X147600000Y-98300000D01*
%TO.N,COL_14*%
X156780000Y-102480000D02*
X158200000Y-102480000D01*
X152600000Y-98300000D02*
X156780000Y-102480000D01*
X152600000Y-97567100D02*
X152600000Y-98300000D01*
X152399000Y-97366100D02*
X152600000Y-97567100D01*
X152399000Y-95799000D02*
X152399000Y-97366100D01*
X152301000Y-95701000D02*
X152399000Y-95799000D01*
X146933900Y-95701000D02*
X152301000Y-95701000D01*
X143800000Y-86532900D02*
X142969000Y-87363900D01*
X143800000Y-84595001D02*
X143800000Y-86532900D01*
X145275001Y-83120000D02*
X143800000Y-84595001D01*
X142969000Y-87363900D02*
X142969000Y-92703200D01*
X146233900Y-95001000D02*
X146933900Y-95701000D01*
X142969000Y-92703200D02*
X145266800Y-95001000D01*
X146300000Y-83120000D02*
X145275001Y-83120000D01*
X145266800Y-95001000D02*
X146233900Y-95001000D01*
%TO.N,COL_13*%
X155540000Y-99940000D02*
X158200000Y-99940000D01*
X152800000Y-97200000D02*
X155540000Y-99940000D01*
X152800000Y-95300000D02*
X152800000Y-97200000D01*
X147100000Y-95300000D02*
X152800000Y-95300000D01*
X146400000Y-94600000D02*
X147100000Y-95300000D01*
X145432900Y-94600000D02*
X146400000Y-94600000D01*
X143370000Y-87530000D02*
X143370000Y-92537100D01*
X144974000Y-85926000D02*
X143370000Y-87530000D01*
X143370000Y-92537100D02*
X145432900Y-94600000D01*
X145234032Y-85059000D02*
X144974000Y-85319032D01*
X145241000Y-85059000D02*
X145234032Y-85059000D01*
X145910000Y-84390000D02*
X145241000Y-85059000D01*
X144974000Y-85319032D02*
X144974000Y-85926000D01*
X146300000Y-84390000D02*
X145910000Y-84390000D01*
%TO.N,COL_12*%
X156100000Y-95300000D02*
X158200000Y-97400000D01*
X156100000Y-94500000D02*
X156100000Y-95300000D01*
X155976000Y-94624000D02*
X156100000Y-94500000D01*
X147600000Y-93700000D02*
X148524000Y-94624000D01*
X143771000Y-92371000D02*
X145100000Y-93700000D01*
X148524000Y-94624000D02*
X155976000Y-94624000D01*
X143771000Y-87729000D02*
X143771000Y-92371000D01*
X145840000Y-85660000D02*
X143771000Y-87729000D01*
X146300000Y-85660000D02*
X145840000Y-85660000D01*
X145100000Y-93700000D02*
X147600000Y-93700000D01*
%TO.N,COL_11*%
X155700000Y-92360000D02*
X158200000Y-94860000D01*
X155301000Y-90201000D02*
X155700000Y-90600000D01*
X155700000Y-90600000D02*
X155700000Y-92360000D01*
X153999000Y-90201000D02*
X155301000Y-90201000D01*
X151000000Y-93200000D02*
X153999000Y-90201000D01*
X144172000Y-92116068D02*
X145255932Y-93200000D01*
X144172000Y-88033001D02*
X144172000Y-92116068D01*
X145255932Y-93200000D02*
X151000000Y-93200000D01*
X145275001Y-86930000D02*
X144172000Y-88033001D01*
X146300000Y-86930000D02*
X145275001Y-86930000D01*
%TO.N,+3V3*%
X148290000Y-92010000D02*
X149700000Y-90600000D01*
X146300000Y-92010000D02*
X148290000Y-92010000D01*
%TO.N,COL_10*%
X155600000Y-89720000D02*
X158200000Y-92320000D01*
X155600000Y-89700000D02*
X155600000Y-89720000D01*
X153800000Y-89700000D02*
X155600000Y-89700000D01*
X152000000Y-91500000D02*
X153800000Y-89700000D01*
X149900000Y-91500000D02*
X152000000Y-91500000D01*
X148700000Y-92700000D02*
X149900000Y-91500000D01*
X145323032Y-92700000D02*
X148700000Y-92700000D01*
X144573000Y-91949968D02*
X145323032Y-92700000D01*
X144573000Y-88902001D02*
X144573000Y-91949968D01*
X145275001Y-88200000D02*
X144573000Y-88902001D01*
X146300000Y-88200000D02*
X145275001Y-88200000D01*
%TO.N,COL_9*%
X156700000Y-88280000D02*
X158200000Y-89780000D01*
X156700000Y-87900000D02*
X156700000Y-88280000D01*
X145234032Y-91341000D02*
X147759000Y-91341000D01*
X147759000Y-91341000D02*
X151200000Y-87900000D01*
X144974000Y-91080968D02*
X145234032Y-91341000D01*
X144974000Y-89771001D02*
X144974000Y-91080968D01*
X151200000Y-87900000D02*
X156700000Y-87900000D01*
X145275001Y-89470000D02*
X144974000Y-89771001D01*
X146300000Y-89470000D02*
X145275001Y-89470000D01*
%TO.N,COL_8*%
X147360000Y-90740000D02*
X150860000Y-87240000D01*
X150860000Y-87240000D02*
X158200000Y-87240000D01*
X146300000Y-90740000D02*
X147360000Y-90740000D01*
%TO.N,COL_7*%
X155500000Y-82000000D02*
X158200000Y-84700000D01*
X155500000Y-79700000D02*
X155500000Y-82000000D01*
X154949000Y-79149000D02*
X155500000Y-79700000D01*
X148819000Y-81181000D02*
X150851000Y-79149000D01*
X145302032Y-81181000D02*
X148819000Y-81181000D01*
X142700000Y-83783032D02*
X145302032Y-81181000D01*
X142700000Y-86064999D02*
X142700000Y-83783032D01*
X138024999Y-90740000D02*
X142700000Y-86064999D01*
X150851000Y-79149000D02*
X154949000Y-79149000D01*
X137000000Y-90740000D02*
X138024999Y-90740000D01*
%TO.N,GP16_E*%
X137997968Y-90139000D02*
X135261000Y-90139000D01*
X142209151Y-85927817D02*
X137997968Y-90139000D01*
X142209151Y-83645850D02*
X142209151Y-85927817D01*
X145275001Y-80580000D02*
X142209151Y-83645850D01*
X135261000Y-90139000D02*
X133700000Y-91700000D01*
X146300000Y-80580000D02*
X145275001Y-80580000D01*
%TO.N,COL_6*%
X157049000Y-81009000D02*
X158200000Y-82160000D01*
X157049000Y-79049000D02*
X157049000Y-81009000D01*
X148847000Y-79911000D02*
X152858000Y-75900000D01*
X152858000Y-75900000D02*
X153900000Y-75900000D01*
X145105301Y-79911000D02*
X148847000Y-79911000D01*
X141808151Y-83208150D02*
X145105301Y-79911000D01*
X138024999Y-89470000D02*
X141808151Y-85686848D01*
X137000000Y-89470000D02*
X138024999Y-89470000D01*
X141808151Y-85686848D02*
X141808151Y-83208150D01*
X153900000Y-75900000D02*
X157049000Y-79049000D01*
%TO.N,S2*%
X134831000Y-88869000D02*
X134800000Y-88900000D01*
X137997968Y-88869000D02*
X134831000Y-88869000D01*
X133100000Y-90600000D02*
X131400000Y-90600000D01*
X141303000Y-85563968D02*
X137997968Y-88869000D01*
X141303000Y-83146201D02*
X141303000Y-85563968D01*
X134800000Y-88900000D02*
X133100000Y-90600000D01*
X145139201Y-79310000D02*
X141303000Y-83146201D01*
X146300000Y-79310000D02*
X145139201Y-79310000D01*
%TO.N,COL_5*%
X155100000Y-76520000D02*
X158200000Y-79620000D01*
X155100000Y-75400000D02*
X155100000Y-76520000D01*
X152500000Y-75400000D02*
X155100000Y-75400000D01*
X149259000Y-78641000D02*
X152500000Y-75400000D01*
X145241101Y-78641000D02*
X149259000Y-78641000D01*
X140902000Y-82980101D02*
X145241101Y-78641000D01*
X140902000Y-85322999D02*
X140902000Y-82980101D01*
X138024999Y-88200000D02*
X140902000Y-85322999D01*
X137000000Y-88200000D02*
X138024999Y-88200000D01*
%TO.N,S1*%
X127600000Y-90400000D02*
X127600000Y-90500000D01*
%TO.N,S3*%
X134701000Y-87599000D02*
X132600000Y-89700000D01*
X137997968Y-87599000D02*
X134701000Y-87599000D01*
X140501000Y-82814001D02*
X140501000Y-85095968D01*
X140501000Y-85095968D02*
X137997968Y-87599000D01*
X145275001Y-78040000D02*
X140501000Y-82814001D01*
X146300000Y-78040000D02*
X145275001Y-78040000D01*
%TO.N,S1*%
X127600000Y-84432900D02*
X127600000Y-90400000D01*
X132722900Y-79310000D02*
X127600000Y-84432900D01*
X137000000Y-79310000D02*
X132722900Y-79310000D01*
%TO.N,S0*%
X128600000Y-84000000D02*
X128600000Y-91600000D01*
X129100000Y-83500000D02*
X128600000Y-84000000D01*
X132020000Y-80580000D02*
X129100000Y-83500000D01*
X137000000Y-80580000D02*
X132020000Y-80580000D01*
%TO.N,COL_4*%
X140100000Y-82200000D02*
X150300000Y-72000000D01*
X140100000Y-84854999D02*
X140100000Y-82200000D01*
X138024999Y-86930000D02*
X140100000Y-84854999D01*
X150300000Y-72000000D02*
X153120000Y-72000000D01*
X137000000Y-86930000D02*
X138024999Y-86930000D01*
X153120000Y-72000000D02*
X158200000Y-77080000D01*
%TO.N,COL_3*%
X150205600Y-71400000D02*
X156400000Y-71400000D01*
X156400000Y-71400000D02*
X156400000Y-72740000D01*
X139605600Y-82000000D02*
X150205600Y-71400000D01*
X139605600Y-84079399D02*
X139605600Y-82000000D01*
X138024999Y-85660000D02*
X139605600Y-84079399D01*
X156400000Y-72740000D02*
X158200000Y-74540000D01*
X137000000Y-85660000D02*
X138024999Y-85660000D01*
%TO.N,COL_2*%
X156900000Y-70700000D02*
X158200000Y-72000000D01*
X139204600Y-81804599D02*
X150309199Y-70700000D01*
X138024999Y-84390000D02*
X139204600Y-83210399D01*
X137000000Y-84390000D02*
X138024999Y-84390000D01*
X139204600Y-83210399D02*
X139204600Y-81804599D01*
X150309199Y-70700000D02*
X156900000Y-70700000D01*
%TO.N,COL_1*%
X150982099Y-69460000D02*
X158200000Y-69460000D01*
X138065968Y-82451000D02*
X138326000Y-82190968D01*
X138326000Y-82190968D02*
X138326000Y-82116099D01*
X137180000Y-83120000D02*
X137849000Y-82451000D01*
X138326000Y-82116099D02*
X150982099Y-69460000D01*
X137000000Y-83120000D02*
X137180000Y-83120000D01*
X137849000Y-82451000D02*
X138065968Y-82451000D01*
%TO.N,COL_0*%
X152954999Y-66920000D02*
X158200000Y-66920000D01*
X138024999Y-81850000D02*
X152954999Y-66920000D01*
X137000000Y-81850000D02*
X138024999Y-81850000D01*
%TD*%
M02*
