M48
; DRILL file {KiCad 9.0.1} date 2025-05-18T16:35:04-0500
; FORMAT={-:-/ absolute / metric / decimal}
; #@! TF.CreationDate,2025-05-18T16:35:04-05:00
; #@! TF.GenerationSoftware,Kicad,Pcbnew,9.0.1
; #@! TF.FileFunction,Plated,1,4,PTH
FMAT,2
METRIC
; #@! TA.AperFunction,Plated,PTH,ViaDrill
T1C0.300
; #@! TA.AperFunction,Plated,PTH,ComponentDrill
T2C0.600
; #@! TA.AperFunction,Plated,PTH,ComponentDrill
T3C0.800
; #@! TA.AperFunction,Plated,PTH,ComponentDrill
T4C1.000
%
G90
G05
T1
X114.024Y-65.7
X116.9Y-69.5
X117.85Y-74.55
X120.1Y-96.9
X121.6Y-71.5
X124.3Y-74.2
X124.89Y-78.39
X125.2Y-80.0
X125.2Y-92.1
X126.1Y-85.4
X126.75Y-71.75
X126.977Y-97.6
X127.3Y-102.05
X127.6Y-83.2
X127.6Y-90.4
X127.7Y-95.5
X128.6Y-91.6
X129.1Y-78.5
X129.3Y-71.8
X129.5Y-60.7
X131.0Y-69.2
X131.34Y-83.8
X131.4Y-90.6
X132.6Y-89.7
X133.0Y-101.9
X133.5Y-99.1
X133.7Y-91.7
X133.8Y-100.9
X134.05Y-64.45
X134.343Y-71.843
X134.6Y-78.2
X134.6Y-95.5
X135.1Y-69.4
X135.1Y-91.4
X137.3Y-66.7
X138.0Y-103.3
X139.2Y-91.4
X139.5Y-74.2
X139.5Y-95.7
X139.5Y-97.702
X139.9Y-90.3
X141.0Y-72.7
X141.0Y-98.6
X142.02Y-63.92
X142.1Y-68.8
X142.5Y-71.35
X142.5Y-98.4
X142.9Y-68.2
X143.2Y-64.6
X144.75Y-63.55
X145.225Y-98.625
X145.3Y-97.7
X145.787Y-103.512
X145.8Y-67.8
X146.2Y-108.0
X148.0Y-114.349
X148.1Y-68.3
X148.95Y-99.25
X149.2Y-61.2
X149.4Y-82.84
X149.6Y-73.6
X149.6Y-85.5
X149.7Y-90.6
X153.27Y-70.07
X153.75Y-105.7
X153.75Y-108.9
X153.75Y-112.1
T3
X154.6Y-93.6
X154.6Y-95.6
T4
X116.3Y-96.22
X116.3Y-98.76
X116.3Y-101.3
X116.3Y-103.84
X116.3Y-106.38
X116.3Y-108.92
X116.3Y-111.46
X116.3Y-114.0
X124.18Y-112.8
X126.72Y-112.8
X129.26Y-112.8
X131.8Y-112.8
X153.3Y-77.76
X153.3Y-80.3
X153.3Y-82.84
X153.3Y-85.38
X158.2Y-61.84
X158.2Y-64.38
X158.2Y-66.92
X158.2Y-69.46
X158.2Y-72.0
X158.2Y-74.54
X158.2Y-77.08
X158.2Y-79.62
X158.2Y-82.16
X158.2Y-84.7
X158.2Y-87.24
X158.2Y-89.78
X158.2Y-92.32
X158.2Y-94.86
X158.2Y-97.4
X158.2Y-99.94
X158.2Y-102.48
X158.2Y-105.02
X158.2Y-107.56
X158.2Y-110.1
X158.2Y-112.64
T2
G00X138.7Y-61.5
M15
G01X138.7Y-60.9
M16
G05
G00X138.7Y-65.93
M15
G01X138.7Y-64.83
M16
G05
G00X147.34Y-61.5
M15
G01X147.34Y-60.9
M16
G05
G00X147.34Y-65.93
M15
G01X147.34Y-64.83
M16
G05
M30
