%TF.GenerationSoftware,KiCad,Pcbnew,9.0.1*%
%TF.CreationDate,2025-05-18T16:35:05-05:00*%
%TF.ProjectId,OM-60-Rigid-PCB,4f4d2d36-302d-4526-9967-69642d504342,rev?*%
%TF.SameCoordinates,Original*%
%TF.FileFunction,Copper,L1,Top*%
%TF.FilePolarity,Positive*%
%FSLAX46Y46*%
G04 Gerber Fmt 4.6, Leading zero omitted, Abs format (unit mm)*
G04 Created by KiCad (PCBNEW 9.0.1) date 2025-05-18 16:35:05*
%MOMM*%
%LPD*%
G01*
G04 APERTURE LIST*
G04 Aperture macros list*
%AMRoundRect*
0 Rectangle with rounded corners*
0 $1 Rounding radius*
0 $2 $3 $4 $5 $6 $7 $8 $9 X,Y pos of 4 corners*
0 Add a 4 corners polygon primitive as box body*
4,1,4,$2,$3,$4,$5,$6,$7,$8,$9,$2,$3,0*
0 Add four circle primitives for the rounded corners*
1,1,$1+$1,$2,$3*
1,1,$1+$1,$4,$5*
1,1,$1+$1,$6,$7*
1,1,$1+$1,$8,$9*
0 Add four rect primitives between the rounded corners*
20,1,$1+$1,$2,$3,$4,$5,0*
20,1,$1+$1,$4,$5,$6,$7,0*
20,1,$1+$1,$6,$7,$8,$9,0*
20,1,$1+$1,$8,$9,$2,$3,0*%
G04 Aperture macros list end*
%TA.AperFunction,SMDPad,CuDef*%
%ADD10R,0.600000X0.300000*%
%TD*%
%TA.AperFunction,SMDPad,CuDef*%
%ADD11R,0.300000X0.600000*%
%TD*%
%TA.AperFunction,SMDPad,CuDef*%
%ADD12RoundRect,0.200000X-0.200000X-0.275000X0.200000X-0.275000X0.200000X0.275000X-0.200000X0.275000X0*%
%TD*%
%TA.AperFunction,ComponentPad*%
%ADD13R,1.700000X1.700000*%
%TD*%
%TA.AperFunction,ComponentPad*%
%ADD14C,1.700000*%
%TD*%
%TA.AperFunction,SMDPad,CuDef*%
%ADD15R,1.450000X1.000000*%
%TD*%
%TA.AperFunction,SMDPad,CuDef*%
%ADD16R,1.000000X1.450000*%
%TD*%
%TA.AperFunction,SMDPad,CuDef*%
%ADD17RoundRect,0.150000X-0.512500X-0.150000X0.512500X-0.150000X0.512500X0.150000X-0.512500X0.150000X0*%
%TD*%
%TA.AperFunction,SMDPad,CuDef*%
%ADD18RoundRect,0.200000X0.275000X-0.200000X0.275000X0.200000X-0.275000X0.200000X-0.275000X-0.200000X0*%
%TD*%
%TA.AperFunction,SMDPad,CuDef*%
%ADD19RoundRect,0.200000X-0.275000X0.200000X-0.275000X-0.200000X0.275000X-0.200000X0.275000X0.200000X0*%
%TD*%
%TA.AperFunction,SMDPad,CuDef*%
%ADD20RoundRect,0.150000X0.150000X-0.587500X0.150000X0.587500X-0.150000X0.587500X-0.150000X-0.587500X0*%
%TD*%
%TA.AperFunction,SMDPad,CuDef*%
%ADD21RoundRect,0.150000X-0.587500X-0.150000X0.587500X-0.150000X0.587500X0.150000X-0.587500X0.150000X0*%
%TD*%
%TA.AperFunction,ComponentPad*%
%ADD22R,1.350000X1.350000*%
%TD*%
%TA.AperFunction,ComponentPad*%
%ADD23C,1.350000*%
%TD*%
%TA.AperFunction,SMDPad,CuDef*%
%ADD24R,0.600000X1.450000*%
%TD*%
%TA.AperFunction,SMDPad,CuDef*%
%ADD25R,0.300000X1.450000*%
%TD*%
%TA.AperFunction,HeatsinkPad*%
%ADD26O,1.000000X2.100000*%
%TD*%
%TA.AperFunction,HeatsinkPad*%
%ADD27O,1.000000X1.600000*%
%TD*%
%TA.AperFunction,SMDPad,CuDef*%
%ADD28RoundRect,0.225000X-0.225000X-0.375000X0.225000X-0.375000X0.225000X0.375000X-0.225000X0.375000X0*%
%TD*%
%TA.AperFunction,SMDPad,CuDef*%
%ADD29RoundRect,0.243750X0.456250X-0.243750X0.456250X0.243750X-0.456250X0.243750X-0.456250X-0.243750X0*%
%TD*%
%TA.AperFunction,SMDPad,CuDef*%
%ADD30RoundRect,0.250000X-0.300000X-0.300000X0.300000X-0.300000X0.300000X0.300000X-0.300000X0.300000X0*%
%TD*%
%TA.AperFunction,SMDPad,CuDef*%
%ADD31RoundRect,0.225000X-0.225000X-0.250000X0.225000X-0.250000X0.225000X0.250000X-0.225000X0.250000X0*%
%TD*%
%TA.AperFunction,SMDPad,CuDef*%
%ADD32RoundRect,0.225000X0.225000X0.250000X-0.225000X0.250000X-0.225000X-0.250000X0.225000X-0.250000X0*%
%TD*%
%TA.AperFunction,SMDPad,CuDef*%
%ADD33RoundRect,0.250000X0.250000X0.475000X-0.250000X0.475000X-0.250000X-0.475000X0.250000X-0.475000X0*%
%TD*%
%TA.AperFunction,SMDPad,CuDef*%
%ADD34RoundRect,0.250000X-0.250000X-0.475000X0.250000X-0.475000X0.250000X0.475000X-0.250000X0.475000X0*%
%TD*%
%TA.AperFunction,SMDPad,CuDef*%
%ADD35RoundRect,0.140000X-0.140000X-0.170000X0.140000X-0.170000X0.140000X0.170000X-0.140000X0.170000X0*%
%TD*%
%TA.AperFunction,SMDPad,CuDef*%
%ADD36R,0.812800X1.498600*%
%TD*%
%TA.AperFunction,SMDPad,CuDef*%
%ADD37R,1.498600X0.812800*%
%TD*%
%TA.AperFunction,SMDPad,CuDef*%
%ADD38R,0.889000X0.889000*%
%TD*%
%TA.AperFunction,ViaPad*%
%ADD39C,0.600000*%
%TD*%
%TA.AperFunction,Conductor*%
%ADD40C,0.200000*%
%TD*%
%TA.AperFunction,Conductor*%
%ADD41C,0.500000*%
%TD*%
%TA.AperFunction,Conductor*%
%ADD42C,0.300000*%
%TD*%
%TA.AperFunction,Conductor*%
%ADD43C,0.350000*%
%TD*%
G04 APERTURE END LIST*
D10*
%TO.P,IC1,1,SDO/AD0*%
%TO.N,unconnected-(IC1-SDO{slash}AD0-Pad1)*%
X147150000Y-71150000D03*
%TO.P,IC1,2,RESV1*%
%TO.N,unconnected-(IC1-RESV1-Pad2)*%
X147150000Y-71650000D03*
%TO.P,IC1,3,RESV2*%
%TO.N,unconnected-(IC1-RESV2-Pad3)*%
X147150000Y-72150000D03*
%TO.P,IC1,4,INT1/INT*%
%TO.N,unconnected-(IC1-INT1{slash}INT-Pad4)*%
X147150000Y-72650000D03*
D11*
%TO.P,IC1,5,VDDIO*%
%TO.N,+3V3*%
X147800000Y-72800000D03*
%TO.P,IC1,6,GND*%
%TO.N,GND*%
X148300000Y-72800000D03*
%TO.P,IC1,7,RESV_3*%
X148800000Y-72800000D03*
D10*
%TO.P,IC1,8,VDD*%
%TO.N,+3V3*%
X149450000Y-72650000D03*
%TO.P,IC1,9,INT2/FSYNC/CLKIN*%
%TO.N,unconnected-(IC1-INT2{slash}FSYNC{slash}CLKIN-Pad9)*%
X149450000Y-72150000D03*
%TO.P,IC1,10,RESV_4*%
%TO.N,unconnected-(IC1-RESV_4-Pad10)*%
X149450000Y-71650000D03*
%TO.P,IC1,11,RESV_5*%
%TO.N,GND*%
X149450000Y-71150000D03*
D11*
%TO.P,IC1,12,AP_CS*%
%TO.N,unconnected-(IC1-AP_CS-Pad12)*%
X148800000Y-71000000D03*
%TO.P,IC1,13,SCL/SCLK*%
%TO.N,SCL*%
X148300000Y-71000000D03*
%TO.P,IC1,14,SDA/SDIO/ASDI*%
%TO.N,SDA*%
X147800000Y-71000000D03*
%TD*%
D12*
%TO.P,R16,1*%
%TO.N,Net-(J1-Pin_8)*%
X119450000Y-95400000D03*
%TO.P,R16,2*%
%TO.N,+3V3*%
X121100000Y-95400000D03*
%TD*%
D13*
%TO.P,J1,1,Pin_1*%
%TO.N,GND*%
X116300000Y-114000000D03*
D14*
%TO.P,J1,2,Pin_2*%
%TO.N,+3V3*%
X116300000Y-111460000D03*
%TO.P,J1,3,Pin_3*%
%TO.N,SPI_SCK*%
X116300000Y-108920000D03*
%TO.P,J1,4,Pin_4*%
%TO.N,SPI_MOSI*%
X116300000Y-106380000D03*
%TO.P,J1,5,Pin_5*%
%TO.N,SPI_MISO*%
X116300000Y-103840000D03*
%TO.P,J1,6,Pin_6*%
%TO.N,GP33*%
X116300000Y-101300000D03*
%TO.P,J1,7,Pin_7*%
%TO.N,CS*%
X116300000Y-98760000D03*
%TO.P,J1,8,Pin_8*%
%TO.N,Net-(J1-Pin_8)*%
X116300000Y-96220000D03*
%TD*%
D15*
%TO.P,SELECT1,1,1*%
%TO.N,SELECT*%
X115050000Y-69800000D03*
%TO.P,SELECT1,2,2*%
%TO.N,GND*%
X115050000Y-68100000D03*
%TO.P,SELECT1,3*%
%TO.N,N/C*%
X120200000Y-69800000D03*
%TO.P,SELECT1,4*%
X120200000Y-68100000D03*
%TD*%
D16*
%TO.P,SW_RST1,1,1*%
%TO.N,GND*%
X133200000Y-61600000D03*
%TO.P,SW_RST1,2,2*%
%TO.N,100*%
X134900000Y-61600000D03*
%TO.P,SW_RST1,3*%
%TO.N,N/C*%
X133200000Y-66750000D03*
%TO.P,SW_RST1,4*%
X134900000Y-66750000D03*
%TD*%
%TO.P,SW_PWR1,1,1*%
%TO.N,GND*%
X123900000Y-61500000D03*
%TO.P,SW_PWR1,2,2*%
%TO.N,Net-(MAX1-In)*%
X125600000Y-61500000D03*
%TO.P,SW_PWR1,3*%
%TO.N,N/C*%
X123900000Y-66650000D03*
%TO.P,SW_PWR1,4*%
X125600000Y-66650000D03*
%TD*%
D15*
%TO.P,MENU1,1,1*%
%TO.N,MENU*%
X115050000Y-63400000D03*
%TO.P,MENU1,2,2*%
%TO.N,GND*%
X115050000Y-61700000D03*
%TO.P,MENU1,3*%
%TO.N,N/C*%
X120200000Y-63400000D03*
%TO.P,MENU1,4*%
X120200000Y-61700000D03*
%TD*%
D16*
%TO.P,BOOT1,1,1*%
%TO.N,GND*%
X151300000Y-61600000D03*
%TO.P,BOOT1,2,2*%
%TO.N,EN*%
X153000000Y-61600000D03*
%TO.P,BOOT1,3*%
%TO.N,N/C*%
X151300000Y-66750000D03*
%TO.P,BOOT1,4*%
X153000000Y-66750000D03*
%TD*%
D17*
%TO.P,U4,1,~{CHRG}*%
%TO.N,Net-(D2-K)*%
X123100000Y-70550000D03*
%TO.P,U4,2,GND*%
%TO.N,GND*%
X123100000Y-71500000D03*
%TO.P,U4,3,BAT*%
%TO.N,VBAT*%
X123100000Y-72450000D03*
%TO.P,U4,4,V_{CC}*%
%TO.N,VBUS*%
X125375000Y-72450000D03*
%TO.P,U4,5,PROG*%
%TO.N,Net-(U4-PROG)*%
X125375000Y-70550000D03*
%TD*%
%TO.P,U3,1,IN*%
%TO.N,VIN*%
X128825000Y-101100000D03*
%TO.P,U3,2,GND*%
%TO.N,GND*%
X128825000Y-102050000D03*
%TO.P,U3,3,EN*%
%TO.N,Net-(U3-EN)*%
X128825000Y-103000000D03*
%TO.P,U3,4,NC*%
%TO.N,unconnected-(U3-NC-Pad4)*%
X131100000Y-103000000D03*
%TO.P,U3,5,OUT*%
%TO.N,+3V3*%
X131100000Y-101100000D03*
%TD*%
D12*
%TO.P,R15,1*%
%TO.N,GND*%
X153750000Y-113600000D03*
%TO.P,R15,2*%
%TO.N,ROW_3*%
X155400000Y-113600000D03*
%TD*%
%TO.P,R14,1*%
%TO.N,GND*%
X153750000Y-110400000D03*
%TO.P,R14,2*%
%TO.N,ROW_2*%
X155400000Y-110400000D03*
%TD*%
%TO.P,R13,1*%
%TO.N,GND*%
X153750000Y-107300000D03*
%TO.P,R13,2*%
%TO.N,ROW_1*%
X155400000Y-107300000D03*
%TD*%
%TO.P,R12,1*%
%TO.N,GND*%
X153750000Y-104200000D03*
%TO.P,R12,2*%
%TO.N,ROW_0*%
X155400000Y-104200000D03*
%TD*%
%TO.P,R11,1*%
%TO.N,GND*%
X139600000Y-103300000D03*
%TO.P,R11,2*%
%TO.N,Net-(Q1-G)*%
X141250000Y-103300000D03*
%TD*%
%TO.P,R10,1*%
%TO.N,Net-(Q1-G)*%
X139600000Y-100300000D03*
%TO.P,R10,2*%
%TO.N,MOT_SIG*%
X141250000Y-100300000D03*
%TD*%
%TO.P,R9,1*%
%TO.N,VBUS*%
X146250000Y-105400000D03*
%TO.P,R9,2*%
%TO.N,GND*%
X147900000Y-105400000D03*
%TD*%
%TO.P,R8,1*%
%TO.N,ADC_BAT*%
X134900000Y-103300000D03*
%TO.P,R8,2*%
%TO.N,GND*%
X136550000Y-103300000D03*
%TD*%
%TO.P,R7,1*%
%TO.N,VBAT*%
X135000000Y-100200000D03*
%TO.P,R7,2*%
%TO.N,ADC_BAT*%
X136650000Y-100200000D03*
%TD*%
D18*
%TO.P,R6,1*%
%TO.N,+3V3*%
X151600000Y-70850000D03*
%TO.P,R6,2*%
%TO.N,EN*%
X151600000Y-69200000D03*
%TD*%
D19*
%TO.P,R5,1*%
%TO.N,VBUS*%
X129400000Y-61750000D03*
%TO.P,R5,2*%
%TO.N,Net-(D2-A)*%
X129400000Y-63400000D03*
%TD*%
D12*
%TO.P,R4,1*%
%TO.N,Net-(U4-PROG)*%
X127650000Y-70600000D03*
%TO.P,R4,2*%
%TO.N,GND*%
X129300000Y-70600000D03*
%TD*%
%TO.P,R3,1*%
%TO.N,Net-(MAX1-CLEAR)*%
X132150000Y-72860000D03*
%TO.P,R3,2*%
%TO.N,GND*%
X133800000Y-72860000D03*
%TD*%
D19*
%TO.P,R2,1*%
%TO.N,Net-(J4-CC1)*%
X143900000Y-69700000D03*
%TO.P,R2,2*%
%TO.N,GND*%
X143900000Y-71350000D03*
%TD*%
%TO.P,R1,1*%
%TO.N,Net-(J4-CC2)*%
X141000000Y-69700000D03*
%TO.P,R1,2*%
%TO.N,GND*%
X141000000Y-71350000D03*
%TD*%
D20*
%TO.P,Q3,1,G*%
%TO.N,PWR_OFF*%
X142850000Y-75375000D03*
%TO.P,Q3,2,S*%
%TO.N,GND*%
X144750000Y-75375000D03*
%TO.P,Q3,3,D*%
%TO.N,Net-(MAX1-In)*%
X143800000Y-73500000D03*
%TD*%
D21*
%TO.P,Q2,1,G*%
%TO.N,VBUS*%
X147600000Y-108100000D03*
%TO.P,Q2,2,S*%
%TO.N,VIN*%
X147600000Y-110000000D03*
%TO.P,Q2,3,D*%
%TO.N,VBAT*%
X149475000Y-109050000D03*
%TD*%
%TO.P,Q1,1,G*%
%TO.N,Net-(Q1-G)*%
X144625000Y-100450000D03*
%TO.P,Q1,2,S*%
%TO.N,GND*%
X144625000Y-102350000D03*
%TO.P,Q1,3,D*%
%TO.N,MotorGND*%
X146500000Y-101400000D03*
%TD*%
D17*
%TO.P,MAX1,1,In*%
%TO.N,Net-(MAX1-In)*%
X135525000Y-70350000D03*
%TO.P,MAX1,2,GND*%
%TO.N,GND*%
X135525000Y-71300000D03*
%TO.P,MAX1,3,CLEAR*%
%TO.N,Net-(MAX1-CLEAR)*%
X135525000Y-72250000D03*
%TO.P,MAX1,4,OU*%
%TO.N,unconnected-(MAX1-OU-Pad4)*%
X137800000Y-72250000D03*
%TO.P,MAX1,5,OUT*%
%TO.N,LDO_EN*%
X137800000Y-71300000D03*
%TO.P,MAX1,6,Vcc*%
%TO.N,VBAT*%
X137800000Y-70350000D03*
%TD*%
D13*
%TO.P,GYRO1,1,Pin_1*%
%TO.N,+3V3*%
X124180000Y-112800000D03*
D14*
%TO.P,GYRO1,2,Pin_2*%
%TO.N,GND*%
X126720000Y-112800000D03*
%TO.P,GYRO1,3,Pin_3*%
%TO.N,SCL*%
X129260000Y-112800000D03*
%TO.P,GYRO1,4,Pin_4*%
%TO.N,SDA*%
X131800000Y-112800000D03*
%TD*%
D22*
%TO.P,J5,1,Pin_1*%
%TO.N,Batt+*%
X154600000Y-93600000D03*
D23*
%TO.P,J5,2,Pin_2*%
%TO.N,MotorGND*%
X154600000Y-95600000D03*
%TD*%
D24*
%TO.P,J4,A1,GND*%
%TO.N,GND*%
X146270000Y-66295000D03*
%TO.P,J4,A4,VBUS*%
%TO.N,VBUS*%
X145470000Y-66295000D03*
D25*
%TO.P,J4,A5,CC1*%
%TO.N,Net-(J4-CC1)*%
X144270000Y-66295000D03*
%TO.P,J4,A6,D+*%
%TO.N,D+*%
X143270000Y-66295000D03*
%TO.P,J4,A7,D-*%
%TO.N,D-*%
X142770000Y-66295000D03*
%TO.P,J4,A8,SBU1*%
%TO.N,unconnected-(J4-SBU1-PadA8)*%
X141770000Y-66295000D03*
D24*
%TO.P,J4,A9,VBUS*%
%TO.N,VBUS*%
X140570000Y-66295000D03*
%TO.P,J4,A12,GND*%
%TO.N,GND*%
X139770000Y-66295000D03*
%TO.P,J4,B1,GND*%
X139770000Y-66295000D03*
%TO.P,J4,B4,VBUS*%
%TO.N,VBUS*%
X140570000Y-66295000D03*
D25*
%TO.P,J4,B5,CC2*%
%TO.N,Net-(J4-CC2)*%
X141270000Y-66295000D03*
%TO.P,J4,B6,D+*%
%TO.N,D+*%
X142270000Y-66295000D03*
%TO.P,J4,B7,D-*%
%TO.N,D-*%
X143770000Y-66295000D03*
%TO.P,J4,B8,SBU2*%
%TO.N,unconnected-(J4-SBU2-PadB8)*%
X144770000Y-66295000D03*
D24*
%TO.P,J4,B9,VBUS*%
%TO.N,VBUS*%
X145470000Y-66295000D03*
%TO.P,J4,B12,GND*%
%TO.N,GND*%
X146270000Y-66295000D03*
D26*
%TO.P,J4,S1,SHIELD*%
X147340000Y-65380000D03*
D27*
X147340000Y-61200000D03*
D26*
X138700000Y-65380000D03*
D27*
X138700000Y-61200000D03*
%TD*%
D13*
%TO.P,J3,1,Pin_1*%
%TO.N,GND*%
X158200000Y-61840000D03*
D14*
%TO.P,J3,2,Pin_2*%
%TO.N,+3V3*%
X158200000Y-64380000D03*
%TO.P,J3,3,Pin_3*%
%TO.N,COL_0*%
X158200000Y-66920000D03*
%TO.P,J3,4,Pin_4*%
%TO.N,COL_1*%
X158200000Y-69460000D03*
%TO.P,J3,5,Pin_5*%
%TO.N,COL_2*%
X158200000Y-72000000D03*
%TO.P,J3,6,Pin_6*%
%TO.N,COL_3*%
X158200000Y-74540000D03*
%TO.P,J3,7,Pin_7*%
%TO.N,COL_4*%
X158200000Y-77080000D03*
%TO.P,J3,8,Pin_8*%
%TO.N,COL_5*%
X158200000Y-79620000D03*
%TO.P,J3,9,Pin_9*%
%TO.N,COL_6*%
X158200000Y-82160000D03*
%TO.P,J3,10,Pin_10*%
%TO.N,COL_7*%
X158200000Y-84700000D03*
%TO.P,J3,11,Pin_11*%
%TO.N,COL_8*%
X158200000Y-87240000D03*
%TO.P,J3,12,Pin_12*%
%TO.N,COL_9*%
X158200000Y-89780000D03*
%TO.P,J3,13,Pin_13*%
%TO.N,COL_10*%
X158200000Y-92320000D03*
%TO.P,J3,14,Pin_14*%
%TO.N,COL_11*%
X158200000Y-94860000D03*
%TO.P,J3,15,Pin_15*%
%TO.N,COL_12*%
X158200000Y-97400000D03*
%TO.P,J3,16,Pin_16*%
%TO.N,COL_13*%
X158200000Y-99940000D03*
%TO.P,J3,17,Pin_17*%
%TO.N,COL_14*%
X158200000Y-102480000D03*
%TO.P,J3,18,Pin_18*%
%TO.N,ROW_0*%
X158200000Y-105020000D03*
%TO.P,J3,19,Pin_19*%
%TO.N,ROW_1*%
X158200000Y-107560000D03*
%TO.P,J3,20,Pin_20*%
%TO.N,ROW_2*%
X158200000Y-110100000D03*
%TO.P,J3,21,Pin_21*%
%TO.N,ROW_3*%
X158200000Y-112640000D03*
%TD*%
D13*
%TO.P,SCRN1,1,Pin_1*%
%TO.N,GND*%
X153300000Y-77760000D03*
D14*
%TO.P,SCRN1,2,Pin_2*%
%TO.N,+3V3*%
X153300000Y-80300000D03*
%TO.P,SCRN1,3,Pin_3*%
%TO.N,SCL*%
X153300000Y-82840000D03*
%TO.P,SCRN1,4,Pin_4*%
%TO.N,SDA*%
X153300000Y-85380000D03*
%TD*%
D28*
%TO.P,D4,1,K*%
%TO.N,Batt+*%
X147200000Y-97500000D03*
%TO.P,D4,2,A*%
%TO.N,MotorGND*%
X150500000Y-97500000D03*
%TD*%
D21*
%TO.P,D3,1*%
%TO.N,LDO_EN*%
X123725000Y-97450000D03*
%TO.P,D3,2*%
%TO.N,VBUS*%
X123725000Y-99350000D03*
%TO.P,D3,3*%
%TO.N,Net-(U3-EN)*%
X125600000Y-98400000D03*
%TD*%
D29*
%TO.P,D2,1,K*%
%TO.N,Net-(D2-K)*%
X129400000Y-67500000D03*
%TO.P,D2,2,A*%
%TO.N,Net-(D2-A)*%
X129400000Y-65625000D03*
%TD*%
D30*
%TO.P,D1,1,K*%
%TO.N,VIN*%
X146300000Y-113100000D03*
%TO.P,D1,2,A*%
%TO.N,VBUS*%
X149100000Y-113100000D03*
%TD*%
D31*
%TO.P,C11,1*%
%TO.N,+3V3*%
X147950000Y-76230000D03*
%TO.P,C11,2*%
%TO.N,GND*%
X149500000Y-76230000D03*
%TD*%
%TO.P,C10,1*%
%TO.N,+3V3*%
X153050000Y-72700000D03*
%TO.P,C10,2*%
%TO.N,GND*%
X154600000Y-72700000D03*
%TD*%
%TO.P,C9,1*%
%TO.N,MotorGND*%
X149450000Y-101400000D03*
%TO.P,C9,2*%
%TO.N,Batt+*%
X151000000Y-101400000D03*
%TD*%
D32*
%TO.P,C8,1*%
%TO.N,GND*%
X129200000Y-73000000D03*
%TO.P,C8,2*%
%TO.N,VBUS*%
X127650000Y-73000000D03*
%TD*%
D33*
%TO.P,C7,1*%
%TO.N,+3V3*%
X130800000Y-97600000D03*
%TO.P,C7,2*%
%TO.N,GND*%
X128900000Y-97600000D03*
%TD*%
D34*
%TO.P,C6,1*%
%TO.N,VIN*%
X123900000Y-102700000D03*
%TO.P,C6,2*%
%TO.N,GND*%
X125800000Y-102700000D03*
%TD*%
D35*
%TO.P,C5,1*%
%TO.N,GND*%
X153940000Y-69400000D03*
%TO.P,C5,2*%
%TO.N,EN*%
X154900000Y-69400000D03*
%TD*%
D36*
%TO.P,U2,1,GND*%
%TO.N,GND*%
X123620000Y-93900000D03*
%TO.P,U2,2,3V3*%
%TO.N,+3V3*%
X124890000Y-93900000D03*
%TO.P,U2,3,EN*%
%TO.N,EN*%
X126160000Y-93900000D03*
%TO.P,U2,4,IO4*%
%TO.N,ROW_3*%
X127430000Y-93900000D03*
%TO.P,U2,5,IO5*%
%TO.N,S0*%
X128700000Y-93900000D03*
%TO.P,U2,6,IO6*%
%TO.N,S1*%
X129970000Y-93900000D03*
%TO.P,U2,7,IO7*%
%TO.N,S2*%
X131240000Y-93900000D03*
%TO.P,U2,8,IO15*%
%TO.N,S3*%
X132510000Y-93900000D03*
%TO.P,U2,9,IO16*%
%TO.N,GP16_E*%
X133780000Y-93900000D03*
%TO.P,U2,10,IO17*%
%TO.N,MOT_SIG*%
X135050000Y-93900000D03*
%TO.P,U2,11,IO18*%
%TO.N,ADC_BAT*%
X136320000Y-93900000D03*
%TO.P,U2,12,IO8*%
%TO.N,SDA*%
X137590000Y-93900000D03*
%TO.P,U2,13,IO19*%
%TO.N,D-*%
X138860000Y-93900000D03*
%TO.P,U2,14,IO20*%
%TO.N,D+*%
X140130000Y-93900000D03*
D37*
%TO.P,U2,15,IO3*%
%TO.N,ROW_2*%
X141380000Y-92135000D03*
%TO.P,U2,16,IO46*%
%TO.N,unconnected-(U2-IO46-Pad16)*%
X141380000Y-90865000D03*
%TO.P,U2,17,IO9*%
%TO.N,SCL*%
X141380000Y-89595000D03*
%TO.P,U2,18,IO10*%
%TO.N,SELECT*%
X141380000Y-88325000D03*
%TO.P,U2,19,IO11*%
%TO.N,SPI_MISO*%
X141380000Y-87055000D03*
%TO.P,U2,20,IO12*%
%TO.N,SPI_SCK*%
X141380000Y-85785000D03*
%TO.P,U2,21,IO13*%
%TO.N,SPI_MOSI*%
X141380000Y-84515000D03*
%TO.P,U2,22,IO14*%
%TO.N,CS*%
X141380000Y-83245000D03*
%TO.P,U2,23,IO21*%
%TO.N,MENU*%
X141380000Y-81975000D03*
%TO.P,U2,24,IO47*%
%TO.N,unconnected-(U2-IO47-Pad24)*%
X141380000Y-80705000D03*
%TO.P,U2,25,IO48*%
%TO.N,unconnected-(U2-IO48-Pad25)*%
X141380000Y-79435000D03*
%TO.P,U2,26,IO45*%
%TO.N,PWR_OFF*%
X141380000Y-78165000D03*
D36*
%TO.P,U2,27,IO0*%
%TO.N,100*%
X140130000Y-76400000D03*
%TO.P,U2,28,IO35*%
%TO.N,unconnected-(U2-IO35-Pad28)*%
X138860000Y-76400000D03*
%TO.P,U2,29,IO36*%
%TO.N,unconnected-(U2-IO36-Pad29)*%
X137590000Y-76400000D03*
%TO.P,U2,30,IO37*%
%TO.N,unconnected-(U2-IO37-Pad30)*%
X136320000Y-76400000D03*
%TO.P,U2,31,IO38*%
%TO.N,unconnected-(U2-IO38-Pad31)*%
X135050000Y-76400000D03*
%TO.P,U2,32,IO39*%
%TO.N,unconnected-(U2-IO39-Pad32)*%
X133780000Y-76400000D03*
%TO.P,U2,33,IO40*%
%TO.N,GP33*%
X132510000Y-76400000D03*
%TO.P,U2,34,IO41*%
%TO.N,GP34*%
X131240000Y-76400000D03*
%TO.P,U2,35,IO42*%
%TO.N,unconnected-(U2-IO42-Pad35)*%
X129970000Y-76400000D03*
%TO.P,U2,36,RXD0*%
%TO.N,RX*%
X128700000Y-76400000D03*
%TO.P,U2,37,TXD0*%
%TO.N,TX*%
X127430000Y-76400000D03*
%TO.P,U2,38,IO2*%
%TO.N,ROW_1*%
X126160000Y-76400000D03*
%TO.P,U2,39,IO1*%
%TO.N,ROW_0*%
X124890000Y-76400000D03*
%TO.P,U2,40,GND*%
%TO.N,GND*%
X123620000Y-76400000D03*
D38*
%TO.P,U2,45*%
%TO.N,N/C*%
X132740000Y-86650000D03*
%TO.P,U2,41,GND*%
%TO.N,GND*%
X131340000Y-86650000D03*
%TO.P,U2,42*%
%TO.N,N/C*%
X129940000Y-88050000D03*
%TO.P,U2,43*%
X131340000Y-88050000D03*
%TO.P,U2,44*%
X132740000Y-88050000D03*
%TO.P,U2,46,GND*%
%TO.N,GND*%
X132740000Y-85250000D03*
%TO.P,U2,47,GND*%
X131340000Y-85250000D03*
%TO.P,U2,48,GND*%
X129940000Y-85250000D03*
%TO.P,U2,49,GND*%
X129940000Y-86650000D03*
%TD*%
D39*
%TO.N,+3V3*%
X135100000Y-91400000D03*
%TO.N,GND*%
X149200000Y-61200000D03*
X153270000Y-70070000D03*
%TO.N,GP33*%
X142100000Y-68800000D03*
%TO.N,GND*%
X149600000Y-73600000D03*
%TO.N,SDA*%
X142500000Y-98400000D03*
X145224971Y-98624971D03*
%TO.N,SPI_MISO*%
X139500000Y-95700000D03*
X139900000Y-90300000D03*
%TO.N,GP33*%
X129100000Y-78500000D03*
X117850000Y-74550000D03*
%TO.N,SELECT*%
X116900000Y-69500000D03*
X137300000Y-66700000D03*
%TO.N,GND*%
X114024000Y-65700000D03*
%TO.N,SCL*%
X149400000Y-82840000D03*
%TO.N,SDA*%
X149600000Y-85500000D03*
%TO.N,GND*%
X134600000Y-78200000D03*
%TO.N,EN*%
X127600000Y-83200000D03*
X148100000Y-68300000D03*
%TO.N,GND*%
X129500000Y-60700000D03*
%TO.N,LDO_EN*%
X131000000Y-69200000D03*
X120100000Y-96900000D03*
%TO.N,GND*%
X127300000Y-102050000D03*
%TO.N,ADC_BAT*%
X139200000Y-91400000D03*
X134600000Y-95500000D03*
%TO.N,EN*%
X126100000Y-85400000D03*
%TO.N,+3V3*%
X125200000Y-92100000D03*
%TO.N,GND*%
X126977100Y-97600000D03*
%TO.N,+3V3*%
X133000000Y-101900000D03*
%TO.N,D+*%
X141000000Y-98600000D03*
%TO.N,D-*%
X139500000Y-97702000D03*
%TO.N,D+*%
X143200000Y-64600000D03*
%TO.N,D-*%
X142900000Y-68200000D03*
%TO.N,GND*%
X121600000Y-71500000D03*
X129300000Y-71800000D03*
X134342500Y-71842500D03*
%TO.N,Net-(MAX1-In)*%
X135100000Y-69400000D03*
X141000000Y-72700000D03*
%TO.N,VBAT*%
X124300000Y-74200000D03*
X139500000Y-74200000D03*
X148000000Y-114349000D03*
X133800000Y-100900000D03*
%TO.N,GND*%
X138000000Y-103300000D03*
X145787500Y-103512500D03*
%TO.N,VBUS*%
X133500000Y-99100000D03*
X146200000Y-108000000D03*
X126750000Y-71750000D03*
X134050000Y-64450000D03*
X145800000Y-67800000D03*
X142020000Y-63920000D03*
X144750000Y-63550000D03*
%TO.N,Batt+*%
X148950000Y-99250000D03*
%TO.N,GND*%
X131340000Y-83800000D03*
%TO.N,ROW_1*%
X125200000Y-80000000D03*
%TO.N,ROW_0*%
X124890000Y-78390000D03*
%TO.N,ROW_2*%
X145300000Y-97700000D03*
%TO.N,ROW_3*%
X127700000Y-95500000D03*
%TO.N,+3V3*%
X149700000Y-90600000D03*
%TO.N,GP16_E*%
X133700000Y-91700000D03*
%TO.N,S2*%
X131400000Y-90600000D03*
%TO.N,S3*%
X132600000Y-89700000D03*
%TO.N,S1*%
X127600000Y-90400000D03*
%TO.N,S0*%
X128600000Y-91600000D03*
%TO.N,GND*%
X142500000Y-71350000D03*
X153750000Y-112100000D03*
X153750000Y-108900000D03*
X153750000Y-105700000D03*
%TD*%
D40*
%TO.N,Net-(D2-A)*%
X129400000Y-63400000D02*
X129400000Y-65625000D01*
%TO.N,GND*%
X149200000Y-61200000D02*
X150900000Y-61200000D01*
X150900000Y-61200000D02*
X151300000Y-61600000D01*
X147340000Y-61200000D02*
X149200000Y-61200000D01*
D41*
X138700000Y-65380000D02*
X138700000Y-61200000D01*
D40*
X153270000Y-70070000D02*
X153940000Y-69400000D01*
%TO.N,+3V3*%
X152020000Y-80300000D02*
X147950000Y-76230000D01*
X153300000Y-80300000D02*
X152020000Y-80300000D01*
X147800000Y-76080000D02*
X147950000Y-76230000D01*
X147800000Y-72800000D02*
X147800000Y-76080000D01*
%TO.N,SCL*%
X148300000Y-70448000D02*
X148300000Y-71000000D01*
X148150000Y-70298000D02*
X148300000Y-70448000D01*
X146382900Y-70298000D02*
X148150000Y-70298000D01*
X146099000Y-70581900D02*
X146382900Y-70298000D01*
X146099000Y-79539000D02*
X146099000Y-70581900D01*
X149400000Y-82840000D02*
X146099000Y-79539000D01*
%TO.N,SDA*%
X150001000Y-85099000D02*
X149600000Y-85500000D01*
X146800000Y-79390057D02*
X150001000Y-82591057D01*
X146800000Y-75400000D02*
X146800000Y-79390057D01*
X147751000Y-70699000D02*
X146549000Y-70699000D01*
X146549000Y-70699000D02*
X146500000Y-70748000D01*
X147800000Y-70748000D02*
X147751000Y-70699000D01*
X146500000Y-70748000D02*
X146500000Y-75100000D01*
X146500000Y-75100000D02*
X146800000Y-75400000D01*
X147800000Y-71000000D02*
X147800000Y-70748000D01*
X150001000Y-82591057D02*
X150001000Y-85099000D01*
%TO.N,GND*%
X149250000Y-73250000D02*
X149600000Y-73600000D01*
X148450000Y-73250000D02*
X149250000Y-73250000D01*
X148450000Y-73250000D02*
X148350000Y-73350000D01*
X151770000Y-76230000D02*
X153300000Y-77760000D01*
X149500000Y-76230000D02*
X151770000Y-76230000D01*
%TO.N,SDA*%
X145000000Y-98400000D02*
X142500000Y-98400000D01*
X145224971Y-98624971D02*
X145000000Y-98400000D01*
X145224971Y-98624971D02*
X144648943Y-99201000D01*
%TO.N,SPI_MISO*%
X125671000Y-110071000D02*
X116776760Y-110071000D01*
X128109000Y-112509000D02*
X125671000Y-110071000D01*
X128109000Y-113276760D02*
X128109000Y-112509000D01*
X128783240Y-113951000D02*
X128109000Y-113276760D01*
X129551000Y-113951000D02*
X128783240Y-113951000D01*
X130550000Y-114950000D02*
X129551000Y-113951000D01*
X148636160Y-114950000D02*
X130550000Y-114950000D01*
X151064500Y-112521660D02*
X148636160Y-114950000D01*
X151064500Y-107375436D02*
X151064500Y-112521660D01*
X145403468Y-101714404D02*
X151064500Y-107375436D01*
X145403468Y-101051000D02*
X145403468Y-101714404D01*
X145663500Y-100790968D02*
X145403468Y-101051000D01*
X145403468Y-99849000D02*
X145663500Y-100109032D01*
X145663500Y-100109032D02*
X145663500Y-100790968D01*
X143291064Y-99293532D02*
X143846532Y-99849000D01*
X140606468Y-99293532D02*
X143291064Y-99293532D01*
X140101000Y-98788064D02*
X140606468Y-99293532D01*
X143846532Y-99849000D02*
X145403468Y-99849000D01*
X140101000Y-96301000D02*
X140101000Y-98788064D01*
X139500000Y-95700000D02*
X140101000Y-96301000D01*
X115149000Y-104991000D02*
X116300000Y-103840000D01*
X115149000Y-109396760D02*
X115149000Y-104991000D01*
X116776760Y-110071000D02*
X115823240Y-110071000D01*
X115823240Y-110071000D02*
X115149000Y-109396760D01*
%TO.N,D+*%
X140436400Y-95555557D02*
X141000000Y-96119157D01*
X141000000Y-96119157D02*
X141000000Y-98600000D01*
X140130000Y-95230000D02*
X140436400Y-95536400D01*
X140130000Y-93900000D02*
X140130000Y-95230000D01*
X140436400Y-95536400D02*
X140436400Y-95555557D01*
%TO.N,SPI_MISO*%
X139900000Y-90300000D02*
X139900000Y-90500000D01*
X139900000Y-88047300D02*
X139900000Y-90300000D01*
X140892300Y-87055000D02*
X139900000Y-88047300D01*
X141380000Y-87055000D02*
X140892300Y-87055000D01*
%TO.N,GP33*%
X132510000Y-76742900D02*
X132510000Y-76400000D01*
X130752900Y-78500000D02*
X132510000Y-76742900D01*
X129100000Y-78500000D02*
X130752900Y-78500000D01*
X117850000Y-74550000D02*
X117900000Y-74500000D01*
X114347000Y-78053000D02*
X117850000Y-74550000D01*
X114347000Y-99347000D02*
X114347000Y-78053000D01*
X116300000Y-101300000D02*
X114347000Y-99347000D01*
%TO.N,CS*%
X140933000Y-82798000D02*
X141380000Y-83245000D01*
X130128900Y-82798000D02*
X140933000Y-82798000D01*
X126203000Y-81797000D02*
X129127900Y-81797000D01*
X114748000Y-97208000D02*
X114748000Y-93252000D01*
X114748000Y-93252000D02*
X126203000Y-81797000D01*
X129127900Y-81797000D02*
X130128900Y-82798000D01*
X116300000Y-98760000D02*
X114748000Y-97208000D01*
%TO.N,SPI_MOSI*%
X135985000Y-84515000D02*
X141380000Y-84515000D01*
X134900000Y-85600000D02*
X135985000Y-84515000D01*
X132499000Y-83199000D02*
X134900000Y-85600000D01*
X130301000Y-83199000D02*
X132499000Y-83199000D01*
X129800000Y-83700000D02*
X130301000Y-83199000D01*
X128298000Y-82198000D02*
X129800000Y-83700000D01*
X126802000Y-82198000D02*
X128298000Y-82198000D01*
X115149000Y-96696760D02*
X115149000Y-93851000D01*
X115852240Y-97400000D02*
X115149000Y-96696760D01*
X118300000Y-97400000D02*
X115852240Y-97400000D01*
X115149000Y-93851000D02*
X126802000Y-82198000D01*
X118300000Y-104380000D02*
X118300000Y-97400000D01*
X116300000Y-106380000D02*
X118300000Y-104380000D01*
%TO.N,SPI_SCK*%
X137115000Y-85785000D02*
X141380000Y-85785000D01*
X134000000Y-88900000D02*
X137115000Y-85785000D01*
X129299000Y-88900000D02*
X134000000Y-88900000D01*
X129194500Y-88795500D02*
X129299000Y-88900000D01*
X129194500Y-83944557D02*
X129194500Y-88795500D01*
X127351057Y-82599000D02*
X127848943Y-82599000D01*
X120151000Y-89799057D02*
X127351057Y-82599000D01*
X119036936Y-97002128D02*
X120151000Y-95888064D01*
X127848943Y-82599000D02*
X129194500Y-83944557D01*
X119036936Y-106183064D02*
X119036936Y-97002128D01*
X120151000Y-95888064D02*
X120151000Y-89799057D01*
X116300000Y-108920000D02*
X119036936Y-106183064D01*
%TO.N,+3V3*%
X123662300Y-92100000D02*
X125200000Y-92100000D01*
X121100000Y-94662300D02*
X123662300Y-92100000D01*
X121100000Y-95400000D02*
X121100000Y-94662300D01*
%TO.N,Net-(J1-Pin_8)*%
X119450000Y-95400000D02*
X117120000Y-95400000D01*
X117120000Y-95400000D02*
X116300000Y-96220000D01*
%TO.N,SELECT*%
X115350000Y-69500000D02*
X115050000Y-69800000D01*
X116900000Y-69500000D02*
X115350000Y-69500000D01*
X139801000Y-69201000D02*
X137300000Y-66700000D01*
X139801000Y-72701000D02*
X139801000Y-69201000D01*
X140800000Y-73700000D02*
X139801000Y-72701000D01*
%TO.N,100*%
X136400000Y-63100000D02*
X134900000Y-61600000D01*
X136400000Y-67500000D02*
X136400000Y-63100000D01*
X139400000Y-70500000D02*
X136400000Y-67500000D01*
X140101000Y-73951057D02*
X139400000Y-73250057D01*
X139748943Y-74801000D02*
X140101000Y-74448943D01*
X140101000Y-74448943D02*
X140101000Y-73951057D01*
X139700000Y-74801000D02*
X139748943Y-74801000D01*
X139400000Y-73250057D02*
X139400000Y-70500000D01*
X140130000Y-76400000D02*
X139700000Y-75970000D01*
X139700000Y-75970000D02*
X139700000Y-74801000D01*
D42*
%TO.N,VBAT*%
X138462499Y-70350000D02*
X137800000Y-70350000D01*
X138900000Y-70787501D02*
X138462499Y-70350000D01*
X138900000Y-73600000D02*
X138900000Y-70787501D01*
X139500000Y-74200000D02*
X138900000Y-73600000D01*
D40*
%TO.N,SELECT*%
X142554468Y-73700000D02*
X140800000Y-73700000D01*
X143451000Y-74596532D02*
X142554468Y-73700000D01*
X143451000Y-86596900D02*
X143451000Y-74596532D01*
X141722900Y-88325000D02*
X143451000Y-86596900D01*
X141380000Y-88325000D02*
X141722900Y-88325000D01*
%TO.N,GND*%
X114024000Y-65700000D02*
X114024000Y-62726000D01*
X114024000Y-62726000D02*
X115050000Y-61700000D01*
X114024000Y-67074000D02*
X114024000Y-65700000D01*
X115050000Y-68100000D02*
X114024000Y-67074000D01*
%TO.N,MENU*%
X119174000Y-67524000D02*
X115050000Y-63400000D01*
X119174000Y-79476000D02*
X119174000Y-67524000D01*
X120299000Y-80601000D02*
X119174000Y-79476000D01*
%TO.N,SDA*%
X137590000Y-93412300D02*
X137590000Y-93900000D01*
X138152600Y-92849700D02*
X137590000Y-93412300D01*
X140837400Y-92849700D02*
X138152600Y-92849700D01*
X144648943Y-99201000D02*
X140837400Y-95389457D01*
X145901000Y-89199000D02*
X145901000Y-97948943D01*
X149600000Y-85500000D02*
X145901000Y-89199000D01*
X145901000Y-97948943D02*
X145224971Y-98624971D01*
X140837400Y-95389457D02*
X140837400Y-92849700D01*
%TO.N,SCL*%
X142645000Y-89595000D02*
X141380000Y-89595000D01*
X149400000Y-82840000D02*
X142645000Y-89595000D01*
%TO.N,EN*%
X127600000Y-83900000D02*
X126100000Y-85400000D01*
X127600000Y-83200000D02*
X127600000Y-83900000D01*
X126160000Y-85760000D02*
X126160000Y-93900000D01*
X126100000Y-85700000D02*
X126160000Y-85760000D01*
X126100000Y-85400000D02*
X126100000Y-85700000D01*
X149000000Y-69200000D02*
X148100000Y-68300000D01*
X151600000Y-69200000D02*
X149000000Y-69200000D01*
X153801000Y-62401000D02*
X153000000Y-61600000D01*
X152377000Y-69200000D02*
X153801000Y-67776000D01*
X153801000Y-67776000D02*
X153801000Y-62401000D01*
X151600000Y-69200000D02*
X152377000Y-69200000D01*
X152011000Y-68789000D02*
X151600000Y-69200000D01*
X154289000Y-68789000D02*
X152011000Y-68789000D01*
X154900000Y-69400000D02*
X154289000Y-68789000D01*
%TO.N,GND*%
X153940000Y-72040000D02*
X154600000Y-72700000D01*
X153940000Y-69400000D02*
X153940000Y-72040000D01*
X150451000Y-70149000D02*
X153191000Y-70149000D01*
X149450000Y-71150000D02*
X150451000Y-70149000D01*
X153191000Y-70149000D02*
X153270000Y-70070000D01*
X148300000Y-73300000D02*
X148350000Y-73350000D01*
X148300000Y-72800000D02*
X148300000Y-73300000D01*
X148800000Y-72900000D02*
X148450000Y-73250000D01*
X148800000Y-72800000D02*
X148800000Y-72900000D01*
%TO.N,+3V3*%
X151480000Y-72700000D02*
X147950000Y-76230000D01*
X153050000Y-72700000D02*
X151480000Y-72700000D01*
X151600000Y-71250000D02*
X153050000Y-72700000D01*
X151600000Y-70850000D02*
X151600000Y-71250000D01*
X153000000Y-72650000D02*
X153050000Y-72700000D01*
X149450000Y-72650000D02*
X153000000Y-72650000D01*
%TO.N,GND*%
X121600000Y-74380000D02*
X121600000Y-71500000D01*
X123620000Y-76400000D02*
X121600000Y-74380000D01*
X129500000Y-60700000D02*
X132300000Y-60700000D01*
X126401000Y-60474000D02*
X126401000Y-60700000D01*
X124799000Y-60474000D02*
X126401000Y-60474000D01*
X126401000Y-60700000D02*
X129500000Y-60700000D01*
X132300000Y-60700000D02*
X133200000Y-61600000D01*
X124799000Y-60700000D02*
X124799000Y-60474000D01*
X124700000Y-60700000D02*
X124799000Y-60700000D01*
X123900000Y-61500000D02*
X124700000Y-60700000D01*
%TO.N,Net-(MAX1-In)*%
X125600000Y-63302146D02*
X125600000Y-61500000D01*
X128711354Y-66413500D02*
X125600000Y-63302146D01*
X129790646Y-66413500D02*
X128711354Y-66413500D01*
X130401000Y-67023854D02*
X129790646Y-66413500D01*
X130401000Y-67976146D02*
X130401000Y-67023854D01*
X130100000Y-68277146D02*
X130401000Y-67976146D01*
X130100000Y-69801000D02*
X130100000Y-68277146D01*
X134699000Y-69801000D02*
X130100000Y-69801000D01*
X135100000Y-69400000D02*
X134699000Y-69801000D01*
%TO.N,Net-(D2-K)*%
X123351000Y-70550000D02*
X126401000Y-67500000D01*
X126401000Y-67500000D02*
X129400000Y-67500000D01*
X123100000Y-70550000D02*
X123351000Y-70550000D01*
%TO.N,Net-(U4-PROG)*%
X125425000Y-70600000D02*
X125375000Y-70550000D01*
X127650000Y-70600000D02*
X125425000Y-70600000D01*
%TO.N,Net-(MAX1-CLEAR)*%
X132926000Y-73636000D02*
X132150000Y-72860000D01*
X134213064Y-73636000D02*
X132926000Y-73636000D01*
X135525000Y-72324064D02*
X134213064Y-73636000D01*
X135525000Y-72250000D02*
X135525000Y-72324064D01*
%TO.N,LDO_EN*%
X137445532Y-71300000D02*
X137800000Y-71300000D01*
X136836500Y-70690968D02*
X137445532Y-71300000D01*
X135599000Y-68799000D02*
X136836500Y-70036500D01*
X131401000Y-68799000D02*
X135599000Y-68799000D01*
X136836500Y-70036500D02*
X136836500Y-70690968D01*
X131000000Y-69200000D02*
X131401000Y-68799000D01*
X120650000Y-97450000D02*
X120100000Y-96900000D01*
X123725000Y-97450000D02*
X120650000Y-97450000D01*
%TO.N,Net-(U3-EN)*%
X123295532Y-98400000D02*
X125600000Y-98400000D01*
X122686500Y-99009032D02*
X123295532Y-98400000D01*
X122686500Y-99690968D02*
X122686500Y-99009032D01*
X122946532Y-99951000D02*
X122686500Y-99690968D01*
X128980468Y-99951000D02*
X122946532Y-99951000D01*
X129788500Y-100759032D02*
X128980468Y-99951000D01*
X129788500Y-102698999D02*
X129788500Y-100759032D01*
X129487499Y-103000000D02*
X129788500Y-102698999D01*
X128825000Y-103000000D02*
X129487499Y-103000000D01*
%TO.N,GND*%
X127300000Y-102050000D02*
X126450000Y-102050000D01*
X128825000Y-102050000D02*
X127300000Y-102050000D01*
X126450000Y-102050000D02*
X125800000Y-102700000D01*
%TO.N,MENU*%
X141246185Y-81841185D02*
X141380000Y-81975000D01*
X129739185Y-81841185D02*
X141246185Y-81841185D01*
X128499000Y-80601000D02*
X129739185Y-81841185D01*
X120299000Y-80601000D02*
X128499000Y-80601000D01*
%TO.N,ADC_BAT*%
X136320000Y-93557100D02*
X136320000Y-93900000D01*
X138477100Y-91400000D02*
X136320000Y-93557100D01*
X139200000Y-91400000D02*
X138477100Y-91400000D01*
X136650000Y-97550000D02*
X134600000Y-95500000D01*
X136650000Y-100200000D02*
X136650000Y-97550000D01*
X136650000Y-101450000D02*
X136650000Y-100200000D01*
X134900000Y-103200000D02*
X136650000Y-101450000D01*
X134900000Y-103300000D02*
X134900000Y-103200000D01*
%TO.N,VIN*%
X126800000Y-105600000D02*
X123900000Y-102700000D01*
X133000000Y-105600000D02*
X126800000Y-105600000D01*
X138700000Y-111300000D02*
X133000000Y-105600000D01*
X146300000Y-111300000D02*
X138700000Y-111300000D01*
%TO.N,+3V3*%
X124890000Y-92410000D02*
X125200000Y-92100000D01*
X124890000Y-93900000D02*
X124890000Y-92410000D01*
%TO.N,GND*%
X123620000Y-94242900D02*
X123620000Y-93900000D01*
X126977100Y-97600000D02*
X123620000Y-94242900D01*
X128900000Y-97600000D02*
X126977100Y-97600000D01*
%TO.N,+3V3*%
X132349943Y-101249943D02*
X133000000Y-101900000D01*
X132349943Y-101100000D02*
X132349943Y-101249943D01*
X134101000Y-98851057D02*
X132849943Y-97600000D01*
X134101000Y-99348943D02*
X134101000Y-98851057D01*
X132849943Y-97600000D02*
X130800000Y-97600000D01*
X132349943Y-101100000D02*
X134101000Y-99348943D01*
X131100000Y-101100000D02*
X132349943Y-101100000D01*
%TO.N,VIN*%
X125500000Y-101100000D02*
X123900000Y-102700000D01*
X128825000Y-101100000D02*
X125500000Y-101100000D01*
%TO.N,D-*%
X138860000Y-97062000D02*
X139500000Y-97702000D01*
X138860000Y-93900000D02*
X138860000Y-97062000D01*
X143300000Y-67800000D02*
X142900000Y-68200000D01*
X143300000Y-67321000D02*
X143300000Y-67800000D01*
X142819000Y-67321000D02*
X143300000Y-67321000D01*
%TO.N,D+*%
X142900000Y-65269000D02*
X142900000Y-64900000D01*
X142900000Y-64900000D02*
X143200000Y-64600000D01*
X142900000Y-65269000D02*
X143269000Y-65269000D01*
%TO.N,GND*%
X123100000Y-71500000D02*
X121600000Y-71500000D01*
X129300000Y-71800000D02*
X129300000Y-72900000D01*
X134342500Y-71842500D02*
X134885000Y-71300000D01*
X129300000Y-72900000D02*
X129200000Y-73000000D01*
X129300000Y-70600000D02*
X129300000Y-71800000D01*
X134885000Y-71300000D02*
X135525000Y-71300000D01*
X133800000Y-72385000D02*
X134342500Y-71842500D01*
X133800000Y-72860000D02*
X133800000Y-72385000D01*
%TO.N,Net-(MAX1-In)*%
X135100000Y-69925000D02*
X135525000Y-70350000D01*
X135100000Y-69400000D02*
X135100000Y-69925000D01*
X143000000Y-72700000D02*
X141000000Y-72700000D01*
X143800000Y-73500000D02*
X143000000Y-72700000D01*
%TO.N,GND*%
X143029468Y-71350000D02*
X142500000Y-71350000D01*
X144750000Y-73070532D02*
X143029468Y-71350000D01*
X144750000Y-75375000D02*
X144750000Y-73070532D01*
D42*
%TO.N,VBAT*%
X124300000Y-73650000D02*
X123100000Y-72450000D01*
X124300000Y-74200000D02*
X124300000Y-73650000D01*
D40*
X148100000Y-114249000D02*
X148000000Y-114349000D01*
X148636160Y-111300000D02*
X148100000Y-111300000D01*
X149475000Y-110461160D02*
X148636160Y-111300000D01*
X149475000Y-109050000D02*
X149475000Y-110461160D01*
X148100000Y-111300000D02*
X148100000Y-114249000D01*
D43*
%TO.N,VBUS*%
X150588500Y-108677966D02*
X150588500Y-111611500D01*
X150588500Y-111611500D02*
X149100000Y-113100000D01*
X150010534Y-108100000D02*
X150588500Y-108677966D01*
X147600000Y-108100000D02*
X150010534Y-108100000D01*
D40*
%TO.N,VIN*%
X146300000Y-111300000D02*
X146300000Y-113100000D01*
X147600000Y-110000000D02*
X146300000Y-111300000D01*
D42*
%TO.N,VBAT*%
X134500000Y-100200000D02*
X133800000Y-100900000D01*
X135000000Y-100200000D02*
X134500000Y-100200000D01*
D40*
%TO.N,MOT_SIG*%
X135050000Y-94500000D02*
X135050000Y-93900000D01*
X140850000Y-100300000D02*
X135050000Y-94500000D01*
X141250000Y-100300000D02*
X140850000Y-100300000D01*
%TO.N,GND*%
X138000000Y-103300000D02*
X136550000Y-103300000D01*
X139600000Y-103300000D02*
X138000000Y-103300000D01*
%TO.N,Net-(Q1-G)*%
X139600000Y-101650000D02*
X141250000Y-103300000D01*
X139600000Y-100300000D02*
X139600000Y-101650000D01*
X144625000Y-100450000D02*
X141775000Y-103300000D01*
X141775000Y-103300000D02*
X141250000Y-103300000D01*
%TO.N,GND*%
X145787500Y-103512500D02*
X144625000Y-102350000D01*
X147900000Y-105400000D02*
X147675000Y-105400000D01*
X147675000Y-105400000D02*
X145787500Y-103512500D01*
D43*
%TO.N,MotorGND*%
X149450000Y-101400000D02*
X146500000Y-101400000D01*
X152700000Y-102100000D02*
X152700000Y-97500000D01*
X152200000Y-102600000D02*
X152700000Y-102100000D01*
X150100000Y-102600000D02*
X152200000Y-102600000D01*
X149450000Y-101400000D02*
X149450000Y-101950000D01*
X149450000Y-101950000D02*
X150100000Y-102600000D01*
D41*
X152700000Y-97500000D02*
X150500000Y-97500000D01*
X154600000Y-95600000D02*
X152700000Y-97500000D01*
%TO.N,Batt+*%
X151100000Y-93600000D02*
X147200000Y-97500000D01*
X154600000Y-93600000D02*
X151100000Y-93600000D01*
D43*
%TO.N,VBUS*%
X147500000Y-108000000D02*
X147600000Y-108100000D01*
X146200000Y-108000000D02*
X147500000Y-108000000D01*
X146200000Y-105450000D02*
X146250000Y-105400000D01*
X146200000Y-108000000D02*
X146200000Y-105450000D01*
X133250000Y-99350000D02*
X123725000Y-99350000D01*
X133500000Y-99100000D02*
X133250000Y-99350000D01*
X126750000Y-72100000D02*
X127650000Y-73000000D01*
X126750000Y-71750000D02*
X126750000Y-72100000D01*
X126750000Y-71750000D02*
X126075000Y-71750000D01*
X126075000Y-71750000D02*
X125375000Y-72450000D01*
D40*
X131350000Y-61750000D02*
X134050000Y-64450000D01*
X129400000Y-61750000D02*
X131350000Y-61750000D01*
D43*
X145470000Y-67470000D02*
X145800000Y-67800000D01*
X145470000Y-66295000D02*
X145470000Y-67470000D01*
D40*
X145470000Y-65370000D02*
X145470000Y-66295000D01*
D43*
X144750000Y-63550000D02*
X144800000Y-63600000D01*
D41*
%TO.N,GND*%
X139615000Y-66295000D02*
X138700000Y-65380000D01*
D40*
X139770000Y-66295000D02*
X139615000Y-66295000D01*
D41*
X146425000Y-66295000D02*
X147340000Y-65380000D01*
D40*
X146270000Y-66295000D02*
X146425000Y-66295000D01*
D43*
%TO.N,VBUS*%
X144800000Y-63600000D02*
X144800000Y-64700000D01*
D40*
X144800000Y-64700000D02*
X145470000Y-65370000D01*
D43*
X140570000Y-65370000D02*
X142020000Y-63920000D01*
X140570000Y-66295000D02*
X140570000Y-65370000D01*
D41*
%TO.N,Batt+*%
X148950000Y-99250000D02*
X147200000Y-97500000D01*
X148950000Y-99350000D02*
X151000000Y-101400000D01*
X148950000Y-99250000D02*
X148950000Y-99350000D01*
D40*
%TO.N,GND*%
X131340000Y-83800000D02*
X131340000Y-83740000D01*
X131340000Y-83740000D02*
X131300000Y-83700000D01*
X131340000Y-85250000D02*
X131340000Y-83800000D01*
X131340000Y-86650000D02*
X129940000Y-86650000D01*
X131340000Y-86650000D02*
X131340000Y-85250000D01*
X129940000Y-86650000D02*
X129940000Y-85250000D01*
X129940000Y-85250000D02*
X132740000Y-85250000D01*
%TO.N,ROW_1*%
X126160000Y-79040000D02*
X126160000Y-76400000D01*
X125200000Y-80000000D02*
X126160000Y-79040000D01*
%TO.N,ROW_0*%
X124890000Y-78390000D02*
X124890000Y-76400000D01*
%TO.N,ROW_2*%
X145300000Y-96100000D02*
X141380000Y-92180000D01*
X145300000Y-97700000D02*
X145300000Y-96100000D01*
X141380000Y-92180000D02*
X141380000Y-92135000D01*
%TO.N,ROW_3*%
X127430000Y-95230000D02*
X127700000Y-95500000D01*
X127430000Y-93900000D02*
X127430000Y-95230000D01*
%TO.N,GP16_E*%
X133780000Y-91780000D02*
X133700000Y-91700000D01*
X133780000Y-93900000D02*
X133780000Y-91780000D01*
%TO.N,S2*%
X131240000Y-90860000D02*
X131240000Y-93900000D01*
X131400000Y-90700000D02*
X131240000Y-90860000D01*
X131400000Y-90600000D02*
X131400000Y-90700000D01*
%TO.N,S3*%
X132510000Y-89790000D02*
X132510000Y-93900000D01*
X132600000Y-89700000D02*
X132510000Y-89790000D01*
%TO.N,S0*%
X126999000Y-91711300D02*
X128700000Y-93412300D01*
X127351057Y-89799000D02*
X126999000Y-90151057D01*
X128700000Y-93412300D02*
X128700000Y-93900000D01*
X127848943Y-89799000D02*
X127351057Y-89799000D01*
X128600000Y-90550057D02*
X127848943Y-89799000D01*
X128600000Y-91600000D02*
X128600000Y-90550057D01*
X126999000Y-90151057D02*
X126999000Y-91711300D01*
%TO.N,S1*%
X129970000Y-93370000D02*
X129970000Y-93900000D01*
X128800000Y-92200000D02*
X129970000Y-93370000D01*
X128350057Y-92200000D02*
X128800000Y-92200000D01*
X127600000Y-91449943D02*
X128350057Y-92200000D01*
X127600000Y-90400000D02*
X127600000Y-91449943D01*
%TO.N,Net-(J4-CC1)*%
X144270000Y-69330000D02*
X144270000Y-66295000D01*
X143900000Y-69700000D02*
X144270000Y-69330000D01*
%TO.N,Net-(J4-CC2)*%
X141270000Y-69430000D02*
X141270000Y-66295000D01*
X141000000Y-69700000D02*
X141270000Y-69430000D01*
%TO.N,D-*%
X143819000Y-66344000D02*
X143770000Y-66295000D01*
X143819000Y-67281000D02*
X143819000Y-66344000D01*
X143300000Y-67321000D02*
X143779000Y-67321000D01*
X143779000Y-67321000D02*
X143819000Y-67281000D01*
X142770000Y-67272000D02*
X142819000Y-67321000D01*
X142770000Y-66295000D02*
X142770000Y-67272000D01*
%TO.N,D+*%
X143270000Y-65270000D02*
X143270000Y-66295000D01*
X143269000Y-65269000D02*
X143270000Y-65270000D01*
X142319000Y-65269000D02*
X142900000Y-65269000D01*
X142270000Y-65318000D02*
X142319000Y-65269000D01*
X142270000Y-66295000D02*
X142270000Y-65318000D01*
%TO.N,GND*%
X142500000Y-71350000D02*
X141000000Y-71350000D01*
X143900000Y-71350000D02*
X142500000Y-71350000D01*
%TO.N,PWR_OFF*%
X142850000Y-76695000D02*
X141380000Y-78165000D01*
X142850000Y-75375000D02*
X142850000Y-76695000D01*
%TO.N,GND*%
X153750000Y-112100000D02*
X153750000Y-113600000D01*
X153750000Y-108900000D02*
X153750000Y-110400000D01*
X153750000Y-105700000D02*
X153750000Y-107300000D01*
X153750000Y-110400000D02*
X153750000Y-112100000D01*
X153750000Y-107300000D02*
X153750000Y-108900000D01*
X153750000Y-104200000D02*
X153750000Y-105700000D01*
%TO.N,ROW_3*%
X157240000Y-113600000D02*
X155400000Y-113600000D01*
X158200000Y-112640000D02*
X157240000Y-113600000D01*
%TO.N,ROW_2*%
X155700000Y-110100000D02*
X155400000Y-110400000D01*
X158200000Y-110100000D02*
X155700000Y-110100000D01*
%TO.N,ROW_1*%
X155660000Y-107560000D02*
X155400000Y-107300000D01*
X158200000Y-107560000D02*
X155660000Y-107560000D01*
%TO.N,ROW_0*%
X156220000Y-105020000D02*
X155400000Y-104200000D01*
X158200000Y-105020000D02*
X156220000Y-105020000D01*
%TO.N,GND*%
X147340000Y-61200000D02*
X147340000Y-65380000D01*
%TD*%
M02*
