<?xml version="1.0" standalone="no"?>
<!DOCTYPE svg PUBLIC "-//W3C//DTD SVG 1.1//EN"
  "http://www.w3.org/Graphics/SVG/1.1/DTD/svg11.dtd">
<svg width="262mm" height="78.69999694824217mm" viewBox="-131 -39.34999847412109 262 78.69999694824217" xmlns="http://www.w3.org/2000/svg" version="1.1">
	<title>svgOutput</title>
	<desc>made with tinkercad</desc>
<path d="M 129.8300018310547 -22.94400024414062 L 130 -21.64999961853027 L 130 -17.14999961853027 L 130 -16.38400077819824 L 130 1.1102230246251565e-16 L 130 16.38400077819824 L 130 24.57600021362304 L 130 24.85000038146972 L 130 32.76800155639648 L 130 33.34999847412109 L 129.8300018310547 34.64400100708007 L 129.3300018310547 35.84999847412109 L 128.53599548339844 36.886001586914055 L 127.5 37.680000305175774 L 126.29399871826172 38.180000305175774 L 125 38.34999847412109 L 122 38.34999847412109 L 122 36.73736190795898 L 122 34.33864974975585 L 122 32.76800155639648 L 122 30.61646080017089 L 122 30.051801681518548 L 122 29.85000038146972 L 121.8779525756836 29.85000038146972 L 120.54115295410156 29.85000038146972 L 119.28495025634766 29.85000038146972 L 118.85399627685547 29.85000038146972 L 118.14700317382812 31.018999099731438 L 117.19400024414062 31.997999191284173 L 116.04399871826172 32.73600006103515 L 115.9540786743164 32.76800155639648 L 114.75700378417969 33.19400024414062 L 113.4000015258789 33.34999847412109 L 112.04299926757812 33.19400024414062 L 110.8459243774414 32.76800155639648 L 110.75599670410156 32.73600006103515 L 109.60600280761719 31.997999191284173 L 108.65299987792969 31.018999099731438 L 107.94599914550781 29.85000038146972 L 105.6779556274414 29.85000038146972 L 104.34115600585938 29.85000038146972 L 103.08495330810547 29.85000038146972 L 102.65399932861328 29.85000038146972 L 101.9469985961914 31.018999099731438 L 100.99400329589844 31.997999191284173 L 99.84400177001953 32.73600006103515 L 99.75408172607422 32.76800155639648 L 98.55699920654297 33.19400024414062 L 98.30400085449219 33.22308349609374 L 97.19999694824219 33.34999847412109 L 95.84300231933594 33.19400024414062 L 94.64591979980469 32.76800155639648 L 94.55599975585938 32.73600006103515 L 93.40599822998047 31.997999191284173 L 92.4530029296875 31.018999099731438 L 91.74600219726562 29.85000038146972 L 89.47795104980469 29.85000038146972 L 88.14115142822266 29.85000038146972 L 86.88495635986328 29.85000038146972 L 86.4540023803711 29.85000038146972 L 85.74700164794922 31.018999099731438 L 84.79399871826172 31.997999191284173 L 83.64399719238281 32.73600006103515 L 83.5540771484375 32.76800155639648 L 82.35700225830078 33.19400024414062 L 81 33.34999847412109 L 79.64299774169922 33.19400024414062 L 78.4459228515625 32.76800155639648 L 78.35600280761719 32.73600006103515 L 77.20600128173828 31.997999191284173 L 76.25299835205078 31.018999099731438 L 75.5459976196289 29.85000038146972 L 73.2779541015625 29.85000038146972 L 71.94115447998047 29.85000038146972 L 70.68495178222656 29.85000038146972 L 70.25399780273438 29.85000038146972 L 69.5469970703125 31.018999099731438 L 68.59400177001953 31.997999191284173 L 67.44400024414062 32.73600006103515 L 67.35408020019531 32.76800155639648 L 66.15699768066406 33.19400024414062 L 65.53600311279297 33.265388488769524 L 64.80000305175781 33.34999847412109 L 63.44300079345703 33.19400024414062 L 62.24592208862305 32.76800155639648 L 62.15599822998047 32.73600006103515 L 61.00600051879883 31.997999191284173 L 60.053001403808594 31.018999099731438 L 59.34600067138672 29.85000038146972 L 57.07795333862305 29.85000038146972 L 55.741153717041016 29.85000038146972 L 54.484954833984375 29.85000038146972 L 54.05400085449219 29.85000038146972 L 53.34700012207031 31.018999099731438 L 52.39400100708008 31.997999191284173 L 51.24399948120117 32.73600006103515 L 51.15407943725586 32.76800155639648 L 49.957000732421875 33.19400024414062 L 48.599998474121094 33.34999847412109 L 47.24300003051758 33.19400024414062 L 46.045921325683594 32.76800155639648 L 45.95600128173828 32.73600006103515 L 44.805999755859375 31.997999191284173 L 43.85300064086914 31.018999099731438 L 43.145999908447266 29.85000038146972 L 40.877952575683594 29.85000038146972 L 39.54115295410156 29.85000038146972 L 38.28495407104492 29.85000038146972 L 37.854000091552734 29.85000038146972 L 37.14699935913086 31.018999099731438 L 36.194000244140625 31.997999191284173 L 35.04399871826172 32.73600006103515 L 34.954078674316406 32.76800155639648 L 33.75699996948242 33.19400024414062 L 32.768001556396484 33.307693481445305 L 32.400001525878906 33.34999847412109 L 31.042999267578125 33.19400024414062 L 29.84592056274414 32.76800155639648 L 29.756000518798828 32.73600006103515 L 28.606000900268555 31.997999191284173 L 27.652999877929688 31.018999099731438 L 26.945999145507812 29.85000038146972 L 24.67795181274414 29.85000038146972 L 23.341154098510742 29.85000038146972 L 22.08495330810547 29.85000038146972 L 21.65399932861328 29.85000038146972 L 20.94700050354004 31.018999099731438 L 19.993999481201172 31.997999191284173 L 18.8439998626709 32.73600006103515 L 18.754077911376953 32.76800155639648 L 17.55699920654297 33.19400024414062 L 16.200000762939453 33.34999847412109 L 14.843000411987305 33.19400024414062 L 13.64592170715332 32.76800155639648 L 13.555999755859375 32.73600006103515 L 12.406000137329102 31.997999191284173 L 11.45300006866455 31.018999099731438 L 10.746000289916992 29.85000038146972 L 8.477952003479004 29.85000038146972 L 7.1411542892456055 29.85000038146972 L 5.88495397567749 29.85000038146972 L 5.453999996185303 29.85000038146972 L 4.747000217437744 31.018999099731438 L 3.7939999103546143 31.997999191284173 L 2.6440000534057617 32.73600006103515 L 2.5540785789489746 32.76800155639648 L 1.3569999933242798 33.19400024414062 L 4.776013230191854e-14 33.34999847412109 L -1.3569999933242798 33.19400024414062 L -2.5540785789489746 32.76800155639648 L -2.6440000534057617 32.73600006103515 L -3.7939999103546143 31.997999191284173 L -4.747000217437744 31.018999099731438 L -5.453999996185303 29.85000038146972 L -7.722047805786133 29.85000038146972 L -9.058845520019531 29.85000038146972 L -10.315046310424805 29.85000038146972 L -10.746000289916992 29.85000038146972 L -11.45300006866455 31.018999099731438 L -12.406000137329102 31.997999191284173 L -13.555999755859375 32.73600006103515 L -13.64592170715332 32.76800155639648 L -14.843000411987305 33.19400024414062 L -16.200000762939453 33.34999847412109 L -17.55699920654297 33.19400024414062 L -18.754077911376953 32.76800155639648 L -18.8439998626709 32.73600006103515 L -19.993999481201172 31.997999191284173 L -20.94700050354004 31.018999099731438 L -21.65399932861328 29.85000038146972 L -23.922048568725586 29.85000038146972 L -25.258846282958984 29.85000038146972 L -26.515045166015625 29.85000038146972 L -26.945999145507812 29.85000038146972 L -27.652999877929688 31.018999099731438 L -28.606000900268555 31.997999191284173 L -29.756000518798828 32.73600006103515 L -29.84592056274414 32.76800155639648 L -31.042999267578125 33.19400024414062 L -32.400001525878906 33.34999847412109 L -32.768001556396484 33.307693481445305 L -33.75699996948242 33.19400024414062 L -34.954078674316406 32.76800155639648 L -35.04399871826172 32.73600006103515 L -36.194000244140625 31.997999191284173 L -37.14699935913086 31.018999099731438 L -37.854000091552734 29.85000038146972 L -40.122047424316406 29.85000038146972 L -41.45884704589844 29.85000038146972 L -42.71504592895508 29.85000038146972 L -43.145999908447266 29.85000038146972 L -43.85300064086914 31.018999099731438 L -44.805999755859375 31.997999191284173 L -45.95600128173828 32.73600006103515 L -46.045921325683594 32.76800155639648 L -47.24300003051758 33.19400024414062 L -48.599998474121094 33.34999847412109 L -49.957000732421875 33.19400024414062 L -51.15407943725586 32.76800155639648 L -51.24399948120117 32.73600006103515 L -52.39400100708008 31.997999191284173 L -53.34700012207031 31.018999099731438 L -54.05400085449219 29.85000038146972 L -56.32204818725586 29.85000038146972 L -57.658843994140625 29.85000038146972 L -58.91504669189453 29.85000038146972 L -59.34600067138672 29.85000038146972 L -60.053001403808594 31.018999099731438 L -61.00600051879883 31.997999191284173 L -62.15599822998047 32.73600006103515 L -62.24592208862305 32.76800155639648 L -63.44300079345703 33.19400024414062 L -64.80000305175781 33.34999847412109 L -65.53600311279297 33.265388488769524 L -66.15699768066406 33.19400024414062 L -67.35408020019531 32.76800155639648 L -67.44400024414062 32.73600006103515 L -68.59400177001953 31.997999191284173 L -69.5469970703125 31.018999099731438 L -70.25399780273438 29.85000038146972 L -72.52204895019531 29.85000038146972 L -73.85884857177734 29.85000038146972 L -75.11504364013672 29.85000038146972 L -75.5459976196289 29.85000038146972 L -76.25299835205078 31.018999099731438 L -77.20600128173828 31.997999191284173 L -78.35600280761719 32.73600006103515 L -78.4459228515625 32.76800155639648 L -79.64299774169922 33.19400024414062 L -81 33.34999847412109 L -82.35700225830078 33.19400024414062 L -83.5540771484375 32.76800155639648 L -83.64399719238281 32.73600006103515 L -84.79399871826172 31.997999191284173 L -85.74700164794922 31.018999099731438 L -86.4540023803711 29.85000038146972 L -88.7220458984375 29.85000038146972 L -90.05884552001953 29.85000038146972 L -91.31504821777344 29.85000038146972 L -91.74600219726562 29.85000038146972 L -92.4530029296875 31.018999099731438 L -93.40599822998047 31.997999191284173 L -94.55599975585938 32.73600006103515 L -94.64591979980469 32.76800155639648 L -95.84300231933594 33.19400024414062 L -97.19999694824219 33.34999847412109 L -98.30400085449219 33.22308349609374 L -98.55699920654297 33.19400024414062 L -99.75408172607422 32.76800155639648 L -99.84400177001953 32.73600006103515 L -100.99400329589844 31.997999191284173 L -101.9469985961914 31.018999099731438 L -102.65399932861328 29.85000038146972 L -104.92205047607422 29.85000038146972 L -106.25884246826172 29.85000038146972 L -107.51504516601562 29.85000038146972 L -107.94599914550781 29.85000038146972 L -108.65299987792969 31.018999099731438 L -109.60600280761719 31.997999191284173 L -110.75599670410156 32.73600006103515 L -110.8459243774414 32.76800155639648 L -112.04299926757812 33.19400024414062 L -113.4000015258789 33.34999847412109 L -114.75700378417969 33.19400024414062 L -115.9540786743164 32.76800155639648 L -116.04399871826172 32.73600006103515 L -117.19400024414062 31.997999191284173 L -118.14700317382812 31.018999099731438 L -118.85399627685547 29.85000038146972 L -122 29.85000038146972 L -122 32.76800155639648 L -122 38.34999847412109 L -125 38.34999847412109 L -126.29399871826172 38.180000305175774 L -127.5 37.680000305175774 L -128.53599548339844 36.886001586914055 L -129.3300018310547 35.84999847412109 L -129.8300018310547 34.64400100708007 L -130 33.34999847412109 L -130 32.76800155639648 L -130 24.57600021362304 L -130 16.38400077819824 L -130 1.8500000238418575 L -130 1.1102230246251565e-16 L -130 -12.14999961853027 L -130 -16.38400077819824 L -130 -18.741672515869137 L -130 -21.64999961853027 L -129.8300018310547 -22.94400024414062 L -129.74459838867188 -23.14999961853027 L -129.3300018310547 -24.149999618530266 L -128.53599548339844 -25.186000823974602 L -127.5 -25.97999954223632 L -126.29399871826172 -26.47999954223632 L -125 -26.649999618530266 L -114.68800354003906 -26.649999618530266 L -113.6915054321289 -26.649999618530266 L -98.30400085449219 -26.649999618530266 L -93.5 -26.649999618530266 L -92.7239990234375 -26.752000808715813 L -92 -27.05200004577636 L -91.37899780273438 -27.528999328613274 L -90.9020004272461 -28.149999618530266 L -90.60199737548828 -28.8740005493164 L -90.5 -29.649999618530266 L -90.5 -32.76800155639648 L -90.5 -38.34999847412109 L -65.53600311279297 -38.34999847412109 L -65.5 -38.34999847412109 L -65.5 -32.76800155639648 L -65.5 -29.649999618530266 L -65.39800262451172 -28.8740005493164 L -65.0979995727539 -28.149999618530266 L -64.62100219726562 -27.528999328613274 L -64 -27.05200004577636 L -63.2760009765625 -26.752000808715813 L -62.5 -26.649999618530266 L -49.152000427246094 -26.649999618530266 L -48.891510009765625 -26.649999618530266 L -32.768001556396484 -26.649999618530266 L -32.69150924682617 -26.649999618530266 L -16.384000778198242 -26.649999618530266 L 0 -26.649999618530266 L 16.384000778198242 -26.649999618530266 L 32.768001556396484 -26.649999618530266 L 49.152000427246094 -26.649999618530266 L 65.53600311279297 -26.649999618530266 L 81.91999816894531 -26.649999618530266 L 98.30400085449219 -26.649999618530266 L 114.68800354003906 -26.649999618530266 L 122 -26.649999618530266 L 125 -26.649999618530266 L 126.29399871826172 -26.47999954223632 L 127.5 -25.97999954223632 L 128.53599548339844 -25.186000823974602 L 129.3300018310547 -24.149999618530266 L 129.8300018310547 -22.94400024414062 M 109.60600280761719 -19.298000335693356 L 110.75599670410156 -20.0359992980957 L 112.04299926757812 -20.49399948120117 L 113.4000015258789 -20.64999961853027 L 114.68800354003906 -20.501932144165036 L 114.75700378417969 -20.49399948120117 L 116.04399871826172 -20.0359992980957 L 117.19400024414062 -19.298000335693356 L 118.14700317382812 -18.31900024414062 L 118.85399627685547 -17.14999961853027 L 122 -17.14999961853027 L 122 -23.14999961853027 L 115.22525787353516 -23.14999961853027 L 114.68800354003906 -23.14999961853027 L 99.02526092529297 -23.14999961853027 L 98.30400085449219 -23.14999961853027 L 82.82525634765625 -23.14999961853027 L 81.91999816894531 -23.14999961853027 L 66.62525939941406 -23.14999961853027 L 65.53600311279297 -23.14999961853027 L 50.42525863647461 -23.14999961853027 L 49.152000427246094 -23.14999961853027 L 34.225257873535156 -23.14999961853027 L 32.768001556396484 -23.14999961853027 L 18.025257110595703 -23.14999961853027 L 16.384000778198242 -23.14999961853027 L 1.8252575397491455 -23.14999961853027 L 0.04430030658841133 -23.14999961853027 L 0 -23.14999961853027 L -14.37474250793457 -23.14999961853027 L -16.155698776245117 -23.14999961853027 L -16.384000778198242 -23.14999961853027 L -30.574743270874023 -23.14999961853027 L -32.3557014465332 -23.14999961853027 L -32.768001556396484 -23.14999961853027 L -46.774742126464844 -23.14999961853027 L -48.55569839477539 -23.14999961853027 L -49.152000427246094 -23.14999961853027 L -62.9747428894043 -23.14999961853027 L -64.75569915771484 -23.14999961853027 L -65.53600311279297 -23.14999961853027 L -79.17474365234375 -23.14999961853027 L -80.95569610595703 -23.14999961853027 L -81.91999816894531 -23.14999961853027 L -95.37474060058594 -23.14999961853027 L -97.15570068359375 -23.14999961853027 L -98.30400085449219 -23.14999961853027 L -111.57474517822266 -23.14999961853027 L -113.35569763183594 -23.14999961853027 L -114.68800354003906 -23.14999961853027 L -122 -23.14999961853027 L -122 -19.661348342895504 L -122 -17.91646003723144 L -122 -17.14999961853027 L -120.54115295410156 -17.14999961853027 L -119.28495025634766 -17.14999961853027 L -118.85399627685547 -17.14999961853027 L -118.14700317382812 -18.31900024414062 L -117.19400024414062 -19.298000335693356 L -116.04399871826172 -20.0359992980957 L -114.75700378417969 -20.49399948120117 L -114.68800354003906 -20.501932144165036 L -113.4000015258789 -20.64999961853027 L -112.04299926757812 -20.49399948120117 L -110.75599670410156 -20.0359992980957 L -109.60600280761719 -19.298000335693356 L -108.65299987792969 -18.31900024414062 L -107.94738006591797 -17.152280807495114 L -107.94599914550781 -17.14999961853027 L -104.34115600585938 -17.14999961853027 L -103.08495330810547 -17.14999961853027 L -102.65399932861328 -17.14999961853027 L -101.9469985961914 -18.31900024414062 L -100.99400329589844 -19.298000335693356 L -99.84400177001953 -20.0359992980957 L -98.55699920654297 -20.49399948120117 L -98.30400085449219 -20.523084640502926 L -97.19999694824219 -20.64999961853027 L -95.84300231933594 -20.49399948120117 L -94.55599975585938 -20.0359992980957 L -93.40599822998047 -19.298000335693356 L -92.4530029296875 -18.31900024414062 L -91.74737548828125 -17.152280807495114 L -91.74600219726562 -17.14999961853027 L -88.14115142822266 -17.14999961853027 L -86.88495635986328 -17.14999961853027 L -86.4540023803711 -17.14999961853027 L -85.74700164794922 -18.31900024414062 L -84.79399871826172 -19.298000335693356 L -83.64399719238281 -20.0359992980957 L -82.35700225830078 -20.49399948120117 L -81.91999816894531 -20.544237136840817 L -81 -20.64999961853027 L -79.64299774169922 -20.49399948120117 L -78.35600280761719 -20.0359992980957 L -77.20600128173828 -19.298000335693356 L -76.25299835205078 -18.31900024414062 L -75.54737854003906 -17.152280807495114 L -75.5459976196289 -17.14999961853027 L -71.94115447998047 -17.14999961853027 L -70.68495178222656 -17.14999961853027 L -70.25399780273438 -17.14999961853027 L -69.5469970703125 -18.31900024414062 L -68.59400177001953 -19.298000335693356 L -67.44400024414062 -20.0359992980957 L -66.15699768066406 -20.49399948120117 L -65.53600311279297 -20.565389633178707 L -64.80000305175781 -20.64999961853027 L -63.44300079345703 -20.49399948120117 L -62.15599822998047 -20.0359992980957 L -61.00600051879883 -19.298000335693356 L -60.053001403808594 -18.31900024414062 L -59.34737777709961 -17.152280807495114 L -59.34600067138672 -17.14999961853027 L -55.741153717041016 -17.14999961853027 L -54.484954833984375 -17.14999961853027 L -54.05400085449219 -17.14999961853027 L -53.34700012207031 -18.31900024414062 L -52.39400100708008 -19.298000335693356 L -51.24399948120117 -20.0359992980957 L -49.957000732421875 -20.49399948120117 L -49.152000427246094 -20.586542129516598 L -48.599998474121094 -20.64999961853027 L -47.24300003051758 -20.49399948120117 L -45.95600128173828 -20.0359992980957 L -44.805999755859375 -19.298000335693356 L -43.85300064086914 -18.31900024414062 L -43.14738082885742 -17.152280807495114 L -43.145999908447266 -17.14999961853027 L -39.54115295410156 -17.14999961853027 L -38.28495407104492 -17.14999961853027 L -37.854000091552734 -17.14999961853027 L -37.14699935913086 -18.31900024414062 L -36.194000244140625 -19.298000335693356 L -35.04399871826172 -20.0359992980957 L -33.75699996948242 -20.49399948120117 L -32.768001556396484 -20.60769462585449 L -32.400001525878906 -20.64999961853027 L -31.042999267578125 -20.49399948120117 L -29.756000518798828 -20.0359992980957 L -28.606000900268555 -19.298000335693356 L -27.652999877929688 -18.31900024414062 L -26.947378158569336 -17.152280807495114 L -26.945999145507812 -17.14999961853027 L -23.341154098510742 -17.14999961853027 L -22.08495330810547 -17.14999961853027 L -21.65399932861328 -17.14999961853027 L -20.94700050354004 -18.31900024414062 L -19.993999481201172 -19.298000335693356 L -18.8439998626709 -20.0359992980957 L -17.55699920654297 -20.49399948120117 L -16.384000778198242 -20.62884712219238 L -16.200000762939453 -20.64999961853027 L -14.843000411987305 -20.49399948120117 L -13.555999755859375 -20.0359992980957 L -12.406000137329102 -19.298000335693356 L -11.45300006866455 -18.31900024414062 L -10.747379302978516 -17.152280807495114 L -10.746000289916992 -17.14999961853027 L -7.1411542892456055 -17.14999961853027 L -5.88495397567749 -17.14999961853027 L -5.453999996185303 -17.14999961853027 L -4.747000217437744 -18.31900024414062 L -3.7939999103546143 -19.298000335693356 L -2.6440000534057617 -20.0359992980957 L -1.3569999933242798 -20.49399948120117 L 2.388006615095927e-14 -20.64999961853027 L 1.3569999933242798 -20.49399948120117 L 2.6440000534057617 -20.0359992980957 L 3.7939999103546143 -19.298000335693356 L 4.747000217437744 -18.31900024414062 L 5.452620983123779 -17.152280807495114 L 5.453999996185303 -17.14999961853027 L 9.058845520019531 -17.14999961853027 L 10.315046310424805 -17.14999961853027 L 10.746000289916992 -17.14999961853027 L 11.45300006866455 -18.31900024414062 L 12.406000137329102 -19.298000335693356 L 13.555999755859375 -20.0359992980957 L 14.843000411987305 -20.49399948120117 L 16.200000762939453 -20.64999961853027 L 16.384000778198242 -20.62884712219238 L 17.55699920654297 -20.49399948120117 L 18.8439998626709 -20.0359992980957 L 19.993999481201172 -19.298000335693356 L 20.94700050354004 -18.31900024414062 L 21.652620315551758 -17.152280807495114 L 21.65399932861328 -17.14999961853027 L 25.258846282958984 -17.14999961853027 L 26.515045166015625 -17.14999961853027 L 26.945999145507812 -17.14999961853027 L 27.652999877929688 -18.31900024414062 L 28.606000900268555 -19.298000335693356 L 29.756000518798828 -20.0359992980957 L 31.042999267578125 -20.49399948120117 L 32.400001525878906 -20.64999961853027 L 32.768001556396484 -20.60769462585449 L 33.75699996948242 -20.49399948120117 L 35.04399871826172 -20.0359992980957 L 36.194000244140625 -19.298000335693356 L 37.14699935913086 -18.31900024414062 L 37.85261917114258 -17.152280807495114 L 37.854000091552734 -17.14999961853027 L 41.45884704589844 -17.14999961853027 L 42.71504592895508 -17.14999961853027 L 43.145999908447266 -17.14999961853027 L 43.85300064086914 -18.31900024414062 L 44.805999755859375 -19.298000335693356 L 45.95600128173828 -20.0359992980957 L 47.24300003051758 -20.49399948120117 L 48.599998474121094 -20.64999961853027 L 49.152000427246094 -20.586542129516598 L 49.957000732421875 -20.49399948120117 L 51.24399948120117 -20.0359992980957 L 52.39400100708008 -19.298000335693356 L 53.34700012207031 -18.31900024414062 L 54.05261993408203 -17.152280807495114 L 54.05400085449219 -17.14999961853027 L 57.658843994140625 -17.14999961853027 L 58.91504669189453 -17.14999961853027 L 59.34600067138672 -17.14999961853027 L 60.053001403808594 -18.31900024414062 L 61.00600051879883 -19.298000335693356 L 62.15599822998047 -20.0359992980957 L 63.44300079345703 -20.49399948120117 L 64.80000305175781 -20.64999961853027 L 65.53600311279297 -20.565389633178707 L 66.15699768066406 -20.49399948120117 L 67.44400024414062 -20.0359992980957 L 68.59400177001953 -19.298000335693356 L 69.5469970703125 -18.31900024414062 L 70.25262451171875 -17.152280807495114 L 70.25399780273438 -17.14999961853027 L 73.85884857177734 -17.14999961853027 L 75.11504364013672 -17.14999961853027 L 75.5459976196289 -17.14999961853027 L 76.25299835205078 -18.31900024414062 L 77.20600128173828 -19.298000335693356 L 78.35600280761719 -20.0359992980957 L 79.64299774169922 -20.49399948120117 L 81 -20.64999961853027 L 81.91999816894531 -20.544237136840817 L 82.35700225830078 -20.49399948120117 L 83.64399719238281 -20.0359992980957 L 84.79399871826172 -19.298000335693356 L 85.74700164794922 -18.31900024414062 L 86.45262145996094 -17.152280807495114 L 86.4540023803711 -17.14999961853027 L 90.05884552001953 -17.14999961853027 L 91.31504821777344 -17.14999961853027 L 91.74600219726562 -17.14999961853027 L 92.4530029296875 -18.31900024414062 L 93.40599822998047 -19.298000335693356 L 94.55599975585938 -20.0359992980957 L 95.84300231933594 -20.49399948120117 L 97.19999694824219 -20.64999961853027 L 98.30400085449219 -20.523084640502926 L 98.55699920654297 -20.49399948120117 L 99.84400177001953 -20.0359992980957 L 100.99400329589844 -19.298000335693356 L 101.9469985961914 -18.31900024414062 L 102.65261840820312 -17.152280807495114 L 102.65399932861328 -17.14999961853027 L 106.25884246826172 -17.14999961853027 L 107.51504516601562 -17.14999961853027 L 107.94599914550781 -17.14999961853027 L 108.65299987792969 -18.31900024414062 L 109.60600280761719 -19.298000335693356 M 114.75700378417969 -8.805999755859373 L 114.68800354003906 -8.798068046569822 L 113.4000015258789 -8.649999618530272 L 112.04299926757812 -8.805999755859373 L 110.75599670410156 -9.263999938964842 L 109.60600280761719 -10.001999855041502 L 108.65299987792969 -10.980999946594237 L 107.94738006591797 -12.147720336914059 L 107.94599914550781 -12.14999961853027 L 104.34115600585938 -12.14999961853027 L 103.08495330810547 -12.14999961853027 L 102.65399932861328 -12.14999961853027 L 101.9469985961914 -10.980999946594237 L 100.99400329589844 -10.001999855041502 L 99.84400177001953 -9.263999938964842 L 98.55699920654297 -8.805999755859373 L 98.30400085449219 -8.776915550231932 L 97.19999694824219 -8.649999618530272 L 95.84300231933594 -8.805999755859373 L 94.55599975585938 -9.263999938964842 L 93.40599822998047 -10.001999855041502 L 92.4530029296875 -10.980999946594237 L 91.74737548828125 -12.147720336914059 L 91.74600219726562 -12.14999961853027 L 88.14115142822266 -12.14999961853027 L 86.88495635986328 -12.14999961853027 L 86.4540023803711 -12.14999961853027 L 85.74700164794922 -10.980999946594237 L 84.79399871826172 -10.001999855041502 L 83.64399719238281 -9.263999938964842 L 82.35700225830078 -8.805999755859373 L 81.91999816894531 -8.755763053894041 L 81 -8.649999618530272 L 79.64299774169922 -8.805999755859373 L 78.35600280761719 -9.263999938964842 L 77.20600128173828 -10.001999855041502 L 76.25299835205078 -10.980999946594237 L 75.54737854003906 -12.147720336914059 L 75.5459976196289 -12.14999961853027 L 71.94115447998047 -12.14999961853027 L 70.68495178222656 -12.14999961853027 L 70.25399780273438 -12.14999961853027 L 69.5469970703125 -10.980999946594237 L 68.59400177001953 -10.001999855041502 L 67.44400024414062 -9.263999938964842 L 66.15699768066406 -8.805999755859373 L 65.53600311279297 -8.73461055755615 L 64.80000305175781 -8.649999618530272 L 63.44300079345703 -8.805999755859373 L 62.15599822998047 -9.263999938964842 L 61.00600051879883 -10.001999855041502 L 60.053001403808594 -10.980999946594237 L 59.34737777709961 -12.147720336914059 L 59.34600067138672 -12.14999961853027 L 55.741153717041016 -12.14999961853027 L 54.484954833984375 -12.14999961853027 L 54.05400085449219 -12.14999961853027 L 53.34700012207031 -10.980999946594237 L 52.39400100708008 -10.001999855041502 L 51.24399948120117 -9.263999938964842 L 49.957000732421875 -8.805999755859373 L 49.152000427246094 -8.71345806121826 L 48.599998474121094 -8.649999618530272 L 47.24300003051758 -8.805999755859373 L 45.95600128173828 -9.263999938964842 L 44.805999755859375 -10.001999855041502 L 43.85300064086914 -10.980999946594237 L 43.14738082885742 -12.147720336914059 L 43.145999908447266 -12.14999961853027 L 39.54115295410156 -12.14999961853027 L 38.28495407104492 -12.14999961853027 L 37.854000091552734 -12.14999961853027 L 37.14699935913086 -10.980999946594237 L 36.194000244140625 -10.001999855041502 L 35.04399871826172 -9.263999938964842 L 33.75699996948242 -8.805999755859373 L 32.768001556396484 -8.692304611206053 L 32.400001525878906 -8.649999618530272 L 31.042999267578125 -8.805999755859373 L 29.756000518798828 -9.263999938964842 L 28.606000900268555 -10.001999855041502 L 27.652999877929688 -10.980999946594237 L 26.947378158569336 -12.147720336914059 L 26.945999145507812 -12.14999961853027 L 23.341154098510742 -12.14999961853027 L 22.08495330810547 -12.14999961853027 L 21.65399932861328 -12.14999961853027 L 20.94700050354004 -10.980999946594237 L 19.993999481201172 -10.001999855041502 L 18.8439998626709 -9.263999938964842 L 17.55699920654297 -8.805999755859373 L 16.384000778198242 -8.671152114868162 L 16.200000762939453 -8.649999618530272 L 14.843000411987305 -8.805999755859373 L 13.555999755859375 -9.263999938964842 L 12.406000137329102 -10.001999855041502 L 11.45300006866455 -10.980999946594237 L 10.747379302978516 -12.147720336914059 L 10.746000289916992 -12.14999961853027 L 7.1411542892456055 -12.14999961853027 L 5.88495397567749 -12.14999961853027 L 5.453999996185303 -12.14999961853027 L 4.747000217437744 -10.980999946594237 L 3.7939999103546143 -10.001999855041502 L 2.6440000534057617 -9.263999938964842 L 1.3569999933242798 -8.805999755859373 L 0 -8.649999618530272 L -1.3569999933242798 -8.805999755859373 L -2.6440000534057617 -9.263999938964842 L -3.7939999103546143 -10.001999855041502 L -4.747000217437744 -10.980999946594237 L -5.452620983123779 -12.147720336914059 L -5.453999996185303 -12.14999961853027 L -9.058845520019531 -12.14999961853027 L -10.315046310424805 -12.14999961853027 L -10.746000289916992 -12.14999961853027 L -11.45300006866455 -10.980999946594237 L -12.406000137329102 -10.001999855041502 L -13.555999755859375 -9.263999938964842 L -14.843000411987305 -8.805999755859373 L -16.200000762939453 -8.649999618530272 L -16.384000778198242 -8.671152114868162 L -17.55699920654297 -8.805999755859373 L -18.8439998626709 -9.263999938964842 L -19.993999481201172 -10.001999855041502 L -20.94700050354004 -10.980999946594237 L -21.652620315551758 -12.147720336914059 L -21.65399932861328 -12.14999961853027 L -25.258846282958984 -12.14999961853027 L -26.515045166015625 -12.14999961853027 L -26.945999145507812 -12.14999961853027 L -27.652999877929688 -10.980999946594237 L -28.606000900268555 -10.001999855041502 L -29.756000518798828 -9.263999938964842 L -31.042999267578125 -8.805999755859373 L -32.400001525878906 -8.649999618530272 L -32.768001556396484 -8.692304611206053 L -33.75699996948242 -8.805999755859373 L -35.04399871826172 -9.263999938964842 L -36.194000244140625 -10.001999855041502 L -37.14699935913086 -10.980999946594237 L -37.85261917114258 -12.147720336914059 L -37.854000091552734 -12.14999961853027 L -41.45884704589844 -12.14999961853027 L -42.71504592895508 -12.14999961853027 L -43.145999908447266 -12.14999961853027 L -43.85300064086914 -10.980999946594237 L -44.805999755859375 -10.001999855041502 L -45.95600128173828 -9.263999938964842 L -47.24300003051758 -8.805999755859373 L -48.599998474121094 -8.649999618530272 L -49.152000427246094 -8.71345806121826 L -49.957000732421875 -8.805999755859373 L -51.24399948120117 -9.263999938964842 L -52.39400100708008 -10.001999855041502 L -53.34700012207031 -10.980999946594237 L -54.05261993408203 -12.147720336914059 L -54.05400085449219 -12.14999961853027 L -57.658843994140625 -12.14999961853027 L -58.91504669189453 -12.14999961853027 L -59.34600067138672 -12.14999961853027 L -60.053001403808594 -10.980999946594237 L -61.00600051879883 -10.001999855041502 L -62.15599822998047 -9.263999938964842 L -63.44300079345703 -8.805999755859373 L -64.80000305175781 -8.649999618530272 L -65.53600311279297 -8.73461055755615 L -66.15699768066406 -8.805999755859373 L -67.44400024414062 -9.263999938964842 L -68.59400177001953 -10.001999855041502 L -69.5469970703125 -10.980999946594237 L -70.25262451171875 -12.147720336914059 L -70.25399780273438 -12.14999961853027 L -73.85884857177734 -12.14999961853027 L -75.11504364013672 -12.14999961853027 L -75.5459976196289 -12.14999961853027 L -76.25299835205078 -10.980999946594237 L -77.20600128173828 -10.001999855041502 L -78.35600280761719 -9.263999938964842 L -79.64299774169922 -8.805999755859373 L -81 -8.649999618530272 L -81.91999816894531 -8.755763053894041 L -82.35700225830078 -8.805999755859373 L -83.64399719238281 -9.263999938964842 L -84.79399871826172 -10.001999855041502 L -85.74700164794922 -10.980999946594237 L -86.45262145996094 -12.147720336914059 L -86.4540023803711 -12.14999961853027 L -90.05884552001953 -12.14999961853027 L -91.31504821777344 -12.14999961853027 L -91.74600219726562 -12.14999961853027 L -92.4530029296875 -10.980999946594237 L -93.40599822998047 -10.001999855041502 L -94.55599975585938 -9.263999938964842 L -95.84300231933594 -8.805999755859373 L -97.19999694824219 -8.649999618530272 L -98.30400085449219 -8.776915550231932 L -98.55699920654297 -8.805999755859373 L -99.84400177001953 -9.263999938964842 L -100.99400329589844 -10.001999855041502 L -101.9469985961914 -10.980999946594237 L -102.65261840820312 -12.147720336914059 L -102.65399932861328 -12.14999961853027 L -106.25884246826172 -12.14999961853027 L -107.51504516601562 -12.14999961853027 L -107.94599914550781 -12.14999961853027 L -108.65299987792969 -10.980999946594237 L -109.60600280761719 -10.001999855041502 L -110.75599670410156 -9.263999938964842 L -112.04299926757812 -8.805999755859373 L -113.4000015258789 -8.649999618530272 L -114.68800354003906 -8.798068046569822 L -114.75700378417969 -8.805999755859373 L -116.04399871826172 -9.263999938964842 L -117.19400024414062 -10.001999855041502 L -118.14700317382812 -10.980999946594237 L -118.85399627685547 -12.14999961853027 L -122 -12.14999961853027 L -122 -3.9164600372314444 L -122 -3.1500000953674308 L -120.54115295410156 -3.1500000953674308 L -119.28495025634766 -3.1500000953674308 L -118.85399627685547 -3.1500000953674308 L -118.14700317382812 -4.318999767303466 L -117.19400024414062 -5.2979998588562 L -116.04399871826172 -6.0359997749328596 L -115.31352996826172 -6.295950889587401 L -114.75700378417969 -6.493999958038328 L -114.68800354003906 -6.501932144165037 L -113.4000015258789 -6.65000009536743 L -112.04299926757812 -6.493999958038328 L -110.75599670410156 -6.0359997749328596 L -109.60600280761719 -5.2979998588562 L -108.65299987792969 -4.318999767303466 L -107.94738006591797 -3.152280092239379 L -107.94599914550781 -3.1500000953674308 L -104.34115600585938 -3.1500000953674308 L -103.08495330810547 -3.1500000953674308 L -102.65399932861328 -3.1500000953674308 L -101.9469985961914 -4.318999767303466 L -100.99400329589844 -5.2979998588562 L -99.84400177001953 -6.0359997749328596 L -98.55699920654297 -6.493999958038328 L -98.30400085449219 -6.523084640502928 L -97.19999694824219 -6.65000009536743 L -95.84300231933594 -6.493999958038328 L -94.55599975585938 -6.0359997749328596 L -93.40599822998047 -5.2979998588562 L -92.4530029296875 -4.318999767303466 L -91.74737548828125 -3.152280092239379 L -91.74600219726562 -3.1500000953674308 L -88.14115142822266 -3.1500000953674308 L -86.88495635986328 -3.1500000953674308 L -86.4540023803711 -3.1500000953674308 L -85.74700164794922 -4.318999767303466 L -84.79399871826172 -5.2979998588562 L -83.64399719238281 -6.0359997749328596 L -82.35700225830078 -6.493999958038328 L -81.91999816894531 -6.5442371368408185 L -81 -6.65000009536743 L -79.64299774169922 -6.493999958038328 L -78.35600280761719 -6.0359997749328596 L -77.20600128173828 -5.2979998588562 L -76.25299835205078 -4.318999767303466 L -75.54737854003906 -3.152280092239379 L -75.5459976196289 -3.1500000953674308 L -71.94115447998047 -3.1500000953674308 L -70.68495178222656 -3.1500000953674308 L -70.25399780273438 -3.1500000953674308 L -69.5469970703125 -4.318999767303466 L -68.59400177001953 -5.2979998588562 L -67.44400024414062 -6.0359997749328596 L -66.15699768066406 -6.493999958038328 L -65.53600311279297 -6.565389633178709 L -64.80000305175781 -6.65000009536743 L -63.44300079345703 -6.493999958038328 L -62.15599822998047 -6.0359997749328596 L -61.00600051879883 -5.2979998588562 L -60.053001403808594 -4.318999767303466 L -59.34737777709961 -3.152280092239379 L -59.34600067138672 -3.1500000953674308 L -55.741153717041016 -3.1500000953674308 L -54.484954833984375 -3.1500000953674308 L -54.05400085449219 -3.1500000953674308 L -53.34700012207031 -4.318999767303466 L -52.39400100708008 -5.2979998588562 L -51.24399948120117 -6.0359997749328596 L -49.957000732421875 -6.493999958038328 L -49.152000427246094 -6.586542606353758 L -48.599998474121094 -6.65000009536743 L -47.24300003051758 -6.493999958038328 L -45.95600128173828 -6.0359997749328596 L -44.805999755859375 -5.2979998588562 L -43.85300064086914 -4.318999767303466 L -43.14738082885742 -3.152280092239379 L -43.145999908447266 -3.1500000953674308 L -39.54115295410156 -3.1500000953674308 L -38.28495407104492 -3.1500000953674308 L -37.854000091552734 -3.1500000953674308 L -37.14699935913086 -4.318999767303466 L -36.194000244140625 -5.2979998588562 L -35.04399871826172 -6.0359997749328596 L -33.75699996948242 -6.493999958038328 L -32.768001556396484 -6.607695102691649 L -32.400001525878906 -6.65000009536743 L -31.042999267578125 -6.493999958038328 L -29.756000518798828 -6.0359997749328596 L -28.606000900268555 -5.2979998588562 L -27.652999877929688 -4.318999767303466 L -26.947378158569336 -3.152280092239379 L -26.945999145507812 -3.1500000953674308 L -23.341154098510742 -3.1500000953674308 L -22.08495330810547 -3.1500000953674308 L -21.65399932861328 -3.1500000953674308 L -20.94700050354004 -4.318999767303466 L -19.993999481201172 -5.2979998588562 L -18.8439998626709 -6.0359997749328596 L -17.55699920654297 -6.493999958038328 L -16.384000778198242 -6.628847599029539 L -16.200000762939453 -6.65000009536743 L -14.843000411987305 -6.493999958038328 L -13.555999755859375 -6.0359997749328596 L -12.406000137329102 -5.2979998588562 L -11.45300006866455 -4.318999767303466 L -10.747379302978516 -3.152280092239379 L -10.746000289916992 -3.1500000953674308 L -7.1411542892456055 -3.1500000953674308 L -5.88495397567749 -3.1500000953674308 L -5.453999996185303 -3.1500000953674308 L -4.747000217437744 -4.318999767303466 L -3.7939999103546143 -5.2979998588562 L -2.6440000534057617 -6.0359997749328596 L -1.3569999933242798 -6.493999958038328 L 0 -6.65000009536743 L 1.3569999933242798 -6.493999958038328 L 2.6440000534057617 -6.0359997749328596 L 3.7939999103546143 -5.2979998588562 L 4.747000217437744 -4.318999767303466 L 5.452620983123779 -3.152280092239379 L 5.453999996185303 -3.1500000953674308 L 9.058845520019531 -3.1500000953674308 L 10.315046310424805 -3.1500000953674308 L 10.746000289916992 -3.1500000953674308 L 11.45300006866455 -4.318999767303466 L 12.406000137329102 -5.2979998588562 L 13.555999755859375 -6.0359997749328596 L 14.843000411987305 -6.493999958038328 L 16.200000762939453 -6.65000009536743 L 16.384000778198242 -6.628847599029539 L 17.55699920654297 -6.493999958038328 L 18.8439998626709 -6.0359997749328596 L 19.993999481201172 -5.2979998588562 L 20.94700050354004 -4.318999767303466 L 21.652620315551758 -3.152280092239379 L 21.65399932861328 -3.1500000953674308 L 25.258846282958984 -3.1500000953674308 L 26.515045166015625 -3.1500000953674308 L 26.945999145507812 -3.1500000953674308 L 27.652999877929688 -4.318999767303466 L 28.606000900268555 -5.2979998588562 L 29.756000518798828 -6.0359997749328596 L 31.042999267578125 -6.493999958038328 L 32.400001525878906 -6.65000009536743 L 32.768001556396484 -6.607695102691649 L 33.75699996948242 -6.493999958038328 L 35.04399871826172 -6.0359997749328596 L 36.194000244140625 -5.2979998588562 L 37.14699935913086 -4.318999767303466 L 37.85261917114258 -3.152280092239379 L 37.854000091552734 -3.1500000953674308 L 41.45884704589844 -3.1500000953674308 L 42.71504592895508 -3.1500000953674308 L 43.145999908447266 -3.1500000953674308 L 43.85300064086914 -4.318999767303466 L 44.805999755859375 -5.2979998588562 L 45.95600128173828 -6.0359997749328596 L 47.24300003051758 -6.493999958038328 L 48.599998474121094 -6.65000009536743 L 49.152000427246094 -6.586542606353758 L 49.957000732421875 -6.493999958038328 L 51.24399948120117 -6.0359997749328596 L 52.39400100708008 -5.2979998588562 L 53.34700012207031 -4.318999767303466 L 54.05261993408203 -3.152280092239379 L 54.05400085449219 -3.1500000953674308 L 57.658843994140625 -3.1500000953674308 L 58.91504669189453 -3.1500000953674308 L 59.34600067138672 -3.1500000953674308 L 60.053001403808594 -4.318999767303466 L 61.00600051879883 -5.2979998588562 L 62.15599822998047 -6.0359997749328596 L 63.44300079345703 -6.493999958038328 L 64.80000305175781 -6.65000009536743 L 65.53600311279297 -6.565389633178709 L 66.15699768066406 -6.493999958038328 L 67.44400024414062 -6.0359997749328596 L 68.59400177001953 -5.2979998588562 L 69.5469970703125 -4.318999767303466 L 70.25262451171875 -3.152280092239379 L 70.25399780273438 -3.1500000953674308 L 73.85884857177734 -3.1500000953674308 L 75.11504364013672 -3.1500000953674308 L 75.5459976196289 -3.1500000953674308 L 76.25299835205078 -4.318999767303466 L 77.20600128173828 -5.2979998588562 L 78.35600280761719 -6.0359997749328596 L 79.64299774169922 -6.493999958038328 L 81 -6.65000009536743 L 81.91999816894531 -6.5442371368408185 L 82.35700225830078 -6.493999958038328 L 83.64399719238281 -6.0359997749328596 L 84.79399871826172 -5.2979998588562 L 85.74700164794922 -4.318999767303466 L 86.45262145996094 -3.152280092239379 L 86.4540023803711 -3.1500000953674308 L 90.05884552001953 -3.1500000953674308 L 91.31504821777344 -3.1500000953674308 L 91.74600219726562 -3.1500000953674308 L 92.4530029296875 -4.318999767303466 L 93.40599822998047 -5.2979998588562 L 94.55599975585938 -6.0359997749328596 L 95.84300231933594 -6.493999958038328 L 97.19999694824219 -6.65000009536743 L 98.30400085449219 -6.523084640502928 L 98.55699920654297 -6.493999958038328 L 99.84400177001953 -6.0359997749328596 L 100.99400329589844 -5.2979998588562 L 101.9469985961914 -4.318999767303466 L 102.65261840820312 -3.152280092239379 L 102.65399932861328 -3.1500000953674308 L 106.25884246826172 -3.1500000953674308 L 107.51504516601562 -3.1500000953674308 L 107.94599914550781 -3.1500000953674308 L 108.65299987792969 -4.318999767303466 L 109.60600280761719 -5.2979998588562 L 110.75599670410156 -6.0359997749328596 L 112.04299926757812 -6.493999958038328 L 113.4000015258789 -6.65000009536743 L 114.68800354003906 -6.501932144165037 L 114.75700378417969 -6.493999958038328 L 116.04399871826172 -6.0359997749328596 L 117.19400024414062 -5.2979998588562 L 118.14700317382812 -4.318999767303466 L 118.85399627685547 -3.1500000953674308 L 122 -3.1500000953674308 L 122 -9.638651847839354 L 122 -11.383540153503416 L 122 -12.14999961853027 L 120.54115295410156 -12.14999961853027 L 119.28495025634766 -12.14999961853027 L 118.85399627685547 -12.14999961853027 L 118.14700317382812 -10.980999946594237 L 117.19400024414062 -10.001999855041502 L 116.04399871826172 -9.263999938964842 L 114.75700378417969 -8.805999755859373 M 114.75700378417969 5.193999767303466 L 114.68800354003906 5.201932430267333 L 113.4000015258789 5.3499999046325675 L 112.04299926757812 5.193999767303466 L 110.75599670410156 4.736000061035155 L 109.60600280761719 3.997999906539916 L 108.65299987792969 3.019000053405761 L 107.94599914550781 1.8500000238418575 L 106.49600219726562 1.8500000238418575 L 104.34115600585938 1.8500000238418575 L 103.08495330810547 1.8500000238418575 L 102.65399932861328 1.8500000238418575 L 101.9469985961914 3.019000053405761 L 100.99400329589844 3.997999906539916 L 99.84400177001953 4.736000061035155 L 98.55699920654297 5.193999767303466 L 98.30400085449219 5.223084926605224 L 97.19999694824219 5.3499999046325675 L 95.84300231933594 5.193999767303466 L 94.55599975585938 4.736000061035155 L 93.40599822998047 3.997999906539916 L 92.4530029296875 3.019000053405761 L 91.74600219726562 1.8500000238418575 L 90.11199951171875 1.8500000238418575 L 88.14115142822266 1.8500000238418575 L 86.88495635986328 1.8500000238418575 L 86.4540023803711 1.8500000238418575 L 85.74700164794922 3.019000053405761 L 84.79399871826172 3.997999906539916 L 83.64399719238281 4.736000061035155 L 82.35700225830078 5.193999767303466 L 81.91999816894531 5.244237422943114 L 81 5.3499999046325675 L 79.64299774169922 5.193999767303466 L 78.35600280761719 4.736000061035155 L 77.20600128173828 3.997999906539916 L 76.25299835205078 3.019000053405761 L 75.5459976196289 1.8500000238418575 L 73.72799682617188 1.8500000238418575 L 71.94115447998047 1.8500000238418575 L 70.68495178222656 1.8500000238418575 L 70.25399780273438 1.8500000238418575 L 69.5469970703125 3.019000053405761 L 68.59400177001953 3.997999906539916 L 67.44400024414062 4.736000061035155 L 66.15699768066406 5.193999767303466 L 65.53600311279297 5.265389919281005 L 64.80000305175781 5.3499999046325675 L 63.44300079345703 5.193999767303466 L 62.15599822998047 4.736000061035155 L 61.00600051879883 3.997999906539916 L 60.053001403808594 3.019000053405761 L 59.34600067138672 1.8500000238418575 L 57.34400177001953 1.8500000238418575 L 55.741153717041016 1.8500000238418575 L 54.484954833984375 1.8500000238418575 L 54.05400085449219 1.8500000238418575 L 53.34700012207031 3.019000053405761 L 52.39400100708008 3.997999906539916 L 51.24399948120117 4.736000061035155 L 49.957000732421875 5.193999767303466 L 49.152000427246094 5.286542415618896 L 48.599998474121094 5.3499999046325675 L 47.24300003051758 5.193999767303466 L 45.95600128173828 4.736000061035155 L 44.805999755859375 3.997999906539916 L 43.85300064086914 3.019000053405761 L 43.145999908447266 1.8500000238418575 L 40.959999084472656 1.8500000238418575 L 39.54115295410156 1.8500000238418575 L 38.28495407104492 1.8500000238418575 L 37.854000091552734 1.8500000238418575 L 37.14699935913086 3.019000053405761 L 36.194000244140625 3.997999906539916 L 35.04399871826172 4.736000061035155 L 33.75699996948242 5.193999767303466 L 32.768001556396484 5.307694911956786 L 32.400001525878906 5.3499999046325675 L 31.042999267578125 5.193999767303466 L 29.756000518798828 4.736000061035155 L 28.606000900268555 3.997999906539916 L 27.652999877929688 3.019000053405761 L 26.945999145507812 1.8500000238418575 L 24.576000213623047 1.8500000238418575 L 23.341154098510742 1.8500000238418575 L 22.08495330810547 1.8500000238418575 L 21.65399932861328 1.8500000238418575 L 20.94700050354004 3.019000053405761 L 19.993999481201172 3.997999906539916 L 18.8439998626709 4.736000061035155 L 17.55699920654297 5.193999767303466 L 16.384000778198242 5.328847408294677 L 16.200000762939453 5.3499999046325675 L 14.843000411987305 5.193999767303466 L 13.555999755859375 4.736000061035155 L 12.406000137329102 3.997999906539916 L 11.45300006866455 3.019000053405761 L 10.746000289916992 1.8500000238418575 L 8.192000389099121 1.8500000238418575 L 7.1411542892456055 1.8500000238418575 L 5.88495397567749 1.8500000238418575 L 5.453999996185303 1.8500000238418575 L 4.747000217437744 3.019000053405761 L 3.7939999103546143 3.997999906539916 L 2.6440000534057617 4.736000061035155 L 1.3569999933242798 5.193999767303466 L 0 5.3499999046325675 L -1.3569999933242798 5.193999767303466 L -2.6440000534057617 4.736000061035155 L -3.7939999103546143 3.997999906539916 L -4.747000217437744 3.019000053405761 L -5.453999996185303 1.8500000238418575 L -8.192000389099121 1.8500000238418575 L -9.058845520019531 1.8500000238418575 L -10.315046310424805 1.8500000238418575 L -10.746000289916992 1.8500000238418575 L -11.45300006866455 3.019000053405761 L -12.406000137329102 3.997999906539916 L -13.555999755859375 4.736000061035155 L -14.843000411987305 5.193999767303466 L -16.200000762939453 5.3499999046325675 L -16.384000778198242 5.328847408294677 L -17.55699920654297 5.193999767303466 L -18.8439998626709 4.736000061035155 L -19.993999481201172 3.997999906539916 L -20.94700050354004 3.019000053405761 L -21.65399932861328 1.8500000238418575 L -24.576000213623047 1.8500000238418575 L -25.258846282958984 1.8500000238418575 L -26.515045166015625 1.8500000238418575 L -26.945999145507812 1.8500000238418575 L -27.652999877929688 3.019000053405761 L -28.606000900268555 3.997999906539916 L -29.756000518798828 4.736000061035155 L -31.042999267578125 5.193999767303466 L -32.400001525878906 5.3499999046325675 L -32.768001556396484 5.307694911956786 L -33.75699996948242 5.193999767303466 L -35.04399871826172 4.736000061035155 L -36.194000244140625 3.997999906539916 L -37.14699935913086 3.019000053405761 L -37.854000091552734 1.8500000238418575 L -40.959999084472656 1.8500000238418575 L -41.45884704589844 1.8500000238418575 L -42.71504592895508 1.8500000238418575 L -43.145999908447266 1.8500000238418575 L -43.85300064086914 3.019000053405761 L -44.805999755859375 3.997999906539916 L -45.95600128173828 4.736000061035155 L -47.24300003051758 5.193999767303466 L -48.599998474121094 5.3499999046325675 L -49.152000427246094 5.286542415618896 L -49.957000732421875 5.193999767303466 L -51.24399948120117 4.736000061035155 L -52.39400100708008 3.997999906539916 L -53.34700012207031 3.019000053405761 L -54.05400085449219 1.8500000238418575 L -57.34400177001953 1.8500000238418575 L -57.658843994140625 1.8500000238418575 L -58.91504669189453 1.8500000238418575 L -59.34600067138672 1.8500000238418575 L -60.053001403808594 3.019000053405761 L -61.00600051879883 3.997999906539916 L -62.15599822998047 4.736000061035155 L -63.44300079345703 5.193999767303466 L -64.80000305175781 5.3499999046325675 L -65.53600311279297 5.265389919281005 L -66.15699768066406 5.193999767303466 L -67.44400024414062 4.736000061035155 L -68.59400177001953 3.997999906539916 L -69.5469970703125 3.019000053405761 L -70.25399780273438 1.8500000238418575 L -73.72799682617188 1.8500000238418575 L -73.85884857177734 1.8500000238418575 L -75.11504364013672 1.8500000238418575 L -75.5459976196289 1.8500000238418575 L -76.25299835205078 3.019000053405761 L -77.20600128173828 3.997999906539916 L -78.35600280761719 4.736000061035155 L -79.64299774169922 5.193999767303466 L -81 5.3499999046325675 L -81.91999816894531 5.244237422943114 L -82.35700225830078 5.193999767303466 L -83.64399719238281 4.736000061035155 L -84.79399871826172 3.997999906539916 L -85.74700164794922 3.019000053405761 L -86.4540023803711 1.8500000238418575 L -90.11199951171875 1.8500000238418575 L -91.31504821777344 1.8500000238418575 L -91.74600219726562 1.8500000238418575 L -92.4530029296875 3.019000053405761 L -93.40599822998047 3.997999906539916 L -94.55599975585938 4.736000061035155 L -95.84300231933594 5.193999767303466 L -97.19999694824219 5.3499999046325675 L -98.30400085449219 5.223084926605224 L -98.55699920654297 5.193999767303466 L -99.84400177001953 4.736000061035155 L -100.99400329589844 3.997999906539916 L -101.9469985961914 3.019000053405761 L -102.65399932861328 1.8500000238418575 L -106.49600219726562 1.8500000238418575 L -107.51504516601562 1.8500000238418575 L -107.94599914550781 1.8500000238418575 L -108.65299987792969 3.019000053405761 L -109.60600280761719 3.997999906539916 L -110.75599670410156 4.736000061035155 L -112.04299926757812 5.193999767303466 L -113.4000015258789 5.3499999046325675 L -114.68800354003906 5.201932430267333 L -114.75700378417969 5.193999767303466 L -116.04399871826172 4.736000061035155 L -117.19400024414062 3.997999906539916 L -118.14700317382812 3.019000053405761 L -118.85399627685547 1.8500000238418575 L -122 1.8500000238418575 L -122 10.083539962768553 L -122 10.850000381469725 L -121.8779525756836 10.850000381469725 L -120.54115295410156 10.850000381469725 L -119.28495025634766 10.850000381469725 L -118.85399627685547 10.850000381469725 L -118.14700317382812 9.680999755859373 L -117.19400024414062 8.701999664306639 L -116.04399871826172 7.964000225067137 L -115.31352996826172 7.704049110412596 L -114.75700378417969 7.506000041961668 L -114.68800354003906 7.498067855834959 L -113.4000015258789 7.349999904632567 L -112.04299926757812 7.506000041961668 L -110.75599670410156 7.964000225067137 L -110.40071868896484 8.19200038909912 L -109.60600280761719 8.701999664306639 L -108.65299987792969 9.680999755859373 L -107.94599914550781 10.850000381469725 L -105.6779556274414 10.850000381469725 L -104.34115600585938 10.850000381469725 L -103.08495330810547 10.850000381469725 L -102.65399932861328 10.850000381469725 L -101.9469985961914 9.680999755859373 L -100.99400329589844 8.701999664306639 L -100.19928741455078 8.19200038909912 L -99.84400177001953 7.964000225067137 L -99.113525390625 7.704049110412596 L -98.55699920654297 7.506000041961668 L -98.30400085449219 7.4769153594970685 L -97.19999694824219 7.349999904632567 L -95.84300231933594 7.506000041961668 L -94.55599975585938 7.964000225067137 L -94.20071411132812 8.19200038909912 L -93.40599822998047 8.701999664306639 L -92.4530029296875 9.680999755859373 L -91.74600219726562 10.850000381469725 L -89.47795104980469 10.850000381469725 L -88.14115142822266 10.850000381469725 L -86.88495635986328 10.850000381469725 L -86.4540023803711 10.850000381469725 L -85.74700164794922 9.680999755859373 L -84.79399871826172 8.701999664306639 L -83.99928283691406 8.19200038909912 L -83.64399719238281 7.964000225067137 L -82.91352844238281 7.704049110412596 L -82.35700225830078 7.506000041961668 L -81.91999816894531 7.455762863159178 L -81 7.349999904632567 L -79.64299774169922 7.506000041961668 L -78.35600280761719 7.964000225067137 L -78.00071716308594 8.19200038909912 L -77.20600128173828 8.701999664306639 L -76.25299835205078 9.680999755859373 L -75.5459976196289 10.850000381469725 L -73.2779541015625 10.850000381469725 L -71.94115447998047 10.850000381469725 L -70.68495178222656 10.850000381469725 L -70.25399780273438 10.850000381469725 L -69.5469970703125 9.680999755859373 L -68.59400177001953 8.701999664306639 L -67.79928588867188 8.19200038909912 L -67.44400024414062 7.964000225067137 L -66.7135238647461 7.704049110412596 L -66.15699768066406 7.506000041961668 L -65.53600311279297 7.434610366821287 L -64.80000305175781 7.349999904632567 L -63.44300079345703 7.506000041961668 L -62.15599822998047 7.964000225067137 L -61.800716400146484 8.19200038909912 L -61.00600051879883 8.701999664306639 L -60.053001403808594 9.680999755859373 L -59.34600067138672 10.850000381469725 L -57.07795333862305 10.850000381469725 L -55.741153717041016 10.850000381469725 L -54.484954833984375 10.850000381469725 L -54.05400085449219 10.850000381469725 L -53.34700012207031 9.680999755859373 L -52.39400100708008 8.701999664306639 L -51.59928512573242 8.19200038909912 L -51.24399948120117 7.964000225067137 L -50.513526916503906 7.704049110412596 L -49.957000732421875 7.506000041961668 L -49.152000427246094 7.4134573936462385 L -48.599998474121094 7.349999904632567 L -47.24300003051758 7.506000041961668 L -45.95600128173828 7.964000225067137 L -45.60071563720703 8.19200038909912 L -44.805999755859375 8.701999664306639 L -43.85300064086914 9.680999755859373 L -43.145999908447266 10.850000381469725 L -40.877952575683594 10.850000381469725 L -39.54115295410156 10.850000381469725 L -38.28495407104492 10.850000381469725 L -37.854000091552734 10.850000381469725 L -37.14699935913086 9.680999755859373 L -36.194000244140625 8.701999664306639 L -35.39928436279297 8.19200038909912 L -35.04399871826172 7.964000225067137 L -34.31352615356445 7.704049110412596 L -33.75699996948242 7.506000041961668 L -32.87757873535156 7.404901981353758 L -32.768001556396484 7.392304897308348 L -32.400001525878906 7.349999904632567 L -31.042999267578125 7.506000041961668 L -29.756000518798828 7.964000225067137 L -29.400714874267578 8.19200038909912 L -28.606000900268555 8.701999664306639 L -27.652999877929688 9.680999755859373 L -26.945999145507812 10.850000381469725 L -24.67795181274414 10.850000381469725 L -23.341154098510742 10.850000381469725 L -22.08495330810547 10.850000381469725 L -21.65399932861328 10.850000381469725 L -20.94700050354004 9.680999755859373 L -19.993999481201172 8.701999664306639 L -19.199283599853516 8.19200038909912 L -18.8439998626709 7.964000225067137 L -18.113527297973633 7.704049110412596 L -17.55699920654297 7.506000041961668 L -16.67757797241211 7.404901981353758 L -16.384000778198242 7.371152400970457 L -16.200000762939453 7.349999904632567 L -14.843000411987305 7.506000041961668 L -13.555999755859375 7.964000225067137 L -13.200715065002441 8.19200038909912 L -12.406000137329102 8.701999664306639 L -11.45300006866455 9.680999755859373 L -10.746000289916992 10.850000381469725 L -8.477952003479004 10.850000381469725 L -7.1411542892456055 10.850000381469725 L -5.88495397567749 10.850000381469725 L -5.453999996185303 10.850000381469725 L -4.747000217437744 9.680999755859373 L -3.7939999103546143 8.701999664306639 L -2.999284505844116 8.19200038909912 L -2.6440000534057617 7.964000225067137 L -1.9135271310806274 7.704049110412596 L -1.3569999933242798 7.506000041961668 L -0.47757747769355774 7.404901981353758 L 0 7.349999904632567 L 1.3569999933242798 7.506000041961668 L 2.6440000534057617 7.964000225067137 L 2.999284505844116 8.19200038909912 L 3.7939999103546143 8.701999664306639 L 4.747000217437744 9.680999755859373 L 5.453999996185303 10.850000381469725 L 7.722047805786133 10.850000381469725 L 9.058845520019531 10.850000381469725 L 10.315046310424805 10.850000381469725 L 10.746000289916992 10.850000381469725 L 11.45300006866455 9.680999755859373 L 12.406000137329102 8.701999664306639 L 13.200715065002441 8.19200038909912 L 13.555999755859375 7.964000225067137 L 14.286473274230957 7.704049110412596 L 14.843000411987305 7.506000041961668 L 15.72242259979248 7.404901981353758 L 16.200000762939453 7.349999904632567 L 16.384000778198242 7.371152400970457 L 17.55699920654297 7.506000041961668 L 18.8439998626709 7.964000225067137 L 19.199283599853516 8.19200038909912 L 19.993999481201172 8.701999664306639 L 20.94700050354004 9.680999755859373 L 21.65399932861328 10.850000381469725 L 23.922048568725586 10.850000381469725 L 25.258846282958984 10.850000381469725 L 26.515045166015625 10.850000381469725 L 26.945999145507812 10.850000381469725 L 27.652999877929688 9.680999755859373 L 28.606000900268555 8.701999664306639 L 29.400714874267578 8.19200038909912 L 29.756000518798828 7.964000225067137 L 30.486473083496094 7.704049110412596 L 31.042999267578125 7.506000041961668 L 31.922422409057617 7.404901981353758 L 32.400001525878906 7.349999904632567 L 32.768001556396484 7.392304897308348 L 33.75699996948242 7.506000041961668 L 35.04399871826172 7.964000225067137 L 35.39928436279297 8.19200038909912 L 36.194000244140625 8.701999664306639 L 37.14699935913086 9.680999755859373 L 37.854000091552734 10.850000381469725 L 40.122047424316406 10.850000381469725 L 41.45884704589844 10.850000381469725 L 42.71504592895508 10.850000381469725 L 43.145999908447266 10.850000381469725 L 43.85300064086914 9.680999755859373 L 44.805999755859375 8.701999664306639 L 45.60071563720703 8.19200038909912 L 45.95600128173828 7.964000225067137 L 46.68647384643555 7.704049110412596 L 47.24300003051758 7.506000041961668 L 48.12242126464844 7.404901981353758 L 48.599998474121094 7.349999904632567 L 49.152000427246094 7.4134573936462385 L 49.957000732421875 7.506000041961668 L 51.24399948120117 7.964000225067137 L 51.59928512573242 8.19200038909912 L 52.39400100708008 8.701999664306639 L 53.34700012207031 9.680999755859373 L 54.05400085449219 10.850000381469725 L 56.32204818725586 10.850000381469725 L 57.658843994140625 10.850000381469725 L 58.91504669189453 10.850000381469725 L 59.34600067138672 10.850000381469725 L 60.053001403808594 9.680999755859373 L 61.00600051879883 8.701999664306639 L 61.800716400146484 8.19200038909912 L 62.15599822998047 7.964000225067137 L 62.886474609375 7.704049110412596 L 63.44300079345703 7.506000041961668 L 64.32242584228516 7.404901981353758 L 64.80000305175781 7.349999904632567 L 65.53600311279297 7.434610366821287 L 66.15699768066406 7.506000041961668 L 67.44400024414062 7.964000225067137 L 67.79928588867188 8.19200038909912 L 68.59400177001953 8.701999664306639 L 69.5469970703125 9.680999755859373 L 70.25399780273438 10.850000381469725 L 72.52204895019531 10.850000381469725 L 73.85884857177734 10.850000381469725 L 75.11504364013672 10.850000381469725 L 75.5459976196289 10.850000381469725 L 76.25299835205078 9.680999755859373 L 77.20600128173828 8.701999664306639 L 78.00071716308594 8.19200038909912 L 78.35600280761719 7.964000225067137 L 79.08647155761719 7.704049110412596 L 79.64299774169922 7.506000041961668 L 80.52242279052734 7.404901981353758 L 81 7.349999904632567 L 81.91999816894531 7.455762863159178 L 82.35700225830078 7.506000041961668 L 83.64399719238281 7.964000225067137 L 83.99928283691406 8.19200038909912 L 84.79399871826172 8.701999664306639 L 85.74700164794922 9.680999755859373 L 86.4540023803711 10.850000381469725 L 88.7220458984375 10.850000381469725 L 90.05884552001953 10.850000381469725 L 91.31504821777344 10.850000381469725 L 91.74600219726562 10.850000381469725 L 92.4530029296875 9.680999755859373 L 93.40599822998047 8.701999664306639 L 94.20071411132812 8.19200038909912 L 94.55599975585938 7.964000225067137 L 95.2864761352539 7.704049110412596 L 95.84300231933594 7.506000041961668 L 96.72241973876953 7.404901981353758 L 97.19999694824219 7.349999904632567 L 98.30400085449219 7.4769153594970685 L 98.55699920654297 7.506000041961668 L 99.84400177001953 7.964000225067137 L 100.19928741455078 8.19200038909912 L 100.99400329589844 8.701999664306639 L 101.9469985961914 9.680999755859373 L 102.65399932861328 10.850000381469725 L 104.92205047607422 10.850000381469725 L 106.25884246826172 10.850000381469725 L 107.51504516601562 10.850000381469725 L 107.94599914550781 10.850000381469725 L 108.65299987792969 9.680999755859373 L 109.60600280761719 8.701999664306639 L 110.40071868896484 8.19200038909912 L 110.75599670410156 7.964000225067137 L 111.4864730834961 7.704049110412596 L 112.04299926757812 7.506000041961668 L 112.92242431640625 7.404901981353758 L 113.4000015258789 7.349999904632567 L 114.68800354003906 7.498067855834959 L 114.75700378417969 7.506000041961668 L 116.04399871826172 7.964000225067137 L 117.19400024414062 8.701999664306639 L 118.14700317382812 9.680999755859373 L 118.85399627685547 10.850000381469725 L 122 10.850000381469725 L 122 4.361348628997802 L 122 2.6164600849151607 L 122 1.8500000238418575 L 120.54115295410156 1.8500000238418575 L 119.28495025634766 1.8500000238418575 L 118.85399627685547 1.8500000238418575 L 118.14700317382812 3.019000053405761 L 117.19400024414062 3.997999906539916 L 116.04399871826172 4.736000061035155 L 114.75700378417969 5.193999767303466 M 116.04399871826172 18.736000061035153 L 115.31352996826172 18.995950698852536 L 114.75700378417969 19.19400024414062 L 114.68800354003906 19.20193290710449 L 113.4000015258789 19.350000381469723 L 112.04299926757812 19.19400024414062 L 110.75599670410156 18.736000061035153 L 109.60600280761719 17.997999191284176 L 108.65299987792969 17.01899909973144 L 108.26895904541016 16.38400077819824 L 107.94599914550781 15.850000381469723 L 105.6779556274414 15.850000381469723 L 102.65399932861328 15.850000381469723 L 102.33103942871094 16.38400077819824 L 101.9469985961914 17.01899909973144 L 100.99400329589844 17.997999191284176 L 99.84400177001953 18.736000061035153 L 98.55699920654297 19.19400024414062 L 98.30400085449219 19.22308540344238 L 97.19999694824219 19.350000381469723 L 95.84300231933594 19.19400024414062 L 94.55599975585938 18.736000061035153 L 93.40599822998047 17.997999191284176 L 92.4530029296875 17.01899909973144 L 92.06895446777344 16.38400077819824 L 91.74600219726562 15.850000381469723 L 89.47795104980469 15.850000381469723 L 86.4540023803711 15.850000381469723 L 86.13104248046875 16.38400077819824 L 85.74700164794922 17.01899909973144 L 84.79399871826172 17.997999191284176 L 83.64399719238281 18.736000061035153 L 82.35700225830078 19.19400024414062 L 81.91999816894531 19.24423789978027 L 81 19.350000381469723 L 79.64299774169922 19.19400024414062 L 78.35600280761719 18.736000061035153 L 77.20600128173828 17.997999191284176 L 76.25299835205078 17.01899909973144 L 75.86895751953125 16.38400077819824 L 75.5459976196289 15.850000381469723 L 73.2779541015625 15.850000381469723 L 70.25399780273438 15.850000381469723 L 69.93104553222656 16.38400077819824 L 69.5469970703125 17.01899909973144 L 68.59400177001953 17.997999191284176 L 67.44400024414062 18.736000061035153 L 66.15699768066406 19.19400024414062 L 65.53600311279297 19.26539039611816 L 64.80000305175781 19.350000381469723 L 63.44300079345703 19.19400024414062 L 62.15599822998047 18.736000061035153 L 61.00600051879883 17.997999191284176 L 60.053001403808594 17.01899909973144 L 59.6689567565918 16.38400077819824 L 59.34600067138672 15.850000381469723 L 57.07795333862305 15.850000381469723 L 54.05400085449219 15.850000381469723 L 53.731040954589844 16.38400077819824 L 53.34700012207031 17.01899909973144 L 52.39400100708008 17.997999191284176 L 51.24399948120117 18.736000061035153 L 49.957000732421875 19.19400024414062 L 49.152000427246094 19.28654289245605 L 48.599998474121094 19.350000381469723 L 47.24300003051758 19.19400024414062 L 45.95600128173828 18.736000061035153 L 44.805999755859375 17.997999191284176 L 43.85300064086914 17.01899909973144 L 43.46895980834961 16.38400077819824 L 43.145999908447266 15.850000381469723 L 40.877952575683594 15.850000381469723 L 37.854000091552734 15.850000381469723 L 37.53104019165039 16.38400077819824 L 37.14699935913086 17.01899909973144 L 36.194000244140625 17.997999191284176 L 35.04399871826172 18.736000061035153 L 33.75699996948242 19.19400024414062 L 32.87757873535156 19.295097351074215 L 32.768001556396484 19.30769538879394 L 32.400001525878906 19.350000381469723 L 31.042999267578125 19.19400024414062 L 29.756000518798828 18.736000061035153 L 28.606000900268555 17.997999191284176 L 27.652999877929688 17.01899909973144 L 27.268957138061523 16.38400077819824 L 26.945999145507812 15.850000381469723 L 24.67795181274414 15.850000381469723 L 21.65399932861328 15.850000381469723 L 21.33104133605957 16.38400077819824 L 20.94700050354004 17.01899909973144 L 19.993999481201172 17.997999191284176 L 18.8439998626709 18.736000061035153 L 17.55699920654297 19.19400024414062 L 16.67757797241211 19.295097351074215 L 16.384000778198242 19.328847885131832 L 16.200000762939453 19.350000381469723 L 14.843000411987305 19.19400024414062 L 13.555999755859375 18.736000061035153 L 12.406000137329102 17.997999191284176 L 11.45300006866455 17.01899909973144 L 11.068958282470703 16.38400077819824 L 10.746000289916992 15.850000381469723 L 8.477952003479004 15.850000381469723 L 5.453999996185303 15.850000381469723 L 5.131042003631592 16.38400077819824 L 4.747000217437744 17.01899909973144 L 3.7939999103546143 17.997999191284176 L 2.6440000534057617 18.736000061035153 L 1.3569999933242798 19.19400024414062 L 0.47757747769355774 19.295097351074215 L 0 19.350000381469723 L -1.3569999933242798 19.19400024414062 L -2.6440000534057617 18.736000061035153 L -3.7939999103546143 17.997999191284176 L -4.747000217437744 17.01899909973144 L -5.131042003631592 16.38400077819824 L -5.453999996185303 15.850000381469723 L -7.722047805786133 15.850000381469723 L -10.746000289916992 15.850000381469723 L -11.068958282470703 16.38400077819824 L -11.45300006866455 17.01899909973144 L -12.406000137329102 17.997999191284176 L -13.555999755859375 18.736000061035153 L -14.843000411987305 19.19400024414062 L -16.200000762939453 19.350000381469723 L -16.384000778198242 19.328847885131832 L -17.55699920654297 19.19400024414062 L -18.8439998626709 18.736000061035153 L -19.993999481201172 17.997999191284176 L -20.94700050354004 17.01899909973144 L -21.33104133605957 16.38400077819824 L -21.65399932861328 15.850000381469723 L -23.922048568725586 15.850000381469723 L -26.945999145507812 15.850000381469723 L -27.268957138061523 16.38400077819824 L -27.652999877929688 17.01899909973144 L -28.606000900268555 17.997999191284176 L -29.756000518798828 18.736000061035153 L -31.042999267578125 19.19400024414062 L -32.400001525878906 19.350000381469723 L -32.768001556396484 19.30769538879394 L -33.75699996948242 19.19400024414062 L -35.04399871826172 18.736000061035153 L -36.194000244140625 17.997999191284176 L -37.14699935913086 17.01899909973144 L -37.53104019165039 16.38400077819824 L -37.854000091552734 15.850000381469723 L -40.122047424316406 15.850000381469723 L -43.145999908447266 15.850000381469723 L -43.46895980834961 16.38400077819824 L -43.85300064086914 17.01899909973144 L -44.805999755859375 17.997999191284176 L -45.95600128173828 18.736000061035153 L -47.24300003051758 19.19400024414062 L -48.599998474121094 19.350000381469723 L -49.152000427246094 19.28654289245605 L -49.957000732421875 19.19400024414062 L -51.24399948120117 18.736000061035153 L -52.39400100708008 17.997999191284176 L -53.34700012207031 17.01899909973144 L -53.731040954589844 16.38400077819824 L -54.05400085449219 15.850000381469723 L -56.32204818725586 15.850000381469723 L -59.34600067138672 15.850000381469723 L -59.6689567565918 16.38400077819824 L -60.053001403808594 17.01899909973144 L -61.00600051879883 17.997999191284176 L -62.15599822998047 18.736000061035153 L -63.44300079345703 19.19400024414062 L -64.80000305175781 19.350000381469723 L -65.53600311279297 19.26539039611816 L -66.15699768066406 19.19400024414062 L -67.44400024414062 18.736000061035153 L -68.59400177001953 17.997999191284176 L -69.5469970703125 17.01899909973144 L -69.93104553222656 16.38400077819824 L -70.25399780273438 15.850000381469723 L -72.52204895019531 15.850000381469723 L -75.5459976196289 15.850000381469723 L -75.86895751953125 16.38400077819824 L -76.25299835205078 17.01899909973144 L -77.20600128173828 17.997999191284176 L -78.35600280761719 18.736000061035153 L -79.64299774169922 19.19400024414062 L -81 19.350000381469723 L -81.91999816894531 19.24423789978027 L -82.35700225830078 19.19400024414062 L -83.64399719238281 18.736000061035153 L -84.79399871826172 17.997999191284176 L -85.74700164794922 17.01899909973144 L -86.13104248046875 16.38400077819824 L -86.4540023803711 15.850000381469723 L -88.7220458984375 15.850000381469723 L -91.74600219726562 15.850000381469723 L -92.06895446777344 16.38400077819824 L -92.4530029296875 17.01899909973144 L -93.40599822998047 17.997999191284176 L -94.55599975585938 18.736000061035153 L -95.84300231933594 19.19400024414062 L -97.19999694824219 19.350000381469723 L -98.30400085449219 19.22308540344238 L -98.55699920654297 19.19400024414062 L -99.84400177001953 18.736000061035153 L -100.99400329589844 17.997999191284176 L -101.9469985961914 17.01899909973144 L -102.33103942871094 16.38400077819824 L -102.65399932861328 15.850000381469723 L -104.92205047607422 15.850000381469723 L -107.94599914550781 15.850000381469723 L -108.26895904541016 16.38400077819824 L -108.65299987792969 17.01899909973144 L -109.60600280761719 17.997999191284176 L -110.75599670410156 18.736000061035153 L -112.04299926757812 19.19400024414062 L -113.4000015258789 19.350000381469723 L -114.68800354003906 19.20193290710449 L -114.75700378417969 19.19400024414062 L -116.04399871826172 18.736000061035153 L -117.19400024414062 17.997999191284176 L -118.14700317382812 17.01899909973144 L -118.53104400634766 16.38400077819824 L -118.85399627685547 15.850000381469723 L -122 15.850000381469723 L -122 16.38400077819824 L -122 24.083539962768548 L -122 24.57600021362304 L -122 24.85000038146972 L -121.8779525756836 24.85000038146972 L -118.85399627685547 24.85000038146972 L -118.68828582763672 24.57600021362304 L -118.14700317382812 23.68099975585937 L -117.19400024414062 22.701999664306637 L -116.04399871826172 21.964000701904293 L -115.31352996826172 21.70405006408691 L -114.75700378417969 21.506000518798825 L -114.68800354003906 21.498067855834957 L -113.4000015258789 21.350000381469723 L -112.04299926757812 21.506000518798825 L -110.75599670410156 21.964000701904293 L -109.60600280761719 22.701999664306637 L -108.65299987792969 23.68099975585937 L -108.11170959472656 24.57600021362304 L -107.94599914550781 24.85000038146972 L -105.6779556274414 24.85000038146972 L -102.65399932861328 24.85000038146972 L -102.48828887939453 24.57600021362304 L -101.9469985961914 23.68099975585937 L -100.99400329589844 22.701999664306637 L -99.84400177001953 21.964000701904293 L -99.113525390625 21.70405006408691 L -98.55699920654297 21.506000518798825 L -98.30400085449219 21.476915359497067 L -97.19999694824219 21.350000381469723 L -95.84300231933594 21.506000518798825 L -94.55599975585938 21.964000701904293 L -93.40599822998047 22.701999664306637 L -92.4530029296875 23.68099975585937 L -91.91171264648438 24.57600021362304 L -91.74600219726562 24.85000038146972 L -89.47795104980469 24.85000038146972 L -86.4540023803711 24.85000038146972 L -86.28828430175781 24.57600021362304 L -85.74700164794922 23.68099975585937 L -84.79399871826172 22.701999664306637 L -83.64399719238281 21.964000701904293 L -82.91352844238281 21.70405006408691 L -82.35700225830078 21.506000518798825 L -81.91999816894531 21.455762863159176 L -81 21.350000381469723 L -79.64299774169922 21.506000518798825 L -78.35600280761719 21.964000701904293 L -77.20600128173828 22.701999664306637 L -76.25299835205078 23.68099975585937 L -75.71171569824219 24.57600021362304 L -75.5459976196289 24.85000038146972 L -73.2779541015625 24.85000038146972 L -70.25399780273438 24.85000038146972 L -70.08828735351562 24.57600021362304 L -69.5469970703125 23.68099975585937 L -68.59400177001953 22.701999664306637 L -67.44400024414062 21.964000701904293 L -66.7135238647461 21.70405006408691 L -66.15699768066406 21.506000518798825 L -65.53600311279297 21.434610366821286 L -64.80000305175781 21.350000381469723 L -63.44300079345703 21.506000518798825 L -62.15599822998047 21.964000701904293 L -61.00600051879883 22.701999664306637 L -60.053001403808594 23.68099975585937 L -59.51171112060547 24.57600021362304 L -59.34600067138672 24.85000038146972 L -57.07795333862305 24.85000038146972 L -54.05400085449219 24.85000038146972 L -53.88828659057617 24.57600021362304 L -53.34700012207031 23.68099975585937 L -52.39400100708008 22.701999664306637 L -51.24399948120117 21.964000701904293 L -50.513526916503906 21.70405006408691 L -49.957000732421875 21.506000518798825 L -49.152000427246094 21.413457870483395 L -48.599998474121094 21.350000381469723 L -47.24300003051758 21.506000518798825 L -45.95600128173828 21.964000701904293 L -44.805999755859375 22.701999664306637 L -43.85300064086914 23.68099975585937 L -43.31171417236328 24.57600021362304 L -43.145999908447266 24.85000038146972 L -40.877952575683594 24.85000038146972 L -37.854000091552734 24.85000038146972 L -37.68828582763672 24.57600021362304 L -37.14699935913086 23.68099975585937 L -36.194000244140625 22.701999664306637 L -35.04399871826172 21.964000701904293 L -34.31352615356445 21.70405006408691 L -33.75699996948242 21.506000518798825 L -32.87757873535156 21.404901504516598 L -32.768001556396484 21.392305374145504 L -32.400001525878906 21.350000381469723 L -31.042999267578125 21.506000518798825 L -29.756000518798828 21.964000701904293 L -28.606000900268555 22.701999664306637 L -27.652999877929688 23.68099975585937 L -27.111713409423828 24.57600021362304 L -26.945999145507812 24.85000038146972 L -24.67795181274414 24.85000038146972 L -21.65399932861328 24.85000038146972 L -21.4882869720459 24.57600021362304 L -20.94700050354004 23.68099975585937 L -19.993999481201172 22.701999664306637 L -18.8439998626709 21.964000701904293 L -18.113527297973633 21.70405006408691 L -17.55699920654297 21.506000518798825 L -16.67757797241211 21.404901504516598 L -16.384000778198242 21.371152877807614 L -16.200000762939453 21.350000381469723 L -14.843000411987305 21.506000518798825 L -13.555999755859375 21.964000701904293 L -12.406000137329102 22.701999664306637 L -11.45300006866455 23.68099975585937 L -10.911712646484375 24.57600021362304 L -10.746000289916992 24.85000038146972 L -8.477952003479004 24.85000038146972 L -5.453999996185303 24.85000038146972 L -5.28828763961792 24.57600021362304 L -4.747000217437744 23.68099975585937 L -3.7939999103546143 22.701999664306637 L -2.6440000534057617 21.964000701904293 L -1.9135271310806274 21.70405006408691 L -1.3569999933242798 21.506000518798825 L -0.47757747769355774 21.404901504516598 L -2.388006615095927e-14 21.350000381469723 L 1.3569999933242798 21.506000518798825 L 2.6440000534057617 21.964000701904293 L 3.7939999103546143 22.701999664306637 L 4.747000217437744 23.68099975585937 L 5.28828763961792 24.57600021362304 L 5.453999996185303 24.85000038146972 L 7.722047805786133 24.85000038146972 L 10.746000289916992 24.85000038146972 L 10.911712646484375 24.57600021362304 L 11.45300006866455 23.68099975585937 L 12.406000137329102 22.701999664306637 L 13.555999755859375 21.964000701904293 L 14.286473274230957 21.70405006408691 L 14.843000411987305 21.506000518798825 L 15.72242259979248 21.404901504516598 L 16.200000762939453 21.350000381469723 L 16.384000778198242 21.371152877807614 L 17.55699920654297 21.506000518798825 L 18.8439998626709 21.964000701904293 L 19.993999481201172 22.701999664306637 L 20.94700050354004 23.68099975585937 L 21.4882869720459 24.57600021362304 L 21.65399932861328 24.85000038146972 L 23.922048568725586 24.85000038146972 L 26.945999145507812 24.85000038146972 L 27.111713409423828 24.57600021362304 L 27.652999877929688 23.68099975585937 L 28.606000900268555 22.701999664306637 L 29.756000518798828 21.964000701904293 L 30.486473083496094 21.70405006408691 L 31.042999267578125 21.506000518798825 L 31.922422409057617 21.404901504516598 L 32.400001525878906 21.350000381469723 L 32.768001556396484 21.392305374145504 L 33.75699996948242 21.506000518798825 L 35.04399871826172 21.964000701904293 L 36.194000244140625 22.701999664306637 L 37.14699935913086 23.68099975585937 L 37.68828582763672 24.57600021362304 L 37.854000091552734 24.85000038146972 L 40.122047424316406 24.85000038146972 L 43.145999908447266 24.85000038146972 L 43.31171417236328 24.57600021362304 L 43.85300064086914 23.68099975585937 L 44.805999755859375 22.701999664306637 L 45.95600128173828 21.964000701904293 L 46.68647384643555 21.70405006408691 L 47.24300003051758 21.506000518798825 L 48.12242126464844 21.404901504516598 L 48.599998474121094 21.350000381469723 L 49.152000427246094 21.413457870483395 L 49.957000732421875 21.506000518798825 L 51.24399948120117 21.964000701904293 L 52.39400100708008 22.701999664306637 L 53.34700012207031 23.68099975585937 L 53.88828659057617 24.57600021362304 L 54.05400085449219 24.85000038146972 L 56.32204818725586 24.85000038146972 L 59.34600067138672 24.85000038146972 L 59.51171112060547 24.57600021362304 L 60.053001403808594 23.68099975585937 L 61.00600051879883 22.701999664306637 L 62.15599822998047 21.964000701904293 L 62.886474609375 21.70405006408691 L 63.44300079345703 21.506000518798825 L 64.32242584228516 21.404901504516598 L 64.80000305175781 21.350000381469723 L 65.53600311279297 21.434610366821286 L 66.15699768066406 21.506000518798825 L 67.44400024414062 21.964000701904293 L 68.59400177001953 22.701999664306637 L 69.5469970703125 23.68099975585937 L 70.08828735351562 24.57600021362304 L 70.25399780273438 24.85000038146972 L 72.52204895019531 24.85000038146972 L 75.5459976196289 24.85000038146972 L 75.71171569824219 24.57600021362304 L 76.25299835205078 23.68099975585937 L 77.20600128173828 22.701999664306637 L 78.35600280761719 21.964000701904293 L 79.08647155761719 21.70405006408691 L 79.64299774169922 21.506000518798825 L 80.52242279052734 21.404901504516598 L 81 21.350000381469723 L 81.91999816894531 21.455762863159176 L 82.35700225830078 21.506000518798825 L 83.64399719238281 21.964000701904293 L 84.79399871826172 22.701999664306637 L 85.74700164794922 23.68099975585937 L 86.28828430175781 24.57600021362304 L 86.4540023803711 24.85000038146972 L 88.7220458984375 24.85000038146972 L 91.74600219726562 24.85000038146972 L 91.91171264648438 24.57600021362304 L 92.4530029296875 23.68099975585937 L 93.40599822998047 22.701999664306637 L 94.55599975585938 21.964000701904293 L 95.2864761352539 21.70405006408691 L 95.84300231933594 21.506000518798825 L 96.72241973876953 21.404901504516598 L 97.19999694824219 21.350000381469723 L 98.30400085449219 21.476915359497067 L 98.55699920654297 21.506000518798825 L 99.84400177001953 21.964000701904293 L 100.99400329589844 22.701999664306637 L 101.9469985961914 23.68099975585937 L 102.48828887939453 24.57600021362304 L 102.65399932861328 24.85000038146972 L 104.92205047607422 24.85000038146972 L 107.94599914550781 24.85000038146972 L 108.11170959472656 24.57600021362304 L 108.65299987792969 23.68099975585937 L 109.60600280761719 22.701999664306637 L 110.75599670410156 21.964000701904293 L 112.04299926757812 21.506000518798825 L 113.4000015258789 21.350000381469723 L 114.68800354003906 21.498067855834957 L 114.75700378417969 21.506000518798825 L 116.04399871826172 21.964000701904293 L 117.19400024414062 22.701999664306637 L 118.14700317382812 23.68099975585937 L 118.68828582763672 24.57600021362304 L 118.85399627685547 24.85000038146972 L 122 24.85000038146972 L 122 24.57600021362304 L 122 16.616460800170895 L 122 16.38400077819824 L 122 16.05180168151855 L 122 15.850000381469723 L 121.8779525756836 15.850000381469723 L 118.85399627685547 15.850000381469723 L 118.53104400634766 16.38400077819824 L 118.14700317382812 17.01899909973144 L 117.19400024414062 17.997999191284176 L 116.04399871826172 18.736000061035153 z" fill="none" stroke="rgb(255,0,0)" stroke-width="0.001mm" />
</svg>