<?xml version="1.0" standalone="no"?>
<!DOCTYPE svg PUBLIC "-//W3C//DTD SVG 1.1//EN"
  "http://www.w3.org/Graphics/SVG/1.1/DTD/svg11.dtd">
<svg width="262mm" height="80.69999694824217mm" viewBox="-131 -40.34999847412109 262 80.69999694824217" xmlns="http://www.w3.org/2000/svg" version="1.1">
	<title>svgOutput</title>
	<desc>made with tinkercad</desc>
<path d="M 129.8300018310547 -21.94400024414062 L 130 -20.64999961853027 L 130 34.34999847412109 L 129.8300018310547 35.64400100708007 L 129.3300018310547 36.84999847412109 L 128.53599548339844 37.886001586914055 L 127.5 38.680000305175774 L 126.29399871826172 39.180000305175774 L 125 39.34999847412109 L 0 39.34999847412109 L -65.5 39.34999847412109 L -65.53600311279297 39.34999847412109 L -125 39.34999847412109 L -126.29399871826172 39.180000305175774 L -127.5 38.680000305175774 L -128.53599548339844 37.886001586914055 L -129.3300018310547 36.84999847412109 L -129.8300018310547 35.64400100708007 L -130 34.34999847412109 L -130 1.1102230246251565e-16 L -130 -20.64999961853027 L -129.8300018310547 -21.94400024414062 L -129.3300018310547 -23.14999961853027 L -128.53599548339844 -24.186000823974602 L -127.5 -24.97999954223632 L -126.29399871826172 -25.47999954223632 L -125 -25.649999618530266 L -93.5 -25.649999618530266 L -92.7239990234375 -25.752000808715813 L -92 -26.05200004577636 L -91.37899780273438 -26.528999328613274 L -90.9020004272461 -27.149999618530266 L -90.60199737548828 -27.8740005493164 L -90.5 -28.649999618530266 L -90.5 -30.182456970214837 L -90.5 -39.34999847412109 L -65.53600311279297 -39.34999847412109 L -65.5 -39.34999847412109 L -65.5 -28.649999618530266 L -65.39800262451172 -27.8740005493164 L -65.0979995727539 -27.149999618530266 L -64.62100219726562 -26.528999328613274 L -64 -26.05200004577636 L -63.2760009765625 -25.752000808715813 L -62.5 -25.649999618530266 L 0 -25.649999618530266 L 125 -25.649999618530266 L 126.29399871826172 -25.47999954223632 L 127.5 -24.97999954223632 L 128.53599548339844 -24.186000823974602 L 129.3300018310547 -23.14999961853027 L 129.8300018310547 -21.94400024414062 z" fill="none" stroke="rgb(255,0,0)" stroke-width="0.001mm" />
</svg>