%TF.GenerationSoftware,KiCad,Pcbnew,9.0.1*%
%TF.CreationDate,2025-06-29T09:49:02-05:00*%
%TF.ProjectId,OM-FlexGrid-Rigid-PCB,4f4d2d46-6c65-4784-9772-69642d526967,rev?*%
%TF.SameCoordinates,Original*%
%TF.FileFunction,Copper,L2,Inr*%
%TF.FilePolarity,Positive*%
%FSLAX46Y46*%
G04 Gerber Fmt 4.6, Leading zero omitted, Abs format (unit mm)*
G04 Created by KiCad (PCBNEW 9.0.1) date 2025-06-29 09:49:02*
%MOMM*%
%LPD*%
G01*
G04 APERTURE LIST*
%TA.AperFunction,ComponentPad*%
%ADD10R,1.350000X1.350000*%
%TD*%
%TA.AperFunction,ComponentPad*%
%ADD11C,1.350000*%
%TD*%
%TA.AperFunction,ComponentPad*%
%ADD12R,1.000000X1.000000*%
%TD*%
%TA.AperFunction,ComponentPad*%
%ADD13C,1.000000*%
%TD*%
%TA.AperFunction,ComponentPad*%
%ADD14R,1.700000X1.700000*%
%TD*%
%TA.AperFunction,ComponentPad*%
%ADD15C,1.700000*%
%TD*%
%TA.AperFunction,HeatsinkPad*%
%ADD16O,1.000000X2.100000*%
%TD*%
%TA.AperFunction,HeatsinkPad*%
%ADD17O,1.000000X1.600000*%
%TD*%
%TA.AperFunction,ViaPad*%
%ADD18C,0.600000*%
%TD*%
G04 APERTURE END LIST*
D10*
%TO.N,GND*%
%TO.C,J7*%
X215450000Y-120800000D03*
D11*
%TO.N,+3V3*%
X215450000Y-122800000D03*
%TD*%
D12*
%TO.N,GP41*%
%TO.C,J1*%
X168480000Y-122500000D03*
D13*
%TO.N,SPI_MOSI*%
X168480000Y-121230000D03*
%TO.N,SPI_SCK*%
X169750000Y-122500000D03*
%TO.N,SPI_MISO*%
X169750000Y-121230000D03*
%TO.N,CS*%
X171020000Y-122500000D03*
%TO.N,GP40*%
X171020000Y-121230000D03*
%TD*%
D14*
%TO.N,GND*%
%TO.C,J2*%
X215500000Y-115500000D03*
D15*
%TO.N,VBAT*%
X215500000Y-112960000D03*
%TD*%
D14*
%TO.N,GND*%
%TO.C,SCRN1*%
X188310000Y-122750000D03*
D15*
%TO.N,+3V3*%
X185770000Y-122750000D03*
%TO.N,SCL*%
X183230000Y-122750000D03*
%TO.N,SDA*%
X180690000Y-122750000D03*
%TD*%
D16*
%TO.N,GND*%
%TO.C,J4*%
X202070000Y-104085000D03*
D17*
X202070000Y-99905000D03*
D16*
X193430000Y-104085000D03*
D17*
X193430000Y-99905000D03*
%TD*%
D12*
%TO.N,GND*%
%TO.C,J6*%
X162230000Y-121750000D03*
D13*
%TO.N,RX*%
X163500000Y-121750000D03*
%TO.N,TX*%
X164770000Y-121750000D03*
%TD*%
D10*
%TO.N,VBAT*%
%TO.C,J5*%
X214500000Y-108000000D03*
D11*
%TO.N,MotorGND*%
X212500000Y-108000000D03*
%TD*%
D12*
%TO.N,COL_0*%
%TO.C,J3*%
X173000000Y-127000000D03*
D13*
%TO.N,COL_1*%
X174270000Y-127000000D03*
%TO.N,COL_2*%
X175540000Y-127000000D03*
%TO.N,COL_3*%
X176810000Y-127000000D03*
%TO.N,COL_4*%
X178080000Y-127000000D03*
%TO.N,COL_5*%
X179350000Y-127000000D03*
%TO.N,COL_6*%
X180620000Y-127000000D03*
%TO.N,COL_7*%
X181890000Y-127000000D03*
%TO.N,COL_8*%
X183160000Y-127000000D03*
%TO.N,COL_9*%
X184430000Y-127000000D03*
%TO.N,COL_10*%
X185700000Y-127000000D03*
%TO.N,COL_11*%
X186970000Y-127000000D03*
%TO.N,COL_12*%
X188240000Y-127000000D03*
%TO.N,COL_13*%
X189510000Y-127000000D03*
%TO.N,COL_14*%
X190780000Y-127000000D03*
%TO.N,ROW_0*%
X192050000Y-127000000D03*
%TO.N,ROW_1*%
X193320000Y-127000000D03*
%TO.N,ROW_2*%
X194590000Y-127000000D03*
%TO.N,ROW_3*%
X195860000Y-127000000D03*
%TD*%
D18*
%TO.N,GND*%
X154300000Y-114550000D03*
X154300000Y-108400000D03*
%TO.N,ROW_1*%
X164450057Y-127100000D03*
%TO.N,+3V3*%
X197650000Y-126150000D03*
%TO.N,GND*%
X198550000Y-125450000D03*
X204750000Y-125450000D03*
X207375000Y-124625000D03*
%TO.N,COL_7*%
X198930514Y-124430515D03*
%TO.N,COL_6*%
X199610700Y-123750329D03*
%TO.N,S1*%
X194625000Y-121125000D03*
%TO.N,S0*%
X193750000Y-121100000D03*
%TO.N,GND*%
X193575000Y-122325000D03*
%TO.N,GP16_E*%
X195550000Y-115500000D03*
%TO.N,S2*%
X194900000Y-117750000D03*
%TO.N,S3*%
X194250000Y-115500000D03*
%TO.N,+3V3*%
X201850000Y-117050000D03*
%TO.N,GND*%
X198500000Y-109650000D03*
X209350000Y-117000000D03*
X187000000Y-117500000D03*
X161000000Y-101000000D03*
X183000000Y-111500000D03*
X185500000Y-120000000D03*
X169900000Y-125500000D03*
X174950000Y-109950000D03*
X182500000Y-106500000D03*
X170500000Y-106000000D03*
X163700000Y-125500000D03*
X166800000Y-125500000D03*
X170040000Y-109960000D03*
X194000000Y-112000000D03*
X167112500Y-104887500D03*
X178750000Y-100000000D03*
X160500000Y-125500000D03*
X208000000Y-111000000D03*
%TO.N,EN*%
X208000000Y-101500000D03*
%TO.N,+3V3*%
X187000000Y-119500000D03*
X205175000Y-112325000D03*
X180750000Y-102250000D03*
X174500000Y-106000000D03*
%TO.N,VBUS*%
X168500000Y-116500000D03*
X186500000Y-108000000D03*
X175000000Y-111500000D03*
X200500000Y-106500000D03*
X195000000Y-106500000D03*
%TO.N,Net-(D2-K)*%
X190000000Y-112500000D03*
X185500000Y-106000000D03*
%TO.N,GP40*%
X157250000Y-121500000D03*
%TO.N,SCL*%
X175250000Y-120000000D03*
%TO.N,GP41*%
X155750000Y-122500000D03*
%TO.N,ROW_3*%
X160875000Y-128875000D03*
X166750000Y-116500000D03*
X158500000Y-123500000D03*
%TO.N,ROW_2*%
X164350000Y-128650000D03*
%TO.N,ROW_0*%
X170700000Y-127200000D03*
%TO.N,D-*%
X196500000Y-103500000D03*
%TO.N,D+*%
X197500000Y-103250000D03*
%TO.N,SPI_SCK*%
X172750000Y-121250000D03*
%TO.N,ADC_BAT*%
X188250000Y-113500000D03*
%TO.N,Net-(MAX1-In)*%
X172000000Y-100000000D03*
X169000000Y-101550000D03*
%TO.N,VBAT*%
X191250000Y-110500000D03*
%TO.N,PWR_OFF*%
X165750000Y-100750000D03*
%TO.N,S3*%
X178250000Y-110750000D03*
%TO.N,GP16_E*%
X179500000Y-111000000D03*
%TO.N,S0*%
X183000000Y-113000000D03*
%TO.N,S2*%
X181000000Y-111000000D03*
%TO.N,S1*%
X181750000Y-111750000D03*
%TO.N,MENU*%
X160500000Y-118750000D03*
%TO.N,100*%
X191500000Y-101000000D03*
%TO.N,SELECT*%
X173750000Y-120000000D03*
%TD*%
%TA.AperFunction,Conductor*%
%TO.N,GND*%
G36*
X192479459Y-99020185D02*
G01*
X192525214Y-99072989D01*
X192535158Y-99142147D01*
X192526981Y-99171952D01*
X192468430Y-99313306D01*
X192468427Y-99313318D01*
X192430000Y-99506504D01*
X192430000Y-99655000D01*
X193130000Y-99655000D01*
X193130000Y-100155000D01*
X192430000Y-100155000D01*
X192430000Y-100303495D01*
X192468427Y-100496681D01*
X192468430Y-100496693D01*
X192543807Y-100678671D01*
X192543814Y-100678684D01*
X192653248Y-100842462D01*
X192653251Y-100842466D01*
X192792533Y-100981748D01*
X192792537Y-100981751D01*
X192956315Y-101091185D01*
X192956328Y-101091192D01*
X193138308Y-101166569D01*
X193180000Y-101174862D01*
X193180000Y-100371988D01*
X193189940Y-100389205D01*
X193245795Y-100445060D01*
X193314204Y-100484556D01*
X193390504Y-100505000D01*
X193469496Y-100505000D01*
X193545796Y-100484556D01*
X193614205Y-100445060D01*
X193670060Y-100389205D01*
X193680000Y-100371988D01*
X193680000Y-101174862D01*
X193721690Y-101166569D01*
X193721692Y-101166569D01*
X193903671Y-101091192D01*
X193903684Y-101091185D01*
X194067462Y-100981751D01*
X194067466Y-100981748D01*
X194206748Y-100842466D01*
X194206751Y-100842462D01*
X194316185Y-100678684D01*
X194316192Y-100678671D01*
X194391569Y-100496693D01*
X194391572Y-100496681D01*
X194429999Y-100303495D01*
X194430000Y-100303492D01*
X194430000Y-100155000D01*
X193730000Y-100155000D01*
X193730000Y-99655000D01*
X194430000Y-99655000D01*
X194430000Y-99506508D01*
X194429999Y-99506504D01*
X194391572Y-99313318D01*
X194391569Y-99313306D01*
X194333019Y-99171952D01*
X194325550Y-99102483D01*
X194356825Y-99040004D01*
X194416914Y-99004352D01*
X194447580Y-99000500D01*
X201052420Y-99000500D01*
X201119459Y-99020185D01*
X201165214Y-99072989D01*
X201175158Y-99142147D01*
X201166981Y-99171952D01*
X201108430Y-99313306D01*
X201108427Y-99313318D01*
X201070000Y-99506504D01*
X201070000Y-99655000D01*
X201770000Y-99655000D01*
X201770000Y-100155000D01*
X201070000Y-100155000D01*
X201070000Y-100303495D01*
X201108427Y-100496681D01*
X201108430Y-100496693D01*
X201183807Y-100678671D01*
X201183814Y-100678684D01*
X201293248Y-100842462D01*
X201293251Y-100842466D01*
X201432533Y-100981748D01*
X201432537Y-100981751D01*
X201596315Y-101091185D01*
X201596328Y-101091192D01*
X201778308Y-101166569D01*
X201820000Y-101174862D01*
X201820000Y-100371988D01*
X201829940Y-100389205D01*
X201885795Y-100445060D01*
X201954204Y-100484556D01*
X202030504Y-100505000D01*
X202109496Y-100505000D01*
X202185796Y-100484556D01*
X202254205Y-100445060D01*
X202310060Y-100389205D01*
X202320000Y-100371988D01*
X202320000Y-101174862D01*
X202361690Y-101166569D01*
X202361692Y-101166569D01*
X202543671Y-101091192D01*
X202543684Y-101091185D01*
X202707462Y-100981751D01*
X202707466Y-100981748D01*
X202846748Y-100842466D01*
X202846751Y-100842462D01*
X202956185Y-100678684D01*
X202956192Y-100678671D01*
X203031569Y-100496693D01*
X203031572Y-100496681D01*
X203069999Y-100303495D01*
X203070000Y-100303492D01*
X203070000Y-100155000D01*
X202370000Y-100155000D01*
X202370000Y-99655000D01*
X203070000Y-99655000D01*
X203070000Y-99506508D01*
X203069999Y-99506504D01*
X203031572Y-99313318D01*
X203031569Y-99313306D01*
X202973019Y-99171952D01*
X202965550Y-99102483D01*
X202996825Y-99040004D01*
X203056914Y-99004352D01*
X203087580Y-99000500D01*
X211934108Y-99000500D01*
X211997439Y-99000500D01*
X212002562Y-99000605D01*
X212407746Y-99017364D01*
X212417919Y-99018207D01*
X212817817Y-99068054D01*
X212827901Y-99069737D01*
X213222294Y-99152432D01*
X213232208Y-99154942D01*
X213618436Y-99269928D01*
X213628104Y-99273247D01*
X213863092Y-99364940D01*
X214003502Y-99419728D01*
X214012887Y-99423845D01*
X214374880Y-99600813D01*
X214383894Y-99605690D01*
X214730070Y-99811966D01*
X214738638Y-99817564D01*
X215066593Y-100051719D01*
X215074668Y-100058005D01*
X215189190Y-100155000D01*
X215382155Y-100318433D01*
X215389695Y-100325374D01*
X215674625Y-100610304D01*
X215681566Y-100617844D01*
X215941989Y-100925325D01*
X215948282Y-100933410D01*
X216055522Y-101083608D01*
X216182431Y-101261355D01*
X216188037Y-101269935D01*
X216394309Y-101616105D01*
X216399186Y-101625119D01*
X216576154Y-101987112D01*
X216580271Y-101996497D01*
X216726747Y-102371883D01*
X216730075Y-102381576D01*
X216845053Y-102767778D01*
X216847569Y-102777714D01*
X216930260Y-103172089D01*
X216931947Y-103182197D01*
X216981790Y-103582059D01*
X216982636Y-103592273D01*
X216999394Y-103997437D01*
X216999500Y-104002561D01*
X216999500Y-114310730D01*
X216979815Y-114377769D01*
X216927011Y-114423524D01*
X216857853Y-114433468D01*
X216794297Y-114404443D01*
X216776234Y-114385042D01*
X216707187Y-114292809D01*
X216592093Y-114206649D01*
X216592086Y-114206645D01*
X216457379Y-114156403D01*
X216457372Y-114156401D01*
X216397844Y-114150000D01*
X215995565Y-114150000D01*
X215928526Y-114130315D01*
X215882771Y-114077511D01*
X215872827Y-114008353D01*
X215901852Y-113944797D01*
X215948112Y-113911439D01*
X215953608Y-113909162D01*
X215997598Y-113890941D01*
X216169655Y-113775977D01*
X216315977Y-113629655D01*
X216430941Y-113457598D01*
X216510130Y-113266420D01*
X216550500Y-113063465D01*
X216550500Y-112856535D01*
X216510130Y-112653580D01*
X216430941Y-112462402D01*
X216315977Y-112290345D01*
X216315975Y-112290342D01*
X216169657Y-112144024D01*
X216004406Y-112033608D01*
X215997598Y-112029059D01*
X215970141Y-112017686D01*
X215806420Y-111949870D01*
X215806412Y-111949868D01*
X215603469Y-111909500D01*
X215603465Y-111909500D01*
X215396535Y-111909500D01*
X215396530Y-111909500D01*
X215193587Y-111949868D01*
X215193579Y-111949870D01*
X215002403Y-112029058D01*
X214830342Y-112144024D01*
X214684024Y-112290342D01*
X214569058Y-112462403D01*
X214489870Y-112653579D01*
X214489868Y-112653587D01*
X214449500Y-112856530D01*
X214449500Y-113063469D01*
X214475303Y-113193187D01*
X214489870Y-113266420D01*
X214569059Y-113457598D01*
X214574935Y-113466392D01*
X214684024Y-113629657D01*
X214830342Y-113775975D01*
X214830345Y-113775977D01*
X215002402Y-113890941D01*
X215041993Y-113907340D01*
X215051888Y-113911439D01*
X215106291Y-113955280D01*
X215128356Y-114021574D01*
X215111077Y-114089274D01*
X215059939Y-114136884D01*
X215004435Y-114150000D01*
X214602155Y-114150000D01*
X214542627Y-114156401D01*
X214542620Y-114156403D01*
X214407913Y-114206645D01*
X214407906Y-114206649D01*
X214292812Y-114292809D01*
X214292809Y-114292812D01*
X214206649Y-114407906D01*
X214206645Y-114407913D01*
X214156403Y-114542620D01*
X214156401Y-114542627D01*
X214150000Y-114602155D01*
X214150000Y-115250000D01*
X215066988Y-115250000D01*
X215034075Y-115307007D01*
X215000000Y-115434174D01*
X215000000Y-115565826D01*
X215034075Y-115692993D01*
X215066988Y-115750000D01*
X214150000Y-115750000D01*
X214150000Y-116397844D01*
X214156401Y-116457372D01*
X214156403Y-116457379D01*
X214206645Y-116592086D01*
X214206649Y-116592093D01*
X214292809Y-116707187D01*
X214292812Y-116707190D01*
X214407906Y-116793350D01*
X214407913Y-116793354D01*
X214542620Y-116843596D01*
X214542627Y-116843598D01*
X214602155Y-116849999D01*
X214602172Y-116850000D01*
X215250000Y-116850000D01*
X215250000Y-115933012D01*
X215307007Y-115965925D01*
X215434174Y-116000000D01*
X215565826Y-116000000D01*
X215692993Y-115965925D01*
X215750000Y-115933012D01*
X215750000Y-116850000D01*
X216397828Y-116850000D01*
X216397844Y-116849999D01*
X216457372Y-116843598D01*
X216457379Y-116843596D01*
X216592086Y-116793354D01*
X216592093Y-116793350D01*
X216707187Y-116707190D01*
X216707190Y-116707187D01*
X216776234Y-116614958D01*
X216832168Y-116573087D01*
X216901859Y-116568103D01*
X216963182Y-116601589D01*
X216996666Y-116662912D01*
X216999500Y-116689269D01*
X216999500Y-125997438D01*
X216999394Y-126002562D01*
X216982636Y-126407726D01*
X216981790Y-126417940D01*
X216931947Y-126817802D01*
X216930260Y-126827910D01*
X216847569Y-127222285D01*
X216845053Y-127232221D01*
X216730075Y-127618423D01*
X216726747Y-127628116D01*
X216580271Y-128003502D01*
X216576154Y-128012887D01*
X216399186Y-128374880D01*
X216394309Y-128383894D01*
X216188037Y-128730064D01*
X216182431Y-128738644D01*
X215948284Y-129066587D01*
X215941989Y-129074674D01*
X215681566Y-129382155D01*
X215674625Y-129389695D01*
X215389695Y-129674625D01*
X215382155Y-129681566D01*
X215074674Y-129941989D01*
X215066587Y-129948284D01*
X214738644Y-130182431D01*
X214730064Y-130188037D01*
X214383894Y-130394309D01*
X214374880Y-130399186D01*
X214012887Y-130576154D01*
X214003502Y-130580271D01*
X213628116Y-130726747D01*
X213618423Y-130730075D01*
X213232221Y-130845053D01*
X213222285Y-130847569D01*
X212827910Y-130930260D01*
X212817802Y-130931947D01*
X212417940Y-130981790D01*
X212407726Y-130982636D01*
X212002563Y-130999394D01*
X211997439Y-130999500D01*
X157002706Y-130999500D01*
X156997297Y-130999382D01*
X156613249Y-130982614D01*
X156602473Y-130981671D01*
X156224042Y-130931849D01*
X156213389Y-130929971D01*
X155840727Y-130847354D01*
X155830278Y-130844554D01*
X155466244Y-130729775D01*
X155456078Y-130726075D01*
X155103427Y-130580002D01*
X155093623Y-130575430D01*
X154755057Y-130399183D01*
X154745689Y-130393775D01*
X154423755Y-130188681D01*
X154414894Y-130182476D01*
X154112069Y-129950110D01*
X154103782Y-129943156D01*
X153822364Y-129685284D01*
X153814715Y-129677635D01*
X153556843Y-129396217D01*
X153549889Y-129387930D01*
X153317523Y-129085105D01*
X153311318Y-129076244D01*
X153306185Y-129068187D01*
X153141134Y-128809108D01*
X160374500Y-128809108D01*
X160374500Y-128940891D01*
X160408608Y-129068187D01*
X160418376Y-129085105D01*
X160474500Y-129182314D01*
X160567686Y-129275500D01*
X160681814Y-129341392D01*
X160809108Y-129375500D01*
X160809110Y-129375500D01*
X160940890Y-129375500D01*
X160940892Y-129375500D01*
X161068186Y-129341392D01*
X161182314Y-129275500D01*
X161275500Y-129182314D01*
X161341392Y-129068186D01*
X161375500Y-128940892D01*
X161375500Y-128809108D01*
X161341392Y-128681814D01*
X161284981Y-128584108D01*
X163849500Y-128584108D01*
X163849500Y-128715892D01*
X163854477Y-128734467D01*
X163883608Y-128843187D01*
X163897707Y-128867606D01*
X163949500Y-128957314D01*
X164042686Y-129050500D01*
X164156814Y-129116392D01*
X164284108Y-129150500D01*
X164284110Y-129150500D01*
X164415890Y-129150500D01*
X164415892Y-129150500D01*
X164543186Y-129116392D01*
X164657314Y-129050500D01*
X164750500Y-128957314D01*
X164816392Y-128843186D01*
X164850500Y-128715892D01*
X164850500Y-128584108D01*
X164816392Y-128456814D01*
X164750500Y-128342686D01*
X164657314Y-128249500D01*
X164600250Y-128216554D01*
X164543187Y-128183608D01*
X164479539Y-128166554D01*
X164415892Y-128149500D01*
X164284108Y-128149500D01*
X164156812Y-128183608D01*
X164042686Y-128249500D01*
X164042683Y-128249502D01*
X163949502Y-128342683D01*
X163949500Y-128342686D01*
X163883608Y-128456812D01*
X163871719Y-128501185D01*
X163849500Y-128584108D01*
X161284981Y-128584108D01*
X161275500Y-128567686D01*
X161182314Y-128474500D01*
X161125250Y-128441554D01*
X161068187Y-128408608D01*
X160975951Y-128383894D01*
X160940892Y-128374500D01*
X160809108Y-128374500D01*
X160681812Y-128408608D01*
X160567686Y-128474500D01*
X160567683Y-128474502D01*
X160474502Y-128567683D01*
X160474500Y-128567686D01*
X160408608Y-128681812D01*
X160374500Y-128809108D01*
X153141134Y-128809108D01*
X153106223Y-128754309D01*
X153100816Y-128744942D01*
X152924566Y-128406369D01*
X152919997Y-128396572D01*
X152911012Y-128374880D01*
X152773920Y-128043911D01*
X152770224Y-128033755D01*
X152655442Y-127669710D01*
X152652648Y-127659284D01*
X152570025Y-127286597D01*
X152568152Y-127275971D01*
X152518326Y-126897506D01*
X152517386Y-126886771D01*
X152500618Y-126502702D01*
X152500500Y-126497293D01*
X152500500Y-126393713D01*
X155649500Y-126393713D01*
X155649500Y-126606287D01*
X155653827Y-126633608D01*
X155682753Y-126816239D01*
X155682753Y-126816241D01*
X155682754Y-126816243D01*
X155738451Y-126987661D01*
X155748444Y-127018414D01*
X155844951Y-127207820D01*
X155969890Y-127379786D01*
X156120213Y-127530109D01*
X156292179Y-127655048D01*
X156292181Y-127655049D01*
X156292184Y-127655051D01*
X156481588Y-127751557D01*
X156683757Y-127817246D01*
X156893713Y-127850500D01*
X156893714Y-127850500D01*
X157106286Y-127850500D01*
X157106287Y-127850500D01*
X157316243Y-127817246D01*
X157518412Y-127751557D01*
X157707816Y-127655051D01*
X157754999Y-127620771D01*
X157879786Y-127530109D01*
X157879788Y-127530106D01*
X157879792Y-127530104D01*
X158030104Y-127379792D01*
X158030106Y-127379788D01*
X158030109Y-127379786D01*
X158155048Y-127207820D01*
X158155047Y-127207820D01*
X158155051Y-127207816D01*
X158243560Y-127034108D01*
X163949557Y-127034108D01*
X163949557Y-127165892D01*
X163964667Y-127222285D01*
X163983665Y-127293187D01*
X164016611Y-127350250D01*
X164049557Y-127407314D01*
X164142743Y-127500500D01*
X164256871Y-127566392D01*
X164384165Y-127600500D01*
X164384167Y-127600500D01*
X164515947Y-127600500D01*
X164515949Y-127600500D01*
X164643243Y-127566392D01*
X164757371Y-127500500D01*
X164850557Y-127407314D01*
X164916449Y-127293186D01*
X164950557Y-127165892D01*
X164950557Y-127134108D01*
X170199500Y-127134108D01*
X170199500Y-127265891D01*
X170233608Y-127393187D01*
X170246108Y-127414837D01*
X170299500Y-127507314D01*
X170392686Y-127600500D01*
X170506814Y-127666392D01*
X170634108Y-127700500D01*
X170634110Y-127700500D01*
X170765890Y-127700500D01*
X170765892Y-127700500D01*
X170893186Y-127666392D01*
X171007314Y-127600500D01*
X171100500Y-127507314D01*
X171166392Y-127393186D01*
X171200500Y-127265892D01*
X171200500Y-127134108D01*
X171166392Y-127006814D01*
X171100500Y-126892686D01*
X171007314Y-126799500D01*
X170950250Y-126766554D01*
X170893187Y-126733608D01*
X170829539Y-126716554D01*
X170765892Y-126699500D01*
X170634108Y-126699500D01*
X170506812Y-126733608D01*
X170392686Y-126799500D01*
X170392683Y-126799502D01*
X170299502Y-126892683D01*
X170299500Y-126892686D01*
X170233608Y-127006812D01*
X170199500Y-127134108D01*
X164950557Y-127134108D01*
X164950557Y-127034108D01*
X164916449Y-126906814D01*
X164850557Y-126792686D01*
X164757371Y-126699500D01*
X164672499Y-126650499D01*
X164643244Y-126633608D01*
X164578988Y-126616391D01*
X164515949Y-126599500D01*
X164384165Y-126599500D01*
X164256869Y-126633608D01*
X164142743Y-126699500D01*
X164142740Y-126699502D01*
X164049559Y-126792683D01*
X164049557Y-126792686D01*
X163983665Y-126906812D01*
X163962002Y-126987661D01*
X163949557Y-127034108D01*
X158243560Y-127034108D01*
X158251557Y-127018412D01*
X158317246Y-126816243D01*
X158350500Y-126606287D01*
X158350500Y-126480247D01*
X172299500Y-126480247D01*
X172299500Y-127519752D01*
X172311131Y-127578229D01*
X172311132Y-127578230D01*
X172355447Y-127644552D01*
X172421769Y-127688867D01*
X172421770Y-127688868D01*
X172480247Y-127700499D01*
X172480250Y-127700500D01*
X172480252Y-127700500D01*
X173519750Y-127700500D01*
X173519751Y-127700499D01*
X173534568Y-127697552D01*
X173578229Y-127688868D01*
X173578229Y-127688867D01*
X173578231Y-127688867D01*
X173644552Y-127644552D01*
X173677279Y-127595573D01*
X173730889Y-127550769D01*
X173800213Y-127542060D01*
X173849271Y-127561362D01*
X173938182Y-127620771D01*
X173938195Y-127620778D01*
X174065667Y-127673578D01*
X174065672Y-127673580D01*
X174065676Y-127673580D01*
X174065677Y-127673581D01*
X174201004Y-127700500D01*
X174201007Y-127700500D01*
X174338995Y-127700500D01*
X174430041Y-127682389D01*
X174474328Y-127673580D01*
X174601811Y-127620775D01*
X174716542Y-127544114D01*
X174760159Y-127500497D01*
X174817319Y-127443338D01*
X174878642Y-127409853D01*
X174948334Y-127414837D01*
X174992681Y-127443338D01*
X175093454Y-127544111D01*
X175093458Y-127544114D01*
X175208182Y-127620771D01*
X175208195Y-127620778D01*
X175335667Y-127673578D01*
X175335672Y-127673580D01*
X175335676Y-127673580D01*
X175335677Y-127673581D01*
X175471004Y-127700500D01*
X175471007Y-127700500D01*
X175608995Y-127700500D01*
X175700041Y-127682389D01*
X175744328Y-127673580D01*
X175871811Y-127620775D01*
X175986542Y-127544114D01*
X176030159Y-127500497D01*
X176087319Y-127443338D01*
X176148642Y-127409853D01*
X176218334Y-127414837D01*
X176262681Y-127443338D01*
X176363454Y-127544111D01*
X176363458Y-127544114D01*
X176478182Y-127620771D01*
X176478195Y-127620778D01*
X176605667Y-127673578D01*
X176605672Y-127673580D01*
X176605676Y-127673580D01*
X176605677Y-127673581D01*
X176741004Y-127700500D01*
X176741007Y-127700500D01*
X176878995Y-127700500D01*
X176970041Y-127682389D01*
X177014328Y-127673580D01*
X177141811Y-127620775D01*
X177256542Y-127544114D01*
X177300159Y-127500497D01*
X177357319Y-127443338D01*
X177418642Y-127409853D01*
X177488334Y-127414837D01*
X177532681Y-127443338D01*
X177633454Y-127544111D01*
X177633458Y-127544114D01*
X177748182Y-127620771D01*
X177748195Y-127620778D01*
X177875667Y-127673578D01*
X177875672Y-127673580D01*
X177875676Y-127673580D01*
X177875677Y-127673581D01*
X178011004Y-127700500D01*
X178011007Y-127700500D01*
X178148995Y-127700500D01*
X178240041Y-127682389D01*
X178284328Y-127673580D01*
X178411811Y-127620775D01*
X178526542Y-127544114D01*
X178570159Y-127500497D01*
X178627319Y-127443338D01*
X178688642Y-127409853D01*
X178758334Y-127414837D01*
X178802681Y-127443338D01*
X178903454Y-127544111D01*
X178903458Y-127544114D01*
X179018182Y-127620771D01*
X179018195Y-127620778D01*
X179145667Y-127673578D01*
X179145672Y-127673580D01*
X179145676Y-127673580D01*
X179145677Y-127673581D01*
X179281004Y-127700500D01*
X179281007Y-127700500D01*
X179418995Y-127700500D01*
X179510041Y-127682389D01*
X179554328Y-127673580D01*
X179681811Y-127620775D01*
X179796542Y-127544114D01*
X179840159Y-127500497D01*
X179897319Y-127443338D01*
X179958642Y-127409853D01*
X180028334Y-127414837D01*
X180072681Y-127443338D01*
X180173454Y-127544111D01*
X180173458Y-127544114D01*
X180288182Y-127620771D01*
X180288195Y-127620778D01*
X180415667Y-127673578D01*
X180415672Y-127673580D01*
X180415676Y-127673580D01*
X180415677Y-127673581D01*
X180551004Y-127700500D01*
X180551007Y-127700500D01*
X180688995Y-127700500D01*
X180780041Y-127682389D01*
X180824328Y-127673580D01*
X180951811Y-127620775D01*
X181066542Y-127544114D01*
X181110159Y-127500497D01*
X181167319Y-127443338D01*
X181228642Y-127409853D01*
X181298334Y-127414837D01*
X181342681Y-127443338D01*
X181443454Y-127544111D01*
X181443458Y-127544114D01*
X181558182Y-127620771D01*
X181558195Y-127620778D01*
X181685667Y-127673578D01*
X181685672Y-127673580D01*
X181685676Y-127673580D01*
X181685677Y-127673581D01*
X181821004Y-127700500D01*
X181821007Y-127700500D01*
X181958995Y-127700500D01*
X182050041Y-127682389D01*
X182094328Y-127673580D01*
X182221811Y-127620775D01*
X182336542Y-127544114D01*
X182380159Y-127500497D01*
X182437319Y-127443338D01*
X182498642Y-127409853D01*
X182568334Y-127414837D01*
X182612681Y-127443338D01*
X182713454Y-127544111D01*
X182713458Y-127544114D01*
X182828182Y-127620771D01*
X182828195Y-127620778D01*
X182955667Y-127673578D01*
X182955672Y-127673580D01*
X182955676Y-127673580D01*
X182955677Y-127673581D01*
X183091004Y-127700500D01*
X183091007Y-127700500D01*
X183228995Y-127700500D01*
X183320041Y-127682389D01*
X183364328Y-127673580D01*
X183491811Y-127620775D01*
X183606542Y-127544114D01*
X183650159Y-127500497D01*
X183707319Y-127443338D01*
X183768642Y-127409853D01*
X183838334Y-127414837D01*
X183882681Y-127443338D01*
X183983454Y-127544111D01*
X183983458Y-127544114D01*
X184098182Y-127620771D01*
X184098195Y-127620778D01*
X184225667Y-127673578D01*
X184225672Y-127673580D01*
X184225676Y-127673580D01*
X184225677Y-127673581D01*
X184361004Y-127700500D01*
X184361007Y-127700500D01*
X184498995Y-127700500D01*
X184590041Y-127682389D01*
X184634328Y-127673580D01*
X184761811Y-127620775D01*
X184876542Y-127544114D01*
X184920159Y-127500497D01*
X184977319Y-127443338D01*
X185038642Y-127409853D01*
X185108334Y-127414837D01*
X185152681Y-127443338D01*
X185253454Y-127544111D01*
X185253458Y-127544114D01*
X185368182Y-127620771D01*
X185368195Y-127620778D01*
X185495667Y-127673578D01*
X185495672Y-127673580D01*
X185495676Y-127673580D01*
X185495677Y-127673581D01*
X185631004Y-127700500D01*
X185631007Y-127700500D01*
X185768995Y-127700500D01*
X185860041Y-127682389D01*
X185904328Y-127673580D01*
X186031811Y-127620775D01*
X186146542Y-127544114D01*
X186190159Y-127500497D01*
X186247319Y-127443338D01*
X186308642Y-127409853D01*
X186378334Y-127414837D01*
X186422681Y-127443338D01*
X186523454Y-127544111D01*
X186523458Y-127544114D01*
X186638182Y-127620771D01*
X186638195Y-127620778D01*
X186765667Y-127673578D01*
X186765672Y-127673580D01*
X186765676Y-127673580D01*
X186765677Y-127673581D01*
X186901004Y-127700500D01*
X186901007Y-127700500D01*
X187038995Y-127700500D01*
X187130041Y-127682389D01*
X187174328Y-127673580D01*
X187301811Y-127620775D01*
X187416542Y-127544114D01*
X187460159Y-127500497D01*
X187517319Y-127443338D01*
X187578642Y-127409853D01*
X187648334Y-127414837D01*
X187692681Y-127443338D01*
X187793454Y-127544111D01*
X187793458Y-127544114D01*
X187908182Y-127620771D01*
X187908195Y-127620778D01*
X188035667Y-127673578D01*
X188035672Y-127673580D01*
X188035676Y-127673580D01*
X188035677Y-127673581D01*
X188171004Y-127700500D01*
X188171007Y-127700500D01*
X188308995Y-127700500D01*
X188400041Y-127682389D01*
X188444328Y-127673580D01*
X188571811Y-127620775D01*
X188686542Y-127544114D01*
X188730159Y-127500497D01*
X188787319Y-127443338D01*
X188848642Y-127409853D01*
X188918334Y-127414837D01*
X188962681Y-127443338D01*
X189063454Y-127544111D01*
X189063458Y-127544114D01*
X189178182Y-127620771D01*
X189178195Y-127620778D01*
X189305667Y-127673578D01*
X189305672Y-127673580D01*
X189305676Y-127673580D01*
X189305677Y-127673581D01*
X189441004Y-127700500D01*
X189441007Y-127700500D01*
X189578995Y-127700500D01*
X189670041Y-127682389D01*
X189714328Y-127673580D01*
X189841811Y-127620775D01*
X189956542Y-127544114D01*
X190000159Y-127500497D01*
X190057319Y-127443338D01*
X190118642Y-127409853D01*
X190188334Y-127414837D01*
X190232681Y-127443338D01*
X190333454Y-127544111D01*
X190333458Y-127544114D01*
X190448182Y-127620771D01*
X190448195Y-127620778D01*
X190575667Y-127673578D01*
X190575672Y-127673580D01*
X190575676Y-127673580D01*
X190575677Y-127673581D01*
X190711004Y-127700500D01*
X190711007Y-127700500D01*
X190848995Y-127700500D01*
X190940041Y-127682389D01*
X190984328Y-127673580D01*
X191111811Y-127620775D01*
X191226542Y-127544114D01*
X191270159Y-127500497D01*
X191327319Y-127443338D01*
X191388642Y-127409853D01*
X191458334Y-127414837D01*
X191502681Y-127443338D01*
X191603454Y-127544111D01*
X191603458Y-127544114D01*
X191718182Y-127620771D01*
X191718195Y-127620778D01*
X191845667Y-127673578D01*
X191845672Y-127673580D01*
X191845676Y-127673580D01*
X191845677Y-127673581D01*
X191981004Y-127700500D01*
X191981007Y-127700500D01*
X192118995Y-127700500D01*
X192210041Y-127682389D01*
X192254328Y-127673580D01*
X192381811Y-127620775D01*
X192496542Y-127544114D01*
X192540159Y-127500497D01*
X192597319Y-127443338D01*
X192658642Y-127409853D01*
X192728334Y-127414837D01*
X192772681Y-127443338D01*
X192873454Y-127544111D01*
X192873458Y-127544114D01*
X192988182Y-127620771D01*
X192988195Y-127620778D01*
X193115667Y-127673578D01*
X193115672Y-127673580D01*
X193115676Y-127673580D01*
X193115677Y-127673581D01*
X193251004Y-127700500D01*
X193251007Y-127700500D01*
X193388995Y-127700500D01*
X193480041Y-127682389D01*
X193524328Y-127673580D01*
X193651811Y-127620775D01*
X193766542Y-127544114D01*
X193810159Y-127500497D01*
X193867319Y-127443338D01*
X193928642Y-127409853D01*
X193998334Y-127414837D01*
X194042681Y-127443338D01*
X194143454Y-127544111D01*
X194143458Y-127544114D01*
X194258182Y-127620771D01*
X194258195Y-127620778D01*
X194385667Y-127673578D01*
X194385672Y-127673580D01*
X194385676Y-127673580D01*
X194385677Y-127673581D01*
X194521004Y-127700500D01*
X194521007Y-127700500D01*
X194658995Y-127700500D01*
X194750041Y-127682389D01*
X194794328Y-127673580D01*
X194921811Y-127620775D01*
X195036542Y-127544114D01*
X195080159Y-127500497D01*
X195137319Y-127443338D01*
X195198642Y-127409853D01*
X195268334Y-127414837D01*
X195312681Y-127443338D01*
X195413454Y-127544111D01*
X195413458Y-127544114D01*
X195528182Y-127620771D01*
X195528195Y-127620778D01*
X195655667Y-127673578D01*
X195655672Y-127673580D01*
X195655676Y-127673580D01*
X195655677Y-127673581D01*
X195791004Y-127700500D01*
X195791007Y-127700500D01*
X195928995Y-127700500D01*
X196020041Y-127682389D01*
X196064328Y-127673580D01*
X196191811Y-127620775D01*
X196306542Y-127544114D01*
X196404114Y-127446542D01*
X196480775Y-127331811D01*
X196533580Y-127204328D01*
X196560500Y-127068993D01*
X196560500Y-126931007D01*
X196560500Y-126931004D01*
X196533581Y-126795677D01*
X196533580Y-126795676D01*
X196533580Y-126795672D01*
X196532342Y-126792683D01*
X196480778Y-126668195D01*
X196480771Y-126668182D01*
X196404114Y-126553458D01*
X196404111Y-126553454D01*
X196306545Y-126455888D01*
X196306541Y-126455885D01*
X196191817Y-126379228D01*
X196191804Y-126379221D01*
X196064332Y-126326421D01*
X196064322Y-126326418D01*
X195928995Y-126299500D01*
X195928993Y-126299500D01*
X195791007Y-126299500D01*
X195791005Y-126299500D01*
X195655677Y-126326418D01*
X195655667Y-126326421D01*
X195528195Y-126379221D01*
X195528182Y-126379228D01*
X195413458Y-126455885D01*
X195413454Y-126455888D01*
X195312681Y-126556662D01*
X195251358Y-126590147D01*
X195181666Y-126585163D01*
X195137319Y-126556662D01*
X195036545Y-126455888D01*
X195036541Y-126455885D01*
X194921817Y-126379228D01*
X194921804Y-126379221D01*
X194794332Y-126326421D01*
X194794322Y-126326418D01*
X194658995Y-126299500D01*
X194658993Y-126299500D01*
X194521007Y-126299500D01*
X194521005Y-126299500D01*
X194385677Y-126326418D01*
X194385667Y-126326421D01*
X194258195Y-126379221D01*
X194258182Y-126379228D01*
X194143458Y-126455885D01*
X194143454Y-126455888D01*
X194042681Y-126556662D01*
X193981358Y-126590147D01*
X193911666Y-126585163D01*
X193867319Y-126556662D01*
X193766545Y-126455888D01*
X193766541Y-126455885D01*
X193651817Y-126379228D01*
X193651804Y-126379221D01*
X193524332Y-126326421D01*
X193524322Y-126326418D01*
X193388995Y-126299500D01*
X193388993Y-126299500D01*
X193251007Y-126299500D01*
X193251005Y-126299500D01*
X193115677Y-126326418D01*
X193115667Y-126326421D01*
X192988195Y-126379221D01*
X192988182Y-126379228D01*
X192873458Y-126455885D01*
X192873454Y-126455888D01*
X192772681Y-126556662D01*
X192711358Y-126590147D01*
X192641666Y-126585163D01*
X192597319Y-126556662D01*
X192496545Y-126455888D01*
X192496541Y-126455885D01*
X192381817Y-126379228D01*
X192381804Y-126379221D01*
X192254332Y-126326421D01*
X192254322Y-126326418D01*
X192118995Y-126299500D01*
X192118993Y-126299500D01*
X191981007Y-126299500D01*
X191981005Y-126299500D01*
X191845677Y-126326418D01*
X191845667Y-126326421D01*
X191718195Y-126379221D01*
X191718182Y-126379228D01*
X191603458Y-126455885D01*
X191603454Y-126455888D01*
X191502681Y-126556662D01*
X191441358Y-126590147D01*
X191371666Y-126585163D01*
X191327319Y-126556662D01*
X191226545Y-126455888D01*
X191226541Y-126455885D01*
X191111817Y-126379228D01*
X191111804Y-126379221D01*
X190984332Y-126326421D01*
X190984322Y-126326418D01*
X190848995Y-126299500D01*
X190848993Y-126299500D01*
X190711007Y-126299500D01*
X190711005Y-126299500D01*
X190575677Y-126326418D01*
X190575667Y-126326421D01*
X190448195Y-126379221D01*
X190448182Y-126379228D01*
X190333458Y-126455885D01*
X190333454Y-126455888D01*
X190232681Y-126556662D01*
X190171358Y-126590147D01*
X190101666Y-126585163D01*
X190057319Y-126556662D01*
X189956545Y-126455888D01*
X189956541Y-126455885D01*
X189841817Y-126379228D01*
X189841804Y-126379221D01*
X189714332Y-126326421D01*
X189714322Y-126326418D01*
X189578995Y-126299500D01*
X189578993Y-126299500D01*
X189441007Y-126299500D01*
X189441005Y-126299500D01*
X189305677Y-126326418D01*
X189305667Y-126326421D01*
X189178195Y-126379221D01*
X189178182Y-126379228D01*
X189063458Y-126455885D01*
X189063454Y-126455888D01*
X188962681Y-126556662D01*
X188901358Y-126590147D01*
X188831666Y-126585163D01*
X188787319Y-126556662D01*
X188686545Y-126455888D01*
X188686541Y-126455885D01*
X188571817Y-126379228D01*
X188571804Y-126379221D01*
X188444332Y-126326421D01*
X188444322Y-126326418D01*
X188308995Y-126299500D01*
X188308993Y-126299500D01*
X188171007Y-126299500D01*
X188171005Y-126299500D01*
X188035677Y-126326418D01*
X188035667Y-126326421D01*
X187908195Y-126379221D01*
X187908182Y-126379228D01*
X187793458Y-126455885D01*
X187793454Y-126455888D01*
X187692681Y-126556662D01*
X187631358Y-126590147D01*
X187561666Y-126585163D01*
X187517319Y-126556662D01*
X187416545Y-126455888D01*
X187416541Y-126455885D01*
X187301817Y-126379228D01*
X187301804Y-126379221D01*
X187174332Y-126326421D01*
X187174322Y-126326418D01*
X187038995Y-126299500D01*
X187038993Y-126299500D01*
X186901007Y-126299500D01*
X186901005Y-126299500D01*
X186765677Y-126326418D01*
X186765667Y-126326421D01*
X186638195Y-126379221D01*
X186638182Y-126379228D01*
X186523458Y-126455885D01*
X186523454Y-126455888D01*
X186422681Y-126556662D01*
X186361358Y-126590147D01*
X186291666Y-126585163D01*
X186247319Y-126556662D01*
X186146545Y-126455888D01*
X186146541Y-126455885D01*
X186031817Y-126379228D01*
X186031804Y-126379221D01*
X185904332Y-126326421D01*
X185904322Y-126326418D01*
X185768995Y-126299500D01*
X185768993Y-126299500D01*
X185631007Y-126299500D01*
X185631005Y-126299500D01*
X185495677Y-126326418D01*
X185495667Y-126326421D01*
X185368195Y-126379221D01*
X185368182Y-126379228D01*
X185253458Y-126455885D01*
X185253454Y-126455888D01*
X185152681Y-126556662D01*
X185091358Y-126590147D01*
X185021666Y-126585163D01*
X184977319Y-126556662D01*
X184876545Y-126455888D01*
X184876541Y-126455885D01*
X184761817Y-126379228D01*
X184761804Y-126379221D01*
X184634332Y-126326421D01*
X184634322Y-126326418D01*
X184498995Y-126299500D01*
X184498993Y-126299500D01*
X184361007Y-126299500D01*
X184361005Y-126299500D01*
X184225677Y-126326418D01*
X184225667Y-126326421D01*
X184098195Y-126379221D01*
X184098182Y-126379228D01*
X183983458Y-126455885D01*
X183983454Y-126455888D01*
X183882681Y-126556662D01*
X183821358Y-126590147D01*
X183751666Y-126585163D01*
X183707319Y-126556662D01*
X183606545Y-126455888D01*
X183606541Y-126455885D01*
X183491817Y-126379228D01*
X183491804Y-126379221D01*
X183364332Y-126326421D01*
X183364322Y-126326418D01*
X183228995Y-126299500D01*
X183228993Y-126299500D01*
X183091007Y-126299500D01*
X183091005Y-126299500D01*
X182955677Y-126326418D01*
X182955667Y-126326421D01*
X182828195Y-126379221D01*
X182828182Y-126379228D01*
X182713458Y-126455885D01*
X182713454Y-126455888D01*
X182612681Y-126556662D01*
X182551358Y-126590147D01*
X182481666Y-126585163D01*
X182437319Y-126556662D01*
X182336545Y-126455888D01*
X182336541Y-126455885D01*
X182221817Y-126379228D01*
X182221804Y-126379221D01*
X182094332Y-126326421D01*
X182094322Y-126326418D01*
X181958995Y-126299500D01*
X181958993Y-126299500D01*
X181821007Y-126299500D01*
X181821005Y-126299500D01*
X181685677Y-126326418D01*
X181685667Y-126326421D01*
X181558195Y-126379221D01*
X181558182Y-126379228D01*
X181443458Y-126455885D01*
X181443454Y-126455888D01*
X181342681Y-126556662D01*
X181281358Y-126590147D01*
X181211666Y-126585163D01*
X181167319Y-126556662D01*
X181066545Y-126455888D01*
X181066541Y-126455885D01*
X180951817Y-126379228D01*
X180951804Y-126379221D01*
X180824332Y-126326421D01*
X180824322Y-126326418D01*
X180688995Y-126299500D01*
X180688993Y-126299500D01*
X180551007Y-126299500D01*
X180551005Y-126299500D01*
X180415677Y-126326418D01*
X180415667Y-126326421D01*
X180288195Y-126379221D01*
X180288182Y-126379228D01*
X180173458Y-126455885D01*
X180173454Y-126455888D01*
X180072681Y-126556662D01*
X180011358Y-126590147D01*
X179941666Y-126585163D01*
X179897319Y-126556662D01*
X179796545Y-126455888D01*
X179796541Y-126455885D01*
X179681817Y-126379228D01*
X179681804Y-126379221D01*
X179554332Y-126326421D01*
X179554322Y-126326418D01*
X179418995Y-126299500D01*
X179418993Y-126299500D01*
X179281007Y-126299500D01*
X179281005Y-126299500D01*
X179145677Y-126326418D01*
X179145667Y-126326421D01*
X179018195Y-126379221D01*
X179018182Y-126379228D01*
X178903458Y-126455885D01*
X178903454Y-126455888D01*
X178802681Y-126556662D01*
X178741358Y-126590147D01*
X178671666Y-126585163D01*
X178627319Y-126556662D01*
X178526545Y-126455888D01*
X178526541Y-126455885D01*
X178411817Y-126379228D01*
X178411804Y-126379221D01*
X178284332Y-126326421D01*
X178284322Y-126326418D01*
X178148995Y-126299500D01*
X178148993Y-126299500D01*
X178011007Y-126299500D01*
X178011005Y-126299500D01*
X177875677Y-126326418D01*
X177875667Y-126326421D01*
X177748195Y-126379221D01*
X177748182Y-126379228D01*
X177633458Y-126455885D01*
X177633454Y-126455888D01*
X177532681Y-126556662D01*
X177471358Y-126590147D01*
X177401666Y-126585163D01*
X177357319Y-126556662D01*
X177256545Y-126455888D01*
X177256541Y-126455885D01*
X177141817Y-126379228D01*
X177141804Y-126379221D01*
X177014332Y-126326421D01*
X177014322Y-126326418D01*
X176878995Y-126299500D01*
X176878993Y-126299500D01*
X176741007Y-126299500D01*
X176741005Y-126299500D01*
X176605677Y-126326418D01*
X176605667Y-126326421D01*
X176478195Y-126379221D01*
X176478182Y-126379228D01*
X176363458Y-126455885D01*
X176363454Y-126455888D01*
X176262681Y-126556662D01*
X176201358Y-126590147D01*
X176131666Y-126585163D01*
X176087319Y-126556662D01*
X175986545Y-126455888D01*
X175986541Y-126455885D01*
X175871817Y-126379228D01*
X175871804Y-126379221D01*
X175744332Y-126326421D01*
X175744322Y-126326418D01*
X175608995Y-126299500D01*
X175608993Y-126299500D01*
X175471007Y-126299500D01*
X175471005Y-126299500D01*
X175335677Y-126326418D01*
X175335667Y-126326421D01*
X175208195Y-126379221D01*
X175208182Y-126379228D01*
X175093458Y-126455885D01*
X175093454Y-126455888D01*
X174992681Y-126556662D01*
X174931358Y-126590147D01*
X174861666Y-126585163D01*
X174817319Y-126556662D01*
X174716545Y-126455888D01*
X174716541Y-126455885D01*
X174601817Y-126379228D01*
X174601804Y-126379221D01*
X174474332Y-126326421D01*
X174474322Y-126326418D01*
X174338995Y-126299500D01*
X174338993Y-126299500D01*
X174201007Y-126299500D01*
X174201005Y-126299500D01*
X174065677Y-126326418D01*
X174065667Y-126326421D01*
X173938195Y-126379221D01*
X173938177Y-126379231D01*
X173849270Y-126438637D01*
X173782593Y-126459515D01*
X173715213Y-126441030D01*
X173677279Y-126404427D01*
X173644552Y-126355448D01*
X173626203Y-126343187D01*
X173578230Y-126311132D01*
X173578229Y-126311131D01*
X173519752Y-126299500D01*
X173519748Y-126299500D01*
X172480252Y-126299500D01*
X172480247Y-126299500D01*
X172421770Y-126311131D01*
X172421769Y-126311132D01*
X172355447Y-126355447D01*
X172311132Y-126421769D01*
X172311131Y-126421770D01*
X172299500Y-126480247D01*
X158350500Y-126480247D01*
X158350500Y-126393713D01*
X158317246Y-126183757D01*
X158284868Y-126084108D01*
X197149500Y-126084108D01*
X197149500Y-126215891D01*
X197183608Y-126343187D01*
X197212780Y-126393713D01*
X197249500Y-126457314D01*
X197342686Y-126550500D01*
X197456814Y-126616392D01*
X197584108Y-126650500D01*
X197584110Y-126650500D01*
X197715890Y-126650500D01*
X197715892Y-126650500D01*
X197843186Y-126616392D01*
X197957314Y-126550500D01*
X198050500Y-126457314D01*
X198116392Y-126343186D01*
X198150500Y-126215892D01*
X198150500Y-126084108D01*
X198116392Y-125956814D01*
X198079961Y-125893713D01*
X210649500Y-125893713D01*
X210649500Y-126106286D01*
X210681944Y-126311133D01*
X210682754Y-126316243D01*
X210743338Y-126502702D01*
X210748444Y-126518414D01*
X210844951Y-126707820D01*
X210969890Y-126879786D01*
X211120213Y-127030109D01*
X211292179Y-127155048D01*
X211292181Y-127155049D01*
X211292184Y-127155051D01*
X211481588Y-127251557D01*
X211683757Y-127317246D01*
X211893713Y-127350500D01*
X211893714Y-127350500D01*
X212106286Y-127350500D01*
X212106287Y-127350500D01*
X212316243Y-127317246D01*
X212518412Y-127251557D01*
X212707816Y-127155051D01*
X212826266Y-127068993D01*
X212879786Y-127030109D01*
X212879788Y-127030106D01*
X212879792Y-127030104D01*
X213030104Y-126879792D01*
X213030106Y-126879788D01*
X213030109Y-126879786D01*
X213155048Y-126707820D01*
X213155047Y-126707820D01*
X213155051Y-126707816D01*
X213251557Y-126518412D01*
X213317246Y-126316243D01*
X213350500Y-126106287D01*
X213350500Y-125893713D01*
X213317246Y-125683757D01*
X213251557Y-125481588D01*
X213155051Y-125292184D01*
X213155049Y-125292181D01*
X213155048Y-125292179D01*
X213030109Y-125120213D01*
X212879786Y-124969890D01*
X212707820Y-124844951D01*
X212518414Y-124748444D01*
X212518413Y-124748443D01*
X212518412Y-124748443D01*
X212316243Y-124682754D01*
X212316241Y-124682753D01*
X212316240Y-124682753D01*
X212154957Y-124657208D01*
X212106287Y-124649500D01*
X211893713Y-124649500D01*
X211845042Y-124657208D01*
X211683760Y-124682753D01*
X211683757Y-124682754D01*
X211514258Y-124737828D01*
X211481585Y-124748444D01*
X211292179Y-124844951D01*
X211120213Y-124969890D01*
X210969890Y-125120213D01*
X210844951Y-125292179D01*
X210748444Y-125481585D01*
X210682753Y-125683760D01*
X210649500Y-125893713D01*
X198079961Y-125893713D01*
X198050500Y-125842686D01*
X197957314Y-125749500D01*
X197900250Y-125716554D01*
X197843187Y-125683608D01*
X197779539Y-125666554D01*
X197715892Y-125649500D01*
X197584108Y-125649500D01*
X197456812Y-125683608D01*
X197342686Y-125749500D01*
X197342683Y-125749502D01*
X197249502Y-125842683D01*
X197249500Y-125842686D01*
X197183608Y-125956812D01*
X197149500Y-126084108D01*
X158284868Y-126084108D01*
X158251557Y-125981588D01*
X158155051Y-125792184D01*
X158155049Y-125792181D01*
X158155048Y-125792179D01*
X158030109Y-125620213D01*
X157879786Y-125469890D01*
X157707820Y-125344951D01*
X157518414Y-125248444D01*
X157518413Y-125248443D01*
X157518412Y-125248443D01*
X157316243Y-125182754D01*
X157316241Y-125182753D01*
X157316240Y-125182753D01*
X157154957Y-125157208D01*
X157106287Y-125149500D01*
X156893713Y-125149500D01*
X156845042Y-125157208D01*
X156683760Y-125182753D01*
X156481585Y-125248444D01*
X156292179Y-125344951D01*
X156120213Y-125469890D01*
X155969890Y-125620213D01*
X155844951Y-125792179D01*
X155748444Y-125981585D01*
X155682753Y-126183760D01*
X155655561Y-126355447D01*
X155649500Y-126393713D01*
X152500500Y-126393713D01*
X152500500Y-124364623D01*
X198430014Y-124364623D01*
X198430014Y-124496406D01*
X198464122Y-124623702D01*
X198479017Y-124649500D01*
X198530014Y-124737829D01*
X198623200Y-124831015D01*
X198737328Y-124896907D01*
X198864622Y-124931015D01*
X198864624Y-124931015D01*
X198996404Y-124931015D01*
X198996406Y-124931015D01*
X199123700Y-124896907D01*
X199237828Y-124831015D01*
X199331014Y-124737829D01*
X199396906Y-124623701D01*
X199431014Y-124496407D01*
X199431014Y-124374829D01*
X199450699Y-124307790D01*
X199503503Y-124262035D01*
X199555014Y-124250829D01*
X199676590Y-124250829D01*
X199676592Y-124250829D01*
X199803886Y-124216721D01*
X199918014Y-124150829D01*
X200011200Y-124057643D01*
X200077092Y-123943515D01*
X200111200Y-123816221D01*
X200111200Y-123684437D01*
X200077092Y-123557143D01*
X200011200Y-123443015D01*
X199918014Y-123349829D01*
X199843507Y-123306812D01*
X199803887Y-123283937D01*
X199740239Y-123266883D01*
X199676592Y-123249829D01*
X199544808Y-123249829D01*
X199417512Y-123283937D01*
X199303386Y-123349829D01*
X199303383Y-123349831D01*
X199210202Y-123443012D01*
X199210200Y-123443015D01*
X199144308Y-123557141D01*
X199110200Y-123684437D01*
X199110200Y-123806015D01*
X199090515Y-123873054D01*
X199037711Y-123918809D01*
X198986200Y-123930015D01*
X198864622Y-123930015D01*
X198737326Y-123964123D01*
X198623200Y-124030015D01*
X198623197Y-124030017D01*
X198530016Y-124123198D01*
X198530014Y-124123201D01*
X198464122Y-124237327D01*
X198430014Y-124364623D01*
X152500500Y-124364623D01*
X152500500Y-123434108D01*
X157999500Y-123434108D01*
X157999500Y-123565892D01*
X158002171Y-123575861D01*
X158033608Y-123693187D01*
X158041798Y-123707372D01*
X158099500Y-123807314D01*
X158192686Y-123900500D01*
X158306814Y-123966392D01*
X158434108Y-124000500D01*
X158434110Y-124000500D01*
X158565890Y-124000500D01*
X158565892Y-124000500D01*
X158693186Y-123966392D01*
X158807314Y-123900500D01*
X158900500Y-123807314D01*
X158966392Y-123693186D01*
X159000500Y-123565892D01*
X159000500Y-123434108D01*
X158966392Y-123306814D01*
X158900500Y-123192686D01*
X158807314Y-123099500D01*
X158733714Y-123057007D01*
X158693187Y-123033608D01*
X158629539Y-123016554D01*
X158565892Y-122999500D01*
X158434108Y-122999500D01*
X158306812Y-123033608D01*
X158192686Y-123099500D01*
X158192683Y-123099502D01*
X158099502Y-123192683D01*
X158099500Y-123192686D01*
X158033608Y-123306812D01*
X158003373Y-123419655D01*
X157999500Y-123434108D01*
X152500500Y-123434108D01*
X152500500Y-122434108D01*
X155249500Y-122434108D01*
X155249500Y-122565892D01*
X155260565Y-122607187D01*
X155283608Y-122693187D01*
X155312712Y-122743596D01*
X155349500Y-122807314D01*
X155442686Y-122900500D01*
X155556814Y-122966392D01*
X155684108Y-123000500D01*
X155684110Y-123000500D01*
X155815890Y-123000500D01*
X155815892Y-123000500D01*
X155943186Y-122966392D01*
X156057314Y-122900500D01*
X156150500Y-122807314D01*
X156216392Y-122693186D01*
X156250500Y-122565892D01*
X156250500Y-122434108D01*
X156216392Y-122306814D01*
X156211213Y-122297844D01*
X161230000Y-122297844D01*
X161236401Y-122357372D01*
X161236403Y-122357379D01*
X161286645Y-122492086D01*
X161286649Y-122492093D01*
X161372809Y-122607187D01*
X161372812Y-122607190D01*
X161487906Y-122693350D01*
X161487913Y-122693354D01*
X161622620Y-122743596D01*
X161622627Y-122743598D01*
X161682155Y-122749999D01*
X161682172Y-122750000D01*
X161980000Y-122750000D01*
X161980000Y-122000000D01*
X161230000Y-122000000D01*
X161230000Y-122297844D01*
X156211213Y-122297844D01*
X156150500Y-122192686D01*
X156057314Y-122099500D01*
X156000250Y-122066554D01*
X155943187Y-122033608D01*
X155879539Y-122016554D01*
X155815892Y-121999500D01*
X155684108Y-121999500D01*
X155556812Y-122033608D01*
X155442686Y-122099500D01*
X155442683Y-122099502D01*
X155349502Y-122192683D01*
X155349500Y-122192686D01*
X155283608Y-122306812D01*
X155252321Y-122423578D01*
X155249500Y-122434108D01*
X152500500Y-122434108D01*
X152500500Y-121434108D01*
X156749500Y-121434108D01*
X156749500Y-121565892D01*
X156765472Y-121625500D01*
X156783608Y-121693187D01*
X156797591Y-121717406D01*
X156849500Y-121807314D01*
X156942686Y-121900500D01*
X157056814Y-121966392D01*
X157184108Y-122000500D01*
X157184110Y-122000500D01*
X157315890Y-122000500D01*
X157315892Y-122000500D01*
X157443186Y-121966392D01*
X157557314Y-121900500D01*
X157650500Y-121807314D01*
X157708293Y-121707213D01*
X161905000Y-121707213D01*
X161905000Y-121792787D01*
X161927149Y-121875445D01*
X161969936Y-121949554D01*
X162030446Y-122010064D01*
X162104555Y-122052851D01*
X162187213Y-122075000D01*
X162272787Y-122075000D01*
X162355445Y-122052851D01*
X162429554Y-122010064D01*
X162480000Y-121959618D01*
X162480000Y-122750000D01*
X162777828Y-122750000D01*
X162777844Y-122749999D01*
X162837372Y-122743598D01*
X162837379Y-122743596D01*
X162972086Y-122693354D01*
X162972093Y-122693350D01*
X163087187Y-122607190D01*
X163087190Y-122607187D01*
X163173347Y-122492098D01*
X163175412Y-122488316D01*
X163178461Y-122485266D01*
X163178669Y-122484989D01*
X163178708Y-122485018D01*
X163224815Y-122438908D01*
X163293087Y-122424052D01*
X163308440Y-122426120D01*
X163431004Y-122450500D01*
X163431007Y-122450500D01*
X163568995Y-122450500D01*
X163667005Y-122431004D01*
X163704328Y-122423580D01*
X163831811Y-122370775D01*
X163946542Y-122294114D01*
X163990656Y-122250000D01*
X164047319Y-122193338D01*
X164108642Y-122159853D01*
X164178334Y-122164837D01*
X164222681Y-122193338D01*
X164323454Y-122294111D01*
X164323458Y-122294114D01*
X164438182Y-122370771D01*
X164438195Y-122370778D01*
X164565667Y-122423578D01*
X164565672Y-122423580D01*
X164565676Y-122423580D01*
X164565677Y-122423581D01*
X164701004Y-122450500D01*
X164701007Y-122450500D01*
X164838995Y-122450500D01*
X164937005Y-122431004D01*
X164974328Y-122423580D01*
X165101811Y-122370775D01*
X165216542Y-122294114D01*
X165314114Y-122196542D01*
X165390775Y-122081811D01*
X165391384Y-122080342D01*
X165424869Y-121999500D01*
X165443580Y-121954328D01*
X165467876Y-121832187D01*
X165470500Y-121818995D01*
X165470500Y-121681004D01*
X165443581Y-121545677D01*
X165443580Y-121545676D01*
X165443580Y-121545672D01*
X165435223Y-121525497D01*
X165390778Y-121418195D01*
X165390771Y-121418182D01*
X165314114Y-121303458D01*
X165314111Y-121303454D01*
X165309652Y-121298995D01*
X167779499Y-121298995D01*
X167806418Y-121434322D01*
X167806421Y-121434332D01*
X167859221Y-121561804D01*
X167859228Y-121561817D01*
X167918637Y-121650728D01*
X167939515Y-121717406D01*
X167921031Y-121784786D01*
X167884426Y-121822721D01*
X167835447Y-121855447D01*
X167791132Y-121921769D01*
X167791131Y-121921770D01*
X167779500Y-121980247D01*
X167779500Y-123019752D01*
X167791131Y-123078229D01*
X167791132Y-123078230D01*
X167835447Y-123144552D01*
X167901769Y-123188867D01*
X167901770Y-123188868D01*
X167960247Y-123200499D01*
X167960250Y-123200500D01*
X167960252Y-123200500D01*
X168999750Y-123200500D01*
X168999751Y-123200499D01*
X169014568Y-123197552D01*
X169058229Y-123188868D01*
X169058229Y-123188867D01*
X169058231Y-123188867D01*
X169124552Y-123144552D01*
X169157279Y-123095573D01*
X169210889Y-123050769D01*
X169280213Y-123042060D01*
X169329271Y-123061362D01*
X169418182Y-123120771D01*
X169418195Y-123120778D01*
X169545667Y-123173578D01*
X169545672Y-123173580D01*
X169545676Y-123173580D01*
X169545677Y-123173581D01*
X169681004Y-123200500D01*
X169681007Y-123200500D01*
X169818995Y-123200500D01*
X169910041Y-123182389D01*
X169954328Y-123173580D01*
X170052924Y-123132740D01*
X170081804Y-123120778D01*
X170081804Y-123120777D01*
X170081811Y-123120775D01*
X170196542Y-123044114D01*
X170241156Y-122999500D01*
X170297319Y-122943338D01*
X170358642Y-122909853D01*
X170428334Y-122914837D01*
X170472681Y-122943338D01*
X170573454Y-123044111D01*
X170573458Y-123044114D01*
X170688182Y-123120771D01*
X170688195Y-123120778D01*
X170815667Y-123173578D01*
X170815672Y-123173580D01*
X170815676Y-123173580D01*
X170815677Y-123173581D01*
X170951004Y-123200500D01*
X170951007Y-123200500D01*
X171088995Y-123200500D01*
X171180041Y-123182389D01*
X171224328Y-123173580D01*
X171322924Y-123132740D01*
X171351804Y-123120778D01*
X171351804Y-123120777D01*
X171351811Y-123120775D01*
X171466542Y-123044114D01*
X171564114Y-122946542D01*
X171640775Y-122831811D01*
X171693580Y-122704328D01*
X171705077Y-122646530D01*
X179639500Y-122646530D01*
X179639500Y-122853469D01*
X179679868Y-123056412D01*
X179679870Y-123056420D01*
X179759058Y-123247596D01*
X179874024Y-123419657D01*
X180020342Y-123565975D01*
X180020345Y-123565977D01*
X180192402Y-123680941D01*
X180383580Y-123760130D01*
X180586530Y-123800499D01*
X180586534Y-123800500D01*
X180586535Y-123800500D01*
X180793466Y-123800500D01*
X180793467Y-123800499D01*
X180996420Y-123760130D01*
X181187598Y-123680941D01*
X181359655Y-123565977D01*
X181505977Y-123419655D01*
X181620941Y-123247598D01*
X181700130Y-123056420D01*
X181740500Y-122853465D01*
X181740500Y-122646535D01*
X181740499Y-122646530D01*
X182179500Y-122646530D01*
X182179500Y-122853469D01*
X182219868Y-123056412D01*
X182219870Y-123056420D01*
X182299058Y-123247596D01*
X182414024Y-123419657D01*
X182560342Y-123565975D01*
X182560345Y-123565977D01*
X182732402Y-123680941D01*
X182923580Y-123760130D01*
X183126530Y-123800499D01*
X183126534Y-123800500D01*
X183126535Y-123800500D01*
X183333466Y-123800500D01*
X183333467Y-123800499D01*
X183536420Y-123760130D01*
X183727598Y-123680941D01*
X183899655Y-123565977D01*
X184045977Y-123419655D01*
X184160941Y-123247598D01*
X184240130Y-123056420D01*
X184280500Y-122853465D01*
X184280500Y-122646535D01*
X184280499Y-122646530D01*
X184719500Y-122646530D01*
X184719500Y-122853469D01*
X184759868Y-123056412D01*
X184759870Y-123056420D01*
X184839058Y-123247596D01*
X184954024Y-123419657D01*
X185100342Y-123565975D01*
X185100345Y-123565977D01*
X185272402Y-123680941D01*
X185463580Y-123760130D01*
X185666530Y-123800499D01*
X185666534Y-123800500D01*
X185666535Y-123800500D01*
X185873466Y-123800500D01*
X185873467Y-123800499D01*
X186076420Y-123760130D01*
X186267598Y-123680941D01*
X186439655Y-123565977D01*
X186585977Y-123419655D01*
X186700941Y-123247598D01*
X186721439Y-123198112D01*
X186765279Y-123143708D01*
X186831573Y-123121643D01*
X186899273Y-123138922D01*
X186946884Y-123190059D01*
X186960000Y-123245564D01*
X186960000Y-123647844D01*
X186966401Y-123707372D01*
X186966403Y-123707379D01*
X187016645Y-123842086D01*
X187016649Y-123842093D01*
X187102809Y-123957187D01*
X187102812Y-123957190D01*
X187217906Y-124043350D01*
X187217913Y-124043354D01*
X187352620Y-124093596D01*
X187352627Y-124093598D01*
X187412155Y-124099999D01*
X187412172Y-124100000D01*
X188060000Y-124100000D01*
X188060000Y-123183012D01*
X188117007Y-123215925D01*
X188244174Y-123250000D01*
X188375826Y-123250000D01*
X188502993Y-123215925D01*
X188560000Y-123183012D01*
X188560000Y-124100000D01*
X189207828Y-124100000D01*
X189207844Y-124099999D01*
X189267372Y-124093598D01*
X189267379Y-124093596D01*
X189402086Y-124043354D01*
X189402093Y-124043350D01*
X189517187Y-123957190D01*
X189517190Y-123957187D01*
X189603350Y-123842093D01*
X189603354Y-123842086D01*
X189653596Y-123707379D01*
X189653598Y-123707372D01*
X189659999Y-123647844D01*
X189660000Y-123647827D01*
X189660000Y-123000000D01*
X188743012Y-123000000D01*
X188775925Y-122942993D01*
X188810000Y-122815826D01*
X188810000Y-122684174D01*
X188775925Y-122557007D01*
X188743012Y-122500000D01*
X189660000Y-122500000D01*
X189660000Y-121852172D01*
X189659999Y-121852155D01*
X189653598Y-121792627D01*
X189653596Y-121792620D01*
X189603354Y-121657913D01*
X189603350Y-121657906D01*
X189517190Y-121542812D01*
X189517187Y-121542809D01*
X189402093Y-121456649D01*
X189402086Y-121456645D01*
X189267379Y-121406403D01*
X189267372Y-121406401D01*
X189207844Y-121400000D01*
X188560000Y-121400000D01*
X188560000Y-122316988D01*
X188502993Y-122284075D01*
X188375826Y-122250000D01*
X188244174Y-122250000D01*
X188117007Y-122284075D01*
X188060000Y-122316988D01*
X188060000Y-121400000D01*
X187412155Y-121400000D01*
X187352627Y-121406401D01*
X187352620Y-121406403D01*
X187217913Y-121456645D01*
X187217906Y-121456649D01*
X187102812Y-121542809D01*
X187102809Y-121542812D01*
X187016649Y-121657906D01*
X187016645Y-121657913D01*
X186966403Y-121792620D01*
X186966401Y-121792627D01*
X186960000Y-121852155D01*
X186960000Y-122254435D01*
X186940315Y-122321474D01*
X186887511Y-122367229D01*
X186818353Y-122377173D01*
X186754797Y-122348148D01*
X186721439Y-122301888D01*
X186700941Y-122252403D01*
X186700941Y-122252402D01*
X186585977Y-122080345D01*
X186585975Y-122080342D01*
X186439657Y-121934024D01*
X186317130Y-121852155D01*
X186267598Y-121819059D01*
X186267443Y-121818995D01*
X186076420Y-121739870D01*
X186076412Y-121739868D01*
X185873469Y-121699500D01*
X185873465Y-121699500D01*
X185666535Y-121699500D01*
X185666530Y-121699500D01*
X185463587Y-121739868D01*
X185463579Y-121739870D01*
X185272403Y-121819058D01*
X185100342Y-121934024D01*
X184954024Y-122080342D01*
X184839058Y-122252403D01*
X184759870Y-122443579D01*
X184759868Y-122443587D01*
X184719500Y-122646530D01*
X184280499Y-122646530D01*
X184240130Y-122443580D01*
X184160941Y-122252402D01*
X184045977Y-122080345D01*
X184045975Y-122080342D01*
X183899657Y-121934024D01*
X183777130Y-121852155D01*
X183727598Y-121819059D01*
X183727443Y-121818995D01*
X183536420Y-121739870D01*
X183536412Y-121739868D01*
X183333469Y-121699500D01*
X183333465Y-121699500D01*
X183126535Y-121699500D01*
X183126530Y-121699500D01*
X182923587Y-121739868D01*
X182923579Y-121739870D01*
X182732403Y-121819058D01*
X182560342Y-121934024D01*
X182414024Y-122080342D01*
X182299058Y-122252403D01*
X182219870Y-122443579D01*
X182219868Y-122443587D01*
X182179500Y-122646530D01*
X181740499Y-122646530D01*
X181700130Y-122443580D01*
X181620941Y-122252402D01*
X181505977Y-122080345D01*
X181505975Y-122080342D01*
X181359657Y-121934024D01*
X181237130Y-121852155D01*
X181187598Y-121819059D01*
X181187443Y-121818995D01*
X180996420Y-121739870D01*
X180996412Y-121739868D01*
X180793469Y-121699500D01*
X180793465Y-121699500D01*
X180586535Y-121699500D01*
X180586530Y-121699500D01*
X180383587Y-121739868D01*
X180383579Y-121739870D01*
X180192403Y-121819058D01*
X180020342Y-121934024D01*
X179874024Y-122080342D01*
X179759058Y-122252403D01*
X179679870Y-122443579D01*
X179679868Y-122443587D01*
X179639500Y-122646530D01*
X171705077Y-122646530D01*
X171720500Y-122568993D01*
X171720500Y-122431007D01*
X171720500Y-122431004D01*
X171693581Y-122295677D01*
X171693580Y-122295676D01*
X171693580Y-122295672D01*
X171676499Y-122254435D01*
X171640778Y-122168195D01*
X171640771Y-122168182D01*
X171564114Y-122053458D01*
X171564111Y-122053454D01*
X171463338Y-121952681D01*
X171429853Y-121891358D01*
X171434837Y-121821666D01*
X171463338Y-121777319D01*
X171564111Y-121676545D01*
X171564114Y-121676542D01*
X171640775Y-121561811D01*
X171693580Y-121434328D01*
X171712314Y-121340147D01*
X171720500Y-121298995D01*
X171720500Y-121184108D01*
X172249500Y-121184108D01*
X172249500Y-121315891D01*
X172283608Y-121443187D01*
X172299375Y-121470495D01*
X172349500Y-121557314D01*
X172442686Y-121650500D01*
X172556814Y-121716392D01*
X172684108Y-121750500D01*
X172684110Y-121750500D01*
X172815890Y-121750500D01*
X172815892Y-121750500D01*
X172943186Y-121716392D01*
X173057314Y-121650500D01*
X173150500Y-121557314D01*
X173216392Y-121443186D01*
X173250500Y-121315892D01*
X173250500Y-121184108D01*
X173216392Y-121056814D01*
X173203283Y-121034108D01*
X193249500Y-121034108D01*
X193249500Y-121165892D01*
X193258639Y-121200000D01*
X193283608Y-121293187D01*
X193298042Y-121318187D01*
X193349500Y-121407314D01*
X193442686Y-121500500D01*
X193520926Y-121545672D01*
X193555944Y-121565890D01*
X193556814Y-121566392D01*
X193684108Y-121600500D01*
X193684110Y-121600500D01*
X193815890Y-121600500D01*
X193815892Y-121600500D01*
X193943186Y-121566392D01*
X194057314Y-121500500D01*
X194087319Y-121470495D01*
X194148642Y-121437010D01*
X194218334Y-121441994D01*
X194262681Y-121470495D01*
X194317686Y-121525500D01*
X194431814Y-121591392D01*
X194559108Y-121625500D01*
X194559110Y-121625500D01*
X194690890Y-121625500D01*
X194690892Y-121625500D01*
X194818186Y-121591392D01*
X194932314Y-121525500D01*
X195025500Y-121432314D01*
X195091392Y-121318186D01*
X195125500Y-121190892D01*
X195125500Y-121059108D01*
X195091392Y-120931814D01*
X195025500Y-120817686D01*
X194932314Y-120724500D01*
X194865431Y-120685885D01*
X194818187Y-120658608D01*
X194754539Y-120641554D01*
X194690892Y-120624500D01*
X194559108Y-120624500D01*
X194431812Y-120658608D01*
X194317686Y-120724500D01*
X194287678Y-120754507D01*
X194226354Y-120787990D01*
X194156662Y-120783004D01*
X194112318Y-120754504D01*
X194057316Y-120699502D01*
X194057314Y-120699500D01*
X193986487Y-120658608D01*
X193943187Y-120633608D01*
X193879539Y-120616554D01*
X193815892Y-120599500D01*
X193684108Y-120599500D01*
X193556812Y-120633608D01*
X193442686Y-120699500D01*
X193442683Y-120699502D01*
X193349502Y-120792683D01*
X193349500Y-120792686D01*
X193283608Y-120906812D01*
X193276909Y-120931814D01*
X193249500Y-121034108D01*
X173203283Y-121034108D01*
X173150500Y-120942686D01*
X173057314Y-120849500D01*
X172958910Y-120792686D01*
X172943187Y-120783608D01*
X172879539Y-120766554D01*
X172815892Y-120749500D01*
X172684108Y-120749500D01*
X172556812Y-120783608D01*
X172442686Y-120849500D01*
X172442683Y-120849502D01*
X172349502Y-120942683D01*
X172349500Y-120942686D01*
X172283608Y-121056812D01*
X172249500Y-121184108D01*
X171720500Y-121184108D01*
X171720500Y-121161004D01*
X171693581Y-121025677D01*
X171693580Y-121025676D01*
X171693580Y-121025672D01*
X171664056Y-120954394D01*
X171640778Y-120898195D01*
X171640771Y-120898182D01*
X171564114Y-120783458D01*
X171564111Y-120783454D01*
X171466545Y-120685888D01*
X171466541Y-120685885D01*
X171351817Y-120609228D01*
X171351804Y-120609221D01*
X171224332Y-120556421D01*
X171224322Y-120556418D01*
X171088995Y-120529500D01*
X171088993Y-120529500D01*
X170951007Y-120529500D01*
X170951005Y-120529500D01*
X170815677Y-120556418D01*
X170815667Y-120556421D01*
X170688195Y-120609221D01*
X170688182Y-120609228D01*
X170573458Y-120685885D01*
X170573454Y-120685888D01*
X170472681Y-120786662D01*
X170411358Y-120820147D01*
X170341666Y-120815163D01*
X170297319Y-120786662D01*
X170196545Y-120685888D01*
X170196541Y-120685885D01*
X170081817Y-120609228D01*
X170081804Y-120609221D01*
X169954332Y-120556421D01*
X169954322Y-120556418D01*
X169818995Y-120529500D01*
X169818993Y-120529500D01*
X169681007Y-120529500D01*
X169681005Y-120529500D01*
X169545677Y-120556418D01*
X169545667Y-120556421D01*
X169418195Y-120609221D01*
X169418182Y-120609228D01*
X169303458Y-120685885D01*
X169303454Y-120685888D01*
X169202681Y-120786662D01*
X169141358Y-120820147D01*
X169071666Y-120815163D01*
X169027319Y-120786662D01*
X168926545Y-120685888D01*
X168926541Y-120685885D01*
X168811817Y-120609228D01*
X168811804Y-120609221D01*
X168684332Y-120556421D01*
X168684322Y-120556418D01*
X168548995Y-120529500D01*
X168548993Y-120529500D01*
X168411007Y-120529500D01*
X168411005Y-120529500D01*
X168275677Y-120556418D01*
X168275667Y-120556421D01*
X168148195Y-120609221D01*
X168148182Y-120609228D01*
X168033458Y-120685885D01*
X168033454Y-120685888D01*
X167935888Y-120783454D01*
X167935885Y-120783458D01*
X167859228Y-120898182D01*
X167859221Y-120898195D01*
X167806421Y-121025667D01*
X167806418Y-121025677D01*
X167779500Y-121161004D01*
X167779500Y-121161007D01*
X167779500Y-121298993D01*
X167779500Y-121298995D01*
X167779499Y-121298995D01*
X165309652Y-121298995D01*
X165216545Y-121205888D01*
X165216541Y-121205885D01*
X165101817Y-121129228D01*
X165101804Y-121129221D01*
X164974332Y-121076421D01*
X164974322Y-121076418D01*
X164838995Y-121049500D01*
X164838993Y-121049500D01*
X164701007Y-121049500D01*
X164701005Y-121049500D01*
X164565677Y-121076418D01*
X164565667Y-121076421D01*
X164438195Y-121129221D01*
X164438182Y-121129228D01*
X164323458Y-121205885D01*
X164323454Y-121205888D01*
X164222681Y-121306662D01*
X164161358Y-121340147D01*
X164091666Y-121335163D01*
X164047319Y-121306662D01*
X163946545Y-121205888D01*
X163946541Y-121205885D01*
X163831817Y-121129228D01*
X163831804Y-121129221D01*
X163704332Y-121076421D01*
X163704322Y-121076418D01*
X163568995Y-121049500D01*
X163568993Y-121049500D01*
X163431007Y-121049500D01*
X163431002Y-121049500D01*
X163308439Y-121073879D01*
X163238847Y-121067652D01*
X163183670Y-121024788D01*
X163175415Y-121011686D01*
X163173353Y-121007910D01*
X163087190Y-120892812D01*
X163087187Y-120892809D01*
X162972093Y-120806649D01*
X162972086Y-120806645D01*
X162837379Y-120756403D01*
X162837372Y-120756401D01*
X162777844Y-120750000D01*
X162480000Y-120750000D01*
X162480000Y-121540382D01*
X162429554Y-121489936D01*
X162355445Y-121447149D01*
X162272787Y-121425000D01*
X162187213Y-121425000D01*
X162104555Y-121447149D01*
X162030446Y-121489936D01*
X161969936Y-121550446D01*
X161927149Y-121624555D01*
X161905000Y-121707213D01*
X157708293Y-121707213D01*
X157716392Y-121693186D01*
X157750500Y-121565892D01*
X157750500Y-121434108D01*
X157716392Y-121306814D01*
X157716390Y-121306810D01*
X157689857Y-121260853D01*
X157689856Y-121260852D01*
X157682214Y-121247617D01*
X157655967Y-121202155D01*
X161230000Y-121202155D01*
X161230000Y-121500000D01*
X161980000Y-121500000D01*
X161980000Y-120750000D01*
X161682155Y-120750000D01*
X161622627Y-120756401D01*
X161622620Y-120756403D01*
X161487913Y-120806645D01*
X161487906Y-120806649D01*
X161372812Y-120892809D01*
X161372809Y-120892812D01*
X161286649Y-121007906D01*
X161286645Y-121007913D01*
X161236403Y-121142620D01*
X161236401Y-121142627D01*
X161230000Y-121202155D01*
X157655967Y-121202155D01*
X157650500Y-121192686D01*
X157557314Y-121099500D01*
X157487353Y-121059108D01*
X157443187Y-121033608D01*
X157347290Y-121007913D01*
X157315892Y-120999500D01*
X157184108Y-120999500D01*
X157056812Y-121033608D01*
X156942686Y-121099500D01*
X156942683Y-121099502D01*
X156849502Y-121192683D01*
X156849500Y-121192686D01*
X156783608Y-121306812D01*
X156758639Y-121400000D01*
X156749500Y-121434108D01*
X152500500Y-121434108D01*
X152500500Y-119934108D01*
X173249500Y-119934108D01*
X173249500Y-120065892D01*
X173266554Y-120129539D01*
X173283608Y-120193187D01*
X173316554Y-120250250D01*
X173349500Y-120307314D01*
X173442686Y-120400500D01*
X173556814Y-120466392D01*
X173684108Y-120500500D01*
X173684110Y-120500500D01*
X173815890Y-120500500D01*
X173815892Y-120500500D01*
X173943186Y-120466392D01*
X174057314Y-120400500D01*
X174150500Y-120307314D01*
X174216392Y-120193186D01*
X174250500Y-120065892D01*
X174250500Y-119934108D01*
X174749500Y-119934108D01*
X174749500Y-120065892D01*
X174766554Y-120129539D01*
X174783608Y-120193187D01*
X174816554Y-120250250D01*
X174849500Y-120307314D01*
X174942686Y-120400500D01*
X175056814Y-120466392D01*
X175184108Y-120500500D01*
X175184110Y-120500500D01*
X175315890Y-120500500D01*
X175315892Y-120500500D01*
X175443186Y-120466392D01*
X175557314Y-120400500D01*
X175650500Y-120307314D01*
X175716392Y-120193186D01*
X175747482Y-120077155D01*
X214275000Y-120077155D01*
X214275000Y-120550000D01*
X215134314Y-120550000D01*
X215129920Y-120554394D01*
X215077259Y-120645606D01*
X215050000Y-120747339D01*
X215050000Y-120852661D01*
X215077259Y-120954394D01*
X215129920Y-121045606D01*
X215134314Y-121050000D01*
X214275000Y-121050000D01*
X214275000Y-121522844D01*
X214281401Y-121582372D01*
X214281403Y-121582379D01*
X214331645Y-121717086D01*
X214331649Y-121717093D01*
X214417809Y-121832187D01*
X214417812Y-121832190D01*
X214532906Y-121918350D01*
X214532913Y-121918354D01*
X214667620Y-121968596D01*
X214667627Y-121968598D01*
X214727155Y-121974999D01*
X214727172Y-121975000D01*
X214737493Y-121975000D01*
X214804532Y-121994685D01*
X214850287Y-122047489D01*
X214860231Y-122116647D01*
X214831206Y-122180203D01*
X214825174Y-122186681D01*
X214769957Y-122241897D01*
X214769954Y-122241901D01*
X214674145Y-122385288D01*
X214674138Y-122385301D01*
X214608146Y-122544621D01*
X214608143Y-122544633D01*
X214574500Y-122713766D01*
X214574500Y-122886233D01*
X214608143Y-123055366D01*
X214608146Y-123055378D01*
X214674138Y-123214698D01*
X214674145Y-123214711D01*
X214769954Y-123358098D01*
X214769957Y-123358102D01*
X214891897Y-123480042D01*
X214891901Y-123480045D01*
X215035288Y-123575854D01*
X215035301Y-123575861D01*
X215194621Y-123641853D01*
X215194626Y-123641855D01*
X215363766Y-123675499D01*
X215363769Y-123675500D01*
X215363771Y-123675500D01*
X215536231Y-123675500D01*
X215536232Y-123675499D01*
X215705374Y-123641855D01*
X215864705Y-123575858D01*
X216008099Y-123480045D01*
X216130045Y-123358099D01*
X216225858Y-123214705D01*
X216291855Y-123055374D01*
X216325500Y-122886229D01*
X216325500Y-122713771D01*
X216325500Y-122713768D01*
X216325499Y-122713766D01*
X216306102Y-122616251D01*
X216291855Y-122544626D01*
X216291853Y-122544621D01*
X216225861Y-122385301D01*
X216225854Y-122385288D01*
X216130045Y-122241901D01*
X216130042Y-122241897D01*
X216074826Y-122186681D01*
X216041341Y-122125358D01*
X216046325Y-122055666D01*
X216088197Y-121999733D01*
X216153661Y-121975316D01*
X216162507Y-121975000D01*
X216172828Y-121975000D01*
X216172844Y-121974999D01*
X216232372Y-121968598D01*
X216232379Y-121968596D01*
X216367086Y-121918354D01*
X216367093Y-121918350D01*
X216482187Y-121832190D01*
X216482190Y-121832187D01*
X216568350Y-121717093D01*
X216568354Y-121717086D01*
X216618596Y-121582379D01*
X216618598Y-121582372D01*
X216624999Y-121522844D01*
X216625000Y-121522827D01*
X216625000Y-121050000D01*
X215765686Y-121050000D01*
X215770080Y-121045606D01*
X215822741Y-120954394D01*
X215850000Y-120852661D01*
X215850000Y-120747339D01*
X215822741Y-120645606D01*
X215770080Y-120554394D01*
X215765686Y-120550000D01*
X216625000Y-120550000D01*
X216625000Y-120077172D01*
X216624999Y-120077155D01*
X216618598Y-120017627D01*
X216618596Y-120017620D01*
X216568354Y-119882913D01*
X216568350Y-119882906D01*
X216482190Y-119767812D01*
X216482187Y-119767809D01*
X216367093Y-119681649D01*
X216367086Y-119681645D01*
X216232379Y-119631403D01*
X216232372Y-119631401D01*
X216172844Y-119625000D01*
X215700000Y-119625000D01*
X215700000Y-120484314D01*
X215695606Y-120479920D01*
X215604394Y-120427259D01*
X215502661Y-120400000D01*
X215397339Y-120400000D01*
X215295606Y-120427259D01*
X215204394Y-120479920D01*
X215200000Y-120484314D01*
X215200000Y-119625000D01*
X214727155Y-119625000D01*
X214667627Y-119631401D01*
X214667620Y-119631403D01*
X214532913Y-119681645D01*
X214532906Y-119681649D01*
X214417812Y-119767809D01*
X214417809Y-119767812D01*
X214331649Y-119882906D01*
X214331645Y-119882913D01*
X214281403Y-120017620D01*
X214281401Y-120017627D01*
X214275000Y-120077155D01*
X175747482Y-120077155D01*
X175750500Y-120065892D01*
X175750500Y-119934108D01*
X175716392Y-119806814D01*
X175650500Y-119692686D01*
X175557314Y-119599500D01*
X175443186Y-119533608D01*
X175315892Y-119499500D01*
X175184108Y-119499500D01*
X175056812Y-119533608D01*
X174942686Y-119599500D01*
X174942683Y-119599502D01*
X174849502Y-119692683D01*
X174849500Y-119692686D01*
X174783608Y-119806812D01*
X174758506Y-119900497D01*
X174749500Y-119934108D01*
X174250500Y-119934108D01*
X174216392Y-119806814D01*
X174150500Y-119692686D01*
X174057314Y-119599500D01*
X173999100Y-119565890D01*
X173943187Y-119533608D01*
X173879539Y-119516554D01*
X173815892Y-119499500D01*
X173684108Y-119499500D01*
X173556812Y-119533608D01*
X173442686Y-119599500D01*
X173442683Y-119599502D01*
X173349502Y-119692683D01*
X173349500Y-119692686D01*
X173283608Y-119806812D01*
X173258506Y-119900497D01*
X173249500Y-119934108D01*
X152500500Y-119934108D01*
X152500500Y-119434108D01*
X186499500Y-119434108D01*
X186499500Y-119565891D01*
X186533608Y-119693187D01*
X186566554Y-119750250D01*
X186599500Y-119807314D01*
X186692686Y-119900500D01*
X186791521Y-119957563D01*
X186806810Y-119966390D01*
X186806814Y-119966392D01*
X186934108Y-120000500D01*
X186934110Y-120000500D01*
X187065890Y-120000500D01*
X187065892Y-120000500D01*
X187193186Y-119966392D01*
X187307314Y-119900500D01*
X187400500Y-119807314D01*
X187466392Y-119693186D01*
X187500500Y-119565892D01*
X187500500Y-119434108D01*
X187466392Y-119306814D01*
X187400500Y-119192686D01*
X187307314Y-119099500D01*
X187250250Y-119066554D01*
X187193187Y-119033608D01*
X187129539Y-119016554D01*
X187065892Y-118999500D01*
X186934108Y-118999500D01*
X186806812Y-119033608D01*
X186692686Y-119099500D01*
X186692683Y-119099502D01*
X186599502Y-119192683D01*
X186599500Y-119192686D01*
X186533608Y-119306812D01*
X186499500Y-119434108D01*
X152500500Y-119434108D01*
X152500500Y-118684108D01*
X159999500Y-118684108D01*
X159999500Y-118815891D01*
X160033608Y-118943187D01*
X160066121Y-118999500D01*
X160099500Y-119057314D01*
X160192686Y-119150500D01*
X160306814Y-119216392D01*
X160434108Y-119250500D01*
X160434110Y-119250500D01*
X160565890Y-119250500D01*
X160565892Y-119250500D01*
X160693186Y-119216392D01*
X160807314Y-119150500D01*
X160900500Y-119057314D01*
X160966392Y-118943186D01*
X161000500Y-118815892D01*
X161000500Y-118684108D01*
X160966392Y-118556814D01*
X160900500Y-118442686D01*
X160807314Y-118349500D01*
X160750250Y-118316554D01*
X160693187Y-118283608D01*
X160629539Y-118266554D01*
X160565892Y-118249500D01*
X160434108Y-118249500D01*
X160306812Y-118283608D01*
X160192686Y-118349500D01*
X160192683Y-118349502D01*
X160099502Y-118442683D01*
X160099500Y-118442686D01*
X160033608Y-118556812D01*
X159999500Y-118684108D01*
X152500500Y-118684108D01*
X152500500Y-117684108D01*
X194399500Y-117684108D01*
X194399500Y-117815891D01*
X194433608Y-117943187D01*
X194466554Y-118000250D01*
X194499500Y-118057314D01*
X194592686Y-118150500D01*
X194706814Y-118216392D01*
X194834108Y-118250500D01*
X194834110Y-118250500D01*
X194965890Y-118250500D01*
X194965892Y-118250500D01*
X195093186Y-118216392D01*
X195207314Y-118150500D01*
X195300500Y-118057314D01*
X195366392Y-117943186D01*
X195400500Y-117815892D01*
X195400500Y-117684108D01*
X195366392Y-117556814D01*
X195300500Y-117442686D01*
X195207314Y-117349500D01*
X195150250Y-117316554D01*
X195093187Y-117283608D01*
X195029539Y-117266554D01*
X194965892Y-117249500D01*
X194834108Y-117249500D01*
X194706812Y-117283608D01*
X194592686Y-117349500D01*
X194592683Y-117349502D01*
X194499502Y-117442683D01*
X194499500Y-117442686D01*
X194433608Y-117556812D01*
X194399500Y-117684108D01*
X152500500Y-117684108D01*
X152500500Y-116434108D01*
X166249500Y-116434108D01*
X166249500Y-116565892D01*
X166259065Y-116601589D01*
X166283608Y-116693187D01*
X166291693Y-116707190D01*
X166349500Y-116807314D01*
X166442686Y-116900500D01*
X166556814Y-116966392D01*
X166684108Y-117000500D01*
X166684110Y-117000500D01*
X166815890Y-117000500D01*
X166815892Y-117000500D01*
X166943186Y-116966392D01*
X167057314Y-116900500D01*
X167150500Y-116807314D01*
X167216392Y-116693186D01*
X167250500Y-116565892D01*
X167250500Y-116434108D01*
X167999500Y-116434108D01*
X167999500Y-116565892D01*
X168009065Y-116601589D01*
X168033608Y-116693187D01*
X168041693Y-116707190D01*
X168099500Y-116807314D01*
X168192686Y-116900500D01*
X168306814Y-116966392D01*
X168434108Y-117000500D01*
X168434110Y-117000500D01*
X168565890Y-117000500D01*
X168565892Y-117000500D01*
X168627068Y-116984108D01*
X201349500Y-116984108D01*
X201349500Y-117115891D01*
X201383608Y-117243187D01*
X201387253Y-117249500D01*
X201449500Y-117357314D01*
X201542686Y-117450500D01*
X201656814Y-117516392D01*
X201784108Y-117550500D01*
X201784110Y-117550500D01*
X201915890Y-117550500D01*
X201915892Y-117550500D01*
X202043186Y-117516392D01*
X202157314Y-117450500D01*
X202250500Y-117357314D01*
X202316392Y-117243186D01*
X202350500Y-117115892D01*
X202350500Y-116984108D01*
X202316392Y-116856814D01*
X202250500Y-116742686D01*
X202157314Y-116649500D01*
X202074330Y-116601589D01*
X202043187Y-116583608D01*
X201977061Y-116565890D01*
X201915892Y-116549500D01*
X201784108Y-116549500D01*
X201656812Y-116583608D01*
X201542686Y-116649500D01*
X201542683Y-116649502D01*
X201449502Y-116742683D01*
X201449500Y-116742686D01*
X201383608Y-116856812D01*
X201349500Y-116984108D01*
X168627068Y-116984108D01*
X168693186Y-116966392D01*
X168807314Y-116900500D01*
X168900500Y-116807314D01*
X168966392Y-116693186D01*
X169000500Y-116565892D01*
X169000500Y-116434108D01*
X168966392Y-116306814D01*
X168900500Y-116192686D01*
X168807314Y-116099500D01*
X168750250Y-116066554D01*
X168693187Y-116033608D01*
X168629539Y-116016554D01*
X168565892Y-115999500D01*
X168434108Y-115999500D01*
X168306812Y-116033608D01*
X168192686Y-116099500D01*
X168192683Y-116099502D01*
X168099502Y-116192683D01*
X168099500Y-116192686D01*
X168033608Y-116306812D01*
X168009217Y-116397844D01*
X167999500Y-116434108D01*
X167250500Y-116434108D01*
X167216392Y-116306814D01*
X167150500Y-116192686D01*
X167057314Y-116099500D01*
X167000250Y-116066554D01*
X166943187Y-116033608D01*
X166879539Y-116016554D01*
X166815892Y-115999500D01*
X166684108Y-115999500D01*
X166556812Y-116033608D01*
X166442686Y-116099500D01*
X166442683Y-116099502D01*
X166349502Y-116192683D01*
X166349500Y-116192686D01*
X166283608Y-116306812D01*
X166259217Y-116397844D01*
X166249500Y-116434108D01*
X152500500Y-116434108D01*
X152500500Y-115434108D01*
X193749500Y-115434108D01*
X193749500Y-115565891D01*
X193783608Y-115693187D01*
X193816410Y-115750000D01*
X193849500Y-115807314D01*
X193942686Y-115900500D01*
X194056814Y-115966392D01*
X194184108Y-116000500D01*
X194184110Y-116000500D01*
X194315890Y-116000500D01*
X194315892Y-116000500D01*
X194443186Y-115966392D01*
X194557314Y-115900500D01*
X194650500Y-115807314D01*
X194716392Y-115693186D01*
X194750500Y-115565892D01*
X194750500Y-115434108D01*
X195049500Y-115434108D01*
X195049500Y-115565891D01*
X195083608Y-115693187D01*
X195116410Y-115750000D01*
X195149500Y-115807314D01*
X195242686Y-115900500D01*
X195356814Y-115966392D01*
X195484108Y-116000500D01*
X195484110Y-116000500D01*
X195615890Y-116000500D01*
X195615892Y-116000500D01*
X195743186Y-115966392D01*
X195857314Y-115900500D01*
X195950500Y-115807314D01*
X196016392Y-115693186D01*
X196050500Y-115565892D01*
X196050500Y-115434108D01*
X196016392Y-115306814D01*
X195950500Y-115192686D01*
X195857314Y-115099500D01*
X195800250Y-115066554D01*
X195743187Y-115033608D01*
X195679539Y-115016554D01*
X195615892Y-114999500D01*
X195484108Y-114999500D01*
X195356812Y-115033608D01*
X195242686Y-115099500D01*
X195242683Y-115099502D01*
X195149502Y-115192683D01*
X195149500Y-115192686D01*
X195083608Y-115306812D01*
X195049500Y-115434108D01*
X194750500Y-115434108D01*
X194716392Y-115306814D01*
X194650500Y-115192686D01*
X194557314Y-115099500D01*
X194500250Y-115066554D01*
X194443187Y-115033608D01*
X194379539Y-115016554D01*
X194315892Y-114999500D01*
X194184108Y-114999500D01*
X194056812Y-115033608D01*
X193942686Y-115099500D01*
X193942683Y-115099502D01*
X193849502Y-115192683D01*
X193849500Y-115192686D01*
X193783608Y-115306812D01*
X193749500Y-115434108D01*
X152500500Y-115434108D01*
X152500500Y-112934108D01*
X182499500Y-112934108D01*
X182499500Y-113065891D01*
X182533608Y-113193187D01*
X182566554Y-113250250D01*
X182599500Y-113307314D01*
X182692686Y-113400500D01*
X182806814Y-113466392D01*
X182934108Y-113500500D01*
X182934110Y-113500500D01*
X183065890Y-113500500D01*
X183065892Y-113500500D01*
X183193186Y-113466392D01*
X183249103Y-113434108D01*
X187749500Y-113434108D01*
X187749500Y-113565891D01*
X187783608Y-113693187D01*
X187816554Y-113750250D01*
X187849500Y-113807314D01*
X187942686Y-113900500D01*
X188056814Y-113966392D01*
X188184108Y-114000500D01*
X188184110Y-114000500D01*
X188315890Y-114000500D01*
X188315892Y-114000500D01*
X188443186Y-113966392D01*
X188557314Y-113900500D01*
X188650500Y-113807314D01*
X188716392Y-113693186D01*
X188750500Y-113565892D01*
X188750500Y-113434108D01*
X188716392Y-113306814D01*
X188650500Y-113192686D01*
X188557314Y-113099500D01*
X188494907Y-113063469D01*
X188443187Y-113033608D01*
X188379539Y-113016554D01*
X188315892Y-112999500D01*
X188184108Y-112999500D01*
X188056812Y-113033608D01*
X187942686Y-113099500D01*
X187942683Y-113099502D01*
X187849502Y-113192683D01*
X187849500Y-113192686D01*
X187783608Y-113306812D01*
X187749500Y-113434108D01*
X183249103Y-113434108D01*
X183307314Y-113400500D01*
X183400500Y-113307314D01*
X183466392Y-113193186D01*
X183500500Y-113065892D01*
X183500500Y-112934108D01*
X183466392Y-112806814D01*
X183400500Y-112692686D01*
X183307314Y-112599500D01*
X183193186Y-112533608D01*
X183065892Y-112499500D01*
X182934108Y-112499500D01*
X182806812Y-112533608D01*
X182692686Y-112599500D01*
X182692683Y-112599502D01*
X182599502Y-112692683D01*
X182599500Y-112692686D01*
X182533608Y-112806812D01*
X182499500Y-112934108D01*
X152500500Y-112934108D01*
X152500500Y-112434108D01*
X189499500Y-112434108D01*
X189499500Y-112565891D01*
X189533608Y-112693187D01*
X189566554Y-112750250D01*
X189599500Y-112807314D01*
X189692686Y-112900500D01*
X189806814Y-112966392D01*
X189934108Y-113000500D01*
X189934110Y-113000500D01*
X190065890Y-113000500D01*
X190065892Y-113000500D01*
X190193186Y-112966392D01*
X190307314Y-112900500D01*
X190400500Y-112807314D01*
X190466392Y-112693186D01*
X190500500Y-112565892D01*
X190500500Y-112434108D01*
X190466392Y-112306814D01*
X190466390Y-112306811D01*
X190466391Y-112306811D01*
X190438849Y-112259108D01*
X204674500Y-112259108D01*
X204674500Y-112390891D01*
X204708608Y-112518187D01*
X204736151Y-112565892D01*
X204774500Y-112632314D01*
X204867686Y-112725500D01*
X204981814Y-112791392D01*
X205109108Y-112825500D01*
X205109110Y-112825500D01*
X205240890Y-112825500D01*
X205240892Y-112825500D01*
X205368186Y-112791392D01*
X205482314Y-112725500D01*
X205575500Y-112632314D01*
X205641392Y-112518186D01*
X205675500Y-112390892D01*
X205675500Y-112259108D01*
X205641392Y-112131814D01*
X205575500Y-112017686D01*
X205482314Y-111924500D01*
X205425250Y-111891554D01*
X205368187Y-111858608D01*
X205304539Y-111841554D01*
X205240892Y-111824500D01*
X205109108Y-111824500D01*
X204981812Y-111858608D01*
X204867686Y-111924500D01*
X204867683Y-111924502D01*
X204774502Y-112017683D01*
X204774500Y-112017686D01*
X204708608Y-112131812D01*
X204674500Y-112259108D01*
X190438849Y-112259108D01*
X190400502Y-112192689D01*
X190400497Y-112192683D01*
X190307316Y-112099502D01*
X190307314Y-112099500D01*
X190250250Y-112066554D01*
X190193187Y-112033608D01*
X190129539Y-112016554D01*
X190065892Y-111999500D01*
X189934108Y-111999500D01*
X189806812Y-112033608D01*
X189692686Y-112099500D01*
X189692683Y-112099502D01*
X189599502Y-112192683D01*
X189599500Y-112192686D01*
X189533608Y-112306812D01*
X189499500Y-112434108D01*
X152500500Y-112434108D01*
X152500500Y-111434108D01*
X174499500Y-111434108D01*
X174499500Y-111565892D01*
X174516554Y-111629539D01*
X174533608Y-111693187D01*
X174566554Y-111750250D01*
X174599500Y-111807314D01*
X174692686Y-111900500D01*
X174806814Y-111966392D01*
X174934108Y-112000500D01*
X174934110Y-112000500D01*
X175065890Y-112000500D01*
X175065892Y-112000500D01*
X175193186Y-111966392D01*
X175307314Y-111900500D01*
X175400500Y-111807314D01*
X175466392Y-111693186D01*
X175500500Y-111565892D01*
X175500500Y-111434108D01*
X175466392Y-111306814D01*
X175400500Y-111192686D01*
X175307314Y-111099500D01*
X175249100Y-111065890D01*
X175193187Y-111033608D01*
X175129539Y-111016554D01*
X175065892Y-110999500D01*
X174934108Y-110999500D01*
X174806812Y-111033608D01*
X174692686Y-111099500D01*
X174692683Y-111099502D01*
X174599502Y-111192683D01*
X174599500Y-111192686D01*
X174533608Y-111306812D01*
X174533473Y-111307316D01*
X174499500Y-111434108D01*
X152500500Y-111434108D01*
X152500500Y-110684108D01*
X177749500Y-110684108D01*
X177749500Y-110815891D01*
X177783608Y-110943187D01*
X177797005Y-110966391D01*
X177849500Y-111057314D01*
X177942686Y-111150500D01*
X178056814Y-111216392D01*
X178184108Y-111250500D01*
X178184110Y-111250500D01*
X178315890Y-111250500D01*
X178315892Y-111250500D01*
X178443186Y-111216392D01*
X178557314Y-111150500D01*
X178650500Y-111057314D01*
X178716392Y-110943186D01*
X178718824Y-110934108D01*
X178999500Y-110934108D01*
X178999500Y-111065892D01*
X179008505Y-111099500D01*
X179033608Y-111193187D01*
X179066121Y-111249500D01*
X179099500Y-111307314D01*
X179192686Y-111400500D01*
X179306814Y-111466392D01*
X179434108Y-111500500D01*
X179434110Y-111500500D01*
X179565890Y-111500500D01*
X179565892Y-111500500D01*
X179693186Y-111466392D01*
X179807314Y-111400500D01*
X179900500Y-111307314D01*
X179966392Y-111193186D01*
X180000500Y-111065892D01*
X180000500Y-110934108D01*
X180499500Y-110934108D01*
X180499500Y-111065892D01*
X180508505Y-111099500D01*
X180533608Y-111193187D01*
X180566121Y-111249500D01*
X180599500Y-111307314D01*
X180692686Y-111400500D01*
X180806814Y-111466392D01*
X180934108Y-111500500D01*
X180934110Y-111500500D01*
X181065890Y-111500500D01*
X181065892Y-111500500D01*
X181109251Y-111488882D01*
X181179097Y-111490543D01*
X181236961Y-111529705D01*
X181264466Y-111593933D01*
X181261118Y-111640748D01*
X181249500Y-111684108D01*
X181249500Y-111815892D01*
X181260946Y-111858608D01*
X181283608Y-111943187D01*
X181287467Y-111949870D01*
X181349500Y-112057314D01*
X181442686Y-112150500D01*
X181556814Y-112216392D01*
X181684108Y-112250500D01*
X181684110Y-112250500D01*
X181815890Y-112250500D01*
X181815892Y-112250500D01*
X181943186Y-112216392D01*
X182057314Y-112150500D01*
X182150500Y-112057314D01*
X182216392Y-111943186D01*
X182250500Y-111815892D01*
X182250500Y-111684108D01*
X182216392Y-111556814D01*
X182150500Y-111442686D01*
X182057314Y-111349500D01*
X182000250Y-111316554D01*
X181943187Y-111283608D01*
X181853045Y-111259455D01*
X181815892Y-111249500D01*
X181684108Y-111249500D01*
X181640749Y-111261118D01*
X181570899Y-111259455D01*
X181513037Y-111220292D01*
X181485533Y-111156063D01*
X181488881Y-111109252D01*
X181500500Y-111065892D01*
X181500500Y-110934108D01*
X181466392Y-110806814D01*
X181400500Y-110692686D01*
X181307314Y-110599500D01*
X181193186Y-110533608D01*
X181065892Y-110499500D01*
X180934108Y-110499500D01*
X180806812Y-110533608D01*
X180692686Y-110599500D01*
X180692683Y-110599502D01*
X180599502Y-110692683D01*
X180599500Y-110692686D01*
X180533608Y-110806812D01*
X180510277Y-110893886D01*
X180499500Y-110934108D01*
X180000500Y-110934108D01*
X179966392Y-110806814D01*
X179900500Y-110692686D01*
X179807314Y-110599500D01*
X179733380Y-110556814D01*
X179693187Y-110533608D01*
X179629539Y-110516554D01*
X179565892Y-110499500D01*
X179434108Y-110499500D01*
X179306812Y-110533608D01*
X179192686Y-110599500D01*
X179192683Y-110599502D01*
X179099502Y-110692683D01*
X179099500Y-110692686D01*
X179033608Y-110806812D01*
X179010277Y-110893886D01*
X178999500Y-110934108D01*
X178718824Y-110934108D01*
X178750500Y-110815892D01*
X178750500Y-110684108D01*
X178716392Y-110556814D01*
X178650500Y-110442686D01*
X178641922Y-110434108D01*
X190749500Y-110434108D01*
X190749500Y-110565891D01*
X190783608Y-110693187D01*
X190816554Y-110750250D01*
X190849500Y-110807314D01*
X190942686Y-110900500D01*
X191056814Y-110966392D01*
X191184108Y-111000500D01*
X191184110Y-111000500D01*
X191315890Y-111000500D01*
X191315892Y-111000500D01*
X191443186Y-110966392D01*
X191557314Y-110900500D01*
X191650500Y-110807314D01*
X191716392Y-110693186D01*
X191750500Y-110565892D01*
X191750500Y-110434108D01*
X191716392Y-110306814D01*
X191650500Y-110192686D01*
X191557314Y-110099500D01*
X191500250Y-110066554D01*
X191443187Y-110033608D01*
X191379539Y-110016554D01*
X191315892Y-109999500D01*
X191184108Y-109999500D01*
X191056812Y-110033608D01*
X190942686Y-110099500D01*
X190942683Y-110099502D01*
X190849502Y-110192683D01*
X190849500Y-110192686D01*
X190783608Y-110306812D01*
X190749500Y-110434108D01*
X178641922Y-110434108D01*
X178557314Y-110349500D01*
X178483380Y-110306814D01*
X178443187Y-110283608D01*
X178379539Y-110266554D01*
X178315892Y-110249500D01*
X178184108Y-110249500D01*
X178056812Y-110283608D01*
X177942686Y-110349500D01*
X177942683Y-110349502D01*
X177849502Y-110442683D01*
X177849500Y-110442686D01*
X177783608Y-110556812D01*
X177749500Y-110684108D01*
X152500500Y-110684108D01*
X152500500Y-107934108D01*
X185999500Y-107934108D01*
X185999500Y-108065891D01*
X186033608Y-108193187D01*
X186066554Y-108250250D01*
X186099500Y-108307314D01*
X186192686Y-108400500D01*
X186306814Y-108466392D01*
X186434108Y-108500500D01*
X186434110Y-108500500D01*
X186565890Y-108500500D01*
X186565892Y-108500500D01*
X186693186Y-108466392D01*
X186807314Y-108400500D01*
X186900500Y-108307314D01*
X186966392Y-108193186D01*
X187000500Y-108065892D01*
X187000500Y-107934108D01*
X186995049Y-107913766D01*
X211624500Y-107913766D01*
X211624500Y-108086233D01*
X211658143Y-108255366D01*
X211658146Y-108255378D01*
X211724138Y-108414698D01*
X211724145Y-108414711D01*
X211819954Y-108558098D01*
X211819957Y-108558102D01*
X211941897Y-108680042D01*
X211941901Y-108680045D01*
X212085288Y-108775854D01*
X212085301Y-108775861D01*
X212244621Y-108841853D01*
X212244626Y-108841855D01*
X212413766Y-108875499D01*
X212413769Y-108875500D01*
X212413771Y-108875500D01*
X212586231Y-108875500D01*
X212586232Y-108875499D01*
X212755374Y-108841855D01*
X212914705Y-108775858D01*
X213058099Y-108680045D01*
X213180045Y-108558099D01*
X213275858Y-108414705D01*
X213341855Y-108255374D01*
X213375500Y-108086229D01*
X213375500Y-107913771D01*
X213375500Y-107913768D01*
X213375499Y-107913766D01*
X213354225Y-107806814D01*
X213341855Y-107744626D01*
X213281742Y-107599500D01*
X213275861Y-107585301D01*
X213275854Y-107585288D01*
X213180045Y-107441901D01*
X213180042Y-107441897D01*
X213058102Y-107319957D01*
X213058098Y-107319954D01*
X213036088Y-107305247D01*
X213624500Y-107305247D01*
X213624500Y-108694752D01*
X213636131Y-108753229D01*
X213636132Y-108753230D01*
X213680447Y-108819552D01*
X213746769Y-108863867D01*
X213746770Y-108863868D01*
X213805247Y-108875499D01*
X213805250Y-108875500D01*
X213805252Y-108875500D01*
X215194750Y-108875500D01*
X215194751Y-108875499D01*
X215209568Y-108872552D01*
X215253229Y-108863868D01*
X215253229Y-108863867D01*
X215253231Y-108863867D01*
X215319552Y-108819552D01*
X215363867Y-108753231D01*
X215363867Y-108753229D01*
X215363868Y-108753229D01*
X215375499Y-108694752D01*
X215375500Y-108694750D01*
X215375500Y-107305249D01*
X215375499Y-107305247D01*
X215363868Y-107246770D01*
X215363867Y-107246769D01*
X215319552Y-107180447D01*
X215253230Y-107136132D01*
X215253229Y-107136131D01*
X215194752Y-107124500D01*
X215194748Y-107124500D01*
X213805252Y-107124500D01*
X213805247Y-107124500D01*
X213746770Y-107136131D01*
X213746769Y-107136132D01*
X213680447Y-107180447D01*
X213636132Y-107246769D01*
X213636131Y-107246770D01*
X213624500Y-107305247D01*
X213036088Y-107305247D01*
X212914711Y-107224145D01*
X212914698Y-107224138D01*
X212755378Y-107158146D01*
X212755366Y-107158143D01*
X212586232Y-107124500D01*
X212586229Y-107124500D01*
X212413771Y-107124500D01*
X212413768Y-107124500D01*
X212244633Y-107158143D01*
X212244621Y-107158146D01*
X212085301Y-107224138D01*
X212085288Y-107224145D01*
X211941901Y-107319954D01*
X211941897Y-107319957D01*
X211819957Y-107441897D01*
X211819954Y-107441901D01*
X211724145Y-107585288D01*
X211724138Y-107585301D01*
X211658146Y-107744621D01*
X211658143Y-107744633D01*
X211624500Y-107913766D01*
X186995049Y-107913766D01*
X186966392Y-107806814D01*
X186900500Y-107692686D01*
X186807314Y-107599500D01*
X186750250Y-107566554D01*
X186693187Y-107533608D01*
X186629539Y-107516554D01*
X186565892Y-107499500D01*
X186434108Y-107499500D01*
X186306812Y-107533608D01*
X186192686Y-107599500D01*
X186192683Y-107599502D01*
X186099502Y-107692683D01*
X186099500Y-107692686D01*
X186033608Y-107806812D01*
X185999500Y-107934108D01*
X152500500Y-107934108D01*
X152500500Y-105934108D01*
X173999500Y-105934108D01*
X173999500Y-106065891D01*
X174033608Y-106193187D01*
X174066554Y-106250250D01*
X174099500Y-106307314D01*
X174192686Y-106400500D01*
X174306814Y-106466392D01*
X174434108Y-106500500D01*
X174434110Y-106500500D01*
X174565890Y-106500500D01*
X174565892Y-106500500D01*
X174693186Y-106466392D01*
X174807314Y-106400500D01*
X174900500Y-106307314D01*
X174966392Y-106193186D01*
X175000500Y-106065892D01*
X175000500Y-105934108D01*
X184999500Y-105934108D01*
X184999500Y-106065891D01*
X185033608Y-106193187D01*
X185066554Y-106250250D01*
X185099500Y-106307314D01*
X185192686Y-106400500D01*
X185306814Y-106466392D01*
X185434108Y-106500500D01*
X185434110Y-106500500D01*
X185565890Y-106500500D01*
X185565892Y-106500500D01*
X185693186Y-106466392D01*
X185749103Y-106434108D01*
X194499500Y-106434108D01*
X194499500Y-106565891D01*
X194533608Y-106693187D01*
X194566554Y-106750250D01*
X194599500Y-106807314D01*
X194692686Y-106900500D01*
X194806814Y-106966392D01*
X194934108Y-107000500D01*
X194934110Y-107000500D01*
X195065890Y-107000500D01*
X195065892Y-107000500D01*
X195193186Y-106966392D01*
X195307314Y-106900500D01*
X195400500Y-106807314D01*
X195466392Y-106693186D01*
X195500500Y-106565892D01*
X195500500Y-106434108D01*
X199999500Y-106434108D01*
X199999500Y-106565891D01*
X200033608Y-106693187D01*
X200066554Y-106750250D01*
X200099500Y-106807314D01*
X200192686Y-106900500D01*
X200306814Y-106966392D01*
X200434108Y-107000500D01*
X200434110Y-107000500D01*
X200565890Y-107000500D01*
X200565892Y-107000500D01*
X200693186Y-106966392D01*
X200807314Y-106900500D01*
X200900500Y-106807314D01*
X200966392Y-106693186D01*
X201000500Y-106565892D01*
X201000500Y-106434108D01*
X200966392Y-106306814D01*
X200900500Y-106192686D01*
X200807314Y-106099500D01*
X200749100Y-106065890D01*
X200693187Y-106033608D01*
X200629539Y-106016554D01*
X200565892Y-105999500D01*
X200434108Y-105999500D01*
X200306812Y-106033608D01*
X200192686Y-106099500D01*
X200192683Y-106099502D01*
X200099502Y-106192683D01*
X200099500Y-106192686D01*
X200033608Y-106306812D01*
X199999500Y-106434108D01*
X195500500Y-106434108D01*
X195466392Y-106306814D01*
X195400500Y-106192686D01*
X195307314Y-106099500D01*
X195249100Y-106065890D01*
X195193187Y-106033608D01*
X195129539Y-106016554D01*
X195065892Y-105999500D01*
X194934108Y-105999500D01*
X194806812Y-106033608D01*
X194692686Y-106099500D01*
X194692683Y-106099502D01*
X194599502Y-106192683D01*
X194599500Y-106192686D01*
X194533608Y-106306812D01*
X194499500Y-106434108D01*
X185749103Y-106434108D01*
X185807314Y-106400500D01*
X185900500Y-106307314D01*
X185966392Y-106193186D01*
X186000500Y-106065892D01*
X186000500Y-105934108D01*
X185966392Y-105806814D01*
X185900500Y-105692686D01*
X185807314Y-105599500D01*
X185750250Y-105566554D01*
X185693187Y-105533608D01*
X185629539Y-105516554D01*
X185565892Y-105499500D01*
X185434108Y-105499500D01*
X185306812Y-105533608D01*
X185192686Y-105599500D01*
X185192683Y-105599502D01*
X185099502Y-105692683D01*
X185099500Y-105692686D01*
X185033608Y-105806812D01*
X184999500Y-105934108D01*
X175000500Y-105934108D01*
X174966392Y-105806814D01*
X174900500Y-105692686D01*
X174807314Y-105599500D01*
X174750250Y-105566554D01*
X174693187Y-105533608D01*
X174629539Y-105516554D01*
X174565892Y-105499500D01*
X174434108Y-105499500D01*
X174306812Y-105533608D01*
X174192686Y-105599500D01*
X174192683Y-105599502D01*
X174099502Y-105692683D01*
X174099500Y-105692686D01*
X174033608Y-105806812D01*
X173999500Y-105934108D01*
X152500500Y-105934108D01*
X152500500Y-103502706D01*
X152500618Y-103497298D01*
X152501407Y-103479234D01*
X152505141Y-103393713D01*
X155649500Y-103393713D01*
X155649500Y-103606286D01*
X155681339Y-103807314D01*
X155682754Y-103816243D01*
X155747501Y-104015514D01*
X155748444Y-104018414D01*
X155844951Y-104207820D01*
X155969890Y-104379786D01*
X156120213Y-104530109D01*
X156292179Y-104655048D01*
X156292181Y-104655049D01*
X156292184Y-104655051D01*
X156481588Y-104751557D01*
X156683757Y-104817246D01*
X156893713Y-104850500D01*
X156893714Y-104850500D01*
X157106286Y-104850500D01*
X157106287Y-104850500D01*
X157316243Y-104817246D01*
X157518412Y-104751557D01*
X157707816Y-104655051D01*
X157729789Y-104639086D01*
X157879786Y-104530109D01*
X157879788Y-104530106D01*
X157879792Y-104530104D01*
X158030104Y-104379792D01*
X158076278Y-104316239D01*
X158152918Y-104210753D01*
X158155049Y-104207819D01*
X158194445Y-104130500D01*
X158251557Y-104018412D01*
X158317246Y-103816243D01*
X158350500Y-103606287D01*
X158350500Y-103436504D01*
X192430000Y-103436504D01*
X192430000Y-103835000D01*
X193130000Y-103835000D01*
X193130000Y-104335000D01*
X192430000Y-104335000D01*
X192430000Y-104733495D01*
X192468427Y-104926681D01*
X192468430Y-104926693D01*
X192543807Y-105108671D01*
X192543814Y-105108684D01*
X192653248Y-105272462D01*
X192653251Y-105272466D01*
X192792533Y-105411748D01*
X192792537Y-105411751D01*
X192956315Y-105521185D01*
X192956328Y-105521192D01*
X193138308Y-105596569D01*
X193180000Y-105604862D01*
X193180000Y-104801988D01*
X193189940Y-104819205D01*
X193245795Y-104875060D01*
X193314204Y-104914556D01*
X193390504Y-104935000D01*
X193469496Y-104935000D01*
X193545796Y-104914556D01*
X193614205Y-104875060D01*
X193670060Y-104819205D01*
X193680000Y-104801988D01*
X193680000Y-105604862D01*
X193721690Y-105596569D01*
X193721692Y-105596569D01*
X193903671Y-105521192D01*
X193903684Y-105521185D01*
X194067462Y-105411751D01*
X194067466Y-105411748D01*
X194206748Y-105272466D01*
X194206751Y-105272462D01*
X194316185Y-105108684D01*
X194316192Y-105108671D01*
X194391569Y-104926693D01*
X194391572Y-104926681D01*
X194429999Y-104733495D01*
X194430000Y-104733492D01*
X194430000Y-104335000D01*
X193730000Y-104335000D01*
X193730000Y-103835000D01*
X194285536Y-103835000D01*
X194352575Y-103854685D01*
X194392923Y-103897000D01*
X194399482Y-103908361D01*
X194399484Y-103908364D01*
X194399485Y-103908365D01*
X194506635Y-104015515D01*
X194637865Y-104091281D01*
X194784234Y-104130500D01*
X194784236Y-104130500D01*
X194935764Y-104130500D01*
X194935766Y-104130500D01*
X195082135Y-104091281D01*
X195213365Y-104015515D01*
X195320515Y-103908365D01*
X195396281Y-103777135D01*
X195435500Y-103630766D01*
X195435500Y-103479234D01*
X195423409Y-103434108D01*
X195999500Y-103434108D01*
X195999500Y-103565892D01*
X196010324Y-103606287D01*
X196033608Y-103693187D01*
X196047005Y-103716391D01*
X196099500Y-103807314D01*
X196192686Y-103900500D01*
X196306814Y-103966392D01*
X196434108Y-104000500D01*
X196434110Y-104000500D01*
X196565890Y-104000500D01*
X196565892Y-104000500D01*
X196693186Y-103966392D01*
X196807314Y-103900500D01*
X196900500Y-103807314D01*
X196966392Y-103693186D01*
X196967646Y-103688504D01*
X197004010Y-103628844D01*
X197066856Y-103598314D01*
X197136232Y-103606608D01*
X197175102Y-103632916D01*
X197192686Y-103650500D01*
X197306814Y-103716392D01*
X197434108Y-103750500D01*
X197434110Y-103750500D01*
X197565890Y-103750500D01*
X197565892Y-103750500D01*
X197693186Y-103716392D01*
X197807314Y-103650500D01*
X197900500Y-103557314D01*
X197945580Y-103479234D01*
X200064500Y-103479234D01*
X200064500Y-103630766D01*
X200084109Y-103703950D01*
X200103719Y-103777136D01*
X200141602Y-103842750D01*
X200179485Y-103908365D01*
X200286635Y-104015515D01*
X200417865Y-104091281D01*
X200564234Y-104130500D01*
X200564236Y-104130500D01*
X200715764Y-104130500D01*
X200715766Y-104130500D01*
X200862135Y-104091281D01*
X200993365Y-104015515D01*
X201100515Y-103908365D01*
X201105056Y-103900500D01*
X201107077Y-103897000D01*
X201157644Y-103848784D01*
X201214464Y-103835000D01*
X201770000Y-103835000D01*
X201770000Y-104335000D01*
X201070000Y-104335000D01*
X201070000Y-104733495D01*
X201108427Y-104926681D01*
X201108430Y-104926693D01*
X201183807Y-105108671D01*
X201183814Y-105108684D01*
X201293248Y-105272462D01*
X201293251Y-105272466D01*
X201432533Y-105411748D01*
X201432537Y-105411751D01*
X201596315Y-105521185D01*
X201596328Y-105521192D01*
X201778308Y-105596569D01*
X201820000Y-105604862D01*
X201820000Y-104801988D01*
X201829940Y-104819205D01*
X201885795Y-104875060D01*
X201954204Y-104914556D01*
X202030504Y-104935000D01*
X202109496Y-104935000D01*
X202185796Y-104914556D01*
X202254205Y-104875060D01*
X202310060Y-104819205D01*
X202320000Y-104801988D01*
X202320000Y-105604862D01*
X202361690Y-105596569D01*
X202361692Y-105596569D01*
X202543671Y-105521192D01*
X202543684Y-105521185D01*
X202707462Y-105411751D01*
X202707466Y-105411748D01*
X202846748Y-105272466D01*
X202846751Y-105272462D01*
X202956185Y-105108684D01*
X202956192Y-105108671D01*
X203031569Y-104926693D01*
X203031572Y-104926681D01*
X203069999Y-104733495D01*
X203070000Y-104733492D01*
X203070000Y-104335000D01*
X202370000Y-104335000D01*
X202370000Y-103893713D01*
X210649500Y-103893713D01*
X210649500Y-104106287D01*
X210682754Y-104316243D01*
X210703402Y-104379792D01*
X210748444Y-104518414D01*
X210844951Y-104707820D01*
X210969890Y-104879786D01*
X211120213Y-105030109D01*
X211292179Y-105155048D01*
X211292181Y-105155049D01*
X211292184Y-105155051D01*
X211481588Y-105251557D01*
X211683757Y-105317246D01*
X211893713Y-105350500D01*
X211893714Y-105350500D01*
X212106286Y-105350500D01*
X212106287Y-105350500D01*
X212316243Y-105317246D01*
X212518412Y-105251557D01*
X212707816Y-105155051D01*
X212771653Y-105108671D01*
X212879786Y-105030109D01*
X212879788Y-105030106D01*
X212879792Y-105030104D01*
X213030104Y-104879792D01*
X213030106Y-104879788D01*
X213030109Y-104879786D01*
X213155048Y-104707820D01*
X213155047Y-104707820D01*
X213155051Y-104707816D01*
X213251557Y-104518412D01*
X213317246Y-104316243D01*
X213350500Y-104106287D01*
X213350500Y-103893713D01*
X213317246Y-103683757D01*
X213251557Y-103481588D01*
X213155051Y-103292184D01*
X213155049Y-103292181D01*
X213155048Y-103292179D01*
X213030109Y-103120213D01*
X212879786Y-102969890D01*
X212707820Y-102844951D01*
X212518414Y-102748444D01*
X212518413Y-102748443D01*
X212518412Y-102748443D01*
X212316243Y-102682754D01*
X212316241Y-102682753D01*
X212316240Y-102682753D01*
X212154957Y-102657208D01*
X212106287Y-102649500D01*
X211893713Y-102649500D01*
X211845042Y-102657208D01*
X211683760Y-102682753D01*
X211481585Y-102748444D01*
X211292179Y-102844951D01*
X211120213Y-102969890D01*
X210969890Y-103120213D01*
X210844951Y-103292179D01*
X210748444Y-103481585D01*
X210748443Y-103481587D01*
X210748443Y-103481588D01*
X210742461Y-103500000D01*
X210682753Y-103683760D01*
X210663184Y-103807314D01*
X210649500Y-103893713D01*
X202370000Y-103893713D01*
X202370000Y-103835000D01*
X203070000Y-103835000D01*
X203070000Y-103436508D01*
X203069999Y-103436504D01*
X203031572Y-103243318D01*
X203031569Y-103243306D01*
X202956192Y-103061328D01*
X202956185Y-103061315D01*
X202846751Y-102897537D01*
X202846748Y-102897533D01*
X202707466Y-102758251D01*
X202707462Y-102758248D01*
X202543684Y-102648814D01*
X202543671Y-102648807D01*
X202361691Y-102573429D01*
X202361683Y-102573427D01*
X202320000Y-102565135D01*
X202320000Y-103368011D01*
X202310060Y-103350795D01*
X202254205Y-103294940D01*
X202185796Y-103255444D01*
X202109496Y-103235000D01*
X202030504Y-103235000D01*
X201954204Y-103255444D01*
X201885795Y-103294940D01*
X201829940Y-103350795D01*
X201820000Y-103368011D01*
X201820000Y-102565136D01*
X201819999Y-102565135D01*
X201778316Y-102573427D01*
X201778308Y-102573429D01*
X201596328Y-102648807D01*
X201596315Y-102648814D01*
X201432537Y-102758248D01*
X201432533Y-102758251D01*
X201293248Y-102897536D01*
X201180427Y-103066387D01*
X201179003Y-103065435D01*
X201135742Y-103109451D01*
X201067600Y-103124892D01*
X201001927Y-103101041D01*
X200999907Y-103099306D01*
X200999811Y-103099432D01*
X200993367Y-103094487D01*
X200993365Y-103094485D01*
X200927750Y-103056602D01*
X200862136Y-103018719D01*
X200788950Y-102999109D01*
X200715766Y-102979500D01*
X200564234Y-102979500D01*
X200417863Y-103018719D01*
X200286635Y-103094485D01*
X200286632Y-103094487D01*
X200179487Y-103201632D01*
X200179485Y-103201635D01*
X200103719Y-103332863D01*
X200087415Y-103393713D01*
X200064500Y-103479234D01*
X197945580Y-103479234D01*
X197966392Y-103443186D01*
X198000500Y-103315892D01*
X198000500Y-103184108D01*
X197966392Y-103056814D01*
X197900500Y-102942686D01*
X197807314Y-102849500D01*
X197750250Y-102816554D01*
X197693187Y-102783608D01*
X197598540Y-102758248D01*
X197565892Y-102749500D01*
X197434108Y-102749500D01*
X197306812Y-102783608D01*
X197192686Y-102849500D01*
X197192683Y-102849502D01*
X197099502Y-102942683D01*
X197099500Y-102942686D01*
X197033607Y-103056814D01*
X197033606Y-103056817D01*
X197032350Y-103061505D01*
X196995981Y-103121163D01*
X196933131Y-103151687D01*
X196863756Y-103143386D01*
X196824897Y-103117083D01*
X196807316Y-103099502D01*
X196807314Y-103099500D01*
X196733380Y-103056814D01*
X196693187Y-103033608D01*
X196629539Y-103016554D01*
X196565892Y-102999500D01*
X196434108Y-102999500D01*
X196306812Y-103033608D01*
X196192686Y-103099500D01*
X196192683Y-103099502D01*
X196099502Y-103192683D01*
X196099500Y-103192686D01*
X196033608Y-103306812D01*
X196021823Y-103350795D01*
X195999500Y-103434108D01*
X195423409Y-103434108D01*
X195396281Y-103332865D01*
X195320515Y-103201635D01*
X195213365Y-103094485D01*
X195147750Y-103056602D01*
X195082136Y-103018719D01*
X195008950Y-102999109D01*
X194935766Y-102979500D01*
X194784234Y-102979500D01*
X194637863Y-103018719D01*
X194506635Y-103094485D01*
X194500189Y-103099432D01*
X194498099Y-103096709D01*
X194450217Y-103122466D01*
X194380558Y-103117043D01*
X194324888Y-103074821D01*
X194319299Y-103065976D01*
X194206751Y-102897537D01*
X194206748Y-102897533D01*
X194067466Y-102758251D01*
X194067462Y-102758248D01*
X193903684Y-102648814D01*
X193903671Y-102648807D01*
X193721691Y-102573429D01*
X193721683Y-102573427D01*
X193680000Y-102565135D01*
X193680000Y-103368011D01*
X193670060Y-103350795D01*
X193614205Y-103294940D01*
X193545796Y-103255444D01*
X193469496Y-103235000D01*
X193390504Y-103235000D01*
X193314204Y-103255444D01*
X193245795Y-103294940D01*
X193189940Y-103350795D01*
X193180000Y-103368011D01*
X193180000Y-102565136D01*
X193179999Y-102565135D01*
X193138316Y-102573427D01*
X193138308Y-102573429D01*
X192956328Y-102648807D01*
X192956315Y-102648814D01*
X192792537Y-102758248D01*
X192792533Y-102758251D01*
X192653251Y-102897533D01*
X192653248Y-102897537D01*
X192543814Y-103061315D01*
X192543807Y-103061328D01*
X192468430Y-103243306D01*
X192468427Y-103243318D01*
X192430000Y-103436504D01*
X158350500Y-103436504D01*
X158350500Y-103393713D01*
X158317246Y-103183757D01*
X158251557Y-102981588D01*
X158155051Y-102792184D01*
X158155049Y-102792181D01*
X158155048Y-102792179D01*
X158030109Y-102620213D01*
X157879786Y-102469890D01*
X157707819Y-102344951D01*
X157707818Y-102344950D01*
X157707816Y-102344949D01*
X157635259Y-102307979D01*
X157593037Y-102286466D01*
X157518414Y-102248444D01*
X157518413Y-102248443D01*
X157518412Y-102248443D01*
X157320410Y-102184108D01*
X180249500Y-102184108D01*
X180249500Y-102315892D01*
X180257286Y-102344949D01*
X180283608Y-102443187D01*
X180299029Y-102469896D01*
X180349500Y-102557314D01*
X180442686Y-102650500D01*
X180541521Y-102707563D01*
X180551612Y-102713389D01*
X180556814Y-102716392D01*
X180684108Y-102750500D01*
X180684110Y-102750500D01*
X180815890Y-102750500D01*
X180815892Y-102750500D01*
X180943186Y-102716392D01*
X181057314Y-102650500D01*
X181150500Y-102557314D01*
X181216392Y-102443186D01*
X181250500Y-102315892D01*
X181250500Y-102184108D01*
X181216392Y-102056814D01*
X181150500Y-101942686D01*
X181057314Y-101849500D01*
X181000250Y-101816554D01*
X180943187Y-101783608D01*
X180879539Y-101766554D01*
X180815892Y-101749500D01*
X180684108Y-101749500D01*
X180556812Y-101783608D01*
X180442686Y-101849500D01*
X180442683Y-101849502D01*
X180349502Y-101942683D01*
X180349500Y-101942686D01*
X180283608Y-102056812D01*
X180258773Y-102149500D01*
X180249500Y-102184108D01*
X157320410Y-102184108D01*
X157316243Y-102182754D01*
X157316241Y-102182753D01*
X157316240Y-102182753D01*
X157154957Y-102157208D01*
X157106287Y-102149500D01*
X156893713Y-102149500D01*
X156845042Y-102157208D01*
X156683760Y-102182753D01*
X156481585Y-102248444D01*
X156292179Y-102344951D01*
X156120213Y-102469890D01*
X155969890Y-102620213D01*
X155844951Y-102792179D01*
X155748444Y-102981585D01*
X155682753Y-103183760D01*
X155649500Y-103393713D01*
X152505141Y-103393713D01*
X152517386Y-103113226D01*
X152518326Y-103102495D01*
X152568152Y-102724025D01*
X152570025Y-102713405D01*
X152652649Y-102340709D01*
X152655440Y-102330295D01*
X152770230Y-101966227D01*
X152773917Y-101956095D01*
X152920003Y-101603412D01*
X152924561Y-101593638D01*
X152981579Y-101484108D01*
X168499500Y-101484108D01*
X168499500Y-101615892D01*
X168516554Y-101679539D01*
X168533608Y-101743187D01*
X168537253Y-101749500D01*
X168599500Y-101857314D01*
X168692686Y-101950500D01*
X168806814Y-102016392D01*
X168934108Y-102050500D01*
X168934110Y-102050500D01*
X169065890Y-102050500D01*
X169065892Y-102050500D01*
X169193186Y-102016392D01*
X169307314Y-101950500D01*
X169400500Y-101857314D01*
X169466392Y-101743186D01*
X169500500Y-101615892D01*
X169500500Y-101484108D01*
X169466392Y-101356814D01*
X169400500Y-101242686D01*
X169307314Y-101149500D01*
X169250250Y-101116554D01*
X169193187Y-101083608D01*
X169126598Y-101065766D01*
X169065892Y-101049500D01*
X168934108Y-101049500D01*
X168806812Y-101083608D01*
X168692686Y-101149500D01*
X168692683Y-101149502D01*
X168599502Y-101242683D01*
X168599500Y-101242686D01*
X168533608Y-101356812D01*
X168521902Y-101400500D01*
X168499500Y-101484108D01*
X152981579Y-101484108D01*
X153100822Y-101255045D01*
X153106217Y-101245700D01*
X153311325Y-100923744D01*
X153317515Y-100914905D01*
X153494612Y-100684108D01*
X165249500Y-100684108D01*
X165249500Y-100815892D01*
X165266554Y-100879539D01*
X165283608Y-100943187D01*
X165316121Y-100999500D01*
X165349500Y-101057314D01*
X165442686Y-101150500D01*
X165556814Y-101216392D01*
X165684108Y-101250500D01*
X165684110Y-101250500D01*
X165815890Y-101250500D01*
X165815892Y-101250500D01*
X165943186Y-101216392D01*
X166057314Y-101150500D01*
X166150500Y-101057314D01*
X166216392Y-100943186D01*
X166218824Y-100934108D01*
X190999500Y-100934108D01*
X190999500Y-101065891D01*
X191033608Y-101193187D01*
X191047005Y-101216391D01*
X191099500Y-101307314D01*
X191192686Y-101400500D01*
X191306814Y-101466392D01*
X191434108Y-101500500D01*
X191434110Y-101500500D01*
X191565890Y-101500500D01*
X191565892Y-101500500D01*
X191693186Y-101466392D01*
X191749103Y-101434108D01*
X207499500Y-101434108D01*
X207499500Y-101565892D01*
X207508218Y-101598429D01*
X207533608Y-101693187D01*
X207562476Y-101743186D01*
X207599500Y-101807314D01*
X207692686Y-101900500D01*
X207788950Y-101956078D01*
X207806557Y-101966244D01*
X207806814Y-101966392D01*
X207934108Y-102000500D01*
X207934110Y-102000500D01*
X208065890Y-102000500D01*
X208065892Y-102000500D01*
X208193186Y-101966392D01*
X208307314Y-101900500D01*
X208400500Y-101807314D01*
X208466392Y-101693186D01*
X208500500Y-101565892D01*
X208500500Y-101434108D01*
X208466392Y-101306814D01*
X208400500Y-101192686D01*
X208307314Y-101099500D01*
X208248885Y-101065766D01*
X208193187Y-101033608D01*
X208129539Y-101016554D01*
X208065892Y-100999500D01*
X207934108Y-100999500D01*
X207806812Y-101033608D01*
X207692686Y-101099500D01*
X207692683Y-101099502D01*
X207599502Y-101192683D01*
X207599500Y-101192686D01*
X207533608Y-101306812D01*
X207508506Y-101400497D01*
X207499500Y-101434108D01*
X191749103Y-101434108D01*
X191807314Y-101400500D01*
X191900500Y-101307314D01*
X191966392Y-101193186D01*
X192000500Y-101065892D01*
X192000500Y-100934108D01*
X191966392Y-100806814D01*
X191900500Y-100692686D01*
X191807314Y-100599500D01*
X191733380Y-100556814D01*
X191693187Y-100533608D01*
X191586418Y-100505000D01*
X191565892Y-100499500D01*
X191434108Y-100499500D01*
X191306812Y-100533608D01*
X191192686Y-100599500D01*
X191192683Y-100599502D01*
X191099502Y-100692683D01*
X191099500Y-100692686D01*
X191033608Y-100806812D01*
X190999500Y-100934108D01*
X166218824Y-100934108D01*
X166250500Y-100815892D01*
X166250500Y-100684108D01*
X166216392Y-100556814D01*
X166150500Y-100442686D01*
X166057314Y-100349500D01*
X165997065Y-100314715D01*
X165943187Y-100283608D01*
X165879539Y-100266554D01*
X165815892Y-100249500D01*
X165684108Y-100249500D01*
X165556812Y-100283608D01*
X165442686Y-100349500D01*
X165442683Y-100349502D01*
X165349502Y-100442683D01*
X165349500Y-100442686D01*
X165283608Y-100556812D01*
X165267255Y-100617844D01*
X165249500Y-100684108D01*
X153494612Y-100684108D01*
X153549896Y-100612060D01*
X153556826Y-100603800D01*
X153814726Y-100322352D01*
X153822352Y-100314726D01*
X154103791Y-100056834D01*
X154112060Y-100049896D01*
X154262957Y-99934108D01*
X171499500Y-99934108D01*
X171499500Y-100065891D01*
X171533608Y-100193187D01*
X171563232Y-100244496D01*
X171599500Y-100307314D01*
X171692686Y-100400500D01*
X171806814Y-100466392D01*
X171934108Y-100500500D01*
X171934110Y-100500500D01*
X172065890Y-100500500D01*
X172065892Y-100500500D01*
X172193186Y-100466392D01*
X172307314Y-100400500D01*
X172400500Y-100307314D01*
X172466392Y-100193186D01*
X172500500Y-100065892D01*
X172500500Y-99934108D01*
X172466392Y-99806814D01*
X172400500Y-99692686D01*
X172307314Y-99599500D01*
X172248431Y-99565504D01*
X172193187Y-99533608D01*
X172092046Y-99506508D01*
X172065892Y-99499500D01*
X171934108Y-99499500D01*
X171806812Y-99533608D01*
X171692686Y-99599500D01*
X171692683Y-99599502D01*
X171599502Y-99692683D01*
X171599500Y-99692686D01*
X171533608Y-99806812D01*
X171499500Y-99934108D01*
X154262957Y-99934108D01*
X154414900Y-99817518D01*
X154423744Y-99811325D01*
X154745700Y-99606217D01*
X154755045Y-99600822D01*
X155093638Y-99424561D01*
X155103412Y-99420003D01*
X155456095Y-99273917D01*
X155466227Y-99270230D01*
X155830295Y-99155440D01*
X155840709Y-99152649D01*
X156213405Y-99070025D01*
X156224025Y-99068152D01*
X156602495Y-99018326D01*
X156613226Y-99017386D01*
X156997297Y-99000617D01*
X157002706Y-99000500D01*
X157065892Y-99000500D01*
X192412420Y-99000500D01*
X192479459Y-99020185D01*
G37*
%TD.AperFunction*%
%TD*%
M02*
