M48
; DRILL file {KiCad 9.0.1} date 2025-06-29T09:49:00-0500
; FORMAT={-:-/ absolute / metric / decimal}
; #@! TF.CreationDate,2025-06-29T09:49:00-05:00
; #@! TF.GenerationSoftware,Kicad,Pcbnew,9.0.1
; #@! TF.FileFunction,Plated,1,4,PTH
FMAT,2
METRIC
; #@! TA.AperFunction,Plated,PTH,ViaDrill
T1C0.300
; #@! TA.AperFunction,Plated,PTH,ComponentDrill
T2C0.600
; #@! TA.AperFunction,Plated,PTH,ComponentDrill
T3C0.650
; #@! TA.AperFunction,Plated,PTH,ComponentDrill
T4C0.800
; #@! TA.AperFunction,Plated,PTH,ComponentDrill
T5C1.000
%
G90
G05
T1
X154.3Y-108.4
X154.3Y-114.55
X155.75Y-122.5
X157.25Y-121.5
X158.5Y-123.5
X160.5Y-118.75
X160.5Y-125.5
X160.875Y-128.875
X161.0Y-101.0
X163.7Y-125.5
X164.35Y-128.65
X164.45Y-127.1
X165.75Y-100.75
X166.75Y-116.5
X166.8Y-125.5
X167.112Y-104.887
X168.5Y-116.5
X169.0Y-101.55
X169.9Y-125.5
X170.04Y-109.96
X170.5Y-106.0
X170.7Y-127.2
X172.0Y-100.0
X172.75Y-121.25
X173.75Y-120.0
X174.5Y-106.0
X174.95Y-109.95
X175.0Y-111.5
X175.25Y-120.0
X178.25Y-110.75
X178.75Y-100.0
X179.5Y-111.0
X180.75Y-102.25
X181.0Y-111.0
X181.75Y-111.75
X182.5Y-106.5
X183.0Y-111.5
X183.0Y-113.0
X185.5Y-106.0
X185.5Y-120.0
X186.5Y-108.0
X187.0Y-117.5
X187.0Y-119.5
X188.25Y-113.5
X190.0Y-112.5
X191.25Y-110.5
X191.5Y-101.0
X193.575Y-122.325
X193.75Y-121.1
X194.0Y-112.0
X194.25Y-115.5
X194.625Y-121.125
X194.9Y-117.75
X195.0Y-106.5
X195.55Y-115.5
X196.5Y-103.5
X197.5Y-103.25
X197.65Y-126.15
X198.5Y-109.65
X198.55Y-125.45
X198.931Y-124.431
X199.611Y-123.75
X200.5Y-106.5
X201.85Y-117.05
X204.75Y-125.45
X205.175Y-112.325
X207.375Y-124.625
X208.0Y-101.5
X208.0Y-111.0
X209.35Y-117.0
T3
X162.23Y-121.75
X163.5Y-121.75
X164.77Y-121.75
X168.48Y-121.23
X168.48Y-122.5
X169.75Y-121.23
X169.75Y-122.5
X171.02Y-121.23
X171.02Y-122.5
X173.0Y-127.0
X174.27Y-127.0
X175.54Y-127.0
X176.81Y-127.0
X178.08Y-127.0
X179.35Y-127.0
X180.62Y-127.0
X181.89Y-127.0
X183.16Y-127.0
X184.43Y-127.0
X185.7Y-127.0
X186.97Y-127.0
X188.24Y-127.0
X189.51Y-127.0
X190.78Y-127.0
X192.05Y-127.0
X193.32Y-127.0
X194.59Y-127.0
X195.86Y-127.0
T4
X212.5Y-108.0
X214.5Y-108.0
X215.45Y-120.8
X215.45Y-122.8
T5
X180.69Y-122.75
X183.23Y-122.75
X185.77Y-122.75
X188.31Y-122.75
X215.5Y-112.96
X215.5Y-115.5
T2
G00X193.43Y-100.205
M15
G01X193.43Y-99.605
M16
G05
G00X193.43Y-104.635
M15
G01X193.43Y-103.535
M16
G05
G00X202.07Y-100.205
M15
G01X202.07Y-99.605
M16
G05
G00X202.07Y-104.635
M15
G01X202.07Y-103.535
M16
G05
M30
