%TF.GenerationSoftware,KiCad,Pcbnew,9.0.1*%
%TF.CreationDate,2025-06-29T09:49:02-05:00*%
%TF.ProjectId,OM-FlexGrid-Rigid-PCB,4f4d2d46-6c65-4784-9772-69642d526967,rev?*%
%TF.SameCoordinates,Original*%
%TF.FileFunction,Copper,L3,Inr*%
%TF.FilePolarity,Positive*%
%FSLAX46Y46*%
G04 Gerber Fmt 4.6, Leading zero omitted, Abs format (unit mm)*
G04 Created by KiCad (PCBNEW 9.0.1) date 2025-06-29 09:49:02*
%MOMM*%
%LPD*%
G01*
G04 APERTURE LIST*
%TA.AperFunction,ComponentPad*%
%ADD10R,1.350000X1.350000*%
%TD*%
%TA.AperFunction,ComponentPad*%
%ADD11C,1.350000*%
%TD*%
%TA.AperFunction,ComponentPad*%
%ADD12R,1.000000X1.000000*%
%TD*%
%TA.AperFunction,ComponentPad*%
%ADD13C,1.000000*%
%TD*%
%TA.AperFunction,ComponentPad*%
%ADD14R,1.700000X1.700000*%
%TD*%
%TA.AperFunction,ComponentPad*%
%ADD15C,1.700000*%
%TD*%
%TA.AperFunction,HeatsinkPad*%
%ADD16O,1.000000X2.100000*%
%TD*%
%TA.AperFunction,HeatsinkPad*%
%ADD17O,1.000000X1.600000*%
%TD*%
%TA.AperFunction,ViaPad*%
%ADD18C,0.600000*%
%TD*%
%TA.AperFunction,Conductor*%
%ADD19C,0.350000*%
%TD*%
G04 APERTURE END LIST*
D10*
%TO.N,GND*%
%TO.C,J7*%
X215450000Y-120800000D03*
D11*
%TO.N,+3V3*%
X215450000Y-122800000D03*
%TD*%
D12*
%TO.N,GP41*%
%TO.C,J1*%
X168480000Y-122500000D03*
D13*
%TO.N,SPI_MOSI*%
X168480000Y-121230000D03*
%TO.N,SPI_SCK*%
X169750000Y-122500000D03*
%TO.N,SPI_MISO*%
X169750000Y-121230000D03*
%TO.N,CS*%
X171020000Y-122500000D03*
%TO.N,GP40*%
X171020000Y-121230000D03*
%TD*%
D14*
%TO.N,GND*%
%TO.C,J2*%
X215500000Y-115500000D03*
D15*
%TO.N,VBAT*%
X215500000Y-112960000D03*
%TD*%
D14*
%TO.N,GND*%
%TO.C,SCRN1*%
X188310000Y-122750000D03*
D15*
%TO.N,+3V3*%
X185770000Y-122750000D03*
%TO.N,SCL*%
X183230000Y-122750000D03*
%TO.N,SDA*%
X180690000Y-122750000D03*
%TD*%
D16*
%TO.N,GND*%
%TO.C,J4*%
X202070000Y-104085000D03*
D17*
X202070000Y-99905000D03*
D16*
X193430000Y-104085000D03*
D17*
X193430000Y-99905000D03*
%TD*%
D12*
%TO.N,GND*%
%TO.C,J6*%
X162230000Y-121750000D03*
D13*
%TO.N,RX*%
X163500000Y-121750000D03*
%TO.N,TX*%
X164770000Y-121750000D03*
%TD*%
D10*
%TO.N,VBAT*%
%TO.C,J5*%
X214500000Y-108000000D03*
D11*
%TO.N,MotorGND*%
X212500000Y-108000000D03*
%TD*%
D12*
%TO.N,COL_0*%
%TO.C,J3*%
X173000000Y-127000000D03*
D13*
%TO.N,COL_1*%
X174270000Y-127000000D03*
%TO.N,COL_2*%
X175540000Y-127000000D03*
%TO.N,COL_3*%
X176810000Y-127000000D03*
%TO.N,COL_4*%
X178080000Y-127000000D03*
%TO.N,COL_5*%
X179350000Y-127000000D03*
%TO.N,COL_6*%
X180620000Y-127000000D03*
%TO.N,COL_7*%
X181890000Y-127000000D03*
%TO.N,COL_8*%
X183160000Y-127000000D03*
%TO.N,COL_9*%
X184430000Y-127000000D03*
%TO.N,COL_10*%
X185700000Y-127000000D03*
%TO.N,COL_11*%
X186970000Y-127000000D03*
%TO.N,COL_12*%
X188240000Y-127000000D03*
%TO.N,COL_13*%
X189510000Y-127000000D03*
%TO.N,COL_14*%
X190780000Y-127000000D03*
%TO.N,ROW_0*%
X192050000Y-127000000D03*
%TO.N,ROW_1*%
X193320000Y-127000000D03*
%TO.N,ROW_2*%
X194590000Y-127000000D03*
%TO.N,ROW_3*%
X195860000Y-127000000D03*
%TD*%
D18*
%TO.N,GND*%
X154300000Y-114550000D03*
X154300000Y-108400000D03*
%TO.N,ROW_1*%
X164450057Y-127100000D03*
%TO.N,+3V3*%
X197650000Y-126150000D03*
%TO.N,GND*%
X198550000Y-125450000D03*
X204750000Y-125450000D03*
X207375000Y-124625000D03*
%TO.N,COL_7*%
X198930514Y-124430515D03*
%TO.N,COL_6*%
X199610700Y-123750329D03*
%TO.N,S1*%
X194625000Y-121125000D03*
%TO.N,S0*%
X193750000Y-121100000D03*
%TO.N,GND*%
X193575000Y-122325000D03*
%TO.N,GP16_E*%
X195550000Y-115500000D03*
%TO.N,S2*%
X194900000Y-117750000D03*
%TO.N,S3*%
X194250000Y-115500000D03*
%TO.N,+3V3*%
X201850000Y-117050000D03*
%TO.N,GND*%
X198500000Y-109650000D03*
X209350000Y-117000000D03*
X187000000Y-117500000D03*
X161000000Y-101000000D03*
X183000000Y-111500000D03*
X185500000Y-120000000D03*
X169900000Y-125500000D03*
X174950000Y-109950000D03*
X182500000Y-106500000D03*
X170500000Y-106000000D03*
X163700000Y-125500000D03*
X166800000Y-125500000D03*
X170040000Y-109960000D03*
X194000000Y-112000000D03*
X167112500Y-104887500D03*
X178750000Y-100000000D03*
X160500000Y-125500000D03*
X208000000Y-111000000D03*
%TO.N,EN*%
X208000000Y-101500000D03*
%TO.N,+3V3*%
X187000000Y-119500000D03*
X205175000Y-112325000D03*
X180750000Y-102250000D03*
X174500000Y-106000000D03*
%TO.N,VBUS*%
X168500000Y-116500000D03*
X186500000Y-108000000D03*
X175000000Y-111500000D03*
X200500000Y-106500000D03*
X195000000Y-106500000D03*
%TO.N,Net-(D2-K)*%
X190000000Y-112500000D03*
X185500000Y-106000000D03*
%TO.N,GP40*%
X157250000Y-121500000D03*
%TO.N,SCL*%
X175250000Y-120000000D03*
%TO.N,GP41*%
X155750000Y-122500000D03*
%TO.N,ROW_3*%
X160875000Y-128875000D03*
X166750000Y-116500000D03*
X158500000Y-123500000D03*
%TO.N,ROW_2*%
X164350000Y-128650000D03*
%TO.N,ROW_0*%
X170700000Y-127200000D03*
%TO.N,D-*%
X196500000Y-103500000D03*
%TO.N,D+*%
X197500000Y-103250000D03*
%TO.N,SPI_SCK*%
X172750000Y-121250000D03*
%TO.N,ADC_BAT*%
X188250000Y-113500000D03*
%TO.N,Net-(MAX1-In)*%
X172000000Y-100000000D03*
X169000000Y-101550000D03*
%TO.N,VBAT*%
X191250000Y-110500000D03*
%TO.N,PWR_OFF*%
X165750000Y-100750000D03*
%TO.N,S3*%
X178250000Y-110750000D03*
%TO.N,GP16_E*%
X179500000Y-111000000D03*
%TO.N,S0*%
X183000000Y-113000000D03*
%TO.N,S2*%
X181000000Y-111000000D03*
%TO.N,S1*%
X181750000Y-111750000D03*
%TO.N,MENU*%
X160500000Y-118750000D03*
%TO.N,100*%
X191500000Y-101000000D03*
%TO.N,SELECT*%
X173750000Y-120000000D03*
%TD*%
D19*
%TO.N,VBUS*%
X195000000Y-106500000D02*
X188500000Y-106500000D01*
X200500000Y-106500000D02*
X195000000Y-106500000D01*
X173500000Y-116500000D02*
X168500000Y-116500000D01*
X178500000Y-108000000D02*
X175000000Y-111500000D01*
X175000000Y-111500000D02*
X175000000Y-115000000D01*
X175000000Y-115000000D02*
X173500000Y-116500000D01*
X186500000Y-108000000D02*
X178500000Y-108000000D01*
X188500000Y-106500000D02*
X187000000Y-108000000D01*
X187000000Y-108000000D02*
X186500000Y-108000000D01*
%TO.N,VBAT*%
X215500000Y-112960000D02*
X214710000Y-113750000D01*
X191250000Y-112500000D02*
X191250000Y-110500000D01*
X192500000Y-113750000D02*
X191250000Y-112500000D01*
X214710000Y-113750000D02*
X192500000Y-113750000D01*
%TD*%
%TA.AperFunction,Conductor*%
%TO.N,+3V3*%
G36*
X192826481Y-99020185D02*
G01*
X192872236Y-99072989D01*
X192882180Y-99142147D01*
X192862544Y-99193391D01*
X192809228Y-99273182D01*
X192809221Y-99273195D01*
X192756421Y-99400667D01*
X192756418Y-99400677D01*
X192729500Y-99536004D01*
X192729500Y-99536007D01*
X192729500Y-100273993D01*
X192729500Y-100273995D01*
X192729499Y-100273995D01*
X192756418Y-100409322D01*
X192756421Y-100409332D01*
X192809221Y-100536804D01*
X192809228Y-100536817D01*
X192885885Y-100651541D01*
X192885888Y-100651545D01*
X192983454Y-100749111D01*
X192983458Y-100749114D01*
X193098182Y-100825771D01*
X193098195Y-100825778D01*
X193225667Y-100878578D01*
X193225672Y-100878580D01*
X193225676Y-100878580D01*
X193225677Y-100878581D01*
X193361004Y-100905500D01*
X193361007Y-100905500D01*
X193498995Y-100905500D01*
X193590041Y-100887389D01*
X193634328Y-100878580D01*
X193761811Y-100825775D01*
X193876542Y-100749114D01*
X193974114Y-100651542D01*
X194050775Y-100536811D01*
X194103580Y-100409328D01*
X194120280Y-100325374D01*
X194130500Y-100273995D01*
X194130500Y-99536004D01*
X194103581Y-99400677D01*
X194103580Y-99400676D01*
X194103580Y-99400672D01*
X194061494Y-99299067D01*
X194050778Y-99273195D01*
X194050771Y-99273182D01*
X193997456Y-99193391D01*
X193976578Y-99126714D01*
X193995062Y-99059333D01*
X194047041Y-99012643D01*
X194100558Y-99000500D01*
X201399442Y-99000500D01*
X201466481Y-99020185D01*
X201512236Y-99072989D01*
X201522180Y-99142147D01*
X201502544Y-99193391D01*
X201449228Y-99273182D01*
X201449221Y-99273195D01*
X201396421Y-99400667D01*
X201396418Y-99400677D01*
X201369500Y-99536004D01*
X201369500Y-99536007D01*
X201369500Y-100273993D01*
X201369500Y-100273995D01*
X201369499Y-100273995D01*
X201396418Y-100409322D01*
X201396421Y-100409332D01*
X201449221Y-100536804D01*
X201449228Y-100536817D01*
X201525885Y-100651541D01*
X201525888Y-100651545D01*
X201623454Y-100749111D01*
X201623458Y-100749114D01*
X201738182Y-100825771D01*
X201738195Y-100825778D01*
X201865667Y-100878578D01*
X201865672Y-100878580D01*
X201865676Y-100878580D01*
X201865677Y-100878581D01*
X202001004Y-100905500D01*
X202001007Y-100905500D01*
X202138995Y-100905500D01*
X202230041Y-100887389D01*
X202274328Y-100878580D01*
X202401811Y-100825775D01*
X202516542Y-100749114D01*
X202614114Y-100651542D01*
X202690775Y-100536811D01*
X202743580Y-100409328D01*
X202760280Y-100325374D01*
X202770500Y-100273995D01*
X202770500Y-99536004D01*
X202743581Y-99400677D01*
X202743580Y-99400676D01*
X202743580Y-99400672D01*
X202701494Y-99299067D01*
X202690778Y-99273195D01*
X202690771Y-99273182D01*
X202637456Y-99193391D01*
X202616578Y-99126714D01*
X202635062Y-99059333D01*
X202687041Y-99012643D01*
X202740558Y-99000500D01*
X211934108Y-99000500D01*
X211997439Y-99000500D01*
X212002562Y-99000605D01*
X212407746Y-99017364D01*
X212417919Y-99018207D01*
X212817817Y-99068054D01*
X212827901Y-99069737D01*
X213222294Y-99152432D01*
X213232208Y-99154942D01*
X213618436Y-99269928D01*
X213628104Y-99273247D01*
X213954678Y-99400677D01*
X214003502Y-99419728D01*
X214012883Y-99423843D01*
X214252404Y-99540938D01*
X214374880Y-99600813D01*
X214383894Y-99605690D01*
X214730070Y-99811966D01*
X214738638Y-99817564D01*
X215066593Y-100051719D01*
X215074668Y-100058005D01*
X215083979Y-100065891D01*
X215382155Y-100318433D01*
X215389695Y-100325374D01*
X215674625Y-100610304D01*
X215681566Y-100617844D01*
X215781671Y-100736038D01*
X215841614Y-100806813D01*
X215941989Y-100925325D01*
X215948282Y-100933410D01*
X216055522Y-101083608D01*
X216182431Y-101261355D01*
X216188037Y-101269935D01*
X216394309Y-101616105D01*
X216399186Y-101625119D01*
X216576154Y-101987112D01*
X216580271Y-101996497D01*
X216726747Y-102371883D01*
X216730075Y-102381576D01*
X216845053Y-102767778D01*
X216847569Y-102777714D01*
X216930260Y-103172089D01*
X216931947Y-103182197D01*
X216981790Y-103582059D01*
X216982636Y-103592273D01*
X216999394Y-103997437D01*
X216999500Y-104002561D01*
X216999500Y-125997438D01*
X216999394Y-126002562D01*
X216982636Y-126407726D01*
X216981790Y-126417940D01*
X216931947Y-126817802D01*
X216930260Y-126827910D01*
X216847569Y-127222285D01*
X216845053Y-127232221D01*
X216730075Y-127618423D01*
X216726747Y-127628116D01*
X216580271Y-128003502D01*
X216576154Y-128012887D01*
X216399186Y-128374880D01*
X216394309Y-128383894D01*
X216188037Y-128730064D01*
X216182431Y-128738644D01*
X215948284Y-129066587D01*
X215941989Y-129074674D01*
X215681566Y-129382155D01*
X215674625Y-129389695D01*
X215389695Y-129674625D01*
X215382155Y-129681566D01*
X215074674Y-129941989D01*
X215066587Y-129948284D01*
X214738644Y-130182431D01*
X214730064Y-130188037D01*
X214383894Y-130394309D01*
X214374880Y-130399186D01*
X214012887Y-130576154D01*
X214003502Y-130580271D01*
X213628116Y-130726747D01*
X213618423Y-130730075D01*
X213232221Y-130845053D01*
X213222285Y-130847569D01*
X212827910Y-130930260D01*
X212817802Y-130931947D01*
X212417940Y-130981790D01*
X212407726Y-130982636D01*
X212002563Y-130999394D01*
X211997439Y-130999500D01*
X157002706Y-130999500D01*
X156997297Y-130999382D01*
X156613249Y-130982614D01*
X156602473Y-130981671D01*
X156224042Y-130931849D01*
X156213389Y-130929971D01*
X155840727Y-130847354D01*
X155830278Y-130844554D01*
X155466244Y-130729775D01*
X155456078Y-130726075D01*
X155103427Y-130580002D01*
X155093623Y-130575430D01*
X154755057Y-130399183D01*
X154745689Y-130393775D01*
X154423755Y-130188681D01*
X154414894Y-130182476D01*
X154112069Y-129950110D01*
X154103782Y-129943156D01*
X153822364Y-129685284D01*
X153814715Y-129677635D01*
X153556843Y-129396217D01*
X153549889Y-129387930D01*
X153317523Y-129085105D01*
X153311318Y-129076244D01*
X153306185Y-129068187D01*
X153141134Y-128809108D01*
X160374500Y-128809108D01*
X160374500Y-128940891D01*
X160408608Y-129068187D01*
X160418376Y-129085105D01*
X160474500Y-129182314D01*
X160567686Y-129275500D01*
X160681814Y-129341392D01*
X160809108Y-129375500D01*
X160809110Y-129375500D01*
X160940890Y-129375500D01*
X160940892Y-129375500D01*
X161068186Y-129341392D01*
X161182314Y-129275500D01*
X161275500Y-129182314D01*
X161341392Y-129068186D01*
X161375500Y-128940892D01*
X161375500Y-128809108D01*
X161341392Y-128681814D01*
X161284981Y-128584108D01*
X163849500Y-128584108D01*
X163849500Y-128715892D01*
X163854477Y-128734467D01*
X163883608Y-128843187D01*
X163897707Y-128867606D01*
X163949500Y-128957314D01*
X164042686Y-129050500D01*
X164156814Y-129116392D01*
X164284108Y-129150500D01*
X164284110Y-129150500D01*
X164415890Y-129150500D01*
X164415892Y-129150500D01*
X164543186Y-129116392D01*
X164657314Y-129050500D01*
X164750500Y-128957314D01*
X164816392Y-128843186D01*
X164850500Y-128715892D01*
X164850500Y-128584108D01*
X164816392Y-128456814D01*
X164750500Y-128342686D01*
X164657314Y-128249500D01*
X164600250Y-128216554D01*
X164543187Y-128183608D01*
X164479539Y-128166554D01*
X164415892Y-128149500D01*
X164284108Y-128149500D01*
X164156812Y-128183608D01*
X164042686Y-128249500D01*
X164042683Y-128249502D01*
X163949502Y-128342683D01*
X163949500Y-128342686D01*
X163883608Y-128456812D01*
X163871719Y-128501185D01*
X163849500Y-128584108D01*
X161284981Y-128584108D01*
X161275500Y-128567686D01*
X161182314Y-128474500D01*
X161125250Y-128441554D01*
X161068187Y-128408608D01*
X160975951Y-128383894D01*
X160940892Y-128374500D01*
X160809108Y-128374500D01*
X160681812Y-128408608D01*
X160567686Y-128474500D01*
X160567683Y-128474502D01*
X160474502Y-128567683D01*
X160474500Y-128567686D01*
X160408608Y-128681812D01*
X160374500Y-128809108D01*
X153141134Y-128809108D01*
X153106223Y-128754309D01*
X153100816Y-128744942D01*
X152924566Y-128406369D01*
X152919997Y-128396572D01*
X152911012Y-128374880D01*
X152773920Y-128043911D01*
X152770224Y-128033755D01*
X152655442Y-127669710D01*
X152652648Y-127659284D01*
X152570025Y-127286597D01*
X152568152Y-127275971D01*
X152518326Y-126897506D01*
X152517386Y-126886771D01*
X152500618Y-126502702D01*
X152500500Y-126497293D01*
X152500500Y-126393713D01*
X155649500Y-126393713D01*
X155649500Y-126606286D01*
X155682753Y-126816239D01*
X155682753Y-126816241D01*
X155682754Y-126816243D01*
X155738451Y-126987661D01*
X155748444Y-127018414D01*
X155844951Y-127207820D01*
X155969890Y-127379786D01*
X156120213Y-127530109D01*
X156292179Y-127655048D01*
X156292181Y-127655049D01*
X156292184Y-127655051D01*
X156481588Y-127751557D01*
X156683757Y-127817246D01*
X156893713Y-127850500D01*
X156893714Y-127850500D01*
X157106286Y-127850500D01*
X157106287Y-127850500D01*
X157316243Y-127817246D01*
X157518412Y-127751557D01*
X157707816Y-127655051D01*
X157754999Y-127620771D01*
X157879786Y-127530109D01*
X157879788Y-127530106D01*
X157879792Y-127530104D01*
X158030104Y-127379792D01*
X158030106Y-127379788D01*
X158030109Y-127379786D01*
X158155048Y-127207820D01*
X158155047Y-127207820D01*
X158155051Y-127207816D01*
X158243560Y-127034108D01*
X163949557Y-127034108D01*
X163949557Y-127165892D01*
X163964667Y-127222285D01*
X163983665Y-127293187D01*
X164016611Y-127350250D01*
X164049557Y-127407314D01*
X164142743Y-127500500D01*
X164256871Y-127566392D01*
X164384165Y-127600500D01*
X164384167Y-127600500D01*
X164515947Y-127600500D01*
X164515949Y-127600500D01*
X164643243Y-127566392D01*
X164757371Y-127500500D01*
X164850557Y-127407314D01*
X164916449Y-127293186D01*
X164950557Y-127165892D01*
X164950557Y-127134108D01*
X170199500Y-127134108D01*
X170199500Y-127265891D01*
X170233608Y-127393187D01*
X170246108Y-127414837D01*
X170299500Y-127507314D01*
X170392686Y-127600500D01*
X170506814Y-127666392D01*
X170634108Y-127700500D01*
X170634110Y-127700500D01*
X170765890Y-127700500D01*
X170765892Y-127700500D01*
X170893186Y-127666392D01*
X171007314Y-127600500D01*
X171100500Y-127507314D01*
X171166392Y-127393186D01*
X171200500Y-127265892D01*
X171200500Y-127134108D01*
X171166392Y-127006814D01*
X171100500Y-126892686D01*
X171007314Y-126799500D01*
X170950250Y-126766554D01*
X170893187Y-126733608D01*
X170829539Y-126716554D01*
X170765892Y-126699500D01*
X170634108Y-126699500D01*
X170506812Y-126733608D01*
X170392686Y-126799500D01*
X170392683Y-126799502D01*
X170299502Y-126892683D01*
X170299500Y-126892686D01*
X170233608Y-127006812D01*
X170199500Y-127134108D01*
X164950557Y-127134108D01*
X164950557Y-127034108D01*
X164916449Y-126906814D01*
X164850557Y-126792686D01*
X164757371Y-126699500D01*
X164700307Y-126666554D01*
X164643244Y-126633608D01*
X164579596Y-126616554D01*
X164515949Y-126599500D01*
X164384165Y-126599500D01*
X164256869Y-126633608D01*
X164142743Y-126699500D01*
X164142740Y-126699502D01*
X164049559Y-126792683D01*
X164049557Y-126792686D01*
X163983665Y-126906812D01*
X163962002Y-126987661D01*
X163949557Y-127034108D01*
X158243560Y-127034108D01*
X158251557Y-127018412D01*
X158317246Y-126816243D01*
X158350500Y-126606287D01*
X158350500Y-126480247D01*
X172299500Y-126480247D01*
X172299500Y-127519752D01*
X172311131Y-127578229D01*
X172311132Y-127578230D01*
X172355447Y-127644552D01*
X172421769Y-127688867D01*
X172421770Y-127688868D01*
X172480247Y-127700499D01*
X172480250Y-127700500D01*
X172480252Y-127700500D01*
X173519750Y-127700500D01*
X173519751Y-127700499D01*
X173534568Y-127697552D01*
X173578229Y-127688868D01*
X173578229Y-127688867D01*
X173578231Y-127688867D01*
X173644552Y-127644552D01*
X173677279Y-127595573D01*
X173730889Y-127550769D01*
X173800213Y-127542060D01*
X173849271Y-127561362D01*
X173938182Y-127620771D01*
X173938195Y-127620778D01*
X174065667Y-127673578D01*
X174065672Y-127673580D01*
X174065676Y-127673580D01*
X174065677Y-127673581D01*
X174201004Y-127700500D01*
X174201007Y-127700500D01*
X174338995Y-127700500D01*
X174430041Y-127682389D01*
X174474328Y-127673580D01*
X174601811Y-127620775D01*
X174716542Y-127544114D01*
X174760159Y-127500497D01*
X174817319Y-127443338D01*
X174878642Y-127409853D01*
X174948334Y-127414837D01*
X174992681Y-127443338D01*
X175093454Y-127544111D01*
X175093458Y-127544114D01*
X175208182Y-127620771D01*
X175208195Y-127620778D01*
X175335667Y-127673578D01*
X175335672Y-127673580D01*
X175335676Y-127673580D01*
X175335677Y-127673581D01*
X175471004Y-127700500D01*
X175471007Y-127700500D01*
X175608995Y-127700500D01*
X175700041Y-127682389D01*
X175744328Y-127673580D01*
X175871811Y-127620775D01*
X175986542Y-127544114D01*
X176030159Y-127500497D01*
X176087319Y-127443338D01*
X176148642Y-127409853D01*
X176218334Y-127414837D01*
X176262681Y-127443338D01*
X176363454Y-127544111D01*
X176363458Y-127544114D01*
X176478182Y-127620771D01*
X176478195Y-127620778D01*
X176605667Y-127673578D01*
X176605672Y-127673580D01*
X176605676Y-127673580D01*
X176605677Y-127673581D01*
X176741004Y-127700500D01*
X176741007Y-127700500D01*
X176878995Y-127700500D01*
X176970041Y-127682389D01*
X177014328Y-127673580D01*
X177141811Y-127620775D01*
X177256542Y-127544114D01*
X177300159Y-127500497D01*
X177357319Y-127443338D01*
X177418642Y-127409853D01*
X177488334Y-127414837D01*
X177532681Y-127443338D01*
X177633454Y-127544111D01*
X177633458Y-127544114D01*
X177748182Y-127620771D01*
X177748195Y-127620778D01*
X177875667Y-127673578D01*
X177875672Y-127673580D01*
X177875676Y-127673580D01*
X177875677Y-127673581D01*
X178011004Y-127700500D01*
X178011007Y-127700500D01*
X178148995Y-127700500D01*
X178240041Y-127682389D01*
X178284328Y-127673580D01*
X178411811Y-127620775D01*
X178526542Y-127544114D01*
X178570159Y-127500497D01*
X178627319Y-127443338D01*
X178688642Y-127409853D01*
X178758334Y-127414837D01*
X178802681Y-127443338D01*
X178903454Y-127544111D01*
X178903458Y-127544114D01*
X179018182Y-127620771D01*
X179018195Y-127620778D01*
X179145667Y-127673578D01*
X179145672Y-127673580D01*
X179145676Y-127673580D01*
X179145677Y-127673581D01*
X179281004Y-127700500D01*
X179281007Y-127700500D01*
X179418995Y-127700500D01*
X179510041Y-127682389D01*
X179554328Y-127673580D01*
X179681811Y-127620775D01*
X179796542Y-127544114D01*
X179840159Y-127500497D01*
X179897319Y-127443338D01*
X179958642Y-127409853D01*
X180028334Y-127414837D01*
X180072681Y-127443338D01*
X180173454Y-127544111D01*
X180173458Y-127544114D01*
X180288182Y-127620771D01*
X180288195Y-127620778D01*
X180415667Y-127673578D01*
X180415672Y-127673580D01*
X180415676Y-127673580D01*
X180415677Y-127673581D01*
X180551004Y-127700500D01*
X180551007Y-127700500D01*
X180688995Y-127700500D01*
X180780041Y-127682389D01*
X180824328Y-127673580D01*
X180951811Y-127620775D01*
X181066542Y-127544114D01*
X181110159Y-127500497D01*
X181167319Y-127443338D01*
X181228642Y-127409853D01*
X181298334Y-127414837D01*
X181342681Y-127443338D01*
X181443454Y-127544111D01*
X181443458Y-127544114D01*
X181558182Y-127620771D01*
X181558195Y-127620778D01*
X181685667Y-127673578D01*
X181685672Y-127673580D01*
X181685676Y-127673580D01*
X181685677Y-127673581D01*
X181821004Y-127700500D01*
X181821007Y-127700500D01*
X181958995Y-127700500D01*
X182050041Y-127682389D01*
X182094328Y-127673580D01*
X182221811Y-127620775D01*
X182336542Y-127544114D01*
X182380159Y-127500497D01*
X182437319Y-127443338D01*
X182498642Y-127409853D01*
X182568334Y-127414837D01*
X182612681Y-127443338D01*
X182713454Y-127544111D01*
X182713458Y-127544114D01*
X182828182Y-127620771D01*
X182828195Y-127620778D01*
X182955667Y-127673578D01*
X182955672Y-127673580D01*
X182955676Y-127673580D01*
X182955677Y-127673581D01*
X183091004Y-127700500D01*
X183091007Y-127700500D01*
X183228995Y-127700500D01*
X183320041Y-127682389D01*
X183364328Y-127673580D01*
X183491811Y-127620775D01*
X183606542Y-127544114D01*
X183650159Y-127500497D01*
X183707319Y-127443338D01*
X183768642Y-127409853D01*
X183838334Y-127414837D01*
X183882681Y-127443338D01*
X183983454Y-127544111D01*
X183983458Y-127544114D01*
X184098182Y-127620771D01*
X184098195Y-127620778D01*
X184225667Y-127673578D01*
X184225672Y-127673580D01*
X184225676Y-127673580D01*
X184225677Y-127673581D01*
X184361004Y-127700500D01*
X184361007Y-127700500D01*
X184498995Y-127700500D01*
X184590041Y-127682389D01*
X184634328Y-127673580D01*
X184761811Y-127620775D01*
X184876542Y-127544114D01*
X184920159Y-127500497D01*
X184977319Y-127443338D01*
X185038642Y-127409853D01*
X185108334Y-127414837D01*
X185152681Y-127443338D01*
X185253454Y-127544111D01*
X185253458Y-127544114D01*
X185368182Y-127620771D01*
X185368195Y-127620778D01*
X185495667Y-127673578D01*
X185495672Y-127673580D01*
X185495676Y-127673580D01*
X185495677Y-127673581D01*
X185631004Y-127700500D01*
X185631007Y-127700500D01*
X185768995Y-127700500D01*
X185860041Y-127682389D01*
X185904328Y-127673580D01*
X186031811Y-127620775D01*
X186146542Y-127544114D01*
X186190159Y-127500497D01*
X186247319Y-127443338D01*
X186308642Y-127409853D01*
X186378334Y-127414837D01*
X186422681Y-127443338D01*
X186523454Y-127544111D01*
X186523458Y-127544114D01*
X186638182Y-127620771D01*
X186638195Y-127620778D01*
X186765667Y-127673578D01*
X186765672Y-127673580D01*
X186765676Y-127673580D01*
X186765677Y-127673581D01*
X186901004Y-127700500D01*
X186901007Y-127700500D01*
X187038995Y-127700500D01*
X187130041Y-127682389D01*
X187174328Y-127673580D01*
X187301811Y-127620775D01*
X187416542Y-127544114D01*
X187460159Y-127500497D01*
X187517319Y-127443338D01*
X187578642Y-127409853D01*
X187648334Y-127414837D01*
X187692681Y-127443338D01*
X187793454Y-127544111D01*
X187793458Y-127544114D01*
X187908182Y-127620771D01*
X187908195Y-127620778D01*
X188035667Y-127673578D01*
X188035672Y-127673580D01*
X188035676Y-127673580D01*
X188035677Y-127673581D01*
X188171004Y-127700500D01*
X188171007Y-127700500D01*
X188308995Y-127700500D01*
X188400041Y-127682389D01*
X188444328Y-127673580D01*
X188571811Y-127620775D01*
X188686542Y-127544114D01*
X188730159Y-127500497D01*
X188787319Y-127443338D01*
X188848642Y-127409853D01*
X188918334Y-127414837D01*
X188962681Y-127443338D01*
X189063454Y-127544111D01*
X189063458Y-127544114D01*
X189178182Y-127620771D01*
X189178195Y-127620778D01*
X189305667Y-127673578D01*
X189305672Y-127673580D01*
X189305676Y-127673580D01*
X189305677Y-127673581D01*
X189441004Y-127700500D01*
X189441007Y-127700500D01*
X189578995Y-127700500D01*
X189670041Y-127682389D01*
X189714328Y-127673580D01*
X189841811Y-127620775D01*
X189956542Y-127544114D01*
X190000159Y-127500497D01*
X190057319Y-127443338D01*
X190118642Y-127409853D01*
X190188334Y-127414837D01*
X190232681Y-127443338D01*
X190333454Y-127544111D01*
X190333458Y-127544114D01*
X190448182Y-127620771D01*
X190448195Y-127620778D01*
X190575667Y-127673578D01*
X190575672Y-127673580D01*
X190575676Y-127673580D01*
X190575677Y-127673581D01*
X190711004Y-127700500D01*
X190711007Y-127700500D01*
X190848995Y-127700500D01*
X190940041Y-127682389D01*
X190984328Y-127673580D01*
X191111811Y-127620775D01*
X191226542Y-127544114D01*
X191270159Y-127500497D01*
X191327319Y-127443338D01*
X191388642Y-127409853D01*
X191458334Y-127414837D01*
X191502681Y-127443338D01*
X191603454Y-127544111D01*
X191603458Y-127544114D01*
X191718182Y-127620771D01*
X191718195Y-127620778D01*
X191845667Y-127673578D01*
X191845672Y-127673580D01*
X191845676Y-127673580D01*
X191845677Y-127673581D01*
X191981004Y-127700500D01*
X191981007Y-127700500D01*
X192118995Y-127700500D01*
X192210041Y-127682389D01*
X192254328Y-127673580D01*
X192381811Y-127620775D01*
X192496542Y-127544114D01*
X192540159Y-127500497D01*
X192597319Y-127443338D01*
X192658642Y-127409853D01*
X192728334Y-127414837D01*
X192772681Y-127443338D01*
X192873454Y-127544111D01*
X192873458Y-127544114D01*
X192988182Y-127620771D01*
X192988195Y-127620778D01*
X193115667Y-127673578D01*
X193115672Y-127673580D01*
X193115676Y-127673580D01*
X193115677Y-127673581D01*
X193251004Y-127700500D01*
X193251007Y-127700500D01*
X193388995Y-127700500D01*
X193480041Y-127682389D01*
X193524328Y-127673580D01*
X193651811Y-127620775D01*
X193766542Y-127544114D01*
X193810159Y-127500497D01*
X193867319Y-127443338D01*
X193928642Y-127409853D01*
X193998334Y-127414837D01*
X194042681Y-127443338D01*
X194143454Y-127544111D01*
X194143458Y-127544114D01*
X194258182Y-127620771D01*
X194258195Y-127620778D01*
X194385667Y-127673578D01*
X194385672Y-127673580D01*
X194385676Y-127673580D01*
X194385677Y-127673581D01*
X194521004Y-127700500D01*
X194521007Y-127700500D01*
X194658995Y-127700500D01*
X194750041Y-127682389D01*
X194794328Y-127673580D01*
X194921811Y-127620775D01*
X195036542Y-127544114D01*
X195080159Y-127500497D01*
X195137319Y-127443338D01*
X195198642Y-127409853D01*
X195268334Y-127414837D01*
X195312681Y-127443338D01*
X195413454Y-127544111D01*
X195413458Y-127544114D01*
X195528182Y-127620771D01*
X195528195Y-127620778D01*
X195655667Y-127673578D01*
X195655672Y-127673580D01*
X195655676Y-127673580D01*
X195655677Y-127673581D01*
X195791004Y-127700500D01*
X195791007Y-127700500D01*
X195928995Y-127700500D01*
X196020041Y-127682389D01*
X196064328Y-127673580D01*
X196191811Y-127620775D01*
X196306542Y-127544114D01*
X196404114Y-127446542D01*
X196480775Y-127331811D01*
X196533580Y-127204328D01*
X196560500Y-127068993D01*
X196560500Y-126931007D01*
X196560500Y-126931004D01*
X196533581Y-126795677D01*
X196533580Y-126795676D01*
X196533580Y-126795672D01*
X196532342Y-126792683D01*
X196480778Y-126668195D01*
X196480771Y-126668182D01*
X196404114Y-126553458D01*
X196404111Y-126553454D01*
X196306545Y-126455888D01*
X196306541Y-126455885D01*
X196191817Y-126379228D01*
X196191804Y-126379221D01*
X196064332Y-126326421D01*
X196064322Y-126326418D01*
X195928995Y-126299500D01*
X195928993Y-126299500D01*
X195791007Y-126299500D01*
X195791005Y-126299500D01*
X195655677Y-126326418D01*
X195655667Y-126326421D01*
X195528195Y-126379221D01*
X195528182Y-126379228D01*
X195413458Y-126455885D01*
X195413454Y-126455888D01*
X195312681Y-126556662D01*
X195251358Y-126590147D01*
X195181666Y-126585163D01*
X195137319Y-126556662D01*
X195036545Y-126455888D01*
X195036541Y-126455885D01*
X194921817Y-126379228D01*
X194921804Y-126379221D01*
X194794332Y-126326421D01*
X194794322Y-126326418D01*
X194658995Y-126299500D01*
X194658993Y-126299500D01*
X194521007Y-126299500D01*
X194521005Y-126299500D01*
X194385677Y-126326418D01*
X194385667Y-126326421D01*
X194258195Y-126379221D01*
X194258182Y-126379228D01*
X194143458Y-126455885D01*
X194143454Y-126455888D01*
X194042681Y-126556662D01*
X193981358Y-126590147D01*
X193911666Y-126585163D01*
X193867319Y-126556662D01*
X193766545Y-126455888D01*
X193766541Y-126455885D01*
X193651817Y-126379228D01*
X193651804Y-126379221D01*
X193524332Y-126326421D01*
X193524322Y-126326418D01*
X193388995Y-126299500D01*
X193388993Y-126299500D01*
X193251007Y-126299500D01*
X193251005Y-126299500D01*
X193115677Y-126326418D01*
X193115667Y-126326421D01*
X192988195Y-126379221D01*
X192988182Y-126379228D01*
X192873458Y-126455885D01*
X192873454Y-126455888D01*
X192772681Y-126556662D01*
X192711358Y-126590147D01*
X192641666Y-126585163D01*
X192597319Y-126556662D01*
X192496545Y-126455888D01*
X192496541Y-126455885D01*
X192381817Y-126379228D01*
X192381804Y-126379221D01*
X192254332Y-126326421D01*
X192254322Y-126326418D01*
X192118995Y-126299500D01*
X192118993Y-126299500D01*
X191981007Y-126299500D01*
X191981005Y-126299500D01*
X191845677Y-126326418D01*
X191845667Y-126326421D01*
X191718195Y-126379221D01*
X191718182Y-126379228D01*
X191603458Y-126455885D01*
X191603454Y-126455888D01*
X191502681Y-126556662D01*
X191441358Y-126590147D01*
X191371666Y-126585163D01*
X191327319Y-126556662D01*
X191226545Y-126455888D01*
X191226541Y-126455885D01*
X191111817Y-126379228D01*
X191111804Y-126379221D01*
X190984332Y-126326421D01*
X190984322Y-126326418D01*
X190848995Y-126299500D01*
X190848993Y-126299500D01*
X190711007Y-126299500D01*
X190711005Y-126299500D01*
X190575677Y-126326418D01*
X190575667Y-126326421D01*
X190448195Y-126379221D01*
X190448182Y-126379228D01*
X190333458Y-126455885D01*
X190333454Y-126455888D01*
X190232681Y-126556662D01*
X190171358Y-126590147D01*
X190101666Y-126585163D01*
X190057319Y-126556662D01*
X189956545Y-126455888D01*
X189956541Y-126455885D01*
X189841817Y-126379228D01*
X189841804Y-126379221D01*
X189714332Y-126326421D01*
X189714322Y-126326418D01*
X189578995Y-126299500D01*
X189578993Y-126299500D01*
X189441007Y-126299500D01*
X189441005Y-126299500D01*
X189305677Y-126326418D01*
X189305667Y-126326421D01*
X189178195Y-126379221D01*
X189178182Y-126379228D01*
X189063458Y-126455885D01*
X189063454Y-126455888D01*
X188962681Y-126556662D01*
X188901358Y-126590147D01*
X188831666Y-126585163D01*
X188787319Y-126556662D01*
X188686545Y-126455888D01*
X188686541Y-126455885D01*
X188571817Y-126379228D01*
X188571804Y-126379221D01*
X188444332Y-126326421D01*
X188444322Y-126326418D01*
X188308995Y-126299500D01*
X188308993Y-126299500D01*
X188171007Y-126299500D01*
X188171005Y-126299500D01*
X188035677Y-126326418D01*
X188035667Y-126326421D01*
X187908195Y-126379221D01*
X187908182Y-126379228D01*
X187793458Y-126455885D01*
X187793454Y-126455888D01*
X187692681Y-126556662D01*
X187631358Y-126590147D01*
X187561666Y-126585163D01*
X187517319Y-126556662D01*
X187416545Y-126455888D01*
X187416541Y-126455885D01*
X187301817Y-126379228D01*
X187301804Y-126379221D01*
X187174332Y-126326421D01*
X187174322Y-126326418D01*
X187038995Y-126299500D01*
X187038993Y-126299500D01*
X186901007Y-126299500D01*
X186901005Y-126299500D01*
X186765677Y-126326418D01*
X186765667Y-126326421D01*
X186638195Y-126379221D01*
X186638182Y-126379228D01*
X186523458Y-126455885D01*
X186523454Y-126455888D01*
X186422681Y-126556662D01*
X186361358Y-126590147D01*
X186291666Y-126585163D01*
X186247319Y-126556662D01*
X186146545Y-126455888D01*
X186146541Y-126455885D01*
X186031817Y-126379228D01*
X186031804Y-126379221D01*
X185904332Y-126326421D01*
X185904322Y-126326418D01*
X185768995Y-126299500D01*
X185768993Y-126299500D01*
X185631007Y-126299500D01*
X185631005Y-126299500D01*
X185495677Y-126326418D01*
X185495667Y-126326421D01*
X185368195Y-126379221D01*
X185368182Y-126379228D01*
X185253458Y-126455885D01*
X185253454Y-126455888D01*
X185152681Y-126556662D01*
X185091358Y-126590147D01*
X185021666Y-126585163D01*
X184977319Y-126556662D01*
X184876545Y-126455888D01*
X184876541Y-126455885D01*
X184761817Y-126379228D01*
X184761804Y-126379221D01*
X184634332Y-126326421D01*
X184634322Y-126326418D01*
X184498995Y-126299500D01*
X184498993Y-126299500D01*
X184361007Y-126299500D01*
X184361005Y-126299500D01*
X184225677Y-126326418D01*
X184225667Y-126326421D01*
X184098195Y-126379221D01*
X184098182Y-126379228D01*
X183983458Y-126455885D01*
X183983454Y-126455888D01*
X183882681Y-126556662D01*
X183821358Y-126590147D01*
X183751666Y-126585163D01*
X183707319Y-126556662D01*
X183606545Y-126455888D01*
X183606541Y-126455885D01*
X183491817Y-126379228D01*
X183491804Y-126379221D01*
X183364332Y-126326421D01*
X183364322Y-126326418D01*
X183228995Y-126299500D01*
X183228993Y-126299500D01*
X183091007Y-126299500D01*
X183091005Y-126299500D01*
X182955677Y-126326418D01*
X182955667Y-126326421D01*
X182828195Y-126379221D01*
X182828182Y-126379228D01*
X182713458Y-126455885D01*
X182713454Y-126455888D01*
X182612681Y-126556662D01*
X182551358Y-126590147D01*
X182481666Y-126585163D01*
X182437319Y-126556662D01*
X182336545Y-126455888D01*
X182336541Y-126455885D01*
X182221817Y-126379228D01*
X182221804Y-126379221D01*
X182094332Y-126326421D01*
X182094322Y-126326418D01*
X181958995Y-126299500D01*
X181958993Y-126299500D01*
X181821007Y-126299500D01*
X181821005Y-126299500D01*
X181685677Y-126326418D01*
X181685667Y-126326421D01*
X181558195Y-126379221D01*
X181558182Y-126379228D01*
X181443458Y-126455885D01*
X181443454Y-126455888D01*
X181342681Y-126556662D01*
X181281358Y-126590147D01*
X181211666Y-126585163D01*
X181167319Y-126556662D01*
X181066545Y-126455888D01*
X181066541Y-126455885D01*
X180951817Y-126379228D01*
X180951804Y-126379221D01*
X180824332Y-126326421D01*
X180824322Y-126326418D01*
X180688995Y-126299500D01*
X180688993Y-126299500D01*
X180551007Y-126299500D01*
X180551005Y-126299500D01*
X180415677Y-126326418D01*
X180415667Y-126326421D01*
X180288195Y-126379221D01*
X180288182Y-126379228D01*
X180173458Y-126455885D01*
X180173454Y-126455888D01*
X180072681Y-126556662D01*
X180011358Y-126590147D01*
X179941666Y-126585163D01*
X179897319Y-126556662D01*
X179796545Y-126455888D01*
X179796541Y-126455885D01*
X179681817Y-126379228D01*
X179681804Y-126379221D01*
X179554332Y-126326421D01*
X179554322Y-126326418D01*
X179418995Y-126299500D01*
X179418993Y-126299500D01*
X179281007Y-126299500D01*
X179281005Y-126299500D01*
X179145677Y-126326418D01*
X179145667Y-126326421D01*
X179018195Y-126379221D01*
X179018182Y-126379228D01*
X178903458Y-126455885D01*
X178903454Y-126455888D01*
X178802681Y-126556662D01*
X178741358Y-126590147D01*
X178671666Y-126585163D01*
X178627319Y-126556662D01*
X178526545Y-126455888D01*
X178526541Y-126455885D01*
X178411817Y-126379228D01*
X178411804Y-126379221D01*
X178284332Y-126326421D01*
X178284322Y-126326418D01*
X178148995Y-126299500D01*
X178148993Y-126299500D01*
X178011007Y-126299500D01*
X178011005Y-126299500D01*
X177875677Y-126326418D01*
X177875667Y-126326421D01*
X177748195Y-126379221D01*
X177748182Y-126379228D01*
X177633458Y-126455885D01*
X177633454Y-126455888D01*
X177532681Y-126556662D01*
X177471358Y-126590147D01*
X177401666Y-126585163D01*
X177357319Y-126556662D01*
X177256545Y-126455888D01*
X177256541Y-126455885D01*
X177141817Y-126379228D01*
X177141804Y-126379221D01*
X177014332Y-126326421D01*
X177014322Y-126326418D01*
X176878995Y-126299500D01*
X176878993Y-126299500D01*
X176741007Y-126299500D01*
X176741005Y-126299500D01*
X176605677Y-126326418D01*
X176605667Y-126326421D01*
X176478195Y-126379221D01*
X176478182Y-126379228D01*
X176363458Y-126455885D01*
X176363454Y-126455888D01*
X176262681Y-126556662D01*
X176201358Y-126590147D01*
X176131666Y-126585163D01*
X176087319Y-126556662D01*
X175986545Y-126455888D01*
X175986541Y-126455885D01*
X175871817Y-126379228D01*
X175871804Y-126379221D01*
X175744332Y-126326421D01*
X175744322Y-126326418D01*
X175608995Y-126299500D01*
X175608993Y-126299500D01*
X175471007Y-126299500D01*
X175471005Y-126299500D01*
X175335677Y-126326418D01*
X175335667Y-126326421D01*
X175208195Y-126379221D01*
X175208182Y-126379228D01*
X175093458Y-126455885D01*
X175093454Y-126455888D01*
X174992681Y-126556662D01*
X174931358Y-126590147D01*
X174861666Y-126585163D01*
X174817319Y-126556662D01*
X174716545Y-126455888D01*
X174716541Y-126455885D01*
X174601817Y-126379228D01*
X174601804Y-126379221D01*
X174474332Y-126326421D01*
X174474322Y-126326418D01*
X174338995Y-126299500D01*
X174338993Y-126299500D01*
X174201007Y-126299500D01*
X174201005Y-126299500D01*
X174065677Y-126326418D01*
X174065667Y-126326421D01*
X173938195Y-126379221D01*
X173938177Y-126379231D01*
X173849270Y-126438637D01*
X173782593Y-126459515D01*
X173715213Y-126441030D01*
X173677279Y-126404427D01*
X173644552Y-126355448D01*
X173601110Y-126326420D01*
X173578230Y-126311132D01*
X173578229Y-126311131D01*
X173519752Y-126299500D01*
X173519748Y-126299500D01*
X172480252Y-126299500D01*
X172480247Y-126299500D01*
X172421770Y-126311131D01*
X172421769Y-126311132D01*
X172355447Y-126355447D01*
X172311132Y-126421769D01*
X172311131Y-126421770D01*
X172299500Y-126480247D01*
X158350500Y-126480247D01*
X158350500Y-126393713D01*
X158317246Y-126183757D01*
X158251557Y-125981588D01*
X158155051Y-125792184D01*
X158155049Y-125792181D01*
X158155048Y-125792179D01*
X158030109Y-125620213D01*
X157879786Y-125469890D01*
X157830536Y-125434108D01*
X159999500Y-125434108D01*
X159999500Y-125565891D01*
X160033608Y-125693187D01*
X160066554Y-125750250D01*
X160099500Y-125807314D01*
X160192686Y-125900500D01*
X160306814Y-125966392D01*
X160434108Y-126000500D01*
X160434110Y-126000500D01*
X160565890Y-126000500D01*
X160565892Y-126000500D01*
X160693186Y-125966392D01*
X160807314Y-125900500D01*
X160900500Y-125807314D01*
X160966392Y-125693186D01*
X161000500Y-125565892D01*
X161000500Y-125434108D01*
X163199500Y-125434108D01*
X163199500Y-125565891D01*
X163233608Y-125693187D01*
X163266554Y-125750250D01*
X163299500Y-125807314D01*
X163392686Y-125900500D01*
X163506814Y-125966392D01*
X163634108Y-126000500D01*
X163634110Y-126000500D01*
X163765890Y-126000500D01*
X163765892Y-126000500D01*
X163893186Y-125966392D01*
X164007314Y-125900500D01*
X164100500Y-125807314D01*
X164166392Y-125693186D01*
X164200500Y-125565892D01*
X164200500Y-125434108D01*
X166299500Y-125434108D01*
X166299500Y-125565891D01*
X166333608Y-125693187D01*
X166366554Y-125750250D01*
X166399500Y-125807314D01*
X166492686Y-125900500D01*
X166606814Y-125966392D01*
X166734108Y-126000500D01*
X166734110Y-126000500D01*
X166865890Y-126000500D01*
X166865892Y-126000500D01*
X166993186Y-125966392D01*
X167107314Y-125900500D01*
X167200500Y-125807314D01*
X167266392Y-125693186D01*
X167300500Y-125565892D01*
X167300500Y-125434108D01*
X169399500Y-125434108D01*
X169399500Y-125565891D01*
X169433608Y-125693187D01*
X169466554Y-125750250D01*
X169499500Y-125807314D01*
X169592686Y-125900500D01*
X169706814Y-125966392D01*
X169834108Y-126000500D01*
X169834110Y-126000500D01*
X169965890Y-126000500D01*
X169965892Y-126000500D01*
X170093186Y-125966392D01*
X170207314Y-125900500D01*
X170300500Y-125807314D01*
X170366392Y-125693186D01*
X170400500Y-125565892D01*
X170400500Y-125434108D01*
X170387103Y-125384108D01*
X198049500Y-125384108D01*
X198049500Y-125515891D01*
X198083608Y-125643187D01*
X198107032Y-125683757D01*
X198149500Y-125757314D01*
X198242686Y-125850500D01*
X198356814Y-125916392D01*
X198484108Y-125950500D01*
X198484110Y-125950500D01*
X198615890Y-125950500D01*
X198615892Y-125950500D01*
X198743186Y-125916392D01*
X198857314Y-125850500D01*
X198950500Y-125757314D01*
X199016392Y-125643186D01*
X199050500Y-125515892D01*
X199050500Y-125384108D01*
X204249500Y-125384108D01*
X204249500Y-125515891D01*
X204283608Y-125643187D01*
X204307032Y-125683757D01*
X204349500Y-125757314D01*
X204442686Y-125850500D01*
X204556814Y-125916392D01*
X204684108Y-125950500D01*
X204684110Y-125950500D01*
X204815890Y-125950500D01*
X204815892Y-125950500D01*
X204943186Y-125916392D01*
X204982467Y-125893713D01*
X210649500Y-125893713D01*
X210649500Y-126106286D01*
X210681944Y-126311133D01*
X210682754Y-126316243D01*
X210743338Y-126502702D01*
X210748444Y-126518414D01*
X210844951Y-126707820D01*
X210969890Y-126879786D01*
X211120213Y-127030109D01*
X211292179Y-127155048D01*
X211292181Y-127155049D01*
X211292184Y-127155051D01*
X211481588Y-127251557D01*
X211683757Y-127317246D01*
X211893713Y-127350500D01*
X211893714Y-127350500D01*
X212106286Y-127350500D01*
X212106287Y-127350500D01*
X212316243Y-127317246D01*
X212518412Y-127251557D01*
X212707816Y-127155051D01*
X212826266Y-127068993D01*
X212879786Y-127030109D01*
X212879788Y-127030106D01*
X212879792Y-127030104D01*
X213030104Y-126879792D01*
X213030106Y-126879788D01*
X213030109Y-126879786D01*
X213155048Y-126707820D01*
X213155047Y-126707820D01*
X213155051Y-126707816D01*
X213251557Y-126518412D01*
X213317246Y-126316243D01*
X213350500Y-126106287D01*
X213350500Y-125893713D01*
X213317246Y-125683757D01*
X213251557Y-125481588D01*
X213155051Y-125292184D01*
X213155049Y-125292181D01*
X213155048Y-125292179D01*
X213030109Y-125120213D01*
X212879786Y-124969890D01*
X212707820Y-124844951D01*
X212518414Y-124748444D01*
X212518413Y-124748443D01*
X212518412Y-124748443D01*
X212316243Y-124682754D01*
X212316241Y-124682753D01*
X212316240Y-124682753D01*
X212154957Y-124657208D01*
X212106287Y-124649500D01*
X211893713Y-124649500D01*
X211845042Y-124657208D01*
X211683760Y-124682753D01*
X211683757Y-124682754D01*
X211514258Y-124737828D01*
X211481585Y-124748444D01*
X211292179Y-124844951D01*
X211120213Y-124969890D01*
X210969890Y-125120213D01*
X210844951Y-125292179D01*
X210748444Y-125481585D01*
X210682753Y-125683760D01*
X210649500Y-125893713D01*
X204982467Y-125893713D01*
X205057314Y-125850500D01*
X205150500Y-125757314D01*
X205216392Y-125643186D01*
X205250500Y-125515892D01*
X205250500Y-125384108D01*
X205216392Y-125256814D01*
X205150500Y-125142686D01*
X205057314Y-125049500D01*
X204970712Y-124999500D01*
X204943187Y-124983608D01*
X204879539Y-124966554D01*
X204815892Y-124949500D01*
X204684108Y-124949500D01*
X204556812Y-124983608D01*
X204442686Y-125049500D01*
X204442683Y-125049502D01*
X204349502Y-125142683D01*
X204349500Y-125142686D01*
X204283608Y-125256812D01*
X204249500Y-125384108D01*
X199050500Y-125384108D01*
X199016392Y-125256814D01*
X198950500Y-125142686D01*
X198945129Y-125137315D01*
X198911644Y-125075992D01*
X198916628Y-125006300D01*
X198958500Y-124950367D01*
X199000712Y-124929860D01*
X199123700Y-124896907D01*
X199237828Y-124831015D01*
X199331014Y-124737829D01*
X199396906Y-124623701D01*
X199414213Y-124559108D01*
X206874500Y-124559108D01*
X206874500Y-124690892D01*
X206889921Y-124748443D01*
X206908608Y-124818187D01*
X206924061Y-124844951D01*
X206974500Y-124932314D01*
X207067686Y-125025500D01*
X207181814Y-125091392D01*
X207309108Y-125125500D01*
X207309110Y-125125500D01*
X207440890Y-125125500D01*
X207440892Y-125125500D01*
X207568186Y-125091392D01*
X207682314Y-125025500D01*
X207775500Y-124932314D01*
X207841392Y-124818186D01*
X207875500Y-124690892D01*
X207875500Y-124559108D01*
X207841392Y-124431814D01*
X207775500Y-124317686D01*
X207682314Y-124224500D01*
X207620080Y-124188569D01*
X207568187Y-124158608D01*
X207504539Y-124141554D01*
X207440892Y-124124500D01*
X207309108Y-124124500D01*
X207181812Y-124158608D01*
X207067686Y-124224500D01*
X207067683Y-124224502D01*
X206974502Y-124317683D01*
X206974500Y-124317686D01*
X206908608Y-124431812D01*
X206881997Y-124531129D01*
X206874500Y-124559108D01*
X199414213Y-124559108D01*
X199431014Y-124496407D01*
X199431014Y-124371218D01*
X199431223Y-124367627D01*
X199441831Y-124337988D01*
X199450699Y-124307790D01*
X199453513Y-124305351D01*
X199454769Y-124301844D01*
X199479719Y-124282643D01*
X199503503Y-124262035D01*
X199507680Y-124261126D01*
X199510141Y-124259233D01*
X199520377Y-124258364D01*
X199555014Y-124250829D01*
X199676590Y-124250829D01*
X199676592Y-124250829D01*
X199803886Y-124216721D01*
X199918014Y-124150829D01*
X200011200Y-124057643D01*
X200077092Y-123943515D01*
X200111200Y-123816221D01*
X200111200Y-123684437D01*
X200077092Y-123557143D01*
X200011200Y-123443015D01*
X199918014Y-123349829D01*
X199843507Y-123306812D01*
X199803887Y-123283937D01*
X199729028Y-123263879D01*
X199676592Y-123249829D01*
X199544808Y-123249829D01*
X199417512Y-123283937D01*
X199303386Y-123349829D01*
X199303383Y-123349831D01*
X199210202Y-123443012D01*
X199210200Y-123443015D01*
X199144308Y-123557141D01*
X199110200Y-123684437D01*
X199110200Y-123806015D01*
X199090515Y-123873054D01*
X199037711Y-123918809D01*
X198986200Y-123930015D01*
X198864622Y-123930015D01*
X198737326Y-123964123D01*
X198623200Y-124030015D01*
X198623197Y-124030017D01*
X198530016Y-124123198D01*
X198530014Y-124123201D01*
X198464122Y-124237327D01*
X198430014Y-124364623D01*
X198430014Y-124496406D01*
X198464122Y-124623702D01*
X198479017Y-124649500D01*
X198530014Y-124737829D01*
X198530016Y-124737831D01*
X198535384Y-124743199D01*
X198568869Y-124804522D01*
X198563885Y-124874214D01*
X198522013Y-124930147D01*
X198479796Y-124950655D01*
X198356814Y-124983608D01*
X198356812Y-124983608D01*
X198356812Y-124983609D01*
X198242686Y-125049500D01*
X198242683Y-125049502D01*
X198149502Y-125142683D01*
X198149500Y-125142686D01*
X198083608Y-125256812D01*
X198049500Y-125384108D01*
X170387103Y-125384108D01*
X170366392Y-125306814D01*
X170300500Y-125192686D01*
X170207314Y-125099500D01*
X170150250Y-125066554D01*
X170093187Y-125033608D01*
X169991270Y-125006300D01*
X169965892Y-124999500D01*
X169834108Y-124999500D01*
X169706812Y-125033608D01*
X169592686Y-125099500D01*
X169592683Y-125099502D01*
X169499502Y-125192683D01*
X169499500Y-125192686D01*
X169433608Y-125306812D01*
X169399500Y-125434108D01*
X167300500Y-125434108D01*
X167266392Y-125306814D01*
X167200500Y-125192686D01*
X167107314Y-125099500D01*
X167050250Y-125066554D01*
X166993187Y-125033608D01*
X166891270Y-125006300D01*
X166865892Y-124999500D01*
X166734108Y-124999500D01*
X166606812Y-125033608D01*
X166492686Y-125099500D01*
X166492683Y-125099502D01*
X166399502Y-125192683D01*
X166399500Y-125192686D01*
X166333608Y-125306812D01*
X166299500Y-125434108D01*
X164200500Y-125434108D01*
X164166392Y-125306814D01*
X164100500Y-125192686D01*
X164007314Y-125099500D01*
X163950250Y-125066554D01*
X163893187Y-125033608D01*
X163791270Y-125006300D01*
X163765892Y-124999500D01*
X163634108Y-124999500D01*
X163506812Y-125033608D01*
X163392686Y-125099500D01*
X163392683Y-125099502D01*
X163299502Y-125192683D01*
X163299500Y-125192686D01*
X163233608Y-125306812D01*
X163199500Y-125434108D01*
X161000500Y-125434108D01*
X160966392Y-125306814D01*
X160900500Y-125192686D01*
X160807314Y-125099500D01*
X160750250Y-125066554D01*
X160693187Y-125033608D01*
X160591270Y-125006300D01*
X160565892Y-124999500D01*
X160434108Y-124999500D01*
X160306812Y-125033608D01*
X160192686Y-125099500D01*
X160192683Y-125099502D01*
X160099502Y-125192683D01*
X160099500Y-125192686D01*
X160033608Y-125306812D01*
X159999500Y-125434108D01*
X157830536Y-125434108D01*
X157707820Y-125344951D01*
X157518414Y-125248444D01*
X157518413Y-125248443D01*
X157518412Y-125248443D01*
X157316243Y-125182754D01*
X157316241Y-125182753D01*
X157316240Y-125182753D01*
X157154957Y-125157208D01*
X157106287Y-125149500D01*
X156893713Y-125149500D01*
X156845042Y-125157208D01*
X156683760Y-125182753D01*
X156481585Y-125248444D01*
X156292179Y-125344951D01*
X156120213Y-125469890D01*
X155969890Y-125620213D01*
X155844951Y-125792179D01*
X155748444Y-125981585D01*
X155682753Y-126183760D01*
X155649500Y-126393713D01*
X152500500Y-126393713D01*
X152500500Y-123434108D01*
X157999500Y-123434108D01*
X157999500Y-123565892D01*
X157999523Y-123565977D01*
X158033608Y-123693187D01*
X158063264Y-123744552D01*
X158099500Y-123807314D01*
X158192686Y-123900500D01*
X158306814Y-123966392D01*
X158434108Y-124000500D01*
X158434110Y-124000500D01*
X158565890Y-124000500D01*
X158565892Y-124000500D01*
X158693186Y-123966392D01*
X158807314Y-123900500D01*
X158900500Y-123807314D01*
X158966392Y-123693186D01*
X159000500Y-123565892D01*
X159000500Y-123434108D01*
X158966392Y-123306814D01*
X158900500Y-123192686D01*
X158807314Y-123099500D01*
X158733714Y-123057007D01*
X158693187Y-123033608D01*
X158591729Y-123006423D01*
X158565892Y-122999500D01*
X158434108Y-122999500D01*
X158306812Y-123033608D01*
X158192686Y-123099500D01*
X158192683Y-123099502D01*
X158099502Y-123192683D01*
X158099500Y-123192686D01*
X158033608Y-123306812D01*
X158003373Y-123419655D01*
X157999500Y-123434108D01*
X152500500Y-123434108D01*
X152500500Y-122434108D01*
X155249500Y-122434108D01*
X155249500Y-122565892D01*
X155262994Y-122616251D01*
X155283608Y-122693187D01*
X155314873Y-122747339D01*
X155349500Y-122807314D01*
X155442686Y-122900500D01*
X155556814Y-122966392D01*
X155684108Y-123000500D01*
X155684110Y-123000500D01*
X155815890Y-123000500D01*
X155815892Y-123000500D01*
X155943186Y-122966392D01*
X156057314Y-122900500D01*
X156150500Y-122807314D01*
X156216392Y-122693186D01*
X156250500Y-122565892D01*
X156250500Y-122434108D01*
X156216392Y-122306814D01*
X156150500Y-122192686D01*
X156057314Y-122099500D01*
X156000250Y-122066554D01*
X155943187Y-122033608D01*
X155879539Y-122016554D01*
X155815892Y-121999500D01*
X155684108Y-121999500D01*
X155556812Y-122033608D01*
X155442686Y-122099500D01*
X155442683Y-122099502D01*
X155349502Y-122192683D01*
X155349500Y-122192686D01*
X155283608Y-122306812D01*
X155254055Y-122417107D01*
X155249500Y-122434108D01*
X152500500Y-122434108D01*
X152500500Y-121434108D01*
X156749500Y-121434108D01*
X156749500Y-121565892D01*
X156765472Y-121625500D01*
X156783608Y-121693187D01*
X156797005Y-121716391D01*
X156849500Y-121807314D01*
X156942686Y-121900500D01*
X157056814Y-121966392D01*
X157184108Y-122000500D01*
X157184110Y-122000500D01*
X157315890Y-122000500D01*
X157315892Y-122000500D01*
X157443186Y-121966392D01*
X157557314Y-121900500D01*
X157650500Y-121807314D01*
X157716392Y-121693186D01*
X157750500Y-121565892D01*
X157750500Y-121434108D01*
X157716392Y-121306814D01*
X157716390Y-121306810D01*
X157704469Y-121286162D01*
X157704468Y-121286161D01*
X157702114Y-121282084D01*
X157672186Y-121230247D01*
X161529500Y-121230247D01*
X161529500Y-122269752D01*
X161541131Y-122328229D01*
X161541132Y-122328230D01*
X161585447Y-122394552D01*
X161651769Y-122438867D01*
X161651770Y-122438868D01*
X161710247Y-122450499D01*
X161710250Y-122450500D01*
X161710252Y-122450500D01*
X162749750Y-122450500D01*
X162749751Y-122450499D01*
X162770129Y-122446446D01*
X162808229Y-122438868D01*
X162808229Y-122438867D01*
X162808231Y-122438867D01*
X162874552Y-122394552D01*
X162907279Y-122345573D01*
X162960889Y-122300769D01*
X163030213Y-122292060D01*
X163079271Y-122311362D01*
X163168182Y-122370771D01*
X163168195Y-122370778D01*
X163295667Y-122423578D01*
X163295672Y-122423580D01*
X163295676Y-122423580D01*
X163295677Y-122423581D01*
X163431004Y-122450500D01*
X163431007Y-122450500D01*
X163568995Y-122450500D01*
X163667005Y-122431004D01*
X163704328Y-122423580D01*
X163831811Y-122370775D01*
X163946542Y-122294114D01*
X163990656Y-122250000D01*
X164047319Y-122193338D01*
X164108642Y-122159853D01*
X164178334Y-122164837D01*
X164222681Y-122193338D01*
X164323454Y-122294111D01*
X164323458Y-122294114D01*
X164438182Y-122370771D01*
X164438195Y-122370778D01*
X164565667Y-122423578D01*
X164565672Y-122423580D01*
X164565676Y-122423580D01*
X164565677Y-122423581D01*
X164701004Y-122450500D01*
X164701007Y-122450500D01*
X164838995Y-122450500D01*
X164937005Y-122431004D01*
X164974328Y-122423580D01*
X165101811Y-122370775D01*
X165216542Y-122294114D01*
X165314114Y-122196542D01*
X165390775Y-122081811D01*
X165391384Y-122080342D01*
X165417336Y-122017686D01*
X165443580Y-121954328D01*
X165469405Y-121824500D01*
X165470500Y-121818995D01*
X165470500Y-121681004D01*
X165443581Y-121545677D01*
X165443580Y-121545676D01*
X165443580Y-121545672D01*
X165424208Y-121498904D01*
X165390778Y-121418195D01*
X165390771Y-121418182D01*
X165314114Y-121303458D01*
X165314111Y-121303454D01*
X165309652Y-121298995D01*
X167779499Y-121298995D01*
X167806418Y-121434322D01*
X167806421Y-121434332D01*
X167859221Y-121561804D01*
X167859228Y-121561817D01*
X167918637Y-121650728D01*
X167939515Y-121717406D01*
X167921031Y-121784786D01*
X167884426Y-121822721D01*
X167835447Y-121855447D01*
X167791132Y-121921769D01*
X167791131Y-121921770D01*
X167779500Y-121980247D01*
X167779500Y-123019752D01*
X167791131Y-123078229D01*
X167791132Y-123078230D01*
X167835447Y-123144552D01*
X167901769Y-123188867D01*
X167901770Y-123188868D01*
X167960247Y-123200499D01*
X167960250Y-123200500D01*
X167960252Y-123200500D01*
X168999750Y-123200500D01*
X168999751Y-123200499D01*
X169014568Y-123197552D01*
X169058229Y-123188868D01*
X169058229Y-123188867D01*
X169058231Y-123188867D01*
X169124552Y-123144552D01*
X169157279Y-123095573D01*
X169210889Y-123050769D01*
X169280213Y-123042060D01*
X169329271Y-123061362D01*
X169418182Y-123120771D01*
X169418195Y-123120778D01*
X169497322Y-123153553D01*
X169545672Y-123173580D01*
X169545676Y-123173580D01*
X169545677Y-123173581D01*
X169681004Y-123200500D01*
X169681007Y-123200500D01*
X169818995Y-123200500D01*
X169910041Y-123182389D01*
X169954328Y-123173580D01*
X170081811Y-123120775D01*
X170196542Y-123044114D01*
X170241156Y-122999500D01*
X170297319Y-122943338D01*
X170358642Y-122909853D01*
X170428334Y-122914837D01*
X170472681Y-122943338D01*
X170573454Y-123044111D01*
X170573458Y-123044114D01*
X170688182Y-123120771D01*
X170688195Y-123120778D01*
X170767322Y-123153553D01*
X170815672Y-123173580D01*
X170815676Y-123173580D01*
X170815677Y-123173581D01*
X170951004Y-123200500D01*
X170951007Y-123200500D01*
X171088995Y-123200500D01*
X171180041Y-123182389D01*
X171224328Y-123173580D01*
X171351811Y-123120775D01*
X171466542Y-123044114D01*
X171564114Y-122946542D01*
X171640775Y-122831811D01*
X171693580Y-122704328D01*
X171705077Y-122646530D01*
X179639500Y-122646530D01*
X179639500Y-122853469D01*
X179679868Y-123056412D01*
X179679870Y-123056420D01*
X179745939Y-123215925D01*
X179759059Y-123247598D01*
X179783340Y-123283937D01*
X179874024Y-123419657D01*
X180020342Y-123565975D01*
X180020345Y-123565977D01*
X180192402Y-123680941D01*
X180383580Y-123760130D01*
X180586530Y-123800499D01*
X180586534Y-123800500D01*
X180586535Y-123800500D01*
X180793466Y-123800500D01*
X180793467Y-123800499D01*
X180996420Y-123760130D01*
X181187598Y-123680941D01*
X181359655Y-123565977D01*
X181505977Y-123419655D01*
X181620941Y-123247598D01*
X181700130Y-123056420D01*
X181740500Y-122853465D01*
X181740500Y-122646535D01*
X181740499Y-122646530D01*
X182179500Y-122646530D01*
X182179500Y-122853469D01*
X182219868Y-123056412D01*
X182219870Y-123056420D01*
X182285939Y-123215925D01*
X182299059Y-123247598D01*
X182323340Y-123283937D01*
X182414024Y-123419657D01*
X182560342Y-123565975D01*
X182560345Y-123565977D01*
X182732402Y-123680941D01*
X182923580Y-123760130D01*
X183126530Y-123800499D01*
X183126534Y-123800500D01*
X183126535Y-123800500D01*
X183333466Y-123800500D01*
X183333467Y-123800499D01*
X183536420Y-123760130D01*
X183727598Y-123680941D01*
X183899655Y-123565977D01*
X184045977Y-123419655D01*
X184160941Y-123247598D01*
X184229165Y-123082889D01*
X184273004Y-123028488D01*
X184339298Y-123006423D01*
X184406998Y-123023702D01*
X184454609Y-123074839D01*
X184461656Y-123092026D01*
X184518904Y-123268216D01*
X184615375Y-123457550D01*
X184654728Y-123511716D01*
X185287037Y-122879408D01*
X185304075Y-122942993D01*
X185369901Y-123057007D01*
X185462993Y-123150099D01*
X185577007Y-123215925D01*
X185640590Y-123232962D01*
X185008282Y-123865269D01*
X185008282Y-123865270D01*
X185062449Y-123904624D01*
X185251782Y-124001095D01*
X185453870Y-124066757D01*
X185663754Y-124100000D01*
X185876246Y-124100000D01*
X186086127Y-124066757D01*
X186086130Y-124066757D01*
X186288217Y-124001095D01*
X186477554Y-123904622D01*
X186531716Y-123865270D01*
X186531717Y-123865270D01*
X185899408Y-123232962D01*
X185962993Y-123215925D01*
X186077007Y-123150099D01*
X186170099Y-123057007D01*
X186235925Y-122942993D01*
X186252962Y-122879408D01*
X186885270Y-123511717D01*
X186885270Y-123511716D01*
X186924622Y-123457554D01*
X187023306Y-123263879D01*
X187024321Y-123264396D01*
X187064779Y-123214192D01*
X187131073Y-123192127D01*
X187198772Y-123209406D01*
X187246383Y-123260542D01*
X187259500Y-123316048D01*
X187259500Y-123619752D01*
X187271131Y-123678229D01*
X187271132Y-123678230D01*
X187315447Y-123744552D01*
X187381769Y-123788867D01*
X187381770Y-123788868D01*
X187440247Y-123800499D01*
X187440250Y-123800500D01*
X187440252Y-123800500D01*
X189179750Y-123800500D01*
X189179751Y-123800499D01*
X189194568Y-123797552D01*
X189238229Y-123788868D01*
X189238229Y-123788867D01*
X189238231Y-123788867D01*
X189304552Y-123744552D01*
X189348867Y-123678231D01*
X189348867Y-123678229D01*
X189348868Y-123678229D01*
X189360499Y-123619752D01*
X189360500Y-123619750D01*
X189360500Y-122259108D01*
X193074500Y-122259108D01*
X193074500Y-122390892D01*
X193090472Y-122450500D01*
X193108608Y-122518187D01*
X193137943Y-122568995D01*
X193174500Y-122632314D01*
X193267686Y-122725500D01*
X193381814Y-122791392D01*
X193509108Y-122825500D01*
X193509110Y-122825500D01*
X193640890Y-122825500D01*
X193640892Y-122825500D01*
X193768186Y-122791392D01*
X193882314Y-122725500D01*
X193900288Y-122707526D01*
X214275000Y-122707526D01*
X214275000Y-122892473D01*
X214303933Y-123075147D01*
X214361083Y-123251040D01*
X214361084Y-123251043D01*
X214445050Y-123415834D01*
X214460015Y-123436430D01*
X214460016Y-123436431D01*
X215050000Y-122846447D01*
X215050000Y-122852661D01*
X215077259Y-122954394D01*
X215129920Y-123045606D01*
X215204394Y-123120080D01*
X215295606Y-123172741D01*
X215397339Y-123200000D01*
X215403553Y-123200000D01*
X214813568Y-123789983D01*
X214813568Y-123789984D01*
X214834165Y-123804949D01*
X214998956Y-123888915D01*
X214998959Y-123888916D01*
X215174852Y-123946066D01*
X215357527Y-123975000D01*
X215542473Y-123975000D01*
X215725147Y-123946066D01*
X215901040Y-123888916D01*
X215901043Y-123888915D01*
X216065836Y-123804947D01*
X216065845Y-123804942D01*
X216086430Y-123789984D01*
X216086431Y-123789983D01*
X215496448Y-123200000D01*
X215502661Y-123200000D01*
X215604394Y-123172741D01*
X215695606Y-123120080D01*
X215770080Y-123045606D01*
X215822741Y-122954394D01*
X215850000Y-122852661D01*
X215850000Y-122846448D01*
X216439983Y-123436431D01*
X216439984Y-123436430D01*
X216454942Y-123415845D01*
X216454947Y-123415836D01*
X216538915Y-123251043D01*
X216538916Y-123251040D01*
X216596066Y-123075147D01*
X216625000Y-122892473D01*
X216625000Y-122707526D01*
X216596066Y-122524852D01*
X216538916Y-122348959D01*
X216538915Y-122348956D01*
X216454949Y-122184165D01*
X216439983Y-122163568D01*
X215850000Y-122753551D01*
X215850000Y-122747339D01*
X215822741Y-122645606D01*
X215770080Y-122554394D01*
X215695606Y-122479920D01*
X215604394Y-122427259D01*
X215502661Y-122400000D01*
X215496447Y-122400000D01*
X216086430Y-121810016D01*
X216085551Y-121798845D01*
X216099915Y-121730468D01*
X216148965Y-121680710D01*
X216184977Y-121667497D01*
X216203231Y-121663867D01*
X216269552Y-121619552D01*
X216313867Y-121553231D01*
X216313867Y-121553229D01*
X216313868Y-121553229D01*
X216325499Y-121494752D01*
X216325500Y-121494750D01*
X216325500Y-120105249D01*
X216325499Y-120105247D01*
X216313868Y-120046770D01*
X216313867Y-120046769D01*
X216269552Y-119980447D01*
X216203230Y-119936132D01*
X216203229Y-119936131D01*
X216144752Y-119924500D01*
X216144748Y-119924500D01*
X214755252Y-119924500D01*
X214755247Y-119924500D01*
X214696770Y-119936131D01*
X214696769Y-119936132D01*
X214630447Y-119980447D01*
X214586132Y-120046769D01*
X214586131Y-120046770D01*
X214574500Y-120105247D01*
X214574500Y-121494752D01*
X214586131Y-121553229D01*
X214586132Y-121553230D01*
X214630447Y-121619552D01*
X214696769Y-121663867D01*
X214696770Y-121663868D01*
X214715020Y-121667498D01*
X214776931Y-121699882D01*
X214811505Y-121760598D01*
X214814447Y-121798844D01*
X214813567Y-121810014D01*
X215403554Y-122400000D01*
X215397339Y-122400000D01*
X215295606Y-122427259D01*
X215204394Y-122479920D01*
X215129920Y-122554394D01*
X215077259Y-122645606D01*
X215050000Y-122747339D01*
X215050000Y-122753553D01*
X214460015Y-122163568D01*
X214445049Y-122184167D01*
X214361084Y-122348956D01*
X214361083Y-122348959D01*
X214303933Y-122524852D01*
X214275000Y-122707526D01*
X193900288Y-122707526D01*
X193975500Y-122632314D01*
X194041392Y-122518186D01*
X194075500Y-122390892D01*
X194075500Y-122259108D01*
X194041392Y-122131814D01*
X193975500Y-122017686D01*
X193882314Y-121924500D01*
X193824911Y-121891358D01*
X193768187Y-121858608D01*
X193721909Y-121846208D01*
X193721907Y-121846207D01*
X193640892Y-121824500D01*
X193509108Y-121824500D01*
X193381812Y-121858608D01*
X193267686Y-121924500D01*
X193267683Y-121924502D01*
X193174502Y-122017683D01*
X193174500Y-122017686D01*
X193108608Y-122131812D01*
X193081822Y-122231781D01*
X193074500Y-122259108D01*
X189360500Y-122259108D01*
X189360500Y-121880249D01*
X189360499Y-121880247D01*
X189348868Y-121821770D01*
X189348867Y-121821769D01*
X189304552Y-121755447D01*
X189238230Y-121711132D01*
X189238229Y-121711131D01*
X189179752Y-121699500D01*
X189179748Y-121699500D01*
X187440252Y-121699500D01*
X187440247Y-121699500D01*
X187381770Y-121711131D01*
X187381769Y-121711132D01*
X187315447Y-121755447D01*
X187271132Y-121821769D01*
X187271131Y-121821770D01*
X187259500Y-121880247D01*
X187259500Y-122183951D01*
X187239815Y-122250990D01*
X187187011Y-122296745D01*
X187117853Y-122306689D01*
X187054297Y-122277664D01*
X187024061Y-122235736D01*
X187023306Y-122236121D01*
X186924624Y-122042449D01*
X186885270Y-121988282D01*
X186885269Y-121988282D01*
X186252962Y-122620590D01*
X186235925Y-122557007D01*
X186170099Y-122442993D01*
X186077007Y-122349901D01*
X185962993Y-122284075D01*
X185899409Y-122267037D01*
X186531716Y-121634728D01*
X186477550Y-121595375D01*
X186288217Y-121498904D01*
X186086129Y-121433242D01*
X185876246Y-121400000D01*
X185663754Y-121400000D01*
X185453872Y-121433242D01*
X185453869Y-121433242D01*
X185251782Y-121498904D01*
X185062439Y-121595380D01*
X185008282Y-121634727D01*
X185008282Y-121634728D01*
X185640591Y-122267037D01*
X185577007Y-122284075D01*
X185462993Y-122349901D01*
X185369901Y-122442993D01*
X185304075Y-122557007D01*
X185287037Y-122620590D01*
X184654728Y-121988282D01*
X184654727Y-121988282D01*
X184615380Y-122042439D01*
X184518905Y-122231781D01*
X184461656Y-122407974D01*
X184422218Y-122465649D01*
X184357859Y-122492847D01*
X184289013Y-122480932D01*
X184237537Y-122433688D01*
X184229164Y-122417107D01*
X184160943Y-122252405D01*
X184045975Y-122080342D01*
X183899657Y-121934024D01*
X183782057Y-121855447D01*
X183727598Y-121819059D01*
X183727443Y-121818995D01*
X183673252Y-121796548D01*
X183536420Y-121739870D01*
X183536412Y-121739868D01*
X183333469Y-121699500D01*
X183333465Y-121699500D01*
X183126535Y-121699500D01*
X183126530Y-121699500D01*
X182923587Y-121739868D01*
X182923579Y-121739870D01*
X182732403Y-121819058D01*
X182560342Y-121934024D01*
X182414024Y-122080342D01*
X182299058Y-122252403D01*
X182219870Y-122443579D01*
X182219868Y-122443587D01*
X182179500Y-122646530D01*
X181740499Y-122646530D01*
X181700130Y-122443580D01*
X181620941Y-122252402D01*
X181505977Y-122080345D01*
X181505975Y-122080342D01*
X181359657Y-121934024D01*
X181242057Y-121855447D01*
X181187598Y-121819059D01*
X181187443Y-121818995D01*
X180996420Y-121739870D01*
X180996412Y-121739868D01*
X180793469Y-121699500D01*
X180793465Y-121699500D01*
X180586535Y-121699500D01*
X180586530Y-121699500D01*
X180383587Y-121739868D01*
X180383579Y-121739870D01*
X180192403Y-121819058D01*
X180020342Y-121934024D01*
X179874024Y-122080342D01*
X179759058Y-122252403D01*
X179679870Y-122443579D01*
X179679868Y-122443587D01*
X179639500Y-122646530D01*
X171705077Y-122646530D01*
X171707904Y-122632316D01*
X171711100Y-122616252D01*
X171711100Y-122616251D01*
X171720500Y-122568995D01*
X171720500Y-122431004D01*
X171693581Y-122295677D01*
X171693580Y-122295676D01*
X171693580Y-122295672D01*
X171678435Y-122259108D01*
X171640778Y-122168195D01*
X171640771Y-122168182D01*
X171564114Y-122053458D01*
X171564111Y-122053454D01*
X171463338Y-121952681D01*
X171429853Y-121891358D01*
X171434837Y-121821666D01*
X171463338Y-121777319D01*
X171564111Y-121676545D01*
X171564114Y-121676542D01*
X171640775Y-121561811D01*
X171693580Y-121434328D01*
X171712314Y-121340147D01*
X171720500Y-121298995D01*
X171720500Y-121184108D01*
X172249500Y-121184108D01*
X172249500Y-121315891D01*
X172283608Y-121443187D01*
X172289003Y-121452531D01*
X172349500Y-121557314D01*
X172442686Y-121650500D01*
X172556814Y-121716392D01*
X172684108Y-121750500D01*
X172684110Y-121750500D01*
X172815890Y-121750500D01*
X172815892Y-121750500D01*
X172943186Y-121716392D01*
X173057314Y-121650500D01*
X173150500Y-121557314D01*
X173216392Y-121443186D01*
X173250500Y-121315892D01*
X173250500Y-121184108D01*
X173216392Y-121056814D01*
X173203283Y-121034108D01*
X193249500Y-121034108D01*
X193249500Y-121165892D01*
X193260216Y-121205885D01*
X193283608Y-121293187D01*
X193298042Y-121318187D01*
X193349500Y-121407314D01*
X193442686Y-121500500D01*
X193520926Y-121545672D01*
X193555944Y-121565890D01*
X193556814Y-121566392D01*
X193684108Y-121600500D01*
X193755568Y-121600500D01*
X193815890Y-121600500D01*
X193815892Y-121600500D01*
X193943186Y-121566392D01*
X194057314Y-121500500D01*
X194087319Y-121470495D01*
X194148642Y-121437010D01*
X194218334Y-121441994D01*
X194262681Y-121470495D01*
X194317686Y-121525500D01*
X194431814Y-121591392D01*
X194559108Y-121625500D01*
X194559110Y-121625500D01*
X194690890Y-121625500D01*
X194690892Y-121625500D01*
X194818186Y-121591392D01*
X194932314Y-121525500D01*
X195025500Y-121432314D01*
X195091392Y-121318186D01*
X195125500Y-121190892D01*
X195125500Y-121059108D01*
X195091392Y-120931814D01*
X195025500Y-120817686D01*
X194932314Y-120724500D01*
X194865431Y-120685885D01*
X194818187Y-120658608D01*
X194754539Y-120641554D01*
X194690892Y-120624500D01*
X194559108Y-120624500D01*
X194431812Y-120658608D01*
X194317686Y-120724500D01*
X194287678Y-120754507D01*
X194226354Y-120787990D01*
X194156662Y-120783004D01*
X194112318Y-120754504D01*
X194057316Y-120699502D01*
X194057314Y-120699500D01*
X193986487Y-120658608D01*
X193943187Y-120633608D01*
X193879539Y-120616554D01*
X193815892Y-120599500D01*
X193684108Y-120599500D01*
X193556812Y-120633608D01*
X193442686Y-120699500D01*
X193442683Y-120699502D01*
X193349502Y-120792683D01*
X193349500Y-120792686D01*
X193283608Y-120906812D01*
X193276909Y-120931814D01*
X193249500Y-121034108D01*
X173203283Y-121034108D01*
X173150500Y-120942686D01*
X173057314Y-120849500D01*
X172958910Y-120792686D01*
X172943187Y-120783608D01*
X172879539Y-120766554D01*
X172815892Y-120749500D01*
X172684108Y-120749500D01*
X172556812Y-120783608D01*
X172442686Y-120849500D01*
X172442683Y-120849502D01*
X172349502Y-120942683D01*
X172349500Y-120942686D01*
X172283608Y-121056812D01*
X172249500Y-121184108D01*
X171720500Y-121184108D01*
X171720500Y-121161004D01*
X171693581Y-121025677D01*
X171693580Y-121025676D01*
X171693580Y-121025672D01*
X171682739Y-120999500D01*
X171640778Y-120898195D01*
X171640771Y-120898182D01*
X171564114Y-120783458D01*
X171564111Y-120783454D01*
X171466545Y-120685888D01*
X171466541Y-120685885D01*
X171351817Y-120609228D01*
X171351804Y-120609221D01*
X171224332Y-120556421D01*
X171224322Y-120556418D01*
X171088995Y-120529500D01*
X171088993Y-120529500D01*
X170951007Y-120529500D01*
X170951005Y-120529500D01*
X170815677Y-120556418D01*
X170815667Y-120556421D01*
X170688195Y-120609221D01*
X170688182Y-120609228D01*
X170573458Y-120685885D01*
X170573454Y-120685888D01*
X170472681Y-120786662D01*
X170411358Y-120820147D01*
X170341666Y-120815163D01*
X170297319Y-120786662D01*
X170196545Y-120685888D01*
X170196541Y-120685885D01*
X170081817Y-120609228D01*
X170081804Y-120609221D01*
X169954332Y-120556421D01*
X169954322Y-120556418D01*
X169818995Y-120529500D01*
X169818993Y-120529500D01*
X169681007Y-120529500D01*
X169681005Y-120529500D01*
X169545677Y-120556418D01*
X169545667Y-120556421D01*
X169418195Y-120609221D01*
X169418182Y-120609228D01*
X169303458Y-120685885D01*
X169303454Y-120685888D01*
X169202681Y-120786662D01*
X169141358Y-120820147D01*
X169071666Y-120815163D01*
X169027319Y-120786662D01*
X168926545Y-120685888D01*
X168926541Y-120685885D01*
X168811817Y-120609228D01*
X168811804Y-120609221D01*
X168684332Y-120556421D01*
X168684322Y-120556418D01*
X168548995Y-120529500D01*
X168548993Y-120529500D01*
X168411007Y-120529500D01*
X168411005Y-120529500D01*
X168275677Y-120556418D01*
X168275667Y-120556421D01*
X168148195Y-120609221D01*
X168148182Y-120609228D01*
X168033458Y-120685885D01*
X168033454Y-120685888D01*
X167935888Y-120783454D01*
X167935885Y-120783458D01*
X167859228Y-120898182D01*
X167859221Y-120898195D01*
X167806421Y-121025667D01*
X167806418Y-121025677D01*
X167779500Y-121161004D01*
X167779500Y-121161007D01*
X167779500Y-121298993D01*
X167779500Y-121298995D01*
X167779499Y-121298995D01*
X165309652Y-121298995D01*
X165216545Y-121205888D01*
X165216541Y-121205885D01*
X165101817Y-121129228D01*
X165101804Y-121129221D01*
X164974332Y-121076421D01*
X164974322Y-121076418D01*
X164838995Y-121049500D01*
X164838993Y-121049500D01*
X164701007Y-121049500D01*
X164701005Y-121049500D01*
X164565677Y-121076418D01*
X164565667Y-121076421D01*
X164438195Y-121129221D01*
X164438182Y-121129228D01*
X164323458Y-121205885D01*
X164323454Y-121205888D01*
X164222681Y-121306662D01*
X164161358Y-121340147D01*
X164091666Y-121335163D01*
X164047319Y-121306662D01*
X163946545Y-121205888D01*
X163946541Y-121205885D01*
X163831817Y-121129228D01*
X163831804Y-121129221D01*
X163704332Y-121076421D01*
X163704322Y-121076418D01*
X163568995Y-121049500D01*
X163568993Y-121049500D01*
X163431007Y-121049500D01*
X163431005Y-121049500D01*
X163295677Y-121076418D01*
X163295667Y-121076421D01*
X163168195Y-121129221D01*
X163168177Y-121129231D01*
X163079270Y-121188637D01*
X163012593Y-121209515D01*
X162945213Y-121191030D01*
X162907279Y-121154427D01*
X162874552Y-121105448D01*
X162865654Y-121099502D01*
X162808230Y-121061132D01*
X162808229Y-121061131D01*
X162749752Y-121049500D01*
X162749748Y-121049500D01*
X161710252Y-121049500D01*
X161710247Y-121049500D01*
X161651770Y-121061131D01*
X161651769Y-121061132D01*
X161585447Y-121105447D01*
X161541132Y-121171769D01*
X161541131Y-121171770D01*
X161529500Y-121230247D01*
X157672186Y-121230247D01*
X157650500Y-121192686D01*
X157557314Y-121099500D01*
X157483380Y-121056814D01*
X157443187Y-121033608D01*
X157379539Y-121016554D01*
X157315892Y-120999500D01*
X157184108Y-120999500D01*
X157056812Y-121033608D01*
X156942686Y-121099500D01*
X156942683Y-121099502D01*
X156849502Y-121192683D01*
X156849500Y-121192686D01*
X156783608Y-121306812D01*
X156758639Y-121400000D01*
X156749500Y-121434108D01*
X152500500Y-121434108D01*
X152500500Y-119934108D01*
X173249500Y-119934108D01*
X173249500Y-120065891D01*
X173283608Y-120193187D01*
X173316554Y-120250250D01*
X173349500Y-120307314D01*
X173442686Y-120400500D01*
X173556814Y-120466392D01*
X173684108Y-120500500D01*
X173684110Y-120500500D01*
X173815890Y-120500500D01*
X173815892Y-120500500D01*
X173943186Y-120466392D01*
X174057314Y-120400500D01*
X174150500Y-120307314D01*
X174216392Y-120193186D01*
X174250500Y-120065892D01*
X174250500Y-119934108D01*
X174749500Y-119934108D01*
X174749500Y-120065891D01*
X174783608Y-120193187D01*
X174816554Y-120250250D01*
X174849500Y-120307314D01*
X174942686Y-120400500D01*
X175056814Y-120466392D01*
X175184108Y-120500500D01*
X175184110Y-120500500D01*
X175315890Y-120500500D01*
X175315892Y-120500500D01*
X175443186Y-120466392D01*
X175557314Y-120400500D01*
X175650500Y-120307314D01*
X175716392Y-120193186D01*
X175750500Y-120065892D01*
X175750500Y-119934108D01*
X184999500Y-119934108D01*
X184999500Y-120065891D01*
X185033608Y-120193187D01*
X185066554Y-120250250D01*
X185099500Y-120307314D01*
X185192686Y-120400500D01*
X185306814Y-120466392D01*
X185434108Y-120500500D01*
X185434110Y-120500500D01*
X185565890Y-120500500D01*
X185565892Y-120500500D01*
X185693186Y-120466392D01*
X185807314Y-120400500D01*
X185900500Y-120307314D01*
X185966392Y-120193186D01*
X186000500Y-120065892D01*
X186000500Y-119934108D01*
X185966392Y-119806814D01*
X185900500Y-119692686D01*
X185807314Y-119599500D01*
X185750250Y-119566554D01*
X185693187Y-119533608D01*
X185629539Y-119516554D01*
X185565892Y-119499500D01*
X185434108Y-119499500D01*
X185306812Y-119533608D01*
X185192686Y-119599500D01*
X185192683Y-119599502D01*
X185099502Y-119692683D01*
X185099500Y-119692686D01*
X185033608Y-119806812D01*
X184999500Y-119934108D01*
X175750500Y-119934108D01*
X175716392Y-119806814D01*
X175650500Y-119692686D01*
X175557314Y-119599500D01*
X175500250Y-119566554D01*
X175443187Y-119533608D01*
X175379539Y-119516554D01*
X175315892Y-119499500D01*
X175184108Y-119499500D01*
X175056812Y-119533608D01*
X174942686Y-119599500D01*
X174942683Y-119599502D01*
X174849502Y-119692683D01*
X174849500Y-119692686D01*
X174783608Y-119806812D01*
X174749500Y-119934108D01*
X174250500Y-119934108D01*
X174216392Y-119806814D01*
X174150500Y-119692686D01*
X174057314Y-119599500D01*
X174000250Y-119566554D01*
X173943187Y-119533608D01*
X173879539Y-119516554D01*
X173815892Y-119499500D01*
X173684108Y-119499500D01*
X173556812Y-119533608D01*
X173442686Y-119599500D01*
X173442683Y-119599502D01*
X173349502Y-119692683D01*
X173349500Y-119692686D01*
X173283608Y-119806812D01*
X173249500Y-119934108D01*
X152500500Y-119934108D01*
X152500500Y-118684108D01*
X159999500Y-118684108D01*
X159999500Y-118815891D01*
X160033608Y-118943187D01*
X160066554Y-119000250D01*
X160099500Y-119057314D01*
X160192686Y-119150500D01*
X160306814Y-119216392D01*
X160434108Y-119250500D01*
X160434110Y-119250500D01*
X160565890Y-119250500D01*
X160565892Y-119250500D01*
X160693186Y-119216392D01*
X160807314Y-119150500D01*
X160900500Y-119057314D01*
X160966392Y-118943186D01*
X161000500Y-118815892D01*
X161000500Y-118684108D01*
X160966392Y-118556814D01*
X160900500Y-118442686D01*
X160807314Y-118349500D01*
X160750250Y-118316554D01*
X160693187Y-118283608D01*
X160629539Y-118266554D01*
X160565892Y-118249500D01*
X160434108Y-118249500D01*
X160306812Y-118283608D01*
X160192686Y-118349500D01*
X160192683Y-118349502D01*
X160099502Y-118442683D01*
X160099500Y-118442686D01*
X160033608Y-118556812D01*
X159999500Y-118684108D01*
X152500500Y-118684108D01*
X152500500Y-117434108D01*
X186499500Y-117434108D01*
X186499500Y-117565891D01*
X186533608Y-117693187D01*
X186566554Y-117750250D01*
X186599500Y-117807314D01*
X186692686Y-117900500D01*
X186806814Y-117966392D01*
X186934108Y-118000500D01*
X186934110Y-118000500D01*
X187065890Y-118000500D01*
X187065892Y-118000500D01*
X187193186Y-117966392D01*
X187307314Y-117900500D01*
X187400500Y-117807314D01*
X187466392Y-117693186D01*
X187468824Y-117684108D01*
X194399500Y-117684108D01*
X194399500Y-117815891D01*
X194433608Y-117943187D01*
X194447005Y-117966391D01*
X194499500Y-118057314D01*
X194592686Y-118150500D01*
X194706814Y-118216392D01*
X194834108Y-118250500D01*
X194834110Y-118250500D01*
X194965890Y-118250500D01*
X194965892Y-118250500D01*
X195093186Y-118216392D01*
X195207314Y-118150500D01*
X195300500Y-118057314D01*
X195366392Y-117943186D01*
X195400500Y-117815892D01*
X195400500Y-117684108D01*
X195366392Y-117556814D01*
X195300500Y-117442686D01*
X195207314Y-117349500D01*
X195150250Y-117316554D01*
X195093187Y-117283608D01*
X195029539Y-117266554D01*
X194965892Y-117249500D01*
X194834108Y-117249500D01*
X194706812Y-117283608D01*
X194592686Y-117349500D01*
X194592683Y-117349502D01*
X194499502Y-117442683D01*
X194499500Y-117442686D01*
X194433608Y-117556812D01*
X194399500Y-117684108D01*
X187468824Y-117684108D01*
X187500500Y-117565892D01*
X187500500Y-117434108D01*
X187466392Y-117306814D01*
X187400500Y-117192686D01*
X187307314Y-117099500D01*
X187193186Y-117033608D01*
X187065892Y-116999500D01*
X186934108Y-116999500D01*
X186806812Y-117033608D01*
X186692686Y-117099500D01*
X186692683Y-117099502D01*
X186599502Y-117192683D01*
X186599500Y-117192686D01*
X186533608Y-117306812D01*
X186499500Y-117434108D01*
X152500500Y-117434108D01*
X152500500Y-116434108D01*
X166249500Y-116434108D01*
X166249500Y-116565891D01*
X166283608Y-116693187D01*
X166305187Y-116730562D01*
X166349500Y-116807314D01*
X166442686Y-116900500D01*
X166556814Y-116966392D01*
X166684108Y-117000500D01*
X166684110Y-117000500D01*
X166815890Y-117000500D01*
X166815892Y-117000500D01*
X166943186Y-116966392D01*
X167057314Y-116900500D01*
X167150500Y-116807314D01*
X167216392Y-116693186D01*
X167250500Y-116565892D01*
X167250500Y-116434108D01*
X167999500Y-116434108D01*
X167999500Y-116565891D01*
X168033608Y-116693187D01*
X168055187Y-116730562D01*
X168099500Y-116807314D01*
X168192686Y-116900500D01*
X168306814Y-116966392D01*
X168434108Y-117000500D01*
X168434110Y-117000500D01*
X168565890Y-117000500D01*
X168565892Y-117000500D01*
X168693186Y-116966392D01*
X168749103Y-116934108D01*
X208849500Y-116934108D01*
X208849500Y-117065891D01*
X208883608Y-117193187D01*
X208916121Y-117249500D01*
X208949500Y-117307314D01*
X209042686Y-117400500D01*
X209156814Y-117466392D01*
X209284108Y-117500500D01*
X209284110Y-117500500D01*
X209415890Y-117500500D01*
X209415892Y-117500500D01*
X209543186Y-117466392D01*
X209657314Y-117400500D01*
X209750500Y-117307314D01*
X209816392Y-117193186D01*
X209850500Y-117065892D01*
X209850500Y-116934108D01*
X209816392Y-116806814D01*
X209750500Y-116692686D01*
X209657314Y-116599500D01*
X209552297Y-116538868D01*
X209543187Y-116533608D01*
X209479539Y-116516554D01*
X209415892Y-116499500D01*
X209284108Y-116499500D01*
X209156812Y-116533608D01*
X209042686Y-116599500D01*
X209042683Y-116599502D01*
X208949502Y-116692683D01*
X208949500Y-116692686D01*
X208883608Y-116806812D01*
X208849500Y-116934108D01*
X168749103Y-116934108D01*
X168807314Y-116900500D01*
X168807315Y-116900498D01*
X168814352Y-116896436D01*
X168815131Y-116897786D01*
X168871671Y-116875930D01*
X168881987Y-116875500D01*
X173549435Y-116875500D01*
X173549436Y-116875500D01*
X173597186Y-116862705D01*
X173644938Y-116849910D01*
X173730562Y-116800475D01*
X173800475Y-116730562D01*
X175096929Y-115434108D01*
X193749500Y-115434108D01*
X193749500Y-115565891D01*
X193783608Y-115693187D01*
X193816554Y-115750250D01*
X193849500Y-115807314D01*
X193942686Y-115900500D01*
X194056814Y-115966392D01*
X194184108Y-116000500D01*
X194184110Y-116000500D01*
X194315890Y-116000500D01*
X194315892Y-116000500D01*
X194443186Y-115966392D01*
X194557314Y-115900500D01*
X194650500Y-115807314D01*
X194716392Y-115693186D01*
X194750500Y-115565892D01*
X194750500Y-115434108D01*
X195049500Y-115434108D01*
X195049500Y-115565891D01*
X195083608Y-115693187D01*
X195116554Y-115750250D01*
X195149500Y-115807314D01*
X195242686Y-115900500D01*
X195356814Y-115966392D01*
X195484108Y-116000500D01*
X195484110Y-116000500D01*
X195615890Y-116000500D01*
X195615892Y-116000500D01*
X195743186Y-115966392D01*
X195857314Y-115900500D01*
X195950500Y-115807314D01*
X196016392Y-115693186D01*
X196050500Y-115565892D01*
X196050500Y-115434108D01*
X196016392Y-115306814D01*
X195950500Y-115192686D01*
X195857314Y-115099500D01*
X195772442Y-115050499D01*
X195743187Y-115033608D01*
X195678931Y-115016391D01*
X195615892Y-114999500D01*
X195484108Y-114999500D01*
X195356812Y-115033608D01*
X195242686Y-115099500D01*
X195242683Y-115099502D01*
X195149502Y-115192683D01*
X195149500Y-115192686D01*
X195083608Y-115306812D01*
X195049500Y-115434108D01*
X194750500Y-115434108D01*
X194716392Y-115306814D01*
X194650500Y-115192686D01*
X194557314Y-115099500D01*
X194472442Y-115050499D01*
X194443187Y-115033608D01*
X194378931Y-115016391D01*
X194315892Y-114999500D01*
X194184108Y-114999500D01*
X194056812Y-115033608D01*
X193942686Y-115099500D01*
X193942683Y-115099502D01*
X193849502Y-115192683D01*
X193849500Y-115192686D01*
X193783608Y-115306812D01*
X193749500Y-115434108D01*
X175096929Y-115434108D01*
X175300474Y-115230563D01*
X175300475Y-115230562D01*
X175349910Y-115144938D01*
X175375500Y-115049435D01*
X175375500Y-114630247D01*
X214449500Y-114630247D01*
X214449500Y-116369752D01*
X214461131Y-116428229D01*
X214461132Y-116428230D01*
X214505447Y-116494552D01*
X214571769Y-116538867D01*
X214571770Y-116538868D01*
X214630247Y-116550499D01*
X214630250Y-116550500D01*
X214630252Y-116550500D01*
X216369750Y-116550500D01*
X216369751Y-116550499D01*
X216384568Y-116547552D01*
X216428229Y-116538868D01*
X216428229Y-116538867D01*
X216428231Y-116538867D01*
X216494552Y-116494552D01*
X216538867Y-116428231D01*
X216538867Y-116428229D01*
X216538868Y-116428229D01*
X216550499Y-116369752D01*
X216550500Y-116369750D01*
X216550500Y-114630249D01*
X216550499Y-114630247D01*
X216538868Y-114571770D01*
X216538867Y-114571769D01*
X216494552Y-114505447D01*
X216428230Y-114461132D01*
X216428229Y-114461131D01*
X216369752Y-114449500D01*
X216369748Y-114449500D01*
X214630252Y-114449500D01*
X214630247Y-114449500D01*
X214571770Y-114461131D01*
X214571769Y-114461132D01*
X214505447Y-114505447D01*
X214461132Y-114571769D01*
X214461131Y-114571770D01*
X214449500Y-114630247D01*
X175375500Y-114630247D01*
X175375500Y-112934108D01*
X182499500Y-112934108D01*
X182499500Y-113065891D01*
X182533608Y-113193187D01*
X182566554Y-113250250D01*
X182599500Y-113307314D01*
X182692686Y-113400500D01*
X182806814Y-113466392D01*
X182934108Y-113500500D01*
X182934110Y-113500500D01*
X183065890Y-113500500D01*
X183065892Y-113500500D01*
X183193186Y-113466392D01*
X183249103Y-113434108D01*
X187749500Y-113434108D01*
X187749500Y-113565891D01*
X187783608Y-113693187D01*
X187816554Y-113750250D01*
X187849500Y-113807314D01*
X187942686Y-113900500D01*
X188056814Y-113966392D01*
X188184108Y-114000500D01*
X188184110Y-114000500D01*
X188315890Y-114000500D01*
X188315892Y-114000500D01*
X188443186Y-113966392D01*
X188557314Y-113900500D01*
X188650500Y-113807314D01*
X188716392Y-113693186D01*
X188750500Y-113565892D01*
X188750500Y-113434108D01*
X188716392Y-113306814D01*
X188650500Y-113192686D01*
X188557314Y-113099500D01*
X188494907Y-113063469D01*
X188443187Y-113033608D01*
X188379539Y-113016554D01*
X188315892Y-112999500D01*
X188184108Y-112999500D01*
X188056812Y-113033608D01*
X187942686Y-113099500D01*
X187942683Y-113099502D01*
X187849502Y-113192683D01*
X187849500Y-113192686D01*
X187783608Y-113306812D01*
X187749500Y-113434108D01*
X183249103Y-113434108D01*
X183307314Y-113400500D01*
X183400500Y-113307314D01*
X183466392Y-113193186D01*
X183500500Y-113065892D01*
X183500500Y-112934108D01*
X183466392Y-112806814D01*
X183400500Y-112692686D01*
X183307314Y-112599500D01*
X183193186Y-112533608D01*
X183065892Y-112499500D01*
X182934108Y-112499500D01*
X182806812Y-112533608D01*
X182692686Y-112599500D01*
X182692683Y-112599502D01*
X182599502Y-112692683D01*
X182599500Y-112692686D01*
X182533608Y-112806812D01*
X182499500Y-112934108D01*
X175375500Y-112934108D01*
X175375500Y-112434108D01*
X189499500Y-112434108D01*
X189499500Y-112565891D01*
X189533608Y-112693187D01*
X189566554Y-112750250D01*
X189599500Y-112807314D01*
X189692686Y-112900500D01*
X189806814Y-112966392D01*
X189934108Y-113000500D01*
X189934110Y-113000500D01*
X190065890Y-113000500D01*
X190065892Y-113000500D01*
X190193186Y-112966392D01*
X190307314Y-112900500D01*
X190400500Y-112807314D01*
X190466392Y-112693186D01*
X190500500Y-112565892D01*
X190500500Y-112434108D01*
X190466392Y-112306814D01*
X190400500Y-112192686D01*
X190307314Y-112099500D01*
X190249100Y-112065890D01*
X190193187Y-112033608D01*
X190129539Y-112016554D01*
X190065892Y-111999500D01*
X189934108Y-111999500D01*
X189806812Y-112033608D01*
X189692686Y-112099500D01*
X189692683Y-112099502D01*
X189599502Y-112192683D01*
X189599500Y-112192686D01*
X189533608Y-112306812D01*
X189499500Y-112434108D01*
X175375500Y-112434108D01*
X175375500Y-111881986D01*
X175395185Y-111814947D01*
X175400258Y-111807732D01*
X175400498Y-111807315D01*
X175400500Y-111807314D01*
X175466392Y-111693186D01*
X175500500Y-111565892D01*
X175500500Y-111565890D01*
X175502603Y-111558042D01*
X175504109Y-111558445D01*
X175528631Y-111503012D01*
X175535612Y-111495424D01*
X176346928Y-110684108D01*
X177749500Y-110684108D01*
X177749500Y-110815891D01*
X177783608Y-110943187D01*
X177815174Y-110997860D01*
X177849500Y-111057314D01*
X177942686Y-111150500D01*
X178056814Y-111216392D01*
X178184108Y-111250500D01*
X178184110Y-111250500D01*
X178315890Y-111250500D01*
X178315892Y-111250500D01*
X178443186Y-111216392D01*
X178557314Y-111150500D01*
X178650500Y-111057314D01*
X178716392Y-110943186D01*
X178718824Y-110934108D01*
X178999500Y-110934108D01*
X178999500Y-111065892D01*
X179008505Y-111099500D01*
X179033608Y-111193187D01*
X179066121Y-111249500D01*
X179099500Y-111307314D01*
X179192686Y-111400500D01*
X179306814Y-111466392D01*
X179434108Y-111500500D01*
X179434110Y-111500500D01*
X179565890Y-111500500D01*
X179565892Y-111500500D01*
X179693186Y-111466392D01*
X179807314Y-111400500D01*
X179900500Y-111307314D01*
X179966392Y-111193186D01*
X180000500Y-111065892D01*
X180000500Y-110934108D01*
X180499500Y-110934108D01*
X180499500Y-111065892D01*
X180508505Y-111099500D01*
X180533608Y-111193187D01*
X180566121Y-111249500D01*
X180599500Y-111307314D01*
X180692686Y-111400500D01*
X180806814Y-111466392D01*
X180934108Y-111500500D01*
X180934110Y-111500500D01*
X181065890Y-111500500D01*
X181065892Y-111500500D01*
X181109251Y-111488882D01*
X181179097Y-111490543D01*
X181236961Y-111529705D01*
X181264466Y-111593933D01*
X181261118Y-111640749D01*
X181249500Y-111684108D01*
X181249500Y-111815891D01*
X181283608Y-111943187D01*
X181287467Y-111949870D01*
X181349500Y-112057314D01*
X181442686Y-112150500D01*
X181556814Y-112216392D01*
X181684108Y-112250500D01*
X181684110Y-112250500D01*
X181815890Y-112250500D01*
X181815892Y-112250500D01*
X181943186Y-112216392D01*
X182057314Y-112150500D01*
X182150500Y-112057314D01*
X182216392Y-111943186D01*
X182250500Y-111815892D01*
X182250500Y-111684108D01*
X182216392Y-111556814D01*
X182150500Y-111442686D01*
X182141922Y-111434108D01*
X182499500Y-111434108D01*
X182499500Y-111565892D01*
X182508505Y-111599500D01*
X182533608Y-111693187D01*
X182566554Y-111750250D01*
X182599500Y-111807314D01*
X182692686Y-111900500D01*
X182806814Y-111966392D01*
X182934108Y-112000500D01*
X182934110Y-112000500D01*
X183065890Y-112000500D01*
X183065892Y-112000500D01*
X183193186Y-111966392D01*
X183307314Y-111900500D01*
X183400500Y-111807314D01*
X183466392Y-111693186D01*
X183500500Y-111565892D01*
X183500500Y-111434108D01*
X183466392Y-111306814D01*
X183400500Y-111192686D01*
X183307314Y-111099500D01*
X183249100Y-111065890D01*
X183193187Y-111033608D01*
X183129539Y-111016554D01*
X183065892Y-110999500D01*
X182934108Y-110999500D01*
X182806812Y-111033608D01*
X182692686Y-111099500D01*
X182692683Y-111099502D01*
X182599502Y-111192683D01*
X182599500Y-111192686D01*
X182533608Y-111306812D01*
X182533473Y-111307316D01*
X182499500Y-111434108D01*
X182141922Y-111434108D01*
X182057314Y-111349500D01*
X182000250Y-111316554D01*
X181943187Y-111283608D01*
X181853045Y-111259455D01*
X181815892Y-111249500D01*
X181684108Y-111249500D01*
X181640749Y-111261118D01*
X181570899Y-111259455D01*
X181513037Y-111220292D01*
X181485533Y-111156063D01*
X181488881Y-111109252D01*
X181500500Y-111065892D01*
X181500500Y-110934108D01*
X181466392Y-110806814D01*
X181400500Y-110692686D01*
X181307314Y-110599500D01*
X181193186Y-110533608D01*
X181065892Y-110499500D01*
X180934108Y-110499500D01*
X180806812Y-110533608D01*
X180692686Y-110599500D01*
X180692683Y-110599502D01*
X180599502Y-110692683D01*
X180599500Y-110692686D01*
X180533608Y-110806812D01*
X180513466Y-110881986D01*
X180499500Y-110934108D01*
X180000500Y-110934108D01*
X179966392Y-110806814D01*
X179900500Y-110692686D01*
X179807314Y-110599500D01*
X179733380Y-110556814D01*
X179693187Y-110533608D01*
X179629539Y-110516554D01*
X179565892Y-110499500D01*
X179434108Y-110499500D01*
X179306812Y-110533608D01*
X179192686Y-110599500D01*
X179192683Y-110599502D01*
X179099502Y-110692683D01*
X179099500Y-110692686D01*
X179033608Y-110806812D01*
X179013466Y-110881986D01*
X178999500Y-110934108D01*
X178718824Y-110934108D01*
X178750500Y-110815892D01*
X178750500Y-110684108D01*
X178716392Y-110556814D01*
X178650500Y-110442686D01*
X178641922Y-110434108D01*
X190749500Y-110434108D01*
X190749500Y-110565891D01*
X190783608Y-110693187D01*
X190817959Y-110752684D01*
X190849500Y-110807314D01*
X190849501Y-110807315D01*
X190853564Y-110814352D01*
X190852211Y-110815133D01*
X190874069Y-110871660D01*
X190874500Y-110881986D01*
X190874500Y-112549436D01*
X190883895Y-112584496D01*
X190883895Y-112584499D01*
X190883896Y-112584499D01*
X190900090Y-112644939D01*
X190900091Y-112644940D01*
X190949525Y-112730562D01*
X190949526Y-112730563D01*
X192199525Y-113980562D01*
X192269438Y-114050475D01*
X192355059Y-114099908D01*
X192355062Y-114099910D01*
X192402811Y-114112705D01*
X192402812Y-114112705D01*
X192412903Y-114115408D01*
X192450564Y-114125500D01*
X192450565Y-114125500D01*
X192450566Y-114125500D01*
X214759435Y-114125500D01*
X214759436Y-114125500D01*
X214807186Y-114112705D01*
X214854938Y-114099910D01*
X214940562Y-114050475D01*
X215010475Y-113980562D01*
X215012895Y-113978142D01*
X215074218Y-113944657D01*
X215143910Y-113949641D01*
X215148027Y-113951261D01*
X215193580Y-113970130D01*
X215396530Y-114010499D01*
X215396534Y-114010500D01*
X215396535Y-114010500D01*
X215603466Y-114010500D01*
X215603467Y-114010499D01*
X215806420Y-113970130D01*
X215997598Y-113890941D01*
X216169655Y-113775977D01*
X216315977Y-113629655D01*
X216430941Y-113457598D01*
X216510130Y-113266420D01*
X216550500Y-113063465D01*
X216550500Y-112856535D01*
X216510130Y-112653580D01*
X216430941Y-112462402D01*
X216315977Y-112290345D01*
X216315975Y-112290342D01*
X216169657Y-112144024D01*
X216004406Y-112033608D01*
X215997598Y-112029059D01*
X215928648Y-112000499D01*
X215806420Y-111949870D01*
X215806412Y-111949868D01*
X215603469Y-111909500D01*
X215603465Y-111909500D01*
X215396535Y-111909500D01*
X215396530Y-111909500D01*
X215193587Y-111949868D01*
X215193579Y-111949870D01*
X215002403Y-112029058D01*
X214830342Y-112144024D01*
X214684024Y-112290342D01*
X214569058Y-112462403D01*
X214489870Y-112653579D01*
X214489868Y-112653587D01*
X214449500Y-112856530D01*
X214449500Y-113063469D01*
X214481891Y-113226309D01*
X214475664Y-113295901D01*
X214432801Y-113351078D01*
X214366911Y-113374322D01*
X214360274Y-113374500D01*
X192706899Y-113374500D01*
X192639860Y-113354815D01*
X192619218Y-113338181D01*
X191661819Y-112380782D01*
X191628334Y-112319459D01*
X191625500Y-112293101D01*
X191625500Y-111934108D01*
X193499500Y-111934108D01*
X193499500Y-112065891D01*
X193533608Y-112193187D01*
X193547005Y-112216391D01*
X193599500Y-112307314D01*
X193692686Y-112400500D01*
X193806814Y-112466392D01*
X193934108Y-112500500D01*
X193934110Y-112500500D01*
X194065890Y-112500500D01*
X194065892Y-112500500D01*
X194193186Y-112466392D01*
X194307314Y-112400500D01*
X194400500Y-112307314D01*
X194466392Y-112193186D01*
X194500500Y-112065892D01*
X194500500Y-111934108D01*
X194466392Y-111806814D01*
X194400500Y-111692686D01*
X194307314Y-111599500D01*
X194233378Y-111556813D01*
X194193187Y-111533608D01*
X194129539Y-111516554D01*
X194065892Y-111499500D01*
X193934108Y-111499500D01*
X193806812Y-111533608D01*
X193692686Y-111599500D01*
X193692683Y-111599502D01*
X193599502Y-111692683D01*
X193599500Y-111692686D01*
X193533608Y-111806812D01*
X193499500Y-111934108D01*
X191625500Y-111934108D01*
X191625500Y-110934108D01*
X207499500Y-110934108D01*
X207499500Y-111065892D01*
X207508505Y-111099500D01*
X207533608Y-111193187D01*
X207566121Y-111249500D01*
X207599500Y-111307314D01*
X207692686Y-111400500D01*
X207806814Y-111466392D01*
X207934108Y-111500500D01*
X207934110Y-111500500D01*
X208065890Y-111500500D01*
X208065892Y-111500500D01*
X208193186Y-111466392D01*
X208307314Y-111400500D01*
X208400500Y-111307314D01*
X208466392Y-111193186D01*
X208500500Y-111065892D01*
X208500500Y-110934108D01*
X208466392Y-110806814D01*
X208400500Y-110692686D01*
X208307314Y-110599500D01*
X208233380Y-110556814D01*
X208193187Y-110533608D01*
X208129539Y-110516554D01*
X208065892Y-110499500D01*
X207934108Y-110499500D01*
X207806812Y-110533608D01*
X207692686Y-110599500D01*
X207692683Y-110599502D01*
X207599502Y-110692683D01*
X207599500Y-110692686D01*
X207533608Y-110806812D01*
X207513466Y-110881986D01*
X207499500Y-110934108D01*
X191625500Y-110934108D01*
X191625500Y-110881986D01*
X191645185Y-110814947D01*
X191650258Y-110807732D01*
X191650498Y-110807315D01*
X191650500Y-110807314D01*
X191716392Y-110693186D01*
X191750500Y-110565892D01*
X191750500Y-110434108D01*
X191716392Y-110306814D01*
X191650500Y-110192686D01*
X191557314Y-110099500D01*
X191472439Y-110050497D01*
X191443187Y-110033608D01*
X191377061Y-110015890D01*
X191315892Y-109999500D01*
X191184108Y-109999500D01*
X191056812Y-110033608D01*
X190942686Y-110099500D01*
X190942683Y-110099502D01*
X190849502Y-110192683D01*
X190849500Y-110192686D01*
X190783608Y-110306812D01*
X190749500Y-110434108D01*
X178641922Y-110434108D01*
X178557314Y-110349500D01*
X178483380Y-110306814D01*
X178443187Y-110283608D01*
X178379539Y-110266554D01*
X178315892Y-110249500D01*
X178184108Y-110249500D01*
X178056812Y-110283608D01*
X177942686Y-110349500D01*
X177942683Y-110349502D01*
X177849502Y-110442683D01*
X177849500Y-110442686D01*
X177783608Y-110556812D01*
X177749500Y-110684108D01*
X176346928Y-110684108D01*
X177446928Y-109584108D01*
X197999500Y-109584108D01*
X197999500Y-109715891D01*
X198033608Y-109843187D01*
X198063008Y-109894108D01*
X198099500Y-109957314D01*
X198192686Y-110050500D01*
X198306814Y-110116392D01*
X198434108Y-110150500D01*
X198434110Y-110150500D01*
X198565890Y-110150500D01*
X198565892Y-110150500D01*
X198693186Y-110116392D01*
X198807314Y-110050500D01*
X198900500Y-109957314D01*
X198966392Y-109843186D01*
X199000500Y-109715892D01*
X199000500Y-109584108D01*
X198966392Y-109456814D01*
X198900500Y-109342686D01*
X198807314Y-109249500D01*
X198750250Y-109216554D01*
X198693187Y-109183608D01*
X198629539Y-109166554D01*
X198565892Y-109149500D01*
X198434108Y-109149500D01*
X198306812Y-109183608D01*
X198192686Y-109249500D01*
X198192683Y-109249502D01*
X198099502Y-109342683D01*
X198099500Y-109342686D01*
X198033608Y-109456812D01*
X197999500Y-109584108D01*
X177446928Y-109584108D01*
X178619218Y-108411819D01*
X178680541Y-108378334D01*
X178706899Y-108375500D01*
X186118013Y-108375500D01*
X186185052Y-108395185D01*
X186192266Y-108400257D01*
X186192684Y-108400498D01*
X186192686Y-108400500D01*
X186280243Y-108451051D01*
X186305944Y-108465890D01*
X186306814Y-108466392D01*
X186434108Y-108500500D01*
X186434110Y-108500500D01*
X186565890Y-108500500D01*
X186565892Y-108500500D01*
X186693186Y-108466392D01*
X186807314Y-108400500D01*
X186807315Y-108400498D01*
X186814352Y-108396436D01*
X186815131Y-108397786D01*
X186823956Y-108394375D01*
X186838965Y-108383203D01*
X186864842Y-108378569D01*
X186871671Y-108375930D01*
X186873472Y-108375793D01*
X186877729Y-108375500D01*
X186950564Y-108375500D01*
X187049436Y-108375500D01*
X187097186Y-108362705D01*
X187144938Y-108349910D01*
X187230562Y-108300475D01*
X187300475Y-108230562D01*
X187617271Y-107913766D01*
X211624500Y-107913766D01*
X211624500Y-108086233D01*
X211658143Y-108255366D01*
X211658146Y-108255378D01*
X211724138Y-108414698D01*
X211724145Y-108414711D01*
X211819954Y-108558098D01*
X211819957Y-108558102D01*
X211941897Y-108680042D01*
X211941901Y-108680045D01*
X212085288Y-108775854D01*
X212085301Y-108775861D01*
X212244621Y-108841853D01*
X212244626Y-108841855D01*
X212413766Y-108875499D01*
X212413769Y-108875500D01*
X212413771Y-108875500D01*
X212586231Y-108875500D01*
X212586232Y-108875499D01*
X212755374Y-108841855D01*
X212914705Y-108775858D01*
X213058099Y-108680045D01*
X213180045Y-108558099D01*
X213275858Y-108414705D01*
X213277054Y-108411819D01*
X213302698Y-108349908D01*
X213341855Y-108255374D01*
X213375500Y-108086229D01*
X213375500Y-107913771D01*
X213375500Y-107913768D01*
X213375499Y-107913766D01*
X213341856Y-107744633D01*
X213341855Y-107744626D01*
X213323174Y-107699525D01*
X213275861Y-107585301D01*
X213275854Y-107585288D01*
X213180045Y-107441901D01*
X213180042Y-107441897D01*
X213058102Y-107319957D01*
X213058098Y-107319954D01*
X213036088Y-107305247D01*
X213624500Y-107305247D01*
X213624500Y-108694752D01*
X213636131Y-108753229D01*
X213636132Y-108753230D01*
X213680447Y-108819552D01*
X213746769Y-108863867D01*
X213746770Y-108863868D01*
X213805247Y-108875499D01*
X213805250Y-108875500D01*
X213805252Y-108875500D01*
X215194750Y-108875500D01*
X215194751Y-108875499D01*
X215209568Y-108872552D01*
X215253229Y-108863868D01*
X215253229Y-108863867D01*
X215253231Y-108863867D01*
X215319552Y-108819552D01*
X215363867Y-108753231D01*
X215363867Y-108753229D01*
X215363868Y-108753229D01*
X215375499Y-108694752D01*
X215375500Y-108694750D01*
X215375500Y-107305249D01*
X215375499Y-107305247D01*
X215363868Y-107246770D01*
X215363867Y-107246769D01*
X215319552Y-107180447D01*
X215253230Y-107136132D01*
X215253229Y-107136131D01*
X215194752Y-107124500D01*
X215194748Y-107124500D01*
X213805252Y-107124500D01*
X213805247Y-107124500D01*
X213746770Y-107136131D01*
X213746769Y-107136132D01*
X213680447Y-107180447D01*
X213636132Y-107246769D01*
X213636131Y-107246770D01*
X213624500Y-107305247D01*
X213036088Y-107305247D01*
X212914711Y-107224145D01*
X212914698Y-107224138D01*
X212755378Y-107158146D01*
X212755366Y-107158143D01*
X212586232Y-107124500D01*
X212586229Y-107124500D01*
X212413771Y-107124500D01*
X212413768Y-107124500D01*
X212244633Y-107158143D01*
X212244621Y-107158146D01*
X212085301Y-107224138D01*
X212085288Y-107224145D01*
X211941901Y-107319954D01*
X211941897Y-107319957D01*
X211819957Y-107441897D01*
X211819954Y-107441901D01*
X211724145Y-107585288D01*
X211724138Y-107585301D01*
X211658146Y-107744621D01*
X211658143Y-107744633D01*
X211624500Y-107913766D01*
X187617271Y-107913766D01*
X188619218Y-106911819D01*
X188680541Y-106878334D01*
X188706899Y-106875500D01*
X194618013Y-106875500D01*
X194685052Y-106895185D01*
X194692266Y-106900257D01*
X194692684Y-106900498D01*
X194692686Y-106900500D01*
X194806814Y-106966392D01*
X194934108Y-107000500D01*
X194934110Y-107000500D01*
X195065890Y-107000500D01*
X195065892Y-107000500D01*
X195193186Y-106966392D01*
X195307314Y-106900500D01*
X195307315Y-106900498D01*
X195314352Y-106896436D01*
X195315131Y-106897786D01*
X195371671Y-106875930D01*
X195381987Y-106875500D01*
X200118013Y-106875500D01*
X200185052Y-106895185D01*
X200192266Y-106900257D01*
X200192684Y-106900498D01*
X200192686Y-106900500D01*
X200306814Y-106966392D01*
X200434108Y-107000500D01*
X200434110Y-107000500D01*
X200565890Y-107000500D01*
X200565892Y-107000500D01*
X200693186Y-106966392D01*
X200807314Y-106900500D01*
X200900500Y-106807314D01*
X200966392Y-106693186D01*
X201000500Y-106565892D01*
X201000500Y-106434108D01*
X200966392Y-106306814D01*
X200900500Y-106192686D01*
X200807314Y-106099500D01*
X200749100Y-106065890D01*
X200693187Y-106033608D01*
X200629539Y-106016554D01*
X200565892Y-105999500D01*
X200434108Y-105999500D01*
X200306812Y-106033608D01*
X200227006Y-106079684D01*
X200192686Y-106099500D01*
X200192684Y-106099501D01*
X200185648Y-106103564D01*
X200184868Y-106102213D01*
X200128329Y-106124070D01*
X200118013Y-106124500D01*
X195381987Y-106124500D01*
X195314948Y-106104815D01*
X195307733Y-106099742D01*
X195307310Y-106099498D01*
X195292341Y-106090855D01*
X195193187Y-106033608D01*
X195129539Y-106016554D01*
X195065892Y-105999500D01*
X194934108Y-105999500D01*
X194806812Y-106033608D01*
X194727006Y-106079684D01*
X194692686Y-106099500D01*
X194692684Y-106099501D01*
X194685648Y-106103564D01*
X194684868Y-106102213D01*
X194628329Y-106124070D01*
X194618013Y-106124500D01*
X188549436Y-106124500D01*
X188450564Y-106124500D01*
X188442007Y-106126793D01*
X188355060Y-106150090D01*
X188355059Y-106150091D01*
X188269436Y-106199526D01*
X188269437Y-106199526D01*
X186913995Y-107554967D01*
X186852672Y-107588452D01*
X186782980Y-107583468D01*
X186764314Y-107574673D01*
X186693189Y-107533609D01*
X186693186Y-107533608D01*
X186565892Y-107499500D01*
X186434108Y-107499500D01*
X186306812Y-107533608D01*
X186227006Y-107579684D01*
X186192686Y-107599500D01*
X186192684Y-107599501D01*
X186185648Y-107603564D01*
X186184868Y-107602213D01*
X186128329Y-107624070D01*
X186118013Y-107624500D01*
X178549436Y-107624500D01*
X178450564Y-107624500D01*
X178442007Y-107626793D01*
X178355060Y-107650090D01*
X178355059Y-107650091D01*
X178269436Y-107699526D01*
X178269437Y-107699526D01*
X175004587Y-110964375D01*
X174943264Y-110997860D01*
X174934574Y-110999375D01*
X174806812Y-111033608D01*
X174692686Y-111099500D01*
X174692683Y-111099502D01*
X174599502Y-111192683D01*
X174599500Y-111192686D01*
X174533608Y-111306812D01*
X174533473Y-111307316D01*
X174499500Y-111434108D01*
X174499500Y-111565892D01*
X174508505Y-111599500D01*
X174533608Y-111693187D01*
X174567959Y-111752684D01*
X174599500Y-111807314D01*
X174599501Y-111807315D01*
X174603564Y-111814352D01*
X174602211Y-111815133D01*
X174624069Y-111871660D01*
X174624500Y-111881986D01*
X174624500Y-114793101D01*
X174604815Y-114860140D01*
X174588181Y-114880782D01*
X173380782Y-116088181D01*
X173319459Y-116121666D01*
X173293101Y-116124500D01*
X168881987Y-116124500D01*
X168814948Y-116104815D01*
X168807733Y-116099742D01*
X168693187Y-116033608D01*
X168629539Y-116016554D01*
X168565892Y-115999500D01*
X168434108Y-115999500D01*
X168306812Y-116033608D01*
X168192686Y-116099500D01*
X168192683Y-116099502D01*
X168099502Y-116192683D01*
X168099500Y-116192686D01*
X168033608Y-116306812D01*
X167999500Y-116434108D01*
X167250500Y-116434108D01*
X167216392Y-116306814D01*
X167150500Y-116192686D01*
X167057314Y-116099500D01*
X167000250Y-116066554D01*
X166943187Y-116033608D01*
X166879539Y-116016554D01*
X166815892Y-115999500D01*
X166684108Y-115999500D01*
X166556812Y-116033608D01*
X166442686Y-116099500D01*
X166442683Y-116099502D01*
X166349502Y-116192683D01*
X166349500Y-116192686D01*
X166283608Y-116306812D01*
X166249500Y-116434108D01*
X152500500Y-116434108D01*
X152500500Y-114484108D01*
X153799500Y-114484108D01*
X153799500Y-114615892D01*
X153803347Y-114630249D01*
X153833608Y-114743187D01*
X153866554Y-114800250D01*
X153899500Y-114857314D01*
X153992686Y-114950500D01*
X154106814Y-115016392D01*
X154234108Y-115050500D01*
X154234110Y-115050500D01*
X154365890Y-115050500D01*
X154365892Y-115050500D01*
X154493186Y-115016392D01*
X154607314Y-114950500D01*
X154700500Y-114857314D01*
X154766392Y-114743186D01*
X154800500Y-114615892D01*
X154800500Y-114484108D01*
X154766392Y-114356814D01*
X154700500Y-114242686D01*
X154607314Y-114149500D01*
X154521422Y-114099910D01*
X154493187Y-114083608D01*
X154429539Y-114066554D01*
X154365892Y-114049500D01*
X154234108Y-114049500D01*
X154106812Y-114083608D01*
X153992686Y-114149500D01*
X153992683Y-114149502D01*
X153899502Y-114242683D01*
X153899500Y-114242686D01*
X153833608Y-114356812D01*
X153808773Y-114449500D01*
X153799500Y-114484108D01*
X152500500Y-114484108D01*
X152500500Y-109894108D01*
X169539500Y-109894108D01*
X169539500Y-110025892D01*
X169546094Y-110050500D01*
X169573608Y-110153187D01*
X169596413Y-110192686D01*
X169639500Y-110267314D01*
X169732686Y-110360500D01*
X169846814Y-110426392D01*
X169974108Y-110460500D01*
X169974110Y-110460500D01*
X170105890Y-110460500D01*
X170105892Y-110460500D01*
X170233186Y-110426392D01*
X170347314Y-110360500D01*
X170440500Y-110267314D01*
X170506392Y-110153186D01*
X170540500Y-110025892D01*
X170540500Y-109894108D01*
X170537821Y-109884108D01*
X174449500Y-109884108D01*
X174449500Y-110015892D01*
X174454247Y-110033608D01*
X174483608Y-110143187D01*
X174489382Y-110153187D01*
X174549500Y-110257314D01*
X174642686Y-110350500D01*
X174756814Y-110416392D01*
X174884108Y-110450500D01*
X174884110Y-110450500D01*
X175015890Y-110450500D01*
X175015892Y-110450500D01*
X175143186Y-110416392D01*
X175257314Y-110350500D01*
X175350500Y-110257314D01*
X175416392Y-110143186D01*
X175450500Y-110015892D01*
X175450500Y-109884108D01*
X175416392Y-109756814D01*
X175350500Y-109642686D01*
X175257314Y-109549500D01*
X175200250Y-109516554D01*
X175143187Y-109483608D01*
X175079539Y-109466554D01*
X175015892Y-109449500D01*
X174884108Y-109449500D01*
X174756812Y-109483608D01*
X174642686Y-109549500D01*
X174642683Y-109549502D01*
X174549502Y-109642683D01*
X174549500Y-109642686D01*
X174483608Y-109756812D01*
X174449500Y-109884108D01*
X170537821Y-109884108D01*
X170506392Y-109766814D01*
X170500618Y-109756814D01*
X170476992Y-109715892D01*
X170440500Y-109652686D01*
X170347314Y-109559500D01*
X170290250Y-109526554D01*
X170233187Y-109493608D01*
X170169539Y-109476554D01*
X170105892Y-109459500D01*
X169974108Y-109459500D01*
X169846812Y-109493608D01*
X169732686Y-109559500D01*
X169732683Y-109559502D01*
X169639502Y-109652683D01*
X169639500Y-109652686D01*
X169573608Y-109766812D01*
X169553144Y-109843186D01*
X169539500Y-109894108D01*
X152500500Y-109894108D01*
X152500500Y-108334108D01*
X153799500Y-108334108D01*
X153799500Y-108465891D01*
X153833608Y-108593187D01*
X153866554Y-108650250D01*
X153899500Y-108707314D01*
X153992686Y-108800500D01*
X154064315Y-108841855D01*
X154102440Y-108863867D01*
X154106814Y-108866392D01*
X154234108Y-108900500D01*
X154234110Y-108900500D01*
X154365890Y-108900500D01*
X154365892Y-108900500D01*
X154493186Y-108866392D01*
X154607314Y-108800500D01*
X154700500Y-108707314D01*
X154766392Y-108593186D01*
X154800500Y-108465892D01*
X154800500Y-108334108D01*
X154766392Y-108206814D01*
X154700500Y-108092686D01*
X154607314Y-107999500D01*
X154550250Y-107966554D01*
X154493187Y-107933608D01*
X154429539Y-107916554D01*
X154365892Y-107899500D01*
X154234108Y-107899500D01*
X154106812Y-107933608D01*
X153992686Y-107999500D01*
X153992683Y-107999502D01*
X153899502Y-108092683D01*
X153899500Y-108092686D01*
X153833608Y-108206812D01*
X153799500Y-108334108D01*
X152500500Y-108334108D01*
X152500500Y-105934108D01*
X169999500Y-105934108D01*
X169999500Y-106065891D01*
X170033608Y-106193187D01*
X170037268Y-106199526D01*
X170099500Y-106307314D01*
X170192686Y-106400500D01*
X170306814Y-106466392D01*
X170434108Y-106500500D01*
X170434110Y-106500500D01*
X170565890Y-106500500D01*
X170565892Y-106500500D01*
X170693186Y-106466392D01*
X170749103Y-106434108D01*
X181999500Y-106434108D01*
X181999500Y-106565891D01*
X182033608Y-106693187D01*
X182066554Y-106750250D01*
X182099500Y-106807314D01*
X182192686Y-106900500D01*
X182306814Y-106966392D01*
X182434108Y-107000500D01*
X182434110Y-107000500D01*
X182565890Y-107000500D01*
X182565892Y-107000500D01*
X182693186Y-106966392D01*
X182807314Y-106900500D01*
X182900500Y-106807314D01*
X182966392Y-106693186D01*
X183000500Y-106565892D01*
X183000500Y-106434108D01*
X182966392Y-106306814D01*
X182900500Y-106192686D01*
X182807314Y-106099500D01*
X182693186Y-106033608D01*
X182565892Y-105999500D01*
X182434108Y-105999500D01*
X182306812Y-106033608D01*
X182192686Y-106099500D01*
X182192683Y-106099502D01*
X182099502Y-106192683D01*
X182099500Y-106192686D01*
X182033608Y-106306812D01*
X181999500Y-106434108D01*
X170749103Y-106434108D01*
X170807314Y-106400500D01*
X170900500Y-106307314D01*
X170966392Y-106193186D01*
X171000500Y-106065892D01*
X171000500Y-105934108D01*
X184999500Y-105934108D01*
X184999500Y-106065891D01*
X185033608Y-106193187D01*
X185037268Y-106199526D01*
X185099500Y-106307314D01*
X185192686Y-106400500D01*
X185306814Y-106466392D01*
X185434108Y-106500500D01*
X185434110Y-106500500D01*
X185565890Y-106500500D01*
X185565892Y-106500500D01*
X185693186Y-106466392D01*
X185807314Y-106400500D01*
X185900500Y-106307314D01*
X185966392Y-106193186D01*
X186000500Y-106065892D01*
X186000500Y-105934108D01*
X185966392Y-105806814D01*
X185900500Y-105692686D01*
X185807314Y-105599500D01*
X185750250Y-105566554D01*
X185693187Y-105533608D01*
X185629539Y-105516554D01*
X185565892Y-105499500D01*
X185434108Y-105499500D01*
X185306812Y-105533608D01*
X185192686Y-105599500D01*
X185192683Y-105599502D01*
X185099502Y-105692683D01*
X185099500Y-105692686D01*
X185033608Y-105806812D01*
X184999500Y-105934108D01*
X171000500Y-105934108D01*
X170966392Y-105806814D01*
X170900500Y-105692686D01*
X170807314Y-105599500D01*
X170750250Y-105566554D01*
X170693187Y-105533608D01*
X170629539Y-105516554D01*
X170565892Y-105499500D01*
X170434108Y-105499500D01*
X170306812Y-105533608D01*
X170192686Y-105599500D01*
X170192683Y-105599502D01*
X170099502Y-105692683D01*
X170099500Y-105692686D01*
X170033608Y-105806812D01*
X169999500Y-105934108D01*
X152500500Y-105934108D01*
X152500500Y-103502706D01*
X152500618Y-103497298D01*
X152501984Y-103466004D01*
X152505140Y-103393713D01*
X155649500Y-103393713D01*
X155649500Y-103606286D01*
X155682007Y-103811531D01*
X155682754Y-103816243D01*
X155747501Y-104015514D01*
X155748444Y-104018414D01*
X155844951Y-104207820D01*
X155969890Y-104379786D01*
X156120213Y-104530109D01*
X156292179Y-104655048D01*
X156292181Y-104655049D01*
X156292184Y-104655051D01*
X156481588Y-104751557D01*
X156683757Y-104817246D01*
X156893713Y-104850500D01*
X156893714Y-104850500D01*
X157106286Y-104850500D01*
X157106287Y-104850500D01*
X157288703Y-104821608D01*
X166612000Y-104821608D01*
X166612000Y-104953391D01*
X166646108Y-105080687D01*
X166679054Y-105137750D01*
X166712000Y-105194814D01*
X166805186Y-105288000D01*
X166919314Y-105353892D01*
X167046608Y-105388000D01*
X167046610Y-105388000D01*
X167178390Y-105388000D01*
X167178392Y-105388000D01*
X167305686Y-105353892D01*
X167419814Y-105288000D01*
X167513000Y-105194814D01*
X167578892Y-105080686D01*
X167613000Y-104953392D01*
X167613000Y-104821608D01*
X167581486Y-104703995D01*
X192729499Y-104703995D01*
X192756418Y-104839322D01*
X192756421Y-104839332D01*
X192809221Y-104966804D01*
X192809228Y-104966817D01*
X192885885Y-105081541D01*
X192885888Y-105081545D01*
X192983454Y-105179111D01*
X192983458Y-105179114D01*
X193098182Y-105255771D01*
X193098195Y-105255778D01*
X193175987Y-105288000D01*
X193225672Y-105308580D01*
X193225676Y-105308580D01*
X193225677Y-105308581D01*
X193361004Y-105335500D01*
X193361007Y-105335500D01*
X193498995Y-105335500D01*
X193590761Y-105317246D01*
X193634328Y-105308580D01*
X193761811Y-105255775D01*
X193876542Y-105179114D01*
X193974114Y-105081542D01*
X194050775Y-104966811D01*
X194103580Y-104839328D01*
X194130500Y-104703993D01*
X194130500Y-103905244D01*
X194150185Y-103838205D01*
X194202989Y-103792450D01*
X194272147Y-103782506D01*
X194335703Y-103811531D01*
X194361887Y-103843244D01*
X194399482Y-103908361D01*
X194399484Y-103908363D01*
X194399485Y-103908365D01*
X194506635Y-104015515D01*
X194637865Y-104091281D01*
X194784234Y-104130500D01*
X194784236Y-104130500D01*
X194935764Y-104130500D01*
X194935766Y-104130500D01*
X195082135Y-104091281D01*
X195213365Y-104015515D01*
X195320515Y-103908365D01*
X195396281Y-103777135D01*
X195435500Y-103630766D01*
X195435500Y-103479234D01*
X195423409Y-103434108D01*
X195999500Y-103434108D01*
X195999500Y-103565892D01*
X196010324Y-103606287D01*
X196033608Y-103693187D01*
X196047005Y-103716391D01*
X196099500Y-103807314D01*
X196192686Y-103900500D01*
X196306814Y-103966392D01*
X196434108Y-104000500D01*
X196434110Y-104000500D01*
X196565890Y-104000500D01*
X196565892Y-104000500D01*
X196693186Y-103966392D01*
X196807314Y-103900500D01*
X196900500Y-103807314D01*
X196966392Y-103693186D01*
X196967646Y-103688504D01*
X197004010Y-103628844D01*
X197066856Y-103598314D01*
X197136232Y-103606608D01*
X197175102Y-103632916D01*
X197192686Y-103650500D01*
X197306814Y-103716392D01*
X197434108Y-103750500D01*
X197434110Y-103750500D01*
X197565890Y-103750500D01*
X197565892Y-103750500D01*
X197693186Y-103716392D01*
X197807314Y-103650500D01*
X197900500Y-103557314D01*
X197945580Y-103479234D01*
X200064500Y-103479234D01*
X200064500Y-103630766D01*
X200084109Y-103703950D01*
X200103719Y-103777136D01*
X200126296Y-103816239D01*
X200179485Y-103908365D01*
X200286635Y-104015515D01*
X200417865Y-104091281D01*
X200564234Y-104130500D01*
X200564236Y-104130500D01*
X200715764Y-104130500D01*
X200715766Y-104130500D01*
X200862135Y-104091281D01*
X200993365Y-104015515D01*
X201100515Y-103908365D01*
X201138113Y-103843244D01*
X201188680Y-103795028D01*
X201257287Y-103781806D01*
X201322152Y-103807774D01*
X201362680Y-103864688D01*
X201369500Y-103905244D01*
X201369500Y-104703993D01*
X201369500Y-104703995D01*
X201369499Y-104703995D01*
X201396418Y-104839322D01*
X201396421Y-104839332D01*
X201449221Y-104966804D01*
X201449228Y-104966817D01*
X201525885Y-105081541D01*
X201525888Y-105081545D01*
X201623454Y-105179111D01*
X201623458Y-105179114D01*
X201738182Y-105255771D01*
X201738195Y-105255778D01*
X201815987Y-105288000D01*
X201865672Y-105308580D01*
X201865676Y-105308580D01*
X201865677Y-105308581D01*
X202001004Y-105335500D01*
X202001007Y-105335500D01*
X202138995Y-105335500D01*
X202230761Y-105317246D01*
X202274328Y-105308580D01*
X202401811Y-105255775D01*
X202516542Y-105179114D01*
X202614114Y-105081542D01*
X202690775Y-104966811D01*
X202743580Y-104839328D01*
X202770500Y-104703993D01*
X202770500Y-103893713D01*
X210649500Y-103893713D01*
X210649500Y-104106287D01*
X210682754Y-104316243D01*
X210738237Y-104487002D01*
X210748444Y-104518414D01*
X210844951Y-104707820D01*
X210969890Y-104879786D01*
X211120213Y-105030109D01*
X211292179Y-105155048D01*
X211292181Y-105155049D01*
X211292184Y-105155051D01*
X211481588Y-105251557D01*
X211683757Y-105317246D01*
X211893713Y-105350500D01*
X211893714Y-105350500D01*
X212106286Y-105350500D01*
X212106287Y-105350500D01*
X212316243Y-105317246D01*
X212518412Y-105251557D01*
X212707816Y-105155051D01*
X212729789Y-105139086D01*
X212879786Y-105030109D01*
X212879788Y-105030106D01*
X212879792Y-105030104D01*
X213030104Y-104879792D01*
X213030106Y-104879788D01*
X213030109Y-104879786D01*
X213155048Y-104707820D01*
X213155047Y-104707820D01*
X213155051Y-104707816D01*
X213251557Y-104518412D01*
X213317246Y-104316243D01*
X213350500Y-104106287D01*
X213350500Y-103893713D01*
X213317246Y-103683757D01*
X213251557Y-103481588D01*
X213155051Y-103292184D01*
X213155049Y-103292181D01*
X213155048Y-103292179D01*
X213030109Y-103120213D01*
X212879786Y-102969890D01*
X212707820Y-102844951D01*
X212518414Y-102748444D01*
X212518413Y-102748443D01*
X212518412Y-102748443D01*
X212316243Y-102682754D01*
X212316241Y-102682753D01*
X212316240Y-102682753D01*
X212154957Y-102657208D01*
X212106287Y-102649500D01*
X211893713Y-102649500D01*
X211845042Y-102657208D01*
X211683760Y-102682753D01*
X211481585Y-102748444D01*
X211292179Y-102844951D01*
X211120213Y-102969890D01*
X210969890Y-103120213D01*
X210844951Y-103292179D01*
X210748444Y-103481585D01*
X210748443Y-103481587D01*
X210748443Y-103481588D01*
X210742461Y-103500000D01*
X210682753Y-103683760D01*
X210654097Y-103864688D01*
X210649500Y-103893713D01*
X202770500Y-103893713D01*
X202770500Y-103466007D01*
X202770500Y-103466004D01*
X202743581Y-103330677D01*
X202743580Y-103330676D01*
X202743580Y-103330672D01*
X202719484Y-103272498D01*
X202690778Y-103203195D01*
X202690771Y-103203182D01*
X202614114Y-103088458D01*
X202614111Y-103088454D01*
X202516545Y-102990888D01*
X202516541Y-102990885D01*
X202401817Y-102914228D01*
X202401804Y-102914221D01*
X202274332Y-102861421D01*
X202274322Y-102861418D01*
X202138995Y-102834500D01*
X202138993Y-102834500D01*
X202001007Y-102834500D01*
X202001005Y-102834500D01*
X201865677Y-102861418D01*
X201865667Y-102861421D01*
X201738195Y-102914221D01*
X201738182Y-102914228D01*
X201623458Y-102990885D01*
X201623454Y-102990888D01*
X201525888Y-103088454D01*
X201525885Y-103088458D01*
X201449228Y-103203182D01*
X201449223Y-103203192D01*
X201400155Y-103321653D01*
X201356314Y-103376056D01*
X201290019Y-103398121D01*
X201222320Y-103380842D01*
X201178207Y-103336201D01*
X201169807Y-103321652D01*
X201100515Y-103201635D01*
X200993365Y-103094485D01*
X200927750Y-103056602D01*
X200862136Y-103018719D01*
X200758267Y-102990888D01*
X200715766Y-102979500D01*
X200564234Y-102979500D01*
X200417863Y-103018719D01*
X200286635Y-103094485D01*
X200286632Y-103094487D01*
X200179487Y-103201632D01*
X200179485Y-103201635D01*
X200103719Y-103332863D01*
X200089906Y-103384416D01*
X200064500Y-103479234D01*
X197945580Y-103479234D01*
X197966392Y-103443186D01*
X198000500Y-103315892D01*
X198000500Y-103184108D01*
X197966392Y-103056814D01*
X197900500Y-102942686D01*
X197807314Y-102849500D01*
X197750250Y-102816554D01*
X197693187Y-102783608D01*
X197629539Y-102766554D01*
X197565892Y-102749500D01*
X197434108Y-102749500D01*
X197306812Y-102783608D01*
X197192686Y-102849500D01*
X197192683Y-102849502D01*
X197099502Y-102942683D01*
X197099500Y-102942686D01*
X197033607Y-103056814D01*
X197033606Y-103056817D01*
X197032350Y-103061505D01*
X196995981Y-103121163D01*
X196933131Y-103151687D01*
X196863756Y-103143386D01*
X196824897Y-103117083D01*
X196807316Y-103099502D01*
X196807314Y-103099500D01*
X196733380Y-103056814D01*
X196693187Y-103033608D01*
X196629539Y-103016554D01*
X196565892Y-102999500D01*
X196434108Y-102999500D01*
X196306812Y-103033608D01*
X196192686Y-103099500D01*
X196192683Y-103099502D01*
X196099502Y-103192683D01*
X196099500Y-103192686D01*
X196033608Y-103306812D01*
X195999500Y-103434108D01*
X195423409Y-103434108D01*
X195396281Y-103332865D01*
X195320515Y-103201635D01*
X195213365Y-103094485D01*
X195147750Y-103056602D01*
X195082136Y-103018719D01*
X194978267Y-102990888D01*
X194935766Y-102979500D01*
X194784234Y-102979500D01*
X194637863Y-103018719D01*
X194506635Y-103094485D01*
X194506632Y-103094487D01*
X194399487Y-103201632D01*
X194399485Y-103201635D01*
X194321792Y-103336201D01*
X194271224Y-103384416D01*
X194202617Y-103397638D01*
X194137752Y-103371670D01*
X194099844Y-103321652D01*
X194050778Y-103203195D01*
X194050771Y-103203182D01*
X193974114Y-103088458D01*
X193974111Y-103088454D01*
X193876545Y-102990888D01*
X193876541Y-102990885D01*
X193761817Y-102914228D01*
X193761804Y-102914221D01*
X193634332Y-102861421D01*
X193634322Y-102861418D01*
X193498995Y-102834500D01*
X193498993Y-102834500D01*
X193361007Y-102834500D01*
X193361005Y-102834500D01*
X193225677Y-102861418D01*
X193225667Y-102861421D01*
X193098195Y-102914221D01*
X193098182Y-102914228D01*
X192983458Y-102990885D01*
X192983454Y-102990888D01*
X192885888Y-103088454D01*
X192885885Y-103088458D01*
X192809228Y-103203182D01*
X192809221Y-103203195D01*
X192756421Y-103330667D01*
X192756418Y-103330677D01*
X192729500Y-103466004D01*
X192729500Y-103466007D01*
X192729500Y-104703993D01*
X192729500Y-104703995D01*
X192729499Y-104703995D01*
X167581486Y-104703995D01*
X167578892Y-104694314D01*
X167513000Y-104580186D01*
X167419814Y-104487000D01*
X167362750Y-104454054D01*
X167305687Y-104421108D01*
X167242039Y-104404054D01*
X167178392Y-104387000D01*
X167046608Y-104387000D01*
X166919312Y-104421108D01*
X166805186Y-104487000D01*
X166805183Y-104487002D01*
X166712002Y-104580183D01*
X166712000Y-104580186D01*
X166646108Y-104694312D01*
X166612000Y-104821608D01*
X157288703Y-104821608D01*
X157316243Y-104817246D01*
X157518412Y-104751557D01*
X157707816Y-104655051D01*
X157810864Y-104580183D01*
X157879786Y-104530109D01*
X157879788Y-104530106D01*
X157879792Y-104530104D01*
X158030104Y-104379792D01*
X158030106Y-104379788D01*
X158030109Y-104379786D01*
X158155048Y-104207820D01*
X158155047Y-104207820D01*
X158155051Y-104207816D01*
X158251557Y-104018412D01*
X158317246Y-103816243D01*
X158350500Y-103606287D01*
X158350500Y-103393713D01*
X158317246Y-103183757D01*
X158251557Y-102981588D01*
X158155051Y-102792184D01*
X158155049Y-102792181D01*
X158155048Y-102792179D01*
X158030109Y-102620213D01*
X157879786Y-102469890D01*
X157707820Y-102344951D01*
X157518414Y-102248444D01*
X157518413Y-102248443D01*
X157518412Y-102248443D01*
X157316243Y-102182754D01*
X157316241Y-102182753D01*
X157316240Y-102182753D01*
X157154957Y-102157208D01*
X157106287Y-102149500D01*
X156893713Y-102149500D01*
X156845042Y-102157208D01*
X156683760Y-102182753D01*
X156481585Y-102248444D01*
X156292179Y-102344951D01*
X156120213Y-102469890D01*
X155969890Y-102620213D01*
X155844951Y-102792179D01*
X155748444Y-102981585D01*
X155682753Y-103183760D01*
X155649500Y-103393713D01*
X152505140Y-103393713D01*
X152517386Y-103113226D01*
X152518326Y-103102495D01*
X152568152Y-102724025D01*
X152570025Y-102713405D01*
X152652649Y-102340709D01*
X152655440Y-102330295D01*
X152770230Y-101966227D01*
X152773917Y-101956095D01*
X152920003Y-101603412D01*
X152924561Y-101593638D01*
X153100822Y-101255045D01*
X153106217Y-101245700D01*
X153304722Y-100934108D01*
X160499500Y-100934108D01*
X160499500Y-101065891D01*
X160533608Y-101193187D01*
X160547005Y-101216391D01*
X160599500Y-101307314D01*
X160692686Y-101400500D01*
X160806814Y-101466392D01*
X160934108Y-101500500D01*
X160934110Y-101500500D01*
X161065890Y-101500500D01*
X161065892Y-101500500D01*
X161127068Y-101484108D01*
X168499500Y-101484108D01*
X168499500Y-101615892D01*
X168516554Y-101679539D01*
X168533608Y-101743187D01*
X168566554Y-101800250D01*
X168599500Y-101857314D01*
X168692686Y-101950500D01*
X168806814Y-102016392D01*
X168934108Y-102050500D01*
X168934110Y-102050500D01*
X169065890Y-102050500D01*
X169065892Y-102050500D01*
X169193186Y-102016392D01*
X169307314Y-101950500D01*
X169400500Y-101857314D01*
X169466392Y-101743186D01*
X169500500Y-101615892D01*
X169500500Y-101484108D01*
X169466392Y-101356814D01*
X169400500Y-101242686D01*
X169307314Y-101149500D01*
X169250250Y-101116554D01*
X169193187Y-101083608D01*
X169126598Y-101065766D01*
X169065892Y-101049500D01*
X168934108Y-101049500D01*
X168806812Y-101083608D01*
X168692686Y-101149500D01*
X168692683Y-101149502D01*
X168599502Y-101242683D01*
X168599500Y-101242686D01*
X168533608Y-101356812D01*
X168521902Y-101400500D01*
X168499500Y-101484108D01*
X161127068Y-101484108D01*
X161193186Y-101466392D01*
X161307314Y-101400500D01*
X161400500Y-101307314D01*
X161466392Y-101193186D01*
X161500500Y-101065892D01*
X161500500Y-100934108D01*
X161466392Y-100806814D01*
X161400500Y-100692686D01*
X161391922Y-100684108D01*
X165249500Y-100684108D01*
X165249500Y-100815891D01*
X165283608Y-100943187D01*
X165316121Y-100999500D01*
X165349500Y-101057314D01*
X165442686Y-101150500D01*
X165556814Y-101216392D01*
X165684108Y-101250500D01*
X165684110Y-101250500D01*
X165815890Y-101250500D01*
X165815892Y-101250500D01*
X165943186Y-101216392D01*
X166057314Y-101150500D01*
X166150500Y-101057314D01*
X166216392Y-100943186D01*
X166218824Y-100934108D01*
X190999500Y-100934108D01*
X190999500Y-101065891D01*
X191033608Y-101193187D01*
X191047005Y-101216391D01*
X191099500Y-101307314D01*
X191192686Y-101400500D01*
X191306814Y-101466392D01*
X191434108Y-101500500D01*
X191434110Y-101500500D01*
X191565890Y-101500500D01*
X191565892Y-101500500D01*
X191693186Y-101466392D01*
X191749103Y-101434108D01*
X207499500Y-101434108D01*
X207499500Y-101565892D01*
X207508218Y-101598429D01*
X207533608Y-101693187D01*
X207562476Y-101743186D01*
X207599500Y-101807314D01*
X207692686Y-101900500D01*
X207788950Y-101956078D01*
X207806557Y-101966244D01*
X207806814Y-101966392D01*
X207934108Y-102000500D01*
X207934110Y-102000500D01*
X208065890Y-102000500D01*
X208065892Y-102000500D01*
X208193186Y-101966392D01*
X208307314Y-101900500D01*
X208400500Y-101807314D01*
X208466392Y-101693186D01*
X208500500Y-101565892D01*
X208500500Y-101434108D01*
X208466392Y-101306814D01*
X208400500Y-101192686D01*
X208307314Y-101099500D01*
X208248885Y-101065766D01*
X208193187Y-101033608D01*
X208129539Y-101016554D01*
X208065892Y-100999500D01*
X207934108Y-100999500D01*
X207806812Y-101033608D01*
X207692686Y-101099500D01*
X207692683Y-101099502D01*
X207599502Y-101192683D01*
X207599500Y-101192686D01*
X207533608Y-101306812D01*
X207511774Y-101388300D01*
X207499500Y-101434108D01*
X191749103Y-101434108D01*
X191807314Y-101400500D01*
X191900500Y-101307314D01*
X191966392Y-101193186D01*
X192000500Y-101065892D01*
X192000500Y-100934108D01*
X191966392Y-100806814D01*
X191900500Y-100692686D01*
X191807314Y-100599500D01*
X191733380Y-100556814D01*
X191693187Y-100533608D01*
X191629539Y-100516554D01*
X191565892Y-100499500D01*
X191434108Y-100499500D01*
X191306812Y-100533608D01*
X191192686Y-100599500D01*
X191192683Y-100599502D01*
X191099502Y-100692683D01*
X191099500Y-100692686D01*
X191033608Y-100806812D01*
X190999500Y-100934108D01*
X166218824Y-100934108D01*
X166250500Y-100815892D01*
X166250500Y-100684108D01*
X166216392Y-100556814D01*
X166150500Y-100442686D01*
X166057314Y-100349500D01*
X165997065Y-100314715D01*
X165943187Y-100283608D01*
X165879539Y-100266554D01*
X165815892Y-100249500D01*
X165684108Y-100249500D01*
X165556812Y-100283608D01*
X165442686Y-100349500D01*
X165442683Y-100349502D01*
X165349502Y-100442683D01*
X165349500Y-100442686D01*
X165283608Y-100556812D01*
X165249500Y-100684108D01*
X161391922Y-100684108D01*
X161307314Y-100599500D01*
X161233380Y-100556814D01*
X161193187Y-100533608D01*
X161129539Y-100516554D01*
X161065892Y-100499500D01*
X160934108Y-100499500D01*
X160806812Y-100533608D01*
X160692686Y-100599500D01*
X160692683Y-100599502D01*
X160599502Y-100692683D01*
X160599500Y-100692686D01*
X160533608Y-100806812D01*
X160499500Y-100934108D01*
X153304722Y-100934108D01*
X153311325Y-100923744D01*
X153317515Y-100914905D01*
X153549896Y-100612060D01*
X153556834Y-100603791D01*
X153814726Y-100322352D01*
X153822352Y-100314726D01*
X154103791Y-100056834D01*
X154112060Y-100049896D01*
X154262957Y-99934108D01*
X171499500Y-99934108D01*
X171499500Y-100065891D01*
X171533608Y-100193187D01*
X171566121Y-100249500D01*
X171599500Y-100307314D01*
X171692686Y-100400500D01*
X171806814Y-100466392D01*
X171934108Y-100500500D01*
X171934110Y-100500500D01*
X172065890Y-100500500D01*
X172065892Y-100500500D01*
X172193186Y-100466392D01*
X172307314Y-100400500D01*
X172400500Y-100307314D01*
X172466392Y-100193186D01*
X172500500Y-100065892D01*
X172500500Y-99934108D01*
X178249500Y-99934108D01*
X178249500Y-100065891D01*
X178283608Y-100193187D01*
X178316121Y-100249500D01*
X178349500Y-100307314D01*
X178442686Y-100400500D01*
X178556814Y-100466392D01*
X178684108Y-100500500D01*
X178684110Y-100500500D01*
X178815890Y-100500500D01*
X178815892Y-100500500D01*
X178943186Y-100466392D01*
X179057314Y-100400500D01*
X179150500Y-100307314D01*
X179216392Y-100193186D01*
X179250500Y-100065892D01*
X179250500Y-99934108D01*
X179216392Y-99806814D01*
X179150500Y-99692686D01*
X179057314Y-99599500D01*
X179000250Y-99566554D01*
X178943187Y-99533608D01*
X178879539Y-99516554D01*
X178815892Y-99499500D01*
X178684108Y-99499500D01*
X178556812Y-99533608D01*
X178442686Y-99599500D01*
X178442683Y-99599502D01*
X178349502Y-99692683D01*
X178349500Y-99692686D01*
X178283608Y-99806812D01*
X178249500Y-99934108D01*
X172500500Y-99934108D01*
X172466392Y-99806814D01*
X172400500Y-99692686D01*
X172307314Y-99599500D01*
X172250250Y-99566554D01*
X172193187Y-99533608D01*
X172129539Y-99516554D01*
X172065892Y-99499500D01*
X171934108Y-99499500D01*
X171806812Y-99533608D01*
X171692686Y-99599500D01*
X171692683Y-99599502D01*
X171599502Y-99692683D01*
X171599500Y-99692686D01*
X171533608Y-99806812D01*
X171499500Y-99934108D01*
X154262957Y-99934108D01*
X154414900Y-99817518D01*
X154423744Y-99811325D01*
X154745700Y-99606217D01*
X154755045Y-99600822D01*
X155093638Y-99424561D01*
X155103412Y-99420003D01*
X155456095Y-99273917D01*
X155466227Y-99270230D01*
X155830295Y-99155440D01*
X155840709Y-99152649D01*
X156213405Y-99070025D01*
X156224025Y-99068152D01*
X156602495Y-99018326D01*
X156613226Y-99017386D01*
X156997297Y-99000617D01*
X157002706Y-99000500D01*
X157065892Y-99000500D01*
X192759442Y-99000500D01*
X192826481Y-99020185D01*
G37*
%TD.AperFunction*%
%TD*%
M02*
