%TF.GenerationSoftware,KiCad,Pcbnew,9.0.1*%
%TF.CreationDate,2025-05-18T16:35:06-05:00*%
%TF.ProjectId,OM-60-Rigid-PCB,4f4d2d36-302d-4526-9967-69642d504342,rev?*%
%TF.SameCoordinates,Original*%
%TF.FileFunction,Soldermask,Bot*%
%TF.FilePolarity,Negative*%
%FSLAX46Y46*%
G04 Gerber Fmt 4.6, Leading zero omitted, Abs format (unit mm)*
G04 Created by KiCad (PCBNEW 9.0.1) date 2025-05-18 16:35:06*
%MOMM*%
%LPD*%
G01*
G04 APERTURE LIST*
G04 Aperture macros list*
%AMRoundRect*
0 Rectangle with rounded corners*
0 $1 Rounding radius*
0 $2 $3 $4 $5 $6 $7 $8 $9 X,Y pos of 4 corners*
0 Add a 4 corners polygon primitive as box body*
4,1,4,$2,$3,$4,$5,$6,$7,$8,$9,$2,$3,0*
0 Add four circle primitives for the rounded corners*
1,1,$1+$1,$2,$3*
1,1,$1+$1,$4,$5*
1,1,$1+$1,$6,$7*
1,1,$1+$1,$8,$9*
0 Add four rect primitives between the rounded corners*
20,1,$1+$1,$2,$3,$4,$5,0*
20,1,$1+$1,$4,$5,$6,$7,0*
20,1,$1+$1,$6,$7,$8,$9,0*
20,1,$1+$1,$8,$9,$2,$3,0*%
G04 Aperture macros list end*
%ADD10R,1.700000X1.700000*%
%ADD11C,1.700000*%
%ADD12RoundRect,0.150000X-0.875000X-0.150000X0.875000X-0.150000X0.875000X0.150000X-0.875000X0.150000X0*%
%ADD13R,1.350000X1.350000*%
%ADD14C,1.350000*%
%ADD15C,0.650000*%
%ADD16O,1.000000X2.100000*%
%ADD17O,1.000000X1.600000*%
G04 APERTURE END LIST*
D10*
%TO.C,J1*%
X116300000Y-114000000D03*
D11*
X116300000Y-111460000D03*
X116300000Y-108920000D03*
X116300000Y-106380000D03*
X116300000Y-103840000D03*
X116300000Y-101300000D03*
X116300000Y-98760000D03*
X116300000Y-96220000D03*
%TD*%
D12*
%TO.C,U1*%
X137000000Y-92010000D03*
X137000000Y-90740000D03*
X137000000Y-89470000D03*
X137000000Y-88200000D03*
X137000000Y-86930000D03*
X137000000Y-85660000D03*
X137000000Y-84390000D03*
X137000000Y-83120000D03*
X137000000Y-81850000D03*
X137000000Y-80580000D03*
X137000000Y-79310000D03*
X137000000Y-78040000D03*
X146300000Y-78040000D03*
X146300000Y-79310000D03*
X146300000Y-80580000D03*
X146300000Y-81850000D03*
X146300000Y-83120000D03*
X146300000Y-84390000D03*
X146300000Y-85660000D03*
X146300000Y-86930000D03*
X146300000Y-88200000D03*
X146300000Y-89470000D03*
X146300000Y-90740000D03*
X146300000Y-92010000D03*
%TD*%
D10*
%TO.C,GYRO1*%
X124180000Y-112800000D03*
D11*
X126720000Y-112800000D03*
X129260000Y-112800000D03*
X131800000Y-112800000D03*
%TD*%
D13*
%TO.C,J5*%
X154600000Y-93600000D03*
D14*
X154600000Y-95600000D03*
%TD*%
D15*
%TO.C,J4*%
X145910000Y-64850000D03*
X140130000Y-64850000D03*
D16*
X147340000Y-65380000D03*
D17*
X147340000Y-61200000D03*
D16*
X138700000Y-65380000D03*
D17*
X138700000Y-61200000D03*
%TD*%
D10*
%TO.C,J3*%
X158200000Y-61840000D03*
D11*
X158200000Y-64380000D03*
X158200000Y-66920000D03*
X158200000Y-69460000D03*
X158200000Y-72000000D03*
X158200000Y-74540000D03*
X158200000Y-77080000D03*
X158200000Y-79620000D03*
X158200000Y-82160000D03*
X158200000Y-84700000D03*
X158200000Y-87240000D03*
X158200000Y-89780000D03*
X158200000Y-92320000D03*
X158200000Y-94860000D03*
X158200000Y-97400000D03*
X158200000Y-99940000D03*
X158200000Y-102480000D03*
X158200000Y-105020000D03*
X158200000Y-107560000D03*
X158200000Y-110100000D03*
X158200000Y-112640000D03*
%TD*%
D10*
%TO.C,SCRN1*%
X153300000Y-77760000D03*
D11*
X153300000Y-80300000D03*
X153300000Y-82840000D03*
X153300000Y-85380000D03*
%TD*%
M02*
