%TF.GenerationSoftware,KiCad,Pcbnew,9.0.1*%
%TF.CreationDate,2025-06-14T17:56:14-05:00*%
%TF.ProjectId,OM-FlexGrid-Rigid-PCB,4f4d2d46-6c65-4784-9772-69642d526967,rev?*%
%TF.SameCoordinates,Original*%
%TF.FileFunction,Copper,L4,Bot*%
%TF.FilePolarity,Positive*%
%FSLAX46Y46*%
G04 Gerber Fmt 4.6, Leading zero omitted, Abs format (unit mm)*
G04 Created by KiCad (PCBNEW 9.0.1) date 2025-06-14 17:56:14*
%MOMM*%
%LPD*%
G01*
G04 APERTURE LIST*
G04 Aperture macros list*
%AMRoundRect*
0 Rectangle with rounded corners*
0 $1 Rounding radius*
0 $2 $3 $4 $5 $6 $7 $8 $9 X,Y pos of 4 corners*
0 Add a 4 corners polygon primitive as box body*
4,1,4,$2,$3,$4,$5,$6,$7,$8,$9,$2,$3,0*
0 Add four circle primitives for the rounded corners*
1,1,$1+$1,$2,$3*
1,1,$1+$1,$4,$5*
1,1,$1+$1,$6,$7*
1,1,$1+$1,$8,$9*
0 Add four rect primitives between the rounded corners*
20,1,$1+$1,$2,$3,$4,$5,0*
20,1,$1+$1,$4,$5,$6,$7,0*
20,1,$1+$1,$6,$7,$8,$9,0*
20,1,$1+$1,$8,$9,$2,$3,0*%
G04 Aperture macros list end*
%TA.AperFunction,SMDPad,CuDef*%
%ADD10R,1.498600X0.812800*%
%TD*%
%TA.AperFunction,SMDPad,CuDef*%
%ADD11R,0.812800X1.498600*%
%TD*%
%TA.AperFunction,SMDPad,CuDef*%
%ADD12R,0.889000X0.889000*%
%TD*%
%TA.AperFunction,ComponentPad*%
%ADD13R,1.000000X1.000000*%
%TD*%
%TA.AperFunction,ComponentPad*%
%ADD14C,1.000000*%
%TD*%
%TA.AperFunction,ComponentPad*%
%ADD15R,1.700000X1.700000*%
%TD*%
%TA.AperFunction,ComponentPad*%
%ADD16C,1.700000*%
%TD*%
%TA.AperFunction,HeatsinkPad*%
%ADD17O,1.000000X2.100000*%
%TD*%
%TA.AperFunction,HeatsinkPad*%
%ADD18O,1.000000X1.600000*%
%TD*%
%TA.AperFunction,SMDPad,CuDef*%
%ADD19RoundRect,0.100000X-0.100000X0.637500X-0.100000X-0.637500X0.100000X-0.637500X0.100000X0.637500X0*%
%TD*%
%TA.AperFunction,SMDPad,CuDef*%
%ADD20RoundRect,0.150000X0.150000X-0.587500X0.150000X0.587500X-0.150000X0.587500X-0.150000X-0.587500X0*%
%TD*%
%TA.AperFunction,ComponentPad*%
%ADD21R,1.350000X1.350000*%
%TD*%
%TA.AperFunction,ComponentPad*%
%ADD22C,1.350000*%
%TD*%
%TA.AperFunction,SMDPad,CuDef*%
%ADD23RoundRect,0.200000X-0.200000X-0.275000X0.200000X-0.275000X0.200000X0.275000X-0.200000X0.275000X0*%
%TD*%
%TA.AperFunction,SMDPad,CuDef*%
%ADD24RoundRect,0.225000X0.250000X-0.225000X0.250000X0.225000X-0.250000X0.225000X-0.250000X-0.225000X0*%
%TD*%
%TA.AperFunction,SMDPad,CuDef*%
%ADD25RoundRect,0.225000X0.225000X0.375000X-0.225000X0.375000X-0.225000X-0.375000X0.225000X-0.375000X0*%
%TD*%
%TA.AperFunction,ViaPad*%
%ADD26C,0.600000*%
%TD*%
%TA.AperFunction,Conductor*%
%ADD27C,0.200000*%
%TD*%
%TA.AperFunction,Conductor*%
%ADD28C,0.350000*%
%TD*%
G04 APERTURE END LIST*
D10*
%TO.P,U2,1,GND*%
%TO.N,GND*%
X179500000Y-100840000D03*
%TO.P,U2,2,3V3*%
%TO.N,+3V3*%
X179500000Y-102110000D03*
%TO.P,U2,3,EN*%
%TO.N,EN*%
X179500000Y-103380000D03*
%TO.P,U2,4,IO4*%
%TO.N,ROW_3*%
X179500000Y-104650000D03*
%TO.P,U2,5,IO5*%
%TO.N,S0*%
X179500000Y-105920000D03*
%TO.P,U2,6,IO6*%
%TO.N,S1*%
X179500000Y-107190000D03*
%TO.P,U2,7,IO7*%
%TO.N,S2*%
X179500000Y-108460000D03*
%TO.P,U2,8,IO15*%
%TO.N,S3*%
X179500000Y-109730000D03*
%TO.P,U2,9,IO16*%
%TO.N,GP16_E*%
X179500000Y-111000000D03*
%TO.P,U2,10,IO17*%
%TO.N,MOT_SIG*%
X179500000Y-112270000D03*
%TO.P,U2,11,IO18*%
%TO.N,ADC_BAT*%
X179500000Y-113540000D03*
%TO.P,U2,12,IO8*%
%TO.N,SDA*%
X179500000Y-114810000D03*
%TO.P,U2,13,IO19*%
%TO.N,D-*%
X179500000Y-116080000D03*
%TO.P,U2,14,IO20*%
%TO.N,D+*%
X179500000Y-117350000D03*
D11*
%TO.P,U2,15,IO3*%
%TO.N,ROW_2*%
X177735000Y-118600000D03*
%TO.P,U2,16,IO46*%
%TO.N,unconnected-(U2-IO46-Pad16)*%
X176465000Y-118600000D03*
%TO.P,U2,17,IO9*%
%TO.N,SCL*%
X175195000Y-118600000D03*
%TO.P,U2,18,IO10*%
%TO.N,SELECT*%
X173925000Y-118600000D03*
%TO.P,U2,19,IO11*%
%TO.N,SPI_MISO*%
X172655000Y-118600000D03*
%TO.P,U2,20,IO12*%
%TO.N,SPI_SCK*%
X171385000Y-118600000D03*
%TO.P,U2,21,IO13*%
%TO.N,SPI_MOSI*%
X170115000Y-118600000D03*
%TO.P,U2,22,IO14*%
%TO.N,CS*%
X168845000Y-118600000D03*
%TO.P,U2,23,IO21*%
%TO.N,MENU*%
X167575000Y-118600000D03*
%TO.P,U2,24,IO47*%
%TO.N,unconnected-(U2-IO47-Pad24)*%
X166305000Y-118600000D03*
%TO.P,U2,25,IO48*%
%TO.N,unconnected-(U2-IO48-Pad25)*%
X165035000Y-118600000D03*
%TO.P,U2,26,IO45*%
%TO.N,PWR_OFF*%
X163765000Y-118600000D03*
D10*
%TO.P,U2,27,IO0*%
%TO.N,100*%
X162000000Y-117350000D03*
%TO.P,U2,28,IO35*%
%TO.N,unconnected-(U2-IO35-Pad28)*%
X162000000Y-116080000D03*
%TO.P,U2,29,IO36*%
%TO.N,unconnected-(U2-IO36-Pad29)*%
X162000000Y-114810000D03*
%TO.P,U2,30,IO37*%
%TO.N,unconnected-(U2-IO37-Pad30)*%
X162000000Y-113540000D03*
%TO.P,U2,31,IO38*%
%TO.N,unconnected-(U2-IO38-Pad31)*%
X162000000Y-112270000D03*
%TO.P,U2,32,IO39*%
%TO.N,unconnected-(U2-IO39-Pad32)*%
X162000000Y-111000000D03*
%TO.P,U2,33,IO40*%
%TO.N,GP40*%
X162000000Y-109730000D03*
%TO.P,U2,34,IO41*%
%TO.N,GP41*%
X162000000Y-108460000D03*
%TO.P,U2,35,IO42*%
%TO.N,unconnected-(U2-IO42-Pad35)*%
X162000000Y-107190000D03*
%TO.P,U2,36,RXD0*%
%TO.N,RX*%
X162000000Y-105920000D03*
%TO.P,U2,37,TXD0*%
%TO.N,TX*%
X162000000Y-104650000D03*
%TO.P,U2,38,IO2*%
%TO.N,ROW_1*%
X162000000Y-103380000D03*
%TO.P,U2,39,IO1*%
%TO.N,ROW_0*%
X162000000Y-102110000D03*
%TO.P,U2,40,GND*%
%TO.N,GND*%
X162000000Y-100840000D03*
D12*
%TO.P,U2,41,GND*%
X172250000Y-108560000D03*
%TO.P,U2,42*%
%TO.N,N/C*%
X173650000Y-107160000D03*
%TO.P,U2,43*%
X173650000Y-108560000D03*
%TO.P,U2,44*%
X173650000Y-109960000D03*
%TO.P,U2,45*%
X172250000Y-109960000D03*
%TO.P,U2,46,GND*%
%TO.N,GND*%
X170850000Y-109960000D03*
%TO.P,U2,47,GND*%
X170850000Y-108560000D03*
%TO.P,U2,48,GND*%
X170850000Y-107160000D03*
%TO.P,U2,49,GND*%
X172250000Y-107160000D03*
%TD*%
D13*
%TO.P,J6,1,Pin_1*%
%TO.N,GND*%
X162230000Y-121750000D03*
D14*
%TO.P,J6,2,Pin_2*%
%TO.N,RX*%
X163500000Y-121750000D03*
%TO.P,J6,3,Pin_3*%
%TO.N,TX*%
X164770000Y-121750000D03*
%TD*%
D13*
%TO.P,J1,1,Pin_1*%
%TO.N,GP41*%
X168480000Y-122500000D03*
D14*
%TO.P,J1,2,Pin_2*%
%TO.N,SPI_MOSI*%
X168480000Y-121230000D03*
%TO.P,J1,3,Pin_3*%
%TO.N,SPI_SCK*%
X169750000Y-122500000D03*
%TO.P,J1,4,Pin_4*%
%TO.N,SPI_MISO*%
X169750000Y-121230000D03*
%TO.P,J1,5,Pin_5*%
%TO.N,CS*%
X171020000Y-122500000D03*
%TO.P,J1,6,Pin_6*%
%TO.N,GP40*%
X171020000Y-121230000D03*
%TD*%
D15*
%TO.P,SCRN1,1,Pin_1*%
%TO.N,GND*%
X188310000Y-124000000D03*
D16*
%TO.P,SCRN1,2,Pin_2*%
%TO.N,+3V3*%
X185770000Y-124000000D03*
%TO.P,SCRN1,3,Pin_3*%
%TO.N,SCL*%
X183230000Y-124000000D03*
%TO.P,SCRN1,4,Pin_4*%
%TO.N,SDA*%
X180690000Y-124000000D03*
%TD*%
D15*
%TO.P,J2,1,Pin_1*%
%TO.N,GND*%
X215500000Y-115500000D03*
D16*
%TO.P,J2,2,Pin_2*%
%TO.N,VBAT*%
X215500000Y-112960000D03*
%TD*%
D17*
%TO.P,J4,S1,SHIELD*%
%TO.N,GND*%
X202070000Y-104085000D03*
D18*
X202070000Y-99905000D03*
D17*
X193430000Y-104085000D03*
D18*
X193430000Y-99905000D03*
%TD*%
D19*
%TO.P,U1,1,COM*%
%TO.N,+3V3*%
X196500000Y-116000000D03*
%TO.P,U1,2,I7*%
%TO.N,COL_7*%
X197150000Y-116000000D03*
%TO.P,U1,3,I6*%
%TO.N,COL_6*%
X197800000Y-116000000D03*
%TO.P,U1,4,I5*%
%TO.N,COL_5*%
X198450000Y-116000000D03*
%TO.P,U1,5,I4*%
%TO.N,COL_4*%
X199100000Y-116000000D03*
%TO.P,U1,6,I3*%
%TO.N,COL_3*%
X199750000Y-116000000D03*
%TO.P,U1,7,I2*%
%TO.N,COL_2*%
X200400000Y-116000000D03*
%TO.P,U1,8,I1*%
%TO.N,COL_1*%
X201050000Y-116000000D03*
%TO.P,U1,9,I0*%
%TO.N,COL_0*%
X201700000Y-116000000D03*
%TO.P,U1,10,S0*%
%TO.N,S0*%
X202350000Y-116000000D03*
%TO.P,U1,11,S1*%
%TO.N,S1*%
X203000000Y-116000000D03*
%TO.P,U1,12,GND*%
%TO.N,GND*%
X203650000Y-116000000D03*
%TO.P,U1,13,S3*%
%TO.N,S3*%
X203650000Y-121725000D03*
%TO.P,U1,14,S2*%
%TO.N,S2*%
X203000000Y-121725000D03*
%TO.P,U1,15,~{E}*%
%TO.N,GP16_E*%
X202350000Y-121725000D03*
%TO.P,U1,16,I15*%
%TO.N,unconnected-(U1-I15-Pad16)*%
X201700000Y-121725000D03*
%TO.P,U1,17,I14*%
%TO.N,COL_14*%
X201050000Y-121725000D03*
%TO.P,U1,18,I13*%
%TO.N,COL_13*%
X200400000Y-121725000D03*
%TO.P,U1,19,I12*%
%TO.N,COL_12*%
X199750000Y-121725000D03*
%TO.P,U1,20,I11*%
%TO.N,COL_11*%
X199100000Y-121725000D03*
%TO.P,U1,21,I10*%
%TO.N,COL_10*%
X198450000Y-121725000D03*
%TO.P,U1,22,I9*%
%TO.N,COL_9*%
X197800000Y-121725000D03*
%TO.P,U1,23,I8*%
%TO.N,COL_8*%
X197150000Y-121725000D03*
%TO.P,U1,24,VCC*%
%TO.N,+3V3*%
X196500000Y-121725000D03*
%TD*%
D20*
%TO.P,Q1,1,G*%
%TO.N,Net-(Q1-G)*%
X211000000Y-115500000D03*
%TO.P,Q1,2,S*%
%TO.N,GND*%
X209100000Y-115500000D03*
%TO.P,Q1,3,D*%
%TO.N,MotorGND*%
X210050000Y-113625000D03*
%TD*%
D21*
%TO.P,J5,1,Pin_1*%
%TO.N,VBAT*%
X214500000Y-108000000D03*
D22*
%TO.P,J5,2,Pin_2*%
%TO.N,MotorGND*%
X212500000Y-108000000D03*
%TD*%
D23*
%TO.P,R10,1*%
%TO.N,Net-(Q1-G)*%
X209350000Y-120500000D03*
%TO.P,R10,2*%
%TO.N,MOT_SIG*%
X211000000Y-120500000D03*
%TD*%
D24*
%TO.P,C9,1*%
%TO.N,MotorGND*%
X213000000Y-121050000D03*
%TO.P,C9,2*%
%TO.N,VBAT*%
X213000000Y-119500000D03*
%TD*%
D23*
%TO.P,R11,1*%
%TO.N,GND*%
X209350000Y-118000000D03*
%TO.P,R11,2*%
%TO.N,Net-(Q1-G)*%
X211000000Y-118000000D03*
%TD*%
D25*
%TO.P,D4,1,K*%
%TO.N,VBAT*%
X215000000Y-111000000D03*
%TO.P,D4,2,A*%
%TO.N,MotorGND*%
X211700000Y-111000000D03*
%TD*%
D13*
%TO.P,J3,1,Pin_1*%
%TO.N,COL_0*%
X195930000Y-127000000D03*
D14*
%TO.P,J3,2,Pin_2*%
%TO.N,COL_1*%
X194660000Y-127000000D03*
%TO.P,J3,3,Pin_3*%
%TO.N,COL_2*%
X193390000Y-127000000D03*
%TO.P,J3,4,Pin_4*%
%TO.N,COL_3*%
X192120000Y-127000000D03*
%TO.P,J3,5,Pin_5*%
%TO.N,COL_4*%
X190850000Y-127000000D03*
%TO.P,J3,6,Pin_6*%
%TO.N,COL_5*%
X189580000Y-127000000D03*
%TO.P,J3,7,Pin_7*%
%TO.N,COL_6*%
X188310000Y-127000000D03*
%TO.P,J3,8,Pin_8*%
%TO.N,COL_7*%
X187040000Y-127000000D03*
%TO.P,J3,9,Pin_9*%
%TO.N,COL_8*%
X185770000Y-127000000D03*
%TO.P,J3,10,Pin_10*%
%TO.N,COL_9*%
X184500000Y-127000000D03*
%TO.P,J3,11,Pin_11*%
%TO.N,COL_10*%
X183230000Y-127000000D03*
%TO.P,J3,12,Pin_12*%
%TO.N,COL_11*%
X181960000Y-127000000D03*
%TO.P,J3,13,Pin_13*%
%TO.N,COL_12*%
X180690000Y-127000000D03*
%TO.P,J3,14,Pin_14*%
%TO.N,COL_13*%
X179420000Y-127000000D03*
%TO.P,J3,15,Pin_15*%
%TO.N,COL_14*%
X178150000Y-127000000D03*
%TO.P,J3,16,Pin_16*%
%TO.N,ROW_0*%
X176880000Y-127000000D03*
%TO.P,J3,17,Pin_17*%
%TO.N,ROW_1*%
X175610000Y-127000000D03*
%TO.P,J3,18,Pin_18*%
%TO.N,ROW_2*%
X174340000Y-127000000D03*
%TO.P,J3,19,Pin_19*%
%TO.N,ROW_3*%
X173070000Y-127000000D03*
%TD*%
D26*
%TO.N,GND*%
X170040000Y-109960000D03*
X167112500Y-104887500D03*
%TO.N,100*%
X191500000Y-101000000D03*
%TO.N,SPI_SCK*%
X172750000Y-121250000D03*
%TO.N,GP41*%
X155750000Y-122500000D03*
%TO.N,GP40*%
X157250000Y-121500000D03*
%TO.N,+3V3*%
X205175000Y-112325000D03*
%TO.N,D-*%
X196500000Y-103500000D03*
%TO.N,D+*%
X197500000Y-103250000D03*
%TO.N,ADC_BAT*%
X188250000Y-113500000D03*
%TO.N,EN*%
X208000000Y-101500000D03*
%TO.N,VBAT*%
X191250000Y-110500000D03*
%TO.N,ROW_3*%
X158500000Y-123500000D03*
X166750000Y-116500000D03*
%TO.N,GND*%
X161000000Y-101000000D03*
X154500000Y-109500000D03*
X154500000Y-117250000D03*
%TO.N,SELECT*%
X173750000Y-120000000D03*
%TO.N,MENU*%
X160500000Y-118750000D03*
%TO.N,PWR_OFF*%
X165750000Y-100750000D03*
%TO.N,ROW_1*%
X165900000Y-127100000D03*
%TO.N,ROW_0*%
X170700000Y-127200000D03*
%TO.N,ROW_2*%
X164350000Y-128650000D03*
%TO.N,ROW_3*%
X160875000Y-128875000D03*
%TO.N,SCL*%
X175250000Y-120000000D03*
%TO.N,S1*%
X181750000Y-111750000D03*
%TO.N,S2*%
X181000000Y-111000000D03*
%TO.N,GP16_E*%
X179500000Y-111000000D03*
%TO.N,S3*%
X178250000Y-110750000D03*
%TO.N,S0*%
X183000000Y-113000000D03*
%TO.N,+3V3*%
X180750000Y-102250000D03*
%TO.N,GND*%
X178750000Y-100000000D03*
%TO.N,Net-(MAX1-In)*%
X169000000Y-101550000D03*
X172000000Y-100000000D03*
%TO.N,GND*%
X187000000Y-117500000D03*
%TO.N,+3V3*%
X187000000Y-119500000D03*
%TO.N,GND*%
X185500000Y-120000000D03*
%TO.N,S3*%
X203000000Y-119500000D03*
%TO.N,S0*%
X202000000Y-117500000D03*
%TO.N,S1*%
X203000000Y-118000000D03*
%TO.N,S2*%
X202000000Y-119500000D03*
%TO.N,GP16_E*%
X202000000Y-120500000D03*
%TO.N,+3V3*%
X196000000Y-122000000D03*
X196000000Y-116000000D03*
%TO.N,GND*%
X204000000Y-116000000D03*
%TO.N,Net-(D2-K)*%
X185500000Y-106000000D03*
X190000000Y-112500000D03*
%TO.N,GND*%
X183000000Y-111500000D03*
X182500000Y-106500000D03*
X194000000Y-113000000D03*
X208000000Y-111000000D03*
X209350000Y-117000000D03*
X169900000Y-125500000D03*
X166800000Y-125500000D03*
X163700000Y-125500000D03*
X160500000Y-125500000D03*
X198500000Y-109650000D03*
%TO.N,VBUS*%
X168500000Y-116500000D03*
X186500000Y-108000000D03*
X175000000Y-111500000D03*
X195000000Y-106500000D03*
X200500000Y-106500000D03*
%TO.N,GND*%
X174950000Y-109950000D03*
%TO.N,+3V3*%
X174500000Y-106000000D03*
%TO.N,GND*%
X170500000Y-106000000D03*
%TD*%
D27*
%TO.N,GND*%
X178750000Y-100090000D02*
X179500000Y-100840000D01*
X178750000Y-100000000D02*
X178750000Y-100090000D01*
X170850000Y-109960000D02*
X170040000Y-109960000D01*
%TO.N,100*%
X164849000Y-100801057D02*
X166251057Y-99399000D01*
X189899000Y-99399000D02*
X191500000Y-101000000D01*
X164849000Y-110000000D02*
X164849000Y-100801057D01*
X166251057Y-99399000D02*
X189899000Y-99399000D01*
X163364000Y-116636000D02*
X163364000Y-111485000D01*
X162650000Y-117350000D02*
X163364000Y-116636000D01*
X163364000Y-111485000D02*
X164849000Y-110000000D01*
X162000000Y-117350000D02*
X162650000Y-117350000D01*
%TO.N,PWR_OFF*%
X163765000Y-113985000D02*
X163765000Y-118600000D01*
X165750000Y-100750000D02*
X165750000Y-101250000D01*
X165250000Y-112500000D02*
X163765000Y-113985000D01*
X165750000Y-101250000D02*
X165250000Y-101750000D01*
X165250000Y-101750000D02*
X165250000Y-112500000D01*
%TO.N,SPI_SCK*%
X171385000Y-119635000D02*
X171385000Y-118600000D01*
X172750000Y-121000000D02*
X171385000Y-119635000D01*
X172750000Y-121250000D02*
X172750000Y-121000000D01*
%TO.N,SPI_MISO*%
X172655000Y-119754943D02*
X172655000Y-118600000D01*
X173450028Y-120549971D02*
X172655000Y-119754943D01*
X172998943Y-121851000D02*
X173450028Y-121399915D01*
X172501057Y-121851000D02*
X172998943Y-121851000D01*
X172149000Y-121498943D02*
X172501057Y-121851000D01*
X172149000Y-121001057D02*
X172149000Y-121498943D01*
X171576943Y-120429000D02*
X172149000Y-121001057D01*
X173450028Y-121399915D02*
X173450028Y-120549971D01*
X170551000Y-120429000D02*
X171576943Y-120429000D01*
X169750000Y-121230000D02*
X170551000Y-120429000D01*
%TO.N,GP40*%
X162487700Y-109730000D02*
X162000000Y-109730000D01*
X163500000Y-108717700D02*
X162487700Y-109730000D01*
X163500000Y-100000000D02*
X163500000Y-108717700D01*
X163231600Y-99731600D02*
X163500000Y-100000000D01*
X158716376Y-99731600D02*
X163231600Y-99731600D01*
X155149000Y-103298976D02*
X158716376Y-99731600D01*
X155149000Y-122748943D02*
X155149000Y-103298976D01*
X155501057Y-123101000D02*
X155149000Y-122748943D01*
X155998943Y-123101000D02*
X155501057Y-123101000D01*
X157250000Y-121849943D02*
X155998943Y-123101000D01*
X157250000Y-121500000D02*
X157250000Y-121849943D01*
%TO.N,GP41*%
X162342900Y-108460000D02*
X162000000Y-108460000D01*
X160867400Y-100132600D02*
X163050300Y-100132600D01*
X160399000Y-100601000D02*
X160867400Y-100132600D01*
X163050300Y-107752600D02*
X162342900Y-108460000D01*
X155750000Y-106802024D02*
X160399000Y-102153024D01*
X160399000Y-102153024D02*
X160399000Y-100601000D01*
X163050300Y-100132600D02*
X163050300Y-107752600D01*
X155750000Y-122500000D02*
X155750000Y-106802024D01*
%TO.N,CS*%
X166000000Y-121932700D02*
X168845000Y-119087700D01*
X166000000Y-123500000D02*
X166000000Y-121932700D01*
X167250000Y-124750000D02*
X166000000Y-123500000D01*
X168845000Y-119087700D02*
X168845000Y-118600000D01*
X168770000Y-124750000D02*
X167250000Y-124750000D01*
X171020000Y-122500000D02*
X168770000Y-124750000D01*
%TO.N,SPI_MOSI*%
X170115000Y-119595000D02*
X170115000Y-118600000D01*
X168480000Y-121230000D02*
X170115000Y-119595000D01*
%TO.N,TX*%
X160954200Y-104650000D02*
X162000000Y-104650000D01*
X159498000Y-106106200D02*
X160954200Y-104650000D01*
X159498000Y-120620000D02*
X159498000Y-106106200D01*
X163969000Y-122551000D02*
X161429000Y-122551000D01*
X161429000Y-122551000D02*
X159498000Y-120620000D01*
X164770000Y-121750000D02*
X163969000Y-122551000D01*
%TO.N,RX*%
X161657100Y-105920000D02*
X162000000Y-105920000D01*
X159899000Y-107678100D02*
X161657100Y-105920000D01*
X159899000Y-118998943D02*
X159899000Y-107678100D01*
X160362457Y-119462400D02*
X159899000Y-118998943D01*
X163500000Y-121174800D02*
X161787600Y-119462400D01*
X161787600Y-119462400D02*
X160362457Y-119462400D01*
X163500000Y-121750000D02*
X163500000Y-121174800D01*
%TO.N,MOT_SIG*%
X210224000Y-121276000D02*
X211000000Y-120500000D01*
X208936936Y-121276000D02*
X210224000Y-121276000D01*
X207750000Y-120089064D02*
X208936936Y-121276000D01*
X207750000Y-117250000D02*
X207750000Y-120089064D01*
X202500000Y-112000000D02*
X207750000Y-117250000D01*
X202500000Y-107400057D02*
X202500000Y-112000000D01*
X197748943Y-102649000D02*
X202500000Y-107400057D01*
X196501057Y-102649000D02*
X197748943Y-102649000D01*
X195899000Y-103251057D02*
X196501057Y-102649000D01*
X190248943Y-113101000D02*
X195899000Y-107450943D01*
X189751057Y-113101000D02*
X190248943Y-113101000D01*
X189399000Y-112748943D02*
X189751057Y-113101000D01*
X184101000Y-112748943D02*
X189399000Y-112748943D01*
X195899000Y-107450943D02*
X195899000Y-103251057D01*
X183248943Y-113601000D02*
X184101000Y-112748943D01*
X181351000Y-113601000D02*
X183248943Y-113601000D01*
X180020000Y-112270000D02*
X181351000Y-113601000D01*
X179500000Y-112270000D02*
X180020000Y-112270000D01*
%TO.N,D-*%
X179830000Y-115750000D02*
X179500000Y-116080000D01*
X192099943Y-115750000D02*
X179830000Y-115750000D01*
X196500000Y-111349943D02*
X192099943Y-115750000D01*
X196500000Y-103500000D02*
X196500000Y-111349943D01*
%TO.N,D+*%
X197899000Y-103649000D02*
X197500000Y-103250000D01*
X197899000Y-110601000D02*
X197899000Y-103649000D01*
X192000000Y-116500000D02*
X197899000Y-110601000D01*
%TO.N,ADC_BAT*%
X179842900Y-113540000D02*
X179500000Y-113540000D01*
X187250000Y-114500000D02*
X180802900Y-114500000D01*
X188250000Y-113500000D02*
X187250000Y-114500000D01*
X180802900Y-114500000D02*
X179842900Y-113540000D01*
%TO.N,EN*%
X196500000Y-101750000D02*
X207750000Y-101750000D01*
X185177785Y-101750000D02*
X196500000Y-101750000D01*
X183547785Y-103380000D02*
X185177785Y-101750000D01*
X207750000Y-101750000D02*
X208000000Y-101500000D01*
X179500000Y-103380000D02*
X183547785Y-103380000D01*
%TO.N,ROW_0*%
X158500000Y-105122300D02*
X161512300Y-102110000D01*
X161512300Y-102110000D02*
X162000000Y-102110000D01*
X163749000Y-127696943D02*
X158500000Y-122447943D01*
X158500000Y-122447943D02*
X158500000Y-105122300D01*
X164101057Y-129251000D02*
X163749000Y-128898943D01*
X163749000Y-128898943D02*
X163749000Y-127696943D01*
X168649000Y-129251000D02*
X164101057Y-129251000D01*
X170700000Y-127200000D02*
X168649000Y-129251000D01*
%TO.N,ROW_1*%
X161657100Y-103380000D02*
X162000000Y-103380000D01*
X159000000Y-106037100D02*
X161657100Y-103380000D01*
X164450057Y-127100000D02*
X159000000Y-121649943D01*
X159000000Y-121649943D02*
X159000000Y-106037100D01*
X165900000Y-127100000D02*
X164450057Y-127100000D01*
%TO.N,ROW_0*%
X162000000Y-102110000D02*
X161322900Y-102110000D01*
%TO.N,MENU*%
X167575000Y-118942900D02*
X167575000Y-118600000D01*
X166867600Y-119650300D02*
X167575000Y-118942900D01*
X162542600Y-119650300D02*
X166867600Y-119650300D01*
X161642300Y-118750000D02*
X162542600Y-119650300D01*
X160500000Y-118750000D02*
X161642300Y-118750000D01*
%TO.N,ROW_3*%
X159250000Y-127250000D02*
X160875000Y-128875000D01*
X158500000Y-125000000D02*
X159250000Y-125750000D01*
X158500000Y-123500000D02*
X158500000Y-125000000D01*
X159250000Y-125750000D02*
X159250000Y-127250000D01*
X166750000Y-108900057D02*
X166750000Y-116500000D01*
X171000057Y-104650000D02*
X166750000Y-108900057D01*
X179500000Y-104650000D02*
X171000057Y-104650000D01*
%TO.N,SELECT*%
X173925000Y-119825000D02*
X173750000Y-120000000D01*
X173925000Y-118600000D02*
X173925000Y-119825000D01*
%TO.N,100*%
X162000000Y-117350000D02*
X161512300Y-117350000D01*
%TO.N,ROW_2*%
X165250000Y-127750000D02*
X164350000Y-128650000D01*
X168927900Y-127750000D02*
X165250000Y-127750000D01*
%TO.N,SCL*%
X175195000Y-119945000D02*
X175250000Y-120000000D01*
X175195000Y-118600000D02*
X175195000Y-119945000D01*
%TO.N,ROW_2*%
X177735000Y-118942900D02*
X168927900Y-127750000D01*
X177735000Y-118600000D02*
X177735000Y-118942900D01*
%TO.N,SDA*%
X178449700Y-121759700D02*
X180690000Y-124000000D01*
X178449700Y-115372600D02*
X178449700Y-121759700D01*
X179012300Y-114810000D02*
X178449700Y-115372600D01*
X179500000Y-114810000D02*
X179012300Y-114810000D01*
%TO.N,D+*%
X191601000Y-116899000D02*
X192000000Y-116500000D01*
X179951000Y-116899000D02*
X191601000Y-116899000D01*
X179500000Y-117350000D02*
X179951000Y-116899000D01*
%TO.N,S3*%
X178550700Y-109730000D02*
X179500000Y-109730000D01*
X178250000Y-110030700D02*
X178550700Y-109730000D01*
X178250000Y-110750000D02*
X178250000Y-110030700D01*
%TO.N,S0*%
X182500000Y-112500000D02*
X183000000Y-113000000D01*
X182500000Y-111849943D02*
X182500000Y-112500000D01*
X182500000Y-111150057D02*
X182399000Y-111251057D01*
X182399000Y-111748943D02*
X182500000Y-111849943D01*
X179920000Y-105920000D02*
X182500000Y-108500000D01*
X182500000Y-108500000D02*
X182500000Y-111150057D01*
X182399000Y-111251057D02*
X182399000Y-111748943D01*
X179500000Y-105920000D02*
X179920000Y-105920000D01*
%TO.N,S1*%
X181750000Y-109097100D02*
X181750000Y-111750000D01*
X179842900Y-107190000D02*
X181750000Y-109097100D01*
X179500000Y-107190000D02*
X179842900Y-107190000D01*
%TO.N,S2*%
X179987700Y-108460000D02*
X181000000Y-109472300D01*
X181000000Y-109472300D02*
X181000000Y-111000000D01*
X179500000Y-108460000D02*
X179987700Y-108460000D01*
%TO.N,+3V3*%
X180610000Y-102110000D02*
X180750000Y-102250000D01*
X179500000Y-102110000D02*
X180610000Y-102110000D01*
%TO.N,GND*%
X161160000Y-100840000D02*
X161000000Y-101000000D01*
X162000000Y-100840000D02*
X161160000Y-100840000D01*
%TO.N,Net-(MAX1-In)*%
X169000000Y-101550000D02*
X170550000Y-100000000D01*
X170550000Y-100000000D02*
X172000000Y-100000000D01*
%TO.N,S3*%
X203650000Y-120150000D02*
X203000000Y-119500000D01*
X203650000Y-121725000D02*
X203650000Y-120150000D01*
%TO.N,S2*%
X203000000Y-120500000D02*
X202000000Y-119500000D01*
X203000000Y-121725000D02*
X203000000Y-120500000D01*
%TO.N,S1*%
X203000000Y-116000000D02*
X203000000Y-118000000D01*
%TO.N,S0*%
X202350000Y-117150000D02*
X202000000Y-117500000D01*
X202350000Y-116000000D02*
X202350000Y-117150000D01*
%TO.N,GP16_E*%
X202350000Y-120850000D02*
X202000000Y-120500000D01*
X202350000Y-121725000D02*
X202350000Y-120850000D01*
%TO.N,COL_0*%
X201700000Y-116867100D02*
X201700000Y-116000000D01*
X198347350Y-120219750D02*
X201700000Y-116867100D01*
X195780250Y-120219750D02*
X198347350Y-120219750D01*
X195399000Y-120601000D02*
X195780250Y-120219750D01*
X195399000Y-126469000D02*
X195399000Y-120601000D01*
X195930000Y-127000000D02*
X195399000Y-126469000D01*
%TO.N,COL_1*%
X194660000Y-120242600D02*
X194660000Y-127000000D01*
X195083850Y-119818750D02*
X194660000Y-120242600D01*
X198181250Y-119818750D02*
X195083850Y-119818750D01*
X201050000Y-116950000D02*
X198181250Y-119818750D01*
X201050000Y-116000000D02*
X201050000Y-116950000D01*
%TO.N,COL_2*%
X200400000Y-116657370D02*
X200400000Y-116000000D01*
X197639620Y-119417750D02*
X200400000Y-116657370D01*
X193390000Y-120945500D02*
X194917750Y-119417750D01*
X194917750Y-119417750D02*
X197639620Y-119417750D01*
X193390000Y-127000000D02*
X193390000Y-120945500D01*
%TO.N,COL_3*%
X199368870Y-117038500D02*
X199601000Y-116806370D01*
X199285970Y-117038500D02*
X199368870Y-117038500D01*
X198884970Y-117439500D02*
X199285970Y-117038500D01*
X198802070Y-117439500D02*
X198884970Y-117439500D01*
X198401070Y-117840500D02*
X198802070Y-117439500D01*
X199601000Y-116806370D02*
X199601000Y-116000000D01*
X199601000Y-116000000D02*
X199750000Y-116000000D01*
X198360800Y-117840500D02*
X198401070Y-117840500D01*
X198049300Y-118152000D02*
X198360800Y-117840500D01*
X198006670Y-118152000D02*
X198049300Y-118152000D01*
X197917170Y-118241500D02*
X198006670Y-118152000D01*
X197834270Y-118241500D02*
X197917170Y-118241500D01*
X195125900Y-118642500D02*
X197433270Y-118642500D01*
X197433270Y-118642500D02*
X197834270Y-118241500D01*
X192120000Y-121648400D02*
X195125900Y-118642500D01*
X192120000Y-127000000D02*
X192120000Y-121648400D01*
%TO.N,COL_4*%
X190850000Y-122351300D02*
X190850000Y-127000000D01*
X194959800Y-118241500D02*
X190850000Y-122351300D01*
X197668170Y-117840500D02*
X197267170Y-118241500D01*
X197751070Y-117840500D02*
X197668170Y-117840500D01*
X197840570Y-117751000D02*
X197751070Y-117840500D01*
X198194700Y-117439500D02*
X197883200Y-117751000D01*
X197267170Y-118241500D02*
X194959800Y-118241500D01*
X198234970Y-117439500D02*
X198194700Y-117439500D01*
X198635970Y-117038500D02*
X198234970Y-117439500D01*
X198718870Y-117038500D02*
X198635970Y-117038500D01*
X197883200Y-117751000D02*
X197840570Y-117751000D01*
X198951000Y-116806370D02*
X198718870Y-117038500D01*
X199100000Y-116000000D02*
X198951000Y-116000000D01*
X198951000Y-116000000D02*
X198951000Y-116806370D01*
%TO.N,COL_5*%
X189580000Y-125953000D02*
X189580000Y-127000000D01*
X189793200Y-125953000D02*
X189580000Y-125953000D01*
X190263000Y-122371200D02*
X190263000Y-125483200D01*
X190263000Y-125483200D02*
X189793200Y-125953000D01*
X194793700Y-117840500D02*
X190263000Y-122371200D01*
X197101070Y-117840500D02*
X194793700Y-117840500D01*
X197502070Y-117439500D02*
X197101070Y-117840500D01*
X197584970Y-117439500D02*
X197502070Y-117439500D01*
X197717100Y-117350000D02*
X197674470Y-117350000D01*
X197674470Y-117350000D02*
X197584970Y-117439500D01*
X198028600Y-117038500D02*
X197717100Y-117350000D01*
X198068870Y-117038500D02*
X198028600Y-117038500D01*
X198301000Y-116806370D02*
X198068870Y-117038500D01*
X198301000Y-116699000D02*
X198301000Y-116806370D01*
X198450000Y-116000000D02*
X198450000Y-116550000D01*
X198450000Y-116550000D02*
X198301000Y-116699000D01*
%TO.N,COL_6*%
X197800000Y-116700000D02*
X197800000Y-116000000D01*
X197551000Y-116949000D02*
X197800000Y-116700000D01*
X197508370Y-116949000D02*
X197551000Y-116949000D01*
X197418870Y-117038500D02*
X197508370Y-116949000D01*
X197335970Y-117038500D02*
X197418870Y-117038500D01*
X194627600Y-117439500D02*
X196934970Y-117439500D01*
X189862000Y-122205100D02*
X194627600Y-117439500D01*
X189627100Y-125552000D02*
X189862000Y-125317100D01*
X189055100Y-125552000D02*
X189627100Y-125552000D01*
X196934970Y-117439500D02*
X197335970Y-117038500D01*
X188310000Y-126297100D02*
X189055100Y-125552000D01*
X189862000Y-125317100D02*
X189862000Y-122205100D01*
X188310000Y-127000000D02*
X188310000Y-126297100D01*
%TO.N,COL_7*%
X188889000Y-125151000D02*
X187040000Y-127000000D01*
X189461000Y-122039000D02*
X189461000Y-125151000D01*
X194500000Y-117000000D02*
X189461000Y-122039000D01*
X189461000Y-125151000D02*
X188889000Y-125151000D01*
X194538500Y-117038500D02*
X194500000Y-117000000D01*
X196231130Y-117038500D02*
X194538500Y-117038500D01*
X196768870Y-117038500D02*
X196231130Y-117038500D01*
X197001000Y-116249000D02*
X197001000Y-116806370D01*
X197001000Y-116806370D02*
X196768870Y-117038500D01*
X197150000Y-116000000D02*
X197150000Y-116100000D01*
X197150000Y-116100000D02*
X197001000Y-116249000D01*
%TO.N,COL_14*%
X178150000Y-127717100D02*
X178150000Y-127000000D01*
X180932900Y-130500000D02*
X178150000Y-127717100D01*
X199500000Y-130500000D02*
X180932900Y-130500000D01*
%TO.N,COL_8*%
X186571000Y-127801000D02*
X185770000Y-127000000D01*
X197094000Y-127469800D02*
X196762800Y-127801000D01*
X197094000Y-121781000D02*
X197094000Y-127469800D01*
X197150000Y-121725000D02*
X197094000Y-121781000D01*
X196762800Y-127801000D02*
X186571000Y-127801000D01*
%TO.N,COL_9*%
X184500000Y-128000000D02*
X184500000Y-127000000D01*
X197495000Y-128464800D02*
X184964800Y-128464800D01*
X197495000Y-126027500D02*
X197495000Y-128464800D01*
X184964800Y-128464800D02*
X184500000Y-128000000D01*
X197800000Y-125722500D02*
X197495000Y-126027500D01*
X197800000Y-121725000D02*
X197800000Y-125722500D01*
%TO.N,COL_10*%
X183230000Y-128194800D02*
X183230000Y-127000000D01*
X183901000Y-128865800D02*
X183230000Y-128194800D01*
X197865800Y-128865800D02*
X183901000Y-128865800D01*
X197896000Y-126193600D02*
X197896000Y-128835600D01*
X198450000Y-121725000D02*
X198450000Y-125639600D01*
X198450000Y-125639600D02*
X197896000Y-126193600D01*
X197896000Y-128835600D02*
X197865800Y-128865800D01*
%TO.N,COL_11*%
X181960000Y-128460000D02*
X181960000Y-127000000D01*
X182778000Y-129278000D02*
X181960000Y-128460000D01*
X198001700Y-129297000D02*
X183054100Y-129297000D01*
X183035100Y-129278000D02*
X182778000Y-129278000D01*
X199100000Y-125556700D02*
X198297000Y-126359700D01*
X198297000Y-126359700D02*
X198297000Y-129001700D01*
X183054100Y-129297000D02*
X183035100Y-129278000D01*
X199100000Y-121725000D02*
X199100000Y-125556700D01*
X198297000Y-129001700D02*
X198001700Y-129297000D01*
%TO.N,COL_12*%
X180690000Y-128888000D02*
X180690000Y-127000000D01*
X181500000Y-129698000D02*
X180690000Y-128888000D01*
X181519000Y-129679000D02*
X181500000Y-129698000D01*
X182869000Y-129679000D02*
X181519000Y-129679000D01*
X182888000Y-129698000D02*
X182869000Y-129679000D01*
%TO.N,COL_13*%
X179420000Y-128420000D02*
X179420000Y-127000000D01*
X181099000Y-130099000D02*
X179420000Y-128420000D01*
X182000000Y-130099000D02*
X181099000Y-130099000D01*
%TO.N,COL_14*%
X201050000Y-125308000D02*
X199500000Y-126858000D01*
X199500000Y-126858000D02*
X199500000Y-130500000D01*
X201050000Y-121725000D02*
X201050000Y-125308000D01*
%TO.N,COL_13*%
X198617450Y-130099000D02*
X182000000Y-130099000D01*
X199099000Y-129617450D02*
X198617450Y-130099000D01*
X199099000Y-126691900D02*
X199099000Y-129617450D01*
X200400000Y-125390900D02*
X199099000Y-126691900D01*
X200400000Y-121725000D02*
X200400000Y-125390900D01*
%TO.N,COL_12*%
X198698000Y-129167800D02*
X198167800Y-129698000D01*
X199750000Y-125473800D02*
X198698000Y-126525800D01*
X198698000Y-126525800D02*
X198698000Y-129167800D01*
X199750000Y-121725000D02*
X199750000Y-125473800D01*
X198167800Y-129698000D02*
X182888000Y-129698000D01*
%TO.N,GND*%
X203650000Y-116000000D02*
X204000000Y-116000000D01*
%TO.N,+3V3*%
X196500000Y-116000000D02*
X196000000Y-116000000D01*
X196225000Y-122000000D02*
X196000000Y-122000000D01*
X196500000Y-121725000D02*
X196225000Y-122000000D01*
%TO.N,Net-(D2-K)*%
X190000000Y-110500000D02*
X185500000Y-106000000D01*
X190000000Y-112500000D02*
X190000000Y-110500000D01*
D28*
%TO.N,GND*%
X209350000Y-117000000D02*
X209350000Y-115750000D01*
X209350000Y-115750000D02*
X209100000Y-115500000D01*
X209350000Y-118000000D02*
X209350000Y-117000000D01*
%TO.N,Net-(Q1-G)*%
X211000000Y-118850000D02*
X209350000Y-120500000D01*
X211000000Y-118000000D02*
X211000000Y-118850000D01*
X211000000Y-115500000D02*
X211000000Y-118000000D01*
%TO.N,VBAT*%
X215000000Y-112460000D02*
X215500000Y-112960000D01*
X215000000Y-111000000D02*
X215000000Y-112460000D01*
X215000000Y-108500000D02*
X214500000Y-108000000D01*
X215000000Y-111000000D02*
X215000000Y-108500000D01*
X213000000Y-115460000D02*
X215500000Y-112960000D01*
X213000000Y-119500000D02*
X213000000Y-115460000D01*
%TO.N,MotorGND*%
X212149000Y-120199000D02*
X213000000Y-121050000D01*
X212149000Y-115163466D02*
X212149000Y-120199000D01*
X210610534Y-113625000D02*
X212149000Y-115163466D01*
X210050000Y-113625000D02*
X210610534Y-113625000D01*
X211700000Y-111975000D02*
X210050000Y-113625000D01*
X211700000Y-111000000D02*
X211700000Y-111975000D01*
X212500000Y-110200000D02*
X211700000Y-111000000D01*
X212500000Y-108000000D02*
X212500000Y-110200000D01*
D27*
%TO.N,GND*%
X170850000Y-106350000D02*
X170500000Y-106000000D01*
X170850000Y-107160000D02*
X170850000Y-106350000D01*
X172250000Y-108560000D02*
X170850000Y-108560000D01*
X172250000Y-108560000D02*
X172250000Y-107160000D01*
X170850000Y-109960000D02*
X172250000Y-108560000D01*
X170850000Y-109960000D02*
X170850000Y-108560000D01*
X170850000Y-107160000D02*
X170850000Y-108560000D01*
X172250000Y-107160000D02*
X170850000Y-107160000D01*
%TD*%
M02*
