%TF.GenerationSoftware,KiCad,Pcbnew,9.0.1*%
%TF.CreationDate,2025-06-14T17:56:14-05:00*%
%TF.ProjectId,OM-FlexGrid-Rigid-PCB,4f4d2d46-6c65-4784-9772-69642d526967,rev?*%
%TF.SameCoordinates,Original*%
%TF.FileFunction,Soldermask,Bot*%
%TF.FilePolarity,Negative*%
%FSLAX46Y46*%
G04 Gerber Fmt 4.6, Leading zero omitted, Abs format (unit mm)*
G04 Created by KiCad (PCBNEW 9.0.1) date 2025-06-14 17:56:14*
%MOMM*%
%LPD*%
G01*
G04 APERTURE LIST*
G04 Aperture macros list*
%AMRoundRect*
0 Rectangle with rounded corners*
0 $1 Rounding radius*
0 $2 $3 $4 $5 $6 $7 $8 $9 X,Y pos of 4 corners*
0 Add a 4 corners polygon primitive as box body*
4,1,4,$2,$3,$4,$5,$6,$7,$8,$9,$2,$3,0*
0 Add four circle primitives for the rounded corners*
1,1,$1+$1,$2,$3*
1,1,$1+$1,$4,$5*
1,1,$1+$1,$6,$7*
1,1,$1+$1,$8,$9*
0 Add four rect primitives between the rounded corners*
20,1,$1+$1,$2,$3,$4,$5,0*
20,1,$1+$1,$4,$5,$6,$7,0*
20,1,$1+$1,$6,$7,$8,$9,0*
20,1,$1+$1,$8,$9,$2,$3,0*%
G04 Aperture macros list end*
%ADD10R,1.498600X0.812800*%
%ADD11R,0.812800X1.498600*%
%ADD12R,0.889000X0.889000*%
%ADD13R,1.000000X1.000000*%
%ADD14C,1.000000*%
%ADD15R,1.700000X1.700000*%
%ADD16C,1.700000*%
%ADD17C,2.200000*%
%ADD18C,0.650000*%
%ADD19O,1.000000X2.100000*%
%ADD20O,1.000000X1.600000*%
%ADD21RoundRect,0.100000X-0.100000X0.637500X-0.100000X-0.637500X0.100000X-0.637500X0.100000X0.637500X0*%
%ADD22RoundRect,0.150000X0.150000X-0.587500X0.150000X0.587500X-0.150000X0.587500X-0.150000X-0.587500X0*%
%ADD23R,1.350000X1.350000*%
%ADD24C,1.350000*%
%ADD25RoundRect,0.200000X-0.200000X-0.275000X0.200000X-0.275000X0.200000X0.275000X-0.200000X0.275000X0*%
%ADD26RoundRect,0.225000X0.250000X-0.225000X0.250000X0.225000X-0.250000X0.225000X-0.250000X-0.225000X0*%
%ADD27RoundRect,0.225000X0.225000X0.375000X-0.225000X0.375000X-0.225000X-0.375000X0.225000X-0.375000X0*%
G04 APERTURE END LIST*
D10*
%TO.C,U2*%
X179500000Y-100840000D03*
X179500000Y-102110000D03*
X179500000Y-103380000D03*
X179500000Y-104650000D03*
X179500000Y-105920000D03*
X179500000Y-107190000D03*
X179500000Y-108460000D03*
X179500000Y-109730000D03*
X179500000Y-111000000D03*
X179500000Y-112270000D03*
X179500000Y-113540000D03*
X179500000Y-114810000D03*
X179500000Y-116080000D03*
X179500000Y-117350000D03*
D11*
X177735000Y-118600000D03*
X176465000Y-118600000D03*
X175195000Y-118600000D03*
X173925000Y-118600000D03*
X172655000Y-118600000D03*
X171385000Y-118600000D03*
X170115000Y-118600000D03*
X168845000Y-118600000D03*
X167575000Y-118600000D03*
X166305000Y-118600000D03*
X165035000Y-118600000D03*
X163765000Y-118600000D03*
D10*
X162000000Y-117350000D03*
X162000000Y-116080000D03*
X162000000Y-114810000D03*
X162000000Y-113540000D03*
X162000000Y-112270000D03*
X162000000Y-111000000D03*
X162000000Y-109730000D03*
X162000000Y-108460000D03*
X162000000Y-107190000D03*
X162000000Y-105920000D03*
X162000000Y-104650000D03*
X162000000Y-103380000D03*
X162000000Y-102110000D03*
X162000000Y-100840000D03*
D12*
X172250000Y-108560000D03*
X173650000Y-107160000D03*
X173650000Y-108560000D03*
X173650000Y-109960000D03*
X172250000Y-109960000D03*
X170850000Y-109960000D03*
X170850000Y-108560000D03*
X170850000Y-107160000D03*
X172250000Y-107160000D03*
%TD*%
D13*
%TO.C,J6*%
X162230000Y-121750000D03*
D14*
X163500000Y-121750000D03*
X164770000Y-121750000D03*
%TD*%
D13*
%TO.C,J1*%
X168480000Y-122500000D03*
D14*
X168480000Y-121230000D03*
X169750000Y-122500000D03*
X169750000Y-121230000D03*
X171020000Y-122500000D03*
X171020000Y-121230000D03*
%TD*%
D15*
%TO.C,SCRN1*%
X188310000Y-124000000D03*
D16*
X185770000Y-124000000D03*
X183230000Y-124000000D03*
X180690000Y-124000000D03*
%TD*%
D17*
%TO.C,H4*%
X157000000Y-126500000D03*
%TD*%
%TO.C,H3*%
X212000000Y-126000000D03*
%TD*%
%TO.C,H1*%
X157000000Y-103500000D03*
%TD*%
D15*
%TO.C,J2*%
X215500000Y-115500000D03*
D16*
X215500000Y-112960000D03*
%TD*%
D17*
%TO.C,H2*%
X212000000Y-104000000D03*
%TD*%
D18*
%TO.C,J4*%
X200640000Y-103555000D03*
X194860000Y-103555000D03*
D19*
X202070000Y-104085000D03*
D20*
X202070000Y-99905000D03*
D19*
X193430000Y-104085000D03*
D20*
X193430000Y-99905000D03*
%TD*%
D21*
%TO.C,U1*%
X196500000Y-116000000D03*
X197150000Y-116000000D03*
X197800000Y-116000000D03*
X198450000Y-116000000D03*
X199100000Y-116000000D03*
X199750000Y-116000000D03*
X200400000Y-116000000D03*
X201050000Y-116000000D03*
X201700000Y-116000000D03*
X202350000Y-116000000D03*
X203000000Y-116000000D03*
X203650000Y-116000000D03*
X203650000Y-121725000D03*
X203000000Y-121725000D03*
X202350000Y-121725000D03*
X201700000Y-121725000D03*
X201050000Y-121725000D03*
X200400000Y-121725000D03*
X199750000Y-121725000D03*
X199100000Y-121725000D03*
X198450000Y-121725000D03*
X197800000Y-121725000D03*
X197150000Y-121725000D03*
X196500000Y-121725000D03*
%TD*%
D22*
%TO.C,Q1*%
X211000000Y-115500000D03*
X209100000Y-115500000D03*
X210050000Y-113625000D03*
%TD*%
D23*
%TO.C,J5*%
X214500000Y-108000000D03*
D24*
X212500000Y-108000000D03*
%TD*%
D25*
%TO.C,R10*%
X209350000Y-120500000D03*
X211000000Y-120500000D03*
%TD*%
D26*
%TO.C,C9*%
X213000000Y-121050000D03*
X213000000Y-119500000D03*
%TD*%
D25*
%TO.C,R11*%
X209350000Y-118000000D03*
X211000000Y-118000000D03*
%TD*%
D27*
%TO.C,D4*%
X215000000Y-111000000D03*
X211700000Y-111000000D03*
%TD*%
D13*
%TO.C,J3*%
X195930000Y-127000000D03*
D14*
X194660000Y-127000000D03*
X193390000Y-127000000D03*
X192120000Y-127000000D03*
X190850000Y-127000000D03*
X189580000Y-127000000D03*
X188310000Y-127000000D03*
X187040000Y-127000000D03*
X185770000Y-127000000D03*
X184500000Y-127000000D03*
X183230000Y-127000000D03*
X181960000Y-127000000D03*
X180690000Y-127000000D03*
X179420000Y-127000000D03*
X178150000Y-127000000D03*
X176880000Y-127000000D03*
X175610000Y-127000000D03*
X174340000Y-127000000D03*
X173070000Y-127000000D03*
%TD*%
M02*
