%TF.GenerationSoftware,KiCad,Pcbnew,9.0.1*%
%TF.CreationDate,2025-06-14T17:56:14-05:00*%
%TF.ProjectId,OM-FlexGrid-Rigid-PCB,4f4d2d46-6c65-4784-9772-69642d526967,rev?*%
%TF.SameCoordinates,Original*%
%TF.FileFunction,Legend,Top*%
%TF.FilePolarity,Positive*%
%FSLAX46Y46*%
G04 Gerber Fmt 4.6, Leading zero omitted, Abs format (unit mm)*
G04 Created by KiCad (PCBNEW 9.0.1) date 2025-06-14 17:56:14*
%MOMM*%
%LPD*%
G01*
G04 APERTURE LIST*
%ADD10C,0.000000*%
%ADD11C,0.150000*%
%ADD12C,0.101600*%
%ADD13C,0.254000*%
%ADD14C,0.120000*%
%ADD15C,0.100000*%
%ADD16C,0.200000*%
G04 APERTURE END LIST*
D10*
G36*
X203187062Y-121700115D02*
G01*
X202412495Y-121700115D01*
X202412495Y-122076485D01*
X203076599Y-122076485D01*
X203076599Y-122462777D01*
X202412495Y-122462777D01*
X202412495Y-122860975D01*
X203187062Y-122860975D01*
X203187062Y-123245944D01*
X202025542Y-123245944D01*
X202025542Y-121319115D01*
X203187062Y-121319115D01*
X203187062Y-121700115D01*
G37*
G36*
X201165354Y-121319967D02*
G01*
X201199674Y-121322494D01*
X201233504Y-121326654D01*
X201266802Y-121332407D01*
X201299525Y-121339709D01*
X201331628Y-121348521D01*
X201363070Y-121358799D01*
X201393807Y-121370503D01*
X201423797Y-121383590D01*
X201452994Y-121398019D01*
X201481358Y-121413748D01*
X201508844Y-121430737D01*
X201535410Y-121448942D01*
X201561012Y-121468322D01*
X201585608Y-121488836D01*
X201609153Y-121510442D01*
X201631606Y-121533099D01*
X201652923Y-121556764D01*
X201673060Y-121581396D01*
X201691975Y-121606953D01*
X201709625Y-121633394D01*
X201725966Y-121660677D01*
X201740956Y-121688761D01*
X201754550Y-121717603D01*
X201766707Y-121747162D01*
X201777383Y-121777396D01*
X201786535Y-121808264D01*
X201794119Y-121839725D01*
X201800093Y-121871735D01*
X201804414Y-121904254D01*
X201807038Y-121937240D01*
X201807922Y-121970652D01*
X201807036Y-122004056D01*
X201804406Y-122037020D01*
X201800077Y-122069504D01*
X201794092Y-122101466D01*
X201786494Y-122132866D01*
X201777326Y-122163663D01*
X201766633Y-122193818D01*
X201754457Y-122223288D01*
X201740843Y-122252033D01*
X201725833Y-122280013D01*
X201709471Y-122307187D01*
X201691801Y-122333514D01*
X201672866Y-122358953D01*
X201652709Y-122383464D01*
X201631375Y-122407006D01*
X201608906Y-122429539D01*
X201585345Y-122451021D01*
X201560738Y-122471412D01*
X201535126Y-122490672D01*
X201508554Y-122508759D01*
X201481064Y-122525633D01*
X201452701Y-122541253D01*
X201423508Y-122555579D01*
X201393529Y-122568569D01*
X201362806Y-122580184D01*
X201331383Y-122590382D01*
X201299304Y-122599122D01*
X201266613Y-122606365D01*
X201233352Y-122612069D01*
X201199565Y-122616194D01*
X201165296Y-122618699D01*
X201130589Y-122619543D01*
X200841531Y-122619543D01*
X200841531Y-123245944D01*
X200454578Y-123245944D01*
X200454578Y-122235897D01*
X200454578Y-121702761D01*
X200840870Y-121702761D01*
X200840870Y-122235897D01*
X201129927Y-122237220D01*
X201144844Y-122236986D01*
X201159567Y-122236049D01*
X201174080Y-122234426D01*
X201188363Y-122232135D01*
X201202398Y-122229192D01*
X201216166Y-122225616D01*
X201229649Y-122221423D01*
X201242830Y-122216632D01*
X201255688Y-122211259D01*
X201268207Y-122205322D01*
X201280367Y-122198839D01*
X201292150Y-122191827D01*
X201303537Y-122184303D01*
X201314511Y-122176285D01*
X201325053Y-122167791D01*
X201335144Y-122158837D01*
X201344767Y-122149441D01*
X201353902Y-122139621D01*
X201362531Y-122129394D01*
X201370636Y-122118777D01*
X201378198Y-122107789D01*
X201385199Y-122096445D01*
X201391621Y-122084765D01*
X201397445Y-122072765D01*
X201402653Y-122060462D01*
X201407226Y-122047875D01*
X201411147Y-122035020D01*
X201414395Y-122021915D01*
X201416954Y-122008578D01*
X201418805Y-121995025D01*
X201419928Y-121981275D01*
X201420307Y-121967345D01*
X201420307Y-121966683D01*
X201419928Y-121953123D01*
X201418805Y-121939738D01*
X201416954Y-121926546D01*
X201414395Y-121913562D01*
X201411147Y-121900805D01*
X201407226Y-121888290D01*
X201402653Y-121876034D01*
X201397445Y-121864054D01*
X201391621Y-121852366D01*
X201385199Y-121840988D01*
X201378198Y-121829936D01*
X201370636Y-121819227D01*
X201362531Y-121808877D01*
X201353902Y-121798904D01*
X201344767Y-121789323D01*
X201335144Y-121780152D01*
X201325053Y-121771407D01*
X201314511Y-121763106D01*
X201303537Y-121755264D01*
X201292150Y-121747898D01*
X201280367Y-121741026D01*
X201268207Y-121734663D01*
X201255688Y-121728828D01*
X201242830Y-121723535D01*
X201229649Y-121718803D01*
X201216166Y-121714647D01*
X201202398Y-121711085D01*
X201188363Y-121708133D01*
X201174080Y-121705808D01*
X201159567Y-121704127D01*
X201144844Y-121703105D01*
X201129927Y-121702761D01*
X200840870Y-121702761D01*
X200454578Y-121702761D01*
X200454578Y-121319115D01*
X201130588Y-121319115D01*
X201165354Y-121319967D01*
G37*
G36*
X204631687Y-122392662D02*
G01*
X204631687Y-121313824D01*
X205019963Y-121313824D01*
X205019963Y-123281001D01*
X205002104Y-123281001D01*
X203858442Y-122168428D01*
X203858442Y-123247266D01*
X203471490Y-123247266D01*
X203471490Y-121282735D01*
X203490672Y-121282735D01*
X204631687Y-122392662D01*
G37*
G36*
X199251088Y-121280741D02*
G01*
X199301745Y-121284637D01*
X199351700Y-121291051D01*
X199400885Y-121299920D01*
X199449238Y-121311180D01*
X199496692Y-121324765D01*
X199543183Y-121340613D01*
X199588646Y-121358658D01*
X199633017Y-121378837D01*
X199676229Y-121401086D01*
X199718219Y-121425339D01*
X199758920Y-121451534D01*
X199798269Y-121479605D01*
X199836201Y-121509489D01*
X199872650Y-121541122D01*
X199907552Y-121574438D01*
X199940842Y-121609375D01*
X199972454Y-121645868D01*
X200002324Y-121683852D01*
X200030387Y-121723264D01*
X200056578Y-121764039D01*
X200080832Y-121806113D01*
X200103085Y-121849422D01*
X200123270Y-121893902D01*
X200141324Y-121939488D01*
X200157182Y-121986117D01*
X200170777Y-122033724D01*
X200182047Y-122082245D01*
X200190925Y-122131615D01*
X200197347Y-122181771D01*
X200201248Y-122232649D01*
X200202562Y-122284183D01*
X200201250Y-122335699D01*
X200197354Y-122386521D01*
X200190940Y-122436588D01*
X200182071Y-122485837D01*
X200170813Y-122534208D01*
X200157229Y-122581639D01*
X200141384Y-122628067D01*
X200123343Y-122673431D01*
X200103168Y-122717669D01*
X200080925Y-122760719D01*
X200056678Y-122802520D01*
X200030492Y-122843009D01*
X200002430Y-122882126D01*
X199972557Y-122919808D01*
X199940937Y-122955993D01*
X199907635Y-122990621D01*
X199872714Y-123023628D01*
X199836240Y-123054953D01*
X199798277Y-123084534D01*
X199758888Y-123112311D01*
X199718138Y-123138220D01*
X199676092Y-123162200D01*
X199632814Y-123184190D01*
X199588367Y-123204127D01*
X199542817Y-123221950D01*
X199496228Y-123237597D01*
X199448664Y-123251006D01*
X199400189Y-123262116D01*
X199350868Y-123270864D01*
X199300764Y-123277189D01*
X199249943Y-123281030D01*
X199198469Y-123282324D01*
X199147006Y-123281018D01*
X199096218Y-123277146D01*
X199046168Y-123270769D01*
X198996919Y-123261953D01*
X198948534Y-123250761D01*
X198901076Y-123237257D01*
X198854607Y-123221505D01*
X198809190Y-123203569D01*
X198764889Y-123183513D01*
X198721766Y-123161401D01*
X198679884Y-123137297D01*
X198639305Y-123111264D01*
X198600094Y-123083368D01*
X198562311Y-123053671D01*
X198526022Y-123022238D01*
X198491287Y-122989132D01*
X198458171Y-122954418D01*
X198426735Y-122918160D01*
X198397044Y-122880421D01*
X198369159Y-122841265D01*
X198343144Y-122800757D01*
X198319061Y-122758960D01*
X198296973Y-122715939D01*
X198276944Y-122671756D01*
X198259035Y-122626477D01*
X198243311Y-122580165D01*
X198229833Y-122532884D01*
X198218664Y-122484698D01*
X198209868Y-122435671D01*
X198203508Y-122385867D01*
X198199645Y-122335350D01*
X198198344Y-122284183D01*
X198198394Y-122282199D01*
X198589266Y-122282199D01*
X198590061Y-122313625D01*
X198592423Y-122344625D01*
X198596311Y-122375164D01*
X198601687Y-122405202D01*
X198608513Y-122434702D01*
X198616748Y-122463627D01*
X198626355Y-122491939D01*
X198637294Y-122519600D01*
X198649526Y-122546574D01*
X198663014Y-122572822D01*
X198677717Y-122598307D01*
X198693596Y-122622992D01*
X198710614Y-122646838D01*
X198728731Y-122669809D01*
X198747909Y-122691867D01*
X198768107Y-122712973D01*
X198789289Y-122733092D01*
X198811413Y-122752185D01*
X198834443Y-122770214D01*
X198858338Y-122787142D01*
X198883061Y-122802932D01*
X198908571Y-122817546D01*
X198934831Y-122830946D01*
X198961801Y-122843095D01*
X198989443Y-122853955D01*
X199017717Y-122863489D01*
X199046585Y-122871660D01*
X199076007Y-122878429D01*
X199105946Y-122883759D01*
X199136362Y-122887612D01*
X199167215Y-122889952D01*
X199198469Y-122890741D01*
X199229730Y-122889945D01*
X199260606Y-122887583D01*
X199291057Y-122883696D01*
X199321044Y-122878320D01*
X199350526Y-122871496D01*
X199379465Y-122863263D01*
X199407819Y-122853658D01*
X199435550Y-122842723D01*
X199462617Y-122830495D01*
X199488980Y-122817013D01*
X199514600Y-122802316D01*
X199539436Y-122786445D01*
X199563450Y-122769436D01*
X199586600Y-122751330D01*
X199608848Y-122732166D01*
X199630153Y-122711981D01*
X199650475Y-122690817D01*
X199669776Y-122668710D01*
X199688014Y-122645702D01*
X199705150Y-122621829D01*
X199721144Y-122597132D01*
X199735956Y-122571650D01*
X199749547Y-122545421D01*
X199761876Y-122518484D01*
X199772904Y-122490879D01*
X199782591Y-122462644D01*
X199790897Y-122433819D01*
X199797782Y-122404442D01*
X199803207Y-122374553D01*
X199807131Y-122344190D01*
X199809514Y-122313392D01*
X199810318Y-122282199D01*
X199810979Y-122282199D01*
X199810180Y-122250822D01*
X199807807Y-122219844D01*
X199803900Y-122189305D01*
X199798498Y-122159244D01*
X199791640Y-122129699D01*
X199783366Y-122100711D01*
X199773714Y-122072318D01*
X199762724Y-122044560D01*
X199750434Y-122017474D01*
X199736884Y-121991101D01*
X199722113Y-121965480D01*
X199706160Y-121940650D01*
X199689064Y-121916649D01*
X199670864Y-121893518D01*
X199651600Y-121871295D01*
X199631311Y-121850018D01*
X199610034Y-121829729D01*
X199587811Y-121810464D01*
X199564680Y-121792265D01*
X199540679Y-121775169D01*
X199515849Y-121759216D01*
X199490228Y-121744445D01*
X199463855Y-121730895D01*
X199436769Y-121718605D01*
X199409011Y-121707615D01*
X199380618Y-121697963D01*
X199351629Y-121689689D01*
X199322085Y-121682831D01*
X199292024Y-121677429D01*
X199261485Y-121673522D01*
X199230507Y-121671149D01*
X199199130Y-121670350D01*
X199167759Y-121671148D01*
X199136798Y-121673515D01*
X199106285Y-121677413D01*
X199076260Y-121682804D01*
X199046761Y-121689648D01*
X199017826Y-121697906D01*
X198989493Y-121707541D01*
X198961801Y-121718512D01*
X198934788Y-121730782D01*
X198908493Y-121744312D01*
X198882954Y-121759062D01*
X198858209Y-121774995D01*
X198834297Y-121792070D01*
X198811256Y-121810251D01*
X198789125Y-121829497D01*
X198767942Y-121849770D01*
X198747745Y-121871032D01*
X198728573Y-121893243D01*
X198710464Y-121916365D01*
X198693457Y-121940359D01*
X198677590Y-121965187D01*
X198662901Y-121990808D01*
X198649428Y-122017186D01*
X198637211Y-122044281D01*
X198626287Y-122072053D01*
X198616696Y-122100466D01*
X198608474Y-122129479D01*
X198601662Y-122159054D01*
X198596296Y-122189152D01*
X198592416Y-122219735D01*
X198590060Y-122250763D01*
X198589266Y-122282199D01*
X198198394Y-122282199D01*
X198199655Y-122232649D01*
X198203544Y-122181771D01*
X198209948Y-122131615D01*
X198218803Y-122082245D01*
X198230042Y-122033724D01*
X198243603Y-121986117D01*
X198259420Y-121939488D01*
X198277429Y-121893902D01*
X198297567Y-121849422D01*
X198319767Y-121806113D01*
X198343967Y-121764039D01*
X198370101Y-121723264D01*
X198398105Y-121683852D01*
X198427914Y-121645868D01*
X198459465Y-121609375D01*
X198492693Y-121574438D01*
X198527533Y-121541122D01*
X198563920Y-121509489D01*
X198601791Y-121479605D01*
X198641082Y-121451534D01*
X198681726Y-121425339D01*
X198723661Y-121401086D01*
X198766822Y-121378837D01*
X198811144Y-121358658D01*
X198856562Y-121340613D01*
X198903013Y-121324765D01*
X198950432Y-121311180D01*
X198998755Y-121299920D01*
X199047917Y-121291051D01*
X199097853Y-121284637D01*
X199148499Y-121280741D01*
X199199792Y-121279428D01*
X199251088Y-121280741D01*
G37*
G36*
X208251187Y-124339334D02*
G01*
X207476618Y-124339334D01*
X207476618Y-124517267D01*
X208140722Y-124517267D01*
X208140722Y-125101995D01*
X207476618Y-125101995D01*
X207476618Y-125301756D01*
X208251187Y-125301756D01*
X208251187Y-125884501D01*
X206891228Y-125884501D01*
X206891228Y-125686063D01*
X207089666Y-125686063D01*
X208052749Y-125686063D01*
X208052749Y-125499532D01*
X207278181Y-125499532D01*
X207278181Y-124902897D01*
X207942285Y-124902897D01*
X207942285Y-124715043D01*
X207278181Y-124715043D01*
X207278181Y-124140235D01*
X208052749Y-124140235D01*
X208052749Y-123957673D01*
X207089666Y-123957673D01*
X207089666Y-125685402D01*
X207089666Y-125686063D01*
X206891228Y-125686063D01*
X206891228Y-125685402D01*
X206891228Y-123759897D01*
X208251187Y-123759897D01*
X208251187Y-124339334D01*
G37*
G36*
X199226250Y-124914142D02*
G01*
X200096729Y-123711611D01*
X200268047Y-123711611D01*
X200268047Y-125884501D01*
X199683318Y-125884501D01*
X199683318Y-125266037D01*
X199280489Y-125852089D01*
X199175979Y-125852089D01*
X199144229Y-125809094D01*
X198769182Y-125265376D01*
X198769182Y-125884501D01*
X198183130Y-125884501D01*
X198183130Y-125686063D01*
X198183130Y-124087318D01*
X198381568Y-124087318D01*
X198381568Y-125686063D01*
X198570083Y-125686063D01*
X198570083Y-124627730D01*
X199226250Y-125580230D01*
X199881094Y-124627069D01*
X199881094Y-125686063D01*
X200069609Y-125686063D01*
X200069609Y-124087319D01*
X199226250Y-125252809D01*
X198381568Y-124087318D01*
X198183130Y-124087318D01*
X198183130Y-123711611D01*
X198354448Y-123711611D01*
X199226250Y-124914142D01*
G37*
G36*
X204769520Y-123722185D02*
G01*
X204820119Y-123726624D01*
X204870127Y-123733521D01*
X204919535Y-123742874D01*
X204968335Y-123754681D01*
X205016518Y-123768939D01*
X205064075Y-123785644D01*
X205110997Y-123804793D01*
X205157275Y-123826384D01*
X205202902Y-123850414D01*
X205247868Y-123876880D01*
X205292164Y-123905779D01*
X205335782Y-123937108D01*
X205378713Y-123970864D01*
X205420948Y-124007045D01*
X205462479Y-124045647D01*
X205512089Y-124093673D01*
X205512089Y-123957673D01*
X205710526Y-123957673D01*
X205710526Y-125685402D01*
X205710526Y-125686063D01*
X206673609Y-125686063D01*
X206673609Y-125499532D01*
X205899042Y-125499532D01*
X205899042Y-123957673D01*
X205710526Y-123957673D01*
X205512089Y-123957673D01*
X205512089Y-123759897D01*
X206097479Y-123759897D01*
X206097479Y-125301756D01*
X206872047Y-125301756D01*
X206872047Y-125884501D01*
X205512089Y-125884501D01*
X205512089Y-125686063D01*
X205512089Y-125549141D01*
X205463141Y-125598089D01*
X205421205Y-125638137D01*
X205378952Y-125675446D01*
X205336332Y-125710039D01*
X205293291Y-125741936D01*
X205249777Y-125771158D01*
X205205738Y-125797728D01*
X205161122Y-125821666D01*
X205115875Y-125842994D01*
X205069947Y-125861733D01*
X205023284Y-125877904D01*
X204975835Y-125891529D01*
X204927546Y-125902629D01*
X204878366Y-125911225D01*
X204828242Y-125917339D01*
X204777122Y-125920991D01*
X204724954Y-125922204D01*
X204725614Y-125921542D01*
X204668724Y-125920110D01*
X204612575Y-125915860D01*
X204557235Y-125908862D01*
X204502776Y-125899186D01*
X204449267Y-125886900D01*
X204396778Y-125872076D01*
X204345379Y-125854782D01*
X204295139Y-125835087D01*
X204246129Y-125813063D01*
X204198418Y-125788778D01*
X204152077Y-125762302D01*
X204107175Y-125733705D01*
X204063782Y-125703056D01*
X204021968Y-125670425D01*
X203981803Y-125635881D01*
X203943357Y-125599495D01*
X203906699Y-125561335D01*
X203871900Y-125521472D01*
X203839030Y-125479975D01*
X203808157Y-125436914D01*
X203779353Y-125392359D01*
X203752687Y-125346378D01*
X203728229Y-125299042D01*
X203706048Y-125250420D01*
X203686216Y-125200583D01*
X203668801Y-125149599D01*
X203653873Y-125097538D01*
X203641503Y-125044471D01*
X203631760Y-124990465D01*
X203624715Y-124935592D01*
X203620436Y-124879921D01*
X203618994Y-124823522D01*
X203817433Y-124823522D01*
X203818641Y-124869284D01*
X203822225Y-124914506D01*
X203828123Y-124959128D01*
X203836271Y-125003089D01*
X203846609Y-125046331D01*
X203859072Y-125088793D01*
X203873601Y-125130416D01*
X203890131Y-125171139D01*
X203908601Y-125210902D01*
X203928949Y-125249647D01*
X203951112Y-125287313D01*
X203975028Y-125323840D01*
X204000634Y-125359168D01*
X204027870Y-125393238D01*
X204056671Y-125425990D01*
X204086977Y-125457364D01*
X204118724Y-125487300D01*
X204151851Y-125515738D01*
X204186295Y-125542619D01*
X204221994Y-125567882D01*
X204258886Y-125591468D01*
X204296909Y-125613317D01*
X204335999Y-125633369D01*
X204376096Y-125651564D01*
X204417136Y-125667843D01*
X204459058Y-125682145D01*
X204501799Y-125694411D01*
X204545298Y-125704582D01*
X204589490Y-125712596D01*
X204634316Y-125718394D01*
X204679711Y-125721917D01*
X204725615Y-125723105D01*
X204763294Y-125722342D01*
X204800214Y-125720038D01*
X204836418Y-125716172D01*
X204871952Y-125710723D01*
X204906863Y-125703670D01*
X204941195Y-125694990D01*
X204974994Y-125684664D01*
X205008306Y-125672669D01*
X205041176Y-125658984D01*
X205073649Y-125643588D01*
X205105772Y-125626459D01*
X205137590Y-125607577D01*
X205169148Y-125586920D01*
X205200492Y-125564466D01*
X205231667Y-125540194D01*
X205262719Y-125514084D01*
X205154902Y-125361948D01*
X205128175Y-125382621D01*
X205101326Y-125401974D01*
X205074357Y-125420006D01*
X205047270Y-125436714D01*
X205020066Y-125452096D01*
X204992749Y-125466151D01*
X204965319Y-125478877D01*
X204937778Y-125490271D01*
X204910129Y-125500332D01*
X204882373Y-125509058D01*
X204854513Y-125516447D01*
X204826550Y-125522497D01*
X204798486Y-125527205D01*
X204770323Y-125530571D01*
X204742064Y-125532592D01*
X204713709Y-125533266D01*
X204682479Y-125532420D01*
X204651100Y-125529903D01*
X204619645Y-125525744D01*
X204588190Y-125519974D01*
X204556809Y-125512621D01*
X204525578Y-125503717D01*
X204494571Y-125493291D01*
X204463864Y-125481373D01*
X204433530Y-125467992D01*
X204403646Y-125453180D01*
X204374285Y-125436965D01*
X204345522Y-125419378D01*
X204317433Y-125400448D01*
X204290093Y-125380206D01*
X204263575Y-125358681D01*
X204237955Y-125335904D01*
X204213308Y-125311903D01*
X204189709Y-125286710D01*
X204167232Y-125260354D01*
X204145953Y-125232865D01*
X204125946Y-125204272D01*
X204107286Y-125174607D01*
X204090048Y-125143898D01*
X204074306Y-125112176D01*
X204060136Y-125079470D01*
X204047613Y-125045811D01*
X204036811Y-125011228D01*
X204027805Y-124975751D01*
X204020670Y-124939411D01*
X204015481Y-124902236D01*
X204012313Y-124864258D01*
X204011258Y-124826168D01*
X204209016Y-124826168D01*
X204209786Y-124853235D01*
X204212060Y-124879850D01*
X204215785Y-124905985D01*
X204220906Y-124931613D01*
X204227371Y-124956709D01*
X204235124Y-124981245D01*
X204244113Y-125005195D01*
X204254284Y-125028533D01*
X204265582Y-125051230D01*
X204277955Y-125073262D01*
X204291348Y-125094601D01*
X204305707Y-125115220D01*
X204320979Y-125135093D01*
X204337110Y-125154194D01*
X204354047Y-125172495D01*
X204371734Y-125189970D01*
X204390119Y-125206592D01*
X204409149Y-125222335D01*
X204428768Y-125237173D01*
X204448923Y-125251077D01*
X204469561Y-125264023D01*
X204490628Y-125275982D01*
X204512070Y-125286929D01*
X204533833Y-125296837D01*
X204555863Y-125305679D01*
X204578107Y-125313428D01*
X204600511Y-125320058D01*
X204623021Y-125325543D01*
X204645584Y-125329855D01*
X204668145Y-125332968D01*
X204690650Y-125334856D01*
X204713047Y-125335491D01*
X204737326Y-125334753D01*
X204761554Y-125332539D01*
X204785742Y-125328841D01*
X204809899Y-125323657D01*
X204834037Y-125316980D01*
X204858166Y-125308806D01*
X204882297Y-125299131D01*
X204906441Y-125287948D01*
X204930608Y-125275254D01*
X204954809Y-125261044D01*
X204979054Y-125245313D01*
X205003355Y-125228055D01*
X205027722Y-125209267D01*
X205052165Y-125188943D01*
X205076695Y-125167078D01*
X205101323Y-125143667D01*
X205184667Y-125062308D01*
X205512089Y-125523646D01*
X205512089Y-124122967D01*
X205182021Y-124572829D01*
X205100000Y-124492793D01*
X205077393Y-124471377D01*
X205054482Y-124451286D01*
X205031291Y-124432529D01*
X205007840Y-124415113D01*
X204984154Y-124399045D01*
X204960253Y-124384334D01*
X204936160Y-124370987D01*
X204911898Y-124359013D01*
X204887488Y-124348418D01*
X204862954Y-124339210D01*
X204838316Y-124331398D01*
X204813599Y-124324989D01*
X204788823Y-124319990D01*
X204764011Y-124316411D01*
X204739186Y-124314257D01*
X204714369Y-124313537D01*
X204689641Y-124314246D01*
X204665092Y-124316344D01*
X204640762Y-124319792D01*
X204616691Y-124324550D01*
X204592918Y-124330576D01*
X204569483Y-124337832D01*
X204546426Y-124346277D01*
X204523787Y-124355871D01*
X204501605Y-124366573D01*
X204479920Y-124378343D01*
X204458772Y-124391141D01*
X204438200Y-124404927D01*
X204418245Y-124419661D01*
X204398946Y-124435302D01*
X204380342Y-124451810D01*
X204362474Y-124469145D01*
X204345381Y-124487267D01*
X204329102Y-124506136D01*
X204313679Y-124525711D01*
X204299150Y-124545952D01*
X204285554Y-124566819D01*
X204272933Y-124588272D01*
X204261325Y-124610270D01*
X204250770Y-124632774D01*
X204241308Y-124655742D01*
X204232979Y-124679136D01*
X204225822Y-124702914D01*
X204219878Y-124727037D01*
X204215185Y-124751464D01*
X204211784Y-124776154D01*
X204209714Y-124801069D01*
X204209016Y-124826168D01*
X204011258Y-124826168D01*
X204011240Y-124825506D01*
X204012195Y-124790119D01*
X204015024Y-124755060D01*
X204019675Y-124720381D01*
X204026098Y-124686133D01*
X204034241Y-124652369D01*
X204044051Y-124619142D01*
X204055477Y-124586503D01*
X204068467Y-124554504D01*
X204082969Y-124523198D01*
X204098933Y-124492638D01*
X204116305Y-124462874D01*
X204135035Y-124433960D01*
X204155070Y-124405947D01*
X204176360Y-124378888D01*
X204198851Y-124352836D01*
X204222493Y-124327841D01*
X204247234Y-124303957D01*
X204273022Y-124281235D01*
X204299805Y-124259728D01*
X204327532Y-124239489D01*
X204356151Y-124220568D01*
X204385610Y-124203019D01*
X204415857Y-124186893D01*
X204446841Y-124172243D01*
X204478511Y-124159121D01*
X204510813Y-124147580D01*
X204543697Y-124137671D01*
X204577111Y-124129446D01*
X204611003Y-124122958D01*
X204645322Y-124118260D01*
X204680015Y-124115402D01*
X204715032Y-124114438D01*
X204743647Y-124115088D01*
X204772185Y-124117032D01*
X204800627Y-124120263D01*
X204828958Y-124124773D01*
X204857160Y-124130555D01*
X204885219Y-124137599D01*
X204913117Y-124145900D01*
X204940837Y-124155448D01*
X204968364Y-124166237D01*
X204995680Y-124178258D01*
X205022770Y-124191504D01*
X205049616Y-124205967D01*
X205076203Y-124221639D01*
X205102513Y-124238513D01*
X205128531Y-124256581D01*
X205154240Y-124275834D01*
X205260735Y-124130313D01*
X205229339Y-124104965D01*
X205197653Y-124081255D01*
X205165665Y-124059179D01*
X205133363Y-124038732D01*
X205100735Y-124019909D01*
X205067770Y-124002704D01*
X205034456Y-123987114D01*
X205000782Y-123973134D01*
X204966735Y-123960758D01*
X204932305Y-123949981D01*
X204897480Y-123940800D01*
X204862247Y-123933209D01*
X204826597Y-123927202D01*
X204790515Y-123922776D01*
X204753992Y-123919926D01*
X204717016Y-123918646D01*
X204717016Y-123918647D01*
X204717015Y-123918647D01*
X204671602Y-123919850D01*
X204626685Y-123923417D01*
X204582326Y-123929287D01*
X204538587Y-123937398D01*
X204495530Y-123947688D01*
X204453218Y-123960095D01*
X204411711Y-123974558D01*
X204371073Y-123991014D01*
X204331365Y-124009403D01*
X204292649Y-124029662D01*
X204254987Y-124051730D01*
X204218441Y-124075544D01*
X204183074Y-124101044D01*
X204148947Y-124128166D01*
X204116122Y-124156850D01*
X204084662Y-124187034D01*
X204054627Y-124218655D01*
X204026081Y-124251653D01*
X203999085Y-124285965D01*
X203973702Y-124321529D01*
X203949993Y-124358285D01*
X203928020Y-124396169D01*
X203907846Y-124435121D01*
X203889531Y-124475078D01*
X203873140Y-124515979D01*
X203858732Y-124557762D01*
X203846371Y-124600365D01*
X203836119Y-124643726D01*
X203828037Y-124687785D01*
X203822187Y-124732478D01*
X203818631Y-124777744D01*
X203817433Y-124823522D01*
X203618994Y-124823522D01*
X203620457Y-124767107D01*
X203624793Y-124711391D01*
X203631928Y-124656447D01*
X203641788Y-124602345D01*
X203654295Y-124549158D01*
X203669376Y-124496956D01*
X203686956Y-124445811D01*
X203706958Y-124395796D01*
X203729308Y-124346981D01*
X203753930Y-124299438D01*
X203780750Y-124253239D01*
X203809692Y-124208455D01*
X203840681Y-124165157D01*
X203873641Y-124123419D01*
X203908498Y-124083310D01*
X203945176Y-124044903D01*
X203983600Y-124008268D01*
X204023695Y-123973479D01*
X204065385Y-123940606D01*
X204108596Y-123909721D01*
X204153252Y-123880895D01*
X204199278Y-123854201D01*
X204246599Y-123829708D01*
X204295139Y-123807491D01*
X204344824Y-123787619D01*
X204395577Y-123770164D01*
X204447325Y-123755198D01*
X204499991Y-123742793D01*
X204553501Y-123733020D01*
X204607779Y-123725951D01*
X204662749Y-123721656D01*
X204718338Y-123720209D01*
X204769520Y-123722185D01*
G37*
G36*
X202987433Y-123721274D02*
G01*
X203045069Y-123726418D01*
X203100586Y-123734922D01*
X203153895Y-123746729D01*
X203204906Y-123761785D01*
X203253529Y-123780032D01*
X203299673Y-123801415D01*
X203343248Y-123825877D01*
X203384165Y-123853362D01*
X203422332Y-123883814D01*
X203457661Y-123917177D01*
X203490061Y-123953394D01*
X203519441Y-123992409D01*
X203545712Y-124034167D01*
X203568784Y-124078610D01*
X203588566Y-124125683D01*
X203615687Y-124197782D01*
X203172509Y-124507344D01*
X203120916Y-124404819D01*
X203116448Y-124396365D01*
X203111736Y-124388362D01*
X203106795Y-124380796D01*
X203101641Y-124373655D01*
X203096289Y-124366928D01*
X203090755Y-124360603D01*
X203085055Y-124354668D01*
X203079203Y-124349111D01*
X203073216Y-124343921D01*
X203067108Y-124339084D01*
X203060896Y-124334591D01*
X203054595Y-124330428D01*
X203048220Y-124326583D01*
X203041787Y-124323046D01*
X203028808Y-124316844D01*
X203015783Y-124311728D01*
X203002835Y-124307602D01*
X202990089Y-124304371D01*
X202977669Y-124301941D01*
X202965698Y-124300216D01*
X202954301Y-124299101D01*
X202943601Y-124298502D01*
X202933723Y-124298324D01*
X202916419Y-124298882D01*
X202900000Y-124300494D01*
X202884498Y-124303068D01*
X202869944Y-124306509D01*
X202856371Y-124310726D01*
X202843810Y-124315625D01*
X202832294Y-124321113D01*
X202821854Y-124327097D01*
X202812523Y-124333484D01*
X202804332Y-124340182D01*
X202797313Y-124347096D01*
X202791499Y-124354134D01*
X202786922Y-124361204D01*
X202783612Y-124368211D01*
X202781603Y-124375063D01*
X202781096Y-124378402D01*
X202780926Y-124381667D01*
X202781214Y-124384498D01*
X202782064Y-124387408D01*
X202783459Y-124390393D01*
X202785378Y-124393452D01*
X202787805Y-124396582D01*
X202790719Y-124399780D01*
X202794103Y-124403043D01*
X202797938Y-124406369D01*
X202802205Y-124409755D01*
X202806886Y-124413198D01*
X202817413Y-124420246D01*
X202829370Y-124427492D01*
X202842607Y-124434915D01*
X202856977Y-124442492D01*
X202872329Y-124450203D01*
X202888515Y-124458027D01*
X202905384Y-124465941D01*
X202940578Y-124481958D01*
X202976718Y-124498084D01*
X203031702Y-124522641D01*
X203060899Y-124535756D01*
X203091150Y-124549677D01*
X203147007Y-124576736D01*
X203201964Y-124604978D01*
X203255648Y-124634624D01*
X203307685Y-124665898D01*
X203357703Y-124699020D01*
X203405329Y-124734213D01*
X203450189Y-124771698D01*
X203491912Y-124811698D01*
X203511479Y-124832710D01*
X203530122Y-124854434D01*
X203547794Y-124876897D01*
X203564448Y-124900128D01*
X203580038Y-124924153D01*
X203594517Y-124949002D01*
X203607838Y-124974701D01*
X203619955Y-125001278D01*
X203630822Y-125028761D01*
X203640390Y-125057178D01*
X203648614Y-125086556D01*
X203655448Y-125116923D01*
X203660844Y-125148307D01*
X203664757Y-125180736D01*
X203667138Y-125214238D01*
X203667942Y-125248839D01*
X203667007Y-125286214D01*
X203664223Y-125322792D01*
X203659619Y-125358548D01*
X203653225Y-125393457D01*
X203645071Y-125427491D01*
X203635188Y-125460627D01*
X203623606Y-125492838D01*
X203610354Y-125524098D01*
X203595463Y-125554383D01*
X203578962Y-125583667D01*
X203560882Y-125611924D01*
X203541252Y-125639129D01*
X203520104Y-125665256D01*
X203497466Y-125690279D01*
X203473368Y-125714173D01*
X203447842Y-125736912D01*
X203420917Y-125758472D01*
X203392622Y-125778825D01*
X203362988Y-125797948D01*
X203332045Y-125815813D01*
X203299824Y-125832396D01*
X203266353Y-125847672D01*
X203231663Y-125861613D01*
X203195785Y-125874196D01*
X203158748Y-125885394D01*
X203120582Y-125895182D01*
X203081317Y-125903534D01*
X203040983Y-125910425D01*
X202999611Y-125915829D01*
X202957230Y-125919721D01*
X202913870Y-125922075D01*
X202869562Y-125922865D01*
X202868901Y-125922865D01*
X202804917Y-125921112D01*
X202742744Y-125915881D01*
X202682457Y-125907212D01*
X202624130Y-125895146D01*
X202567838Y-125879723D01*
X202513655Y-125860985D01*
X202461656Y-125838972D01*
X202411916Y-125813724D01*
X202364509Y-125785283D01*
X202319509Y-125753689D01*
X202276992Y-125718983D01*
X202237032Y-125681205D01*
X202199704Y-125640397D01*
X202165082Y-125596598D01*
X202133241Y-125549850D01*
X202104255Y-125500193D01*
X202093214Y-125479688D01*
X202325182Y-125479688D01*
X202348169Y-125508808D01*
X202372717Y-125536134D01*
X202398803Y-125561654D01*
X202426406Y-125585356D01*
X202455505Y-125607229D01*
X202486079Y-125627261D01*
X202518107Y-125645440D01*
X202551566Y-125661755D01*
X202586436Y-125676194D01*
X202622696Y-125688745D01*
X202660324Y-125699398D01*
X202699299Y-125708139D01*
X202739599Y-125714959D01*
X202781203Y-125719844D01*
X202824091Y-125722784D01*
X202868240Y-125723766D01*
X202935039Y-125721601D01*
X202998659Y-125715187D01*
X203058944Y-125704647D01*
X203115738Y-125690104D01*
X203142778Y-125681371D01*
X203168886Y-125671682D01*
X203194043Y-125661055D01*
X203218230Y-125649503D01*
X203241427Y-125637044D01*
X203263615Y-125623691D01*
X203284774Y-125609461D01*
X203304884Y-125594369D01*
X203323927Y-125578429D01*
X203341883Y-125561659D01*
X203358732Y-125544072D01*
X203374455Y-125525684D01*
X203389032Y-125506511D01*
X203402444Y-125486569D01*
X203414671Y-125465871D01*
X203425693Y-125444435D01*
X203435492Y-125422274D01*
X203444048Y-125399406D01*
X203451341Y-125375844D01*
X203457352Y-125351604D01*
X203462061Y-125326703D01*
X203465448Y-125301154D01*
X203467495Y-125274974D01*
X203468182Y-125248178D01*
X203467811Y-125227818D01*
X203466688Y-125207901D01*
X203464797Y-125188410D01*
X203462123Y-125169326D01*
X203458649Y-125150633D01*
X203454360Y-125132312D01*
X203449240Y-125114345D01*
X203443274Y-125096714D01*
X203436445Y-125079403D01*
X203428738Y-125062392D01*
X203420137Y-125045665D01*
X203410627Y-125029203D01*
X203400192Y-125012989D01*
X203388815Y-124997004D01*
X203376481Y-124981231D01*
X203363175Y-124965653D01*
X203348881Y-124950250D01*
X203333582Y-124935007D01*
X203317264Y-124919904D01*
X203299910Y-124904924D01*
X203281505Y-124890049D01*
X203262033Y-124875261D01*
X203219825Y-124845877D01*
X203173159Y-124816628D01*
X203121911Y-124787373D01*
X203065953Y-124757968D01*
X203005161Y-124728272D01*
X202976274Y-124714743D01*
X202948193Y-124701896D01*
X202894698Y-124678001D01*
X202830899Y-124649286D01*
X202800673Y-124635095D01*
X202771759Y-124620795D01*
X202744307Y-124606220D01*
X202718464Y-124591204D01*
X202694379Y-124575581D01*
X202672200Y-124559187D01*
X202652075Y-124541854D01*
X202634152Y-124523417D01*
X202626063Y-124513734D01*
X202618580Y-124503712D01*
X202611721Y-124493331D01*
X202605506Y-124482571D01*
X202599953Y-124471411D01*
X202595080Y-124459830D01*
X202590906Y-124447807D01*
X202587449Y-124435322D01*
X202584729Y-124422354D01*
X202582762Y-124408882D01*
X202581569Y-124394886D01*
X202581167Y-124380345D01*
X202581615Y-124365628D01*
X202582946Y-124351128D01*
X202585139Y-124336863D01*
X202588174Y-124322848D01*
X202592031Y-124309101D01*
X202596689Y-124295636D01*
X202602128Y-124282472D01*
X202608328Y-124269623D01*
X202615268Y-124257107D01*
X202622928Y-124244939D01*
X202631287Y-124233136D01*
X202640326Y-124221715D01*
X202650024Y-124210691D01*
X202660360Y-124200082D01*
X202671314Y-124189903D01*
X202682866Y-124180171D01*
X202694996Y-124170902D01*
X202707682Y-124162112D01*
X202720906Y-124153819D01*
X202734646Y-124146037D01*
X202748882Y-124138784D01*
X202763593Y-124132076D01*
X202778761Y-124125930D01*
X202794363Y-124120361D01*
X202810380Y-124115385D01*
X202826791Y-124111021D01*
X202843576Y-124107282D01*
X202860715Y-124104187D01*
X202878188Y-124101751D01*
X202895973Y-124099991D01*
X202914051Y-124098923D01*
X202932401Y-124098563D01*
X202954573Y-124099080D01*
X202976422Y-124100621D01*
X202997917Y-124103172D01*
X203019031Y-124106718D01*
X203039735Y-124111244D01*
X203059998Y-124116737D01*
X203079792Y-124123181D01*
X203099089Y-124130561D01*
X203117858Y-124138865D01*
X203136071Y-124148076D01*
X203153698Y-124158180D01*
X203170712Y-124169164D01*
X203187082Y-124181011D01*
X203202780Y-124193709D01*
X203217776Y-124207241D01*
X203232042Y-124221595D01*
X203368302Y-124126345D01*
X203357957Y-124109916D01*
X203347039Y-124094348D01*
X203335583Y-124079620D01*
X203323623Y-124065708D01*
X203311195Y-124052590D01*
X203298333Y-124040245D01*
X203285073Y-124028650D01*
X203271450Y-124017783D01*
X203257498Y-124007621D01*
X203243252Y-123998142D01*
X203228748Y-123989324D01*
X203214020Y-123981144D01*
X203184035Y-123966612D01*
X203153576Y-123954366D01*
X203122923Y-123944228D01*
X203092356Y-123936021D01*
X203062156Y-123929565D01*
X203032601Y-123924683D01*
X203003973Y-123921196D01*
X202976552Y-123918926D01*
X202950616Y-123917695D01*
X202926448Y-123917324D01*
X202897556Y-123917880D01*
X202869191Y-123919535D01*
X202841376Y-123922266D01*
X202814139Y-123926051D01*
X202787505Y-123930868D01*
X202761498Y-123936696D01*
X202736146Y-123943513D01*
X202711474Y-123951296D01*
X202687506Y-123960024D01*
X202664270Y-123969675D01*
X202641791Y-123980226D01*
X202620094Y-123991657D01*
X202599205Y-124003944D01*
X202579150Y-124017067D01*
X202559955Y-124031003D01*
X202541644Y-124045730D01*
X202524244Y-124061226D01*
X202507781Y-124077470D01*
X202492280Y-124094439D01*
X202477767Y-124112112D01*
X202464267Y-124130466D01*
X202451807Y-124149481D01*
X202440411Y-124169133D01*
X202430106Y-124189400D01*
X202420917Y-124210262D01*
X202412870Y-124231696D01*
X202405990Y-124253680D01*
X202400304Y-124276192D01*
X202395837Y-124299211D01*
X202392614Y-124322714D01*
X202390661Y-124346679D01*
X202390005Y-124371084D01*
X202390567Y-124393659D01*
X202392231Y-124415391D01*
X202394964Y-124436306D01*
X202398733Y-124456434D01*
X202403503Y-124475804D01*
X202409242Y-124494442D01*
X202415916Y-124512377D01*
X202423491Y-124529638D01*
X202431935Y-124546253D01*
X202441213Y-124562249D01*
X202451292Y-124577656D01*
X202462140Y-124592501D01*
X202473722Y-124606813D01*
X202486005Y-124620619D01*
X202498955Y-124633949D01*
X202512540Y-124646830D01*
X202541478Y-124671358D01*
X202572552Y-124694430D01*
X202605493Y-124716272D01*
X202640036Y-124737108D01*
X202675911Y-124757166D01*
X202712853Y-124776671D01*
X202788864Y-124814923D01*
X202803416Y-124822199D01*
X202890615Y-124865913D01*
X202975643Y-124910845D01*
X203016433Y-124934050D01*
X203055587Y-124957900D01*
X203092741Y-124982507D01*
X203127531Y-125007986D01*
X203159592Y-125034449D01*
X203188561Y-125062010D01*
X203214072Y-125090782D01*
X203225418Y-125105657D01*
X203235762Y-125120878D01*
X203245060Y-125136459D01*
X203253266Y-125152413D01*
X203260335Y-125168755D01*
X203266220Y-125185498D01*
X203270877Y-125202658D01*
X203274260Y-125220249D01*
X203276323Y-125238284D01*
X203277021Y-125256777D01*
X203276539Y-125271885D01*
X203275105Y-125286690D01*
X203272737Y-125301181D01*
X203269451Y-125315347D01*
X203265265Y-125329176D01*
X203260195Y-125342655D01*
X203254258Y-125355775D01*
X203247472Y-125368522D01*
X203239854Y-125380886D01*
X203231420Y-125392854D01*
X203222188Y-125404415D01*
X203212176Y-125415558D01*
X203201399Y-125426270D01*
X203189875Y-125436541D01*
X203177622Y-125446358D01*
X203164655Y-125455711D01*
X203150993Y-125464586D01*
X203136653Y-125472973D01*
X203121651Y-125480860D01*
X203106004Y-125488236D01*
X203089730Y-125495088D01*
X203072846Y-125501405D01*
X203055368Y-125507176D01*
X203037314Y-125512389D01*
X203018702Y-125517032D01*
X202999547Y-125521094D01*
X202979867Y-125524563D01*
X202959680Y-125527427D01*
X202939001Y-125529675D01*
X202917850Y-125531295D01*
X202896241Y-125532276D01*
X202874193Y-125532605D01*
X202843691Y-125531970D01*
X202813952Y-125530065D01*
X202784979Y-125526893D01*
X202756774Y-125522456D01*
X202729340Y-125516755D01*
X202702680Y-125509793D01*
X202676798Y-125501570D01*
X202651695Y-125492091D01*
X202627375Y-125481355D01*
X202603841Y-125469366D01*
X202581096Y-125456125D01*
X202559142Y-125441634D01*
X202537983Y-125425895D01*
X202517622Y-125408910D01*
X202498060Y-125390681D01*
X202479302Y-125371209D01*
X202325182Y-125479688D01*
X202093214Y-125479688D01*
X202062583Y-125422803D01*
X202530234Y-125094058D01*
X202585797Y-125183355D01*
X202598359Y-125202279D01*
X202604860Y-125211240D01*
X202611512Y-125219869D01*
X202618320Y-125228169D01*
X202625287Y-125236142D01*
X202632417Y-125243789D01*
X202639715Y-125251113D01*
X202647185Y-125258115D01*
X202654830Y-125264797D01*
X202662655Y-125271161D01*
X202670663Y-125277209D01*
X202678859Y-125282944D01*
X202687246Y-125288366D01*
X202695829Y-125293479D01*
X202704611Y-125298283D01*
X202713596Y-125302781D01*
X202722789Y-125306975D01*
X202732194Y-125310867D01*
X202741814Y-125314458D01*
X202751653Y-125317751D01*
X202761716Y-125320747D01*
X202772007Y-125323449D01*
X202782528Y-125325858D01*
X202793286Y-125327976D01*
X202804282Y-125329806D01*
X202815523Y-125331349D01*
X202827010Y-125332607D01*
X202850744Y-125334276D01*
X202875515Y-125334829D01*
X202900047Y-125334309D01*
X202923039Y-125332806D01*
X202944485Y-125330408D01*
X202964378Y-125327201D01*
X202982713Y-125323274D01*
X202999484Y-125318713D01*
X203014686Y-125313606D01*
X203028312Y-125308040D01*
X203040356Y-125302101D01*
X203050814Y-125295878D01*
X203059679Y-125289456D01*
X203066945Y-125282925D01*
X203072606Y-125276370D01*
X203076657Y-125269879D01*
X203079092Y-125263540D01*
X203079905Y-125257438D01*
X203079224Y-125250188D01*
X203077222Y-125242711D01*
X203073963Y-125235025D01*
X203069510Y-125227148D01*
X203063927Y-125219098D01*
X203057276Y-125210892D01*
X203049620Y-125202547D01*
X203041024Y-125194083D01*
X203021260Y-125176863D01*
X202998492Y-125159374D01*
X202973223Y-125141757D01*
X202945960Y-125124154D01*
X202917209Y-125106706D01*
X202887475Y-125089554D01*
X202857265Y-125072840D01*
X202827083Y-125056706D01*
X202768831Y-125026742D01*
X202716765Y-125000792D01*
X202702212Y-124993516D01*
X202615188Y-124949436D01*
X202570960Y-124925706D01*
X202526916Y-124900457D01*
X202483549Y-124873394D01*
X202441356Y-124844223D01*
X202400832Y-124812649D01*
X202362471Y-124778377D01*
X202344257Y-124760137D01*
X202326769Y-124741113D01*
X202310070Y-124721267D01*
X202294221Y-124700563D01*
X202279284Y-124678963D01*
X202265322Y-124656431D01*
X202252395Y-124632930D01*
X202240566Y-124608424D01*
X202229898Y-124582874D01*
X202220451Y-124556246D01*
X202212287Y-124528501D01*
X202205469Y-124499603D01*
X202200059Y-124469516D01*
X202196117Y-124438201D01*
X202193707Y-124405624D01*
X202192890Y-124371746D01*
X202193789Y-124337459D01*
X202196463Y-124303705D01*
X202200877Y-124270520D01*
X202206995Y-124237941D01*
X202214783Y-124206004D01*
X202224205Y-124174745D01*
X202235226Y-124144200D01*
X202247812Y-124114407D01*
X202261926Y-124085402D01*
X202277534Y-124057221D01*
X202294601Y-124029901D01*
X202313092Y-124003477D01*
X202332971Y-123977988D01*
X202354203Y-123953468D01*
X202376754Y-123929955D01*
X202400588Y-123907484D01*
X202425669Y-123886094D01*
X202451964Y-123865819D01*
X202479436Y-123846696D01*
X202508051Y-123828762D01*
X202537774Y-123812053D01*
X202568569Y-123796606D01*
X202600401Y-123782457D01*
X202633235Y-123769643D01*
X202667036Y-123758199D01*
X202701769Y-123748164D01*
X202737399Y-123739572D01*
X202773890Y-123732460D01*
X202811208Y-123726866D01*
X202849318Y-123722824D01*
X202888183Y-123720373D01*
X202927770Y-123719547D01*
X202987433Y-123721274D01*
G37*
G36*
X200975807Y-125071568D02*
G01*
X200976138Y-125085129D01*
X200977119Y-125098513D01*
X200978734Y-125111706D01*
X200980968Y-125124689D01*
X200983804Y-125137447D01*
X200987226Y-125149962D01*
X200991219Y-125162218D01*
X200995765Y-125174198D01*
X201000848Y-125185885D01*
X201006454Y-125197263D01*
X201012565Y-125208315D01*
X201019165Y-125219024D01*
X201026239Y-125229374D01*
X201033770Y-125239348D01*
X201041742Y-125248929D01*
X201050139Y-125258100D01*
X201058944Y-125266844D01*
X201068143Y-125275146D01*
X201077718Y-125282988D01*
X201087654Y-125290353D01*
X201097935Y-125297226D01*
X201108543Y-125303588D01*
X201119464Y-125309424D01*
X201130681Y-125314716D01*
X201142179Y-125319449D01*
X201153940Y-125323604D01*
X201165948Y-125327166D01*
X201178189Y-125330118D01*
X201190645Y-125332444D01*
X201203301Y-125334125D01*
X201216139Y-125335146D01*
X201229146Y-125335490D01*
X201240705Y-125335195D01*
X201252295Y-125334314D01*
X201263892Y-125332854D01*
X201275468Y-125330824D01*
X201286998Y-125328229D01*
X201298455Y-125325078D01*
X201309814Y-125321377D01*
X201321047Y-125317135D01*
X201332129Y-125312357D01*
X201343034Y-125307052D01*
X201353735Y-125301227D01*
X201364207Y-125294888D01*
X201374423Y-125288044D01*
X201384357Y-125280701D01*
X201393983Y-125272867D01*
X201403275Y-125264549D01*
X201412206Y-125255754D01*
X201420750Y-125246490D01*
X201428882Y-125236763D01*
X201436575Y-125226582D01*
X201443803Y-125215953D01*
X201450539Y-125204884D01*
X201456758Y-125193381D01*
X201462434Y-125181453D01*
X201467540Y-125169106D01*
X201472049Y-125156348D01*
X201475937Y-125143186D01*
X201479177Y-125129627D01*
X201481742Y-125115678D01*
X201483607Y-125101347D01*
X201484745Y-125086642D01*
X201485130Y-125071568D01*
X201485130Y-123759235D01*
X202073167Y-123759235D01*
X202073167Y-125072891D01*
X202072091Y-125117415D01*
X202068899Y-125161285D01*
X202063637Y-125204450D01*
X202056355Y-125246861D01*
X202047102Y-125288469D01*
X202035926Y-125329223D01*
X202022877Y-125369074D01*
X202008003Y-125407972D01*
X201991352Y-125445867D01*
X201972975Y-125482709D01*
X201952919Y-125518449D01*
X201931233Y-125553037D01*
X201907967Y-125586422D01*
X201883169Y-125618556D01*
X201856887Y-125649389D01*
X201829171Y-125678870D01*
X201800069Y-125706950D01*
X201769631Y-125733579D01*
X201737905Y-125758708D01*
X201704940Y-125782286D01*
X201670784Y-125804264D01*
X201635487Y-125824592D01*
X201599097Y-125843221D01*
X201561663Y-125860099D01*
X201523234Y-125875179D01*
X201483859Y-125888409D01*
X201443586Y-125899741D01*
X201402464Y-125909123D01*
X201360543Y-125916508D01*
X201317871Y-125921844D01*
X201274496Y-125925082D01*
X201230469Y-125926173D01*
X201186499Y-125925082D01*
X201143175Y-125921844D01*
X201100547Y-125916508D01*
X201058663Y-125909123D01*
X201017572Y-125899741D01*
X200977324Y-125888409D01*
X200937968Y-125875179D01*
X200899553Y-125860099D01*
X200862129Y-125843221D01*
X200825744Y-125824592D01*
X200790447Y-125804264D01*
X200756288Y-125782286D01*
X200723316Y-125758708D01*
X200691581Y-125733579D01*
X200661130Y-125706950D01*
X200632014Y-125678870D01*
X200604282Y-125649389D01*
X200577982Y-125618556D01*
X200553165Y-125586422D01*
X200529878Y-125553037D01*
X200508172Y-125518449D01*
X200488096Y-125482709D01*
X200469698Y-125445867D01*
X200453028Y-125407972D01*
X200438135Y-125369074D01*
X200425068Y-125329223D01*
X200413876Y-125288469D01*
X200404610Y-125246861D01*
X200397316Y-125204450D01*
X200392046Y-125161285D01*
X200388848Y-125117415D01*
X200387787Y-125073553D01*
X200586208Y-125073553D01*
X200587014Y-125108254D01*
X200589410Y-125142386D01*
X200593362Y-125175913D01*
X200598834Y-125208800D01*
X200605793Y-125241014D01*
X200614205Y-125272517D01*
X200624035Y-125303277D01*
X200635249Y-125333258D01*
X200647813Y-125362425D01*
X200661692Y-125390743D01*
X200676853Y-125418177D01*
X200693260Y-125444693D01*
X200710880Y-125470255D01*
X200729678Y-125494830D01*
X200749620Y-125518380D01*
X200770672Y-125540873D01*
X200792800Y-125562273D01*
X200815969Y-125582545D01*
X200840145Y-125601654D01*
X200865293Y-125619566D01*
X200891380Y-125636245D01*
X200918371Y-125651657D01*
X200946232Y-125665767D01*
X200974929Y-125678539D01*
X201004426Y-125689940D01*
X201034691Y-125699933D01*
X201065689Y-125708485D01*
X201097385Y-125715560D01*
X201129745Y-125721124D01*
X201162735Y-125725141D01*
X201196321Y-125727577D01*
X201230468Y-125728397D01*
X201264616Y-125727577D01*
X201298202Y-125725141D01*
X201331192Y-125721124D01*
X201363552Y-125715560D01*
X201395248Y-125708485D01*
X201426246Y-125699933D01*
X201456510Y-125689940D01*
X201486008Y-125678539D01*
X201514705Y-125665767D01*
X201542566Y-125651657D01*
X201569557Y-125636245D01*
X201595644Y-125619566D01*
X201620792Y-125601654D01*
X201644968Y-125582545D01*
X201668137Y-125562273D01*
X201690264Y-125540873D01*
X201711317Y-125518380D01*
X201731259Y-125494830D01*
X201750057Y-125470255D01*
X201767677Y-125444693D01*
X201784084Y-125418177D01*
X201799245Y-125390743D01*
X201813124Y-125362425D01*
X201825688Y-125333258D01*
X201836902Y-125303277D01*
X201846732Y-125272517D01*
X201855144Y-125241014D01*
X201862103Y-125208800D01*
X201867575Y-125175913D01*
X201871526Y-125142386D01*
X201873922Y-125108254D01*
X201874729Y-125073553D01*
X201874729Y-123958334D01*
X201683567Y-123958334D01*
X201683567Y-125072230D01*
X201682975Y-125096020D01*
X201681218Y-125119498D01*
X201678325Y-125142635D01*
X201674324Y-125165402D01*
X201669244Y-125187770D01*
X201663113Y-125209710D01*
X201655962Y-125231192D01*
X201647817Y-125252188D01*
X201638709Y-125272668D01*
X201628665Y-125292604D01*
X201617714Y-125311966D01*
X201605886Y-125330726D01*
X201593208Y-125348854D01*
X201579710Y-125366320D01*
X201565419Y-125383098D01*
X201550366Y-125399156D01*
X201534578Y-125414466D01*
X201518085Y-125428999D01*
X201500914Y-125442726D01*
X201483095Y-125455617D01*
X201464656Y-125467645D01*
X201445627Y-125478779D01*
X201426035Y-125488990D01*
X201405910Y-125498250D01*
X201385280Y-125506530D01*
X201364173Y-125513800D01*
X201342620Y-125520031D01*
X201320648Y-125525195D01*
X201298285Y-125529261D01*
X201275562Y-125532202D01*
X201252505Y-125533988D01*
X201229145Y-125534589D01*
X201205793Y-125533986D01*
X201182759Y-125532195D01*
X201160071Y-125529245D01*
X201137757Y-125525167D01*
X201115845Y-125519990D01*
X201094362Y-125513743D01*
X201073336Y-125506456D01*
X201052795Y-125498157D01*
X201032766Y-125488878D01*
X201013278Y-125478646D01*
X200994358Y-125467491D01*
X200976033Y-125455443D01*
X200958332Y-125442531D01*
X200941283Y-125428785D01*
X200924912Y-125414234D01*
X200909248Y-125398908D01*
X200894318Y-125382835D01*
X200880151Y-125366046D01*
X200866774Y-125348569D01*
X200854214Y-125330435D01*
X200842499Y-125311673D01*
X200831658Y-125292311D01*
X200821718Y-125272380D01*
X200812706Y-125251909D01*
X200804651Y-125230927D01*
X200797579Y-125209464D01*
X200791520Y-125187550D01*
X200786500Y-125165213D01*
X200782547Y-125142483D01*
X200779689Y-125119389D01*
X200777954Y-125095962D01*
X200777370Y-125072230D01*
X200777370Y-123958334D01*
X200586208Y-123958334D01*
X200586208Y-125073553D01*
X200387787Y-125073553D01*
X200387771Y-125072891D01*
X200387771Y-123958334D01*
X200387771Y-123759235D01*
X200975807Y-123759235D01*
X200975807Y-125071568D01*
G37*
G36*
X204959771Y-127793469D02*
G01*
X204695187Y-127793469D01*
X204695187Y-126475844D01*
X204959771Y-126475844D01*
X204959771Y-127793469D01*
G37*
G36*
X200910323Y-126736459D02*
G01*
X200380495Y-126736459D01*
X200380495Y-126993766D01*
X200834917Y-126993766D01*
X200834917Y-127257688D01*
X200380495Y-127257688D01*
X200380495Y-127530209D01*
X200910323Y-127530209D01*
X200910323Y-127793469D01*
X200115911Y-127793469D01*
X200115911Y-126475845D01*
X200910323Y-126475845D01*
X200910323Y-126736459D01*
G37*
G36*
X204014329Y-126477058D02*
G01*
X204036974Y-126478696D01*
X204059302Y-126481394D01*
X204081284Y-126485125D01*
X204102891Y-126489865D01*
X204124094Y-126495586D01*
X204144864Y-126502262D01*
X204165173Y-126509868D01*
X204184991Y-126518377D01*
X204204291Y-126527762D01*
X204223042Y-126537999D01*
X204241217Y-126549060D01*
X204258786Y-126560919D01*
X204275721Y-126573550D01*
X204291993Y-126586928D01*
X204307572Y-126601025D01*
X204322431Y-126615817D01*
X204336540Y-126631275D01*
X204349870Y-126647376D01*
X204362393Y-126664091D01*
X204374080Y-126681396D01*
X204384902Y-126699264D01*
X204394830Y-126717668D01*
X204403835Y-126736583D01*
X204411889Y-126755982D01*
X204418962Y-126775840D01*
X204425027Y-126796130D01*
X204430053Y-126816826D01*
X204434013Y-126837902D01*
X204436877Y-126859331D01*
X204438616Y-126881088D01*
X204439202Y-126903146D01*
X204438024Y-126934629D01*
X204434549Y-126965503D01*
X204428869Y-126995654D01*
X204421074Y-127024968D01*
X204411257Y-127053333D01*
X204399507Y-127080635D01*
X204385917Y-127106761D01*
X204370576Y-127131597D01*
X204353577Y-127155031D01*
X204335010Y-127176947D01*
X204314966Y-127197234D01*
X204293537Y-127215778D01*
X204270813Y-127232466D01*
X204246886Y-127247183D01*
X204221846Y-127259818D01*
X204195786Y-127270256D01*
X204570171Y-127794131D01*
X204246718Y-127794131D01*
X204246057Y-127794131D01*
X203826692Y-127171037D01*
X203826692Y-127794131D01*
X203562109Y-127794131D01*
X203562109Y-127069172D01*
X203562109Y-126737782D01*
X203825370Y-126737782D01*
X203825370Y-127069172D01*
X203995364Y-127069172D01*
X204003767Y-127069081D01*
X204012098Y-127068565D01*
X204020346Y-127067635D01*
X204028497Y-127066299D01*
X204036538Y-127064568D01*
X204044457Y-127062452D01*
X204052241Y-127059959D01*
X204059877Y-127057101D01*
X204067352Y-127053885D01*
X204074654Y-127050323D01*
X204081769Y-127046424D01*
X204088684Y-127042197D01*
X204095388Y-127037653D01*
X204101866Y-127032800D01*
X204108106Y-127027649D01*
X204114096Y-127022209D01*
X204119822Y-127016490D01*
X204125272Y-127010502D01*
X204130433Y-127004254D01*
X204135291Y-126997756D01*
X204139835Y-126991017D01*
X204144051Y-126984048D01*
X204147926Y-126976859D01*
X204151448Y-126969458D01*
X204154603Y-126961855D01*
X204157380Y-126954060D01*
X204159765Y-126946084D01*
X204161744Y-126937935D01*
X204163307Y-126929623D01*
X204164438Y-126921158D01*
X204165127Y-126912550D01*
X204165359Y-126903808D01*
X204165125Y-126895067D01*
X204164431Y-126886464D01*
X204163291Y-126878008D01*
X204161717Y-126869706D01*
X204159724Y-126861570D01*
X204157323Y-126853607D01*
X204154529Y-126845828D01*
X204151355Y-126838241D01*
X204147813Y-126830855D01*
X204143917Y-126823680D01*
X204139681Y-126816725D01*
X204135117Y-126809999D01*
X204130238Y-126803512D01*
X204125058Y-126797272D01*
X204119591Y-126791289D01*
X204113848Y-126785572D01*
X204107844Y-126780130D01*
X204101591Y-126774972D01*
X204095103Y-126770109D01*
X204088394Y-126765547D01*
X204081475Y-126761298D01*
X204074361Y-126757370D01*
X204067064Y-126753773D01*
X204059598Y-126750515D01*
X204051976Y-126747605D01*
X204044212Y-126745054D01*
X204036317Y-126742870D01*
X204028307Y-126741063D01*
X204020193Y-126739641D01*
X204011989Y-126738614D01*
X204003709Y-126737991D01*
X203995364Y-126737782D01*
X203825370Y-126737782D01*
X203562109Y-126737782D01*
X203562109Y-126476506D01*
X203991395Y-126476506D01*
X204014329Y-126477058D01*
G37*
G36*
X201561198Y-126874703D02*
G01*
X201786094Y-126475844D01*
X202090364Y-126475844D01*
X201713333Y-127108860D01*
X202114838Y-127794131D01*
X201810568Y-127794131D01*
X201560537Y-127351615D01*
X201311167Y-127794131D01*
X201006896Y-127794131D01*
X201407740Y-127109521D01*
X201031370Y-126475844D01*
X201335641Y-126475844D01*
X201561198Y-126874703D01*
G37*
G36*
X205611727Y-126477777D02*
G01*
X205650183Y-126479843D01*
X205687632Y-126483348D01*
X205724057Y-126488277D01*
X205759440Y-126494612D01*
X205793764Y-126502336D01*
X205827013Y-126511434D01*
X205859168Y-126521888D01*
X205890212Y-126533683D01*
X205920129Y-126546801D01*
X205948902Y-126561226D01*
X205976512Y-126576941D01*
X206002943Y-126593929D01*
X206028178Y-126612175D01*
X206052199Y-126631661D01*
X206074989Y-126652371D01*
X206096531Y-126674289D01*
X206116808Y-126697397D01*
X206135803Y-126721679D01*
X206153498Y-126747119D01*
X206169877Y-126773699D01*
X206184921Y-126801404D01*
X206198614Y-126830217D01*
X206210939Y-126860121D01*
X206221878Y-126891099D01*
X206231415Y-126923136D01*
X206239532Y-126956213D01*
X206246211Y-126990316D01*
X206251436Y-127025426D01*
X206255189Y-127061529D01*
X206257454Y-127098606D01*
X206258213Y-127136641D01*
X206257454Y-127174493D01*
X206255189Y-127211390D01*
X206251436Y-127247317D01*
X206246211Y-127282258D01*
X206239532Y-127316195D01*
X206231415Y-127349114D01*
X206221878Y-127380997D01*
X206210939Y-127411829D01*
X206198614Y-127441593D01*
X206184921Y-127470273D01*
X206169877Y-127497852D01*
X206153498Y-127524315D01*
X206135803Y-127549646D01*
X206116808Y-127573828D01*
X206096531Y-127596844D01*
X206074989Y-127618679D01*
X206052199Y-127639317D01*
X206028178Y-127658740D01*
X206002943Y-127676934D01*
X205976512Y-127693881D01*
X205948902Y-127709566D01*
X205920129Y-127723972D01*
X205890212Y-127737083D01*
X205859168Y-127748883D01*
X205827013Y-127759356D01*
X205793764Y-127768485D01*
X205759440Y-127776253D01*
X205724057Y-127782646D01*
X205687632Y-127787647D01*
X205650183Y-127791238D01*
X205611727Y-127793405D01*
X205572281Y-127794131D01*
X205188635Y-127794131D01*
X205188635Y-127529547D01*
X205188635Y-126738443D01*
X205453219Y-126738443D01*
X205453219Y-127529547D01*
X205574266Y-127529547D01*
X205598274Y-127529113D01*
X205621675Y-127527816D01*
X205644460Y-127525666D01*
X205666616Y-127522673D01*
X205688136Y-127518846D01*
X205709007Y-127514195D01*
X205729221Y-127508729D01*
X205748766Y-127502458D01*
X205767634Y-127495392D01*
X205785813Y-127487540D01*
X205803293Y-127478911D01*
X205820064Y-127469516D01*
X205836117Y-127459363D01*
X205851440Y-127448463D01*
X205866025Y-127436825D01*
X205879859Y-127424458D01*
X205892934Y-127411372D01*
X205905240Y-127397577D01*
X205916765Y-127383082D01*
X205927500Y-127367897D01*
X205937435Y-127352031D01*
X205946559Y-127335494D01*
X205954862Y-127318296D01*
X205962335Y-127300445D01*
X205968967Y-127281952D01*
X205974747Y-127262826D01*
X205979666Y-127243077D01*
X205983714Y-127222715D01*
X205986879Y-127201748D01*
X205989153Y-127180186D01*
X205990525Y-127158040D01*
X205990978Y-127135661D01*
X205990521Y-127113132D01*
X205989138Y-127090856D01*
X205986845Y-127069163D01*
X205983654Y-127048061D01*
X205979574Y-127027562D01*
X205974616Y-127007675D01*
X205968790Y-126988410D01*
X205962107Y-126969778D01*
X205954577Y-126951788D01*
X205946211Y-126934450D01*
X205937019Y-126917775D01*
X205927011Y-126901773D01*
X205916198Y-126886453D01*
X205904590Y-126871826D01*
X205892198Y-126857902D01*
X205879032Y-126844690D01*
X205865103Y-126832201D01*
X205850420Y-126820445D01*
X205834994Y-126809432D01*
X205818837Y-126799172D01*
X205801957Y-126789675D01*
X205784366Y-126780951D01*
X205766074Y-126773010D01*
X205747092Y-126765863D01*
X205727429Y-126759518D01*
X205707097Y-126753987D01*
X205686105Y-126749280D01*
X205664464Y-126745405D01*
X205642185Y-126742375D01*
X205619277Y-126740197D01*
X205595752Y-126738884D01*
X205571620Y-126738443D01*
X205453219Y-126738443D01*
X205188635Y-126738443D01*
X205188635Y-126477168D01*
X205572281Y-126477168D01*
X205611727Y-126477777D01*
G37*
G36*
X199437255Y-127530871D02*
G01*
X199967083Y-127530871D01*
X199967083Y-127794131D01*
X199172672Y-127794131D01*
X199172672Y-126476506D01*
X199437255Y-126476506D01*
X199437255Y-127530871D01*
G37*
G36*
X199023844Y-126736458D02*
G01*
X198494677Y-126736458D01*
X198494677Y-126736459D01*
X198494677Y-127002365D01*
X198949099Y-127002365D01*
X198949099Y-127266287D01*
X198494677Y-127266287D01*
X198494677Y-127795454D01*
X198229432Y-127795454D01*
X198229432Y-126472537D01*
X199023844Y-126472537D01*
X199023844Y-126736458D01*
G37*
G36*
X202783283Y-126450534D02*
G01*
X202815588Y-126453450D01*
X202847980Y-126458092D01*
X202880363Y-126464414D01*
X202912641Y-126472371D01*
X202944719Y-126481919D01*
X202976501Y-126493014D01*
X203007890Y-126505610D01*
X203038791Y-126519664D01*
X203069107Y-126535130D01*
X203098743Y-126551965D01*
X203127604Y-126570123D01*
X203155592Y-126589560D01*
X203182612Y-126610232D01*
X203208568Y-126632093D01*
X203233365Y-126655100D01*
X203086521Y-126874704D01*
X203067006Y-126856360D01*
X203047172Y-126839045D01*
X203027039Y-126822780D01*
X203006629Y-126807587D01*
X202985963Y-126793487D01*
X202965063Y-126780501D01*
X202943950Y-126768650D01*
X202922645Y-126757957D01*
X202901169Y-126748442D01*
X202879544Y-126740126D01*
X202857791Y-126733031D01*
X202835931Y-126727178D01*
X202813987Y-126722589D01*
X202791978Y-126719285D01*
X202769927Y-126717287D01*
X202747854Y-126716616D01*
X202728691Y-126717120D01*
X202709551Y-126718622D01*
X202690472Y-126721102D01*
X202671493Y-126724543D01*
X202652652Y-126728925D01*
X202633987Y-126734231D01*
X202615538Y-126740442D01*
X202597341Y-126747539D01*
X202579436Y-126755504D01*
X202561862Y-126764319D01*
X202544655Y-126773966D01*
X202527856Y-126784426D01*
X202511501Y-126795679D01*
X202495631Y-126807710D01*
X202480282Y-126820497D01*
X202465494Y-126834025D01*
X202451304Y-126848273D01*
X202437752Y-126863223D01*
X202424876Y-126878858D01*
X202412713Y-126895158D01*
X202401303Y-126912105D01*
X202390683Y-126929681D01*
X202380893Y-126947868D01*
X202371970Y-126966647D01*
X202363953Y-126985999D01*
X202356881Y-127005907D01*
X202350791Y-127026351D01*
X202345722Y-127047314D01*
X202341713Y-127068776D01*
X202338802Y-127090721D01*
X202337027Y-127113128D01*
X202336427Y-127135980D01*
X202336945Y-127157312D01*
X202338488Y-127178376D01*
X202341038Y-127199146D01*
X202344576Y-127219595D01*
X202349086Y-127239697D01*
X202354548Y-127259423D01*
X202360945Y-127278748D01*
X202368260Y-127297645D01*
X202376473Y-127316086D01*
X202385568Y-127334045D01*
X202395526Y-127351494D01*
X202406330Y-127368408D01*
X202417961Y-127384759D01*
X202430401Y-127400519D01*
X202443633Y-127415663D01*
X202457639Y-127430164D01*
X202472401Y-127443994D01*
X202487900Y-127457126D01*
X202504119Y-127469535D01*
X202521041Y-127481192D01*
X202538646Y-127492071D01*
X202556918Y-127502145D01*
X202575838Y-127511387D01*
X202595388Y-127519771D01*
X202615550Y-127527269D01*
X202636307Y-127533854D01*
X202657640Y-127539500D01*
X202679532Y-127544180D01*
X202701965Y-127547867D01*
X202724920Y-127550534D01*
X202748380Y-127552153D01*
X202772328Y-127552699D01*
X202806912Y-127551576D01*
X202840150Y-127548239D01*
X202871935Y-127542740D01*
X202902159Y-127535129D01*
X202930717Y-127525456D01*
X202957502Y-127513771D01*
X202970196Y-127507190D01*
X202982407Y-127500125D01*
X202994122Y-127492583D01*
X203005326Y-127484569D01*
X203016007Y-127476090D01*
X203026152Y-127467152D01*
X203035747Y-127457762D01*
X203044778Y-127447925D01*
X203053234Y-127437649D01*
X203061099Y-127426939D01*
X203068361Y-127415801D01*
X203075007Y-127404243D01*
X203081022Y-127392270D01*
X203086395Y-127379889D01*
X203091111Y-127367105D01*
X203095158Y-127353926D01*
X203098521Y-127340357D01*
X203101188Y-127326405D01*
X203103145Y-127312076D01*
X203104379Y-127297376D01*
X202763728Y-127297376D01*
X202763728Y-127052637D01*
X203383515Y-127052637D01*
X203386223Y-127081162D01*
X203387352Y-127095239D01*
X203388310Y-127109192D01*
X203389083Y-127123020D01*
X203389654Y-127136725D01*
X203390008Y-127150305D01*
X203390129Y-127163762D01*
X203389469Y-127165084D01*
X203388641Y-127203336D01*
X203386183Y-127240567D01*
X203382139Y-127276764D01*
X203376548Y-127311916D01*
X203369454Y-127346010D01*
X203360896Y-127379032D01*
X203350918Y-127410970D01*
X203339560Y-127441812D01*
X203326863Y-127471544D01*
X203312871Y-127500153D01*
X203297623Y-127527628D01*
X203281161Y-127553956D01*
X203263528Y-127579123D01*
X203244765Y-127603117D01*
X203224912Y-127625925D01*
X203204012Y-127647535D01*
X203182107Y-127667934D01*
X203159237Y-127687109D01*
X203135445Y-127705047D01*
X203110771Y-127721736D01*
X203085258Y-127737163D01*
X203058947Y-127751316D01*
X203031879Y-127764180D01*
X203004097Y-127775745D01*
X202975641Y-127785996D01*
X202946553Y-127794922D01*
X202916875Y-127802510D01*
X202886648Y-127808747D01*
X202855914Y-127813619D01*
X202824714Y-127817116D01*
X202793090Y-127819223D01*
X202761083Y-127819928D01*
X202724931Y-127819034D01*
X202689305Y-127816382D01*
X202654244Y-127812015D01*
X202619791Y-127805978D01*
X202585985Y-127798314D01*
X202552868Y-127789067D01*
X202520480Y-127778280D01*
X202488862Y-127765999D01*
X202458055Y-127752265D01*
X202428101Y-127737125D01*
X202399038Y-127720620D01*
X202370909Y-127702796D01*
X202343755Y-127683695D01*
X202317615Y-127663362D01*
X202292532Y-127641841D01*
X202268545Y-127619175D01*
X202245696Y-127595409D01*
X202224025Y-127570586D01*
X202203573Y-127544749D01*
X202184381Y-127517944D01*
X202166490Y-127490213D01*
X202149940Y-127461601D01*
X202134773Y-127432151D01*
X202121029Y-127401907D01*
X202108750Y-127370913D01*
X202097975Y-127339213D01*
X202088746Y-127306851D01*
X202081103Y-127273871D01*
X202075088Y-127240316D01*
X202070740Y-127206230D01*
X202068102Y-127171657D01*
X202067214Y-127136641D01*
X202068107Y-127101614D01*
X202070760Y-127067008D01*
X202075127Y-127032869D01*
X202081165Y-126999242D01*
X202088830Y-126966171D01*
X202098080Y-126933703D01*
X202108868Y-126901883D01*
X202121154Y-126870756D01*
X202134891Y-126840367D01*
X202150037Y-126810762D01*
X202166548Y-126781985D01*
X202184381Y-126754083D01*
X202203491Y-126727101D01*
X202223835Y-126701083D01*
X202245369Y-126676075D01*
X202268049Y-126652123D01*
X202291832Y-126629272D01*
X202316674Y-126607566D01*
X202342531Y-126587052D01*
X202369359Y-126567774D01*
X202397115Y-126549779D01*
X202425756Y-126533110D01*
X202455236Y-126517814D01*
X202485514Y-126503936D01*
X202516544Y-126491521D01*
X202548283Y-126480614D01*
X202580687Y-126471261D01*
X202613714Y-126463507D01*
X202647318Y-126457397D01*
X202681456Y-126452977D01*
X202716085Y-126450291D01*
X202751161Y-126449386D01*
X202783283Y-126450534D01*
G37*
G36*
X201559570Y-129574722D02*
G01*
X201558552Y-129575438D01*
X201559214Y-129574114D01*
X201559570Y-129574722D01*
G37*
G36*
X206774151Y-129802319D02*
G01*
X206509567Y-129802319D01*
X206509567Y-128808147D01*
X206360078Y-128851803D01*
X206360078Y-128575314D01*
X206696760Y-128468157D01*
X206774151Y-128468157D01*
X206774151Y-129802319D01*
G37*
G36*
X202924463Y-129802319D02*
G01*
X202659880Y-129802319D01*
X202659880Y-128484694D01*
X202659880Y-128484693D01*
X202924463Y-128484693D01*
X202924463Y-129802319D01*
G37*
G36*
X200945825Y-128485246D02*
G01*
X200968470Y-128486884D01*
X200990798Y-128489582D01*
X201012779Y-128493314D01*
X201034386Y-128498053D01*
X201055589Y-128503774D01*
X201076359Y-128510451D01*
X201096668Y-128518056D01*
X201116487Y-128526565D01*
X201135786Y-128535951D01*
X201154538Y-128546187D01*
X201172713Y-128557248D01*
X201190282Y-128569107D01*
X201207217Y-128581738D01*
X201223488Y-128595116D01*
X201239068Y-128609213D01*
X201253927Y-128624005D01*
X201268035Y-128639463D01*
X201281366Y-128655564D01*
X201293889Y-128672279D01*
X201305576Y-128689584D01*
X201316397Y-128707451D01*
X201326325Y-128725856D01*
X201335331Y-128744771D01*
X201343385Y-128764170D01*
X201350458Y-128784028D01*
X201356522Y-128804318D01*
X201361549Y-128825014D01*
X201365508Y-128846090D01*
X201368372Y-128867519D01*
X201370112Y-128889276D01*
X201370698Y-128911334D01*
X201369520Y-128942817D01*
X201366045Y-128973691D01*
X201360364Y-129003842D01*
X201352570Y-129033156D01*
X201342752Y-129061521D01*
X201331003Y-129088823D01*
X201317412Y-129114949D01*
X201302072Y-129139785D01*
X201285072Y-129163219D01*
X201266505Y-129185135D01*
X201246462Y-129205422D01*
X201225032Y-129223966D01*
X201202309Y-129240654D01*
X201178382Y-129255371D01*
X201153342Y-129268006D01*
X201127281Y-129278444D01*
X201501667Y-129802319D01*
X201178214Y-129802319D01*
X201177552Y-129802319D01*
X200758187Y-129179225D01*
X200758187Y-129802319D01*
X200493604Y-129802319D01*
X200493604Y-129078022D01*
X200493604Y-128746631D01*
X200757526Y-128746631D01*
X200757526Y-129078022D01*
X200927521Y-129078022D01*
X200935923Y-129077930D01*
X200944254Y-129077414D01*
X200952502Y-129076484D01*
X200960653Y-129075148D01*
X200968694Y-129073417D01*
X200976614Y-129071301D01*
X200984398Y-129068808D01*
X200992034Y-129065950D01*
X200999509Y-129062735D01*
X201006810Y-129059172D01*
X201013925Y-129055273D01*
X201020841Y-129051046D01*
X201027544Y-129046502D01*
X201034022Y-129041649D01*
X201040263Y-129036498D01*
X201046252Y-129031058D01*
X201051979Y-129025339D01*
X201057428Y-129019350D01*
X201062589Y-129013102D01*
X201067448Y-129006604D01*
X201071991Y-128999866D01*
X201076207Y-128992897D01*
X201080082Y-128985707D01*
X201083604Y-128978306D01*
X201086760Y-128970704D01*
X201089536Y-128962909D01*
X201091921Y-128954933D01*
X201093901Y-128946784D01*
X201095463Y-128938472D01*
X201096595Y-128930007D01*
X201097283Y-128921399D01*
X201097515Y-128912657D01*
X201097281Y-128903917D01*
X201096587Y-128895314D01*
X201095447Y-128886857D01*
X201093874Y-128878556D01*
X201091880Y-128870419D01*
X201089480Y-128862456D01*
X201086686Y-128854677D01*
X201083511Y-128847090D01*
X201079969Y-128839704D01*
X201076074Y-128832529D01*
X201071837Y-128825574D01*
X201067273Y-128818849D01*
X201062395Y-128812361D01*
X201057215Y-128806121D01*
X201051747Y-128800138D01*
X201046004Y-128794421D01*
X201040000Y-128788979D01*
X201033748Y-128783822D01*
X201027260Y-128778958D01*
X201020550Y-128774396D01*
X201013631Y-128770147D01*
X201006517Y-128766219D01*
X200999220Y-128762622D01*
X200991754Y-128759364D01*
X200984133Y-128756455D01*
X200976368Y-128753903D01*
X200968474Y-128751720D01*
X200960463Y-128749912D01*
X200952349Y-128748490D01*
X200944145Y-128747463D01*
X200935865Y-128746840D01*
X200927521Y-128746631D01*
X200757526Y-128746631D01*
X200493604Y-128746631D01*
X200493604Y-128484694D01*
X200922891Y-128484694D01*
X200945825Y-128485246D01*
G37*
G36*
X200298474Y-128745308D02*
G01*
X199768646Y-128745308D01*
X199768646Y-129002615D01*
X200223068Y-129002615D01*
X200223068Y-129266537D01*
X199768646Y-129266537D01*
X199768646Y-129539058D01*
X200298474Y-129539058D01*
X200298474Y-129802319D01*
X199504062Y-129802319D01*
X199504062Y-128484694D01*
X200298474Y-128484694D01*
X200298474Y-128745308D01*
G37*
G36*
X208033512Y-128461705D02*
G01*
X208063219Y-128464158D01*
X208092244Y-128468208D01*
X208120567Y-128473826D01*
X208148166Y-128480980D01*
X208175024Y-128489641D01*
X208201120Y-128499777D01*
X208226435Y-128511358D01*
X208250948Y-128524354D01*
X208274640Y-128538734D01*
X208297491Y-128554468D01*
X208319482Y-128571525D01*
X208340593Y-128589874D01*
X208360803Y-128609486D01*
X208380094Y-128630329D01*
X208398445Y-128652373D01*
X208415837Y-128675587D01*
X208432250Y-128699942D01*
X208447664Y-128725405D01*
X208462060Y-128751948D01*
X208475418Y-128779539D01*
X208487717Y-128808148D01*
X208498939Y-128837744D01*
X208509064Y-128868298D01*
X208518071Y-128899777D01*
X208525942Y-128932152D01*
X208532655Y-128965393D01*
X208538193Y-128999468D01*
X208542534Y-129034347D01*
X208545659Y-129070000D01*
X208547549Y-129106397D01*
X208548183Y-129143506D01*
X208545645Y-129217003D01*
X208538139Y-129287515D01*
X208525828Y-129354798D01*
X208508878Y-129418610D01*
X208487451Y-129478710D01*
X208475110Y-129507291D01*
X208461712Y-129534854D01*
X208447276Y-129561367D01*
X208431823Y-129586801D01*
X208415374Y-129611124D01*
X208397949Y-129634308D01*
X208379569Y-129656321D01*
X208360254Y-129677133D01*
X208340025Y-129696714D01*
X208318901Y-129715034D01*
X208296904Y-129732063D01*
X208274054Y-129747769D01*
X208250372Y-129762123D01*
X208225877Y-129775095D01*
X208200591Y-129786654D01*
X208174533Y-129796771D01*
X208147725Y-129805414D01*
X208120187Y-129812553D01*
X208091939Y-129818159D01*
X208063002Y-129822200D01*
X208033396Y-129824647D01*
X208003141Y-129825469D01*
X207972881Y-129824645D01*
X207943258Y-129822193D01*
X207914294Y-129818143D01*
X207886010Y-129812526D01*
X207858427Y-129805373D01*
X207831566Y-129796714D01*
X207805448Y-129786580D01*
X207780095Y-129775002D01*
X207755528Y-129762010D01*
X207731768Y-129747636D01*
X207708836Y-129731909D01*
X207686753Y-129714860D01*
X207665541Y-129696520D01*
X207645221Y-129676919D01*
X207625814Y-129656089D01*
X207607340Y-129634060D01*
X207589823Y-129610862D01*
X207573282Y-129586526D01*
X207557738Y-129561083D01*
X207543214Y-129534563D01*
X207529730Y-129506997D01*
X207517307Y-129478416D01*
X207505966Y-129448851D01*
X207495730Y-129418331D01*
X207486618Y-129386888D01*
X207478652Y-129354552D01*
X207471854Y-129321354D01*
X207466244Y-129287325D01*
X207461844Y-129252495D01*
X207458675Y-129216894D01*
X207456758Y-129180554D01*
X207456114Y-129143506D01*
X207720036Y-129143506D01*
X207721311Y-129188277D01*
X207725089Y-129231213D01*
X207731299Y-129272169D01*
X207739870Y-129310999D01*
X207750731Y-129347558D01*
X207763813Y-129381700D01*
X207779043Y-129413281D01*
X207796352Y-129442154D01*
X207805764Y-129455530D01*
X207815668Y-129468174D01*
X207826057Y-129480070D01*
X207836922Y-129491197D01*
X207848253Y-129501539D01*
X207860041Y-129511077D01*
X207872279Y-129519792D01*
X207884956Y-129527668D01*
X207898065Y-129534685D01*
X207911596Y-129540825D01*
X207925540Y-129546070D01*
X207939889Y-129550403D01*
X207954634Y-129553804D01*
X207969766Y-129556256D01*
X207985276Y-129557741D01*
X208001156Y-129558239D01*
X208017035Y-129557739D01*
X208032545Y-129556249D01*
X208047677Y-129553788D01*
X208062422Y-129550376D01*
X208076771Y-129546029D01*
X208090715Y-129540768D01*
X208104246Y-129534610D01*
X208117355Y-129527575D01*
X208130032Y-129519680D01*
X208142270Y-129510943D01*
X208154059Y-129501385D01*
X208165390Y-129491023D01*
X208176254Y-129479875D01*
X208186643Y-129467961D01*
X208196548Y-129455298D01*
X208205960Y-129441906D01*
X208214869Y-129427802D01*
X208223269Y-129413006D01*
X208231148Y-129397535D01*
X208238499Y-129381409D01*
X208245313Y-129364646D01*
X208251581Y-129347265D01*
X208257293Y-129329283D01*
X208262442Y-129310720D01*
X208267019Y-129291594D01*
X208271013Y-129271923D01*
X208274418Y-129251727D01*
X208277223Y-129231023D01*
X208279420Y-129209831D01*
X208281001Y-129188168D01*
X208281956Y-129166053D01*
X208282276Y-129143506D01*
X208281001Y-129098719D01*
X208277223Y-129055741D01*
X208271013Y-129014720D01*
X208262442Y-128975805D01*
X208251581Y-128939146D01*
X208238499Y-128904892D01*
X208223269Y-128873192D01*
X208205960Y-128844196D01*
X208186643Y-128818052D01*
X208176254Y-128806096D01*
X208165390Y-128794909D01*
X208154059Y-128784511D01*
X208142270Y-128774918D01*
X208130032Y-128766151D01*
X208117355Y-128758227D01*
X208104246Y-128751166D01*
X208090715Y-128744985D01*
X208076771Y-128739704D01*
X208062422Y-128735342D01*
X208047677Y-128731917D01*
X208032545Y-128729447D01*
X208017035Y-128727951D01*
X208001156Y-128727448D01*
X207985276Y-128727951D01*
X207969766Y-128729447D01*
X207954634Y-128731917D01*
X207939889Y-128735342D01*
X207925540Y-128739704D01*
X207911596Y-128744985D01*
X207898065Y-128751166D01*
X207884956Y-128758227D01*
X207872279Y-128766151D01*
X207860041Y-128774918D01*
X207848253Y-128784511D01*
X207836922Y-128794909D01*
X207826057Y-128806096D01*
X207815668Y-128818052D01*
X207805764Y-128830758D01*
X207796352Y-128844196D01*
X207787442Y-128858347D01*
X207779043Y-128873192D01*
X207771164Y-128888714D01*
X207763813Y-128904892D01*
X207756999Y-128921709D01*
X207750731Y-128939146D01*
X207745018Y-128957184D01*
X207739870Y-128975805D01*
X207735293Y-128994990D01*
X207731299Y-129014720D01*
X207727894Y-129034976D01*
X207725089Y-129055741D01*
X207722892Y-129076995D01*
X207721311Y-129098719D01*
X207720356Y-129120896D01*
X207720036Y-129143506D01*
X207456114Y-129143506D01*
X207458661Y-129070000D01*
X207466190Y-128999468D01*
X207478539Y-128932152D01*
X207495544Y-128868298D01*
X207517040Y-128808148D01*
X207529422Y-128779539D01*
X207542865Y-128751948D01*
X207557349Y-128725405D01*
X207572854Y-128699942D01*
X207589360Y-128675587D01*
X207606844Y-128652373D01*
X207625289Y-128630329D01*
X207644671Y-128609486D01*
X207664973Y-128589874D01*
X207686172Y-128571525D01*
X207708248Y-128554468D01*
X207731181Y-128538734D01*
X207754951Y-128524354D01*
X207779537Y-128511358D01*
X207804918Y-128499777D01*
X207831074Y-128489641D01*
X207857985Y-128480980D01*
X207885630Y-128473826D01*
X207913989Y-128468208D01*
X207943040Y-128464158D01*
X207972765Y-128461705D01*
X208003141Y-128460881D01*
X208033512Y-128461705D01*
G37*
G36*
X205432051Y-129218912D02*
G01*
X205432051Y-128480724D01*
X205697957Y-128480724D01*
X205697958Y-128481386D01*
X205697958Y-129826792D01*
X205685390Y-129826792D01*
X204902885Y-129065454D01*
X204902885Y-129803641D01*
X204638302Y-129803641D01*
X204638302Y-128459558D01*
X204651530Y-128459558D01*
X205432051Y-129218912D01*
G37*
G36*
X202095939Y-128457782D02*
G01*
X202128481Y-128460406D01*
X202160124Y-128464799D01*
X202190782Y-128470978D01*
X202220371Y-128478959D01*
X202248804Y-128488759D01*
X202275998Y-128500393D01*
X202301866Y-128513880D01*
X202326323Y-128529234D01*
X202349284Y-128546473D01*
X202370664Y-128565614D01*
X202390377Y-128586671D01*
X202408339Y-128609663D01*
X202416636Y-128621889D01*
X202424463Y-128634605D01*
X202431810Y-128647813D01*
X202438665Y-128661514D01*
X202445018Y-128675711D01*
X202450859Y-128690406D01*
X202255729Y-128826666D01*
X202251963Y-128819424D01*
X202247987Y-128812454D01*
X202243809Y-128805754D01*
X202239435Y-128799321D01*
X202234874Y-128793151D01*
X202230132Y-128787243D01*
X202225216Y-128781593D01*
X202220134Y-128776199D01*
X202214894Y-128771058D01*
X202209501Y-128766167D01*
X202203964Y-128761523D01*
X202198291Y-128757124D01*
X202192487Y-128752967D01*
X202186561Y-128749048D01*
X202180519Y-128745366D01*
X202174370Y-128741917D01*
X202168119Y-128738699D01*
X202161775Y-128735709D01*
X202155345Y-128732943D01*
X202148836Y-128730400D01*
X202135610Y-128725969D01*
X202122156Y-128722394D01*
X202108531Y-128719652D01*
X202094793Y-128717721D01*
X202081001Y-128716579D01*
X202067213Y-128716203D01*
X202048924Y-128716866D01*
X202031309Y-128718808D01*
X202014438Y-128721959D01*
X201998380Y-128726249D01*
X201983207Y-128731609D01*
X201968987Y-128737969D01*
X201955790Y-128745260D01*
X201943686Y-128753410D01*
X201932745Y-128762352D01*
X201923036Y-128772014D01*
X201918666Y-128777094D01*
X201914630Y-128782327D01*
X201910937Y-128787706D01*
X201907595Y-128793222D01*
X201904614Y-128798865D01*
X201902003Y-128804628D01*
X201899769Y-128810501D01*
X201897922Y-128816476D01*
X201896470Y-128822544D01*
X201895422Y-128828696D01*
X201894787Y-128834924D01*
X201894573Y-128841219D01*
X201894864Y-128848448D01*
X201895731Y-128855389D01*
X201897166Y-128862059D01*
X201899159Y-128868477D01*
X201901702Y-128874659D01*
X201904784Y-128880625D01*
X201908399Y-128886391D01*
X201912536Y-128891975D01*
X201917186Y-128897396D01*
X201922341Y-128902671D01*
X201927991Y-128907818D01*
X201934129Y-128912854D01*
X201940743Y-128917798D01*
X201947827Y-128922667D01*
X201955370Y-128927479D01*
X201963364Y-128932252D01*
X201971800Y-128937003D01*
X201980669Y-128941752D01*
X201999670Y-128951309D01*
X202020294Y-128961065D01*
X202042471Y-128971164D01*
X202091194Y-128992957D01*
X202117597Y-129004937D01*
X202145266Y-129017828D01*
X202185234Y-129037289D01*
X202223227Y-129057058D01*
X202259163Y-129077258D01*
X202292957Y-129098009D01*
X202324526Y-129119435D01*
X202353788Y-129141658D01*
X202380658Y-129164799D01*
X202405053Y-129188980D01*
X202426891Y-129214325D01*
X202436824Y-129227471D01*
X202446087Y-129240954D01*
X202454669Y-129254789D01*
X202462559Y-129268990D01*
X202469747Y-129283574D01*
X202476222Y-129298555D01*
X202481975Y-129313949D01*
X202486994Y-129329771D01*
X202491270Y-129346037D01*
X202494792Y-129362761D01*
X202497549Y-129379958D01*
X202499532Y-129397645D01*
X202500729Y-129415836D01*
X202501130Y-129434547D01*
X202500558Y-129456799D01*
X202498855Y-129478528D01*
X202496042Y-129499722D01*
X202492139Y-129520367D01*
X202487166Y-129540453D01*
X202481143Y-129559968D01*
X202474092Y-129578899D01*
X202466032Y-129597235D01*
X202456983Y-129614963D01*
X202446967Y-129632071D01*
X202436003Y-129648548D01*
X202424112Y-129664382D01*
X202411314Y-129679560D01*
X202397629Y-129694070D01*
X202383078Y-129707901D01*
X202367681Y-129721041D01*
X202351459Y-129733477D01*
X202334431Y-129745198D01*
X202316619Y-129756191D01*
X202298042Y-129766445D01*
X202278721Y-129775948D01*
X202258676Y-129784687D01*
X202237928Y-129792651D01*
X202216497Y-129799827D01*
X202194402Y-129806204D01*
X202171666Y-129811770D01*
X202148307Y-129816512D01*
X202124347Y-129820419D01*
X202099805Y-129823478D01*
X202074703Y-129825679D01*
X202049060Y-129827007D01*
X202022896Y-129827453D01*
X201983127Y-129826403D01*
X201944697Y-129823269D01*
X201907627Y-129818074D01*
X201871939Y-129810844D01*
X201837654Y-129801603D01*
X201804793Y-129790374D01*
X201773378Y-129777182D01*
X201743430Y-129762051D01*
X201714970Y-129745006D01*
X201688020Y-129726070D01*
X201662600Y-129705269D01*
X201638733Y-129682625D01*
X201616440Y-129658163D01*
X201595741Y-129631908D01*
X201576659Y-129603884D01*
X201559570Y-129574722D01*
X201770219Y-129426610D01*
X201775751Y-129435204D01*
X201781436Y-129443502D01*
X201787273Y-129451505D01*
X201793264Y-129459214D01*
X201799408Y-129466630D01*
X201805708Y-129473757D01*
X201812163Y-129480594D01*
X201818774Y-129487144D01*
X201825542Y-129493408D01*
X201832468Y-129499387D01*
X201839552Y-129505084D01*
X201846795Y-129510500D01*
X201854199Y-129515637D01*
X201861763Y-129520495D01*
X201869488Y-129525077D01*
X201877375Y-129529384D01*
X201885425Y-129533418D01*
X201893638Y-129537180D01*
X201902016Y-129540672D01*
X201910559Y-129543896D01*
X201919267Y-129546853D01*
X201928142Y-129549544D01*
X201937184Y-129551972D01*
X201946394Y-129554137D01*
X201955772Y-129556042D01*
X201965320Y-129557687D01*
X201984926Y-129560208D01*
X202005219Y-129561710D01*
X202026203Y-129562209D01*
X202049028Y-129561620D01*
X202070831Y-129559883D01*
X202091548Y-129557046D01*
X202111118Y-129553155D01*
X202129478Y-129548256D01*
X202146568Y-129542396D01*
X202162324Y-129535621D01*
X202176685Y-129527978D01*
X202189588Y-129519514D01*
X202200973Y-129510274D01*
X202210776Y-129500306D01*
X202215065Y-129495063D01*
X202218935Y-129489655D01*
X202222379Y-129484088D01*
X202225390Y-129478369D01*
X202227958Y-129472502D01*
X202230077Y-129466494D01*
X202231738Y-129460350D01*
X202232934Y-129454076D01*
X202233658Y-129447678D01*
X202233901Y-129441162D01*
X202233443Y-129432168D01*
X202232092Y-129423291D01*
X202229879Y-129414530D01*
X202226839Y-129405882D01*
X202223003Y-129397344D01*
X202218405Y-129388915D01*
X202213076Y-129380591D01*
X202207050Y-129372370D01*
X202200359Y-129364250D01*
X202193036Y-129356228D01*
X202185114Y-129348302D01*
X202176625Y-129340470D01*
X202167603Y-129332729D01*
X202158079Y-129325076D01*
X202137659Y-129310028D01*
X202115626Y-129295304D01*
X202092243Y-129280887D01*
X202067770Y-129266757D01*
X202042471Y-129252894D01*
X201990435Y-129225893D01*
X201938229Y-129199729D01*
X201882330Y-129171589D01*
X201854519Y-129156799D01*
X201827145Y-129141294D01*
X201800469Y-129124897D01*
X201774750Y-129107433D01*
X201750249Y-129088724D01*
X201727224Y-129068595D01*
X201716346Y-129057943D01*
X201705935Y-129046870D01*
X201696023Y-129035353D01*
X201686642Y-129023371D01*
X201677825Y-129010901D01*
X201669605Y-128997922D01*
X201662013Y-128984412D01*
X201655083Y-128970348D01*
X201648847Y-128955709D01*
X201643337Y-128940472D01*
X201638585Y-128924615D01*
X201634625Y-128908117D01*
X201631488Y-128890955D01*
X201629207Y-128873107D01*
X201627815Y-128854551D01*
X201627343Y-128835266D01*
X201627905Y-128814102D01*
X201629572Y-128793410D01*
X201632317Y-128773201D01*
X201636115Y-128753489D01*
X201640940Y-128734287D01*
X201646764Y-128715609D01*
X201653561Y-128697467D01*
X201661305Y-128679875D01*
X201669970Y-128662846D01*
X201679528Y-128646392D01*
X201689955Y-128630529D01*
X201701223Y-128615268D01*
X201713305Y-128600622D01*
X201726176Y-128586606D01*
X201739809Y-128573231D01*
X201754178Y-128560513D01*
X201769256Y-128548462D01*
X201785017Y-128537094D01*
X201801434Y-128526420D01*
X201818482Y-128516454D01*
X201836133Y-128507210D01*
X201854361Y-128498701D01*
X201873140Y-128490939D01*
X201892443Y-128483938D01*
X201912245Y-128477712D01*
X201932518Y-128472273D01*
X201953237Y-128467634D01*
X201974374Y-128463809D01*
X201995904Y-128460811D01*
X202017799Y-128458654D01*
X202040035Y-128457349D01*
X202062583Y-128456912D01*
X202095939Y-128457782D01*
G37*
G36*
X203816853Y-128458472D02*
G01*
X203851550Y-128461135D01*
X203885759Y-128465521D01*
X203919436Y-128471586D01*
X203952538Y-128479285D01*
X203985021Y-128488575D01*
X204016840Y-128499412D01*
X204047950Y-128511751D01*
X204078309Y-128525550D01*
X204107872Y-128540765D01*
X204136595Y-128557351D01*
X204164434Y-128575264D01*
X204191345Y-128594462D01*
X204217283Y-128614899D01*
X204242205Y-128636533D01*
X204266066Y-128659319D01*
X204288823Y-128683213D01*
X204310431Y-128708172D01*
X204330846Y-128734152D01*
X204350025Y-128761108D01*
X204367923Y-128788998D01*
X204384495Y-128817777D01*
X204399699Y-128847401D01*
X204413489Y-128877827D01*
X204425822Y-128909011D01*
X204436653Y-128940908D01*
X204445940Y-128973476D01*
X204453636Y-129006669D01*
X204459699Y-129040445D01*
X204464085Y-129074760D01*
X204466748Y-129109569D01*
X204467646Y-129144829D01*
X204466748Y-129180075D01*
X204464084Y-129214846D01*
X204459699Y-129249098D01*
X204453635Y-129282789D01*
X204445937Y-129315878D01*
X204436649Y-129348322D01*
X204425815Y-129380079D01*
X204413479Y-129411107D01*
X204399684Y-129441364D01*
X204384475Y-129470807D01*
X204367896Y-129499395D01*
X204349990Y-129527085D01*
X204330802Y-129553835D01*
X204310376Y-129579603D01*
X204288755Y-129604347D01*
X204265984Y-129628024D01*
X204242106Y-129650594D01*
X204217166Y-129672012D01*
X204191207Y-129692238D01*
X204164273Y-129711229D01*
X204136409Y-129728942D01*
X204107658Y-129745337D01*
X204078064Y-129760370D01*
X204047672Y-129774000D01*
X204016524Y-129786184D01*
X203984666Y-129796880D01*
X203952141Y-129806047D01*
X203918993Y-129813641D01*
X203885267Y-129819621D01*
X203851005Y-129823945D01*
X203816252Y-129826570D01*
X203781052Y-129827454D01*
X203745860Y-129826560D01*
X203711129Y-129823908D01*
X203676903Y-129819542D01*
X203643225Y-129813505D01*
X203610137Y-129805842D01*
X203577683Y-129796597D01*
X203545905Y-129785813D01*
X203514847Y-129773535D01*
X203484551Y-129759806D01*
X203455061Y-129744671D01*
X203426419Y-129728173D01*
X203398669Y-129710357D01*
X203371853Y-129691266D01*
X203346015Y-129670944D01*
X203321198Y-129649435D01*
X203297444Y-129626784D01*
X203274796Y-129603034D01*
X203253298Y-129578230D01*
X203232993Y-129552414D01*
X203213923Y-129525631D01*
X203196132Y-129497926D01*
X203179662Y-129469342D01*
X203164556Y-129439923D01*
X203150859Y-129409712D01*
X203138611Y-129378755D01*
X203127857Y-129347094D01*
X203118640Y-129314775D01*
X203111002Y-129281840D01*
X203104986Y-129248334D01*
X203100636Y-129214301D01*
X203097995Y-129179785D01*
X203097105Y-129144829D01*
X203096443Y-129144829D01*
X203096476Y-129143506D01*
X203363671Y-129143506D01*
X203364215Y-129165010D01*
X203365830Y-129186221D01*
X203368488Y-129207113D01*
X203372163Y-129227662D01*
X203376829Y-129247841D01*
X203382460Y-129267625D01*
X203389028Y-129286988D01*
X203396507Y-129305904D01*
X203404870Y-129324349D01*
X203414092Y-129342296D01*
X203424146Y-129359720D01*
X203435004Y-129376596D01*
X203446641Y-129392898D01*
X203459031Y-129408600D01*
X203472145Y-129423677D01*
X203485959Y-129438103D01*
X203500445Y-129451853D01*
X203515577Y-129464900D01*
X203531328Y-129477221D01*
X203547672Y-129488788D01*
X203564582Y-129499577D01*
X203582033Y-129509562D01*
X203599996Y-129518717D01*
X203618447Y-129527017D01*
X203637357Y-129534437D01*
X203656702Y-129540949D01*
X203676453Y-129546530D01*
X203696585Y-129551154D01*
X203717072Y-129554795D01*
X203737886Y-129557427D01*
X203759001Y-129559025D01*
X203780390Y-129559563D01*
X203801786Y-129559019D01*
X203822917Y-129557405D01*
X203843758Y-129554747D01*
X203864281Y-129551073D01*
X203884458Y-129546408D01*
X203904262Y-129540779D01*
X203923667Y-129534214D01*
X203942644Y-129526738D01*
X203961167Y-129518379D01*
X203979208Y-129509162D01*
X203996740Y-129499116D01*
X204013737Y-129488265D01*
X204030169Y-129476637D01*
X204046011Y-129464259D01*
X204061235Y-129451158D01*
X204075814Y-129437359D01*
X204089721Y-129422889D01*
X204102927Y-129407776D01*
X204115407Y-129392045D01*
X204127133Y-129375724D01*
X204138077Y-129358839D01*
X204148212Y-129341417D01*
X204157512Y-129323484D01*
X204165948Y-129305067D01*
X204173494Y-129286193D01*
X204180122Y-129266888D01*
X204185805Y-129247179D01*
X204190516Y-129227092D01*
X204194228Y-129206655D01*
X204196913Y-129185894D01*
X204198544Y-129164835D01*
X204199093Y-129143506D01*
X204198548Y-129121994D01*
X204196927Y-129100761D01*
X204194260Y-129079832D01*
X204190571Y-129059236D01*
X204185887Y-129038997D01*
X204180236Y-129019143D01*
X204173642Y-128999699D01*
X204166134Y-128980694D01*
X204157738Y-128962152D01*
X204148479Y-128944102D01*
X204138385Y-128926568D01*
X204127482Y-128909578D01*
X204115796Y-128893158D01*
X204103355Y-128877335D01*
X204090184Y-128862136D01*
X204076310Y-128847586D01*
X204061761Y-128833712D01*
X204046561Y-128820541D01*
X204030738Y-128808100D01*
X204014318Y-128796414D01*
X203997328Y-128785511D01*
X203979795Y-128775417D01*
X203961744Y-128766158D01*
X203943202Y-128757762D01*
X203924197Y-128750254D01*
X203904754Y-128743660D01*
X203884899Y-128738009D01*
X203864661Y-128733325D01*
X203844064Y-128729636D01*
X203823135Y-128726969D01*
X203801902Y-128725348D01*
X203780390Y-128724802D01*
X203758884Y-128725348D01*
X203737668Y-128726969D01*
X203716766Y-128729636D01*
X203696206Y-128733325D01*
X203676012Y-128738009D01*
X203656210Y-128743660D01*
X203636827Y-128750253D01*
X203617889Y-128757762D01*
X203599420Y-128766158D01*
X203581446Y-128775417D01*
X203563995Y-128785511D01*
X203547090Y-128796414D01*
X203530759Y-128808100D01*
X203515027Y-128820541D01*
X203499919Y-128833712D01*
X203485462Y-128847586D01*
X203471682Y-128862135D01*
X203458603Y-128877335D01*
X203446252Y-128893158D01*
X203434655Y-128909578D01*
X203423838Y-128926568D01*
X203413826Y-128944101D01*
X203404645Y-128962152D01*
X203396321Y-128980694D01*
X203388879Y-128999699D01*
X203382346Y-129019142D01*
X203376747Y-129038997D01*
X203372109Y-129059235D01*
X203368456Y-129079832D01*
X203365815Y-129100761D01*
X203364212Y-129121994D01*
X203363671Y-129143506D01*
X203096476Y-129143506D01*
X203097339Y-129109569D01*
X203099997Y-129074760D01*
X203104373Y-129040445D01*
X203110424Y-129006669D01*
X203118106Y-128973476D01*
X203127374Y-128940908D01*
X203138186Y-128909011D01*
X203150496Y-128877827D01*
X203164263Y-128847401D01*
X203179440Y-128817777D01*
X203195985Y-128788998D01*
X203213854Y-128761108D01*
X203233003Y-128734152D01*
X203253388Y-128708172D01*
X203274966Y-128683213D01*
X203297692Y-128659319D01*
X203321522Y-128636533D01*
X203346413Y-128614899D01*
X203372321Y-128594462D01*
X203399202Y-128575264D01*
X203427013Y-128557351D01*
X203455708Y-128540765D01*
X203485245Y-128525550D01*
X203515580Y-128511751D01*
X203546669Y-128499412D01*
X203578467Y-128488575D01*
X203610932Y-128479285D01*
X203644019Y-128471586D01*
X203677685Y-128465521D01*
X203711885Y-128461135D01*
X203746576Y-128458472D01*
X203781714Y-128457574D01*
X203816853Y-128458472D01*
G37*
G36*
X198750000Y-129250000D02*
G01*
X199088667Y-128484693D01*
X199372432Y-128484693D01*
X198755953Y-129835392D01*
X198746031Y-129835392D01*
X198132198Y-128484693D01*
X198412656Y-128484693D01*
X198750000Y-129250000D01*
G37*
G36*
X207152539Y-129506871D02*
G01*
X207161068Y-129507538D01*
X207169481Y-129508635D01*
X207177769Y-129510152D01*
X207185918Y-129512075D01*
X207193920Y-129514395D01*
X207201761Y-129517099D01*
X207209431Y-129520176D01*
X207216919Y-129523614D01*
X207224214Y-129527402D01*
X207231304Y-129531529D01*
X207238178Y-129535982D01*
X207244826Y-129540751D01*
X207251236Y-129545824D01*
X207257398Y-129551189D01*
X207263298Y-129556835D01*
X207268928Y-129562750D01*
X207274275Y-129568923D01*
X207279329Y-129575343D01*
X207284078Y-129581997D01*
X207288511Y-129588875D01*
X207292617Y-129595965D01*
X207296384Y-129603255D01*
X207299803Y-129610733D01*
X207302861Y-129618389D01*
X207305547Y-129626211D01*
X207307851Y-129634187D01*
X207309761Y-129642306D01*
X207311266Y-129650557D01*
X207312354Y-129658927D01*
X207313016Y-129667405D01*
X207313239Y-129675980D01*
X207313016Y-129684553D01*
X207312354Y-129693026D01*
X207311266Y-129701387D01*
X207309761Y-129709625D01*
X207307851Y-129717729D01*
X207305547Y-129725688D01*
X207302861Y-129733490D01*
X207299803Y-129741123D01*
X207296384Y-129748578D01*
X207292617Y-129755842D01*
X207288511Y-129762904D01*
X207284078Y-129769753D01*
X207279329Y-129776378D01*
X207274275Y-129782768D01*
X207268928Y-129788910D01*
X207263298Y-129794794D01*
X207257398Y-129800409D01*
X207251236Y-129805744D01*
X207244826Y-129810786D01*
X207238178Y-129815526D01*
X207231304Y-129819951D01*
X207224214Y-129824050D01*
X207216919Y-129827812D01*
X207209431Y-129831226D01*
X207201761Y-129834281D01*
X207193920Y-129836965D01*
X207185918Y-129839267D01*
X207177769Y-129841175D01*
X207169481Y-129842679D01*
X207161068Y-129843768D01*
X207152539Y-129844429D01*
X207143905Y-129844652D01*
X207135272Y-129844433D01*
X207126743Y-129843782D01*
X207118329Y-129842711D01*
X207110042Y-129841229D01*
X207101892Y-129839348D01*
X207093891Y-129837078D01*
X207086050Y-129834429D01*
X207078380Y-129831412D01*
X207070892Y-129828038D01*
X207063597Y-129824316D01*
X207056507Y-129820258D01*
X207049632Y-129815874D01*
X207042984Y-129811175D01*
X207036574Y-129806171D01*
X207030413Y-129800873D01*
X207024512Y-129795290D01*
X207018883Y-129789435D01*
X207013535Y-129783317D01*
X207008482Y-129776947D01*
X207003733Y-129770335D01*
X206999300Y-129763492D01*
X206995194Y-129756428D01*
X206991426Y-129749154D01*
X206988008Y-129741681D01*
X206984950Y-129734019D01*
X206982263Y-129726179D01*
X206979960Y-129718171D01*
X206978050Y-129710005D01*
X206976545Y-129701693D01*
X206975456Y-129693244D01*
X206974795Y-129684670D01*
X206974572Y-129675980D01*
X206974795Y-129667347D01*
X206975456Y-129658818D01*
X206976545Y-129650404D01*
X206978050Y-129642116D01*
X206979960Y-129633967D01*
X206982263Y-129625966D01*
X206984950Y-129618124D01*
X206988008Y-129610454D01*
X206991426Y-129602966D01*
X206995194Y-129595671D01*
X206999300Y-129588581D01*
X207003733Y-129581707D01*
X207008482Y-129575059D01*
X207013535Y-129568649D01*
X207018883Y-129562487D01*
X207024512Y-129556587D01*
X207030413Y-129550957D01*
X207036574Y-129545610D01*
X207042984Y-129540556D01*
X207049632Y-129535808D01*
X207056507Y-129531375D01*
X207063597Y-129527269D01*
X207070892Y-129523501D01*
X207078380Y-129520082D01*
X207086050Y-129517024D01*
X207093891Y-129514338D01*
X207101892Y-129512034D01*
X207110042Y-129510124D01*
X207118329Y-129508620D01*
X207126743Y-129507531D01*
X207135272Y-129506870D01*
X207143905Y-129506647D01*
X207152539Y-129506871D01*
G37*
D11*
X184324405Y-106104819D02*
X184324405Y-105104819D01*
X184324405Y-105104819D02*
X184562500Y-105104819D01*
X184562500Y-105104819D02*
X184705357Y-105152438D01*
X184705357Y-105152438D02*
X184800595Y-105247676D01*
X184800595Y-105247676D02*
X184848214Y-105342914D01*
X184848214Y-105342914D02*
X184895833Y-105533390D01*
X184895833Y-105533390D02*
X184895833Y-105676247D01*
X184895833Y-105676247D02*
X184848214Y-105866723D01*
X184848214Y-105866723D02*
X184800595Y-105961961D01*
X184800595Y-105961961D02*
X184705357Y-106057200D01*
X184705357Y-106057200D02*
X184562500Y-106104819D01*
X184562500Y-106104819D02*
X184324405Y-106104819D01*
X185276786Y-105200057D02*
X185324405Y-105152438D01*
X185324405Y-105152438D02*
X185419643Y-105104819D01*
X185419643Y-105104819D02*
X185657738Y-105104819D01*
X185657738Y-105104819D02*
X185752976Y-105152438D01*
X185752976Y-105152438D02*
X185800595Y-105200057D01*
X185800595Y-105200057D02*
X185848214Y-105295295D01*
X185848214Y-105295295D02*
X185848214Y-105390533D01*
X185848214Y-105390533D02*
X185800595Y-105533390D01*
X185800595Y-105533390D02*
X185229167Y-106104819D01*
X185229167Y-106104819D02*
X185848214Y-106104819D01*
X185258333Y-102154819D02*
X184925000Y-101678628D01*
X184686905Y-102154819D02*
X184686905Y-101154819D01*
X184686905Y-101154819D02*
X185067857Y-101154819D01*
X185067857Y-101154819D02*
X185163095Y-101202438D01*
X185163095Y-101202438D02*
X185210714Y-101250057D01*
X185210714Y-101250057D02*
X185258333Y-101345295D01*
X185258333Y-101345295D02*
X185258333Y-101488152D01*
X185258333Y-101488152D02*
X185210714Y-101583390D01*
X185210714Y-101583390D02*
X185163095Y-101631009D01*
X185163095Y-101631009D02*
X185067857Y-101678628D01*
X185067857Y-101678628D02*
X184686905Y-101678628D01*
X186163095Y-101154819D02*
X185686905Y-101154819D01*
X185686905Y-101154819D02*
X185639286Y-101631009D01*
X185639286Y-101631009D02*
X185686905Y-101583390D01*
X185686905Y-101583390D02*
X185782143Y-101535771D01*
X185782143Y-101535771D02*
X186020238Y-101535771D01*
X186020238Y-101535771D02*
X186115476Y-101583390D01*
X186115476Y-101583390D02*
X186163095Y-101631009D01*
X186163095Y-101631009D02*
X186210714Y-101726247D01*
X186210714Y-101726247D02*
X186210714Y-101964342D01*
X186210714Y-101964342D02*
X186163095Y-102059580D01*
X186163095Y-102059580D02*
X186115476Y-102107200D01*
X186115476Y-102107200D02*
X186020238Y-102154819D01*
X186020238Y-102154819D02*
X185782143Y-102154819D01*
X185782143Y-102154819D02*
X185686905Y-102107200D01*
X185686905Y-102107200D02*
X185639286Y-102059580D01*
X159939819Y-122083333D02*
X160654104Y-122083333D01*
X160654104Y-122083333D02*
X160796961Y-122130952D01*
X160796961Y-122130952D02*
X160892200Y-122226190D01*
X160892200Y-122226190D02*
X160939819Y-122369047D01*
X160939819Y-122369047D02*
X160939819Y-122464285D01*
X159939819Y-121178571D02*
X159939819Y-121369047D01*
X159939819Y-121369047D02*
X159987438Y-121464285D01*
X159987438Y-121464285D02*
X160035057Y-121511904D01*
X160035057Y-121511904D02*
X160177914Y-121607142D01*
X160177914Y-121607142D02*
X160368390Y-121654761D01*
X160368390Y-121654761D02*
X160749342Y-121654761D01*
X160749342Y-121654761D02*
X160844580Y-121607142D01*
X160844580Y-121607142D02*
X160892200Y-121559523D01*
X160892200Y-121559523D02*
X160939819Y-121464285D01*
X160939819Y-121464285D02*
X160939819Y-121273809D01*
X160939819Y-121273809D02*
X160892200Y-121178571D01*
X160892200Y-121178571D02*
X160844580Y-121130952D01*
X160844580Y-121130952D02*
X160749342Y-121083333D01*
X160749342Y-121083333D02*
X160511247Y-121083333D01*
X160511247Y-121083333D02*
X160416009Y-121130952D01*
X160416009Y-121130952D02*
X160368390Y-121178571D01*
X160368390Y-121178571D02*
X160320771Y-121273809D01*
X160320771Y-121273809D02*
X160320771Y-121464285D01*
X160320771Y-121464285D02*
X160368390Y-121559523D01*
X160368390Y-121559523D02*
X160416009Y-121607142D01*
X160416009Y-121607142D02*
X160511247Y-121654761D01*
X166189819Y-122198333D02*
X166904104Y-122198333D01*
X166904104Y-122198333D02*
X167046961Y-122245952D01*
X167046961Y-122245952D02*
X167142200Y-122341190D01*
X167142200Y-122341190D02*
X167189819Y-122484047D01*
X167189819Y-122484047D02*
X167189819Y-122579285D01*
X167189819Y-121198333D02*
X167189819Y-121769761D01*
X167189819Y-121484047D02*
X166189819Y-121484047D01*
X166189819Y-121484047D02*
X166332676Y-121579285D01*
X166332676Y-121579285D02*
X166427914Y-121674523D01*
X166427914Y-121674523D02*
X166475533Y-121769761D01*
D12*
X183634419Y-116185240D02*
X183634419Y-115016840D01*
X184858457Y-116073963D02*
X184802819Y-116129602D01*
X184802819Y-116129602D02*
X184635905Y-116185240D01*
X184635905Y-116185240D02*
X184524629Y-116185240D01*
X184524629Y-116185240D02*
X184357714Y-116129602D01*
X184357714Y-116129602D02*
X184246438Y-116018325D01*
X184246438Y-116018325D02*
X184190800Y-115907049D01*
X184190800Y-115907049D02*
X184135162Y-115684497D01*
X184135162Y-115684497D02*
X184135162Y-115517582D01*
X184135162Y-115517582D02*
X184190800Y-115295030D01*
X184190800Y-115295030D02*
X184246438Y-115183754D01*
X184246438Y-115183754D02*
X184357714Y-115072478D01*
X184357714Y-115072478D02*
X184524629Y-115016840D01*
X184524629Y-115016840D02*
X184635905Y-115016840D01*
X184635905Y-115016840D02*
X184802819Y-115072478D01*
X184802819Y-115072478D02*
X184858457Y-115128116D01*
X185971219Y-116185240D02*
X185303562Y-116185240D01*
X185637390Y-116185240D02*
X185637390Y-115016840D01*
X185637390Y-115016840D02*
X185526114Y-115183754D01*
X185526114Y-115183754D02*
X185414838Y-115295030D01*
X185414838Y-115295030D02*
X185303562Y-115350668D01*
D11*
X165584819Y-127817857D02*
X165108628Y-128151190D01*
X165584819Y-128389285D02*
X164584819Y-128389285D01*
X164584819Y-128389285D02*
X164584819Y-128008333D01*
X164584819Y-128008333D02*
X164632438Y-127913095D01*
X164632438Y-127913095D02*
X164680057Y-127865476D01*
X164680057Y-127865476D02*
X164775295Y-127817857D01*
X164775295Y-127817857D02*
X164918152Y-127817857D01*
X164918152Y-127817857D02*
X165013390Y-127865476D01*
X165013390Y-127865476D02*
X165061009Y-127913095D01*
X165061009Y-127913095D02*
X165108628Y-128008333D01*
X165108628Y-128008333D02*
X165108628Y-128389285D01*
X165584819Y-126865476D02*
X165584819Y-127436904D01*
X165584819Y-127151190D02*
X164584819Y-127151190D01*
X164584819Y-127151190D02*
X164727676Y-127246428D01*
X164727676Y-127246428D02*
X164822914Y-127341666D01*
X164822914Y-127341666D02*
X164870533Y-127436904D01*
X164918152Y-126008333D02*
X165584819Y-126008333D01*
X164537200Y-126246428D02*
X165251485Y-126484523D01*
X165251485Y-126484523D02*
X165251485Y-125865476D01*
X166234905Y-113049819D02*
X166234905Y-112049819D01*
X166234905Y-112049819D02*
X166473000Y-112049819D01*
X166473000Y-112049819D02*
X166615857Y-112097438D01*
X166615857Y-112097438D02*
X166711095Y-112192676D01*
X166711095Y-112192676D02*
X166758714Y-112287914D01*
X166758714Y-112287914D02*
X166806333Y-112478390D01*
X166806333Y-112478390D02*
X166806333Y-112621247D01*
X166806333Y-112621247D02*
X166758714Y-112811723D01*
X166758714Y-112811723D02*
X166711095Y-112906961D01*
X166711095Y-112906961D02*
X166615857Y-113002200D01*
X166615857Y-113002200D02*
X166473000Y-113049819D01*
X166473000Y-113049819D02*
X166234905Y-113049819D01*
X167758714Y-113049819D02*
X167187286Y-113049819D01*
X167473000Y-113049819D02*
X167473000Y-112049819D01*
X167473000Y-112049819D02*
X167377762Y-112192676D01*
X167377762Y-112192676D02*
X167282524Y-112287914D01*
X167282524Y-112287914D02*
X167187286Y-112335533D01*
D13*
X153250475Y-120763842D02*
X153431904Y-120824318D01*
X153431904Y-120824318D02*
X153734285Y-120824318D01*
X153734285Y-120824318D02*
X153855237Y-120763842D01*
X153855237Y-120763842D02*
X153915713Y-120703365D01*
X153915713Y-120703365D02*
X153976190Y-120582413D01*
X153976190Y-120582413D02*
X153976190Y-120461461D01*
X153976190Y-120461461D02*
X153915713Y-120340508D01*
X153915713Y-120340508D02*
X153855237Y-120280032D01*
X153855237Y-120280032D02*
X153734285Y-120219556D01*
X153734285Y-120219556D02*
X153492380Y-120159080D01*
X153492380Y-120159080D02*
X153371428Y-120098603D01*
X153371428Y-120098603D02*
X153310951Y-120038127D01*
X153310951Y-120038127D02*
X153250475Y-119917175D01*
X153250475Y-119917175D02*
X153250475Y-119796222D01*
X153250475Y-119796222D02*
X153310951Y-119675270D01*
X153310951Y-119675270D02*
X153371428Y-119614794D01*
X153371428Y-119614794D02*
X153492380Y-119554318D01*
X153492380Y-119554318D02*
X153794761Y-119554318D01*
X153794761Y-119554318D02*
X153976190Y-119614794D01*
X154520475Y-120159080D02*
X154943809Y-120159080D01*
X155125237Y-120824318D02*
X154520475Y-120824318D01*
X154520475Y-120824318D02*
X154520475Y-119554318D01*
X154520475Y-119554318D02*
X155125237Y-119554318D01*
X156274285Y-120824318D02*
X155669523Y-120824318D01*
X155669523Y-120824318D02*
X155669523Y-119554318D01*
X156697618Y-120159080D02*
X157120952Y-120159080D01*
X157302380Y-120824318D02*
X156697618Y-120824318D01*
X156697618Y-120824318D02*
X156697618Y-119554318D01*
X156697618Y-119554318D02*
X157302380Y-119554318D01*
X158572381Y-120703365D02*
X158511905Y-120763842D01*
X158511905Y-120763842D02*
X158330476Y-120824318D01*
X158330476Y-120824318D02*
X158209524Y-120824318D01*
X158209524Y-120824318D02*
X158028095Y-120763842D01*
X158028095Y-120763842D02*
X157907143Y-120642889D01*
X157907143Y-120642889D02*
X157846666Y-120521937D01*
X157846666Y-120521937D02*
X157786190Y-120280032D01*
X157786190Y-120280032D02*
X157786190Y-120098603D01*
X157786190Y-120098603D02*
X157846666Y-119856699D01*
X157846666Y-119856699D02*
X157907143Y-119735746D01*
X157907143Y-119735746D02*
X158028095Y-119614794D01*
X158028095Y-119614794D02*
X158209524Y-119554318D01*
X158209524Y-119554318D02*
X158330476Y-119554318D01*
X158330476Y-119554318D02*
X158511905Y-119614794D01*
X158511905Y-119614794D02*
X158572381Y-119675270D01*
X158935238Y-119554318D02*
X159660952Y-119554318D01*
X159298095Y-120824318D02*
X159298095Y-119554318D01*
X160749524Y-120824318D02*
X160023809Y-120824318D01*
X160386666Y-120824318D02*
X160386666Y-119554318D01*
X160386666Y-119554318D02*
X160265714Y-119735746D01*
X160265714Y-119735746D02*
X160144762Y-119856699D01*
X160144762Y-119856699D02*
X160023809Y-119917175D01*
D11*
X169354819Y-109399404D02*
X170164342Y-109399404D01*
X170164342Y-109399404D02*
X170259580Y-109351785D01*
X170259580Y-109351785D02*
X170307200Y-109304166D01*
X170307200Y-109304166D02*
X170354819Y-109208928D01*
X170354819Y-109208928D02*
X170354819Y-109018452D01*
X170354819Y-109018452D02*
X170307200Y-108923214D01*
X170307200Y-108923214D02*
X170259580Y-108875595D01*
X170259580Y-108875595D02*
X170164342Y-108827976D01*
X170164342Y-108827976D02*
X169354819Y-108827976D01*
X169354819Y-108447023D02*
X169354819Y-107827976D01*
X169354819Y-107827976D02*
X169735771Y-108161309D01*
X169735771Y-108161309D02*
X169735771Y-108018452D01*
X169735771Y-108018452D02*
X169783390Y-107923214D01*
X169783390Y-107923214D02*
X169831009Y-107875595D01*
X169831009Y-107875595D02*
X169926247Y-107827976D01*
X169926247Y-107827976D02*
X170164342Y-107827976D01*
X170164342Y-107827976D02*
X170259580Y-107875595D01*
X170259580Y-107875595D02*
X170307200Y-107923214D01*
X170307200Y-107923214D02*
X170354819Y-108018452D01*
X170354819Y-108018452D02*
X170354819Y-108304166D01*
X170354819Y-108304166D02*
X170307200Y-108399404D01*
X170307200Y-108399404D02*
X170259580Y-108447023D01*
D13*
X154066904Y-114574318D02*
X154066904Y-113304318D01*
X154066904Y-113304318D02*
X154490238Y-114211461D01*
X154490238Y-114211461D02*
X154913571Y-113304318D01*
X154913571Y-113304318D02*
X154913571Y-114574318D01*
X155518333Y-113909080D02*
X155941667Y-113909080D01*
X156123095Y-114574318D02*
X155518333Y-114574318D01*
X155518333Y-114574318D02*
X155518333Y-113304318D01*
X155518333Y-113304318D02*
X156123095Y-113304318D01*
X156667381Y-114574318D02*
X156667381Y-113304318D01*
X156667381Y-113304318D02*
X157393096Y-114574318D01*
X157393096Y-114574318D02*
X157393096Y-113304318D01*
X157997857Y-113304318D02*
X157997857Y-114332413D01*
X157997857Y-114332413D02*
X158058334Y-114453365D01*
X158058334Y-114453365D02*
X158118810Y-114513842D01*
X158118810Y-114513842D02*
X158239762Y-114574318D01*
X158239762Y-114574318D02*
X158481667Y-114574318D01*
X158481667Y-114574318D02*
X158602619Y-114513842D01*
X158602619Y-114513842D02*
X158663096Y-114453365D01*
X158663096Y-114453365D02*
X158723572Y-114332413D01*
X158723572Y-114332413D02*
X158723572Y-113304318D01*
X159993572Y-114574318D02*
X159267857Y-114574318D01*
X159630714Y-114574318D02*
X159630714Y-113304318D01*
X159630714Y-113304318D02*
X159509762Y-113485746D01*
X159509762Y-113485746D02*
X159388810Y-113606699D01*
X159388810Y-113606699D02*
X159267857Y-113667175D01*
D11*
X192789580Y-123867857D02*
X192837200Y-123915476D01*
X192837200Y-123915476D02*
X192884819Y-124058333D01*
X192884819Y-124058333D02*
X192884819Y-124153571D01*
X192884819Y-124153571D02*
X192837200Y-124296428D01*
X192837200Y-124296428D02*
X192741961Y-124391666D01*
X192741961Y-124391666D02*
X192646723Y-124439285D01*
X192646723Y-124439285D02*
X192456247Y-124486904D01*
X192456247Y-124486904D02*
X192313390Y-124486904D01*
X192313390Y-124486904D02*
X192122914Y-124439285D01*
X192122914Y-124439285D02*
X192027676Y-124391666D01*
X192027676Y-124391666D02*
X191932438Y-124296428D01*
X191932438Y-124296428D02*
X191884819Y-124153571D01*
X191884819Y-124153571D02*
X191884819Y-124058333D01*
X191884819Y-124058333D02*
X191932438Y-123915476D01*
X191932438Y-123915476D02*
X191980057Y-123867857D01*
X192884819Y-122915476D02*
X192884819Y-123486904D01*
X192884819Y-123201190D02*
X191884819Y-123201190D01*
X191884819Y-123201190D02*
X192027676Y-123296428D01*
X192027676Y-123296428D02*
X192122914Y-123391666D01*
X192122914Y-123391666D02*
X192170533Y-123486904D01*
X192884819Y-121963095D02*
X192884819Y-122534523D01*
X192884819Y-122248809D02*
X191884819Y-122248809D01*
X191884819Y-122248809D02*
X192027676Y-122344047D01*
X192027676Y-122344047D02*
X192122914Y-122439285D01*
X192122914Y-122439285D02*
X192170533Y-122534523D01*
X198954819Y-108754408D02*
X198478628Y-109087741D01*
X198954819Y-109325836D02*
X197954819Y-109325836D01*
X197954819Y-109325836D02*
X197954819Y-108944884D01*
X197954819Y-108944884D02*
X198002438Y-108849646D01*
X198002438Y-108849646D02*
X198050057Y-108802027D01*
X198050057Y-108802027D02*
X198145295Y-108754408D01*
X198145295Y-108754408D02*
X198288152Y-108754408D01*
X198288152Y-108754408D02*
X198383390Y-108802027D01*
X198383390Y-108802027D02*
X198431009Y-108849646D01*
X198431009Y-108849646D02*
X198478628Y-108944884D01*
X198478628Y-108944884D02*
X198478628Y-109325836D01*
X198050057Y-108373455D02*
X198002438Y-108325836D01*
X198002438Y-108325836D02*
X197954819Y-108230598D01*
X197954819Y-108230598D02*
X197954819Y-107992503D01*
X197954819Y-107992503D02*
X198002438Y-107897265D01*
X198002438Y-107897265D02*
X198050057Y-107849646D01*
X198050057Y-107849646D02*
X198145295Y-107802027D01*
X198145295Y-107802027D02*
X198240533Y-107802027D01*
X198240533Y-107802027D02*
X198383390Y-107849646D01*
X198383390Y-107849646D02*
X198954819Y-108421074D01*
X198954819Y-108421074D02*
X198954819Y-107802027D01*
X166467261Y-100600057D02*
X166372023Y-100552438D01*
X166372023Y-100552438D02*
X166276785Y-100457200D01*
X166276785Y-100457200D02*
X166133928Y-100314342D01*
X166133928Y-100314342D02*
X166038690Y-100266723D01*
X166038690Y-100266723D02*
X165943452Y-100266723D01*
X165991071Y-100504819D02*
X165895833Y-100457200D01*
X165895833Y-100457200D02*
X165800595Y-100361961D01*
X165800595Y-100361961D02*
X165752976Y-100171485D01*
X165752976Y-100171485D02*
X165752976Y-99838152D01*
X165752976Y-99838152D02*
X165800595Y-99647676D01*
X165800595Y-99647676D02*
X165895833Y-99552438D01*
X165895833Y-99552438D02*
X165991071Y-99504819D01*
X165991071Y-99504819D02*
X166181547Y-99504819D01*
X166181547Y-99504819D02*
X166276785Y-99552438D01*
X166276785Y-99552438D02*
X166372023Y-99647676D01*
X166372023Y-99647676D02*
X166419642Y-99838152D01*
X166419642Y-99838152D02*
X166419642Y-100171485D01*
X166419642Y-100171485D02*
X166372023Y-100361961D01*
X166372023Y-100361961D02*
X166276785Y-100457200D01*
X166276785Y-100457200D02*
X166181547Y-100504819D01*
X166181547Y-100504819D02*
X165991071Y-100504819D01*
X166752976Y-99504819D02*
X167372023Y-99504819D01*
X167372023Y-99504819D02*
X167038690Y-99885771D01*
X167038690Y-99885771D02*
X167181547Y-99885771D01*
X167181547Y-99885771D02*
X167276785Y-99933390D01*
X167276785Y-99933390D02*
X167324404Y-99981009D01*
X167324404Y-99981009D02*
X167372023Y-100076247D01*
X167372023Y-100076247D02*
X167372023Y-100314342D01*
X167372023Y-100314342D02*
X167324404Y-100409580D01*
X167324404Y-100409580D02*
X167276785Y-100457200D01*
X167276785Y-100457200D02*
X167181547Y-100504819D01*
X167181547Y-100504819D02*
X166895833Y-100504819D01*
X166895833Y-100504819D02*
X166800595Y-100457200D01*
X166800595Y-100457200D02*
X166752976Y-100409580D01*
X184008333Y-112884819D02*
X183675000Y-112408628D01*
X183436905Y-112884819D02*
X183436905Y-111884819D01*
X183436905Y-111884819D02*
X183817857Y-111884819D01*
X183817857Y-111884819D02*
X183913095Y-111932438D01*
X183913095Y-111932438D02*
X183960714Y-111980057D01*
X183960714Y-111980057D02*
X184008333Y-112075295D01*
X184008333Y-112075295D02*
X184008333Y-112218152D01*
X184008333Y-112218152D02*
X183960714Y-112313390D01*
X183960714Y-112313390D02*
X183913095Y-112361009D01*
X183913095Y-112361009D02*
X183817857Y-112408628D01*
X183817857Y-112408628D02*
X183436905Y-112408628D01*
X184865476Y-112218152D02*
X184865476Y-112884819D01*
X184627381Y-111837200D02*
X184389286Y-112551485D01*
X184389286Y-112551485D02*
X185008333Y-112551485D01*
D13*
X203909080Y-105828332D02*
X203969556Y-105646904D01*
X203969556Y-105646904D02*
X204030032Y-105586427D01*
X204030032Y-105586427D02*
X204150984Y-105525951D01*
X204150984Y-105525951D02*
X204332413Y-105525951D01*
X204332413Y-105525951D02*
X204453365Y-105586427D01*
X204453365Y-105586427D02*
X204513842Y-105646904D01*
X204513842Y-105646904D02*
X204574318Y-105767856D01*
X204574318Y-105767856D02*
X204574318Y-106251666D01*
X204574318Y-106251666D02*
X203304318Y-106251666D01*
X203304318Y-106251666D02*
X203304318Y-105828332D01*
X203304318Y-105828332D02*
X203364794Y-105707380D01*
X203364794Y-105707380D02*
X203425270Y-105646904D01*
X203425270Y-105646904D02*
X203546222Y-105586427D01*
X203546222Y-105586427D02*
X203667175Y-105586427D01*
X203667175Y-105586427D02*
X203788127Y-105646904D01*
X203788127Y-105646904D02*
X203848603Y-105707380D01*
X203848603Y-105707380D02*
X203909080Y-105828332D01*
X203909080Y-105828332D02*
X203909080Y-106251666D01*
X203304318Y-104739761D02*
X203304318Y-104497856D01*
X203304318Y-104497856D02*
X203364794Y-104376904D01*
X203364794Y-104376904D02*
X203485746Y-104255951D01*
X203485746Y-104255951D02*
X203727651Y-104195475D01*
X203727651Y-104195475D02*
X204150984Y-104195475D01*
X204150984Y-104195475D02*
X204392889Y-104255951D01*
X204392889Y-104255951D02*
X204513842Y-104376904D01*
X204513842Y-104376904D02*
X204574318Y-104497856D01*
X204574318Y-104497856D02*
X204574318Y-104739761D01*
X204574318Y-104739761D02*
X204513842Y-104860713D01*
X204513842Y-104860713D02*
X204392889Y-104981666D01*
X204392889Y-104981666D02*
X204150984Y-105042142D01*
X204150984Y-105042142D02*
X203727651Y-105042142D01*
X203727651Y-105042142D02*
X203485746Y-104981666D01*
X203485746Y-104981666D02*
X203364794Y-104860713D01*
X203364794Y-104860713D02*
X203304318Y-104739761D01*
X203304318Y-103409285D02*
X203304318Y-103167380D01*
X203304318Y-103167380D02*
X203364794Y-103046428D01*
X203364794Y-103046428D02*
X203485746Y-102925475D01*
X203485746Y-102925475D02*
X203727651Y-102864999D01*
X203727651Y-102864999D02*
X204150984Y-102864999D01*
X204150984Y-102864999D02*
X204392889Y-102925475D01*
X204392889Y-102925475D02*
X204513842Y-103046428D01*
X204513842Y-103046428D02*
X204574318Y-103167380D01*
X204574318Y-103167380D02*
X204574318Y-103409285D01*
X204574318Y-103409285D02*
X204513842Y-103530237D01*
X204513842Y-103530237D02*
X204392889Y-103651190D01*
X204392889Y-103651190D02*
X204150984Y-103711666D01*
X204150984Y-103711666D02*
X203727651Y-103711666D01*
X203727651Y-103711666D02*
X203485746Y-103651190D01*
X203485746Y-103651190D02*
X203364794Y-103530237D01*
X203364794Y-103530237D02*
X203304318Y-103409285D01*
X203304318Y-102502142D02*
X203304318Y-101776428D01*
X204574318Y-102139285D02*
X203304318Y-102139285D01*
X204574318Y-100687856D02*
X204574318Y-101413571D01*
X204574318Y-101050714D02*
X203304318Y-101050714D01*
X203304318Y-101050714D02*
X203485746Y-101171666D01*
X203485746Y-101171666D02*
X203606699Y-101292618D01*
X203606699Y-101292618D02*
X203667175Y-101413571D01*
D11*
X174500057Y-114632738D02*
X174452438Y-114727976D01*
X174452438Y-114727976D02*
X174357200Y-114823214D01*
X174357200Y-114823214D02*
X174214342Y-114966071D01*
X174214342Y-114966071D02*
X174166723Y-115061309D01*
X174166723Y-115061309D02*
X174166723Y-115156547D01*
X174404819Y-115108928D02*
X174357200Y-115204166D01*
X174357200Y-115204166D02*
X174261961Y-115299404D01*
X174261961Y-115299404D02*
X174071485Y-115347023D01*
X174071485Y-115347023D02*
X173738152Y-115347023D01*
X173738152Y-115347023D02*
X173547676Y-115299404D01*
X173547676Y-115299404D02*
X173452438Y-115204166D01*
X173452438Y-115204166D02*
X173404819Y-115108928D01*
X173404819Y-115108928D02*
X173404819Y-114918452D01*
X173404819Y-114918452D02*
X173452438Y-114823214D01*
X173452438Y-114823214D02*
X173547676Y-114727976D01*
X173547676Y-114727976D02*
X173738152Y-114680357D01*
X173738152Y-114680357D02*
X174071485Y-114680357D01*
X174071485Y-114680357D02*
X174261961Y-114727976D01*
X174261961Y-114727976D02*
X174357200Y-114823214D01*
X174357200Y-114823214D02*
X174404819Y-114918452D01*
X174404819Y-114918452D02*
X174404819Y-115108928D01*
X173500057Y-114299404D02*
X173452438Y-114251785D01*
X173452438Y-114251785D02*
X173404819Y-114156547D01*
X173404819Y-114156547D02*
X173404819Y-113918452D01*
X173404819Y-113918452D02*
X173452438Y-113823214D01*
X173452438Y-113823214D02*
X173500057Y-113775595D01*
X173500057Y-113775595D02*
X173595295Y-113727976D01*
X173595295Y-113727976D02*
X173690533Y-113727976D01*
X173690533Y-113727976D02*
X173833390Y-113775595D01*
X173833390Y-113775595D02*
X174404819Y-114347023D01*
X174404819Y-114347023D02*
X174404819Y-113727976D01*
X195954819Y-108754408D02*
X195478628Y-109087741D01*
X195954819Y-109325836D02*
X194954819Y-109325836D01*
X194954819Y-109325836D02*
X194954819Y-108944884D01*
X194954819Y-108944884D02*
X195002438Y-108849646D01*
X195002438Y-108849646D02*
X195050057Y-108802027D01*
X195050057Y-108802027D02*
X195145295Y-108754408D01*
X195145295Y-108754408D02*
X195288152Y-108754408D01*
X195288152Y-108754408D02*
X195383390Y-108802027D01*
X195383390Y-108802027D02*
X195431009Y-108849646D01*
X195431009Y-108849646D02*
X195478628Y-108944884D01*
X195478628Y-108944884D02*
X195478628Y-109325836D01*
X195954819Y-107802027D02*
X195954819Y-108373455D01*
X195954819Y-108087741D02*
X194954819Y-108087741D01*
X194954819Y-108087741D02*
X195097676Y-108182979D01*
X195097676Y-108182979D02*
X195192914Y-108278217D01*
X195192914Y-108278217D02*
X195240533Y-108373455D01*
X206582142Y-111429580D02*
X206534523Y-111477200D01*
X206534523Y-111477200D02*
X206391666Y-111524819D01*
X206391666Y-111524819D02*
X206296428Y-111524819D01*
X206296428Y-111524819D02*
X206153571Y-111477200D01*
X206153571Y-111477200D02*
X206058333Y-111381961D01*
X206058333Y-111381961D02*
X206010714Y-111286723D01*
X206010714Y-111286723D02*
X205963095Y-111096247D01*
X205963095Y-111096247D02*
X205963095Y-110953390D01*
X205963095Y-110953390D02*
X206010714Y-110762914D01*
X206010714Y-110762914D02*
X206058333Y-110667676D01*
X206058333Y-110667676D02*
X206153571Y-110572438D01*
X206153571Y-110572438D02*
X206296428Y-110524819D01*
X206296428Y-110524819D02*
X206391666Y-110524819D01*
X206391666Y-110524819D02*
X206534523Y-110572438D01*
X206534523Y-110572438D02*
X206582142Y-110620057D01*
X207534523Y-111524819D02*
X206963095Y-111524819D01*
X207248809Y-111524819D02*
X207248809Y-110524819D01*
X207248809Y-110524819D02*
X207153571Y-110667676D01*
X207153571Y-110667676D02*
X207058333Y-110762914D01*
X207058333Y-110762914D02*
X206963095Y-110810533D01*
X208153571Y-110524819D02*
X208248809Y-110524819D01*
X208248809Y-110524819D02*
X208344047Y-110572438D01*
X208344047Y-110572438D02*
X208391666Y-110620057D01*
X208391666Y-110620057D02*
X208439285Y-110715295D01*
X208439285Y-110715295D02*
X208486904Y-110905771D01*
X208486904Y-110905771D02*
X208486904Y-111143866D01*
X208486904Y-111143866D02*
X208439285Y-111334342D01*
X208439285Y-111334342D02*
X208391666Y-111429580D01*
X208391666Y-111429580D02*
X208344047Y-111477200D01*
X208344047Y-111477200D02*
X208248809Y-111524819D01*
X208248809Y-111524819D02*
X208153571Y-111524819D01*
X208153571Y-111524819D02*
X208058333Y-111477200D01*
X208058333Y-111477200D02*
X208010714Y-111429580D01*
X208010714Y-111429580D02*
X207963095Y-111334342D01*
X207963095Y-111334342D02*
X207915476Y-111143866D01*
X207915476Y-111143866D02*
X207915476Y-110905771D01*
X207915476Y-110905771D02*
X207963095Y-110715295D01*
X207963095Y-110715295D02*
X208010714Y-110620057D01*
X208010714Y-110620057D02*
X208058333Y-110572438D01*
X208058333Y-110572438D02*
X208153571Y-110524819D01*
X195129819Y-112491666D02*
X194653628Y-112824999D01*
X195129819Y-113063094D02*
X194129819Y-113063094D01*
X194129819Y-113063094D02*
X194129819Y-112682142D01*
X194129819Y-112682142D02*
X194177438Y-112586904D01*
X194177438Y-112586904D02*
X194225057Y-112539285D01*
X194225057Y-112539285D02*
X194320295Y-112491666D01*
X194320295Y-112491666D02*
X194463152Y-112491666D01*
X194463152Y-112491666D02*
X194558390Y-112539285D01*
X194558390Y-112539285D02*
X194606009Y-112586904D01*
X194606009Y-112586904D02*
X194653628Y-112682142D01*
X194653628Y-112682142D02*
X194653628Y-113063094D01*
X194558390Y-111920237D02*
X194510771Y-112015475D01*
X194510771Y-112015475D02*
X194463152Y-112063094D01*
X194463152Y-112063094D02*
X194367914Y-112110713D01*
X194367914Y-112110713D02*
X194320295Y-112110713D01*
X194320295Y-112110713D02*
X194225057Y-112063094D01*
X194225057Y-112063094D02*
X194177438Y-112015475D01*
X194177438Y-112015475D02*
X194129819Y-111920237D01*
X194129819Y-111920237D02*
X194129819Y-111729761D01*
X194129819Y-111729761D02*
X194177438Y-111634523D01*
X194177438Y-111634523D02*
X194225057Y-111586904D01*
X194225057Y-111586904D02*
X194320295Y-111539285D01*
X194320295Y-111539285D02*
X194367914Y-111539285D01*
X194367914Y-111539285D02*
X194463152Y-111586904D01*
X194463152Y-111586904D02*
X194510771Y-111634523D01*
X194510771Y-111634523D02*
X194558390Y-111729761D01*
X194558390Y-111729761D02*
X194558390Y-111920237D01*
X194558390Y-111920237D02*
X194606009Y-112015475D01*
X194606009Y-112015475D02*
X194653628Y-112063094D01*
X194653628Y-112063094D02*
X194748866Y-112110713D01*
X194748866Y-112110713D02*
X194939342Y-112110713D01*
X194939342Y-112110713D02*
X195034580Y-112063094D01*
X195034580Y-112063094D02*
X195082200Y-112015475D01*
X195082200Y-112015475D02*
X195129819Y-111920237D01*
X195129819Y-111920237D02*
X195129819Y-111729761D01*
X195129819Y-111729761D02*
X195082200Y-111634523D01*
X195082200Y-111634523D02*
X195034580Y-111586904D01*
X195034580Y-111586904D02*
X194939342Y-111539285D01*
X194939342Y-111539285D02*
X194748866Y-111539285D01*
X194748866Y-111539285D02*
X194653628Y-111586904D01*
X194653628Y-111586904D02*
X194606009Y-111634523D01*
X194606009Y-111634523D02*
X194558390Y-111729761D01*
X183917753Y-107359580D02*
X183870134Y-107407200D01*
X183870134Y-107407200D02*
X183727277Y-107454819D01*
X183727277Y-107454819D02*
X183632039Y-107454819D01*
X183632039Y-107454819D02*
X183489182Y-107407200D01*
X183489182Y-107407200D02*
X183393944Y-107311961D01*
X183393944Y-107311961D02*
X183346325Y-107216723D01*
X183346325Y-107216723D02*
X183298706Y-107026247D01*
X183298706Y-107026247D02*
X183298706Y-106883390D01*
X183298706Y-106883390D02*
X183346325Y-106692914D01*
X183346325Y-106692914D02*
X183393944Y-106597676D01*
X183393944Y-106597676D02*
X183489182Y-106502438D01*
X183489182Y-106502438D02*
X183632039Y-106454819D01*
X183632039Y-106454819D02*
X183727277Y-106454819D01*
X183727277Y-106454819D02*
X183870134Y-106502438D01*
X183870134Y-106502438D02*
X183917753Y-106550057D01*
X184489182Y-106883390D02*
X184393944Y-106835771D01*
X184393944Y-106835771D02*
X184346325Y-106788152D01*
X184346325Y-106788152D02*
X184298706Y-106692914D01*
X184298706Y-106692914D02*
X184298706Y-106645295D01*
X184298706Y-106645295D02*
X184346325Y-106550057D01*
X184346325Y-106550057D02*
X184393944Y-106502438D01*
X184393944Y-106502438D02*
X184489182Y-106454819D01*
X184489182Y-106454819D02*
X184679658Y-106454819D01*
X184679658Y-106454819D02*
X184774896Y-106502438D01*
X184774896Y-106502438D02*
X184822515Y-106550057D01*
X184822515Y-106550057D02*
X184870134Y-106645295D01*
X184870134Y-106645295D02*
X184870134Y-106692914D01*
X184870134Y-106692914D02*
X184822515Y-106788152D01*
X184822515Y-106788152D02*
X184774896Y-106835771D01*
X184774896Y-106835771D02*
X184679658Y-106883390D01*
X184679658Y-106883390D02*
X184489182Y-106883390D01*
X184489182Y-106883390D02*
X184393944Y-106931009D01*
X184393944Y-106931009D02*
X184346325Y-106978628D01*
X184346325Y-106978628D02*
X184298706Y-107073866D01*
X184298706Y-107073866D02*
X184298706Y-107264342D01*
X184298706Y-107264342D02*
X184346325Y-107359580D01*
X184346325Y-107359580D02*
X184393944Y-107407200D01*
X184393944Y-107407200D02*
X184489182Y-107454819D01*
X184489182Y-107454819D02*
X184679658Y-107454819D01*
X184679658Y-107454819D02*
X184774896Y-107407200D01*
X184774896Y-107407200D02*
X184822515Y-107359580D01*
X184822515Y-107359580D02*
X184870134Y-107264342D01*
X184870134Y-107264342D02*
X184870134Y-107073866D01*
X184870134Y-107073866D02*
X184822515Y-106978628D01*
X184822515Y-106978628D02*
X184774896Y-106931009D01*
X184774896Y-106931009D02*
X184679658Y-106883390D01*
X215166666Y-117334819D02*
X215166666Y-118049104D01*
X215166666Y-118049104D02*
X215119047Y-118191961D01*
X215119047Y-118191961D02*
X215023809Y-118287200D01*
X215023809Y-118287200D02*
X214880952Y-118334819D01*
X214880952Y-118334819D02*
X214785714Y-118334819D01*
X215595238Y-117430057D02*
X215642857Y-117382438D01*
X215642857Y-117382438D02*
X215738095Y-117334819D01*
X215738095Y-117334819D02*
X215976190Y-117334819D01*
X215976190Y-117334819D02*
X216071428Y-117382438D01*
X216071428Y-117382438D02*
X216119047Y-117430057D01*
X216119047Y-117430057D02*
X216166666Y-117525295D01*
X216166666Y-117525295D02*
X216166666Y-117620533D01*
X216166666Y-117620533D02*
X216119047Y-117763390D01*
X216119047Y-117763390D02*
X215547619Y-118334819D01*
X215547619Y-118334819D02*
X216166666Y-118334819D01*
X170833333Y-105454819D02*
X170500000Y-104978628D01*
X170261905Y-105454819D02*
X170261905Y-104454819D01*
X170261905Y-104454819D02*
X170642857Y-104454819D01*
X170642857Y-104454819D02*
X170738095Y-104502438D01*
X170738095Y-104502438D02*
X170785714Y-104550057D01*
X170785714Y-104550057D02*
X170833333Y-104645295D01*
X170833333Y-104645295D02*
X170833333Y-104788152D01*
X170833333Y-104788152D02*
X170785714Y-104883390D01*
X170785714Y-104883390D02*
X170738095Y-104931009D01*
X170738095Y-104931009D02*
X170642857Y-104978628D01*
X170642857Y-104978628D02*
X170261905Y-104978628D01*
X171166667Y-104454819D02*
X171785714Y-104454819D01*
X171785714Y-104454819D02*
X171452381Y-104835771D01*
X171452381Y-104835771D02*
X171595238Y-104835771D01*
X171595238Y-104835771D02*
X171690476Y-104883390D01*
X171690476Y-104883390D02*
X171738095Y-104931009D01*
X171738095Y-104931009D02*
X171785714Y-105026247D01*
X171785714Y-105026247D02*
X171785714Y-105264342D01*
X171785714Y-105264342D02*
X171738095Y-105359580D01*
X171738095Y-105359580D02*
X171690476Y-105407200D01*
X171690476Y-105407200D02*
X171595238Y-105454819D01*
X171595238Y-105454819D02*
X171309524Y-105454819D01*
X171309524Y-105454819D02*
X171214286Y-105407200D01*
X171214286Y-105407200D02*
X171166667Y-105359580D01*
X177859580Y-108377918D02*
X177907200Y-108425537D01*
X177907200Y-108425537D02*
X177954819Y-108568394D01*
X177954819Y-108568394D02*
X177954819Y-108663632D01*
X177954819Y-108663632D02*
X177907200Y-108806489D01*
X177907200Y-108806489D02*
X177811961Y-108901727D01*
X177811961Y-108901727D02*
X177716723Y-108949346D01*
X177716723Y-108949346D02*
X177526247Y-108996965D01*
X177526247Y-108996965D02*
X177383390Y-108996965D01*
X177383390Y-108996965D02*
X177192914Y-108949346D01*
X177192914Y-108949346D02*
X177097676Y-108901727D01*
X177097676Y-108901727D02*
X177002438Y-108806489D01*
X177002438Y-108806489D02*
X176954819Y-108663632D01*
X176954819Y-108663632D02*
X176954819Y-108568394D01*
X176954819Y-108568394D02*
X177002438Y-108425537D01*
X177002438Y-108425537D02*
X177050057Y-108377918D01*
X176954819Y-108044584D02*
X176954819Y-107377918D01*
X176954819Y-107377918D02*
X177954819Y-107806489D01*
X187600595Y-112304819D02*
X187600595Y-113114342D01*
X187600595Y-113114342D02*
X187648214Y-113209580D01*
X187648214Y-113209580D02*
X187695833Y-113257200D01*
X187695833Y-113257200D02*
X187791071Y-113304819D01*
X187791071Y-113304819D02*
X187981547Y-113304819D01*
X187981547Y-113304819D02*
X188076785Y-113257200D01*
X188076785Y-113257200D02*
X188124404Y-113209580D01*
X188124404Y-113209580D02*
X188172023Y-113114342D01*
X188172023Y-113114342D02*
X188172023Y-112304819D01*
X189076785Y-112638152D02*
X189076785Y-113304819D01*
X188838690Y-112257200D02*
X188600595Y-112971485D01*
X188600595Y-112971485D02*
X189219642Y-112971485D01*
D13*
X188013842Y-107400714D02*
X188074318Y-107219285D01*
X188074318Y-107219285D02*
X188074318Y-106916904D01*
X188074318Y-106916904D02*
X188013842Y-106795952D01*
X188013842Y-106795952D02*
X187953365Y-106735476D01*
X187953365Y-106735476D02*
X187832413Y-106674999D01*
X187832413Y-106674999D02*
X187711461Y-106674999D01*
X187711461Y-106674999D02*
X187590508Y-106735476D01*
X187590508Y-106735476D02*
X187530032Y-106795952D01*
X187530032Y-106795952D02*
X187469556Y-106916904D01*
X187469556Y-106916904D02*
X187409080Y-107158809D01*
X187409080Y-107158809D02*
X187348603Y-107279761D01*
X187348603Y-107279761D02*
X187288127Y-107340238D01*
X187288127Y-107340238D02*
X187167175Y-107400714D01*
X187167175Y-107400714D02*
X187046222Y-107400714D01*
X187046222Y-107400714D02*
X186925270Y-107340238D01*
X186925270Y-107340238D02*
X186864794Y-107279761D01*
X186864794Y-107279761D02*
X186804318Y-107158809D01*
X186804318Y-107158809D02*
X186804318Y-106856428D01*
X186804318Y-106856428D02*
X186864794Y-106674999D01*
X186804318Y-106251666D02*
X188074318Y-105949285D01*
X188074318Y-105949285D02*
X187167175Y-105707380D01*
X187167175Y-105707380D02*
X188074318Y-105465475D01*
X188074318Y-105465475D02*
X186804318Y-105163095D01*
X188195270Y-104981666D02*
X188195270Y-104014046D01*
X188074318Y-102985951D02*
X187469556Y-103409285D01*
X188074318Y-103711666D02*
X186804318Y-103711666D01*
X186804318Y-103711666D02*
X186804318Y-103227856D01*
X186804318Y-103227856D02*
X186864794Y-103106904D01*
X186864794Y-103106904D02*
X186925270Y-103046427D01*
X186925270Y-103046427D02*
X187046222Y-102985951D01*
X187046222Y-102985951D02*
X187227651Y-102985951D01*
X187227651Y-102985951D02*
X187348603Y-103046427D01*
X187348603Y-103046427D02*
X187409080Y-103106904D01*
X187409080Y-103106904D02*
X187469556Y-103227856D01*
X187469556Y-103227856D02*
X187469556Y-103711666D01*
X188013842Y-102502142D02*
X188074318Y-102320713D01*
X188074318Y-102320713D02*
X188074318Y-102018332D01*
X188074318Y-102018332D02*
X188013842Y-101897380D01*
X188013842Y-101897380D02*
X187953365Y-101836904D01*
X187953365Y-101836904D02*
X187832413Y-101776427D01*
X187832413Y-101776427D02*
X187711461Y-101776427D01*
X187711461Y-101776427D02*
X187590508Y-101836904D01*
X187590508Y-101836904D02*
X187530032Y-101897380D01*
X187530032Y-101897380D02*
X187469556Y-102018332D01*
X187469556Y-102018332D02*
X187409080Y-102260237D01*
X187409080Y-102260237D02*
X187348603Y-102381189D01*
X187348603Y-102381189D02*
X187288127Y-102441666D01*
X187288127Y-102441666D02*
X187167175Y-102502142D01*
X187167175Y-102502142D02*
X187046222Y-102502142D01*
X187046222Y-102502142D02*
X186925270Y-102441666D01*
X186925270Y-102441666D02*
X186864794Y-102381189D01*
X186864794Y-102381189D02*
X186804318Y-102260237D01*
X186804318Y-102260237D02*
X186804318Y-101957856D01*
X186804318Y-101957856D02*
X186864794Y-101776427D01*
X186804318Y-101413570D02*
X186804318Y-100687856D01*
X188074318Y-101050713D02*
X186804318Y-101050713D01*
X188074318Y-99599284D02*
X188074318Y-100324999D01*
X188074318Y-99962142D02*
X186804318Y-99962142D01*
X186804318Y-99962142D02*
X186985746Y-100083094D01*
X186985746Y-100083094D02*
X187106699Y-100204046D01*
X187106699Y-100204046D02*
X187167175Y-100324999D01*
D11*
X207058333Y-108359580D02*
X207010714Y-108407200D01*
X207010714Y-108407200D02*
X206867857Y-108454819D01*
X206867857Y-108454819D02*
X206772619Y-108454819D01*
X206772619Y-108454819D02*
X206629762Y-108407200D01*
X206629762Y-108407200D02*
X206534524Y-108311961D01*
X206534524Y-108311961D02*
X206486905Y-108216723D01*
X206486905Y-108216723D02*
X206439286Y-108026247D01*
X206439286Y-108026247D02*
X206439286Y-107883390D01*
X206439286Y-107883390D02*
X206486905Y-107692914D01*
X206486905Y-107692914D02*
X206534524Y-107597676D01*
X206534524Y-107597676D02*
X206629762Y-107502438D01*
X206629762Y-107502438D02*
X206772619Y-107454819D01*
X206772619Y-107454819D02*
X206867857Y-107454819D01*
X206867857Y-107454819D02*
X207010714Y-107502438D01*
X207010714Y-107502438D02*
X207058333Y-107550057D01*
X207963095Y-107454819D02*
X207486905Y-107454819D01*
X207486905Y-107454819D02*
X207439286Y-107931009D01*
X207439286Y-107931009D02*
X207486905Y-107883390D01*
X207486905Y-107883390D02*
X207582143Y-107835771D01*
X207582143Y-107835771D02*
X207820238Y-107835771D01*
X207820238Y-107835771D02*
X207915476Y-107883390D01*
X207915476Y-107883390D02*
X207963095Y-107931009D01*
X207963095Y-107931009D02*
X208010714Y-108026247D01*
X208010714Y-108026247D02*
X208010714Y-108264342D01*
X208010714Y-108264342D02*
X207963095Y-108359580D01*
X207963095Y-108359580D02*
X207915476Y-108407200D01*
X207915476Y-108407200D02*
X207820238Y-108454819D01*
X207820238Y-108454819D02*
X207582143Y-108454819D01*
X207582143Y-108454819D02*
X207486905Y-108407200D01*
X207486905Y-108407200D02*
X207439286Y-108359580D01*
X192008333Y-108524819D02*
X191675000Y-108048628D01*
X191436905Y-108524819D02*
X191436905Y-107524819D01*
X191436905Y-107524819D02*
X191817857Y-107524819D01*
X191817857Y-107524819D02*
X191913095Y-107572438D01*
X191913095Y-107572438D02*
X191960714Y-107620057D01*
X191960714Y-107620057D02*
X192008333Y-107715295D01*
X192008333Y-107715295D02*
X192008333Y-107858152D01*
X192008333Y-107858152D02*
X191960714Y-107953390D01*
X191960714Y-107953390D02*
X191913095Y-108001009D01*
X191913095Y-108001009D02*
X191817857Y-108048628D01*
X191817857Y-108048628D02*
X191436905Y-108048628D01*
X192341667Y-107524819D02*
X193008333Y-107524819D01*
X193008333Y-107524819D02*
X192579762Y-108524819D01*
X174859580Y-108355414D02*
X174907200Y-108403033D01*
X174907200Y-108403033D02*
X174954819Y-108545890D01*
X174954819Y-108545890D02*
X174954819Y-108641128D01*
X174954819Y-108641128D02*
X174907200Y-108783985D01*
X174907200Y-108783985D02*
X174811961Y-108879223D01*
X174811961Y-108879223D02*
X174716723Y-108926842D01*
X174716723Y-108926842D02*
X174526247Y-108974461D01*
X174526247Y-108974461D02*
X174383390Y-108974461D01*
X174383390Y-108974461D02*
X174192914Y-108926842D01*
X174192914Y-108926842D02*
X174097676Y-108879223D01*
X174097676Y-108879223D02*
X174002438Y-108783985D01*
X174002438Y-108783985D02*
X173954819Y-108641128D01*
X173954819Y-108641128D02*
X173954819Y-108545890D01*
X173954819Y-108545890D02*
X174002438Y-108403033D01*
X174002438Y-108403033D02*
X174050057Y-108355414D01*
X173954819Y-107498271D02*
X173954819Y-107688747D01*
X173954819Y-107688747D02*
X174002438Y-107783985D01*
X174002438Y-107783985D02*
X174050057Y-107831604D01*
X174050057Y-107831604D02*
X174192914Y-107926842D01*
X174192914Y-107926842D02*
X174383390Y-107974461D01*
X174383390Y-107974461D02*
X174764342Y-107974461D01*
X174764342Y-107974461D02*
X174859580Y-107926842D01*
X174859580Y-107926842D02*
X174907200Y-107879223D01*
X174907200Y-107879223D02*
X174954819Y-107783985D01*
X174954819Y-107783985D02*
X174954819Y-107593509D01*
X174954819Y-107593509D02*
X174907200Y-107498271D01*
X174907200Y-107498271D02*
X174859580Y-107450652D01*
X174859580Y-107450652D02*
X174764342Y-107403033D01*
X174764342Y-107403033D02*
X174526247Y-107403033D01*
X174526247Y-107403033D02*
X174431009Y-107450652D01*
X174431009Y-107450652D02*
X174383390Y-107498271D01*
X174383390Y-107498271D02*
X174335771Y-107593509D01*
X174335771Y-107593509D02*
X174335771Y-107783985D01*
X174335771Y-107783985D02*
X174383390Y-107879223D01*
X174383390Y-107879223D02*
X174431009Y-107926842D01*
X174431009Y-107926842D02*
X174526247Y-107974461D01*
X162384819Y-127817857D02*
X161908628Y-128151190D01*
X162384819Y-128389285D02*
X161384819Y-128389285D01*
X161384819Y-128389285D02*
X161384819Y-128008333D01*
X161384819Y-128008333D02*
X161432438Y-127913095D01*
X161432438Y-127913095D02*
X161480057Y-127865476D01*
X161480057Y-127865476D02*
X161575295Y-127817857D01*
X161575295Y-127817857D02*
X161718152Y-127817857D01*
X161718152Y-127817857D02*
X161813390Y-127865476D01*
X161813390Y-127865476D02*
X161861009Y-127913095D01*
X161861009Y-127913095D02*
X161908628Y-128008333D01*
X161908628Y-128008333D02*
X161908628Y-128389285D01*
X162384819Y-126865476D02*
X162384819Y-127436904D01*
X162384819Y-127151190D02*
X161384819Y-127151190D01*
X161384819Y-127151190D02*
X161527676Y-127246428D01*
X161527676Y-127246428D02*
X161622914Y-127341666D01*
X161622914Y-127341666D02*
X161670533Y-127436904D01*
X161384819Y-125960714D02*
X161384819Y-126436904D01*
X161384819Y-126436904D02*
X161861009Y-126484523D01*
X161861009Y-126484523D02*
X161813390Y-126436904D01*
X161813390Y-126436904D02*
X161765771Y-126341666D01*
X161765771Y-126341666D02*
X161765771Y-126103571D01*
X161765771Y-126103571D02*
X161813390Y-126008333D01*
X161813390Y-126008333D02*
X161861009Y-125960714D01*
X161861009Y-125960714D02*
X161956247Y-125913095D01*
X161956247Y-125913095D02*
X162194342Y-125913095D01*
X162194342Y-125913095D02*
X162289580Y-125960714D01*
X162289580Y-125960714D02*
X162337200Y-126008333D01*
X162337200Y-126008333D02*
X162384819Y-126103571D01*
X162384819Y-126103571D02*
X162384819Y-126341666D01*
X162384819Y-126341666D02*
X162337200Y-126436904D01*
X162337200Y-126436904D02*
X162289580Y-126484523D01*
X171784819Y-127817857D02*
X171308628Y-128151190D01*
X171784819Y-128389285D02*
X170784819Y-128389285D01*
X170784819Y-128389285D02*
X170784819Y-128008333D01*
X170784819Y-128008333D02*
X170832438Y-127913095D01*
X170832438Y-127913095D02*
X170880057Y-127865476D01*
X170880057Y-127865476D02*
X170975295Y-127817857D01*
X170975295Y-127817857D02*
X171118152Y-127817857D01*
X171118152Y-127817857D02*
X171213390Y-127865476D01*
X171213390Y-127865476D02*
X171261009Y-127913095D01*
X171261009Y-127913095D02*
X171308628Y-128008333D01*
X171308628Y-128008333D02*
X171308628Y-128389285D01*
X171784819Y-126865476D02*
X171784819Y-127436904D01*
X171784819Y-127151190D02*
X170784819Y-127151190D01*
X170784819Y-127151190D02*
X170927676Y-127246428D01*
X170927676Y-127246428D02*
X171022914Y-127341666D01*
X171022914Y-127341666D02*
X171070533Y-127436904D01*
X170880057Y-126484523D02*
X170832438Y-126436904D01*
X170832438Y-126436904D02*
X170784819Y-126341666D01*
X170784819Y-126341666D02*
X170784819Y-126103571D01*
X170784819Y-126103571D02*
X170832438Y-126008333D01*
X170832438Y-126008333D02*
X170880057Y-125960714D01*
X170880057Y-125960714D02*
X170975295Y-125913095D01*
X170975295Y-125913095D02*
X171070533Y-125913095D01*
X171070533Y-125913095D02*
X171213390Y-125960714D01*
X171213390Y-125960714D02*
X171784819Y-126532142D01*
X171784819Y-126532142D02*
X171784819Y-125913095D01*
X203454819Y-110991666D02*
X202978628Y-111324999D01*
X203454819Y-111563094D02*
X202454819Y-111563094D01*
X202454819Y-111563094D02*
X202454819Y-111182142D01*
X202454819Y-111182142D02*
X202502438Y-111086904D01*
X202502438Y-111086904D02*
X202550057Y-111039285D01*
X202550057Y-111039285D02*
X202645295Y-110991666D01*
X202645295Y-110991666D02*
X202788152Y-110991666D01*
X202788152Y-110991666D02*
X202883390Y-111039285D01*
X202883390Y-111039285D02*
X202931009Y-111086904D01*
X202931009Y-111086904D02*
X202978628Y-111182142D01*
X202978628Y-111182142D02*
X202978628Y-111563094D01*
X202454819Y-110134523D02*
X202454819Y-110324999D01*
X202454819Y-110324999D02*
X202502438Y-110420237D01*
X202502438Y-110420237D02*
X202550057Y-110467856D01*
X202550057Y-110467856D02*
X202692914Y-110563094D01*
X202692914Y-110563094D02*
X202883390Y-110610713D01*
X202883390Y-110610713D02*
X203264342Y-110610713D01*
X203264342Y-110610713D02*
X203359580Y-110563094D01*
X203359580Y-110563094D02*
X203407200Y-110515475D01*
X203407200Y-110515475D02*
X203454819Y-110420237D01*
X203454819Y-110420237D02*
X203454819Y-110229761D01*
X203454819Y-110229761D02*
X203407200Y-110134523D01*
X203407200Y-110134523D02*
X203359580Y-110086904D01*
X203359580Y-110086904D02*
X203264342Y-110039285D01*
X203264342Y-110039285D02*
X203026247Y-110039285D01*
X203026247Y-110039285D02*
X202931009Y-110086904D01*
X202931009Y-110086904D02*
X202883390Y-110134523D01*
X202883390Y-110134523D02*
X202835771Y-110229761D01*
X202835771Y-110229761D02*
X202835771Y-110420237D01*
X202835771Y-110420237D02*
X202883390Y-110515475D01*
X202883390Y-110515475D02*
X202931009Y-110563094D01*
X202931009Y-110563094D02*
X203026247Y-110610713D01*
X168684819Y-127817857D02*
X168208628Y-128151190D01*
X168684819Y-128389285D02*
X167684819Y-128389285D01*
X167684819Y-128389285D02*
X167684819Y-128008333D01*
X167684819Y-128008333D02*
X167732438Y-127913095D01*
X167732438Y-127913095D02*
X167780057Y-127865476D01*
X167780057Y-127865476D02*
X167875295Y-127817857D01*
X167875295Y-127817857D02*
X168018152Y-127817857D01*
X168018152Y-127817857D02*
X168113390Y-127865476D01*
X168113390Y-127865476D02*
X168161009Y-127913095D01*
X168161009Y-127913095D02*
X168208628Y-128008333D01*
X168208628Y-128008333D02*
X168208628Y-128389285D01*
X168684819Y-126865476D02*
X168684819Y-127436904D01*
X168684819Y-127151190D02*
X167684819Y-127151190D01*
X167684819Y-127151190D02*
X167827676Y-127246428D01*
X167827676Y-127246428D02*
X167922914Y-127341666D01*
X167922914Y-127341666D02*
X167970533Y-127436904D01*
X167684819Y-126532142D02*
X167684819Y-125913095D01*
X167684819Y-125913095D02*
X168065771Y-126246428D01*
X168065771Y-126246428D02*
X168065771Y-126103571D01*
X168065771Y-126103571D02*
X168113390Y-126008333D01*
X168113390Y-126008333D02*
X168161009Y-125960714D01*
X168161009Y-125960714D02*
X168256247Y-125913095D01*
X168256247Y-125913095D02*
X168494342Y-125913095D01*
X168494342Y-125913095D02*
X168589580Y-125960714D01*
X168589580Y-125960714D02*
X168637200Y-126008333D01*
X168637200Y-126008333D02*
X168684819Y-126103571D01*
X168684819Y-126103571D02*
X168684819Y-126389285D01*
X168684819Y-126389285D02*
X168637200Y-126484523D01*
X168637200Y-126484523D02*
X168589580Y-126532142D01*
X175199405Y-101004819D02*
X175199405Y-100004819D01*
X175199405Y-100004819D02*
X175437500Y-100004819D01*
X175437500Y-100004819D02*
X175580357Y-100052438D01*
X175580357Y-100052438D02*
X175675595Y-100147676D01*
X175675595Y-100147676D02*
X175723214Y-100242914D01*
X175723214Y-100242914D02*
X175770833Y-100433390D01*
X175770833Y-100433390D02*
X175770833Y-100576247D01*
X175770833Y-100576247D02*
X175723214Y-100766723D01*
X175723214Y-100766723D02*
X175675595Y-100861961D01*
X175675595Y-100861961D02*
X175580357Y-100957200D01*
X175580357Y-100957200D02*
X175437500Y-101004819D01*
X175437500Y-101004819D02*
X175199405Y-101004819D01*
X176104167Y-100004819D02*
X176723214Y-100004819D01*
X176723214Y-100004819D02*
X176389881Y-100385771D01*
X176389881Y-100385771D02*
X176532738Y-100385771D01*
X176532738Y-100385771D02*
X176627976Y-100433390D01*
X176627976Y-100433390D02*
X176675595Y-100481009D01*
X176675595Y-100481009D02*
X176723214Y-100576247D01*
X176723214Y-100576247D02*
X176723214Y-100814342D01*
X176723214Y-100814342D02*
X176675595Y-100909580D01*
X176675595Y-100909580D02*
X176627976Y-100957200D01*
X176627976Y-100957200D02*
X176532738Y-101004819D01*
X176532738Y-101004819D02*
X176247024Y-101004819D01*
X176247024Y-101004819D02*
X176151786Y-100957200D01*
X176151786Y-100957200D02*
X176104167Y-100909580D01*
X170333333Y-111954819D02*
X170000000Y-111478628D01*
X169761905Y-111954819D02*
X169761905Y-110954819D01*
X169761905Y-110954819D02*
X170142857Y-110954819D01*
X170142857Y-110954819D02*
X170238095Y-111002438D01*
X170238095Y-111002438D02*
X170285714Y-111050057D01*
X170285714Y-111050057D02*
X170333333Y-111145295D01*
X170333333Y-111145295D02*
X170333333Y-111288152D01*
X170333333Y-111288152D02*
X170285714Y-111383390D01*
X170285714Y-111383390D02*
X170238095Y-111431009D01*
X170238095Y-111431009D02*
X170142857Y-111478628D01*
X170142857Y-111478628D02*
X169761905Y-111478628D01*
X170809524Y-111954819D02*
X171000000Y-111954819D01*
X171000000Y-111954819D02*
X171095238Y-111907200D01*
X171095238Y-111907200D02*
X171142857Y-111859580D01*
X171142857Y-111859580D02*
X171238095Y-111716723D01*
X171238095Y-111716723D02*
X171285714Y-111526247D01*
X171285714Y-111526247D02*
X171285714Y-111145295D01*
X171285714Y-111145295D02*
X171238095Y-111050057D01*
X171238095Y-111050057D02*
X171190476Y-111002438D01*
X171190476Y-111002438D02*
X171095238Y-110954819D01*
X171095238Y-110954819D02*
X170904762Y-110954819D01*
X170904762Y-110954819D02*
X170809524Y-111002438D01*
X170809524Y-111002438D02*
X170761905Y-111050057D01*
X170761905Y-111050057D02*
X170714286Y-111145295D01*
X170714286Y-111145295D02*
X170714286Y-111383390D01*
X170714286Y-111383390D02*
X170761905Y-111478628D01*
X170761905Y-111478628D02*
X170809524Y-111526247D01*
X170809524Y-111526247D02*
X170904762Y-111573866D01*
X170904762Y-111573866D02*
X171095238Y-111573866D01*
X171095238Y-111573866D02*
X171190476Y-111526247D01*
X171190476Y-111526247D02*
X171238095Y-111478628D01*
X171238095Y-111478628D02*
X171285714Y-111383390D01*
D14*
%TO.C,D2*%
X184062500Y-105210000D02*
X186747500Y-105210000D01*
X186747500Y-103290000D02*
X184062500Y-103290000D01*
X186747500Y-105210000D02*
X186747500Y-103290000D01*
%TO.C,R5*%
X185187742Y-101022500D02*
X185662258Y-101022500D01*
X185187742Y-99977500D02*
X185662258Y-99977500D01*
%TO.C,J6*%
X161420000Y-122910000D02*
X161420000Y-121750000D01*
X162230000Y-122910000D02*
X161420000Y-122910000D01*
X163040000Y-122910000D02*
X165515000Y-122910000D01*
X163040000Y-122910000D02*
X163040000Y-122416708D01*
X165515000Y-122910000D02*
X165515000Y-122067923D01*
X165515000Y-121432077D02*
X165515000Y-120590000D01*
X163040000Y-121083292D02*
X163040000Y-120590000D01*
X163040000Y-120590000D02*
X165515000Y-120590000D01*
%TO.C,J1*%
X167670000Y-123680000D02*
X167670000Y-122500000D01*
X168480000Y-123680000D02*
X167670000Y-123680000D01*
X169290000Y-123680000D02*
X171765000Y-123680000D01*
X169290000Y-123680000D02*
X169290000Y-123166708D01*
X171765000Y-123680000D02*
X171765000Y-122817923D01*
X171765000Y-122182077D02*
X171765000Y-121547923D01*
X167735000Y-120912077D02*
X167735000Y-120050000D01*
X171765000Y-120912077D02*
X171765000Y-120050000D01*
X167735000Y-120050000D02*
X171765000Y-120050000D01*
D15*
%TO.C,IC1*%
X183100000Y-117600000D02*
X183100000Y-117600000D01*
X183100000Y-117700000D02*
X183100000Y-117700000D01*
X183500000Y-117150000D02*
X184200000Y-117150000D01*
X183500000Y-117400000D02*
X183500000Y-117150000D01*
X183500000Y-119500000D02*
X183500000Y-119650000D01*
X183500000Y-119650000D02*
X184200000Y-119650000D01*
X185800000Y-117150000D02*
X186500000Y-117150000D01*
X185800000Y-119650000D02*
X186500000Y-119650000D01*
X186500000Y-117150000D02*
X186500000Y-117400000D01*
X186500000Y-119650000D02*
X186500000Y-119400000D01*
X183100000Y-117600000D02*
G75*
G02*
X183100000Y-117700000I0J-50000D01*
G01*
X183100000Y-117700000D02*
G75*
G02*
X183100000Y-117600000I0J50000D01*
G01*
D14*
%TO.C,SCRN1*%
X179310000Y-122620000D02*
X179310000Y-125380000D01*
X187040000Y-122620000D02*
X179310000Y-122620000D01*
X187040000Y-122620000D02*
X187040000Y-125380000D01*
X187040000Y-125380000D02*
X179310000Y-125380000D01*
X188310000Y-122620000D02*
X189690000Y-122620000D01*
X189690000Y-122620000D02*
X189690000Y-124000000D01*
%TO.C,R14*%
X163177500Y-126937742D02*
X163177500Y-127412258D01*
X164222500Y-126937742D02*
X164222500Y-127412258D01*
%TO.C,D1*%
X164890000Y-113500000D02*
X164890000Y-115500000D01*
X164890000Y-113500000D02*
X168750000Y-113500000D01*
X164890000Y-115500000D02*
X168750000Y-115500000D01*
D15*
%TO.C,SELECT1*%
X152225000Y-118850000D02*
X152225000Y-118850000D01*
X152325000Y-118850000D02*
X152325000Y-118850000D01*
X152325000Y-118850000D02*
X152325000Y-118850000D01*
D16*
X157525000Y-116100000D02*
X154325000Y-116100000D01*
X157525000Y-119600000D02*
X154325000Y-119600000D01*
D15*
X152225000Y-118850000D02*
G75*
G02*
X152325000Y-118850000I50000J0D01*
G01*
X152225000Y-118850000D02*
G75*
G02*
X152325000Y-118850000I50000J0D01*
G01*
X152325000Y-118850000D02*
G75*
G02*
X152225000Y-118850000I-50000J0D01*
G01*
D14*
%TO.C,U3*%
X165940000Y-108637500D02*
X165940000Y-107837500D01*
X165940000Y-108637500D02*
X165940000Y-109437500D01*
X169060000Y-108637500D02*
X169060000Y-107837500D01*
X169060000Y-108637500D02*
X169060000Y-109437500D01*
X169340000Y-107577500D02*
X169010000Y-107337500D01*
X169340000Y-107097500D01*
X169340000Y-107577500D01*
G36*
X169340000Y-107577500D02*
G01*
X169010000Y-107337500D01*
X169340000Y-107097500D01*
X169340000Y-107577500D01*
G37*
D15*
%TO.C,MENU1*%
X152225000Y-111350000D02*
X152225000Y-111350000D01*
X152325000Y-111350000D02*
X152325000Y-111350000D01*
X152325000Y-111350000D02*
X152325000Y-111350000D01*
D16*
X157525000Y-108600000D02*
X154325000Y-108600000D01*
X157525000Y-112100000D02*
X154325000Y-112100000D01*
D15*
X152225000Y-111350000D02*
G75*
G02*
X152325000Y-111350000I50000J0D01*
G01*
X152225000Y-111350000D02*
G75*
G02*
X152325000Y-111350000I50000J0D01*
G01*
X152325000Y-111350000D02*
G75*
G02*
X152225000Y-111350000I-50000J0D01*
G01*
D14*
%TO.C,C11*%
X190490000Y-123084420D02*
X190490000Y-123365580D01*
X191510000Y-123084420D02*
X191510000Y-123365580D01*
%TO.C,R2*%
X199477500Y-108587742D02*
X199477500Y-109062258D01*
X200522500Y-108587742D02*
X200522500Y-109062258D01*
%TO.C,Q3*%
X166562500Y-100890000D02*
X165912500Y-100890000D01*
X166562500Y-100890000D02*
X167212500Y-100890000D01*
X166562500Y-104010000D02*
X165912500Y-104010000D01*
X166562500Y-104010000D02*
X167212500Y-104010000D01*
X165400000Y-100940000D02*
X165160000Y-100610000D01*
X165640000Y-100610000D01*
X165400000Y-100940000D01*
G36*
X165400000Y-100940000D02*
G01*
X165160000Y-100610000D01*
X165640000Y-100610000D01*
X165400000Y-100940000D01*
G37*
%TO.C,R4*%
X184412258Y-110477500D02*
X183937742Y-110477500D01*
X184412258Y-111522500D02*
X183937742Y-111522500D01*
%TO.C,MAX1*%
X171362500Y-100940000D02*
X170562500Y-100940000D01*
X171362500Y-100940000D02*
X172162500Y-100940000D01*
X171362500Y-104060000D02*
X170562500Y-104060000D01*
X171362500Y-104060000D02*
X172162500Y-104060000D01*
X170062500Y-100990000D02*
X169822500Y-100660000D01*
X170302500Y-100660000D01*
X170062500Y-100990000D01*
G36*
X170062500Y-100990000D02*
G01*
X169822500Y-100660000D01*
X170302500Y-100660000D01*
X170062500Y-100990000D01*
G37*
D16*
%TO.C,BOOT1*%
X204400000Y-105025000D02*
X204400000Y-101825000D01*
D15*
X205150000Y-99725000D02*
X205150000Y-99725000D01*
X205150000Y-99825000D02*
X205150000Y-99825000D01*
X205150000Y-99825000D02*
X205150000Y-99825000D01*
D16*
X207900000Y-105025000D02*
X207900000Y-101825000D01*
D15*
X205150000Y-99725000D02*
G75*
G02*
X205150000Y-99825000I0J-50000D01*
G01*
X205150000Y-99725000D02*
G75*
G02*
X205150000Y-99825000I0J-50000D01*
G01*
X205150000Y-99825000D02*
G75*
G02*
X205150000Y-99725000I0J50000D01*
G01*
D14*
%TO.C,Q2*%
X169990000Y-114537500D02*
X169990000Y-113887500D01*
X169990000Y-114537500D02*
X169990000Y-115187500D01*
X173110000Y-114537500D02*
X173110000Y-113887500D01*
X173110000Y-114537500D02*
X173110000Y-115187500D01*
X173390000Y-113615000D02*
X173060000Y-113375000D01*
X173390000Y-113135000D01*
X173390000Y-113615000D01*
G36*
X173390000Y-113615000D02*
G01*
X173060000Y-113375000D01*
X173390000Y-113135000D01*
X173390000Y-113615000D01*
G37*
%TO.C,R1*%
X196477500Y-108587742D02*
X196477500Y-109062258D01*
X197522500Y-108587742D02*
X197522500Y-109062258D01*
D16*
%TO.C,SW_PWR1*%
X178850000Y-104675000D02*
X178850000Y-101475000D01*
X182350000Y-104675000D02*
X182350000Y-101475000D01*
D15*
X179600000Y-99475000D02*
X179600000Y-99475000D01*
X179600000Y-99475000D02*
X179600000Y-99475000D01*
X179600000Y-99375000D02*
X179600000Y-99375000D01*
X179600000Y-99475000D02*
G75*
G02*
X179600000Y-99375000I0J50000D01*
G01*
X179600000Y-99375000D02*
G75*
G02*
X179600000Y-99475000I0J-50000D01*
G01*
X179600000Y-99375000D02*
G75*
G02*
X179600000Y-99475000I0J-50000D01*
G01*
D14*
%TO.C,C10*%
X207084420Y-111990000D02*
X207365580Y-111990000D01*
X207084420Y-113010000D02*
X207365580Y-113010000D01*
%TO.C,R8*%
X192652500Y-111762742D02*
X192652500Y-112237258D01*
X193697500Y-111762742D02*
X193697500Y-112237258D01*
%TO.C,C8*%
X184084420Y-107990000D02*
X184365580Y-107990000D01*
X184084420Y-109010000D02*
X184365580Y-109010000D01*
%TO.C,J2*%
X216880000Y-116880000D02*
X215500000Y-116880000D01*
X216880000Y-115500000D02*
X216880000Y-116880000D01*
X214120000Y-114230000D02*
X214120000Y-111580000D01*
X216880000Y-114230000D02*
X214120000Y-114230000D01*
X216880000Y-114230000D02*
X216880000Y-111580000D01*
X216880000Y-111580000D02*
X214120000Y-111580000D01*
%TO.C,R3*%
X168762742Y-106022500D02*
X169237258Y-106022500D01*
X168762742Y-104977500D02*
X169237258Y-104977500D01*
%TO.C,C7*%
X175265000Y-107688748D02*
X175265000Y-108211252D01*
X176735000Y-107688748D02*
X176735000Y-108211252D01*
%TO.C,U4*%
X188362500Y-108890000D02*
X187562500Y-108890000D01*
X188362500Y-108890000D02*
X189162500Y-108890000D01*
X188362500Y-112010000D02*
X187562500Y-112010000D01*
X188362500Y-112010000D02*
X189162500Y-112010000D01*
X189902500Y-112290000D02*
X189422500Y-112290000D01*
X189662500Y-111960000D01*
X189902500Y-112290000D01*
G36*
X189902500Y-112290000D02*
G01*
X189422500Y-112290000D01*
X189662500Y-111960000D01*
X189902500Y-112290000D01*
G37*
D16*
%TO.C,SW_RST1*%
X187900000Y-105025000D02*
X187900000Y-101825000D01*
D15*
X188650000Y-99725000D02*
X188650000Y-99725000D01*
X188650000Y-99825000D02*
X188650000Y-99825000D01*
X188650000Y-99825000D02*
X188650000Y-99825000D01*
D16*
X191400000Y-105025000D02*
X191400000Y-101825000D01*
D15*
X188650000Y-99725000D02*
G75*
G02*
X188650000Y-99825000I0J-50000D01*
G01*
X188650000Y-99725000D02*
G75*
G02*
X188650000Y-99825000I0J-50000D01*
G01*
X188650000Y-99825000D02*
G75*
G02*
X188650000Y-99725000I0J50000D01*
G01*
D14*
%TO.C,J4*%
X193050000Y-98955000D02*
X193050000Y-97055000D01*
X193050000Y-102855000D02*
X193050000Y-100855000D01*
X202450000Y-97055000D02*
X193050000Y-97055000D01*
X202450000Y-98955000D02*
X202450000Y-97055000D01*
X202450000Y-102855000D02*
X202450000Y-100855000D01*
%TO.C,C5*%
X207365580Y-108990000D02*
X207084420Y-108990000D01*
X207365580Y-110010000D02*
X207084420Y-110010000D01*
%TO.C,R7*%
X191937742Y-108977500D02*
X192412258Y-108977500D01*
X191937742Y-110022500D02*
X192412258Y-110022500D01*
%TO.C,C6*%
X171765000Y-108711252D02*
X171765000Y-108188748D01*
X173235000Y-108711252D02*
X173235000Y-108188748D01*
%TO.C,R15*%
X159977500Y-126937742D02*
X159977500Y-127412258D01*
X161022500Y-126937742D02*
X161022500Y-127412258D01*
%TO.C,R12*%
X169377500Y-126937742D02*
X169377500Y-127412258D01*
X170422500Y-126937742D02*
X170422500Y-127412258D01*
%TO.C,R6*%
X203977500Y-111062258D02*
X203977500Y-110587742D01*
X205022500Y-111062258D02*
X205022500Y-110587742D01*
%TO.C,R13*%
X166277500Y-126937742D02*
X166277500Y-127412258D01*
X167322500Y-126937742D02*
X167322500Y-127412258D01*
%TO.C,D3*%
X175937500Y-101390000D02*
X175287500Y-101390000D01*
X175937500Y-101390000D02*
X176587500Y-101390000D01*
X175937500Y-104510000D02*
X175287500Y-104510000D01*
X175937500Y-104510000D02*
X176587500Y-104510000D01*
X174775000Y-101440000D02*
X174535000Y-101110000D01*
X175015000Y-101110000D01*
X174775000Y-101440000D01*
G36*
X174775000Y-101440000D02*
G01*
X174535000Y-101110000D01*
X175015000Y-101110000D01*
X174775000Y-101440000D01*
G37*
%TO.C,R9*%
X172437742Y-110977500D02*
X172912258Y-110977500D01*
X172437742Y-112022500D02*
X172912258Y-112022500D01*
%TO.C,J3*%
X172325000Y-125840000D02*
X172325000Y-126682077D01*
X172325000Y-127317923D02*
X172325000Y-128160000D01*
X195120000Y-125840000D02*
X172325000Y-125840000D01*
X195120000Y-125840000D02*
X195120000Y-126333292D01*
X195120000Y-127666708D02*
X195120000Y-128160000D01*
X195120000Y-128160000D02*
X172325000Y-128160000D01*
X195930000Y-125840000D02*
X196740000Y-125840000D01*
X196740000Y-125840000D02*
X196740000Y-127000000D01*
%TD*%
M02*
