%TF.GenerationSoftware,KiCad,Pcbnew,9.0.1*%
%TF.CreationDate,2025-06-14T17:56:14-05:00*%
%TF.ProjectId,OM-FlexGrid-Rigid-PCB,4f4d2d46-6c65-4784-9772-69642d526967,rev?*%
%TF.SameCoordinates,Original*%
%TF.FileFunction,Soldermask,Top*%
%TF.FilePolarity,Negative*%
%FSLAX46Y46*%
G04 Gerber Fmt 4.6, Leading zero omitted, Abs format (unit mm)*
G04 Created by KiCad (PCBNEW 9.0.1) date 2025-06-14 17:56:14*
%MOMM*%
%LPD*%
G01*
G04 APERTURE LIST*
G04 Aperture macros list*
%AMRoundRect*
0 Rectangle with rounded corners*
0 $1 Rounding radius*
0 $2 $3 $4 $5 $6 $7 $8 $9 X,Y pos of 4 corners*
0 Add a 4 corners polygon primitive as box body*
4,1,4,$2,$3,$4,$5,$6,$7,$8,$9,$2,$3,0*
0 Add four circle primitives for the rounded corners*
1,1,$1+$1,$2,$3*
1,1,$1+$1,$4,$5*
1,1,$1+$1,$6,$7*
1,1,$1+$1,$8,$9*
0 Add four rect primitives between the rounded corners*
20,1,$1+$1,$2,$3,$4,$5,0*
20,1,$1+$1,$4,$5,$6,$7,0*
20,1,$1+$1,$6,$7,$8,$9,0*
20,1,$1+$1,$8,$9,$2,$3,0*%
G04 Aperture macros list end*
%ADD10RoundRect,0.243750X0.243750X0.456250X-0.243750X0.456250X-0.243750X-0.456250X0.243750X-0.456250X0*%
%ADD11RoundRect,0.200000X-0.200000X-0.275000X0.200000X-0.275000X0.200000X0.275000X-0.200000X0.275000X0*%
%ADD12R,1.000000X1.000000*%
%ADD13C,1.000000*%
%ADD14RoundRect,0.101600X-0.300000X-0.150000X0.300000X-0.150000X0.300000X0.150000X-0.300000X0.150000X0*%
%ADD15RoundRect,0.101600X0.150000X-0.300000X0.150000X0.300000X-0.150000X0.300000X-0.150000X-0.300000X0*%
%ADD16R,1.700000X1.700000*%
%ADD17C,1.700000*%
%ADD18C,2.200000*%
%ADD19RoundRect,0.200000X-0.275000X0.200000X-0.275000X-0.200000X0.275000X-0.200000X0.275000X0.200000X0*%
%ADD20RoundRect,0.250000X-0.300000X-0.300000X0.300000X-0.300000X0.300000X0.300000X-0.300000X0.300000X0*%
%ADD21R,1.450000X1.000000*%
%ADD22RoundRect,0.150000X-0.150000X0.512500X-0.150000X-0.512500X0.150000X-0.512500X0.150000X0.512500X0*%
%ADD23RoundRect,0.225000X-0.250000X0.225000X-0.250000X-0.225000X0.250000X-0.225000X0.250000X0.225000X0*%
%ADD24RoundRect,0.150000X-0.587500X-0.150000X0.587500X-0.150000X0.587500X0.150000X-0.587500X0.150000X0*%
%ADD25RoundRect,0.200000X0.200000X0.275000X-0.200000X0.275000X-0.200000X-0.275000X0.200000X-0.275000X0*%
%ADD26RoundRect,0.150000X-0.512500X-0.150000X0.512500X-0.150000X0.512500X0.150000X-0.512500X0.150000X0*%
%ADD27R,1.000000X1.450000*%
%ADD28RoundRect,0.150000X-0.150000X0.587500X-0.150000X-0.587500X0.150000X-0.587500X0.150000X0.587500X0*%
%ADD29RoundRect,0.225000X-0.225000X-0.250000X0.225000X-0.250000X0.225000X0.250000X-0.225000X0.250000X0*%
%ADD30RoundRect,0.250000X-0.475000X0.250000X-0.475000X-0.250000X0.475000X-0.250000X0.475000X0.250000X0*%
%ADD31RoundRect,0.150000X0.512500X0.150000X-0.512500X0.150000X-0.512500X-0.150000X0.512500X-0.150000X0*%
%ADD32C,0.650000*%
%ADD33R,0.600000X1.450000*%
%ADD34R,0.300000X1.450000*%
%ADD35O,1.000000X2.100000*%
%ADD36O,1.000000X1.600000*%
%ADD37RoundRect,0.225000X0.225000X0.250000X-0.225000X0.250000X-0.225000X-0.250000X0.225000X-0.250000X0*%
%ADD38RoundRect,0.250000X0.475000X-0.250000X0.475000X0.250000X-0.475000X0.250000X-0.475000X-0.250000X0*%
%ADD39RoundRect,0.200000X0.275000X-0.200000X0.275000X0.200000X-0.275000X0.200000X-0.275000X-0.200000X0*%
%ADD40R,1.350000X1.350000*%
%ADD41C,1.350000*%
G04 APERTURE END LIST*
D10*
%TO.C,D2*%
X186000000Y-104250000D03*
X184125000Y-104250000D03*
%TD*%
D11*
%TO.C,R5*%
X186250000Y-100500000D03*
X184600000Y-100500000D03*
%TD*%
D12*
%TO.C,J6*%
X162230000Y-121750000D03*
D13*
X163500000Y-121750000D03*
X164770000Y-121750000D03*
%TD*%
D12*
%TO.C,J1*%
X168480000Y-122500000D03*
D13*
X168480000Y-121230000D03*
X169750000Y-122500000D03*
X169750000Y-121230000D03*
X171020000Y-122500000D03*
X171020000Y-121230000D03*
%TD*%
D14*
%TO.C,IC1*%
X183850000Y-117650000D03*
X183850000Y-118150000D03*
X183850000Y-118650000D03*
X183850000Y-119150000D03*
D15*
X184500000Y-119300000D03*
X185000000Y-119300000D03*
X185500000Y-119300000D03*
D14*
X186150000Y-119150000D03*
X186150000Y-118650000D03*
X186150000Y-118150000D03*
X186150000Y-117650000D03*
D15*
X185500000Y-117500000D03*
X185000000Y-117500000D03*
X184500000Y-117500000D03*
%TD*%
D16*
%TO.C,SCRN1*%
X188310000Y-124000000D03*
D17*
X185770000Y-124000000D03*
X183230000Y-124000000D03*
X180690000Y-124000000D03*
%TD*%
D18*
%TO.C,H4*%
X157000000Y-126500000D03*
%TD*%
%TO.C,H3*%
X212000000Y-126000000D03*
%TD*%
D19*
%TO.C,R14*%
X163700000Y-126350000D03*
X163700000Y-128000000D03*
%TD*%
D20*
%TO.C,D1*%
X165700000Y-114500000D03*
X168500000Y-114500000D03*
%TD*%
D21*
%TO.C,SELECT1*%
X153350000Y-118700000D03*
X153350000Y-117000000D03*
X158500000Y-118700000D03*
X158500000Y-117000000D03*
%TD*%
D22*
%TO.C,U3*%
X168450000Y-107500000D03*
X167500000Y-107500000D03*
X166550000Y-107500000D03*
X166550000Y-109775000D03*
X168450000Y-109775000D03*
%TD*%
D21*
%TO.C,MENU1*%
X153350000Y-111200000D03*
X153350000Y-109500000D03*
X158500000Y-111200000D03*
X158500000Y-109500000D03*
%TD*%
D23*
%TO.C,C11*%
X191000000Y-122450000D03*
X191000000Y-124000000D03*
%TD*%
D19*
%TO.C,R2*%
X200000000Y-108000000D03*
X200000000Y-109650000D03*
%TD*%
D24*
%TO.C,Q3*%
X165625000Y-101500000D03*
X165625000Y-103400000D03*
X167500000Y-102450000D03*
%TD*%
D25*
%TO.C,R4*%
X185000000Y-111000000D03*
X183350000Y-111000000D03*
%TD*%
D18*
%TO.C,H1*%
X157000000Y-103500000D03*
%TD*%
D26*
%TO.C,MAX1*%
X170225000Y-101550000D03*
X170225000Y-102500000D03*
X170225000Y-103450000D03*
X172500000Y-103450000D03*
X172500000Y-102500000D03*
X172500000Y-101550000D03*
%TD*%
D27*
%TO.C,BOOT1*%
X205300000Y-100850000D03*
X207000000Y-100850000D03*
X205300000Y-106000000D03*
X207000000Y-106000000D03*
%TD*%
D28*
%TO.C,Q2*%
X172500000Y-113600000D03*
X170600000Y-113600000D03*
X171550000Y-115475000D03*
%TD*%
D19*
%TO.C,R1*%
X197000000Y-108000000D03*
X197000000Y-109650000D03*
%TD*%
D27*
%TO.C,SW_PWR1*%
X179750000Y-100500000D03*
X181450000Y-100500000D03*
X179750000Y-105650000D03*
X181450000Y-105650000D03*
%TD*%
D29*
%TO.C,C10*%
X206450000Y-112500000D03*
X208000000Y-112500000D03*
%TD*%
D19*
%TO.C,R8*%
X193175000Y-111175000D03*
X193175000Y-112825000D03*
%TD*%
D29*
%TO.C,C8*%
X183450000Y-108500000D03*
X185000000Y-108500000D03*
%TD*%
D16*
%TO.C,J2*%
X215500000Y-115500000D03*
D17*
X215500000Y-112960000D03*
%TD*%
D11*
%TO.C,R3*%
X168175000Y-105500000D03*
X169825000Y-105500000D03*
%TD*%
D18*
%TO.C,H2*%
X212000000Y-104000000D03*
%TD*%
D30*
%TO.C,C7*%
X176000000Y-107000000D03*
X176000000Y-108900000D03*
%TD*%
D31*
%TO.C,U4*%
X189500000Y-111400000D03*
X189500000Y-110450000D03*
X189500000Y-109500000D03*
X187225000Y-109500000D03*
X187225000Y-111400000D03*
%TD*%
D27*
%TO.C,SW_RST1*%
X188800000Y-100850000D03*
X190500000Y-100850000D03*
X188800000Y-106000000D03*
X190500000Y-106000000D03*
%TD*%
D32*
%TO.C,J4*%
X200640000Y-103555000D03*
X194860000Y-103555000D03*
D33*
X201000000Y-105000000D03*
X200200000Y-105000000D03*
D34*
X199000000Y-105000000D03*
X198000000Y-105000000D03*
X197500000Y-105000000D03*
X196500000Y-105000000D03*
D33*
X195300000Y-105000000D03*
X194500000Y-105000000D03*
X194500000Y-105000000D03*
X195300000Y-105000000D03*
D34*
X196000000Y-105000000D03*
X197000000Y-105000000D03*
X198500000Y-105000000D03*
X199500000Y-105000000D03*
D33*
X200200000Y-105000000D03*
X201000000Y-105000000D03*
D35*
X202070000Y-104085000D03*
D36*
X202070000Y-99905000D03*
D35*
X193430000Y-104085000D03*
D36*
X193430000Y-99905000D03*
%TD*%
D37*
%TO.C,C5*%
X208000000Y-109500000D03*
X206450000Y-109500000D03*
%TD*%
D11*
%TO.C,R7*%
X191350000Y-109500000D03*
X193000000Y-109500000D03*
%TD*%
D38*
%TO.C,C6*%
X172500000Y-109400000D03*
X172500000Y-107500000D03*
%TD*%
D19*
%TO.C,R15*%
X160500000Y-126350000D03*
X160500000Y-128000000D03*
%TD*%
%TO.C,R12*%
X169900000Y-126350000D03*
X169900000Y-128000000D03*
%TD*%
D39*
%TO.C,R6*%
X204500000Y-111650000D03*
X204500000Y-110000000D03*
%TD*%
D19*
%TO.C,R13*%
X166800000Y-126350000D03*
X166800000Y-128000000D03*
%TD*%
D24*
%TO.C,D3*%
X175000000Y-102000000D03*
X175000000Y-103900000D03*
X176875000Y-102950000D03*
%TD*%
D11*
%TO.C,R9*%
X171850000Y-111500000D03*
X173500000Y-111500000D03*
%TD*%
D40*
%TO.C,J5*%
X214500000Y-108000000D03*
D41*
X212500000Y-108000000D03*
%TD*%
D12*
%TO.C,J3*%
X195930000Y-127000000D03*
D13*
X194660000Y-127000000D03*
X193390000Y-127000000D03*
X192120000Y-127000000D03*
X190850000Y-127000000D03*
X189580000Y-127000000D03*
X188310000Y-127000000D03*
X187040000Y-127000000D03*
X185770000Y-127000000D03*
X184500000Y-127000000D03*
X183230000Y-127000000D03*
X181960000Y-127000000D03*
X180690000Y-127000000D03*
X179420000Y-127000000D03*
X178150000Y-127000000D03*
X176880000Y-127000000D03*
X175610000Y-127000000D03*
X174340000Y-127000000D03*
X173070000Y-127000000D03*
%TD*%
M02*
